<?xml version="1.0" encoding="UTF-8" standalone="no"?>
<!-- Created with Inkscape (http://www.inkscape.org/) -->

<svg
   xmlns:dc="http://purl.org/dc/elements/1.1/"
   xmlns:cc="http://creativecommons.org/ns#"
   xmlns:rdf="http://www.w3.org/1999/02/22-rdf-syntax-ns#"
   xmlns:svg="http://www.w3.org/2000/svg"
   xmlns="http://www.w3.org/2000/svg"
   xmlns:sodipodi="http://sodipodi.sourceforge.net/DTD/sodipodi-0.dtd"
   xmlns:inkscape="http://www.inkscape.org/namespaces/inkscape"
   width="210mm"
   height="297mm"
   id="svg2"
   version="1.1"
   inkscape:version="0.48.5 r10040"
   sodipodi:docname="Novo documento 1">
  <defs
     id="defs4" />
  <sodipodi:namedview
     id="base"
     pagecolor="#ffffff"
     bordercolor="#666666"
     borderopacity="1.0"
     inkscape:pageopacity="0.0"
     inkscape:pageshadow="2"
     inkscape:zoom="1.979899"
     inkscape:cx="247.1953"
     inkscape:cy="577.14286"
     inkscape:document-units="px"
     inkscape:current-layer="layer1"
     showgrid="false"
     showguides="true"
     inkscape:guide-bbox="true"
     inkscape:window-width="1366"
     inkscape:window-height="719"
     inkscape:window-x="0"
     inkscape:window-y="25"
     inkscape:window-maximized="1">
    <sodipodi:guide
       orientation="0,1"
       position="280.31733,632.35549"
       id="guide3805" />
    <sodipodi:guide
       orientation="0,1"
       position="266.68027,535.88593"
       id="guide3843" />
  </sodipodi:namedview>
  <metadata
     id="metadata7">
    <rdf:RDF>
      <cc:Work
         rdf:about="">
        <dc:format>image/svg+xml</dc:format>
        <dc:type
           rdf:resource="http://purl.org/dc/dcmitype/StillImage" />
        <dc:title></dc:title>
      </cc:Work>
    </rdf:RDF>
  </metadata>
  <g
     inkscape:label="Camada 1"
     inkscape:groupmode="layer"
     id="layer1">
    <g
       id="g3845">
      <path
         d="m 260,492.36218 c 1.86228,4.15433 -4.68117,4.55992 -6.90476,3.09524 -6.02582,-3.9692 -3.87201,-12.8038 0.71429,-16.90477 8.20383,-7.33565 20.87807,-3.73286 26.90476,4.52383 8.84441,12.11702 3.63305,29.07758 -8.33336,36.90476 -15.94933,10.4324 -37.32359,3.55259 -46.90475,-12.14289 -12.05691,-19.75116 -3.48269,-45.59229 15.95242,-56.90475 23.53852,-13.70091 53.87385,-3.419 66.90475,19.76195 15.35646,27.31794 3.35921,62.16345 -23.57148,76.90475 -31.09255,17.0194 -70.45842,3.30203 -86.90475,-27.38101 -18.68735,-34.86403 -3.24668,-78.75716 31.19054,-96.90475 38.63336,-20.35885 87.05864,-3.19264 106.90474,35.00007 22.03295,42.40116 3.1396,95.36217 -38.8096,116.90474"
         sodipodi:t0="0"
         sodipodi:argument="-17.700178"
         sodipodi:radius="90.801422"
         sodipodi:revolution="3"
         sodipodi:expansion="1"
         sodipodi:cy="492.36218"
         sodipodi:cx="260"
         id="path2985"
         style="fill:none;stroke:#000000;stroke-width:10;stroke-linecap:round;stroke-linejoin:round;stroke-opacity:1;stroke-miterlimit:4;stroke-dasharray:none"
         sodipodi:type="spiral" />
      <path
         sodipodi:nodetypes="sssssssssssssssssssssssssssssssssssssssssssssss"
         inkscape:connector-curvature="0"
         id="path3755"
         d="m 262.90625,368.0625 c -2.28013,0.14178 -4.52419,0.61167 -6.77829,0.96294 -2.10278,0.41603 -4.16234,1.03142 -6.13048,1.88253 -3.37024,1.34579 -6.4951,3.27457 -9.33037,5.53037 -3.11435,2.61116 -5.77142,5.81624 -7.51558,9.50175 -0.7363,1.62934 -1.25205,3.35503 -1.69095,5.08491 -0.45725,2.02609 -0.61694,4.11577 -0.50958,6.18856 0.11931,2.64103 0.78184,5.24648 1.79596,7.6809 0.6507,1.53817 1.45375,3.01322 2.52909,4.29878 0.64028,0.81281 1.24724,1.67204 2.1302,2.24426 0.79876,0.69633 1.67535,1.341 2.67472,1.71001 1.01094,0.41222 1.98895,0.95701 3.07528,1.16499 1.16697,0.32463 2.37161,0.46005 3.57755,0.51695 2.11283,0.23444 4.23525,0.0136 6.34923,-0.0794 2.69919,-0.21351 5.38159,-0.61037 8.08922,-0.72341 3.4361,-0.22017 6.88813,-0.2652 10.32404,-0.0157 3.34332,0.19682 6.68009,0.52767 10.02557,0.67658 1.91395,0.0359 3.8362,-0.0654 5.70253,-0.5181 2.20129,-0.46601 4.2635,-1.54622 5.89525,-3.09681 1.19646,-0.95862 2.09195,-2.21937 2.94443,-3.47858 1.34575,-2.10976 2.24451,-4.49217 2.78295,-6.92978 0.79738,-3.6018 0.68453,-7.39971 -0.3566,-10.94056 -0.83184,-3.01882 -2.28035,-5.85439 -4.16929,-8.34717 -2.59385,-3.50211 -6.03517,-6.33099 -9.85732,-8.40165 -2.46402,-1.47248 -5.15095,-2.54522 -7.90131,-3.34985 -1.86499,-0.44952 -3.73062,-0.9101 -5.64305,-1.10944 -2.65383,-0.33379 -5.33905,-0.50629 -8.0132,-0.45306 z"
         style="fill:none;stroke:#000000;stroke-width:10;stroke-linecap:round;stroke-linejoin:round;stroke-miterlimit:4;stroke-opacity:1" />
      <path
         sodipodi:nodetypes="sssssssssssssssssssssssssssssssssssssssssssssss"
         inkscape:connector-curvature="0"
         id="path3755-6"
         d="m 152.65379,443.30932 c -0.63779,1.75455 -0.96449,3.61745 -1.40265,5.43897 -0.32826,1.73562 -0.46032,3.52123 -0.34684,5.33596 0.0926,3.06155 0.79889,6.18075 1.90059,9.2193 1.33162,3.39256 3.35822,6.68966 6.12965,9.50563 1.23693,1.21905 2.63585,2.31374 4.06443,3.35299 1.6923,1.17493 3.54264,2.15473 5.46743,2.92891 2.44656,0.99943 5.04343,1.58011 7.60273,1.82877 1.62042,0.14973 3.23457,0.16013 4.76765,-0.1101 0.95599,-0.14145 1.94306,-0.23888 2.76147,-0.65992 0.90315,-0.30726 1.78542,-0.69371 2.45782,-1.28507 0.71565,-0.58218 1.54104,-1.08522 2.09596,-1.80763 0.68833,-0.73432 1.21694,-1.57463 1.67444,-2.44825 0.92431,-1.47508 1.43703,-3.14489 2.06338,-4.75575 0.71341,-2.09583 1.2541,-4.25473 2.06187,-6.31544 0.95522,-2.64674 2.07537,-5.23317 3.45847,-7.68626 1.30395,-2.40592 2.72783,-4.75175 3.98885,-7.17901 0.67653,-1.40895 1.23083,-2.88061 1.44613,-4.45545 0.31584,-1.82949 0.0253,-3.8086 -0.8387,-5.6613 -0.47101,-1.28499 -1.31854,-2.47059 -2.17914,-3.62356 -1.46968,-1.87034 -3.33814,-3.52053 -5.37811,-4.92542 -3.01363,-2.0772 -6.51214,-3.55809 -10.08867,-4.24255 -3.03047,-0.62505 -6.10141,-0.71587 -9.00815,-0.33783 -4.06354,0.48651 -7.79872,1.88087 -10.97112,3.8709 -2.17053,1.22623 -4.0518,2.78297 -5.71011,4.49736 -1.03693,1.20212 -2.08416,2.40014 -2.90908,3.74061 -1.19683,1.83659 -2.25726,3.76298 -3.10828,5.77415 z"
         style="fill:none;stroke:#000000;stroke-width:9.0354557;stroke-linecap:round;stroke-linejoin:round;stroke-miterlimit:4;stroke-opacity:1" />
      <path
         sodipodi:nodetypes="sssssssssssssssssssssssssssssssssssssssssssssss"
         inkscape:connector-curvature="0"
         id="path3755-6-8"
         d="m 379.35187,443.30932 c 0.63779,1.75455 0.96449,3.61745 1.40265,5.43897 0.32826,1.73562 0.46032,3.52123 0.34684,5.33596 -0.0926,3.06155 -0.79889,6.18075 -1.90059,9.2193 -1.33162,3.39256 -3.35822,6.68966 -6.12965,9.50563 -1.23693,1.21905 -2.63585,2.31374 -4.06443,3.35299 -1.6923,1.17493 -3.54264,2.15473 -5.46743,2.92891 -2.44656,0.99943 -5.04343,1.58011 -7.60273,1.82877 -1.62042,0.14973 -3.23457,0.16013 -4.76765,-0.1101 -0.95599,-0.14145 -1.94306,-0.23888 -2.76147,-0.65992 -0.90315,-0.30726 -1.78542,-0.69371 -2.45782,-1.28507 -0.71565,-0.58218 -1.54104,-1.08522 -2.09596,-1.80763 -0.68833,-0.73432 -1.21694,-1.57463 -1.67444,-2.44825 -0.92431,-1.47508 -1.43703,-3.14489 -2.06338,-4.75575 -0.71341,-2.09583 -1.2541,-4.25473 -2.06187,-6.31544 -0.95522,-2.64674 -2.07537,-5.23317 -3.45847,-7.68626 -1.30395,-2.40592 -2.72783,-4.75175 -3.98885,-7.17901 -0.67653,-1.40895 -1.23083,-2.88061 -1.44613,-4.45545 -0.31584,-1.82949 -0.0253,-3.8086 0.8387,-5.6613 0.47101,-1.28499 1.31854,-2.47059 2.17914,-3.62356 1.46968,-1.87034 3.33814,-3.52053 5.37811,-4.92542 3.01363,-2.0772 6.51214,-3.55809 10.08867,-4.24255 3.03047,-0.62505 6.10141,-0.71587 9.00815,-0.33783 4.06354,0.48651 7.79872,1.88087 10.97112,3.8709 2.17053,1.22623 4.0518,2.78297 5.71011,4.49736 1.03693,1.20212 2.08416,2.40014 2.90908,3.74061 1.19683,1.83659 2.25726,3.76298 3.10828,5.77415 z"
         style="fill:none;stroke:#000000;stroke-width:9.0354557;stroke-linecap:round;stroke-linejoin:round;stroke-miterlimit:4;stroke-opacity:1" />
      <path
         sodipodi:nodetypes="sssssssssssssssssssssssssssssssssssssssssssssss"
         inkscape:connector-curvature="0"
         id="path3755-6-9"
         d="m 177.53082,562.85361 c 1.18367,1.16861 2.57071,2.12558 3.88281,3.15743 1.28339,0.91092 2.68018,1.68156 4.19182,2.26421 2.51348,1.06299 5.30176,1.65046 8.1717,1.88778 3.24205,0.18273 6.66512,-0.23276 9.97547,-1.43021 1.44687,-0.54846 2.85325,-1.27439 4.22578,-2.04485 1.58042,-0.93361 3.06156,-2.06772 4.40388,-3.33854 1.71866,-1.6096 3.15411,-3.49655 4.30674,-5.47651 0.72355,-1.25646 1.33194,-2.55964 1.68296,-3.90148 0.2408,-0.82668 0.5288,-1.66216 0.49205,-2.48136 0.0869,-0.84554 0.10191,-1.70359 -0.12701,-2.46786 -0.2054,-0.79588 -0.30595,-1.65121 -0.68464,-2.36907 -0.3391,-0.83017 -0.82272,-1.5707 -1.36007,-2.26587 -0.85088,-1.29674 -2.01241,-2.33257 -3.08398,-3.4385 -1.4319,-1.35669 -2.97909,-2.59697 -4.34748,-4.017 -1.78813,-1.75728 -3.46611,-3.62567 -4.93839,-5.65743 -1.4635,-1.95013 -2.83376,-3.97505 -4.3305,-5.89835 -0.88942,-1.07151 -1.87506,-2.06737 -3.07023,-2.82706 -1.36402,-0.93577 -3.0746,-1.4361 -4.89595,-1.42515 -1.21556,-0.0962 -2.49062,0.14936 -3.74411,0.41768 -2.06076,0.49486 -4.09149,1.39446 -5.98753,2.52369 -2.80214,1.66817 -5.30166,3.95062 -7.18528,6.59226 -1.63253,2.22158 -2.84754,4.67449 -3.62185,7.16871 -1.11645,3.47125 -1.37574,7.01406 -0.94349,10.32256 0.18615,2.21337 0.74745,4.31534 1.51927,6.29538 0.58801,1.28646 1.1688,2.57976 1.94764,3.74597 1.0423,1.65177 2.20802,3.22647 3.52023,4.66312 z"
         style="fill:none;stroke:#000000;stroke-width:8.0503788;stroke-linecap:round;stroke-linejoin:round;stroke-miterlimit:4;stroke-opacity:1" />
      <path
         sodipodi:nodetypes="sssssssssssssssssssssssssssssssssssssssssssssss"
         inkscape:connector-curvature="0"
         id="path3755-6-9-8"
         d="m 369.09929,558.41429 c -0.8812,1.41076 -2.00922,2.66266 -3.047,3.97007 -1.03783,1.18312 -2.21844,2.256 -3.55427,3.17256 -2.19937,1.61565 -4.77609,2.83225 -7.51327,3.72709 -3.11181,0.92783 -6.53815,1.31554 -10.03571,0.91643 -1.53451,-0.19885 -3.07068,-0.57971 -4.58422,-1.01174 -1.75353,-0.54265 -3.45687,-1.30333 -5.05678,-2.22913 -2.04442,-1.16831 -3.87747,-2.67198 -5.45689,-4.33156 -0.99461,-1.05498 -1.88798,-2.18206 -2.53992,-3.40628 -0.42551,-0.74854 -0.89899,-1.49473 -1.05276,-2.3002 -0.28016,-0.80251 -0.49328,-1.63381 -0.44737,-2.4303 0.0157,-0.82181 -0.0844,-1.6772 0.11801,-2.46319 0.13783,-0.8861 0.43701,-1.71843 0.79895,-2.51905 0.5278,-1.45841 1.41818,-2.73486 2.20482,-4.0587 1.07918,-1.65115 2.29746,-3.21572 3.3002,-4.91381 1.33307,-2.12329 2.53327,-4.3292 3.49556,-6.64645 0.97263,-2.2358 1.83726,-4.52279 2.84843,-6.74019 0.61739,-1.24821 1.3459,-2.44508 2.33289,-3.46066 1.11053,-1.22595 2.65895,-2.10845 4.43342,-2.51917 1.16032,-0.37481 2.45761,-0.4309 3.73917,-0.45985 2.11933,0.005 4.30309,0.41005 6.40894,1.07 3.11206,0.97463 6.07181,2.6169 8.51547,4.7511 2.10221,1.78362 3.85174,3.88889 5.18208,6.13631 1.88924,3.11878 2.96112,6.50549 3.30603,9.82423 0.33096,2.19639 0.27118,4.37119 -0.0216,6.47607 -0.27443,1.3876 -0.54026,2.78018 -1.02816,4.09493 -0.6319,1.8481 -1.40168,3.64977 -2.34592,5.35103 z"
         style="fill:none;stroke:#000000;stroke-width:8.0503788;stroke-linecap:round;stroke-linejoin:round;stroke-miterlimit:4;stroke-opacity:1" />
    </g>
  </g>
</svg>
