<?xml version="1.0" encoding="UTF-8" standalone="no"?>
<!-- Created with Inkscape (http://www.inkscape.org/) -->
<svg
   xmlns:dc="http://purl.org/dc/elements/1.1/"
   xmlns:cc="http://creativecommons.org/ns#"
   xmlns:rdf="http://www.w3.org/1999/02/22-rdf-syntax-ns#"
   xmlns:svg="http://www.w3.org/2000/svg"
   xmlns="http://www.w3.org/2000/svg"
   xmlns:sodipodi="http://sodipodi.sourceforge.net/DTD/sodipodi-0.dtd"
   xmlns:inkscape="http://www.inkscape.org/namespaces/inkscape"
   width="250"
   height="250"
   id="svg2"
   sodipodi:version="0.32"
   inkscape:version="0.46"
   sodipodi:docname="antthick.svg"
   inkscape:output_extension="org.inkscape.output.svg.inkscape"
   inkscape:export-filename="P:\pidgey2\data\images\antthick.png"
   inkscape:export-xdpi="92.160004"
   inkscape:export-ydpi="92.160004"
   version="1.0">
  <defs
     id="defs4">
    <inkscape:perspective
       sodipodi:type="inkscape:persp3d"
       inkscape:vp_x="0 : 125 : 1"
       inkscape:vp_y="0 : 1000 : 0"
       inkscape:vp_z="250 : 125 : 1"
       inkscape:persp3d-origin="125 : 83.333333 : 1"
       id="perspective12" />
  </defs>
  <sodipodi:namedview
     id="base"
     pagecolor="#cb90ff"
     bordercolor="#666666"
     borderopacity="1.0"
     gridtolerance="10000"
     guidetolerance="10"
     objecttolerance="10"
     inkscape:pageopacity="0"
     inkscape:pageshadow="2"
     inkscape:zoom="3.38"
     inkscape:cx="124.11242"
     inkscape:cy="125"
     inkscape:document-units="px"
     inkscape:current-layer="layer1"
     showgrid="false"
     inkscape:window-width="1680"
     inkscape:window-height="1028"
     inkscape:window-x="0"
     inkscape:window-y="0"
     showguides="true"
     inkscape:guide-bbox="true" />
  <metadata
     id="metadata7">
    <rdf:RDF>
      <cc:Work
         rdf:about="">
        <dc:format>image/svg+xml</dc:format>
        <dc:type
           rdf:resource="http://purl.org/dc/dcmitype/StillImage" />
      </cc:Work>
    </rdf:RDF>
  </metadata>
  <g
     inkscape:label="Layer 1"
     inkscape:groupmode="layer"
     id="layer1">
    <path
       style="fill:#000080;fill-rule:evenodd;stroke:#000000;stroke-width:2.34;stroke-linecap:butt;stroke-linejoin:miter;stroke-miterlimit:4;stroke-dasharray:none;stroke-opacity:1"
       d="M 181.60122,150.57866 C 171.85737,139.96964 168.81172,122.37566 177.82419,110.39489 C 187.29337,97.362296 205.45795,92.53884 220.63908,96.691985 C 232.53759,102.173 238.29082,115.90599 238.7461,128.4018 C 239.5821,140.04492 235.24524,153.16724 224.34728,158.85457 C 212.47925,166.13328 196.80635,163.05342 186.36349,154.62805 C 184.69656,153.37559 183.10817,152.01939 181.60122,150.57866 z"
       id="path2426" />
    <path
       style="opacity:1;fill:none;fill-opacity:1;stroke:#000000;stroke-width:2.34;stroke-miterlimit:4;stroke-dasharray:none;stroke-opacity:1"
       d="M 130.79994,139.22221 C 134.36451,156.43322 127.70703,177.06581 110.95168,184.87177"
       id="path3166" />
    <path
       style="opacity:1;fill:none;fill-opacity:1;stroke:#000000;stroke-width:2.34;stroke-miterlimit:4;stroke-dasharray:none;stroke-opacity:1"
       d="M 155.38503,139.25177 C 146.07627,151.02911 140.3474,167.63402 147.32144,181.95212 C 148.19242,184.34738 149.29389,186.66537 150.68093,188.80683"
       id="path3168" />
    <path
       style="opacity:1;fill:none;fill-opacity:1;stroke:#000000;stroke-width:2.34;stroke-miterlimit:4;stroke-dasharray:none;stroke-opacity:1"
       d="M 164.14883,136.29929 C 163.10261,150.78943 166.93617,167.13382 179.96845,175.34638 C 182.36736,177.24362 184.97679,178.89363 187.79048,180.10461"
       id="path3170" />
    <path
       style="opacity:1;fill:none;fill-opacity:1;stroke:#000000;stroke-width:2.34;stroke-miterlimit:4;stroke-dasharray:none;stroke-opacity:1"
       d="M 130.22153,119.26033 C 130.43921,108.82226 132.75564,96.975699 125.56111,88.158159 C 121.41746,82.393334 116.69506,77.018182 110.37326,73.610783"
       id="path4235" />
    <path
       style="opacity:1;fill:none;fill-opacity:1;stroke:#000000;stroke-width:2.34;stroke-miterlimit:4;stroke-dasharray:none;stroke-opacity:1"
       d="M 154.80659,119.23078 C 149.56804,110.19982 141.8113,100.95105 143.84423,89.753834 C 144.68311,82.704055 146.21702,75.71547 150.10251,69.675719"
       id="path4233" />
    <path
       style="opacity:1;fill:none;fill-opacity:1;stroke:#000000;stroke-width:2.34;stroke-miterlimit:4;stroke-dasharray:none;stroke-opacity:1"
       d="M 163.5704,122.18326 C 161.4208,104.62072 169.97441,84.990892 187.21206,78.377936"
       id="path4231" />
    <path
       style="fill:#000080;fill-rule:evenodd;stroke:#000000;stroke-width:2.34;stroke-linecap:butt;stroke-linejoin:miter;stroke-miterlimit:4;stroke-dasharray:none;stroke-opacity:1"
       d="M 177.31511,132.30347 C 185.51868,112.70809 141.21987,97.943406 121.58711,112.35412 C 99.708449,123.31286 117.06683,146.66264 137.46551,148.28862 C 157.72763,149.00365 168.5587,145.69484 177.31511,132.30347 z"
       id="path5037"
       sodipodi:nodetypes="cccc" />
    <path
       style="fill:#000000;fill-opacity:0.28488369000000002;stroke:none;stroke-width:2.34;stroke-miterlimit:4;stroke-dasharray:none;stroke-opacity:1"
       d="M 125.60539,136.62271 C 128.33297,148.78294 151.6028,143.42829 159.68704,140.91207 C 162.02978,140.09054 166.61074,135.24918 161.5454,135.59018 C 151.31856,137.76602 141.05256,138.61451 130.62854,137.7856 C 128.92374,137.55156 127.23405,137.18242 125.60539,136.62271 z"
       id="path4252"
       sodipodi:nodetypes="ccccc" />
    <path
       style="fill:#ffffff;fill-opacity:0.29651159999999999;stroke:none;stroke-width:2.34;stroke-miterlimit:4;stroke-dasharray:none;stroke-opacity:1"
       d="M 126.13823,119.22546 C 125.73746,115.24126 130.29676,113.26996 133.64625,113.1633 C 141.74248,111.9564 150.31173,110.77467 158.09827,114.10444 C 160.75852,114.11798 167.58237,119.89839 162.07823,120.25798 C 152.79372,118.58138 143.38321,116.95615 133.91397,117.83195 C 131.2745,117.96876 128.64203,118.35103 126.13823,119.22546 z"
       id="path4263" />
    <path
       style="fill:#000080;fill-rule:evenodd;stroke:#000000;stroke-width:2.34;stroke-linecap:butt;stroke-linejoin:miter;stroke-miterlimit:4;stroke-dasharray:none;stroke-opacity:1"
       d="M 89.784978,92.606812 C 61.353895,89.191876 22.619358,87.803923 9.6728342,116.89991 C 6.651555,122.41272 7.2714329,127.46563 9.2924933,133.20495 C 19.442247,159.51983 62.132134,161.78714 86.269285,160.60613 C 98.04934,160.13463 109.62111,153.54065 115.71819,143.38937 C 118.89078,138.00738 120.10363,131.35502 118.37335,125.28893 C 119.21018,116.45019 116.14142,106.96653 108.79807,101.57014 C 103.23624,97.190842 96.504918,94.615002 89.784978,92.606812 z"
       id="path5039"
       sodipodi:nodetypes="cccccccc" />
    <path
       style="opacity:1;fill:#000000;fill-opacity:0.28488367999999997;stroke:none;stroke-width:2.34;stroke-miterlimit:4;stroke-dasharray:none;stroke-opacity:1"
       d="M 113.08096,134.20886 C 93.757867,167.01219 39.537553,157.93024 14.060818,130.92853 C 26.143467,129.66876 79.980498,166.74114 113.08096,134.20886 z"
       id="path4243"
       sodipodi:nodetypes="ccc" />
    <path
       style="opacity:1;fill:#ffffff;fill-opacity:0.29651158999999999;stroke:none;stroke-width:2.34;stroke-miterlimit:4;stroke-dasharray:none;stroke-opacity:1"
       d="M 16.545057,113.70861 C 47.471378,114.73559 79.252707,100.21081 111.23369,116.52088 C 98.363393,90.273476 37.701853,90.940785 16.545057,113.70861 z"
       id="path4261"
       sodipodi:nodetypes="ccc" />
    <path
       style="fill:#000000;fill-opacity:0.28488369000000002;stroke:none;stroke-width:2.34;stroke-miterlimit:4;stroke-dasharray:none;stroke-opacity:1"
       d="M 181.8775,141.20595 C 182.53549,155.04138 205.92344,158.66742 216.22603,156.83727 C 220.61803,155.66387 225.08083,153.63278 227.93221,149.9683 C 229.89637,148.26419 228.22012,145.66358 225.91228,146.62764 C 216.48657,151.64386 190.55384,148.73595 181.8775,141.20595 z"
       id="path4254"
       sodipodi:nodetypes="ccccc" />
    <path
       style="fill:#ffffff;fill-opacity:0.29651159999999999;stroke:none;stroke-width:2.34;stroke-miterlimit:4;stroke-dasharray:none;stroke-opacity:1"
       d="M 182.77681,115.34893 C 188.88801,99.824762 212.11008,97.367074 221.85547,102.73252 C 225.16029,104.32442 228.15965,107.06071 229.15113,110.69428 C 228.4212,114.14272 224.05507,113.30268 221.532,112.75107 C 216.2157,111.47055 211.05202,109.18051 205.47175,109.40585 C 198.72838,109.89962 188.05719,110.18411 182.77681,115.34893 z"
       id="path4265"
       sodipodi:nodetypes="cccccc" />
  </g>
</svg>
