<?xml version="1.0" encoding="UTF-8" standalone="no"?>
<!-- Created with Inkscape (http://www.inkscape.org/) -->
<svg
   xmlns:dc="http://purl.org/dc/elements/1.1/"
   xmlns:cc="http://creativecommons.org/ns#"
   xmlns:rdf="http://www.w3.org/1999/02/22-rdf-syntax-ns#"
   xmlns:svg="http://www.w3.org/2000/svg"
   xmlns="http://www.w3.org/2000/svg"
   xmlns:sodipodi="http://sodipodi.sourceforge.net/DTD/sodipodi-0.dtd"
   xmlns:inkscape="http://www.inkscape.org/namespaces/inkscape"
   width="250"
   height="250"
   id="svg2"
   sodipodi:version="0.32"
   inkscape:version="0.46"
   sodipodi:docname="antwar.svg"
   inkscape:output_extension="org.inkscape.output.svg.inkscape"
   inkscape:export-filename="P:\pidgey2\data\images\antwar.png"
   inkscape:export-xdpi="92.160004"
   inkscape:export-ydpi="92.160004"
   version="1.0">
  <defs
     id="defs4">
    <inkscape:perspective
       sodipodi:type="inkscape:persp3d"
       inkscape:vp_x="0 : 125 : 1"
       inkscape:vp_y="0 : 1000 : 0"
       inkscape:vp_z="250 : 125 : 1"
       inkscape:persp3d-origin="125 : 83.333333 : 1"
       id="perspective3645" />
  </defs>
  <sodipodi:namedview
     id="base"
     pagecolor="#cb90ff"
     bordercolor="#666666"
     borderopacity="1.0"
     gridtolerance="10000"
     guidetolerance="10"
     objecttolerance="10"
     inkscape:pageopacity="0"
     inkscape:pageshadow="2"
     inkscape:zoom="2.42"
     inkscape:cx="130.90631"
     inkscape:cy="96.992703"
     inkscape:document-units="px"
     inkscape:current-layer="layer1"
     showgrid="false"
     inkscape:window-width="1680"
     inkscape:window-height="994"
     inkscape:window-x="0"
     inkscape:window-y="22" />
  <metadata
     id="metadata7">
    <rdf:RDF>
      <cc:Work
         rdf:about="">
        <dc:format>image/svg+xml</dc:format>
        <dc:type
           rdf:resource="http://purl.org/dc/dcmitype/StillImage" />
      </cc:Work>
    </rdf:RDF>
  </metadata>
  <g
     inkscape:label="Layer 1"
     inkscape:groupmode="layer"
     id="layer1">
    <path
       style="fill:#aa0000;fill-opacity:1;stroke:#000000;stroke-width:3;stroke-miterlimit:4;stroke-dasharray:none;stroke-opacity:1"
       d="M 186.35229,115.07029 C 197.98881,109.8851 210.74365,115.23642 220.55925,124.93001 C 257.77137,161.19322 210.00659,179.57068 185.98693,151.67008 C 180.32287,145.09085 176.96494,134.19653 179.81862,124.934 C 181.37896,121.17467 184.00083,118.21063 186.35229,115.07029 z"
       id="path2412"
       sodipodi:nodetypes="ccscc" />
    <path
       style="fill:#0055d4;fill-opacity:1;stroke:#000000;stroke-width:3;stroke-miterlimit:4;stroke-dasharray:none;stroke-opacity:1"
       d="M 172.31421,124.45683 C 172.31421,125.24449 172.31421,128.22002 172.31421,130.0734 C 172.31421,132.58488 171.89026,134.41606 171.36704,136.74303 C 170.91606,138.74856 170.7758,140.73185 170.41984,142.71058 C 170.25173,143.64536 169.99791,144.23617 169.78841,145.16782"
       id="path3221" />
    <path
       style="fill:#0055d4;fill-opacity:1;stroke:#000000;stroke-width:3;stroke-miterlimit:4;stroke-dasharray:none;stroke-opacity:1"
       d="M 171.70974,122.27359 C 171.67559,122.4547 163.81144,125.93937 162.50915,127.3204 C 160.05019,129.8316 157.70644,133.31897 156.16397,136.06827"
       id="path3223"
       sodipodi:nodetypes="ccc" />
    <path
       style="fill:#aa0000;fill-opacity:1;stroke:#000000;stroke-width:3;stroke-miterlimit:4;stroke-dasharray:none;stroke-opacity:1"
       d="M 171.11755,99.355452 C 174.51729,98.132356 178.00304,99.915067 180.85916,101.52225 C 186.19796,104.02613 191.76539,107.21612 194.25259,112.51153 C 196.76844,117.45922 195.74603,123.84012 191.43385,127.66143 C 189.15054,129.98317 185.37612,131.08717 182.14413,129.94466 C 177.88373,128.83051 173.91967,126.93159 169.99537,125.07514 C 166.2537,123.01088 163.24527,119.66141 162.33792,115.65605 C 161.23207,112.59727 160.50321,108.81619 162.87944,106.09019 C 165.04348,103.32267 167.79939,100.89212 171.11755,99.355452 z"
       id="path3184" />
    <path
       style="fill:none;fill-opacity:0.24418603999999999;stroke:#000000;stroke-width:3;stroke-miterlimit:4;stroke-dasharray:none;stroke-opacity:1"
       d="M 133.0697,87.751038 C 130.61953,80.725794 125.555,78.099698 119.26326,75.900223"
       id="path3750"
       sodipodi:nodetypes="cc" />
    <path
       style="fill:none;fill-opacity:0.24418603999999999;stroke:#000000;stroke-width:3;stroke-miterlimit:4;stroke-dasharray:none;stroke-opacity:1"
       d="M 136.92267,85.380874 C 137.06444,77.101034 137.4556,67.179023 132.42755,60.324889"
       id="path3748"
       sodipodi:nodetypes="cc" />
    <path
       style="fill:#aa0000;fill-opacity:1;stroke:#000000;stroke-width:3;stroke-miterlimit:4;stroke-dasharray:none;stroke-opacity:1"
       d="M 135.93188,80.772635 C 127.17051,86.608206 126.51977,102.18422 136.53625,106.909 C 144.10435,110.73496 153.6483,115.43226 161.59505,110.22769 C 184.51426,87.342953 160.3885,72.746116 135.93188,80.772635 z"
       id="path3195"
       sodipodi:nodetypes="cccc" />
    <path
       style="fill:#0055d4;fill-opacity:1;stroke:#000000;stroke-width:3;stroke-miterlimit:4;stroke-dasharray:none;stroke-opacity:1"
       d="M 164.43188,117.72499 C 163.95219,118.25832 152.86456,118.42708 150.54006,118.42708 C 148.32,118.42708 146.1862,119.7576 145.17279,120.88432"
       id="path3225" />
    <path
       style="fill:#ffffff;fill-opacity:0.24418603999999999;stroke:none;stroke-width:3;stroke-miterlimit:4;stroke-dasharray:none;stroke-opacity:1"
       d="M 138.86634,85.766888 C 141.01431,84.7946 143.45451,85.274422 145.67919,84.61934 C 148.16231,84.278509 150.65503,84.818447 153.14569,84.676803 C 155.19231,84.650676 157.26678,85.013965 159.07757,86.006617 C 160.5133,86.658786 161.90914,87.601519 162.60542,89.072341 C 163.25557,89.851314 163.88045,91.578617 162.49768,91.952491 C 160.92931,92.33211 159.32681,91.82135 157.77298,91.585218 C 155.40993,91.12075 153.01133,90.678747 150.5928,90.838324 C 147.88468,90.794018 145.10321,91.157813 142.46232,90.389893 C 141.14404,89.915886 139.73535,89.27856 138.96704,88.046611 C 138.65686,87.329743 138.69482,86.51346 138.86634,85.766888 z"
       id="path3228" />
    <path
       style="fill:#ffffff;fill-opacity:0.21511625000000001;stroke:none;stroke-width:3;stroke-miterlimit:4;stroke-dasharray:none;stroke-opacity:1"
       d="M 173.30679,103.9515 C 173.9113,103.25919 174.8674,104.27171 175.63694,104.21667 C 178.6643,105.00808 181.78999,105.93236 184.20179,108.03058 C 185.31801,108.92944 186.0868,110.15925 186.74508,111.41376 C 187.79742,113.15578 189.12699,114.70751 190.48376,116.21468 C 191.16982,117.35091 189.41443,118.00608 188.57564,117.45437 C 186.67287,116.92563 185.20774,115.54123 183.77933,114.25123 C 182.67758,113.27424 181.37296,112.54875 179.95828,112.14565 C 177.50397,111.30984 174.84277,110.48176 173.1189,108.41333 C 172.62879,107.75562 172.0352,107.0572 171.97773,106.20717 C 171.93835,105.21201 172.75775,104.64178 173.30679,103.9515 z"
       id="path3230" />
    <path
       style="fill:#ffffff;fill-opacity:0.26162792000000001;stroke:none;stroke-width:3;stroke-miterlimit:4;stroke-dasharray:none;stroke-opacity:1"
       d="M 203.88472,121.7724 C 215.52374,125.35621 223.11416,137.01664 227.94881,146.90693 C 227.83776,148.2536 230.10794,149.8753 229.52682,150.72372 C 228.0544,149.68369 227.2757,148.08357 225.94996,146.91184 C 222.53504,143.11755 218.50246,139.78165 214.08018,136.93264 C 210.07356,134.00151 206.39751,130.7092 202.14518,128.04776 C 200.46516,126.54018 200.0428,123.54885 202.22993,122.24626 C 202.72912,121.97519 203.30128,121.81095 203.88472,121.7724 z"
       id="path3232"
       sodipodi:nodetypes="cccccccc" />
    <path
       style="fill:#000000;fill-opacity:0.24418603999999999;stroke:none;stroke-width:3;stroke-miterlimit:4;stroke-dasharray:none;stroke-opacity:1"
       d="M 188.5575,143.33281 C 191.79293,151.3124 197.74081,158.21165 206.91017,158.08959 C 206.28087,156.82464 204.73265,156.50812 203.85517,155.46315 C 196.55422,150.83638 192.93084,141.25235 187.20436,135.98716 C 186.10743,137.40982 187.91436,141.20635 188.5575,143.33281 z"
       id="path3263"
       sodipodi:nodetypes="ccccc" />
    <path
       style="fill:#000000;fill-opacity:0.24418603999999999;stroke:none;stroke-width:3;stroke-miterlimit:4;stroke-dasharray:none;stroke-opacity:1"
       d="M 164.96856,112.3164 C 164.89424,113.78983 165.93541,114.95902 166.66114,116.13602 C 167.19859,116.92352 167.62407,117.79286 168.20851,118.54371 C 169.7497,119.91917 171.87838,120.27503 173.5496,121.44416 C 174.5938,122.10912 175.76018,122.5729 176.98385,122.76431 C 177.53786,122.94747 178.86623,123.06241 178.32238,122.12142 C 176.78875,120.36575 174.79176,119.08855 173.24396,117.34313 C 171.95043,116.09572 170.70426,114.79254 169.6142,113.36081 C 169.00967,112.68936 168.29396,112.10164 167.46414,111.73464 C 167.32169,111.07127 166.617,110.56358 166.20253,111.31902 C 165.78968,111.64958 165.3823,111.98701 164.96856,112.3164 z"
       id="path3275" />
    <path
       style="fill:#000000;fill-opacity:0.24418603999999999;stroke:none;stroke-width:3;stroke-miterlimit:4;stroke-dasharray:none;stroke-opacity:1"
       d="M 135.96609,97.041343 C 139.98003,102.07289 148.51657,106.53335 152.85027,102.11579 C 150.86206,100.05936 145.26352,99.062862 142.53552,98.11115 C 140.42342,97.398718 138.19479,97.031655 135.96609,97.041343 z"
       id="path3281"
       sodipodi:nodetypes="cccc" />
    <path
       style="fill:#000080;fill-opacity:1;stroke:#000000;stroke-width:3;stroke-miterlimit:4;stroke-dasharray:none;stroke-opacity:1"
       d="M 66.151678,116.52541 C 54.515147,111.34023 41.760279,116.69155 31.944685,126.38514 C -5.2674431,162.64834 42.497362,181.02582 66.517048,153.12523 C 72.181139,146.54598 75.538981,135.65167 72.685318,126.38913 C 71.125001,122.6298 68.50315,119.66575 66.151678,116.52541 z"
       id="path7864"
       sodipodi:nodetypes="ccscc" />
    <path
       style="fill:#0055d4;fill-opacity:1;stroke:#000000;stroke-width:3;stroke-miterlimit:4;stroke-dasharray:none;stroke-opacity:1"
       d="M 80.189755,125.91195 C 80.189755,126.69962 80.189755,129.67514 80.189755,131.52853 C 80.189755,134.04002 80.613675,135.87117 81.136927,138.19817 C 81.587908,140.2037 81.728167,142.18701 82.084128,144.16571 C 82.252234,145.1005 82.506038,145.69133 82.715537,146.62296"
       id="path7866" />
    <path
       style="fill:#0055d4;fill-opacity:1;stroke:#000000;stroke-width:3;stroke-miterlimit:4;stroke-dasharray:none;stroke-opacity:1"
       d="M 80.794219,123.72872 C 80.828359,123.90982 88.692514,127.39449 89.994803,128.77553 C 92.453792,131.28673 94.797515,134.7741 96.339976,137.5234"
       id="path7868"
       sodipodi:nodetypes="ccc" />
    <path
       style="fill:#000080;fill-opacity:1;stroke:#000000;stroke-width:3;stroke-miterlimit:4;stroke-dasharray:none;stroke-opacity:1"
       d="M 81.386362,100.81058 C 77.986668,99.58748 74.500926,101.37019 71.644786,102.97737 C 66.305976,105.48125 60.738559,108.67124 58.251373,113.96665 C 55.735494,118.91435 56.757937,125.29525 61.070081,129.11656 C 63.35339,131.4383 67.127863,132.54229 70.35983,131.39979 C 74.62024,130.28564 78.584287,128.38671 82.508602,126.53026 C 86.250246,124.46601 89.258703,121.11654 90.166084,117.11118 C 91.271895,114.0524 92.000771,110.27132 89.624481,107.54532 C 87.460486,104.7778 84.704552,102.34724 81.386362,100.81058 z"
       id="path7870" />
    <path
       style="fill:none;fill-opacity:0.24418603999999999;stroke:#000000;stroke-width:3;stroke-miterlimit:4;stroke-dasharray:none;stroke-opacity:1"
       d="M 119.43426,89.206162 C 121.88445,82.18092 126.94895,79.554821 133.24067,77.355348"
       id="path7872"
       sodipodi:nodetypes="cc" />
    <path
       style="fill:none;fill-opacity:0.24418603999999999;stroke:#000000;stroke-width:3;stroke-miterlimit:4;stroke-dasharray:none;stroke-opacity:1"
       d="M 115.58125,86.835997 C 115.43951,78.556159 115.04833,68.634145 120.07642,61.780011"
       id="path7874"
       sodipodi:nodetypes="cc" />
    <path
       style="fill:#000080;fill-opacity:1;stroke:#000000;stroke-width:3;stroke-miterlimit:4;stroke-dasharray:none;stroke-opacity:1"
       d="M 116.57209,82.227761 C 125.33343,88.063332 125.98418,103.63934 115.96768,108.36413 C 108.39963,112.19009 98.855651,116.88739 90.908913,111.68282 C 67.989715,88.798078 92.115483,74.201243 116.57209,82.227761 z"
       id="path7876"
       sodipodi:nodetypes="cccc" />
    <path
       style="fill:#0055d4;fill-opacity:1;stroke:#000000;stroke-width:3;stroke-miterlimit:4;stroke-dasharray:none;stroke-opacity:1"
       d="M 88.072087,119.18012 C 88.551761,119.71344 99.639436,119.88221 101.96393,119.88221 C 104.18393,119.88221 106.31775,121.21273 107.33116,122.33944"
       id="path7878" />
    <path
       style="fill:#ffffff;fill-opacity:0.24418603999999999;stroke:none;stroke-width:3;stroke-miterlimit:4;stroke-dasharray:none;stroke-opacity:1"
       d="M 113.63762,87.222014 C 111.48965,86.249726 109.04945,86.729548 106.82475,86.074467 C 104.34161,85.733638 101.84893,86.27357 99.358279,86.131932 C 97.311646,86.105802 95.237166,86.46909 93.426394,87.461742 C 91.990663,88.113912 90.594811,89.056643 89.89853,90.527466 C 89.248362,91.306443 88.623507,93.033741 90.00628,93.407616 C 91.574637,93.787236 93.177163,93.276477 94.730955,93.040341 C 97.094049,92.575877 99.492624,92.133872 101.91115,92.29345 C 104.61927,92.249142 107.40072,92.61294 110.04162,91.845016 C 111.3599,91.371011 112.7686,90.733686 113.53689,89.501737 C 113.84709,88.784871 113.80913,87.968587 113.63762,87.222014 z"
       id="path7880" />
    <path
       style="fill:#ffffff;fill-opacity:0.21511625000000001;stroke:none;stroke-width:3;stroke-miterlimit:4;stroke-dasharray:none;stroke-opacity:1"
       d="M 79.19717,105.40662 C 78.592647,104.71432 77.636561,105.72684 76.866991,105.6718 C 73.83963,106.46321 70.713956,107.38749 68.302186,109.48571 C 67.185947,110.38457 66.417134,111.61437 65.758839,112.86889 C 64.706538,114.61091 63.376985,116.16264 62.020195,117.6698 C 61.334139,118.80603 63.089536,119.46121 63.928346,118.9095 C 65.83105,118.38076 67.296231,116.99636 68.724621,115.70636 C 69.826383,114.72937 71.131002,114.00387 72.545672,113.60078 C 75,112.76497 77.661176,111.93689 79.385055,109.86845 C 79.875157,109.21074 80.468727,108.51232 80.526229,107.6623 C 80.565612,106.66714 79.746201,106.0969 79.19717,105.40662 z"
       id="path7882" />
    <path
       style="fill:#ffffff;fill-opacity:0.26162792000000001;stroke:none;stroke-width:3;stroke-miterlimit:4;stroke-dasharray:none;stroke-opacity:1"
       d="M 48.619266,123.22753 C 36.9802,126.81134 29.389774,138.47175 24.555135,148.36209 C 24.666177,149.70872 22.396005,151.33046 22.977108,152.17885 C 24.449541,151.13882 25.228229,149.5387 26.553967,148.367 C 29.968895,144.5727 34.001484,141.23676 38.423766,138.38778 C 42.430372,135.45665 46.106417,132.16433 50.358758,129.50289 C 52.038826,127.99531 52.461144,125.00398 50.27402,123.70139 C 49.77483,123.43032 49.20267,123.26608 48.619266,123.22753 z"
       id="path7884"
       sodipodi:nodetypes="cccccccc" />
    <path
       style="fill:#000000;fill-opacity:0.24418603999999999;stroke:none;stroke-width:3;stroke-miterlimit:4;stroke-dasharray:none;stroke-opacity:1"
       d="M 63.946465,144.78793 C 60.711031,152.76756 54.763125,159.66679 45.593768,159.54471 C 46.223051,158.27977 47.771308,157.96327 48.648774,156.9183 C 55.949741,152.29152 59.57312,142.7075 65.299584,137.44228 C 66.39654,138.86494 64.589613,142.66151 63.946465,144.78793 z"
       id="path7886"
       sodipodi:nodetypes="ccccc" />
    <path
       style="fill:#000000;fill-opacity:0.24418603999999999;stroke:none;stroke-width:3;stroke-miterlimit:4;stroke-dasharray:none;stroke-opacity:1"
       d="M 87.535378,113.77153 C 87.609687,115.24496 86.568543,116.41415 85.842813,117.59115 C 85.305346,118.37865 84.879882,119.24799 84.295429,119.99884 C 82.75425,121.37429 80.625589,121.73016 78.954318,122.89929 C 77.910174,123.56424 76.743774,124.02803 75.520076,124.21944 C 74.966093,124.4026 73.637734,124.51753 74.18158,123.57655 C 75.715185,121.82088 77.712211,120.54368 79.260002,118.79826 C 80.553552,117.55085 81.799708,116.24767 82.88976,114.81594 C 83.494254,114.14449 84.210022,113.55676 85.039802,113.18977 C 85.182274,112.5264 85.886973,112.01871 86.301426,112.77415 C 86.714278,113.10471 87.121652,113.44213 87.535378,113.77153 z"
       id="path7888" />
    <path
       style="fill:#000000;fill-opacity:0.24418603999999999;stroke:none;stroke-width:3;stroke-miterlimit:4;stroke-dasharray:none;stroke-opacity:1"
       d="M 116.53783,98.496473 C 112.52392,103.52802 103.98739,107.98848 99.65368,103.57092 C 101.64188,101.51449 107.24042,100.51799 109.96842,99.566276 C 112.08054,98.853846 114.30917,98.486783 116.53783,98.496473 z"
       id="path7890"
       sodipodi:nodetypes="cccc" />
  </g>
</svg>
