<?xml version="1.0" encoding="UTF-8" standalone="no"?>
<!-- Created with Inkscape (http://www.inkscape.org/) -->
<svg
   xmlns:dc="http://purl.org/dc/elements/1.1/"
   xmlns:cc="http://creativecommons.org/ns#"
   xmlns:rdf="http://www.w3.org/1999/02/22-rdf-syntax-ns#"
   xmlns:svg="http://www.w3.org/2000/svg"
   xmlns="http://www.w3.org/2000/svg"
   xmlns:sodipodi="http://sodipodi.sourceforge.net/DTD/sodipodi-0.dtd"
   xmlns:inkscape="http://www.inkscape.org/namespaces/inkscape"
   width="250"
   height="250"
   id="svg2"
   sodipodi:version="0.32"
   inkscape:version="0.46"
   sodipodi:docname="apple.svg"
   inkscape:output_extension="org.inkscape.output.svg.inkscape"
   inkscape:export-filename="P:\pidgey2\data\images\apple.png"
   inkscape:export-xdpi="92.160004"
   inkscape:export-ydpi="92.160004"
   version="1.0">
  <defs
     id="defs4">
    <inkscape:perspective
       sodipodi:type="inkscape:persp3d"
       inkscape:vp_x="0 : 125 : 1"
       inkscape:vp_y="0 : 1000 : 0"
       inkscape:vp_z="250 : 125 : 1"
       inkscape:persp3d-origin="125 : 83.333333 : 1"
       id="perspective3645" />
  </defs>
  <sodipodi:namedview
     id="base"
     pagecolor="#cb90ff"
     bordercolor="#666666"
     borderopacity="1.0"
     gridtolerance="10000"
     guidetolerance="10"
     objecttolerance="10"
     inkscape:pageopacity="0"
     inkscape:pageshadow="2"
     inkscape:zoom="1.1950105"
     inkscape:cx="-36.006663"
     inkscape:cy="129.57327"
     inkscape:document-units="px"
     inkscape:current-layer="layer1"
     showgrid="false"
     inkscape:window-width="1680"
     inkscape:window-height="995"
     inkscape:window-x="0"
     inkscape:window-y="21" />
  <metadata
     id="metadata7">
    <rdf:RDF>
      <cc:Work
         rdf:about="">
        <dc:format>image/svg+xml</dc:format>
        <dc:type
           rdf:resource="http://purl.org/dc/dcmitype/StillImage" />
      </cc:Work>
    </rdf:RDF>
  </metadata>
  <g
     inkscape:label="Layer 1"
     inkscape:groupmode="layer"
     id="layer1">
    <path
       style="opacity:1;fill:#502d16;fill-opacity:1;stroke:#000000;stroke-width:1.15386069;stroke-miterlimit:4;stroke-dasharray:none;stroke-opacity:1"
       d="M 119.97864,148.26818 C 104.16188,93.000032 105.87161,58.855589 97.730212,3.8589329 C 109.06836,45.18543 105.51659,19.613328 115.33125,71.131754 C 151.81683,43.537285 146.8427,53.61545 165.71926,33.715529 C 159.8178,46.785265 130.85169,73.809417 120.9503,84.795973 C 128.18268,100.25064 128.73811,117.81003 135.1944,141.11999 C 143.11015,175.13654 211.18142,124.70308 244.63573,121.2181 C 222.12958,137.07838 194.30518,148.73695 169.07024,162.56376 C 111.44511,185.50132 71.517767,205.81305 30.337627,230.74653 C 93.314223,178.69718 86.243055,182.79105 100.91948,176.14878 C 112.06235,168.58194 80.327832,161.88642 75.967254,156.51027 C 36.591956,136.48218 36.83789,132.77364 7.2262522,118.05383 C 46.768286,130.51395 29.177905,119.60268 49.945595,133.16794 C 40.016261,98.80469 46.72284,114.41777 38.128551,93.729632 C 45.81894,106.10266 51.040407,114.74117 56.071531,132.30221 C 74.838591,145.18352 92.502491,160.89607 114.69226,162.51879 C 122.19357,161.97658 122.44954,151.00837 119.97864,148.26818 z"
       id="path3179"
       sodipodi:nodetypes="ccccccccccccccccc" />
    <path
       style="opacity:1;fill:#165016;fill-opacity:1;stroke:#000000;stroke-width:1.18051898;stroke-miterlimit:4;stroke-dasharray:none;stroke-opacity:1"
       d="M 171.42953,69.749556 C 166.49079,61.992393 161.2778,53.565996 152.52511,49.748927 C 146.6043,46.021612 139.47922,40.52902 132.17879,43.533498 C 129.59581,46.214348 125.82705,50.142729 123.86795,44.343092 C 118.84031,35.803597 109.97527,28.877214 99.700203,29.23166 C 92.818295,29.04346 86.850466,33.488712 82.665736,38.593175 C 75.79278,37.301806 68.806598,32.743694 61.534401,35.139427 C 52.253295,38.863876 50.732008,52.186536 56.902191,59.406743 C 60.295503,63.439807 63.057577,67.504576 59.021179,72.253911 C 53.755425,82.897364 59.939485,94.639011 66.272258,103.26495 C 69.453064,109.76278 76.792494,110.87338 83.210617,110.55424 C 90.880685,114.90015 92.222987,125.5381 100.09967,129.82525 C 107.81747,135.27821 119.58492,137.22846 127.12084,130.49724 C 130.57003,126.45375 135.03771,117.39523 139.35675,125.62718 C 144.58835,131.40556 152.03492,136.22938 160.08215,135.17101 C 167.23554,132.28153 170.33681,124.46511 174.27185,118.43876 C 179.69487,118.09964 184.8984,116.84241 188.04945,111.80418 C 195.18424,105.1473 197.42373,93.505845 191.93639,85.139947 C 188.41841,78.838671 187.28387,69.371022 179.27399,67.154428 C 177.13179,67.513285 166.57014,64.371627 171.42953,69.749556 z"
       id="path3184" />
    <path
       style="opacity:1;fill:#225500;fill-opacity:1;stroke:#000000;stroke-width:1.15386069;stroke-miterlimit:4;stroke-dasharray:none;stroke-opacity:1"
       d="M 141.70993,124.18302 C 136.33306,127.97708 132.55796,134.28316 129.62773,140.27002 C 125.83781,145.77714 123.79581,153.05965 127.6032,159.17336 C 129.40776,162.82893 119.2034,160.79788 116.76528,163.63878 C 106.84785,167.75371 105.86026,179.81992 104.19503,189.08329 C 103.51983,197.59319 107.45641,205.76168 112.70284,212.09632 C 114.25711,219.35454 108.11919,227.71444 113.43772,234.22789 C 120.29433,240.45637 130.40172,238.91143 138.90259,238.85361 C 152.39611,238.56917 168.05237,240.71844 178.8613,230.60806 C 183.76675,227.79505 181.82765,215.91745 189.52177,221.69751 C 197.80171,225.56767 207.54005,223.3345 215.81285,220.5252 C 224.26788,217.21908 230.17478,208.26502 231.02882,199.26729 C 231.63841,189.52896 225.64449,181.14037 219.05156,174.7144 C 213.26728,169.71357 220.16069,163.73094 221.06838,158.14972 C 223.32412,149.88925 225.31018,140.57472 222.03584,132.33158 C 218.73226,125.06447 211.95705,118.34975 203.70315,118.01263 C 199.02523,114.82279 198.89906,103.57964 192.45221,99.580948 C 186.46054,93.671438 176.98115,91.060506 169.3765,95.353673 C 162.48065,97.223795 161.53192,107.23189 153.4265,103.65071 C 146.59282,102.24814 141.46383,108.74419 138.24468,113.91807 C 136.76539,117.61723 136.08866,124.04917 141.70993,124.18302 z"
       id="path3191" />
    <path
       style="opacity:1;fill:#005500;fill-opacity:1;stroke:#000000;stroke-width:1.15386069;stroke-miterlimit:4;stroke-dasharray:none;stroke-opacity:1"
       d="M 66.675464,99.267318 C 60.170844,96.564901 52.507734,94.699938 45.639901,96.977617 C 34.829957,102.36087 29.384193,116.24178 32.163312,127.91109 C 30.594013,133.57923 20.598209,132.11974 18.064883,138.43532 C 13.928294,145.0755 13.494041,153.63188 14.924303,161.16675 C 16.668047,167.56831 20.695886,173.82963 26.90309,176.50599 C 24.457551,188.4967 22.995738,202.16041 30.356928,212.8071 C 35.618129,220.1595 44.119826,225.57027 53.075976,226.50497 C 58.462818,227.1367 64.875823,223.83111 69.545634,227.16791 C 74.911908,239.04615 88.913118,246.64596 101.52753,242.53259 C 119.21348,237.75039 128.91034,216.38275 123.29413,199.23699 C 121.62502,192.47173 131.15746,189.94902 130.32,182.92274 C 131.02086,172.49772 126.3156,161.35496 117.23887,155.90794 C 109.03713,152.92522 113.69801,143.86617 114.12085,137.51376 C 114.73839,129.60416 107.89963,123.36817 101.52753,120.03041 C 97.081243,115.01992 99.307895,106.66164 94.172984,101.85835 C 89.623981,96.851134 82.418902,98.562382 76.51605,97.191019 C 72.849441,97.724704 70.750511,101.22274 66.675464,99.267318 z"
       id="path3187" />
    <path
       style="opacity:1;fill:#00d400;fill-opacity:1;stroke:#000000;stroke-width:1.15386069;stroke-miterlimit:4;stroke-dasharray:none;stroke-opacity:1"
       d="M 100.61679,58.858223 C 101.64982,48.307074 112.51967,41.655678 121.61778,47.952495 C 120.6916,55.199123 111.68458,58.580596 105.4399,58.950489 C 103.85214,58.993643 102.23958,59.105158 100.66677,58.885665 L 100.6172,58.858447 L 100.61679,58.858223 z"
       id="path3194"
       sodipodi:nodetypes="cccccc" />
    <path
       style="opacity:1;fill:#ff0000;fill-opacity:1;stroke:#000000;stroke-width:1.15386069;stroke-miterlimit:4;stroke-dasharray:none;stroke-opacity:1"
       d="M 100.04481,58.199447 C 95.77722,54.230999 89.884786,54.632648 85.247143,57.302247 C 81.285853,59.166202 78.173732,64.095418 78.194954,69.572462 C 77.823625,75.41579 80.200809,81.770378 84.622345,84.044529 C 89.611333,87.09244 95.36248,88.057452 100.82234,87.010021 C 104.70879,86.23409 108.50298,84.13123 111.23177,80.455673 C 113.19678,78.205953 114.64309,75.038901 114.5263,71.592921 C 114.78953,66.898645 113.64629,61.545478 110.24236,59.050969 C 107.48396,56.682996 103.63314,55.317734 100.5554,57.483718 C 100.35731,57.686649 100.18412,57.928881 100.04481,58.199447 z"
       id="path3196" />
    <path
       style="opacity:1;fill:#2b1100;fill-opacity:1;stroke:#000000;stroke-width:1.15386069;stroke-miterlimit:4;stroke-dasharray:none;stroke-opacity:1"
       d="M 97.038726,49.103583 C 97.849667,50.744958 98.513021,54.678064 99.830357,57.498699 C 100.67796,57.15589 102.88619,49.647256 102.74368,48.843329 C 100.84374,48.819261 98.69207,49.520009 97.038726,49.103583 z"
       id="path3198"
       sodipodi:nodetypes="cccc" />
    <path
       style="opacity:1;fill:#ffffff;fill-opacity:0.51162792;stroke:none;stroke-width:2.33999991;stroke-miterlimit:4;stroke-dasharray:none;stroke-opacity:1"
       d="M 119.37541,48.89194 C 118.12153,51.881547 112.44712,57.802086 108.79311,55.596459 C 110.23253,51.381071 115.88401,50.645839 119.37541,48.89194 z"
       id="path3200"
       sodipodi:nodetypes="ccc" />
    <path
       style="opacity:1;fill:#ffffff;fill-opacity:0.41279069;stroke:none;stroke-width:2.33999991;stroke-miterlimit:4;stroke-dasharray:none;stroke-opacity:1"
       d="M 103.58947,59.58493 C 104.19034,59.677593 105.51055,59.785849 106.35713,60.000195 C 107.12802,60.195377 108.1841,61.024563 108.61226,61.349795 C 109.22945,61.8186 109.83713,62.68885 110.14985,63.322287 C 110.53476,64.101925 110.58795,65.002493 110.8674,65.71004 C 111.04424,66.157794 110.95735,66.904967 111.07241,67.371087 C 111.20709,67.91672 109.38041,68.115321 108.81728,68.305426 C 107.87278,68.624282 106.95148,68.824504 105.94711,68.824504 C 105.33924,68.824504 104.98456,69.297925 105.22956,68.305426 C 105.35333,67.804019 105.33207,67.030214 105.33207,66.540567 C 105.33207,65.952976 105.43458,65.618559 105.43458,64.983334 C 105.43458,64.420804 105.25923,63.797643 105.02455,63.322287 C 104.79474,62.856803 104.76639,62.420001 104.51201,62.076502 C 104.29185,61.779189 104.17364,61.287278 103.99949,60.93453 C 103.81171,60.554181 103.68848,60.086353 103.58947,59.58493 z"
       id="path3202" />
    <path
       style="opacity:1;fill:#000000;fill-opacity:0.16860465;stroke:none;stroke-width:2.33999991;stroke-miterlimit:4;stroke-dasharray:none;stroke-opacity:1"
       d="M 81.345636,72.873306 C 83.307741,81.520364 88.345845,85.103569 97.154153,83.704863 C 90.947174,82.764142 85.946327,76.978582 81.621982,72.869379 L 81.483542,72.855937 L 81.345636,72.873306 L 81.345636,72.873306 z"
       id="path3204"
       sodipodi:nodetypes="cccccc" />
    <path
       style="opacity:1;fill:#00d400;fill-opacity:1;stroke:#000000;stroke-width:1.15386069;stroke-miterlimit:4;stroke-dasharray:none;stroke-opacity:1"
       d="M 73.555172,124.88482 C 74.588205,114.33367 85.458053,107.68229 94.556172,113.9791 C 93.629996,121.22571 84.622964,124.60719 78.378292,124.97709 C 76.790524,125.02024 75.177963,125.13175 73.605145,124.91226 L 73.555579,124.88504 L 73.555172,124.88482 z"
       id="path3206"
       sodipodi:nodetypes="cccccc" />
    <path
       style="opacity:1;fill:#ff0000;fill-opacity:1;stroke:#000000;stroke-width:1.15386069;stroke-miterlimit:4;stroke-dasharray:none;stroke-opacity:1"
       d="M 72.983196,124.22604 C 68.715604,120.2576 62.823171,120.65925 58.18553,123.32885 C 54.224239,125.19282 51.112118,130.12201 51.133339,135.59906 C 50.76201,141.4424 53.139194,147.79698 57.560727,150.07112 C 62.54971,153.11905 68.300864,154.08406 73.760731,153.03662 C 77.647173,152.2607 81.44137,150.15783 84.170159,146.48228 C 86.135165,144.23255 87.581486,141.0655 87.464688,137.61952 C 87.727927,132.92524 86.584683,127.57208 83.180755,125.07756 C 80.422361,122.7096 76.571531,121.34434 73.493778,123.51032 C 73.295687,123.71325 73.122508,123.95549 72.983196,124.22604 z"
       id="path3208" />
    <path
       style="opacity:1;fill:#2b1100;fill-opacity:1;stroke:#000000;stroke-width:1.15386069;stroke-miterlimit:4;stroke-dasharray:none;stroke-opacity:1"
       d="M 69.977116,115.13018 C 70.788054,116.77156 71.451403,120.70467 72.76874,123.5253 C 73.616347,123.18248 75.824575,115.67386 75.682064,114.86993 C 73.782128,114.84586 71.630459,115.5466 69.977116,115.13018 z"
       id="path3210"
       sodipodi:nodetypes="cccc" />
    <path
       style="opacity:1;fill:#ffffff;fill-opacity:0.51162792;stroke:none;stroke-width:2.33999991;stroke-miterlimit:4;stroke-dasharray:none;stroke-opacity:1"
       d="M 92.313797,114.91854 C 91.059925,117.90815 85.385506,123.82868 81.731502,121.62306 C 83.170917,117.40768 88.822404,116.67244 92.313797,114.91854 z"
       id="path3212"
       sodipodi:nodetypes="ccc" />
    <path
       style="opacity:1;fill:#ffffff;fill-opacity:0.41279069;stroke:none;stroke-width:2.33999991;stroke-miterlimit:4;stroke-dasharray:none;stroke-opacity:1"
       d="M 76.527849,125.61154 C 77.128725,125.70419 78.448942,125.81245 79.295517,126.0268 C 80.066407,126.22198 81.122479,127.05116 81.550649,127.3764 C 82.167843,127.8452 82.775522,128.71546 83.088242,129.34889 C 83.473144,130.12852 83.526339,131.02909 83.805783,131.73664 C 83.982632,132.18439 83.895738,132.93157 84.010799,133.39769 C 84.145483,133.94332 82.318791,134.14193 81.755664,134.33203 C 80.811168,134.65088 79.88987,134.85109 78.885494,134.85109 C 78.277625,134.85109 77.922955,135.32453 78.167947,134.33203 C 78.291721,133.83062 78.270456,133.05681 78.270456,132.56717 C 78.270456,131.97957 78.37296,131.64515 78.37296,131.00994 C 78.37296,130.4474 78.197614,129.82424 77.962938,129.34889 C 77.73313,128.88339 77.704779,128.44659 77.450404,128.10311 C 77.230231,127.80578 77.112022,127.31388 76.937877,126.96112 C 76.750096,126.58078 76.62687,126.11295 76.527849,125.61154 z"
       id="path3214" />
    <path
       style="opacity:1;fill:#000000;fill-opacity:0.16860465;stroke:none;stroke-width:2.33999991;stroke-miterlimit:4;stroke-dasharray:none;stroke-opacity:1"
       d="M 54.284021,138.8999 C 56.246126,147.54696 61.284225,151.13017 70.092537,149.73146 C 63.885558,148.79073 58.884711,143.00518 54.560366,138.89598 L 54.421927,138.88254 L 54.284021,138.8999 L 54.284021,138.8999 z"
       id="path3216"
       sodipodi:nodetypes="cccccc" />
    <path
       style="opacity:1;fill:#00d400;fill-opacity:1;stroke:#000000;stroke-width:1.15386069;stroke-miterlimit:4;stroke-dasharray:none;stroke-opacity:1"
       d="M 95.286467,200.04717 C 96.319504,189.49604 107.18934,182.84464 116.28746,189.14145 C 115.36128,196.38808 106.35425,199.76955 100.10959,200.13945 C 98.521817,200.1826 96.909264,200.29412 95.336444,200.07463 L 95.28687,200.04741 L 95.286467,200.04717 z"
       id="path3218"
       sodipodi:nodetypes="cccccc" />
    <path
       style="opacity:1;fill:#ff0000;fill-opacity:1;stroke:#000000;stroke-width:1.15386069;stroke-miterlimit:4;stroke-dasharray:none;stroke-opacity:1"
       d="M 94.714493,199.38839 C 90.446905,195.41995 84.554466,195.82161 79.916827,198.49121 C 75.955535,200.35516 72.843415,205.28437 72.864636,210.76141 C 72.493307,216.60475 74.870491,222.95933 79.292024,225.23349 C 84.281006,228.2814 90.032164,229.24642 95.492027,228.19897 C 99.37847,227.42306 103.17266,225.32019 105.90145,221.64463 C 107.86646,219.3949 109.31277,216.22786 109.19598,212.78187 C 109.45922,208.08761 108.31596,202.73444 104.91205,200.23992 C 102.15366,197.87195 98.302823,196.50669 95.225072,198.67267 C 95.026984,198.87561 94.853802,199.11785 94.714493,199.38839 z"
       id="path3220" />
    <path
       style="opacity:1;fill:#2b1100;fill-opacity:1;stroke:#000000;stroke-width:1.15386069;stroke-miterlimit:4;stroke-dasharray:none;stroke-opacity:1"
       d="M 91.708411,190.29255 C 92.51935,191.93392 93.1827,195.86701 94.500035,198.68766 C 95.347639,198.34484 97.555868,190.83621 97.413355,190.03229 C 95.513419,190.00821 93.361755,190.70897 91.708411,190.29255 z"
       id="path3222"
       sodipodi:nodetypes="cccc" />
    <path
       style="opacity:1;fill:#ffffff;fill-opacity:0.51162792;stroke:none;stroke-width:2.33999991;stroke-miterlimit:4;stroke-dasharray:none;stroke-opacity:1"
       d="M 114.04508,190.0809 C 112.79121,193.07051 107.1168,198.99104 103.46279,196.78541 C 104.90221,192.57003 110.55369,191.8348 114.04508,190.0809 z"
       id="path3224"
       sodipodi:nodetypes="ccc" />
    <path
       style="opacity:1;fill:#ffffff;fill-opacity:0.41279069;stroke:none;stroke-width:2.33999991;stroke-miterlimit:4;stroke-dasharray:none;stroke-opacity:1"
       d="M 98.259142,200.77389 C 98.860025,200.86654 100.18023,200.97481 101.0268,201.18915 C 101.7977,201.38434 102.85377,202.21352 103.28194,202.53876 C 103.89914,203.00755 104.50681,203.87781 104.81953,204.51124 C 105.20443,205.29088 105.25763,206.19145 105.53707,206.899 C 105.71393,207.34675 105.62703,208.09392 105.74209,208.56005 C 105.87678,209.10567 104.05008,209.30428 103.48696,209.49439 C 102.54246,209.81323 101.62117,210.01346 100.61679,210.01346 C 100.00891,210.01346 99.654253,210.48689 99.899241,209.49439 C 100.02301,208.99298 100.00175,208.21917 100.00175,207.72953 C 100.00175,207.14193 100.10425,206.80751 100.10425,206.17229 C 100.10425,205.60976 99.928913,204.98659 99.694234,204.51124 C 99.464421,204.04575 99.436073,203.60896 99.181703,203.26546 C 98.961525,202.96815 98.843316,202.47623 98.669167,202.12348 C 98.481392,201.74315 98.358166,201.2753 98.259142,200.77389 z"
       id="path3226" />
    <path
       style="opacity:1;fill:#000000;fill-opacity:0.16860465;stroke:none;stroke-width:2.33999991;stroke-miterlimit:4;stroke-dasharray:none;stroke-opacity:1"
       d="M 76.015319,214.06226 C 77.977423,222.70932 83.015523,226.29253 91.823835,224.89381 C 85.616854,223.95309 80.616009,218.16754 76.291664,214.05834 L 76.153224,214.0449 L 76.015319,214.06226 L 76.015319,214.06226 z"
       id="path3228"
       sodipodi:nodetypes="cccccc" />
    <path
       style="opacity:1;fill:#00d400;fill-opacity:1;stroke:#000000;stroke-width:1.15386069;stroke-miterlimit:4;stroke-dasharray:none;stroke-opacity:1"
       d="M 172.21064,159.63039 C 173.24367,149.07925 184.11353,142.42786 193.21163,148.72467 C 192.28547,155.9713 183.27844,159.35276 177.03377,159.72267 C 175.446,159.76582 173.83343,159.87734 172.26062,159.65784 L 172.21105,159.63063 L 172.21064,159.63039 z"
       id="path3230"
       sodipodi:nodetypes="cccccc" />
    <path
       style="opacity:1;fill:#ff0000;fill-opacity:1;stroke:#000000;stroke-width:1.15386069;stroke-miterlimit:4;stroke-dasharray:none;stroke-opacity:1"
       d="M 171.63867,158.97161 C 167.37108,155.00318 161.47865,155.40483 156.841,158.07441 C 152.87972,159.93838 149.76759,164.8676 149.78882,170.34463 C 149.41748,176.18796 151.79467,182.54255 156.21621,184.8167 C 161.20518,187.86462 166.95634,188.82962 172.4162,187.7822 C 176.30264,187.00627 180.09685,184.90341 182.82563,181.22785 C 184.79065,178.97813 186.23696,175.81108 186.12017,172.3651 C 186.38341,167.67082 185.24015,162.31766 181.83624,159.82315 C 179.07784,157.45517 175.22701,156.08991 172.14925,158.25589 C 171.95116,158.45882 171.77799,158.70106 171.63867,158.97161 z"
       id="path3232" />
    <path
       style="opacity:1;fill:#2b1100;fill-opacity:1;stroke:#000000;stroke-width:1.15386069;stroke-miterlimit:4;stroke-dasharray:none;stroke-opacity:1"
       d="M 168.6326,149.87576 C 169.44353,151.51715 170.10688,155.45024 171.42422,158.27087 C 172.27182,157.92805 174.48004,150.41942 174.33753,149.61549 C 172.4376,149.59144 170.28594,150.29219 168.6326,149.87576 z"
       id="path3234"
       sodipodi:nodetypes="cccc" />
    <path
       style="opacity:1;fill:#ffffff;fill-opacity:0.51162792;stroke:none;stroke-width:2.33999991;stroke-miterlimit:4;stroke-dasharray:none;stroke-opacity:1"
       d="M 190.96927,149.66412 C 189.71539,152.65373 184.04098,158.57427 180.38697,156.36864 C 181.82638,152.15325 187.47788,151.41802 190.96927,149.66412 z"
       id="path3236"
       sodipodi:nodetypes="ccc" />
    <path
       style="opacity:1;fill:#ffffff;fill-opacity:0.41279069;stroke:none;stroke-width:2.33999991;stroke-miterlimit:4;stroke-dasharray:none;stroke-opacity:1"
       d="M 175.18332,160.35711 C 175.7842,160.44977 177.10442,160.55803 177.95099,160.77237 C 178.72188,160.96756 179.77796,161.79674 180.20612,162.12197 C 180.82332,162.59078 181.431,163.46102 181.74371,164.09446 C 182.12862,164.8741 182.18181,165.77466 182.46125,166.48222 C 182.6381,166.92997 182.55121,167.67714 182.66627,168.14326 C 182.80096,168.68889 180.97426,168.88749 180.41114,169.0776 C 179.46664,169.39646 178.54535,169.59668 177.54097,169.59668 C 176.9331,169.59668 176.57843,170.0701 176.82342,169.0776 C 176.94719,168.57619 176.92593,167.80238 176.92593,167.31275 C 176.92593,166.72516 177.02843,166.39073 177.02843,165.75551 C 177.02843,165.19298 176.85309,164.56982 176.61841,164.09446 C 176.38861,163.62897 176.36026,163.19218 176.10588,162.84868 C 175.8857,162.55137 175.7675,162.05945 175.59335,161.70671 C 175.40557,161.32636 175.28234,160.85853 175.18332,160.35711 z"
       id="path3238" />
    <path
       style="opacity:1;fill:#000000;fill-opacity:0.16860465;stroke:none;stroke-width:2.33999991;stroke-miterlimit:4;stroke-dasharray:none;stroke-opacity:1"
       d="M 152.9395,173.64548 C 154.90159,182.29254 159.93969,185.87574 168.748,184.47703 C 162.54103,183.53631 157.54019,177.75075 153.21583,173.64155 L 153.07739,173.62811 L 152.9395,173.64548 L 152.9395,173.64548 z"
       id="path3240"
       sodipodi:nodetypes="cccccc" />
    <path
       style="opacity:1;fill:#ffffff;fill-opacity:0.09883722;stroke:none;stroke-width:2.33999991;stroke-miterlimit:4;stroke-dasharray:none;stroke-opacity:1"
       d="M 182.50089,83.708239 C 176.85731,73.747185 161.80846,79.155611 158.63479,66.474967 C 153.99263,57.95487 144.46396,56.298382 136.48824,56.250122 C 128.70556,56.118282 132.84801,64.117332 138.54204,63.000565 C 149.69413,63.591834 154.66283,74.684353 162.11276,80.504498 C 169.60262,82.577959 175.5111,84.820769 182.54779,85.197697 L 182.50089,83.708239 L 182.50089,83.708239 z"
       id="path2409"
       sodipodi:nodetypes="cccccccc" />
    <path
       style="opacity:1;fill:#ffffff;fill-opacity:0.09883722;stroke:none;stroke-width:2.33999991;stroke-miterlimit:4;stroke-dasharray:none;stroke-opacity:1"
       d="M 64.732917,57.736078 C 63.85269,56.309549 62.412366,52.403452 62.412366,48.412737 C 62.412366,43.660692 64.010141,44.124978 67.633606,43.085114 C 70.483621,42.267216 73.637502,42.47728 75.755535,43.085114 C 78.553045,43.887945 80.125867,44.261608 82.717189,45.748925 C 85.166371,47.154661 88.12768,46.306256 90.258981,45.082973 C 92.579711,43.750964 94.432374,41.822902 96.060358,40.421303 C 98.274159,38.51535 100.16948,37.910158 103.02201,37.091539 C 107.39045,35.837882 102.08337,39.35877 100.70146,39.75535 C 97.605958,40.643699 96.203473,41.712138 93.739807,42.419162 C 91.472261,43.069903 90.687547,46.957842 87.938429,47.746785 C 85.050527,48.575556 84.897804,51.076549 80.976775,51.076549 C 77.963312,51.076549 74.955859,50.973064 72.274708,51.742502 C 68.908228,52.708616 66.731712,53.911976 64.732917,57.736078 z"
       id="path3188" />
    <path
       style="opacity:1;fill:#ffffff;fill-opacity:0.09883722;stroke:none;stroke-width:2.33999991;stroke-miterlimit:4;stroke-dasharray:none;stroke-opacity:1"
       d="M 167.99745,109.01445 C 173.19667,106.3913 178.92078,105.40519 184.54624,106.29116 C 187.53462,106.4317 191.87432,105.4662 192.71561,109.99548 C 193.43716,113.79164 193.1519,119.27968 197.76608,119.53529 C 202.13939,121.14658 207.86342,120.58918 210.55453,125.69342 C 213.42674,128.38566 214.93048,132.34635 214.47795,136.5843 C 214.46925,138.68992 215.99543,145.10765 214.09187,144.43535 C 213.25823,140.1439 211.69053,136.03061 209.00459,132.81246 C 205.97906,130.24177 202.26672,128.89443 198.91933,126.91957 C 195.88666,124.89234 191.90305,124.76059 189.49783,121.66136 C 187.47374,115.95228 183.03316,112.82897 177.71525,112.73431 C 174.23504,111.54771 169.98585,113.20304 167.99745,109.01445 z"
       id="path3192" />
    <path
       style="opacity:1;fill:#ffffff;fill-opacity:0.09883722;stroke:none;stroke-width:2.33999991;stroke-miterlimit:4;stroke-dasharray:none;stroke-opacity:1"
       d="M 105.9227,146.97377 C 104.7967,146.76536 105.05605,145.15724 105.53093,144.37393 C 106.40832,142.14769 108.03083,140.2226 108.23047,137.7037 C 108.33002,135.33584 107.59972,132.93225 106.13316,131.2419 C 105.12749,130.05144 104.10794,128.6183 102.57161,128.41592 C 101.02958,128.12154 99.47205,128.52717 97.98036,128.94117 C 97.030879,129.5027 98.038092,130.92755 98.29939,131.7264 C 99.276367,133.94721 100.63476,135.91813 101.52942,138.19108 C 102.89178,141.18423 104.40149,144.08461 105.9227,146.97377 z"
       id="path3197" />
    <path
       style="opacity:1;fill:#000000;fill-opacity:0.09883722;stroke:none;stroke-width:2.33999991;stroke-miterlimit:4;stroke-dasharray:none;stroke-opacity:1"
       d="M 32.245199,180.2714 C 30.671256,182.19467 30.504786,186.71784 30.504786,190.92665 C 30.504786,194.5478 31.684237,196.34232 32.245199,198.91808 C 32.986179,202.32043 34.266531,204.56818 35.726026,206.24356 C 37.498508,208.27824 38.87313,209.19024 40.367129,210.90523 C 42.102184,212.89694 44.24269,213.12965 46.168507,214.235 C 48.418326,215.52631 51.542631,216.11024 54.290436,216.89881 C 56.82022,217.62481 60.369433,216.89881 62.992504,216.89881 C 67.815733,216.89881 67.15044,215.84519 65.893192,212.23714 C 65.469031,211.01988 59.241058,210.4946 58.351401,210.23928 C 56.825892,209.80149 53.355663,208.37085 51.969885,207.57547 C 49.944956,206.41324 47.438679,205.30771 45.588369,204.2457 C 43.197397,202.87338 41.534394,199.61613 40.947267,196.92022 C 40.263915,193.78248 39.786991,192.06583 39.786991,188.26284 C 39.786991,183.07527 36.248773,182.10972 32.245199,180.2714 z"
       id="path3203" />
    <path
       style="opacity:1;fill:#000000;fill-opacity:0.09883722;stroke:none;stroke-width:2.33999991;stroke-miterlimit:4;stroke-dasharray:none;stroke-opacity:1"
       d="M 127.3878,229.55192 C 134.9289,229.27227 142.46553,230.96567 149.99464,229.81776 C 157.80714,229.50914 165.93182,229.12552 173.10757,225.21035 C 175.75563,223.0121 179.90859,219.41278 179.10731,215.25278 C 175.06993,213.56779 171.42535,218.03263 167.79196,219.58158 C 163.7469,221.00089 159.99174,223.87583 155.65046,223.75192 C 147.29316,223.38053 138.83269,223.27442 130.55888,224.79144 C 128.79789,225.40228 126.77651,227.1321 127.3878,229.55192 z"
       id="path3207" />
    <path
       style="opacity:1;fill:#000000;fill-opacity:0.09883722;stroke:none;stroke-width:2.33999991;stroke-miterlimit:4;stroke-dasharray:none;stroke-opacity:1"
       d="M 132.0289,116.33992 C 128.46222,118.40746 125.20039,121.16516 121.49507,122.90635 C 119.17175,123.77064 116.69741,123.67193 114.28703,123.63605 C 112.1996,123.01859 111.74425,120.26714 111.04403,118.28684 C 109.86653,116.86407 110.71018,114.92825 112.41226,115.86155 C 115.04552,116.50474 117.49124,118.0611 120.23359,118.11944 C 122.8378,118.35216 125.48644,118.50786 128.0791,118.11047 C 129.46225,117.73246 130.7055,116.90823 132.0289,116.33992 z"
       id="path3213" />
  </g>
</svg>
