<?xml version="1.0" encoding="UTF-8" standalone="no"?>
<!-- Created with Inkscape (http://www.inkscape.org/) -->
<svg
   xmlns:dc="http://purl.org/dc/elements/1.1/"
   xmlns:cc="http://creativecommons.org/ns#"
   xmlns:rdf="http://www.w3.org/1999/02/22-rdf-syntax-ns#"
   xmlns:svg="http://www.w3.org/2000/svg"
   xmlns="http://www.w3.org/2000/svg"
   xmlns:sodipodi="http://sodipodi.sourceforge.net/DTD/sodipodi-0.dtd"
   xmlns:inkscape="http://www.inkscape.org/namespaces/inkscape"
   width="250"
   height="250"
   id="svg2"
   sodipodi:version="0.32"
   inkscape:version="0.46"
   sodipodi:docname="bird.svg"
   inkscape:output_extension="org.inkscape.output.svg.inkscape"
   inkscape:export-filename="P:\pidgey2\data\images\bird.png"
   inkscape:export-xdpi="92.160004"
   inkscape:export-ydpi="92.160004"
   version="1.0">
  <defs
     id="defs4">
    <inkscape:perspective
       sodipodi:type="inkscape:persp3d"
       inkscape:vp_x="0 : 125 : 1"
       inkscape:vp_y="0 : 1000 : 0"
       inkscape:vp_z="250 : 125 : 1"
       inkscape:persp3d-origin="125 : 83.333333 : 1"
       id="perspective3645" />
  </defs>
  <sodipodi:namedview
     id="base"
     pagecolor="#cb90ff"
     bordercolor="#666666"
     borderopacity="1.0"
     gridtolerance="10000"
     guidetolerance="10"
     objecttolerance="10"
     inkscape:pageopacity="0"
     inkscape:pageshadow="2"
     inkscape:zoom="8.926516"
     inkscape:cx="114.8266"
     inkscape:cy="131.80913"
     inkscape:document-units="px"
     inkscape:current-layer="layer1"
     showgrid="false"
     inkscape:window-width="1680"
     inkscape:window-height="994"
     inkscape:window-x="0"
     inkscape:window-y="22"
     showguides="true"
     inkscape:guide-bbox="true" />
  <metadata
     id="metadata7">
    <rdf:RDF>
      <cc:Work
         rdf:about="">
        <dc:format>image/svg+xml</dc:format>
        <dc:type
           rdf:resource="http://purl.org/dc/dcmitype/StillImage" />
      </cc:Work>
    </rdf:RDF>
  </metadata>
  <g
     inkscape:label="Layer 1"
     inkscape:groupmode="layer"
     id="layer1">
    <path
       style="opacity:1;fill:#0b0b28;fill-opacity:1;stroke:#000000;stroke-width:2.74290609;stroke-miterlimit:4;stroke-dasharray:none;stroke-opacity:1"
       d="M 137.8745,109.23136 C 128.31002,106.58307 115.48753,110.3038 104.92317,108.27472 C 79.482539,106.50226 49.742406,98.610653 24.474424,98.527423 C 21.168793,98.771803 4.0238912,97.921343 5.2592262,98.086643 C 25.091755,100.74051 51.723052,105.11456 71.881725,112.85961 C 86.481752,118.46901 79.791066,142.52308 64.812851,143.64603 C 44.27963,145.18545 11.097235,148.16393 4.1108612,151.27623 C 0.72194119,152.78593 25.270972,151.07534 35.490196,150.45531 C 62.272069,148.83038 94.67359,148.80691 121.5581,146.50664 C 127.95813,145.95905 136.43607,148.00884 138.40098,143.65966 C 141.09931,137.68707 139.52763,126.35021 139.10611,117.75448 C 138.96408,114.85814 140.58231,109.98112 137.8745,109.23136 z"
       id="path3272"
       sodipodi:nodetypes="cccsssssssss" />
    <path
       style="opacity:1;fill:#ffcc00;fill-opacity:1;stroke:#000000;stroke-width:2.74290609;stroke-miterlimit:4;stroke-dasharray:none;stroke-opacity:1"
       d="M 227.30903,124.94884 C 233.00223,126.03943 237.05857,128.00831 240.47219,130.25364 C 243.50081,130.64088 225.33513,138.7393 227.30903,131.47782 C 227.76706,129.66036 227.30903,126.7753 227.30903,124.94884 z"
       id="path3275"
       sodipodi:nodetypes="cccc" />
    <path
       style="opacity:1;fill:#0b0b28;fill-opacity:1;stroke:#000000;stroke-width:3.68066907;stroke-miterlimit:4;stroke-dasharray:none;stroke-opacity:1"
       d="M 221.2945,117.35686 C 230.2015,121.72879 230.08785,134.94933 223.29392,141.03714 C 216.97036,146.70346 207.90683,148.00556 199.88943,149.44577 C 160.50589,156.52048 125.71399,150.05115 89.69592,133.2561 C 76.194422,126.96041 92.715606,120.59174 99.309074,117.45438 C 118.37945,108.38013 139.45816,105.95528 159.70544,107.29983 C 180.29268,108.66696 202.44689,108.10566 221.2945,117.35686 z"
       id="path3251"
       sodipodi:nodetypes="cssssss" />
    <path
       style="opacity:1;fill:#0b0b28;fill-opacity:1;stroke:#000000;stroke-width:3.14395809;stroke-miterlimit:4;stroke-dasharray:none;stroke-opacity:1"
       d="M 195.57031,113.33688 C 229.98327,84.982973 170.89281,69.642693 143.33849,55.621343 C 131.89431,49.759033 120.17872,44.225083 108.99695,38.076243 C 101.58576,35.114693 94.937909,31.242953 87.653504,28.143573 C 99.444122,58.570673 139.57968,73.906743 157.29676,100.75436 C 158.16433,105.93409 156.91092,113.96977 165.12226,115.93016 C 174.62825,115.9631 185.16979,117.45256 194.01411,114.3249 L 195.57031,113.33688 L 195.57031,113.33688 z"
       id="path3249"
       sodipodi:nodetypes="ccccccccc" />
    <path
       style="opacity:1;fill:#0b0b28;fill-opacity:1;stroke:#000000;stroke-width:3.06424832;stroke-miterlimit:4;stroke-dasharray:none;stroke-opacity:1"
       d="M 191.51483,142.15609 C 224.17555,170.53553 168.09388,185.88962 141.94258,199.9236 C 131.08112,205.79119 119.96206,211.33012 109.34964,217.4845 C 102.31582,220.44872 96.006472,224.32394 89.092974,227.42611 C 100.28324,196.97161 138.37516,181.62173 155.19012,154.74993 C 156.01351,149.56555 154.82393,141.52263 162.61716,139.56048 C 171.63911,139.5275 181.6439,138.03671 190.03788,141.16718 L 191.51483,142.15609 L 191.51483,142.15609 z"
       id="path3260"
       sodipodi:nodetypes="ccccccccc" />
    <path
       style="opacity:1;fill:#ffffff;fill-opacity:0.19767444;stroke:none;stroke-width:6;stroke-miterlimit:4;stroke-dasharray:none;stroke-opacity:1"
       d="M 196.90756,90.317373 C 177.31243,68.984413 143.50179,65.543793 119.0925,49.909483 C 113.63437,46.896993 99.87414,36.858383 100.12634,37.552933 C 108.66274,45.237063 118.29639,51.626653 127.22883,58.835553 C 144.49644,67.379753 165.41028,73.870913 184.34174,84.342343 C 188.10219,87.126143 192.58564,88.637243 196.90756,90.317373 z"
       id="path3279"
       sodipodi:nodetypes="cccccc" />
    <path
       style="opacity:1;fill:#0b0b28;fill-opacity:1;stroke:none;stroke-width:3;stroke-miterlimit:4;stroke-dasharray:none;stroke-opacity:1"
       d="M 129.61384,145.70399 C 129.43174,145.51763 127.63047,145.32017 126.92522,145.14386 C 126.43671,145.02173 125.75135,145.14386 125.24483,145.14386 C 124.06925,145.14386 124.02563,145.20982 125.13281,144.47171 C 125.77057,144.04653 126.28798,144.07089 126.92522,143.91158 C 127.64467,143.73172 128.35678,144.12324 128.82966,144.35968 C 129.35218,144.62094 129.47923,145.03094 129.61384,145.70399 z"
       id="path3171" />
    <path
       style="opacity:1;fill:#0b0b28;fill-opacity:1;stroke:none;stroke-width:3;stroke-miterlimit:4;stroke-dasharray:none;stroke-opacity:1"
       d="M 130.09901,111.68694 C 126.30976,111.23496 122.50091,110.97828 118.6697,110.97859 C 114.35027,110.71714 110.04621,111.18738 105.7363,111.30725 C 101.81413,111.75704 97.888499,112.45604 94.406028,114.05359 C 91.578809,114.93109 89.043714,116.40022 86.918924,118.12739 C 85.235942,119.79923 84.833438,121.9791 83.522153,123.80801 C 82.933305,125.90326 81.654355,127.83682 81.564786,130.0166 C 81.30794,132.22785 80.770084,134.64485 82.698003,136.49834 C 84.006482,138.75687 85.993293,140.60181 88.560461,141.96649 C 91.788092,143.48132 95.581357,143.81447 99.109095,144.66141 C 101.52889,144.98812 103.98106,145.14099 106.38679,145.53167 C 111.11265,145.57205 115.84512,145.54586 120.56742,145.37305 C 122.88716,145.39688 125.31584,145.40951 127.36688,144.40869 C 130.36859,143.4278 133.533,142.62645 136.10749,140.97816 C 139.067,139.73487 139.42481,136.62836 139.57318,134.22053 C 139.89431,130.45441 139.14793,126.65134 137.21464,123.20816 C 136.34129,121.11031 134.33945,119.54544 133.30113,117.51907 C 132.04429,115.64195 131.09459,113.65123 130.09901,111.68694 z"
       id="path3166" />
    <path
       style="opacity:1;fill:#ffffff;fill-opacity:0.19767444;stroke:none;stroke-width:6;stroke-miterlimit:4;stroke-dasharray:none;stroke-opacity:1"
       d="M 49.229719,103.1784 C 60.029955,105.76989 93.336041,111.6817 120.17985,113.13319 C 134.46987,113.90587 147.83097,111.30423 154.38114,110.94937 C 156.66515,119.07003 140.43629,115.96391 135.67842,116.7111 C 115.91145,117.89615 64.670785,108.37223 49.229719,103.1784 z"
       id="path3291"
       sodipodi:nodetypes="csccc" />
    <path
       style="opacity:1;fill:#ffffff;fill-opacity:0.16860465;stroke:none;stroke-width:6;stroke-miterlimit:4;stroke-dasharray:none;stroke-opacity:1"
       d="M 201.70813,116.76771 C 206.92033,117.62168 212.12152,118.72372 216.98484,121.16171 C 218.38977,122.07098 220.21428,122.36376 221.34689,123.64323 C 222.43312,125.84409 219.04227,126.73031 217.69265,125.30221 C 215.43622,124.37278 213.19183,123.36923 210.87615,122.58145 C 208.14759,121.49438 205.15401,120.88162 202.72076,119.16572 C 202.03859,118.55829 201.86883,117.61719 201.70813,116.76771 z"
       id="path3299"
       sodipodi:nodetypes="ccccccc" />
    <path
       style="opacity:1;fill:#000000;fill-opacity:0.72674417;stroke:none;stroke-width:6;stroke-miterlimit:4;stroke-dasharray:none;stroke-opacity:1"
       d="M 200.36571,144.12772 C 205.19848,143.80716 210.1731,143.53772 214.59549,141.36555 C 216.62141,140.4108 222.59078,139.53041 220.0307,136.45143 C 216.60423,134.7977 212.99661,136.9661 209.68403,137.89271 C 206.54423,139.11204 203.26937,140.21878 200.45926,142.08322 C 199.80776,142.57268 199.27312,143.74932 200.36571,144.12772 z"
       id="path3327" />
    <path
       style="opacity:1;fill:#000000;fill-opacity:0.71511625;stroke:none;stroke-width:6;stroke-miterlimit:4;stroke-dasharray:none;stroke-opacity:1"
       d="M 153.88334,84.550763 C 159.06654,86.681243 163.86882,90.271053 166.25987,95.432293 C 167.75712,98.058963 168.80861,100.97423 168.86552,104.01691 C 168.81488,106.36855 171.65316,110.8942 168.5579,111.86151 C 166.44482,111.45414 164.79161,109.7539 164.50248,107.62239 C 162.86871,102.0257 162.00973,95.760753 157.62144,91.480743 C 155.30958,88.991783 152.53221,86.999753 150.03388,84.708653 C 149.56689,82.387443 152.86456,84.631873 153.88334,84.550763 z"
       id="path3349" />
    <path
       style="opacity:1;fill:#000000;fill-opacity:0.71511625;stroke:none;stroke-width:6;stroke-miterlimit:4;stroke-dasharray:none;stroke-opacity:1"
       d="M 99.177601,220.47731 C 123.60232,206.44014 149.14724,192.39763 174.80298,180.78506 C 142.12838,187.86847 124.08118,197.47453 99.177601,220.47731 z"
       id="path3359"
       sodipodi:nodetypes="ccc" />
    <path
       style="opacity:1;fill:#ffffff;fill-opacity:0.18023257;stroke:none;stroke-width:6;stroke-miterlimit:4;stroke-dasharray:none;stroke-opacity:1"
       d="M 148.12446,169.83559 C 156.28615,162.5861 159.70597,149.53617 170.48882,145.72501 C 173.8294,143.78983 188.72895,143.11977 183.72602,147.76573 C 173.38013,148.55496 165.03332,155.021 158.07159,162.10081 C 154.95386,164.91309 151.76283,167.69561 148.12446,169.83559 z"
       id="path3367" />
    <path
       style="opacity:1;fill:#000000;fill-opacity:0.67441861;stroke:none;stroke-width:6;stroke-miterlimit:4;stroke-dasharray:none;stroke-opacity:1"
       d="M 41.951502,148.60221 C 82.623323,146.68422 112.28053,140.88809 152.25611,146.88063 C 156.79836,133.35113 72.592565,145.17823 41.951502,148.60221 z"
       id="path2394"
       sodipodi:nodetypes="ccc" />
    <path
       style="opacity:1;fill:#0b0b28;fill-opacity:1;stroke:none;stroke-width:3;stroke-miterlimit:4;stroke-dasharray:none;stroke-opacity:1"
       d="M 124.90876,111.64815 C 124.58687,111.51192 123.56259,111.53612 122.89229,111.53612 C 122.03343,111.53612 121.17456,111.53612 120.3157,111.53612 C 119.75768,111.53612 119.09152,111.42612 118.63531,111.31207 C 118.10193,111.17873 117.53018,111.20005 116.95492,111.20005 C 116.49342,111.20005 115.75426,110.87187 115.27454,110.75194 C 114.68687,110.60503 114.28656,110.53296 113.8182,110.41587 C 113.25285,110.27453 112.6015,110.19181 111.91376,110.19181 C 111.24326,110.19181 110.60939,110.07979 109.8973,110.07979 C 109.27267,110.07979 108.72931,109.96776 108.10489,109.96776 C 107.35876,109.96776 107.38571,110.45185 107.54476,111.08802 C 107.68707,111.65728 109.07474,111.75058 109.56122,111.8722 C 110.65153,112.14478 112.01533,112.09625 113.14605,112.09625 C 114.61161,112.09625 116.29471,112.07957 117.7391,112.3203 C 118.84881,112.50526 120.07479,112.54436 121.2119,112.54436 C 121.96881,112.54436 122.96914,112.59158 123.67647,112.76841 C 124.44178,112.95973 124.94852,112.72864 125.24483,112.43233 C 125.44592,112.23124 125.05507,111.89201 124.90876,111.64815 z"
       id="path3175" />
  </g>
</svg>
