<?xml version="1.0" encoding="UTF-8" standalone="no"?>
<!-- Created with Inkscape (http://www.inkscape.org/) -->
<svg
   xmlns:dc="http://purl.org/dc/elements/1.1/"
   xmlns:cc="http://creativecommons.org/ns#"
   xmlns:rdf="http://www.w3.org/1999/02/22-rdf-syntax-ns#"
   xmlns:svg="http://www.w3.org/2000/svg"
   xmlns="http://www.w3.org/2000/svg"
   xmlns:sodipodi="http://sodipodi.sourceforge.net/DTD/sodipodi-0.dtd"
   xmlns:inkscape="http://www.inkscape.org/namespaces/inkscape"
   width="250"
   height="250"
   id="svg2"
   sodipodi:version="0.32"
   inkscape:version="0.46"
   sodipodi:docname="bluebell.svg"
   inkscape:output_extension="org.inkscape.output.svg.inkscape"
   inkscape:export-filename="P:\pidgey2\data\images\bluebell.png"
   inkscape:export-xdpi="92.160004"
   inkscape:export-ydpi="92.160004"
   version="1.0">
  <defs
     id="defs4">
    <inkscape:perspective
       sodipodi:type="inkscape:persp3d"
       inkscape:vp_x="0 : 125 : 1"
       inkscape:vp_y="0 : 1000 : 0"
       inkscape:vp_z="250 : 125 : 1"
       inkscape:persp3d-origin="125 : 83.333333 : 1"
       id="perspective3645" />
  </defs>
  <sodipodi:namedview
     id="base"
     pagecolor="#cb90ff"
     bordercolor="#666666"
     borderopacity="1.0"
     gridtolerance="10000"
     guidetolerance="10"
     objecttolerance="10"
     inkscape:pageopacity="0"
     inkscape:pageshadow="2"
     inkscape:zoom="2.231629"
     inkscape:cx="125"
     inkscape:cy="114.50029"
     inkscape:document-units="px"
     inkscape:current-layer="layer1"
     showgrid="false"
     inkscape:window-width="1680"
     inkscape:window-height="994"
     inkscape:window-x="0"
     inkscape:window-y="22"
     showguides="true"
     inkscape:guide-bbox="true" />
  <metadata
     id="metadata7">
    <rdf:RDF>
      <cc:Work
         rdf:about="">
        <dc:format>image/svg+xml</dc:format>
        <dc:type
           rdf:resource="http://purl.org/dc/dcmitype/StillImage" />
      </cc:Work>
    </rdf:RDF>
  </metadata>
  <g
     inkscape:label="Layer 1"
     inkscape:groupmode="layer"
     id="layer1">
    <path
       style="opacity:1;fill:#217821;fill-opacity:1;stroke:#000000;stroke-width:1.49911558999999990;stroke-miterlimit:4;stroke-dasharray:none;stroke-opacity:1"
       d="M 163.566,228.95366 C 181.60337,234.03732 192.21615,217.2199 199.29022,204.24099 C 213.29285,191.80287 235.74265,187.44103 243.48065,168.79819 C 246.20203,149.8371 229.81057,137.00513 218.59321,124.28248 C 203.6601,112.55053 213.16293,93.599726 217.09169,79.000898 C 222.81176,63.530802 214.77627,44.540711 197.11185,43.095009 C 181.89487,36.567427 165.07923,40.25398 149.50427,35.893865 C 135.7001,30.458756 122.64293,18.076628 106.69126,23.466549 C 78.583118,28.831363 59.833543,52.313877 38.960239,69.496286 C 23.243768,73.601929 9.4343566,84.27963 7.3032785,101.45644 C 0.67284646,123.56903 14.858706,143.48079 28.140782,159.70373 C 39.625689,172.48913 53.317583,184.903 52.643842,203.59965 C 56.223802,220.25143 76.211865,223.48698 90.557443,222.55029 C 105.08037,224.67137 117.78982,214.52791 132.01296,215.93699 C 143.83202,217.09102 152.18816,226.69856 163.566,228.95366 z"
       id="path3270" />
    <g
       id="g4387">
      <path
         sodipodi:nodetypes="cccccccccccc"
         id="path2449"
         d="M 97.198233,49.873964 C 95.102745,46.659151 91.701817,43.983285 87.740547,44.634551 C 75.669225,49.784072 77.751255,67.244187 64.676258,69.750716 C 63.08521,69.642863 62.017676,71.77967 63.810543,72.305244 C 66.334562,74.02235 69.17015,75.587733 72.4169,75.129499 C 74.325015,74.872704 77.23693,72.498556 78.06217,75.583547 C 77.800002,77.74861 78.558664,80.885306 80.947714,80.472475 C 82.620428,79.155933 85.981928,76.487997 86.736367,79.793425 C 88.180194,83.736877 91.550405,86.064902 94.828993,87.865928 C 95.476048,88.464388 96.724325,88.140238 95.720344,87.166526 C 94.986633,83.876098 93.123926,80.797624 93.968303,77.07997 C 94.8025,68.039534 97.872851,58.751978 97.198233,49.873964 z"
         style="opacity:1;fill:#0000ff;fill-opacity:1;stroke:#000000;stroke-width:1.49911559;stroke-miterlimit:4;stroke-dasharray:none;stroke-opacity:1" />
      <path
         sodipodi:nodetypes="ccccccc"
         id="path4062"
         d="M 95.451982,51.600997 C 95.669586,53.329887 95.715409,55.133239 95.323806,56.922067 C 94.26858,65.387708 91.368309,73.863086 91.978778,82.299998 C 92.134956,82.650613 92.273481,83.862159 91.839559,82.944758 C 88.911502,77.584333 89.179784,72.088798 91.376198,65.640565 C 92.755598,62.212628 94.57886,59.072807 95.333379,55.441809 C 95.631699,54.153148 95.574458,52.853291 95.451982,51.600997 z"
         style="opacity:1;fill:#ffffff;fill-opacity:0.27906979;stroke:none;stroke-width:2.33999991;stroke-miterlimit:4;stroke-dasharray:none;stroke-opacity:1" />
      <path
         sodipodi:nodetypes="ccccccc"
         id="path4067"
         d="M 87.545292,46.599824 C 86.136797,47.625762 84.791754,48.827855 83.756961,50.338637 C 78.360481,58.094929 74.794385,67.986754 68.174519,71.925322 C 67.812114,72.051755 66.834662,72.780878 67.800221,72.468459 C 73.711035,70.928996 77.530473,66.968598 80.722944,60.950947 C 82.275007,57.597653 82.700609,52.354759 84.828699,49.317542 C 85.563049,48.217373 86.549152,47.368549 87.545292,46.599824 z"
         style="opacity:1;fill:#000000;fill-opacity:0.27906979;stroke:none;stroke-width:2.33999991;stroke-miterlimit:4;stroke-dasharray:none;stroke-opacity:1" />
      <path
         inkscape:transform-center-x="1.1786322"
         inkscape:transform-center-y="5.993197"
         sodipodi:nodetypes="cccccccccccc"
         id="path4069"
         d="M 108.80849,47.539268 C 105.04268,46.801216 100.75346,47.37491 98.45951,50.66939 C 93.738555,62.914676 107.71004,73.591197 100.3943,84.714063 C 99.208016,85.779805 99.996222,88.03465 101.62271,87.115329 C 104.61323,86.502202 107.71211,85.559909 109.64646,82.912342 C 110.79226,81.365083 111.11938,77.622247 113.90675,79.180688 C 115.27655,80.877709 118.05459,82.519928 119.4237,80.519046 C 119.6455,78.401958 120.0753,74.131968 122.97139,75.894819 C 126.80551,77.608014 130.82388,76.813908 134.40052,75.718183 C 135.28064,75.671316 135.91824,74.550269 134.52025,74.591537 C 131.64935,72.824279 128.14354,72.014333 126.0662,68.817681 C 120.16489,61.918408 115.64497,53.24339 108.80849,47.539268 z"
         style="opacity:1;fill:#0000ff;fill-opacity:1;stroke:#000000;stroke-width:1.49911559;stroke-miterlimit:4;stroke-dasharray:none;stroke-opacity:1" />
      <path
         inkscape:transform-center-y="0.95588446"
         inkscape:transform-center-x="-1.4373526"
         sodipodi:nodetypes="ccccccc"
         id="path4071"
         d="M 108.8298,49.995197 C 110.22123,51.044173 111.54631,52.268233 112.55611,53.795836 C 117.89119,60.452978 121.94726,68.439956 128.42271,73.882634 C 128.78299,74.015012 129.74831,74.760116 128.78802,74.431855 C 122.90334,72.79535 119.14957,68.772648 116.05655,62.703289 C 114.55986,59.324912 113.57915,55.829065 111.50132,52.757246 C 110.78517,51.645144 109.81317,50.78021 108.8298,49.995197 z"
         style="opacity:1;fill:#ffffff;fill-opacity:0.27906979;stroke:none;stroke-width:2.33999991;stroke-miterlimit:4;stroke-dasharray:none;stroke-opacity:1" />
      <path
         inkscape:transform-center-y="7.1409207"
         inkscape:transform-center-x="14.408263"
         sodipodi:nodetypes="ccccccc"
         id="path4073"
         d="M 99.732675,52.179177 C 99.486654,53.90425 99.411176,55.706604 99.773284,57.501635 C 101.57389,66.7774 106.18162,76.229075 104.39192,83.7212 C 104.22999,84.069197 104.07156,85.278301 104.52051,84.368163 C 107.53636,79.056636 107.35854,73.557433 105.2685,67.073934 C 103.9457,63.623768 100.48275,59.664338 99.788064,56.021418 C 99.510991,54.728024 99.589615,53.429287 99.732675,52.179177 z"
         style="opacity:1;fill:#000000;fill-opacity:0.27906979;stroke:none;stroke-width:2.33999991;stroke-miterlimit:4;stroke-dasharray:none;stroke-opacity:1" />
    </g>
    <path
       style="opacity:1;fill:#0000ff;fill-opacity:1;stroke:#000000;stroke-width:1.49911559;stroke-miterlimit:4;stroke-dasharray:none;stroke-opacity:1"
       d="M 180.16168,126.24932 C 178.0662,123.0345 174.66526,120.35864 170.704,121.00991 C 158.63267,126.15943 160.71471,143.61955 147.6397,146.12607 C 146.04866,146.01822 144.98112,148.15502 146.77399,148.6806 C 149.29801,150.3977 152.13359,151.96309 155.38035,151.50485 C 157.28846,151.24805 160.20037,148.87391 161.02562,151.9589 C 160.76345,154.12396 161.52212,157.26067 163.91116,156.84783 C 165.58387,155.53129 168.94537,152.86335 169.69982,156.16878 C 171.14365,160.11223 174.51385,162.44025 177.79245,164.24128 C 178.43949,164.83974 179.68777,164.51559 178.68379,163.54188 C 177.95008,160.25145 176.08737,157.17298 176.93175,153.45533 C 177.76594,144.41489 180.8363,135.12733 180.16168,126.24932 z"
       id="path4075"
       sodipodi:nodetypes="cccccccccccc" />
    <path
       style="opacity:1;fill:#ffffff;fill-opacity:0.27906979;stroke:none;stroke-width:2.33999991;stroke-miterlimit:4;stroke-dasharray:none;stroke-opacity:1"
       d="M 178.41543,127.97635 C 178.63304,129.70524 178.67885,131.50859 178.28726,133.29743 C 177.23202,141.76306 174.33175,150.23844 174.94222,158.67536 C 175.09841,159.02597 175.23692,160.23752 174.803,159.32011 C 171.87495,153.95969 172.14323,148.46416 174.33965,142.01592 C 175.71905,138.58798 177.54231,135.44816 178.29682,131.81716 C 178.59515,130.5285 178.5379,129.22864 178.41543,127.97635 z"
       id="path4077"
       sodipodi:nodetypes="ccccccc" />
    <path
       style="opacity:1;fill:#000000;fill-opacity:0.27906979;stroke:none;stroke-width:2.33999991;stroke-miterlimit:4;stroke-dasharray:none;stroke-opacity:1"
       d="M 170.50874,122.97518 C 169.10025,124.00112 167.7552,125.20321 166.7204,126.71399 C 161.32393,134.47028 157.75783,144.3621 151.13796,148.30067 C 150.77556,148.42711 149.7981,149.15623 150.76366,148.84382 C 156.67448,147.30435 160.49392,143.34395 163.68638,137.3263 C 165.23846,133.97301 165.66405,128.73011 167.79214,125.6929 C 168.52649,124.59273 169.5126,123.7439 170.50874,122.97518 z"
       id="path4079"
       sodipodi:nodetypes="ccccccc" />
    <path
       style="opacity:1;fill:#0000ff;fill-opacity:1;stroke:#000000;stroke-width:1.49911559;stroke-miterlimit:4;stroke-dasharray:none;stroke-opacity:1"
       d="M 191.77194,123.91463 C 188.00613,123.17657 183.71691,123.75026 181.42295,127.04474 C 176.70201,139.29003 190.67349,149.96655 183.35774,161.08941 C 182.17146,162.15516 182.95967,164.41 184.58616,163.49069 C 187.57668,162.87756 190.67556,161.93526 192.60992,159.28769 C 193.7557,157.74043 194.08283,153.9976 196.87019,155.55604 C 198.23999,157.25306 201.01805,158.89528 202.38715,156.8944 C 202.60895,154.77732 203.03874,150.50732 205.93485,152.27018 C 209.76896,153.98336 213.78733,153.18926 217.36396,152.09354 C 218.24409,152.04667 218.88168,150.92563 217.48369,150.96689 C 214.61279,149.19963 211.10699,148.38969 209.02965,145.19304 C 203.12835,138.29376 198.60841,129.61875 191.77194,123.91463 z"
       id="path4081"
       sodipodi:nodetypes="cccccccccccc"
       inkscape:transform-center-y="5.9931977"
       inkscape:transform-center-x="1.1786355" />
    <path
       style="opacity:1;fill:#ffffff;fill-opacity:0.27906979;stroke:none;stroke-width:2.33999991;stroke-miterlimit:4;stroke-dasharray:none;stroke-opacity:1"
       d="M 191.79325,126.37056 C 193.18467,127.41952 194.50976,128.64359 195.51956,130.17119 C 200.85463,136.82833 204.91071,144.81531 211.38617,150.25799 C 211.74644,150.39037 212.71176,151.13547 211.75147,150.80721 C 205.86678,149.17071 202.11303,145.148 199.01999,139.07864 C 197.52331,135.70026 196.54259,132.20442 194.46477,129.13261 C 193.74861,128.0205 192.77662,127.15557 191.79325,126.37056 z"
       id="path4083"
       sodipodi:nodetypes="ccccccc"
       inkscape:transform-center-x="-1.4373552"
       inkscape:transform-center-y="0.95588875" />
    <path
       style="opacity:1;fill:#000000;fill-opacity:0.27906979;stroke:none;stroke-width:2.33999991;stroke-miterlimit:4;stroke-dasharray:none;stroke-opacity:1"
       d="M 182.69612,128.55454 C 182.4501,130.27961 182.37462,132.08196 182.73674,133.87699 C 184.53735,143.15275 189.14506,152.60443 187.35537,160.09656 C 187.19343,160.44456 187.035,161.65365 187.48396,160.74352 C 190.49981,155.43199 190.32199,149.93279 188.23196,143.44928 C 186.90914,139.99912 183.44619,136.0397 182.75152,132.39677 C 182.47443,131.10337 182.55306,129.80464 182.69612,128.55454 z"
       id="path4085"
       sodipodi:nodetypes="ccccccc"
       inkscape:transform-center-x="14.408261"
       inkscape:transform-center-y="7.1409227" />
    <path
       style="opacity:1;fill:#0000ff;fill-opacity:1;stroke:#000000;stroke-width:1.49911559;stroke-miterlimit:4;stroke-dasharray:none;stroke-opacity:1"
       d="M 87.416006,154.12663 C 85.320517,150.91181 81.919589,148.23595 77.958323,148.88721 C 65.886999,154.03674 67.969029,171.49685 54.894032,174.00339 C 53.302984,173.89553 52.235451,176.03233 54.028318,176.55791 C 56.552336,178.27502 59.387924,179.84039 62.634674,179.38217 C 64.542789,179.12537 67.454704,176.75121 68.279944,179.83621 C 68.017776,182.00128 68.776438,185.13797 71.165485,184.72514 C 72.838199,183.4086 76.199698,180.74065 76.954139,184.04609 C 78.397972,187.98954 81.768178,190.31757 85.046766,192.11859 C 85.69382,192.71704 86.942097,192.3929 85.938116,191.41918 C 85.204405,188.12876 83.341699,185.05029 84.186076,181.33264 C 85.020273,172.2922 88.090631,163.00464 87.416006,154.12663 z"
       id="path4087"
       sodipodi:nodetypes="cccccccccccc" />
    <path
       style="opacity:1;fill:#ffffff;fill-opacity:0.27906979;stroke:none;stroke-width:2.33999991;stroke-miterlimit:4;stroke-dasharray:none;stroke-opacity:1"
       d="M 85.669755,155.85366 C 85.887358,157.58255 85.933182,159.3859 85.541578,161.17473 C 84.486352,169.64037 81.586081,178.11575 82.19655,186.55266 C 82.352729,186.90328 82.491253,188.11482 82.057331,187.19742 C 79.129278,181.837 79.397555,176.34146 81.593978,169.89323 C 82.97337,166.46529 84.796633,163.32547 85.551152,159.69447 C 85.849471,158.40581 85.79223,157.10596 85.669755,155.85366 z"
       id="path4089"
       sodipodi:nodetypes="ccccccc" />
    <path
       style="opacity:1;fill:#000000;fill-opacity:0.27906979;stroke:none;stroke-width:2.33999991;stroke-miterlimit:4;stroke-dasharray:none;stroke-opacity:1"
       d="M 77.763069,150.85249 C 76.354571,151.87842 75.009526,153.08052 73.974733,154.5913 C 68.578256,162.34759 65.01216,172.23942 58.392293,176.17799 C 58.029888,176.30441 57.052436,177.03354 58.017995,176.72113 C 63.928809,175.18166 67.748247,171.22126 70.940718,165.20361 C 72.492785,161.85031 72.918381,156.60742 75.046472,153.57021 C 75.780821,152.47004 76.766924,151.62121 77.763069,150.85249 z"
       id="path4091"
       sodipodi:nodetypes="ccccccc" />
    <path
       style="opacity:1;fill:#0000ff;fill-opacity:1;stroke:#000000;stroke-width:1.49911559;stroke-miterlimit:4;stroke-dasharray:none;stroke-opacity:1"
       d="M 99.026271,151.79193 C 95.260456,151.05388 90.971236,151.62757 88.677282,154.92205 C 83.956328,167.16734 97.927816,177.84386 90.612073,188.96672 C 89.425788,190.03246 90.214002,192.28731 91.840485,191.36799 C 94.831005,190.75487 97.929884,189.81257 99.864245,187.165 C 101.01003,185.61775 101.33715,181.87491 104.12452,183.43335 C 105.49432,185.13037 108.27237,186.7726 109.64147,184.77171 C 109.86327,182.65462 110.29307,178.38463 113.18917,180.14748 C 117.02328,181.86067 121.04166,181.06657 124.61828,179.97085 C 125.49841,179.92398 126.13601,178.80293 124.73802,178.8442 C 121.86712,177.07694 118.36131,176.267 116.28397,173.07034 C 110.38267,166.17107 105.86274,157.49605 99.026271,151.79193 z"
       id="path4093"
       sodipodi:nodetypes="cccccccccccc"
       inkscape:transform-center-y="5.993198"
       inkscape:transform-center-x="1.1786338" />
    <path
       style="opacity:1;fill:#ffffff;fill-opacity:0.27906979;stroke:none;stroke-width:2.33999991;stroke-miterlimit:4;stroke-dasharray:none;stroke-opacity:1"
       d="M 99.047574,154.24786 C 100.439,155.29683 101.76408,156.52089 102.77388,158.0485 C 108.10896,164.70565 112.16503,172.69261 118.64049,178.13529 C 119.00077,178.26768 119.96609,179.01278 119.00579,178.68452 C 113.12111,177.04802 109.36736,173.02531 106.27432,166.95595 C 104.77764,163.57758 103.79692,160.08173 101.71909,157.00991 C 101.00294,155.89781 100.03095,155.03287 99.047574,154.24786 z"
       id="path4095"
       sodipodi:nodetypes="ccccccc"
       inkscape:transform-center-x="-1.4373555"
       inkscape:transform-center-y="0.95588638" />
    <path
       style="opacity:1;fill:#000000;fill-opacity:0.27906979;stroke:none;stroke-width:2.33999991;stroke-miterlimit:4;stroke-dasharray:none;stroke-opacity:1"
       d="M 89.950447,156.43184 C 89.704426,158.15691 89.628948,159.95927 89.991057,161.7543 C 91.791675,171.03006 96.399392,180.48174 94.609697,187.97387 C 94.447762,188.32186 94.289331,189.53096 94.73828,188.62082 C 97.754136,183.3093 97.576311,177.8101 95.486276,171.3266 C 94.163471,167.87643 90.700519,163.917 90.005844,160.27409 C 89.728763,158.98069 89.807388,157.68195 89.950447,156.43184 z"
       id="path4097"
       sodipodi:nodetypes="ccccccc"
       inkscape:transform-center-x="14.408265"
       inkscape:transform-center-y="7.1409208" />
    <path
       style="opacity:1;fill:#71c837;fill-opacity:1;stroke:#000000;stroke-width:1.49911559;stroke-miterlimit:4;stroke-dasharray:none;stroke-opacity:1"
       d="M 76.251771,93.903579 C 82.505602,94.913644 88.542454,97.474866 93.198374,101.67676 C 97.643621,105.40862 101.27388,110.19722 103.15071,115.63281 C 104.0849,118.07435 101.55587,119.53697 99.367747,119.58924 C 96.494265,120.08998 93.559709,119.94145 90.674138,120.33188 C 86.078381,119.55925 82.051023,117.06422 78.321089,114.4955 C 72.966952,110.13518 70.50716,103.58035 66.69423,98.08563 C 57.89355,91.960851 72.203096,93.300057 76.251771,93.903579 z"
       id="path3411"
       sodipodi:nodetypes="cccccccc" />
    <path
       style="opacity:1;fill:#338000;fill-opacity:1;stroke:#000000;stroke-width:1.49911559;stroke-miterlimit:4;stroke-dasharray:none;stroke-opacity:1"
       d="M 72.649031,104.12155 C 75.998651,109.35279 78.010016,115.45555 77.845914,121.64038 C 77.90486,127.35953 76.611789,133.18586 73.662927,138.16295 C 72.398538,140.46501 69.60245,139.59161 68.117954,138.03056 C 65.83557,136.26744 64.013068,134.02875 61.807696,132.18357 C 59.36957,128.31908 58.633549,123.72575 58.150635,119.30039 C 57.975944,112.5012 61.402295,106.35595 63.118846,99.927689 C 62.02863,89.44376 70.441763,100.76831 72.649031,104.12155 z"
       id="path3413"
       sodipodi:nodetypes="cccccccc"
       inkscape:export-xdpi="90"
       inkscape:export-ydpi="90" />
    <path
       style="opacity:1;fill:#ffffff;fill-opacity:0.34883722;stroke:none;stroke-width:2.33999991;stroke-miterlimit:4;stroke-dasharray:none;stroke-opacity:1"
       d="M 66.557702,132.63416 C 74.25928,127.65618 67.292903,111.13695 64.769903,104.74745 C 61.311015,121.33411 61.68013,125.82933 66.557702,132.63416 z"
       id="path3415"
       sodipodi:nodetypes="ccc" />
    <path
       style="opacity:1;fill:#ffffff;fill-opacity:0.26162792;stroke:none;stroke-width:2.33999991;stroke-miterlimit:4;stroke-dasharray:none;stroke-opacity:1"
       d="M 79.413797,111.18731 C 81.570719,112.66794 83.611178,114.40401 86.145979,115.2126 C 88.728072,116.19726 91.432409,116.97173 94.182658,117.266 C 95.347703,117.15275 98.659427,117.38611 98.191914,115.71774 C 96.110143,113.90163 94.37895,111.51692 91.664417,110.56907 C 88.382955,109.20208 84.562549,108.60548 81.122952,109.6756 C 80.438058,110.03213 79.927116,110.6275 79.413797,111.18731 z"
       id="path3417" />
    <path
       style="opacity:1;fill:#71c837;fill-opacity:1;stroke:#000000;stroke-width:1.49911559;stroke-miterlimit:4;stroke-dasharray:none;stroke-opacity:1"
       d="M 199.63699,73.499763 C 201.32071,79.606784 201.50364,86.161939 199.62009,92.144049 C 198.07626,97.739012 195.23243,103.0326 191.07066,107.00097 C 189.23924,108.86636 186.85693,107.17524 185.89894,105.20729 C 184.24795,102.80273 183.16196,100.07247 181.60626,97.611019 C 180.39655,93.110519 180.98957,88.410181 181.77336,83.94964 C 183.51046,77.266706 188.4474,72.302527 191.85731,66.549024 C 193.76478,55.99789 198.50115,69.567095 199.63699,73.499763 z"
       id="path4103"
       sodipodi:nodetypes="cccccccc" />
    <path
       style="opacity:1;fill:#338000;fill-opacity:1;stroke:#000000;stroke-width:1.49911559;stroke-miterlimit:4;stroke-dasharray:none;stroke-opacity:1"
       d="M 188.8465,74.475368 C 185.48338,79.697943 180.77093,84.066251 175.07865,86.490504 C 169.90263,88.923821 164.0666,90.172313 158.31382,89.561796 C 155.69439,89.369943 155.32516,86.463979 156.12696,84.464553 C 156.78051,81.655508 158.05787,79.066756 158.81807,76.293597 C 161.31765,72.468561 165.1882,69.888016 169.01134,67.607519 C 175.12129,64.619556 182.13499,65.178197 188.6946,64.064323 C 197.77421,58.710654 190.97723,71.072985 188.8465,74.475368 z"
       id="path4105"
       sodipodi:nodetypes="cccccccc"
       inkscape:export-xdpi="90"
       inkscape:export-ydpi="90" />
    <path
       style="opacity:1;fill:#ffffff;fill-opacity:0.34883722;stroke:none;stroke-width:2.33999991;stroke-miterlimit:4;stroke-dasharray:none;stroke-opacity:1"
       d="M 160.3848,80.800363 C 168.11599,85.732249 180.23858,72.524005 184.99888,67.571147 C 168.47705,71.327543 164.54304,73.533625 160.3848,80.800363 z"
       id="path4107"
       sodipodi:nodetypes="ccc" />
    <path
       style="opacity:1;fill:#ffffff;fill-opacity:0.26162792;stroke:none;stroke-width:2.33999991;stroke-miterlimit:4;stroke-dasharray:none;stroke-opacity:1"
       d="M 185.23623,83.566743 C 184.78736,86.144165 184.05774,88.721962 184.37718,91.363365 C 184.55621,94.121023 184.97723,96.902396 185.85401,99.525689 C 186.44176,100.53797 187.60756,103.64649 188.93012,102.52716 C 189.71533,99.878488 191.16344,97.31202 190.89583,94.449237 C 190.77347,90.896539 189.72632,87.174319 187.32204,84.4919 C 186.71287,84.017458 185.95887,83.80058 185.23623,83.566743 z"
       id="path4109" />
    <path
       style="opacity:1;fill:#71c837;fill-opacity:1;stroke:#000000;stroke-width:1.49911559;stroke-miterlimit:4;stroke-dasharray:none;stroke-opacity:1"
       d="M 163.01978,207.84804 C 157.09718,210.09605 150.58794,210.8918 144.45578,209.5765 C 138.74086,208.56321 133.2043,206.22738 128.86377,202.45539 C 126.83514,200.80662 128.29582,198.27646 130.16546,197.13846 C 132.4049,195.26963 135.02152,193.93282 137.32654,192.15354 C 141.69403,190.52785 146.42924,190.67827 150.94357,191.04106 C 157.75977,192.14493 163.1643,196.59551 169.21174,199.45185 C 179.8951,200.36325 166.82885,206.34904 163.01978,207.84804 z"
       id="path4111"
       sodipodi:nodetypes="cccccccc" />
    <path
       style="opacity:1;fill:#338000;fill-opacity:1;stroke:#000000;stroke-width:1.49911559;stroke-miterlimit:4;stroke-dasharray:none;stroke-opacity:1"
       d="M 161.03835,197.19624 C 155.52389,194.33679 150.73364,190.05395 147.78717,184.61361 C 144.88002,179.6881 143.09069,173.99455 143.16,168.20989 C 143.10581,165.58401 145.96444,164.94437 148.03015,165.55548 C 150.88804,165.9432 153.585,166.97262 156.41714,167.46989 C 160.45938,169.60043 163.39091,173.21242 166.01928,176.80529 C 169.56608,182.60871 169.66644,189.64391 171.38947,196.07043 C 177.56957,204.60902 164.62526,198.99913 161.03835,197.19624 z"
       id="path4113"
       sodipodi:nodetypes="cccccccc"
       inkscape:export-xdpi="90"
       inkscape:export-ydpi="90" />
    <path
       style="opacity:1;fill:#ffffff;fill-opacity:0.34883722;stroke:none;stroke-width:2.33999991;stroke-miterlimit:4;stroke-dasharray:none;stroke-opacity:1"
       d="M 152.07683,169.45162 C 147.89032,177.61053 162.17537,188.44346 167.55209,192.71922 C 162.26557,176.62158 159.70091,172.91136 152.07683,169.45162 z"
       id="path4115"
       sodipodi:nodetypes="ccc" />
    <path
       style="opacity:1;fill:#ffffff;fill-opacity:0.26162792;stroke:none;stroke-width:2.33999991;stroke-miterlimit:4;stroke-dasharray:none;stroke-opacity:1"
       d="M 151.64894,194.45288 C 149.04082,194.24726 146.40605,193.76215 143.80615,194.32745 C 141.07735,194.76383 138.34761,195.44338 135.81791,196.56187 C 134.8651,197.2418 131.87935,198.69347 133.11757,199.90543 C 135.82811,200.43926 138.51888,201.64076 141.34403,201.10635 C 144.86968,200.65195 148.47752,199.26097 150.92311,196.61614 C 151.33843,195.96522 151.48378,195.19424 151.64894,194.45288 z"
       id="path4117" />
    <path
       style="opacity:1;fill:#ffffff;fill-opacity:0.34883722;stroke:none;stroke-width:2.33999991;stroke-miterlimit:4;stroke-dasharray:none;stroke-opacity:1"
       d="M 169.76458,43.84134 C 144.69842,48.358141 137.1555,30.25556 114.05375,28.991072 C 98.441249,26.069117 83.834491,36.480217 110.60342,37.357824 C 118.11891,37.788889 124.63521,37.336314 130.83909,42.104306 C 138.97394,46.630575 150.22237,53.670619 159.89363,52.679389 C 179.44158,49.923866 188.90735,51.343953 206.22893,57.552901 C 201.55633,46.625257 182.87939,44.684955 169.76458,43.84134 z"
       id="path2412"
       sodipodi:nodetypes="ccccccc" />
    <path
       style="opacity:1;fill:#000000;fill-opacity:0.32558139;stroke:none;stroke-width:2.33999991;stroke-miterlimit:4;stroke-dasharray:none;stroke-opacity:1"
       d="M 17.911334,92.54248 C 9.6657913,97.587464 8.9946953,107.99599 11.228747,116.18168 C 15.178241,128.98713 19.815132,142.49439 30.901308,151.47021 C 37.912081,156.86894 42.306344,164.61126 49.47974,169.86918 C 40.358752,143.59478 20.807075,125.33126 17.911334,92.54248 z"
       id="path3187"
       sodipodi:nodetypes="ccccc" />
    <path
       style="opacity:1;fill:#000000;fill-opacity:0.32558139;stroke:none;stroke-width:2.33999991;stroke-miterlimit:4;stroke-dasharray:none;stroke-opacity:1"
       d="M 56.622637,195.8011 C 55.456119,202.59945 61.19282,207.8959 66.221539,211.44361 C 72.879591,215.95571 81.115806,217.15377 88.912452,218.11476 C 95.536259,218.37285 102.00343,216.55707 108.51021,215.56432 C 111.53625,215.51506 119.0219,212.81943 113.57315,210.11867 C 90.267826,209.61213 79.92391,208.29974 56.622637,195.8011 z"
       id="path3194"
       sodipodi:nodetypes="cccccc" />
    <path
       style="opacity:1;fill:#ffffff;fill-opacity:0.34883722;stroke:none;stroke-width:2.33999991;stroke-miterlimit:4;stroke-dasharray:none;stroke-opacity:1"
       d="M 236.20542,153.7911 C 240.09827,160.4113 233.37919,171.21092 230.27065,161.59226 C 220.85961,150.70069 222.29612,136.55548 213.24062,127.41464 C 218.14198,132.37291 228.88482,145.62966 236.20542,153.7911 z"
       id="path3201"
       sodipodi:nodetypes="cccc" />
  </g>
</svg>
