<?xml version="1.0" encoding="UTF-8" standalone="no"?>
<!-- Created with Inkscape (http://www.inkscape.org/) -->
<svg
   xmlns:dc="http://purl.org/dc/elements/1.1/"
   xmlns:cc="http://creativecommons.org/ns#"
   xmlns:rdf="http://www.w3.org/1999/02/22-rdf-syntax-ns#"
   xmlns:svg="http://www.w3.org/2000/svg"
   xmlns="http://www.w3.org/2000/svg"
   xmlns:sodipodi="http://sodipodi.sourceforge.net/DTD/sodipodi-0.dtd"
   xmlns:inkscape="http://www.inkscape.org/namespaces/inkscape"
   width="250"
   height="250"
   id="svg2"
   sodipodi:version="0.32"
   inkscape:version="0.46"
   sodipodi:docname="butterflylevel.svg"
   inkscape:output_extension="org.inkscape.output.svg.inkscape"
   inkscape:export-filename="P:\pidgey2\data\images\butterflylevel.png"
   inkscape:export-xdpi="92.160004"
   inkscape:export-ydpi="92.160004"
   version="1.0">
  <defs
     id="defs4">
    <inkscape:perspective
       sodipodi:type="inkscape:persp3d"
       inkscape:vp_x="0 : 125 : 1"
       inkscape:vp_y="0 : 1000 : 0"
       inkscape:vp_z="250 : 125 : 1"
       inkscape:persp3d-origin="125 : 83.333333 : 1"
       id="perspective3645" />
  </defs>
  <sodipodi:namedview
     id="base"
     pagecolor="#cb90ff"
     bordercolor="#666666"
     borderopacity="1.0"
     gridtolerance="10000"
     guidetolerance="10"
     objecttolerance="10"
     inkscape:pageopacity="0"
     inkscape:pageshadow="2"
     inkscape:zoom="2.42"
     inkscape:cx="145.55237"
     inkscape:cy="126.92623"
     inkscape:document-units="px"
     inkscape:current-layer="layer1"
     showgrid="false"
     inkscape:window-width="1680"
     inkscape:window-height="994"
     inkscape:window-x="0"
     inkscape:window-y="22" />
  <metadata
     id="metadata7">
    <rdf:RDF>
      <cc:Work
         rdf:about="">
        <dc:format>image/svg+xml</dc:format>
        <dc:type
           rdf:resource="http://purl.org/dc/dcmitype/StillImage" />
      </cc:Work>
    </rdf:RDF>
  </metadata>
  <g
     inkscape:label="Layer 1"
     inkscape:groupmode="layer"
     id="layer1">
    <g
       id="g3351"
       transform="matrix(1.8555495,0,0,1.7951389,-331.48124,-68.848739)">
      <g
         transform="matrix(0.7549481,0,0,0.7512496,182.35383,4.9581573e-2)"
         id="g3353">
        <path
           style="opacity:1;fill:#ffd5d5;fill-opacity:1;stroke:#000000;stroke-width:2;stroke-miterlimit:4;stroke-dasharray:none;stroke-opacity:1"
           d="M 116.66667,89.285713 C 112.71062,88.512697 108.73417,87.780829 104.75503,87.15318 C 102.01853,87.256017 99.488318,88.988536 97.44762,90.648298 C 96.054856,92.956952 94.882556,95.956544 95.846928,98.635426 C 97.496564,101.98585 100.858,104.43004 104.55495,105.00531 C 107.8156,105.76172 111.18495,106.56492 114.54394,106.24719 C 116.86031,104.96034 118.53136,102.56144 119.87964,100.33918 C 120.7414,97.128763 119.52227,107.11369 119.44444,108.33333 C 119.59242,111.59807 121.70236,114.53788 124.15127,116.55848 C 128.18248,119.34566 133.51934,120.10793 138.22854,118.90249 C 143.68502,116.96622 144.87185,109.07997 141.08909,105.05277 C 138.86901,102.73137 136.81635,100.22484 134.22816,98.292687 C 133.55353,96.589402 137.36551,98.388033 138.4252,98.429927 C 142.57021,99.479062 147.6131,99.858785 151.11917,96.970612 C 152.85032,95.053449 153.20575,92.271628 153.41025,89.791929 C 153.3759,86.708105 151.34064,83.79539 148.58062,82.532697 C 144.82645,81.374741 140.58856,81.388413 137.1161,83.406737 C 135.97571,83.931552 131.73043,86.432549 134.61647,84.030057 C 136.01784,80.095611 132.31798,71.448043 128.43557,69.93495 C 121.85585,67.911851 111.77728,67.674879 110.31856,77.444955 C 109.97087,81.575754 115.54471,85.524444 116.66667,89.285713 z"
           id="path3355"
           sodipodi:nodetypes="ccccccccccccccccccccc" />
        <path
           style="opacity:1;fill:#ff8080;fill-opacity:1;stroke:none;stroke-width:2;stroke-miterlimit:4;stroke-dasharray:none;stroke-opacity:1"
           d="M 123.80952,98.015873 C 123.78637,98.919892 123.4127,101.70914 123.4127,103.96825 C 123.4127,106.92579 123.36039,106.93137 125.79365,107.53968 C 127.80425,108.04233 129.50423,106.87487 130.55556,106.34921 C 132.88367,105.18515 132.93651,105.53051 132.93651,102.38095 C 132.93651,100.63471 131.794,98.741207 130.95238,97.619048 C 129.41872,95.574172 133.02716,95.116225 134.12698,94.84127 C 136.26661,94.306362 137.8417,94.111005 139.68254,93.650794 C 142.26789,93.004455 140.28155,89.293252 140.07937,88.888889 C 139.35829,87.446748 136.19935,88.271592 135.31746,88.492063 C 133.55694,88.932193 130.89943,88.478826 129.36508,88.095238 C 127.65647,87.668085 127.39132,85.358931 126.98413,83.730159 C 126.62083,82.276973 124.7931,81.142304 123.80952,80.15873 C 122.18307,78.532279 120.18835,79.414823 119.04762,80.555556 C 117.72351,81.879668 117.85714,82.97733 117.85714,85.31746 C 117.85714,86.635626 120.34302,88.372347 121.03175,88.888889 C 123.45048,90.702937 121.55094,91.245367 119.44444,91.666667 C 117.57024,92.041507 115.3373,92.098214 113.88889,92.460317 C 111.67527,93.013721 110.70153,93.266726 109.52381,94.444444 C 107.71455,96.253706 110.97892,98.181237 111.90476,98.412698 C 114.44592,99.047989 115.74695,98.543422 117.85714,98.015873 C 119.40627,97.62859 120.14186,96.278277 121.42857,95.634921 C 123.12264,94.787886 122.36134,95.602232 123.80952,98.015873 z"
           id="path3357" />
        <path
           style="opacity:1;fill:#ffff00;fill-opacity:1;stroke:#000000;stroke-width:2;stroke-miterlimit:4;stroke-dasharray:none;stroke-opacity:1"
           d="M 121.8254,92.063492 C 121.54207,90.110994 122.04499,89.230817 125,88.492063 C 127.34059,87.906917 128.85543,88.776061 129.7619,89.68254 C 131.29837,91.219005 130.78392,93.590893 130.15873,94.84127 C 129.81291,95.532906 126.11578,95.634921 125,95.634921 C 122.54788,95.634921 122.54415,95.657257 121.8254,92.063492 z"
           id="path3359" />
      </g>
      <g
         transform="matrix(-0.7549481,0,0,0.7512496,352.35915,6.9089906)"
         id="g3361">
        <path
           style="opacity:1;fill:#ffd5d5;fill-opacity:1;stroke:#000000;stroke-width:2;stroke-miterlimit:4;stroke-dasharray:none;stroke-opacity:1"
           d="M 116.66667,89.285713 C 112.71062,88.512697 108.73417,87.780829 104.75503,87.15318 C 102.01853,87.256017 99.488318,88.988536 97.44762,90.648298 C 96.054856,92.956952 94.882556,95.956544 95.846928,98.635426 C 97.496564,101.98585 100.858,104.43004 104.55495,105.00531 C 107.8156,105.76172 111.18495,106.56492 114.54394,106.24719 C 116.86031,104.96034 118.53136,102.56144 119.87964,100.33918 C 120.7414,97.128763 119.52227,107.11369 119.44444,108.33333 C 119.59242,111.59807 121.70236,114.53788 124.15127,116.55848 C 128.18248,119.34566 133.51934,120.10793 138.22854,118.90249 C 143.68502,116.96622 144.87185,109.07997 141.08909,105.05277 C 138.86901,102.73137 136.81635,100.22484 134.22816,98.292687 C 133.55353,96.589402 137.36551,98.388033 138.4252,98.429927 C 142.57021,99.479062 147.6131,99.858785 151.11917,96.970612 C 152.85032,95.053449 153.20575,92.271628 153.41025,89.791929 C 153.3759,86.708105 151.34064,83.79539 148.58062,82.532697 C 144.82645,81.374741 140.58856,81.388413 137.1161,83.406737 C 135.97571,83.931552 131.73043,86.432549 134.61647,84.030057 C 136.01784,80.095611 132.31798,71.448043 128.43557,69.93495 C 121.85585,67.911851 111.77728,67.674879 110.31856,77.444955 C 109.97087,81.575754 115.54471,85.524444 116.66667,89.285713 z"
           id="path3363"
           sodipodi:nodetypes="ccccccccccccccccccccc" />
        <path
           style="opacity:1;fill:#ff8080;fill-opacity:1;stroke:none;stroke-width:2;stroke-miterlimit:4;stroke-dasharray:none;stroke-opacity:1"
           d="M 123.80952,98.015873 C 123.78637,98.919892 123.4127,101.70914 123.4127,103.96825 C 123.4127,106.92579 123.36039,106.93137 125.79365,107.53968 C 127.80425,108.04233 129.50423,106.87487 130.55556,106.34921 C 132.88367,105.18515 132.93651,105.53051 132.93651,102.38095 C 132.93651,100.63471 131.794,98.741207 130.95238,97.619048 C 129.41872,95.574172 133.02716,95.116225 134.12698,94.84127 C 136.26661,94.306362 137.8417,94.111005 139.68254,93.650794 C 142.26789,93.004455 140.28155,89.293252 140.07937,88.888889 C 139.35829,87.446748 136.19935,88.271592 135.31746,88.492063 C 133.55694,88.932193 130.89943,88.478826 129.36508,88.095238 C 127.65647,87.668085 127.39132,85.358931 126.98413,83.730159 C 126.62083,82.276973 124.7931,81.142304 123.80952,80.15873 C 122.18307,78.532279 120.18835,79.414823 119.04762,80.555556 C 117.72351,81.879668 117.85714,82.97733 117.85714,85.31746 C 117.85714,86.635626 120.34302,88.372347 121.03175,88.888889 C 123.45048,90.702937 121.55094,91.245367 119.44444,91.666667 C 117.57024,92.041507 115.3373,92.098214 113.88889,92.460317 C 111.67527,93.013721 110.70153,93.266726 109.52381,94.444444 C 107.71455,96.253706 110.97892,98.181237 111.90476,98.412698 C 114.44592,99.047989 115.74695,98.543422 117.85714,98.015873 C 119.40627,97.62859 120.14186,96.278277 121.42857,95.634921 C 123.12264,94.787886 122.36134,95.602232 123.80952,98.015873 z"
           id="path3365" />
        <path
           style="opacity:1;fill:#ffff00;fill-opacity:1;stroke:#000000;stroke-width:2;stroke-miterlimit:4;stroke-dasharray:none;stroke-opacity:1"
           d="M 121.8254,92.063492 C 121.54207,90.110994 122.04499,89.230817 125,88.492063 C 127.34059,87.906917 128.85543,88.776061 129.7619,89.68254 C 131.29837,91.219005 130.78392,93.590893 130.15873,94.84127 C 129.81291,95.532906 126.11578,95.634921 125,95.634921 C 122.54788,95.634921 122.54415,95.657257 121.8254,92.063492 z"
           id="path3367" />
      </g>
      <g
         transform="matrix(0.671603,-0.3448131,0.3431238,0.6683128,152.04634,75.882776)"
         id="g3369">
        <path
           style="opacity:1;fill:#ffd5d5;fill-opacity:1;stroke:#000000;stroke-width:2;stroke-miterlimit:4;stroke-dasharray:none;stroke-opacity:1"
           d="M 116.66667,89.285713 C 112.71062,88.512697 108.73417,87.780829 104.75503,87.15318 C 102.01853,87.256017 99.488318,88.988536 97.44762,90.648298 C 96.054856,92.956952 94.882556,95.956544 95.846928,98.635426 C 97.496564,101.98585 100.858,104.43004 104.55495,105.00531 C 107.8156,105.76172 111.18495,106.56492 114.54394,106.24719 C 116.86031,104.96034 118.53136,102.56144 119.87964,100.33918 C 120.7414,97.128763 119.52227,107.11369 119.44444,108.33333 C 119.59242,111.59807 121.70236,114.53788 124.15127,116.55848 C 128.18248,119.34566 133.51934,120.10793 138.22854,118.90249 C 143.68502,116.96622 144.87185,109.07997 141.08909,105.05277 C 138.86901,102.73137 136.81635,100.22484 134.22816,98.292687 C 133.55353,96.589402 137.36551,98.388033 138.4252,98.429927 C 142.57021,99.479062 147.6131,99.858785 151.11917,96.970612 C 152.85032,95.053449 153.20575,92.271628 153.41025,89.791929 C 153.3759,86.708105 151.34064,83.79539 148.58062,82.532697 C 144.82645,81.374741 140.58856,81.388413 137.1161,83.406737 C 135.97571,83.931552 131.73043,86.432549 134.61647,84.030057 C 136.01784,80.095611 132.31798,71.448043 128.43557,69.93495 C 121.85585,67.911851 111.77728,67.674879 110.31856,77.444955 C 109.97087,81.575754 115.54471,85.524444 116.66667,89.285713 z"
           id="path3371"
           sodipodi:nodetypes="ccccccccccccccccccccc" />
        <path
           style="opacity:1;fill:#ff8080;fill-opacity:1;stroke:none;stroke-width:2;stroke-miterlimit:4;stroke-dasharray:none;stroke-opacity:1"
           d="M 123.80952,98.015873 C 123.78637,98.919892 123.4127,101.70914 123.4127,103.96825 C 123.4127,106.92579 123.36039,106.93137 125.79365,107.53968 C 127.80425,108.04233 129.50423,106.87487 130.55556,106.34921 C 132.88367,105.18515 132.93651,105.53051 132.93651,102.38095 C 132.93651,100.63471 131.794,98.741207 130.95238,97.619048 C 129.41872,95.574172 133.02716,95.116225 134.12698,94.84127 C 136.26661,94.306362 137.8417,94.111005 139.68254,93.650794 C 142.26789,93.004455 140.28155,89.293252 140.07937,88.888889 C 139.35829,87.446748 136.19935,88.271592 135.31746,88.492063 C 133.55694,88.932193 130.89943,88.478826 129.36508,88.095238 C 127.65647,87.668085 127.39132,85.358931 126.98413,83.730159 C 126.62083,82.276973 124.7931,81.142304 123.80952,80.15873 C 122.18307,78.532279 120.18835,79.414823 119.04762,80.555556 C 117.72351,81.879668 117.85714,82.97733 117.85714,85.31746 C 117.85714,86.635626 120.34302,88.372347 121.03175,88.888889 C 123.45048,90.702937 121.55094,91.245367 119.44444,91.666667 C 117.57024,92.041507 115.3373,92.098214 113.88889,92.460317 C 111.67527,93.013721 110.70153,93.266726 109.52381,94.444444 C 107.71455,96.253706 110.97892,98.181237 111.90476,98.412698 C 114.44592,99.047989 115.74695,98.543422 117.85714,98.015873 C 119.40627,97.62859 120.14186,96.278277 121.42857,95.634921 C 123.12264,94.787886 122.36134,95.602232 123.80952,98.015873 z"
           id="path3373" />
        <path
           style="opacity:1;fill:#ffff00;fill-opacity:1;stroke:#000000;stroke-width:2;stroke-miterlimit:4;stroke-dasharray:none;stroke-opacity:1"
           d="M 121.8254,92.063492 C 121.54207,90.110994 122.04499,89.230817 125,88.492063 C 127.34059,87.906917 128.85543,88.776061 129.7619,89.68254 C 131.29837,91.219005 130.78392,93.590893 130.15873,94.84127 C 129.81291,95.532906 126.11578,95.634921 125,95.634921 C 122.54788,95.634921 122.54415,95.657257 121.8254,92.063492 z"
           id="path3375" />
      </g>
    </g>
    <g
       id="g3377"
       transform="matrix(1.8555495,0,0,1.7951389,-390.57934,-21.772509)">
      <g
         transform="matrix(0.7549481,0,0,0.7512496,182.35383,4.9581573e-2)"
         id="g3379">
        <path
           style="opacity:1;fill:#ffd5d5;fill-opacity:1;stroke:#000000;stroke-width:2;stroke-miterlimit:4;stroke-dasharray:none;stroke-opacity:1"
           d="M 116.66667,89.285713 C 112.71062,88.512697 108.73417,87.780829 104.75503,87.15318 C 102.01853,87.256017 99.488318,88.988536 97.44762,90.648298 C 96.054856,92.956952 94.882556,95.956544 95.846928,98.635426 C 97.496564,101.98585 100.858,104.43004 104.55495,105.00531 C 107.8156,105.76172 111.18495,106.56492 114.54394,106.24719 C 116.86031,104.96034 118.53136,102.56144 119.87964,100.33918 C 120.7414,97.128763 119.52227,107.11369 119.44444,108.33333 C 119.59242,111.59807 121.70236,114.53788 124.15127,116.55848 C 128.18248,119.34566 133.51934,120.10793 138.22854,118.90249 C 143.68502,116.96622 144.87185,109.07997 141.08909,105.05277 C 138.86901,102.73137 136.81635,100.22484 134.22816,98.292687 C 133.55353,96.589402 137.36551,98.388033 138.4252,98.429927 C 142.57021,99.479062 147.6131,99.858785 151.11917,96.970612 C 152.85032,95.053449 153.20575,92.271628 153.41025,89.791929 C 153.3759,86.708105 151.34064,83.79539 148.58062,82.532697 C 144.82645,81.374741 140.58856,81.388413 137.1161,83.406737 C 135.97571,83.931552 131.73043,86.432549 134.61647,84.030057 C 136.01784,80.095611 132.31798,71.448043 128.43557,69.93495 C 121.85585,67.911851 111.77728,67.674879 110.31856,77.444955 C 109.97087,81.575754 115.54471,85.524444 116.66667,89.285713 z"
           id="path3381"
           sodipodi:nodetypes="ccccccccccccccccccccc" />
        <path
           style="opacity:1;fill:#ff8080;fill-opacity:1;stroke:none;stroke-width:2;stroke-miterlimit:4;stroke-dasharray:none;stroke-opacity:1"
           d="M 123.80952,98.015873 C 123.78637,98.919892 123.4127,101.70914 123.4127,103.96825 C 123.4127,106.92579 123.36039,106.93137 125.79365,107.53968 C 127.80425,108.04233 129.50423,106.87487 130.55556,106.34921 C 132.88367,105.18515 132.93651,105.53051 132.93651,102.38095 C 132.93651,100.63471 131.794,98.741207 130.95238,97.619048 C 129.41872,95.574172 133.02716,95.116225 134.12698,94.84127 C 136.26661,94.306362 137.8417,94.111005 139.68254,93.650794 C 142.26789,93.004455 140.28155,89.293252 140.07937,88.888889 C 139.35829,87.446748 136.19935,88.271592 135.31746,88.492063 C 133.55694,88.932193 130.89943,88.478826 129.36508,88.095238 C 127.65647,87.668085 127.39132,85.358931 126.98413,83.730159 C 126.62083,82.276973 124.7931,81.142304 123.80952,80.15873 C 122.18307,78.532279 120.18835,79.414823 119.04762,80.555556 C 117.72351,81.879668 117.85714,82.97733 117.85714,85.31746 C 117.85714,86.635626 120.34302,88.372347 121.03175,88.888889 C 123.45048,90.702937 121.55094,91.245367 119.44444,91.666667 C 117.57024,92.041507 115.3373,92.098214 113.88889,92.460317 C 111.67527,93.013721 110.70153,93.266726 109.52381,94.444444 C 107.71455,96.253706 110.97892,98.181237 111.90476,98.412698 C 114.44592,99.047989 115.74695,98.543422 117.85714,98.015873 C 119.40627,97.62859 120.14186,96.278277 121.42857,95.634921 C 123.12264,94.787886 122.36134,95.602232 123.80952,98.015873 z"
           id="path3383" />
        <path
           style="opacity:1;fill:#ffff00;fill-opacity:1;stroke:#000000;stroke-width:2;stroke-miterlimit:4;stroke-dasharray:none;stroke-opacity:1"
           d="M 121.8254,92.063492 C 121.54207,90.110994 122.04499,89.230817 125,88.492063 C 127.34059,87.906917 128.85543,88.776061 129.7619,89.68254 C 131.29837,91.219005 130.78392,93.590893 130.15873,94.84127 C 129.81291,95.532906 126.11578,95.634921 125,95.634921 C 122.54788,95.634921 122.54415,95.657257 121.8254,92.063492 z"
           id="path3385" />
      </g>
      <g
         transform="matrix(-0.7549481,0,0,0.7512496,352.35915,6.9089906)"
         id="g3387">
        <path
           style="opacity:1;fill:#ffd5d5;fill-opacity:1;stroke:#000000;stroke-width:2;stroke-miterlimit:4;stroke-dasharray:none;stroke-opacity:1"
           d="M 116.66667,89.285713 C 112.71062,88.512697 108.73417,87.780829 104.75503,87.15318 C 102.01853,87.256017 99.488318,88.988536 97.44762,90.648298 C 96.054856,92.956952 94.882556,95.956544 95.846928,98.635426 C 97.496564,101.98585 100.858,104.43004 104.55495,105.00531 C 107.8156,105.76172 111.18495,106.56492 114.54394,106.24719 C 116.86031,104.96034 118.53136,102.56144 119.87964,100.33918 C 120.7414,97.128763 119.52227,107.11369 119.44444,108.33333 C 119.59242,111.59807 121.70236,114.53788 124.15127,116.55848 C 128.18248,119.34566 133.51934,120.10793 138.22854,118.90249 C 143.68502,116.96622 144.87185,109.07997 141.08909,105.05277 C 138.86901,102.73137 136.81635,100.22484 134.22816,98.292687 C 133.55353,96.589402 137.36551,98.388033 138.4252,98.429927 C 142.57021,99.479062 147.6131,99.858785 151.11917,96.970612 C 152.85032,95.053449 153.20575,92.271628 153.41025,89.791929 C 153.3759,86.708105 151.34064,83.79539 148.58062,82.532697 C 144.82645,81.374741 140.58856,81.388413 137.1161,83.406737 C 135.97571,83.931552 131.73043,86.432549 134.61647,84.030057 C 136.01784,80.095611 132.31798,71.448043 128.43557,69.93495 C 121.85585,67.911851 111.77728,67.674879 110.31856,77.444955 C 109.97087,81.575754 115.54471,85.524444 116.66667,89.285713 z"
           id="path3389"
           sodipodi:nodetypes="ccccccccccccccccccccc" />
        <path
           style="opacity:1;fill:#ff8080;fill-opacity:1;stroke:none;stroke-width:2;stroke-miterlimit:4;stroke-dasharray:none;stroke-opacity:1"
           d="M 123.80952,98.015873 C 123.78637,98.919892 123.4127,101.70914 123.4127,103.96825 C 123.4127,106.92579 123.36039,106.93137 125.79365,107.53968 C 127.80425,108.04233 129.50423,106.87487 130.55556,106.34921 C 132.88367,105.18515 132.93651,105.53051 132.93651,102.38095 C 132.93651,100.63471 131.794,98.741207 130.95238,97.619048 C 129.41872,95.574172 133.02716,95.116225 134.12698,94.84127 C 136.26661,94.306362 137.8417,94.111005 139.68254,93.650794 C 142.26789,93.004455 140.28155,89.293252 140.07937,88.888889 C 139.35829,87.446748 136.19935,88.271592 135.31746,88.492063 C 133.55694,88.932193 130.89943,88.478826 129.36508,88.095238 C 127.65647,87.668085 127.39132,85.358931 126.98413,83.730159 C 126.62083,82.276973 124.7931,81.142304 123.80952,80.15873 C 122.18307,78.532279 120.18835,79.414823 119.04762,80.555556 C 117.72351,81.879668 117.85714,82.97733 117.85714,85.31746 C 117.85714,86.635626 120.34302,88.372347 121.03175,88.888889 C 123.45048,90.702937 121.55094,91.245367 119.44444,91.666667 C 117.57024,92.041507 115.3373,92.098214 113.88889,92.460317 C 111.67527,93.013721 110.70153,93.266726 109.52381,94.444444 C 107.71455,96.253706 110.97892,98.181237 111.90476,98.412698 C 114.44592,99.047989 115.74695,98.543422 117.85714,98.015873 C 119.40627,97.62859 120.14186,96.278277 121.42857,95.634921 C 123.12264,94.787886 122.36134,95.602232 123.80952,98.015873 z"
           id="path3391" />
        <path
           style="opacity:1;fill:#ffff00;fill-opacity:1;stroke:#000000;stroke-width:2;stroke-miterlimit:4;stroke-dasharray:none;stroke-opacity:1"
           d="M 121.8254,92.063492 C 121.54207,90.110994 122.04499,89.230817 125,88.492063 C 127.34059,87.906917 128.85543,88.776061 129.7619,89.68254 C 131.29837,91.219005 130.78392,93.590893 130.15873,94.84127 C 129.81291,95.532906 126.11578,95.634921 125,95.634921 C 122.54788,95.634921 122.54415,95.657257 121.8254,92.063492 z"
           id="path3393" />
      </g>
      <g
         transform="matrix(0.671603,-0.3448131,0.3431238,0.6683128,152.04634,75.882776)"
         id="g3395">
        <path
           style="opacity:1;fill:#ffd5d5;fill-opacity:1;stroke:#000000;stroke-width:2;stroke-miterlimit:4;stroke-dasharray:none;stroke-opacity:1"
           d="M 116.66667,89.285713 C 112.71062,88.512697 108.73417,87.780829 104.75503,87.15318 C 102.01853,87.256017 99.488318,88.988536 97.44762,90.648298 C 96.054856,92.956952 94.882556,95.956544 95.846928,98.635426 C 97.496564,101.98585 100.858,104.43004 104.55495,105.00531 C 107.8156,105.76172 111.18495,106.56492 114.54394,106.24719 C 116.86031,104.96034 118.53136,102.56144 119.87964,100.33918 C 120.7414,97.128763 119.52227,107.11369 119.44444,108.33333 C 119.59242,111.59807 121.70236,114.53788 124.15127,116.55848 C 128.18248,119.34566 133.51934,120.10793 138.22854,118.90249 C 143.68502,116.96622 144.87185,109.07997 141.08909,105.05277 C 138.86901,102.73137 136.81635,100.22484 134.22816,98.292687 C 133.55353,96.589402 137.36551,98.388033 138.4252,98.429927 C 142.57021,99.479062 147.6131,99.858785 151.11917,96.970612 C 152.85032,95.053449 153.20575,92.271628 153.41025,89.791929 C 153.3759,86.708105 151.34064,83.79539 148.58062,82.532697 C 144.82645,81.374741 140.58856,81.388413 137.1161,83.406737 C 135.97571,83.931552 131.73043,86.432549 134.61647,84.030057 C 136.01784,80.095611 132.31798,71.448043 128.43557,69.93495 C 121.85585,67.911851 111.77728,67.674879 110.31856,77.444955 C 109.97087,81.575754 115.54471,85.524444 116.66667,89.285713 z"
           id="path3397"
           sodipodi:nodetypes="ccccccccccccccccccccc" />
        <path
           style="opacity:1;fill:#ff8080;fill-opacity:1;stroke:none;stroke-width:2;stroke-miterlimit:4;stroke-dasharray:none;stroke-opacity:1"
           d="M 123.80952,98.015873 C 123.78637,98.919892 123.4127,101.70914 123.4127,103.96825 C 123.4127,106.92579 123.36039,106.93137 125.79365,107.53968 C 127.80425,108.04233 129.50423,106.87487 130.55556,106.34921 C 132.88367,105.18515 132.93651,105.53051 132.93651,102.38095 C 132.93651,100.63471 131.794,98.741207 130.95238,97.619048 C 129.41872,95.574172 133.02716,95.116225 134.12698,94.84127 C 136.26661,94.306362 137.8417,94.111005 139.68254,93.650794 C 142.26789,93.004455 140.28155,89.293252 140.07937,88.888889 C 139.35829,87.446748 136.19935,88.271592 135.31746,88.492063 C 133.55694,88.932193 130.89943,88.478826 129.36508,88.095238 C 127.65647,87.668085 127.39132,85.358931 126.98413,83.730159 C 126.62083,82.276973 124.7931,81.142304 123.80952,80.15873 C 122.18307,78.532279 120.18835,79.414823 119.04762,80.555556 C 117.72351,81.879668 117.85714,82.97733 117.85714,85.31746 C 117.85714,86.635626 120.34302,88.372347 121.03175,88.888889 C 123.45048,90.702937 121.55094,91.245367 119.44444,91.666667 C 117.57024,92.041507 115.3373,92.098214 113.88889,92.460317 C 111.67527,93.013721 110.70153,93.266726 109.52381,94.444444 C 107.71455,96.253706 110.97892,98.181237 111.90476,98.412698 C 114.44592,99.047989 115.74695,98.543422 117.85714,98.015873 C 119.40627,97.62859 120.14186,96.278277 121.42857,95.634921 C 123.12264,94.787886 122.36134,95.602232 123.80952,98.015873 z"
           id="path3399" />
        <path
           style="opacity:1;fill:#ffff00;fill-opacity:1;stroke:#000000;stroke-width:2;stroke-miterlimit:4;stroke-dasharray:none;stroke-opacity:1"
           d="M 121.8254,92.063492 C 121.54207,90.110994 122.04499,89.230817 125,88.492063 C 127.34059,87.906917 128.85543,88.776061 129.7619,89.68254 C 131.29837,91.219005 130.78392,93.590893 130.15873,94.84127 C 129.81291,95.532906 126.11578,95.634921 125,95.634921 C 122.54788,95.634921 122.54415,95.657257 121.8254,92.063492 z"
           id="path3401" />
      </g>
    </g>
    <g
       id="g3337"
       transform="matrix(1.8555495,0,0,1.7951389,-346.22865,12.701478)">
      <g
         transform="matrix(0.7549481,0,0,0.7512496,182.35383,4.9581573e-2)"
         id="g7081">
        <path
           style="opacity:1;fill:#ffd5d5;fill-opacity:1;stroke:#000000;stroke-width:2;stroke-miterlimit:4;stroke-dasharray:none;stroke-opacity:1"
           d="M 116.66667,89.285713 C 112.71062,88.512697 108.73417,87.780829 104.75503,87.15318 C 102.01853,87.256017 99.488318,88.988536 97.44762,90.648298 C 96.054856,92.956952 94.882556,95.956544 95.846928,98.635426 C 97.496564,101.98585 100.858,104.43004 104.55495,105.00531 C 107.8156,105.76172 111.18495,106.56492 114.54394,106.24719 C 116.86031,104.96034 118.53136,102.56144 119.87964,100.33918 C 120.7414,97.128763 119.52227,107.11369 119.44444,108.33333 C 119.59242,111.59807 121.70236,114.53788 124.15127,116.55848 C 128.18248,119.34566 133.51934,120.10793 138.22854,118.90249 C 143.68502,116.96622 144.87185,109.07997 141.08909,105.05277 C 138.86901,102.73137 136.81635,100.22484 134.22816,98.292687 C 133.55353,96.589402 137.36551,98.388033 138.4252,98.429927 C 142.57021,99.479062 147.6131,99.858785 151.11917,96.970612 C 152.85032,95.053449 153.20575,92.271628 153.41025,89.791929 C 153.3759,86.708105 151.34064,83.79539 148.58062,82.532697 C 144.82645,81.374741 140.58856,81.388413 137.1161,83.406737 C 135.97571,83.931552 131.73043,86.432549 134.61647,84.030057 C 136.01784,80.095611 132.31798,71.448043 128.43557,69.93495 C 121.85585,67.911851 111.77728,67.674879 110.31856,77.444955 C 109.97087,81.575754 115.54471,85.524444 116.66667,89.285713 z"
           id="path7066"
           sodipodi:nodetypes="ccccccccccccccccccccc" />
        <path
           style="opacity:1;fill:#ff8080;fill-opacity:1;stroke:none;stroke-width:2;stroke-miterlimit:4;stroke-dasharray:none;stroke-opacity:1"
           d="M 123.80952,98.015873 C 123.78637,98.919892 123.4127,101.70914 123.4127,103.96825 C 123.4127,106.92579 123.36039,106.93137 125.79365,107.53968 C 127.80425,108.04233 129.50423,106.87487 130.55556,106.34921 C 132.88367,105.18515 132.93651,105.53051 132.93651,102.38095 C 132.93651,100.63471 131.794,98.741207 130.95238,97.619048 C 129.41872,95.574172 133.02716,95.116225 134.12698,94.84127 C 136.26661,94.306362 137.8417,94.111005 139.68254,93.650794 C 142.26789,93.004455 140.28155,89.293252 140.07937,88.888889 C 139.35829,87.446748 136.19935,88.271592 135.31746,88.492063 C 133.55694,88.932193 130.89943,88.478826 129.36508,88.095238 C 127.65647,87.668085 127.39132,85.358931 126.98413,83.730159 C 126.62083,82.276973 124.7931,81.142304 123.80952,80.15873 C 122.18307,78.532279 120.18835,79.414823 119.04762,80.555556 C 117.72351,81.879668 117.85714,82.97733 117.85714,85.31746 C 117.85714,86.635626 120.34302,88.372347 121.03175,88.888889 C 123.45048,90.702937 121.55094,91.245367 119.44444,91.666667 C 117.57024,92.041507 115.3373,92.098214 113.88889,92.460317 C 111.67527,93.013721 110.70153,93.266726 109.52381,94.444444 C 107.71455,96.253706 110.97892,98.181237 111.90476,98.412698 C 114.44592,99.047989 115.74695,98.543422 117.85714,98.015873 C 119.40627,97.62859 120.14186,96.278277 121.42857,95.634921 C 123.12264,94.787886 122.36134,95.602232 123.80952,98.015873 z"
           id="path7069" />
        <path
           style="opacity:1;fill:#ffff00;fill-opacity:1;stroke:#000000;stroke-width:2;stroke-miterlimit:4;stroke-dasharray:none;stroke-opacity:1"
           d="M 121.8254,92.063492 C 121.54207,90.110994 122.04499,89.230817 125,88.492063 C 127.34059,87.906917 128.85543,88.776061 129.7619,89.68254 C 131.29837,91.219005 130.78392,93.590893 130.15873,94.84127 C 129.81291,95.532906 126.11578,95.634921 125,95.634921 C 122.54788,95.634921 122.54415,95.657257 121.8254,92.063492 z"
           id="path7071" />
      </g>
      <g
         transform="matrix(-0.7549481,0,0,0.7512496,352.35915,6.9089906)"
         id="g7086">
        <path
           style="opacity:1;fill:#ffd5d5;fill-opacity:1;stroke:#000000;stroke-width:2;stroke-miterlimit:4;stroke-dasharray:none;stroke-opacity:1"
           d="M 116.66667,89.285713 C 112.71062,88.512697 108.73417,87.780829 104.75503,87.15318 C 102.01853,87.256017 99.488318,88.988536 97.44762,90.648298 C 96.054856,92.956952 94.882556,95.956544 95.846928,98.635426 C 97.496564,101.98585 100.858,104.43004 104.55495,105.00531 C 107.8156,105.76172 111.18495,106.56492 114.54394,106.24719 C 116.86031,104.96034 118.53136,102.56144 119.87964,100.33918 C 120.7414,97.128763 119.52227,107.11369 119.44444,108.33333 C 119.59242,111.59807 121.70236,114.53788 124.15127,116.55848 C 128.18248,119.34566 133.51934,120.10793 138.22854,118.90249 C 143.68502,116.96622 144.87185,109.07997 141.08909,105.05277 C 138.86901,102.73137 136.81635,100.22484 134.22816,98.292687 C 133.55353,96.589402 137.36551,98.388033 138.4252,98.429927 C 142.57021,99.479062 147.6131,99.858785 151.11917,96.970612 C 152.85032,95.053449 153.20575,92.271628 153.41025,89.791929 C 153.3759,86.708105 151.34064,83.79539 148.58062,82.532697 C 144.82645,81.374741 140.58856,81.388413 137.1161,83.406737 C 135.97571,83.931552 131.73043,86.432549 134.61647,84.030057 C 136.01784,80.095611 132.31798,71.448043 128.43557,69.93495 C 121.85585,67.911851 111.77728,67.674879 110.31856,77.444955 C 109.97087,81.575754 115.54471,85.524444 116.66667,89.285713 z"
           id="path7088"
           sodipodi:nodetypes="ccccccccccccccccccccc" />
        <path
           style="opacity:1;fill:#ff8080;fill-opacity:1;stroke:none;stroke-width:2;stroke-miterlimit:4;stroke-dasharray:none;stroke-opacity:1"
           d="M 123.80952,98.015873 C 123.78637,98.919892 123.4127,101.70914 123.4127,103.96825 C 123.4127,106.92579 123.36039,106.93137 125.79365,107.53968 C 127.80425,108.04233 129.50423,106.87487 130.55556,106.34921 C 132.88367,105.18515 132.93651,105.53051 132.93651,102.38095 C 132.93651,100.63471 131.794,98.741207 130.95238,97.619048 C 129.41872,95.574172 133.02716,95.116225 134.12698,94.84127 C 136.26661,94.306362 137.8417,94.111005 139.68254,93.650794 C 142.26789,93.004455 140.28155,89.293252 140.07937,88.888889 C 139.35829,87.446748 136.19935,88.271592 135.31746,88.492063 C 133.55694,88.932193 130.89943,88.478826 129.36508,88.095238 C 127.65647,87.668085 127.39132,85.358931 126.98413,83.730159 C 126.62083,82.276973 124.7931,81.142304 123.80952,80.15873 C 122.18307,78.532279 120.18835,79.414823 119.04762,80.555556 C 117.72351,81.879668 117.85714,82.97733 117.85714,85.31746 C 117.85714,86.635626 120.34302,88.372347 121.03175,88.888889 C 123.45048,90.702937 121.55094,91.245367 119.44444,91.666667 C 117.57024,92.041507 115.3373,92.098214 113.88889,92.460317 C 111.67527,93.013721 110.70153,93.266726 109.52381,94.444444 C 107.71455,96.253706 110.97892,98.181237 111.90476,98.412698 C 114.44592,99.047989 115.74695,98.543422 117.85714,98.015873 C 119.40627,97.62859 120.14186,96.278277 121.42857,95.634921 C 123.12264,94.787886 122.36134,95.602232 123.80952,98.015873 z"
           id="path7090" />
        <path
           style="opacity:1;fill:#ffff00;fill-opacity:1;stroke:#000000;stroke-width:2;stroke-miterlimit:4;stroke-dasharray:none;stroke-opacity:1"
           d="M 121.8254,92.063492 C 121.54207,90.110994 122.04499,89.230817 125,88.492063 C 127.34059,87.906917 128.85543,88.776061 129.7619,89.68254 C 131.29837,91.219005 130.78392,93.590893 130.15873,94.84127 C 129.81291,95.532906 126.11578,95.634921 125,95.634921 C 122.54788,95.634921 122.54415,95.657257 121.8254,92.063492 z"
           id="path7092" />
      </g>
      <g
         transform="matrix(0.671603,-0.3448131,0.3431238,0.6683128,152.04634,75.882776)"
         id="g7094">
        <path
           style="opacity:1;fill:#ffd5d5;fill-opacity:1;stroke:#000000;stroke-width:2;stroke-miterlimit:4;stroke-dasharray:none;stroke-opacity:1"
           d="M 116.66667,89.285713 C 112.71062,88.512697 108.73417,87.780829 104.75503,87.15318 C 102.01853,87.256017 99.488318,88.988536 97.44762,90.648298 C 96.054856,92.956952 94.882556,95.956544 95.846928,98.635426 C 97.496564,101.98585 100.858,104.43004 104.55495,105.00531 C 107.8156,105.76172 111.18495,106.56492 114.54394,106.24719 C 116.86031,104.96034 118.53136,102.56144 119.87964,100.33918 C 120.7414,97.128763 119.52227,107.11369 119.44444,108.33333 C 119.59242,111.59807 121.70236,114.53788 124.15127,116.55848 C 128.18248,119.34566 133.51934,120.10793 138.22854,118.90249 C 143.68502,116.96622 144.87185,109.07997 141.08909,105.05277 C 138.86901,102.73137 136.81635,100.22484 134.22816,98.292687 C 133.55353,96.589402 137.36551,98.388033 138.4252,98.429927 C 142.57021,99.479062 147.6131,99.858785 151.11917,96.970612 C 152.85032,95.053449 153.20575,92.271628 153.41025,89.791929 C 153.3759,86.708105 151.34064,83.79539 148.58062,82.532697 C 144.82645,81.374741 140.58856,81.388413 137.1161,83.406737 C 135.97571,83.931552 131.73043,86.432549 134.61647,84.030057 C 136.01784,80.095611 132.31798,71.448043 128.43557,69.93495 C 121.85585,67.911851 111.77728,67.674879 110.31856,77.444955 C 109.97087,81.575754 115.54471,85.524444 116.66667,89.285713 z"
           id="path7096"
           sodipodi:nodetypes="ccccccccccccccccccccc" />
        <path
           style="opacity:1;fill:#ff8080;fill-opacity:1;stroke:none;stroke-width:2;stroke-miterlimit:4;stroke-dasharray:none;stroke-opacity:1"
           d="M 123.80952,98.015873 C 123.78637,98.919892 123.4127,101.70914 123.4127,103.96825 C 123.4127,106.92579 123.36039,106.93137 125.79365,107.53968 C 127.80425,108.04233 129.50423,106.87487 130.55556,106.34921 C 132.88367,105.18515 132.93651,105.53051 132.93651,102.38095 C 132.93651,100.63471 131.794,98.741207 130.95238,97.619048 C 129.41872,95.574172 133.02716,95.116225 134.12698,94.84127 C 136.26661,94.306362 137.8417,94.111005 139.68254,93.650794 C 142.26789,93.004455 140.28155,89.293252 140.07937,88.888889 C 139.35829,87.446748 136.19935,88.271592 135.31746,88.492063 C 133.55694,88.932193 130.89943,88.478826 129.36508,88.095238 C 127.65647,87.668085 127.39132,85.358931 126.98413,83.730159 C 126.62083,82.276973 124.7931,81.142304 123.80952,80.15873 C 122.18307,78.532279 120.18835,79.414823 119.04762,80.555556 C 117.72351,81.879668 117.85714,82.97733 117.85714,85.31746 C 117.85714,86.635626 120.34302,88.372347 121.03175,88.888889 C 123.45048,90.702937 121.55094,91.245367 119.44444,91.666667 C 117.57024,92.041507 115.3373,92.098214 113.88889,92.460317 C 111.67527,93.013721 110.70153,93.266726 109.52381,94.444444 C 107.71455,96.253706 110.97892,98.181237 111.90476,98.412698 C 114.44592,99.047989 115.74695,98.543422 117.85714,98.015873 C 119.40627,97.62859 120.14186,96.278277 121.42857,95.634921 C 123.12264,94.787886 122.36134,95.602232 123.80952,98.015873 z"
           id="path7098" />
        <path
           style="opacity:1;fill:#ffff00;fill-opacity:1;stroke:#000000;stroke-width:2;stroke-miterlimit:4;stroke-dasharray:none;stroke-opacity:1"
           d="M 121.8254,92.063492 C 121.54207,90.110994 122.04499,89.230817 125,88.492063 C 127.34059,87.906917 128.85543,88.776061 129.7619,89.68254 C 131.29837,91.219005 130.78392,93.590893 130.15873,94.84127 C 129.81291,95.532906 126.11578,95.634921 125,95.634921 C 122.54788,95.634921 122.54415,95.657257 121.8254,92.063492 z"
           id="path7100" />
      </g>
    </g>
    <g
       id="g4227"
       transform="matrix(2.2075519,-0.5085842,0.4740159,1.9935807,-595.87436,35.364577)">
      <path
         sodipodi:nodetypes="ccc"
         id="path4575"
         d="M 306.8057,101.98039 C 306.70552,99.899381 307.32702,98.127661 308.70684,96.59383 C 310.23369,95.233845 312.12848,94.901889 314.0934,94.851117"
         style="opacity:1;fill:none;fill-opacity:0.24418604;stroke:#000000;stroke-width:2;stroke-miterlimit:4;stroke-dasharray:none;stroke-opacity:1" />
      <path
         sodipodi:nodetypes="ccc"
         id="path4365"
         d="M 301.1277,89.826799 C 282.73573,88.471974 270.03882,104.4849 267.85395,102.32235 C 272.74487,91.652704 285.98417,85.288833 301.1277,89.826799 z"
         style="opacity:1;fill:#ffffff;fill-opacity:0.14534882;stroke:none;stroke-width:2;stroke-miterlimit:4;stroke-dasharray:none;stroke-opacity:1" />
      <path
         sodipodi:nodetypes="ccccc"
         id="path4469"
         d="M 275.48792,124.02171 C 278.84396,120.75548 282.12071,117.37524 285.94347,114.64996 C 290.31531,111.64 286.85382,107.66727 282.57699,109.33362 C 278.35892,109.78287 268.31588,116.16521 265.23648,122.2343 C 261.64387,134.80905 270.79887,128.09077 275.48792,124.02171 z"
         style="opacity:1;fill:#502d16;fill-opacity:1;stroke:#000000;stroke-width:2;stroke-miterlimit:4;stroke-dasharray:none;stroke-opacity:1" />
      <path
         sodipodi:nodetypes="ccccc"
         id="path4471"
         d="M 291.38982,103.65088 C 289.36155,104.00739 287.48482,105.40767 286.75603,107.33808 C 286.25786,109.6355 288.99829,110.80683 290.88936,110.618 C 294.14511,110.21707 301.62067,108.94118 300.29985,104.35689 C 298.63492,101.65658 293.92701,102.81332 291.38982,103.65088 z"
         style="opacity:1;fill:#502d16;fill-opacity:1;stroke:#000000;stroke-width:2;stroke-miterlimit:4;stroke-dasharray:none;stroke-opacity:1" />
      <path
         sodipodi:nodetypes="ccc"
         id="path4473"
         d="M 304.63606,101.86082 C 301.10001,101.32648 298.43265,104.32617 301.53482,106.65319 C 305.76561,109.03018 310.69912,102.47922 304.63606,101.86082 z"
         style="opacity:1;fill:#502d16;fill-opacity:1;stroke:#000000;stroke-width:1.89135873;stroke-miterlimit:4;stroke-dasharray:none;stroke-opacity:1" />
      <path
         sodipodi:nodetypes="ccc"
         id="path4581"
         d="M 307.43941,103.88154 C 307.53259,103.23799 308.08502,101.9685 308.54841,101.50511 C 310.38886,99.35304 312.81406,98.851652 315.51926,98.970256"
         style="opacity:1;fill:none;fill-opacity:0.24418604;stroke:#000000;stroke-width:2;stroke-miterlimit:4;stroke-dasharray:none;stroke-opacity:1" />
      <path
         id="path4496"
         d="M 298.55499,108.30824 C 299.13506,108.31577 300.35233,108.59077 301.13158,108.9804 C 301.73769,109.28345 302.05951,110.1641 302.36387,110.77281"
         style="opacity:1;fill:none;fill-opacity:1;stroke:#000000;stroke-width:2;stroke-miterlimit:4;stroke-dasharray:none;stroke-opacity:1" />
      <path
         id="path4498"
         d="M 295.75435,110.32471 C 295.91979,110.65559 296.34493,111.39385 296.53853,111.78104 C 296.80158,112.30716 297.06813,112.55516 297.21068,113.12535 C 297.32859,113.59698 297.43473,113.70459 297.43473,114.24561"
         style="opacity:1;fill:none;fill-opacity:1;stroke:#000000;stroke-width:2;stroke-miterlimit:4;stroke-dasharray:none;stroke-opacity:1" />
      <path
         id="path4500"
         d="M 291.72142,111.22091 C 291.83156,111.6615 292.143,112.65665 292.28155,113.3494 C 292.41941,114.03873 292.28889,114.32827 292.16952,114.80574 C 292.09594,115.10005 292.03349,115.30186 291.94547,115.47789"
         style="opacity:1;fill:none;fill-opacity:1;stroke:#000000;stroke-width:2;stroke-miterlimit:4;stroke-dasharray:none;stroke-opacity:1" />
      <path
         sodipodi:nodetypes="czzzzz"
         id="path4521"
         d="M 293.54223,95.073714 C 293.59993,90.258468 294.76799,85.473543 287.77745,81.898478 C 280.78692,78.323412 268.46876,89.946556 268.57155,96.651823 C 268.67433,103.35709 274.5061,103.40776 278.09697,104.1351 C 281.68784,104.86244 284.39763,105.28439 287.9085,104.29024 C 291.41938,103.29608 293.48452,99.888961 293.54223,95.073714 z"
         style="opacity:1;fill:#892ca0;fill-opacity:1;stroke:#000000;stroke-width:2;stroke-miterlimit:4;stroke-dasharray:none;stroke-opacity:1" />
      <path
         sodipodi:nodetypes="czzzzz"
         id="path4510"
         d="M 298.12374,97.545496 C 298.18144,92.73025 299.3495,87.945325 292.35896,84.37026 C 285.36843,80.795194 273.05027,92.418338 273.15306,99.123605 C 273.25584,105.82887 279.08761,105.87954 282.67848,106.60688 C 286.26935,107.33422 288.97914,107.75617 292.49001,106.76202 C 296.00089,105.76786 298.06603,102.36074 298.12374,97.545496 z"
         style="opacity:1;fill:#aa00d4;fill-opacity:1;stroke:#000000;stroke-width:2;stroke-miterlimit:4;stroke-dasharray:none;stroke-opacity:1" />
      <path
         sodipodi:nodetypes="cssss"
         id="path4523"
         d="M 257.4006,110.6138 C 261.19496,113.08394 266.99188,111.37493 271.58942,109.85232 C 275.51572,108.55201 280.72863,108.88537 283.38694,105.91054 C 289.47802,99.094198 276.95462,94.484538 270.94335,92.856959 C 262.32763,90.524216 249.27829,105.32617 257.4006,110.6138 z"
         style="opacity:1;fill:#892ca0;fill-opacity:1;stroke:#000000;stroke-width:2;stroke-miterlimit:4;stroke-dasharray:none;stroke-opacity:1" />
      <path
         sodipodi:nodetypes="cssss"
         id="path4512"
         d="M 261.98211,113.08559 C 265.77648,115.55573 271.57339,113.84672 276.17093,112.32411 C 280.09723,111.0238 285.31014,111.35716 287.96845,108.38232 C 294.05953,101.56598 281.53613,96.95632 275.52486,95.328741 C 266.90915,92.995998 253.8598,107.79796 261.98211,113.08559 z"
         style="opacity:1;fill:#aa00d4;fill-opacity:1;stroke:#000000;stroke-width:2;stroke-miterlimit:4;stroke-dasharray:none;stroke-opacity:1" />
      <path
         id="path4525"
         d="M 268.42171,102.37305 C 265.70375,102.12688 264.35404,105.63913 265.01073,107.92119 C 266.03464,110.5512 269.23316,110.52933 271.55552,110.42241 C 274.00609,110.57091 274.90375,107.67298 273.81385,105.80452 C 272.85407,103.71891 270.64926,102.41572 268.42171,102.37305 z"
         style="opacity:1;fill:#4400aa;fill-opacity:1;stroke:#000000;stroke-width:1.83664691;stroke-miterlimit:4;stroke-dasharray:none;stroke-opacity:1" />
      <path
         sodipodi:nodetypes="ccccccc"
         id="path4536"
         d="M 290.72522,89.464551 C 289.57486,90.519032 289.03162,92.10725 288.99845,93.639602 C 289.02892,95.626162 289.82995,96.140119 291.6204,96.630554 C 292.30289,96.837681 292.92329,96.389322 293.32048,95.875255 C 294.32381,94.62857 294.46281,92.889335 294.16843,91.368738 C 293.98721,90.794094 294.143,90.075555 293.62455,89.649914 C 292.45902,88.793826 291.86469,88.728361 290.72522,89.464551 z"
         style="opacity:1;fill:#4400aa;fill-opacity:1;stroke:#000000;stroke-width:2;stroke-miterlimit:4;stroke-dasharray:none;stroke-opacity:1" />
      <path
         sodipodi:nodetypes="cccccc"
         id="path4540"
         d="M 274.12657,96.996952 C 273.48008,96.86238 271.06492,97.898314 270.44099,98.067182 C 269.00741,98.566446 267.95995,99.593087 266.96791,100.6905 C 267.63197,100.6662 268.24104,100.35023 268.85333,100.09739 C 269.99213,99.612473 272.93707,98.429477 274.10116,98.02045 C 274.70744,97.834267 275.38453,96.706353 274.12657,96.996952 z"
         style="opacity:1;fill:#ffffff;fill-opacity:0.34883722;stroke:none;stroke-width:2;stroke-miterlimit:4;stroke-dasharray:none;stroke-opacity:1" />
      <path
         sodipodi:nodetypes="ccc"
         id="path4543"
         d="M 289.93307,86.216771 C 286.65911,85.117195 277.418,90.708281 279.90094,93.323492 C 281.53248,89.945495 288.03548,88.012366 289.93307,86.216771 z"
         style="opacity:1;fill:#ffffff;fill-opacity:0.36627909;stroke:none;stroke-width:2;stroke-miterlimit:4;stroke-dasharray:none;stroke-opacity:1" />
      <path
         sodipodi:nodetypes="ccc"
         id="path4550"
         d="M 282.88301,83.127415 C 280.03901,83.971046 276.54785,86.202393 274.12459,88.845031 C 271.02329,91.832824 281.12942,84.359499 282.88301,83.127415 z"
         style="opacity:1;fill:#ffffff;fill-opacity:0.29069764;stroke:none;stroke-width:2;stroke-miterlimit:4;stroke-dasharray:none;stroke-opacity:1" />
      <path
         sodipodi:nodetypes="ccc"
         id="path4558"
         d="M 267.04874,95.001356 C 262.90376,95.8284 258.52692,99.550378 257.82918,103.85806 C 259.80118,100.0406 261.03822,99.021866 267.04874,95.001356 z"
         style="opacity:1;fill:#ffffff;fill-opacity:0.24418604;stroke:none;stroke-width:2;stroke-miterlimit:4;stroke-dasharray:none;stroke-opacity:1" />
      <path
         id="path4568"
         d="M 275.53787,116.12756 C 271.48893,116.60061 268.74727,120.29151 267.55741,123.92684 C 267.38254,125.32957 269.88117,123.27436 270.33851,122.68987 C 272.01851,120.62692 274.16849,118.8984 275.59312,116.6625 C 275.64625,116.47798 275.58025,116.30586 275.53787,116.12756 z"
         style="opacity:1;fill:#ffffff;fill-opacity:0.24418604;stroke:none;stroke-width:2;stroke-miterlimit:4;stroke-dasharray:none;stroke-opacity:1" />
      <path
         sodipodi:nodetypes="cccc"
         id="path4583"
         d="M 304.82533,103.40625 C 303.80023,102.8511 302.94054,103.21389 301.94641,103.59334 C 302.35981,104.59825 303.82767,103.88779 304.85915,103.5855 C 304.85084,103.52518 304.83423,103.46645 304.82533,103.40625 z"
         style="opacity:1;fill:#ffffff;fill-opacity:0.24418604;stroke:none;stroke-width:2;stroke-miterlimit:4;stroke-dasharray:none;stroke-opacity:1" />
      <path
         sodipodi:nodetypes="ccccc"
         id="path4590"
         d="M 284.70494,112.83274 C 280.76868,115.28084 277.80587,118.91155 274.68976,122.27242 C 274.02084,122.34689 275.35584,121.11032 275.59386,120.73836 C 277.80099,117.82963 279.92478,114.79581 283.18034,112.98275 C 283.66568,112.81084 284.19528,112.7345 284.70494,112.83274 z"
         style="opacity:1;fill:#000000;fill-opacity:0.24418604;stroke:none;stroke-width:2;stroke-miterlimit:4;stroke-dasharray:none;stroke-opacity:1" />
      <path
         id="path4601"
         d="M 297.9337,106.33718 C 297.99619,106.89032 297.17383,106.84515 296.84782,107.12582 C 296.02135,107.53412 295.21128,108.02116 294.28348,108.15811 C 293.89849,108.17704 293.25802,108.51445 293.04854,108.37878 C 293.4385,107.85639 294.16032,107.82672 294.68147,107.49218 C 295.26918,107.17297 295.90306,106.95142 296.50056,106.65019 C 296.9687,106.53049 297.43405,106.22887 297.9337,106.33718 z"
         style="opacity:1;fill:#000000;fill-opacity:0.24418604;stroke:none;stroke-width:2;stroke-miterlimit:4;stroke-dasharray:none;stroke-opacity:1" />
      <path
         id="path4608"
         d="M 305.53827,104.83211 C 305.47075,105.07572 305.26,105.24137 305.11981,105.44267 C 304.80694,105.81568 304.30402,105.93077 303.8455,106.0066 C 303.44743,106.05589 303.01012,106.00668 302.70103,105.72733 C 302.37279,105.52976 302.66185,105.22754 302.93871,105.22576 C 303.49939,105.11316 304.08052,105.17336 304.63952,105.04149 C 304.94194,104.98459 305.24077,104.91037 305.53827,104.83211 z"
         style="opacity:1;fill:#000000;fill-opacity:0.24418604;stroke:none;stroke-width:2;stroke-miterlimit:4;stroke-dasharray:none;stroke-opacity:1" />
      <path
         id="path4616"
         d="M 287.47743,104.43603 C 287.79455,107.10628 284.80821,108.47432 282.65676,109.03678 C 280.97993,109.52947 277.83802,110.18491 276.85516,109.71371 C 279.40226,109.11756 281.22987,107.12727 283.3546,105.71226 C 284.25093,105.05747 286.65154,102.90393 287.47743,104.43603 z"
         style="opacity:1;fill:#000000;fill-opacity:0.24418604;stroke:none;stroke-width:2;stroke-miterlimit:4;stroke-dasharray:none;stroke-opacity:1" />
      <path
         id="path4625"
         d="M 291.59657,102.77253 C 291.01235,104.17354 292.7555,105.20695 293.71199,103.97794 C 295.07716,102.97878 295.87566,101.33251 296.12478,99.69358 C 295.51729,99.04532 294.84295,101.00147 294.13179,101.35279 C 293.34523,101.91268 292.44428,102.31043 291.59657,102.77253 z"
         style="opacity:1;fill:#000000;fill-opacity:0.24418604;stroke:none;stroke-width:2;stroke-miterlimit:4;stroke-dasharray:none;stroke-opacity:1" />
      <path
         sodipodi:nodetypes="ccccc"
         id="path4633"
         d="M 268.54524,104.11918 C 267.24154,104.33931 267.03279,104.80534 266.731,105.88222 C 266.74301,106.45938 266.50054,107.01771 266.56209,107.5967 C 267.87192,106.43886 270.44967,105.18902 269.78489,104.36114 C 269.42623,104.0533 268.96424,104.1753 268.54524,104.11918 z"
         style="opacity:1;fill:#ffffff;fill-opacity:0.4534884;stroke:none;stroke-width:2;stroke-miterlimit:4;stroke-dasharray:none;stroke-opacity:1" />
      <path
         id="path4644"
         d="M 291.12129,92.633122 C 291.04111,92.277153 291.21244,91.928956 291.32093,91.598079 C 291.45333,91.254008 291.81206,91.054364 292.1682,91.042913 C 292.5259,91.064309 292.53365,91.526773 292.54714,91.796543 C 292.57151,92.081909 292.4865,92.425531 292.18188,92.52462 C 291.8394,92.64559 291.46938,92.546759 291.12129,92.633122 z"
         style="opacity:1;fill:#ffffff;fill-opacity:0.49418604;stroke:none;stroke-width:2;stroke-miterlimit:4;stroke-dasharray:none;stroke-opacity:1" />
    </g>
  </g>
</svg>
