<?xml version="1.0" encoding="UTF-8" standalone="no"?>
<!-- Created with Inkscape (http://www.inkscape.org/) -->
<svg
   xmlns:dc="http://purl.org/dc/elements/1.1/"
   xmlns:cc="http://creativecommons.org/ns#"
   xmlns:rdf="http://www.w3.org/1999/02/22-rdf-syntax-ns#"
   xmlns:svg="http://www.w3.org/2000/svg"
   xmlns="http://www.w3.org/2000/svg"
   xmlns:sodipodi="http://sodipodi.sourceforge.net/DTD/sodipodi-0.dtd"
   xmlns:inkscape="http://www.inkscape.org/namespaces/inkscape"
   width="250"
   height="250"
   id="svg2"
   sodipodi:version="0.32"
   inkscape:version="0.46"
   sodipodi:docname="butterflyaward1.svg"
   inkscape:output_extension="org.inkscape.output.svg.inkscape"
   inkscape:export-filename="P:\pidgey2\data\images\butterflyaward1.png"
   inkscape:export-xdpi="92.160004"
   inkscape:export-ydpi="92.160004"
   version="1.0">
  <defs
     id="defs4">
    <inkscape:perspective
       sodipodi:type="inkscape:persp3d"
       inkscape:vp_x="0 : 125 : 1"
       inkscape:vp_y="0 : 1000 : 0"
       inkscape:vp_z="250 : 125 : 1"
       inkscape:persp3d-origin="125 : 83.333333 : 1"
       id="perspective3645" />
  </defs>
  <sodipodi:namedview
     id="base"
     pagecolor="#cb90ff"
     bordercolor="#666666"
     borderopacity="1.0"
     gridtolerance="10000"
     guidetolerance="10"
     objecttolerance="10"
     inkscape:pageopacity="0"
     inkscape:pageshadow="2"
     inkscape:zoom="2.231629"
     inkscape:cx="125.30157"
     inkscape:cy="150.34854"
     inkscape:document-units="px"
     inkscape:current-layer="layer1"
     showgrid="false"
     inkscape:window-width="1680"
     inkscape:window-height="994"
     inkscape:window-x="-4"
     inkscape:window-y="-4" />
  <metadata
     id="metadata7">
    <rdf:RDF>
      <cc:Work
         rdf:about="">
        <dc:format>image/svg+xml</dc:format>
        <dc:type
           rdf:resource="http://purl.org/dc/dcmitype/StillImage" />
      </cc:Work>
    </rdf:RDF>
  </metadata>
  <g
     inkscape:label="Layer 1"
     inkscape:groupmode="layer"
     id="layer1">
    <path
       style="opacity:1;fill:#5f8dd3;fill-opacity:1;stroke:#000000;stroke-width:2.75859736999999990;stroke-miterlimit:4;stroke-dasharray:none;stroke-opacity:1"
       d="M 110.38839,144.88708 C 111.2806,186.77071 106.84969,210.21218 97.14606,243.85283 C 106.0481,233.5837 117.00036,236.83113 126.74881,227.37672 C 139.29557,243.40721 154.58724,240.64699 157.41608,246.15629 C 153.83,235.00559 143.98267,176.51987 147.71147,143.09425 C 142.69775,144.50943 115.2209,142.9642 110.38839,144.88708 z"
       id="path3306"
       sodipodi:nodetypes="cccccc"
       inkscape:transform-center-x="4.4332338"
       inkscape:transform-center-y="7.6574057" />
    <path
       style="opacity:1;fill:#5f8dd3;fill-opacity:1;stroke:#000000;stroke-width:2.75859736999999990;stroke-miterlimit:4;stroke-dasharray:none;stroke-opacity:1"
       d="M 78.947599,131.80067 C 63.846975,170.87759 50.835505,190.87353 29.069241,218.29766 C 41.207358,212.18477 53.378908,217.24859 65.990077,212.21105 C 71.499003,231.80825 83.414899,237.17403 83.936405,243.34515 C 84.859611,231.66843 97.990521,173.83134 114.14899,144.33422 C 108.97375,143.73669 84.148279,131.85973 78.947599,131.80067 z"
       id="path3304"
       sodipodi:nodetypes="cccccc" />
    <path
       style="opacity:1;fill:#5f8dd3;fill-opacity:1;stroke:#000000;stroke-width:2.75859736999999990;stroke-miterlimit:4;stroke-dasharray:none;stroke-opacity:1"
       d="M 176.65201,130.69112 C 191.75263,169.76805 204.7641,189.76399 226.53036,217.18811 C 214.39225,211.07523 204.63882,218.9602 192.02766,213.92267 C 186.51873,233.51985 172.18471,236.06448 171.6632,242.23561 C 170.74,230.55889 157.60909,172.7218 141.45061,143.22468 C 146.62586,142.62714 171.45132,130.75019 176.65201,130.69112 z"
       id="path3274"
       sodipodi:nodetypes="cccccc" />
    <path
       style="fill:#80b3ff;fill-opacity:1;stroke:#000000;stroke-width:2.75859736999999990;stroke-miterlimit:4;stroke-dasharray:none;stroke-opacity:1"
       d="M 88.052529,68.57116 C 85.663109,64.722963 83.464723,60.580742 80.203088,57.498246 C 73.836182,52.986489 65.821509,52.586815 59.24437,48.504498 C 56.153538,46.683204 52.742863,43.379847 53.312536,39.23953 C 54.359424,34.8476 58.468528,32.641075 61.241617,29.624523 C 67.874501,24.547997 74.359202,19.19468 81.500021,14.944303 C 84.058508,12.634717 87.408245,10.110411 90.870855,11.857295 C 97.312302,13.280982 103.57652,20.600289 105.76241,26.351213 C 109.20624,33.300485 113.31835,38.324452 114.19834,46.598671 C 114.90587,53.898289 110.61718,61.510999 103.933,63.621292 C 100.32325,64.439339 91.407539,69.273932 88.052529,68.57116 z"
       id="path3173"
       sodipodi:nodetypes="ccccccccccc" />
    <path
       style="fill:#3771c8;fill-opacity:0.75000000000000000;stroke:#000000;stroke-width:2.75859736999999990;stroke-miterlimit:4;stroke-dasharray:none;stroke-opacity:1"
       d="M 95.163837,51.788041 C 92.14952,48.678756 88.746927,45.910534 86.406947,42.1381 C 85.138097,40.62772 83.686489,39.0923 83.281003,37.028972 C 82.419735,35.746269 83.302027,33.327607 84.940924,33.683335 C 86.386392,33.93685 87.889199,34.125673 89.223093,34.853746 C 90.459313,35.538711 91.648404,36.329707 92.77618,37.202708 C 94.560454,38.669693 95.401417,40.983914 96.389317,43.065259 C 101.65875,57.725045 111.8091,70.747671 95.163837,51.788041 z"
       id="path3175"
       sodipodi:nodetypes="cccccccc" />
    <path
       style="fill:#80b3ff;fill-opacity:1;stroke:#000000;stroke-width:2.75859736999999990;stroke-miterlimit:4;stroke-dasharray:none;stroke-opacity:1"
       d="M 115.39908,54.930827 C 115.74348,50.324832 116.40784,45.61416 115.62444,41.032744 C 113.22581,33.272832 107.15717,27.65446 104.34527,20.092945 C 102.96776,16.615867 102.1948,11.762219 105.03371,8.8849877 C 108.39303,6.1258192 112.89708,7.1109792 116.81886,6.5752703 C 124.96408,6.9749172 133.1527,7.0589326 141.22007,8.4440866 C 144.56487,8.3220207 148.65559,8.5548413 150.36829,12.219488 C 154.609,17.60154 155.30548,27.500204 153.70222,33.467029 C 152.39562,41.208272 152.72619,47.878514 148.63925,54.964372 C 144.9796,61.170049 137.21215,64.315251 130.73969,61.550225 C 127.43001,59.804212 117.63021,57.703602 115.39908,54.930827 z"
       id="path3192"
       sodipodi:nodetypes="ccccccccccc" />
    <path
       style="fill:#3771c8;fill-opacity:0.75000000000000000;stroke:#000000;stroke-width:2.75859736999999990;stroke-miterlimit:4;stroke-dasharray:none;stroke-opacity:1"
       d="M 129.10052,45.114809 C 128.527,40.676019 127.45133,36.248336 127.79083,31.734608 C 127.66582,29.707716 127.41162,27.540193 128.28455,25.650083 C 128.3484,24.071887 130.43873,22.754761 131.52144,24.119003 C 132.51115,25.274901 133.5833,26.417894 134.21123,27.872944 C 134.7873,29.229467 135.26509,30.638142 135.64732,32.070688 C 136.20252,34.404587 135.52697,36.780102 135.10142,39.06983 C 130.77665,54.079678 131.23375,71.032995 129.10052,45.114809 z"
       id="path3194"
       sodipodi:nodetypes="cccccccc" />
    <path
       style="fill:#80b3ff;fill-opacity:1;stroke:#000000;stroke-width:2.75859736999999990;stroke-miterlimit:4;stroke-dasharray:none;stroke-opacity:1"
       d="M 147.85436,61.141076 C 150.31947,57.347991 150.20152,52.747398 151.68086,48.367353 C 153.26071,40.370525 153.57118,33.13409 154.70067,25.08578 C 155.14707,21.339293 156.76352,16.729704 160.56992,15.775246 C 164.7703,15.203424 168.19741,18.483414 171.83729,20.135614 C 178.68533,24.873464 185.71939,29.362055 192.03637,34.909218 C 194.98316,36.607581 198.4073,39.014775 198.16217,43.104054 C 199.29259,50.040202 195.23587,58.966601 191.04289,63.25633 C 186.27112,69.238836 183.41762,75.179089 176.55251,79.096046 C 170.47076,82.483114 162.28083,81.011161 157.99094,75.132121 C 155.95363,71.83899 148.47679,64.739509 147.85436,61.141076 z"
       id="path3196"
       sodipodi:nodetypes="ccccccccccc"
       inkscape:transform-center-x="-6.4046617"
       inkscape:transform-center-y="3.7155259" />
    <path
       style="fill:#3771c8;fill-opacity:0.75000000000000000;stroke:#000000;stroke-width:2.75859736999999990;stroke-miterlimit:4;stroke-dasharray:none;stroke-opacity:1"
       d="M 164.3096,60.050684 C 165.90312,55.907022 167.05761,51.502147 169.47508,47.78613 C 170.32095,45.967815 171.12142,43.958348 172.76498,42.796367 C 173.56284,41.467507 175.9884,41.457017 176.28165,43.219385 C 176.59264,44.751628 176.98087,46.317177 176.83857,47.912736 C 176.69779,49.395211 176.4476,50.869738 176.10361,52.313353 C 175.48485,54.62886 173.78335,56.316592 172.33819,58.06504 C 161.53856,68.698749 153.95507,83.590094 164.3096,60.050684 z"
       id="path3198"
       sodipodi:nodetypes="cccccccc"
       inkscape:transform-center-x="-2.3686475"
       inkscape:transform-center-y="10.487483" />
    <path
       style="fill:#80b3ff;fill-opacity:1;stroke:#000000;stroke-width:2.75859736999999990;stroke-miterlimit:4;stroke-dasharray:none;stroke-opacity:1"
       d="M 82.757659,92.760588 C 78.456399,92.372882 74.058685,91.642224 69.775724,92.46187 C 62.516902,94.997478 57.243424,101.47058 50.168224,104.4494 C 46.914427,105.90961 42.377206,106.71697 39.701183,103.66608 C 37.1376,100.0586 38.076509,95.241203 37.592292,91.040821 C 37.9993,82.323196 38.111643,73.557829 39.438936,64.92764 C 39.338739,61.34661 39.573138,56.968542 43.003545,55.150297 C 48.048707,50.632979 57.298401,49.928335 62.865667,51.669245 C 70.091729,53.099944 76.324087,52.773651 82.926432,57.177928 C 88.708316,61.12115 91.614283,69.449021 89.004578,76.3662 C 87.359861,79.901912 85.357063,90.383686 82.757659,92.760588 z"
       id="path3200"
       sodipodi:nodetypes="ccccccccccc"
       inkscape:transform-center-x="-3.2859731"
       inkscape:transform-center-y="-5.5234569" />
    <path
       style="fill:#3771c8;fill-opacity:0.75000000000000000;stroke:#000000;stroke-width:2.75859736999999990;stroke-miterlimit:4;stroke-dasharray:none;stroke-opacity:1"
       d="M 73.644696,80.20587 C 69.495838,80.801449 65.35528,81.934624 61.140199,81.552529 C 59.246266,81.677978 57.220423,81.941127 55.458394,80.998867 C 53.984391,80.923985 52.76264,78.680892 54.04152,77.527519 C 55.125391,76.472825 56.197552,75.329856 57.559377,74.663675 C 58.82895,74.052615 60.146837,73.54697 61.486632,73.143732 C 63.669132,72.559064 65.885421,73.292042 68.022604,73.757051 C 82.02614,78.448671 97.864933,78.029453 73.644696,80.20587 z"
       id="path3202"
       sodipodi:nodetypes="cccccccc"
       inkscape:transform-center-x="-8.2123465"
       inkscape:transform-center-y="-7.8918761" />
    <path
       style="fill:#80b3ff;fill-opacity:1;stroke:#000000;stroke-width:2.75859736999999990;stroke-miterlimit:4;stroke-dasharray:none;stroke-opacity:1"
       d="M 169.11667,113.36306 C 172.29695,116.4873 176.60408,118.16669 180.46006,120.32403 C 188.50655,121.24099 194.42437,122.86812 201.57377,125.46642 C 204.98197,126.44296 209.03203,128.77655 209.40451,132.94251 C 209.36989,137.47501 205.87348,140.67011 203.85535,144.30942 C 198.55012,150.93769 193.45063,157.79672 187.46752,163.75296 C 185.49971,166.65087 182.81165,169.95998 179.05912,169.15092 C 172.48658,169.41881 164.76809,163.91699 161.36005,158.89317 C 156.46272,153.02808 151.34695,149.20356 148.64275,141.39522 C 146.32388,134.48897 148.78607,125.99878 154.80425,122.23742 C 158.12622,120.51839 165.70203,113.5402 169.11667,113.36306 z"
       id="path3204"
       sodipodi:nodetypes="ccccccccccc" />
    <path
       style="fill:#3771c8;fill-opacity:0.75000000000000000;stroke:#000000;stroke-width:2.75859736999999990;stroke-miterlimit:4;stroke-dasharray:none;stroke-opacity:1"
       d="M 167.91674,130.96506 C 171.53858,133.21178 175.46115,135.02788 178.5765,138.09122 C 180.14613,139.23264 181.89881,140.35157 182.75379,142.25107 C 183.8768,143.27584 183.56085,145.85025 181.89005,145.92473 C 180.42992,146.04889 178.92856,146.25054 177.47067,145.88535 C 176.11722,145.53699 174.78587,145.0736 173.49569,144.51489 C 171.43531,143.54765 170.10142,141.51611 168.67692,139.74833 C 160.28329,126.86448 147.51657,116.82063 167.91674,130.96506 z"
       id="path3206"
       sodipodi:nodetypes="cccccccc" />
    <path
       style="fill:#80b3ff;fill-opacity:1;stroke:#000000;stroke-width:2.75859736999999990;stroke-miterlimit:4;stroke-dasharray:none;stroke-opacity:1"
       d="M 147.15135,133.54237 C 147.84668,138.10277 148.25473,142.84675 150.03957,147.09435 C 154.10332,154.01427 161.25164,157.91468 165.67228,164.53612 C 167.78709,167.55924 169.62267,172.07384 167.50948,175.59475 C 164.86461,179.13436 160.2712,179.3317 156.58316,180.85654 C 148.58525,182.55518 140.6158,184.5714 132.47322,185.29324 C 129.25289,186.26864 125.22899,187.09057 122.7468,183.97117 C 117.42612,179.83191 114.53695,170.39933 114.75968,164.19515 C 114.29768,156.34413 112.48553,149.9524 114.86961,142.02543 C 117.03558,135.06253 123.87417,130.01882 130.77669,131.04536 C 134.38054,131.89275 144.36518,131.42176 147.15135,133.54237 z"
       id="path3208"
       sodipodi:nodetypes="ccccccccccc" />
    <path
       style="fill:#3771c8;fill-opacity:0.75000000000000000;stroke:#000000;stroke-width:2.75859736999999990;stroke-miterlimit:4;stroke-dasharray:none;stroke-opacity:1"
       d="M 136.04251,146.58327 C 137.59169,150.74614 139.62597,154.76959 140.30541,159.23913 C 140.87992,161.1751 141.61131,163.21452 141.1863,165.27333 C 141.47712,166.82203 139.74198,168.63639 138.38574,167.58917 C 137.16637,166.72041 135.86986,165.88529 134.93489,164.63339 C 134.07229,163.46387 133.29345,162.21853 132.60208,160.92553 C 131.54125,158.80169 131.6661,156.32213 131.5674,153.98992 C 132.4109,138.30829 128.17705,121.96472 136.04251,146.58327 z"
       id="path3210"
       sodipodi:nodetypes="cccccccc" />
    <path
       style="fill:#80b3ff;fill-opacity:1;stroke:#000000;stroke-width:2.75859736999999990;stroke-miterlimit:4;stroke-dasharray:none;stroke-opacity:1"
       d="M 115.14867,138.84963 C 113.60318,143.16402 111.72311,147.48209 111.26596,152.11385 C 111.51978,160.28304 115.85919,167.50734 116.56178,175.61114 C 116.96591,179.36312 116.42695,184.25287 112.94453,186.15474 C 108.99405,187.78602 104.93324,185.47932 101.02978,184.8076 C 93.321541,181.96179 85.488418,179.40564 78.114878,175.63799 C 74.87403,174.74391 71.011239,173.28387 70.335052,169.25063 C 67.686838,162.80563 69.630115,153.09934 72.742239,147.86008 C 76.037912,140.82896 77.480502,134.3303 83.270442,128.76844 C 88.418265,123.92172 96.699278,123.25278 102.17882,127.86198 C 104.89315,130.53749 113.73986,135.51522 115.14867,138.84963 z"
       id="path3212"
       sodipodi:nodetypes="ccccccccccc"
       inkscape:transform-center-x="7.609102"
       inkscape:transform-center-y="-3.6302808" />
    <path
       style="fill:#3771c8;fill-opacity:0.75000000000000000;stroke:#000000;stroke-width:2.75859736999999990;stroke-miterlimit:4;stroke-dasharray:none;stroke-opacity:1"
       d="M 99.41536,144.12393 C 98.794506,148.55541 98.658305,153.12805 97.141833,157.3554 C 96.727043,159.33758 96.39906,161.49372 95.063036,163.043 C 94.58543,164.53765 92.232707,165.16922 91.553978,163.5332 C 90.90949,162.12513 90.182535,160.70455 89.964018,159.11888 C 89.769269,157.64343 89.682553,156.14766 89.693815,154.65786 C 89.77694,152.25111 91.051686,150.17654 92.063977,148.10866 C 100.17252,135.01725 104.20657,118.61586 99.41536,144.12393 z"
       id="path3214"
       sodipodi:nodetypes="cccccccc"
       inkscape:transform-center-x="5.4190788"
       inkscape:transform-center-y="-9.802022" />
    <path
       style="fill:#80b3ff;fill-opacity:1;stroke:#000000;stroke-width:2.75859736999999990;stroke-miterlimit:4;stroke-dasharray:none;stroke-opacity:1"
       d="M 168.65921,83.690388 C 172.92215,82.964918 176.10883,78.544335 180.0841,76.651282 C 186.56513,72.329755 191.48483,68.697142 197.6885,63.992334 C 200.52131,61.740967 204.74619,59.79469 208.02651,62.071375 C 211.32209,64.917295 211.48743,69.835231 212.8966,73.789517 C 214.45033,82.358085 216.30083,90.897527 216.94145,99.616966 C 217.83931,103.06827 218.59048,107.37916 215.66625,110.02338 C 211.77757,115.70192 202.95419,118.75573 197.15949,118.49165 C 190.89058,120.09595 184.99379,122.09665 176.45015,118.2823 C 169.95473,115.93489 165.27145,108.59349 166.25892,101.20875 C 167.06541,97.354431 166.6667,86.664146 168.65921,83.690388 z"
       id="path3216"
       sodipodi:nodetypes="ccccccccccc"
       inkscape:transform-center-x="0.56387444"
       inkscape:transform-center-y="4.2024717" />
    <path
       style="fill:#3771c8;fill-opacity:0.75000000000000000;stroke:#000000;stroke-width:2.75859736999999990;stroke-miterlimit:4;stroke-dasharray:none;stroke-opacity:1"
       d="M 180.79539,95.636047 C 184.69054,93.994907 188.45744,91.833912 192.63546,91.125058 C 194.44631,90.518053 196.35447,89.74357 198.27593,90.20705 C 199.72386,89.90213 201.41156,91.767063 200.42769,93.21454 C 199.61111,94.516257 198.82562,95.900691 197.6523,96.896381 C 196.55623,97.814938 195.38968,98.643502 194.17896,99.378267 C 192.19058,100.50506 189.87483,100.36116 187.69579,100.45718 C 173.05032,99.489386 157.7655,103.95408 180.79539,95.636047 z"
       id="path3218"
       sodipodi:nodetypes="cccccccc"
       inkscape:transform-center-x="6.3054232"
       inkscape:transform-center-y="8.0785228" />
    <path
       style="fill:#80b3ff;fill-opacity:1;stroke:#000000;stroke-width:2.75859736999999990;stroke-miterlimit:4;stroke-dasharray:none;stroke-opacity:1"
       d="M 93.430239,125.81489 C 89.557626,127.85579 85.437237,129.65603 82.161602,132.72148 C 77.162,138.8993 75.759519,147.35598 71.13066,153.81228 C 69.045375,156.85884 65.54594,160.05404 61.783829,158.91605 C 57.850084,157.23904 56.335243,152.59277 53.897942,149.26043 C 50.049451,141.56532 45.925468,133.99189 42.907718,125.86398 C 41.097695,122.85051 39.190658,118.96942 41.254901,115.51861 C 43.403384,108.86392 50.990608,103.15672 56.599651,101.57693 C 63.555631,98.615916 70.565324,90.01093 76.442908,95.229347 C 83.296212,95.418414 89.796086,100.95163 90.890117,108.31913 C 91.183022,112.25651 94.513381,122.34382 93.430239,125.81489 z"
       id="path3220"
       sodipodi:nodetypes="ccccccccccc"
       inkscape:transform-center-x="2.6124715"
       inkscape:transform-center-y="-3.9093969" />
    <path
       style="fill:#3771c8;fill-opacity:0.75000000000000000;stroke:#000000;stroke-width:2.75859736999999990;stroke-miterlimit:4;stroke-dasharray:none;stroke-opacity:1"
       d="M 78.53964,118.23915 C 75.271049,121.03861 72.2684,124.29416 68.472338,126.29234 C 66.90974,127.44479 65.300397,128.78802 63.336769,128.95272 C 62.03757,129.70182 59.910619,128.45369 60.451233,126.75971 C 60.872254,125.25789 61.240729,123.68687 62.086996,122.36463 C 62.880741,121.1405 63.766651,119.98008 64.720634,118.8953 C 66.309419,117.19012 68.561569,116.59545 70.616903,115.81477 C 84.876056,112.10903 98.247205,103.01096 78.53964,118.23915 z"
       id="path3222"
       sodipodi:nodetypes="cccccccc"
       inkscape:transform-center-x="-3.4006616"
       inkscape:transform-center-y="-9.7865282" />
    <path
       sodipodi:type="arc"
       style="fill:#c87137;fill-opacity:1;stroke:#000000;stroke-width:2.22193979999999990;stroke-miterlimit:4;stroke-dasharray:none;stroke-opacity:1"
       id="path3262"
       sodipodi:cx="145.24794"
       sodipodi:cy="104.75207"
       sodipodi:rx="36.983471"
       sodipodi:ry="39.049587"
       d="M 182.23141,104.75207 A 36.983471,39.049587 0 1 1 108.26447,104.75207 A 36.983471,39.049587 0 1 1 182.23141,104.75207 z"
       transform="matrix(1.2729713,0,0,1.2108588,-60.840544,-28.567049)" />
    <path
       style="opacity:1;fill:#338000;fill-opacity:1;stroke:#000000;stroke-width:2.33999991;stroke-miterlimit:4;stroke-dasharray:none;stroke-opacity:1"
       d="M 161.57668,69.29277 C 156.98905,70.995743 152.82773,73.753619 149.39144,77.212336 C 133.50478,80.859365 126.12547,70.955438 109.127,80.284293 C 98.112863,87.688877 92.593749,102.38473 96.340791,115.16996 C 145.98607,130.84322 159.73495,101.16236 150.33145,79.128239 C 151.8411,74.421609 156.54423,71.304614 161.3621,70.939207 C 162.36383,70.763151 162.68801,69.675265 161.57668,69.29277 z"
       id="path4347"
       sodipodi:nodetypes="ccccccc" />
    <path
       style="opacity:1;fill:none;fill-opacity:0.24418603999999999;stroke:#000000;stroke-width:2;stroke-miterlimit:4;stroke-dasharray:none;stroke-opacity:1"
       d="M 141.00127,92.997465 C 140.90109,90.916451 141.52259,89.144731 142.90241,87.6109 C 144.42926,86.250915 146.32405,85.918959 148.28897,85.868187"
       id="path4575"
       sodipodi:nodetypes="ccc" />
    <path
       style="opacity:1;fill:#80b3ff;fill-opacity:1;stroke:#000000;stroke-width:2.75859736999999990;stroke-miterlimit:4;stroke-dasharray:none;stroke-opacity:1"
       d="M 91.664374,184.44455 C 89.387225,199.95999 82.102369,213.80095 79.563041,229.23283 C 77.316234,208.2935 83.300309,201.43615 91.539136,185.13087 C 91.60325,184.90759 91.647442,184.67743 91.664374,184.44455 z"
       id="path3308"
       sodipodi:nodetypes="cccc" />
    <path
       style="opacity:1;fill:#80b3ff;fill-opacity:1;stroke:#000000;stroke-width:2.75859736999999990;stroke-miterlimit:4;stroke-dasharray:none;stroke-opacity:1"
       d="M 141.62645,187.9502 C 146.85086,203.29544 144.19641,219.11294 149.01051,234.48671 C 134.55213,215.93246 139.17406,207.13369 141.82344,188.63893 C 141.79189,188.4054 141.72889,188.17354 141.62645,187.9502 z"
       id="path3317"
       sodipodi:nodetypes="cccc" />
    <path
       style="opacity:1;fill:#80b3ff;fill-opacity:1;stroke:#000000;stroke-width:2.75859736999999990;stroke-miterlimit:4;stroke-dasharray:none;stroke-opacity:1"
       d="M 187.50276,170.18584 C 198.00546,182.45331 203.33992,197.4934 213.57527,209.9088 C 195.31522,197.50134 194.49625,188.19799 187.94853,170.74761 C 187.82146,170.54661 187.67366,170.35652 187.50276,170.18584 z"
       id="path3319"
       sodipodi:nodetypes="cccc" />
    <path
       style="opacity:1;fill:#000000;fill-opacity:0.14534882;stroke:none;stroke-width:2;stroke-miterlimit:4;stroke-dasharray:none;stroke-opacity:1"
       d="M 147.82466,97.773413 C 147.69893,99.882437 146.23502,102.19062 145.28914,104.15422 C 141.22041,113.40752 130.9259,118.94561 113.87855,115.8032 C 129.43235,116.19596 137.65347,108.26416 147.82466,97.773413 z"
       id="path4356"
       sodipodi:nodetypes="cccc" />
    <path
       style="opacity:1;fill:#ffffff;fill-opacity:0.14534882;stroke:none;stroke-width:2;stroke-miterlimit:4;stroke-dasharray:none;stroke-opacity:1"
       d="M 135.32327,80.843869 C 116.9313,79.489044 104.23439,95.501972 102.04952,93.339416 C 106.94044,82.669774 120.17974,76.305903 135.32327,80.843869 z"
       id="path4365"
       sodipodi:nodetypes="ccc" />
    <path
       style="opacity:1;fill:#ffffff;fill-opacity:0.55813956;stroke:none;stroke-width:2;stroke-miterlimit:4;stroke-dasharray:none;stroke-opacity:1"
       d="M 134.50571,56.400507 C 110.74057,49.943793 82.551701,70.048053 80.930287,94.759265 C 85.212997,81.588734 110.58667,53.85576 134.50571,56.400507 z"
       id="path4398"
       sodipodi:nodetypes="ccc" />
    <path
       style="opacity:1;fill:#000000;fill-opacity:0.22674417;stroke:none;stroke-width:2;stroke-miterlimit:4;stroke-dasharray:none;stroke-opacity:1"
       d="M 113.26259,139.92558 C 137.02773,146.38229 165.21659,126.27804 166.83801,101.56683 C 168.52251,108.35199 135.94746,142.42235 113.26259,139.92558 z"
       id="path4403"
       sodipodi:nodetypes="ccc" />
    <path
       style="opacity:1;fill:#502d16;fill-opacity:1;stroke:#000000;stroke-width:2;stroke-miterlimit:4;stroke-dasharray:none;stroke-opacity:1"
       d="M 109.68349,115.03878 C 113.03953,111.77255 116.31628,108.39231 120.13904,105.66703 C 124.51088,102.65707 121.04939,98.684336 116.77256,100.35069 C 112.55449,100.79994 102.51145,107.18228 99.432046,113.25137 C 95.839435,125.82612 104.99444,119.10784 109.68349,115.03878 z"
       id="path4469"
       sodipodi:nodetypes="ccccc" />
    <path
       style="opacity:1;fill:#502d16;fill-opacity:1;stroke:#000000;stroke-width:2;stroke-miterlimit:4;stroke-dasharray:none;stroke-opacity:1"
       d="M 125.58539,94.667946 C 123.55712,95.024465 121.68039,96.424738 120.9516,98.355146 C 120.45343,100.65257 123.19386,101.8239 125.08493,101.63507 C 128.34068,101.23414 135.81624,99.958252 134.49542,95.373964 C 132.83049,92.673648 128.12258,93.830389 125.58539,94.667946 z"
       id="path4471"
       sodipodi:nodetypes="ccccc" />
    <path
       style="opacity:1;fill:#502d16;fill-opacity:1;stroke:#000000;stroke-width:1.89135873000000010;stroke-miterlimit:4;stroke-dasharray:none;stroke-opacity:1"
       d="M 138.83163,92.877889 C 135.29558,92.343551 132.62822,95.343237 135.73039,97.670256 C 139.96118,100.04725 144.89469,93.496293 138.83163,92.877889 z"
       id="path4473"
       sodipodi:nodetypes="ccc" />
    <path
       style="opacity:1;fill:none;fill-opacity:0.24418604;stroke:#000000;stroke-width:2;stroke-miterlimit:4;stroke-dasharray:none;stroke-opacity:1"
       d="M 141.63498,94.898606 C 141.72816,94.255056 142.28059,92.985573 142.74398,92.52218 C 144.58443,90.37011 147.00963,89.868722 149.71483,89.987326"
       id="path4581"
       sodipodi:nodetypes="ccc" />
    <path
       style="opacity:1;fill:none;fill-opacity:1;stroke:#000000;stroke-width:2;stroke-miterlimit:4;stroke-dasharray:none;stroke-opacity:1"
       d="M 132.75056,99.325313 C 133.33063,99.332844 134.5479,99.607839 135.32715,99.997468 C 135.93326,100.30052 136.25508,101.18117 136.55944,101.78988"
       id="path4496" />
    <path
       style="opacity:1;fill:none;fill-opacity:1;stroke:#000000;stroke-width:2;stroke-miterlimit:4;stroke-dasharray:none;stroke-opacity:1"
       d="M 129.94992,101.34178 C 130.11536,101.67266 130.5405,102.41092 130.7341,102.79811 C 130.99715,103.32423 131.2637,103.57223 131.40625,104.14242 C 131.52416,104.61405 131.6303,104.72166 131.6303,105.26268"
       id="path4498" />
    <path
       style="opacity:1;fill:none;fill-opacity:1;stroke:#000000;stroke-width:2;stroke-miterlimit:4;stroke-dasharray:none;stroke-opacity:1"
       d="M 125.91699,102.23798 C 126.02713,102.67857 126.33857,103.67372 126.47712,104.36647 C 126.61498,105.0558 126.48446,105.34534 126.36509,105.82281 C 126.29151,106.11712 126.22906,106.31893 126.14104,106.49496"
       id="path4500" />
    <path
       style="opacity:1;fill:#892ca0;fill-opacity:1;stroke:#000000;stroke-width:2;stroke-miterlimit:4;stroke-dasharray:none;stroke-opacity:1"
       d="M 127.7378,86.090784 C 127.7955,81.275538 128.96356,76.490613 121.97302,72.915548 C 114.98249,69.340482 102.66433,80.963626 102.76712,87.668893 C 102.8699,94.37416 108.70167,94.424833 112.29254,95.152171 C 115.88341,95.879508 118.5932,96.301462 122.10407,95.307308 C 125.61495,94.313153 127.68009,90.906031 127.7378,86.090784 z"
       id="path4521"
       sodipodi:nodetypes="czzzzz" />
    <path
       style="opacity:1;fill:#aa00d4;fill-opacity:1;stroke:#000000;stroke-width:2;stroke-miterlimit:4;stroke-dasharray:none;stroke-opacity:1"
       d="M 132.31931,88.562566 C 132.37701,83.74732 133.54507,78.962395 126.55453,75.38733 C 119.564,71.812264 107.24584,83.435408 107.34863,90.140675 C 107.45141,96.845942 113.28318,96.896615 116.87405,97.623953 C 120.46492,98.35129 123.17471,98.773244 126.68558,97.77909 C 130.19646,96.784935 132.2616,93.377813 132.31931,88.562566 z"
       id="path4510"
       sodipodi:nodetypes="czzzzz" />
    <path
       style="opacity:1;fill:#892ca0;fill-opacity:1;stroke:#000000;stroke-width:2;stroke-miterlimit:4;stroke-dasharray:none;stroke-opacity:1"
       d="M 91.596164,101.63087 C 95.390528,104.10101 101.18745,102.392 105.78499,100.86939 C 109.71129,99.569084 114.9242,99.902444 117.58251,96.92761 C 123.67359,90.111268 111.15019,85.501608 105.13892,83.874029 C 96.523203,81.541286 83.473855,96.343245 91.596164,101.63087 z"
       id="path4523"
       sodipodi:nodetypes="cssss" />
    <path
       style="opacity:1;fill:#aa00d4;fill-opacity:1;stroke:#000000;stroke-width:2;stroke-miterlimit:4;stroke-dasharray:none;stroke-opacity:1"
       d="M 96.177681,104.10266 C 99.972045,106.5728 105.76896,104.86379 110.3665,103.34118 C 114.2928,102.04087 119.50571,102.37423 122.16402,99.399392 C 128.2551,92.58305 115.7317,87.97339 109.72043,86.345811 C 101.10472,84.013068 88.055372,98.815027 96.177681,104.10266 z"
       id="path4512"
       sodipodi:nodetypes="cssss" />
    <path
       style="opacity:1;fill:#4400aa;fill-opacity:1;stroke:#000000;stroke-width:1.83664691;stroke-miterlimit:4;stroke-dasharray:none;stroke-opacity:1"
       d="M 102.61728,93.390119 C 99.899316,93.143951 98.549604,96.6562 99.206301,98.938257 C 100.23021,101.56827 103.42873,101.5464 105.75109,101.43948 C 108.20166,101.58798 109.09932,98.690048 108.00942,96.821592 C 107.04964,94.735981 104.84483,93.432793 102.61728,93.390119 z"
       id="path4525" />
    <path
       style="opacity:1;fill:#4400aa;fill-opacity:1;stroke:#000000;stroke-width:2;stroke-miterlimit:4;stroke-dasharray:none;stroke-opacity:1"
       d="M 124.92079,80.481621 C 123.77043,81.536102 123.22719,83.12432 123.19402,84.656672 C 123.22449,86.643232 124.02552,87.157189 125.81597,87.647624 C 126.49846,87.854751 127.11886,87.406392 127.51605,86.892325 C 128.51938,85.64564 128.65838,83.906405 128.364,82.385808 C 128.18278,81.811164 128.33857,81.092625 127.82012,80.666984 C 126.65459,79.810896 126.06026,79.745431 124.92079,80.481621 z"
       id="path4536"
       sodipodi:nodetypes="ccccccc" />
    <path
       style="opacity:1;fill:#ffffff;fill-opacity:0.3488372;stroke:none;stroke-width:2;stroke-miterlimit:4;stroke-dasharray:none;stroke-opacity:1"
       d="M 108.32214,88.014022 C 107.67565,87.87945 105.26049,88.915384 104.63656,89.084252 C 103.20298,89.583516 102.15552,90.610157 101.16348,91.707574 C 101.82754,91.683272 102.43661,91.367298 103.0489,91.114456 C 104.1877,90.629543 107.13264,89.446547 108.29673,89.03752 C 108.90301,88.851337 109.5801,87.723423 108.32214,88.014022 z"
       id="path4540"
       sodipodi:nodetypes="cccccc" />
    <path
       style="opacity:1;fill:#ffffff;fill-opacity:0.36627907;stroke:none;stroke-width:2;stroke-miterlimit:4;stroke-dasharray:none;stroke-opacity:1"
       d="M 124.12864,77.233841 C 120.85468,76.134265 111.61357,81.725351 114.09651,84.340562 C 115.72805,80.962565 122.23105,79.029436 124.12864,77.233841 z"
       id="path4543"
       sodipodi:nodetypes="ccc" />
    <path
       style="opacity:1;fill:#ffffff;fill-opacity:0.29069766;stroke:none;stroke-width:2;stroke-miterlimit:4;stroke-dasharray:none;stroke-opacity:1"
       d="M 117.07858,74.144485 C 114.23458,74.988116 110.74342,77.219463 108.32016,79.862101 C 105.21886,82.849894 115.32499,75.376569 117.07858,74.144485 z"
       id="path4550"
       sodipodi:nodetypes="ccc" />
    <path
       style="opacity:1;fill:#ffffff;fill-opacity:0.24418604;stroke:none;stroke-width:2;stroke-miterlimit:4;stroke-dasharray:none;stroke-opacity:1"
       d="M 101.24431,86.018426 C 97.099328,86.84547 92.722492,90.567448 92.024744,94.875134 C 93.996746,91.057667 95.233791,90.038936 101.24431,86.018426 z"
       id="path4558"
       sodipodi:nodetypes="ccc" />
    <path
       style="opacity:1;fill:#ffffff;fill-opacity:0.24418604;stroke:none;stroke-width:2;stroke-miterlimit:4;stroke-dasharray:none;stroke-opacity:1"
       d="M 109.73344,107.14463 C 105.6845,107.61768 102.94284,111.30858 101.75298,114.94391 C 101.57811,116.34664 104.07674,114.29143 104.53408,113.70694 C 106.21408,111.64399 108.36406,109.91547 109.78869,107.67957 C 109.84182,107.49505 109.77582,107.32293 109.73344,107.14463 z"
       id="path4568" />
    <path
       style="opacity:1;fill:#ffffff;fill-opacity:0.24418604;stroke:none;stroke-width:2;stroke-miterlimit:4;stroke-dasharray:none;stroke-opacity:1"
       d="M 139.0209,94.423317 C 137.9958,93.868166 137.13611,94.230958 136.14198,94.610411 C 136.55538,95.615318 138.02324,94.904864 139.05472,94.602574 C 139.04641,94.542249 139.0298,94.483522 139.0209,94.423317 z"
       id="path4583"
       sodipodi:nodetypes="cccc" />
    <path
       style="opacity:1;fill:#000000;fill-opacity:0.24418604;stroke:none;stroke-width:2;stroke-miterlimit:4;stroke-dasharray:none;stroke-opacity:1"
       d="M 118.90051,103.84981 C 114.96425,106.29791 112.00144,109.92862 108.88533,113.28949 C 108.21641,113.36396 109.55141,112.12739 109.78943,111.75543 C 111.99656,108.8467 114.12035,105.81288 117.37591,103.99982 C 117.86125,103.82791 118.39085,103.75157 118.90051,103.84981 z"
       id="path4590"
       sodipodi:nodetypes="ccccc" />
    <path
       style="opacity:1;fill:#000000;fill-opacity:0.24418604;stroke:none;stroke-width:2;stroke-miterlimit:4;stroke-dasharray:none;stroke-opacity:1"
       d="M 132.12927,97.354248 C 132.19176,97.907388 131.3694,97.862219 131.04339,98.142892 C 130.21692,98.551192 129.40685,99.038228 128.47905,99.175183 C 128.09406,99.194115 127.45359,99.531523 127.24411,99.39585 C 127.63407,98.873464 128.35589,98.843786 128.87704,98.509246 C 129.46475,98.190045 130.09863,97.968495 130.69613,97.667256 C 131.16427,97.547558 131.62962,97.245936 132.12927,97.354248 z"
       id="path4601" />
    <path
       style="opacity:1;fill:#000000;fill-opacity:0.24418604;stroke:none;stroke-width:2;stroke-miterlimit:4;stroke-dasharray:none;stroke-opacity:1"
       d="M 139.73384,95.849179 C 139.66632,96.092787 139.45557,96.258437 139.31538,96.459743 C 139.00251,96.832749 138.49959,96.947839 138.04107,97.023675 C 137.643,97.072965 137.20569,97.023752 136.8966,96.744405 C 136.56836,96.546834 136.85742,96.244612 137.13428,96.242831 C 137.69496,96.130226 138.27609,96.19043 138.83509,96.058562 C 139.13751,96.001657 139.43634,95.927444 139.73384,95.849179 z"
       id="path4608" />
    <path
       style="opacity:1;fill:#000000;fill-opacity:0.24418604;stroke:none;stroke-width:2;stroke-miterlimit:4;stroke-dasharray:none;stroke-opacity:1"
       d="M 121.673,95.453102 C 121.99012,98.123353 119.00378,99.491388 116.85233,100.05385 C 115.1755,100.54654 112.03359,101.20198 111.05073,100.73078 C 113.59783,100.13463 115.42544,98.144343 117.55017,96.729329 C 118.4465,96.07454 120.84711,93.921001 121.673,95.453102 z"
       id="path4616" />
    <path
       style="opacity:1;fill:#000000;fill-opacity:0.24418604;stroke:none;stroke-width:2;stroke-miterlimit:4;stroke-dasharray:none;stroke-opacity:1"
       d="M 125.79214,93.789604 C 125.20792,95.190612 126.95107,96.22402 127.90756,94.995015 C 129.27273,93.995853 130.07123,92.349585 130.32035,90.71065 C 129.71286,90.06239 129.03852,92.018545 128.32736,92.369859 C 127.5408,92.929752 126.63985,93.327504 125.79214,93.789604 z"
       id="path4625" />
    <path
       style="opacity:1;fill:#ffffff;fill-opacity:0.45348838;stroke:none;stroke-width:2;stroke-miterlimit:4;stroke-dasharray:none;stroke-opacity:1"
       d="M 102.74081,95.136246 C 101.43711,95.356384 101.22836,95.82241 100.92657,96.899295 C 100.93858,97.476453 100.69611,98.034785 100.75766,98.613774 C 102.06749,97.455928 104.64524,96.206088 103.98046,95.378211 C 103.6218,95.070374 103.15981,95.192366 102.74081,95.136246 z"
       id="path4633"
       sodipodi:nodetypes="ccccc" />
    <path
       style="opacity:1;fill:#ffffff;fill-opacity:0.49418604;stroke:none;stroke-width:2;stroke-miterlimit:4;stroke-dasharray:none;stroke-opacity:1"
       d="M 125.31686,83.650192 C 125.23668,83.294223 125.40801,82.946026 125.5165,82.615149 C 125.6489,82.271078 126.00763,82.071434 126.36377,82.059983 C 126.72147,82.081379 126.72922,82.543843 126.74271,82.813613 C 126.76708,83.098979 126.68207,83.442601 126.37745,83.54169 C 126.03497,83.66266 125.66495,83.563829 125.31686,83.650192 z"
       id="path4644" />
  </g>
</svg>
