<?xml version="1.0" encoding="UTF-8" standalone="no"?>
<!-- Created with Inkscape (http://www.inkscape.org/) -->
<svg
   xmlns:dc="http://purl.org/dc/elements/1.1/"
   xmlns:cc="http://creativecommons.org/ns#"
   xmlns:rdf="http://www.w3.org/1999/02/22-rdf-syntax-ns#"
   xmlns:svg="http://www.w3.org/2000/svg"
   xmlns="http://www.w3.org/2000/svg"
   xmlns:sodipodi="http://sodipodi.sourceforge.net/DTD/sodipodi-0.dtd"
   xmlns:inkscape="http://www.inkscape.org/namespaces/inkscape"
   width="250"
   height="250"
   id="svg2"
   sodipodi:version="0.32"
   inkscape:version="0.46"
   sodipodi:docname="butterflythick.svg"
   inkscape:output_extension="org.inkscape.output.svg.inkscape"
   inkscape:export-filename="P:\pidgey2\data\images\butterfly.png"
   inkscape:export-xdpi="92.160004"
   inkscape:export-ydpi="92.160004"
   version="1.0">
  <defs
     id="defs4">
    <inkscape:perspective
       sodipodi:type="inkscape:persp3d"
       inkscape:vp_x="0 : 125 : 1"
       inkscape:vp_y="0 : 1000 : 0"
       inkscape:vp_z="250 : 125 : 1"
       inkscape:persp3d-origin="125 : 83.333333 : 1"
       id="perspective3645" />
  </defs>
  <sodipodi:namedview
     id="base"
     pagecolor="#cb90ff"
     bordercolor="#666666"
     borderopacity="1.0"
     gridtolerance="10000"
     guidetolerance="10"
     objecttolerance="10"
     inkscape:pageopacity="0"
     inkscape:pageshadow="2"
     inkscape:zoom="1.1950105"
     inkscape:cx="-60.318516"
     inkscape:cy="117.88677"
     inkscape:document-units="px"
     inkscape:current-layer="layer1"
     showgrid="false"
     inkscape:window-width="1662"
     inkscape:window-height="1028"
     inkscape:window-x="10"
     inkscape:window-y="0" />
  <metadata
     id="metadata7">
    <rdf:RDF>
      <cc:Work
         rdf:about="">
        <dc:format>image/svg+xml</dc:format>
        <dc:type
           rdf:resource="http://purl.org/dc/dcmitype/StillImage" />
      </cc:Work>
    </rdf:RDF>
  </metadata>
  <g
     inkscape:label="Layer 1"
     inkscape:groupmode="layer"
     id="layer1">
    <path
       style="opacity:1;fill:#552200;fill-opacity:1;stroke:#000000;stroke-width:3;stroke-miterlimit:4;stroke-dasharray:none;stroke-opacity:1"
       d="M 88.984573,114.44953 C 84.922338,116.49315 79.7693,118.73065 79.077504,123.83236 C 78.410129,127.46567 79.353727,131.75953 82.814121,133.65273 C 86.044663,135.68997 89.676597,137.07675 92.583553,139.61217 C 112.25915,149.4345 135.95301,156.88001 140.99536,128.36189 C 141.84227,97.511764 107.83929,107.57904 88.984573,114.44953 z"
       id="path3173"
       sodipodi:nodetypes="cccccc" />
    <path
       style="opacity:1;fill:#552200;fill-opacity:1;stroke:#000000;stroke-width:3;stroke-miterlimit:4;stroke-dasharray:none;stroke-opacity:1"
       d="M 145.13331,139.6511 C 128.66063,123.52011 143.64775,107.98138 165.15799,110.43503 C 177.45704,111.37539 184.29419,118.18098 182.4539,130.50922 C 178.56274,145.03777 165.16359,146.85496 152.80496,143.82299 C 149.56039,143.38957 147.43646,141.80924 145.13331,139.6511 z"
       id="path3181"
       sodipodi:nodetypes="ccccc" />
    <path
       style="opacity:1;fill:none;fill-opacity:1;stroke:#000000;stroke-width:3;stroke-miterlimit:4;stroke-dasharray:none;stroke-opacity:1"
       d="M 203.93832,122.58461 C 210.45095,122.55051 216.58256,117.36009 221.1169,112.55678 C 224.12859,109.12223 225.90843,104.8398 228.53151,101.12957 C 230.37584,97.943116 231.06094,94.277656 232.68716,90.991846 C 232.83694,90.606526 232.97381,90.215936 233.0885,89.818656"
       id="path3230"
       sodipodi:nodetypes="ccccc" />
    <path
       style="opacity:1;fill:none;fill-opacity:1;stroke:#000000;stroke-width:3;stroke-miterlimit:4;stroke-dasharray:none;stroke-opacity:1"
       d="M 204.33367,131.44128 C 214.44841,133.16813 220.34944,139.15831 227.30679,145.7294 C 232.71163,150.02494 234.03971,159.23243 233.93233,165.61658"
       id="path3232"
       sodipodi:nodetypes="ccc" />
    <path
       style="opacity:1;fill:#552200;fill-opacity:1;stroke:#000000;stroke-width:3;stroke-miterlimit:4;stroke-dasharray:none;stroke-opacity:1"
       d="M 180.17931,130.86365 C 182.13922,139.81225 190.14523,143.65652 198.20415,140.72288 C 212.93716,134.77949 211.34678,120.95238 203.58314,114.16766 C 194.66772,106.37639 177.84211,107.6786 180.17931,130.86365 z"
       id="path3169"
       sodipodi:nodetypes="ccsc" />
    <path
       style="opacity:1;fill:#d40000;fill-opacity:1;stroke:#000000;stroke-width:3;stroke-miterlimit:4;stroke-dasharray:none;stroke-opacity:1"
       d="M 163.44968,135.42931 C 168.21631,145.5385 163.32881,156.74007 160.01271,166.40993 C 156.08742,177.68796 148.70184,164.05491 138.23342,169.71749 C 135.15411,184.6564 127.19779,212.11185 99.33908,202.9581 C 74.954779,201.57509 51.230793,204.61279 27.491808,210.24996 C 13.27979,211.12267 31.705238,187.80072 35.369422,182.85432 C 48.315999,167.82378 62.791622,155.35799 79.246779,145.41036 C 88.796773,140.1603 99.141453,136.96065 109.28557,133.43334 C 117.3489,131.59874 125.69984,131.69516 133.90029,130.94417 C 143.14933,130.58867 152.70636,130.76146 161.57508,133.834 L 162.55201,134.52328 L 163.44968,135.42931 L 163.44968,135.42931 z"
       id="path2429"
       sodipodi:nodetypes="ccccccccccccc" />
    <path
       style="opacity:1;fill:#d40000;fill-opacity:1;stroke:#000000;stroke-width:3;stroke-miterlimit:4;stroke-dasharray:none;stroke-opacity:1"
       d="M 200.94217,148.44671 C 208.86289,157.75156 216.52677,168.77617 217.14548,181.96398 C 218.39893,193.18715 214.29262,206.16564 204.38977,211.15897 C 193.91245,217.02791 181.80414,215.99296 170.41652,216.99725 C 159.71793,217.00805 148.85366,214.65881 139.22213,209.53545 C 132.24982,204.61527 130.49099,194.91556 130.02234,186.50093 C 129.5409,174.90224 133.45628,163.56936 139.53341,154.19507 C 143.30749,147.90966 146.5873,141.14216 151.27956,135.60071 C 155.18745,131.44068 160.41193,129.21986 165.5975,127.78618 C 175.11405,122.76582 195.15243,141.14845 200.94217,148.44671 z"
       id="path2431"
       sodipodi:nodetypes="cccccccccc" />
    <path
       style="opacity:1;fill:#d40000;fill-opacity:1;stroke:#000000;stroke-width:3;stroke-miterlimit:4;stroke-dasharray:none;stroke-opacity:1"
       d="M 159.58,116.47428 C 164.34663,106.36509 159.45913,95.163509 156.14303,85.493649 C 152.21774,74.215619 144.83216,87.848669 134.36374,82.186089 C 131.28443,67.247179 123.32811,39.791733 95.4694,48.945483 C 71.085099,50.328493 47.361113,47.290793 23.622128,41.653623 C 9.4101103,40.780913 27.835558,64.102859 31.499742,69.049259 C 44.446319,84.079799 58.921942,96.545589 75.377099,106.49323 C 84.927093,111.74329 95.271773,114.94294 105.41589,118.47025 C 113.47922,120.30485 121.83016,120.20843 130.03061,120.95942 C 139.27965,121.31492 148.83668,121.14213 157.7054,118.06959 L 158.68233,117.38031 L 159.58,116.47428 L 159.58,116.47428 z"
       id="path3386"
       sodipodi:nodetypes="ccccccccccccc" />
    <path
       style="opacity:1;fill:#d40000;fill-opacity:1;stroke:#000000;stroke-width:3;stroke-miterlimit:4;stroke-dasharray:none;stroke-opacity:1"
       d="M 197.74768,104.95716 C 205.6684,95.652301 213.33228,84.627692 213.95099,71.439886 C 215.20444,60.216713 211.09813,47.238227 201.19528,42.244893 C 190.71796,36.375952 178.60965,37.410901 167.22203,36.406615 C 156.52344,36.395815 145.65917,38.745055 136.02764,43.868413 C 129.05533,48.788596 127.2965,58.488302 126.82785,66.90294 C 126.34641,78.501624 130.26179,89.834505 136.33892,99.208792 C 140.113,105.49421 143.39281,112.26171 148.08507,117.80316 C 151.99296,121.96319 157.21744,124.18401 162.40301,125.61769 C 171.91956,130.63805 191.95794,112.25542 197.74768,104.95716 z"
       id="path2416"
       sodipodi:nodetypes="cccccccccc" />
    <path
       style="opacity:1;fill:#ffffff;fill-opacity:0.34302326000000000;stroke:none;stroke-width:3;stroke-miterlimit:4;stroke-dasharray:none;stroke-opacity:1"
       d="M 209.95267,52.520706 C 203.70396,47.306262 196.06827,43.485025 187.87176,42.816595 C 177.20435,41.133352 166.30931,39.304788 155.51897,41.002103 C 150.7706,41.636356 146.37477,43.600819 142.17622,45.811692 C 139.49458,47.131213 136.47927,48.705375 135.3129,51.631302 C 136.42946,53.00244 139.29571,50.223084 141.20177,50.799531 C 167.19517,43.729323 184.95604,48.922554 205.08304,52.225923 C 206.70754,52.302844 208.32451,52.5207 209.95267,52.520706 z"
       id="path2435"
       sodipodi:nodetypes="cccccccc" />
    <path
       style="opacity:1;fill:#ffff00;fill-opacity:1;stroke:#000000;stroke-width:3;stroke-miterlimit:4;stroke-dasharray:none;stroke-opacity:1"
       d="M 135.18787,113.2733 C 123.75663,98.640851 128.08679,74.536351 114.82099,60.183055 C 105.17787,49.749416 89.512413,53.750808 92.869987,69.458932 C 97.104444,89.269474 119.11424,101.50692 135.18787,113.2733 z"
       id="path3222"
       sodipodi:nodetypes="csss" />
    <path
       style="opacity:1;fill:#ffff00;fill-opacity:1;stroke:#000000;stroke-width:3;stroke-miterlimit:4;stroke-dasharray:none;stroke-opacity:1"
       d="M 125.55116,113.01653 C 116.70838,110.43374 109.7538,105.08501 103.60538,98.259218 C 88.510065,78.061812 82.390254,63.278552 56.913318,56.87596 C 53.683367,56.194201 49.493885,56.152725 47.792209,59.619129 C 45.582485,63.331779 48.170378,67.265308 50.017319,70.478938 C 60.686426,84.691823 76.832185,95.464859 93.147182,102.23641 C 98.019232,104.06888 103.2421,104.75796 107.95189,107.05882 C 113.35148,109.47899 119.88742,111.33217 125.55116,113.01653 z"
       id="path3227"
       sodipodi:nodetypes="cccccccc" />
    <path
       style="opacity:1;fill:#ffff00;fill-opacity:1;stroke:#000000;stroke-width:3;stroke-miterlimit:4;stroke-dasharray:none;stroke-opacity:1"
       d="M 158.45206,57.785744 C 168.30723,60.276798 178.60491,63.069608 186.44395,69.889735 C 189.78641,72.934024 191.8646,78.024614 189.81689,82.35851 C 187.30642,88.439386 181.50383,92.23103 175.97879,95.310188 C 172.20523,97.320401 168.21342,98.900377 164.1339,100.16953 C 217.81407,96.100571 216.09309,58.796089 158.45206,57.785744 z"
       id="path3237"
       sodipodi:nodetypes="cccccc" />
    <path
       style="opacity:1;fill:#ffff00;fill-opacity:1;stroke:#000000;stroke-width:3;stroke-miterlimit:4;stroke-dasharray:none;stroke-opacity:1"
       d="M 164.98225,70.568047 C 158.50472,68.502558 147.65253,69.331302 146.83981,77.849265 C 147.29897,85.672099 156.93087,89.419541 163.72871,88.205147 C 170.21697,87.653101 177.02119,78.094806 170.9379,73.101435 C 169.21453,71.726604 167.08467,71.08768 164.98225,70.568047 z"
       id="path3256" />
    <path
       style="opacity:1;fill:#000000;fill-opacity:0.34302326000000000;stroke:none;stroke-width:3;stroke-miterlimit:4;stroke-dasharray:none;stroke-opacity:1"
       d="M 211.37372,198.67411 C 205.12501,203.88855 197.48932,207.70979 189.29281,208.37822 C 178.6254,210.06146 167.73036,211.89002 156.94002,210.19271 C 152.19165,209.55846 147.79582,207.59399 143.59727,205.38312 C 140.91563,204.0636 137.90032,202.48944 136.73395,199.56351 C 137.85051,198.19237 140.71676,200.97173 142.62282,200.39528 C 168.61622,207.46549 186.37709,202.27226 206.50409,198.96889 C 208.12859,198.89197 209.74556,198.67411 211.37372,198.67411 z"
       id="path3299"
       sodipodi:nodetypes="cccccccc" />
    <path
       style="opacity:1;fill:#ffff00;fill-opacity:1;stroke:#000000;stroke-width:3;stroke-miterlimit:4;stroke-dasharray:none;stroke-opacity:1"
       d="M 136.60892,137.92151 C 125.17768,152.55396 129.50784,176.65846 116.24203,191.01176 C 106.59891,201.4454 90.933456,197.444 94.291027,181.73588 C 98.525487,161.92534 120.53529,149.68789 136.60892,137.92151 z"
       id="path3301"
       sodipodi:nodetypes="csss" />
    <path
       style="opacity:1;fill:#ffff00;fill-opacity:1;stroke:#000000;stroke-width:3;stroke-miterlimit:4;stroke-dasharray:none;stroke-opacity:1"
       d="M 126.97221,138.17828 C 118.12942,140.76107 111.17484,146.1098 105.02642,152.93559 C 89.931108,173.133 83.811297,187.91626 58.334361,194.31885 C 55.10441,195.00061 50.914928,195.04209 49.213252,191.57568 C 47.003528,187.86303 49.591421,183.9295 51.438362,180.71587 C 62.107469,166.50299 78.253228,155.72995 94.568227,148.9584 C 99.440277,147.12593 104.66315,146.43685 109.37294,144.13599 C 114.77252,141.71582 121.30847,139.86264 126.97221,138.17828 z"
       id="path3303"
       sodipodi:nodetypes="cccccccc" />
    <path
       style="opacity:1;fill:#000000;fill-opacity:0.40697674000000000;stroke:none;stroke-width:3;stroke-miterlimit:4;stroke-dasharray:none;stroke-opacity:1"
       d="M 93.568373,198.66305 C 77.394891,196.93905 65.054398,197.21041 49.156494,199.97068 C 43.107219,200.79097 37.007022,201.55068 31.158833,203.37272 C 33.014255,200.13972 37.109711,198.93105 40.060519,196.85298 C 47.722309,193.25157 56.339536,192.74807 64.624362,191.74474 C 88.094843,187.77581 97.73853,190.56485 118.28683,196.90195 C 129.55215,201.70422 95.150411,198.64831 93.568373,198.66305 z"
       id="path3305"
       sodipodi:nodetypes="ccccccc" />
    <path
       style="opacity:1;fill:#ffff00;fill-opacity:1;stroke:#000000;stroke-width:3;stroke-miterlimit:4;stroke-dasharray:none;stroke-opacity:1"
       d="M 159.87311,193.40907 C 169.72828,190.91801 180.02596,188.1252 187.865,181.30508 C 191.20746,178.26079 193.28565,173.1702 191.23794,168.8363 C 188.72747,162.75543 182.92488,158.96378 177.39984,155.88462 C 173.62628,153.87441 169.63447,152.29443 165.55495,151.02529 C 219.23512,155.09424 217.51414,192.39872 159.87311,193.40907 z"
       id="path3307"
       sodipodi:nodetypes="cccccc" />
    <path
       style="opacity:1;fill:#ffff00;fill-opacity:1;stroke:#000000;stroke-width:3;stroke-miterlimit:4;stroke-dasharray:none;stroke-opacity:1"
       d="M 166.4033,180.62676 C 159.92577,182.69225 149.07358,181.86351 148.26086,173.34555 C 148.72002,165.52271 158.35192,161.77527 165.14976,162.98966 C 171.63802,163.54171 178.44224,173.10001 172.35895,178.09338 C 170.63558,179.46821 168.50572,180.10713 166.4033,180.62676 z"
       id="path3309" />
    <path
       style="opacity:1;fill:#000000;fill-opacity:0.34302326000000000;stroke:none;stroke-width:3;stroke-miterlimit:4;stroke-dasharray:none;stroke-opacity:1"
       d="M 151.66864,109.91716 C 153.63532,119.10725 164.42612,125.05603 173.19395,121.32398 C 178.08346,119.99038 186.19019,116.43237 185.32189,110.66919 C 179.55143,112.86787 174.05092,117.10432 167.42801,116.38201 C 161.65291,116.01177 156.82975,112.1778 151.66864,109.91716 z"
       id="path3330" />
    <path
       style="opacity:1;fill:#ffffff;fill-opacity:0.34302326000000000;stroke:none;stroke-width:3;stroke-miterlimit:4;stroke-dasharray:none;stroke-opacity:1"
       d="M 142.86391,135.64497 C 121.74731,128.6116 69.640068,152.11262 90.460332,147.99046 C 106.16775,145.42148 128.86137,144.84894 143.18654,137.80906 C 143.668,137.16157 143.60196,136.09397 142.86391,135.64497 z"
       id="path3340"
       sodipodi:nodetypes="cccc" />
    <path
       style="opacity:1;fill:#ffffff;fill-opacity:0.34302326000000000;stroke:none;stroke-width:3;stroke-miterlimit:4;stroke-dasharray:none;stroke-opacity:1"
       d="M 169.49113,132.98225 C 163.09135,132.68082 157.18154,136.65459 153.68176,141.79324 C 152.11756,143.50552 155.16084,142.23 156.07071,142.01623 C 164.3779,135.69522 173.62203,139.7307 181.41361,140.94267 C 182.99309,140.39704 182.21754,138.43273 181.56596,137.42879 C 178.5237,134.5051 173.75585,132.17679 169.49113,132.98225 z"
       id="path3353"
       sodipodi:nodetypes="cccccc" />
    <path
       style="opacity:1;fill:#000000;fill-opacity:0.34302326000000000;stroke:none;stroke-width:3;stroke-miterlimit:4;stroke-dasharray:none;stroke-opacity:1"
       d="M 140.81413,115.82396 C 119.69753,122.85733 67.590291,99.356311 88.410555,103.47847 C 104.11797,106.04745 126.81159,106.61999 141.13676,113.65987 C 141.61822,114.30736 141.55218,115.37496 140.81413,115.82396 z"
       id="path3365"
       sodipodi:nodetypes="cccc" />
    <path
       style="opacity:1;fill:#ffffff;fill-opacity:0.19767444000000001;stroke:none;stroke-width:3;stroke-miterlimit:4;stroke-dasharray:none;stroke-opacity:1"
       d="M 186.99723,116.99267 C 189.8653,110.18561 205.4333,116.17458 200.08606,118.44833 C 198.94865,118.61289 197.79032,118.55303 196.64769,118.47767 C 194.9866,118.33465 193.37881,117.87234 191.75007,117.54793 C 190.17363,117.29576 188.56073,117.33559 186.99723,116.99267 z"
       id="path3185"
       sodipodi:nodetypes="ccccc" />
    <path
       style="opacity:1;fill:#000000;fill-opacity:0.29069763999999998;stroke:none;stroke-width:3;stroke-miterlimit:4;stroke-dasharray:none;stroke-opacity:1"
       d="M 185.5352,135.2688 C 189.34621,139.10878 196.38004,141.24016 200.15172,136.21685 C 203.12832,133.34275 199.39557,133.24768 197.06852,133.36539 C 195.40743,133.50841 193.79963,133.97072 192.17089,134.29513 C 190.59445,134.54729 187.0987,134.9259 185.5352,135.2688 z"
       id="path3784"
       sodipodi:nodetypes="ccccc" />
    <path
       style="opacity:1;fill:#ffffff;fill-opacity:0.34302326000000000;stroke:none;stroke-width:3;stroke-miterlimit:4;stroke-dasharray:none;stroke-opacity:1"
       d="M 96.118347,122.63254 C 91.851392,122.40011 88.339477,124.85239 84.978546,126.22063 C 84.061969,129.1143 90.013293,128.21187 92.208642,127.54164 C 94.389764,126.41836 101.52712,126.37487 99.169822,123.61078 C 98.398141,123.02542 97.275215,122.60108 96.118347,122.63254 z"
       id="path3367" />
    <path
       style="opacity:1;fill:#000000;fill-opacity:0.34302326000000000;stroke:none;stroke-width:3;stroke-miterlimit:4;stroke-dasharray:none;stroke-opacity:1"
       d="M 97.301776,132.60575 C 96.96896,131.62199 92.101489,129.75035 89.31361,128.26189 C 87.508308,127.29805 86.184397,127.58598 85.171598,128.26189 C 84.681674,128.58887 87.802916,131.60804 88.426036,131.81596 C 89.558941,132.19399 91.359785,133.68342 92.863906,134.18533 C 94.232644,134.64206 95.346845,135.84238 96.414202,136.5547 C 99.06091,138.32105 98.906149,135.28254 97.301776,132.60575 z"
       id="path3384" />
    <path
       style="opacity:1;fill:#ffffff;fill-opacity:0.40697673000000001;stroke:none;stroke-width:3;stroke-miterlimit:4;stroke-dasharray:none;stroke-opacity:1"
       d="M 89.698693,53.240533 C 73.525211,54.964533 61.184718,54.693173 45.286814,51.932903 C 39.237539,51.112613 33.137342,50.352903 27.289153,48.530863 C 29.144575,51.763863 33.240031,52.972533 36.190839,55.050603 C 43.852629,58.652013 52.469856,59.155513 60.754682,60.158843 C 84.225163,64.127769 93.86885,61.338733 114.41715,55.001633 C 125.68247,50.199363 91.280731,53.255273 89.698693,53.240533 z"
       id="path3388"
       sodipodi:nodetypes="ccccccc" />
  </g>
</svg>
