<?xml version="1.0" encoding="UTF-8" standalone="no"?>
<!-- Created with Inkscape (http://www.inkscape.org/) -->
<svg
   xmlns:dc="http://purl.org/dc/elements/1.1/"
   xmlns:cc="http://creativecommons.org/ns#"
   xmlns:rdf="http://www.w3.org/1999/02/22-rdf-syntax-ns#"
   xmlns:svg="http://www.w3.org/2000/svg"
   xmlns="http://www.w3.org/2000/svg"
   xmlns:sodipodi="http://sodipodi.sourceforge.net/DTD/sodipodi-0.dtd"
   xmlns:inkscape="http://www.inkscape.org/namespaces/inkscape"
   width="250"
   height="250"
   id="svg2"
   sodipodi:version="0.32"
   inkscape:version="0.46"
   sodipodi:docname="cabbage.svg"
   inkscape:output_extension="org.inkscape.output.svg.inkscape"
   inkscape:export-filename="P:\pidgey2\data\images\cabbage.png"
   inkscape:export-xdpi="92.160004"
   inkscape:export-ydpi="92.160004"
   version="1.0">
  <defs
     id="defs4">
    <inkscape:perspective
       sodipodi:type="inkscape:persp3d"
       inkscape:vp_x="0 : 125 : 1"
       inkscape:vp_y="0 : 1000 : 0"
       inkscape:vp_z="250 : 125 : 1"
       inkscape:persp3d-origin="125 : 83.333333 : 1"
       id="perspective3645" />
  </defs>
  <sodipodi:namedview
     id="base"
     pagecolor="#cb90ff"
     bordercolor="#666666"
     borderopacity="1.0"
     gridtolerance="10000"
     guidetolerance="10"
     objecttolerance="10"
     inkscape:pageopacity="0"
     inkscape:pageshadow="2"
     inkscape:zoom="1.6900001"
     inkscape:cx="164.78287"
     inkscape:cy="102.55598"
     inkscape:document-units="px"
     inkscape:current-layer="layer1"
     showgrid="false"
     inkscape:window-width="1680"
     inkscape:window-height="1028"
     inkscape:window-x="0"
     inkscape:window-y="0" />
  <metadata
     id="metadata7">
    <rdf:RDF>
      <cc:Work
         rdf:about="">
        <dc:format>image/svg+xml</dc:format>
        <dc:type
           rdf:resource="http://purl.org/dc/dcmitype/StillImage" />
      </cc:Work>
    </rdf:RDF>
  </metadata>
  <g
     inkscape:label="Layer 1"
     inkscape:groupmode="layer"
     id="layer1">
    <path
       style="opacity:1;fill:#225500;fill-opacity:1;stroke:#000000;stroke-width:3.47201204;stroke-miterlimit:4;stroke-dasharray:none;stroke-opacity:1"
       d="M 182.95837,123.3492 C 193.99713,118.50991 199.51452,108.92747 205.11054,100.32407 C 210.8982,91.712835 218.4106,82.750998 216.22797,71.890941 C 215.0469,65.498017 212.85402,59.105064 210.21514,52.878176 C 205.80227,45.779149 197.56946,40.577072 192.73864,33.638912 C 186.73301,25.207394 176.14245,18.94446 164.64663,16.499747 C 152.38667,13.487524 140.34558,17.67096 131.5347,23.15517 C 124.07037,27.531509 118.95245,33.780209 115.04958,40.45268 C 109.82293,48.351163 102.50822,55.395153 99.307064,64.175642 C 97.997724,69.367173 97.540164,74.972869 99.057304,80.399733 C 101.95881,86.528171 106.93096,92.413645 114.17377,96.012765 C 124.16751,101.66227 135.0081,106.18753 145.72928,110.73277 C 152.39183,112.89576 158.67504,116.47374 165.86924,116.6854 C 172.29326,116.73315 178.92814,118.76231 182.95837,123.3492 z"
       id="path3208" />
    <path
       style="opacity:1;fill:#225500;fill-opacity:1;stroke:#000000;stroke-width:2.99381113;stroke-miterlimit:4;stroke-dasharray:none;stroke-opacity:1"
       d="M 200.3849,100.39057 C 187.94478,94.093975 172.92258,92.011995 156.74392,92.011995 C 143.15265,92.011995 136.38924,97.630645 125.89425,106.48407 C 114.51576,116.0828 113.10293,136.15788 113.10293,149.90028 C 113.10293,168.17935 129.58255,181.81639 140.94287,193.3165 C 153.85984,206.39238 182.26286,212.24249 199.63249,209.31193 C 210.89573,207.41163 224.85298,196.72984 232.73944,188.74636 C 241.21477,180.16676 245.53076,170.08245 245.53076,158.27884 C 245.53076,144.80641 243.06113,133.47493 237.25402,121.71783 C 234.46388,116.06889 230.03534,112.88695 226.71999,109.53081 C 222.4891,105.24786 217.6399,103.01782 213.17623,99.628878 C 207.77729,95.529855 198.02434,95.820435 191.35574,95.820435 C 189.16585,95.820435 189.90154,95.329735 189.09844,95.058745"
       id="path3182" />
    <path
       style="opacity:1;fill:#225500;fill-opacity:1;stroke:#000000;stroke-width:3.20476341;stroke-miterlimit:4;stroke-dasharray:none;stroke-opacity:1"
       d="M 104.62162,56.393227 C 97.855814,48.219124 87.558938,45.736774 78.192233,42.969405 C 68.781586,40.043066 58.705261,35.74881 48.635996,40.009675 C 42.688875,42.430886 36.933697,45.700581 31.423458,49.307176 C 25.407896,54.596607 21.948236,62.664906 16.167263,68.268828 C 9.1676244,75.192173 5.1312406,85.475135 4.9524004,95.662725 C 4.3707197,106.61812 10.693578,115.77958 17.659252,121.94103 C 23.299994,127.22123 30.302983,130.11467 37.484501,131.89432 C 46.100684,134.5097 54.288173,139.0674 63.371465,139.78682 C 68.631353,139.72295 74.129434,138.85209 79.080218,136.36526 C 84.445609,132.56048 89.183591,127.07362 91.283702,120.19429 C 94.841162,110.54912 97.152704,100.44538 99.506194,90.437295 C 100.33009,84.365973 102.59186,78.296088 101.43123,72.215639 C 100.25851,66.817722 100.95846,60.799561 104.62162,56.393227 z"
       id="path3176" />
    <path
       style="opacity:1;fill:#225500;fill-opacity:1;stroke:#000000;stroke-width:2.99381113;stroke-miterlimit:4;stroke-dasharray:none;stroke-opacity:1"
       d="M 92.7873,114.86265 C 91.584626,113.23935 71.280155,122.62767 67.20465,124.00289 C 58.637509,126.89374 51.568727,135.30285 45.384159,139.99834 C 38.757898,145.02917 35.600176,160.57601 34.097695,168.18079 C 33.798499,169.69519 33.596084,171.22754 33.345272,172.75092 C 31.863263,181.75237 31.868846,189.68077 33.345272,198.64831 C 35.42926,211.30608 47.731192,215.8317 57.423059,220.73726 C 68.979701,226.58667 87.085795,223.78401 99.559174,223.78401 C 101.56565,223.78401 103.57213,223.78401 105.57862,223.78401 C 114.50676,223.78401 130.40049,218.46906 134.17098,210.83531 C 138.683,201.70026 140.19043,195.30485 140.19043,184.93792 C 140.19043,176.02786 137.71882,167.31297 135.67586,159.04053 C 133.73243,151.17121 130.97268,142.79056 126.64667,136.95158 C 123.06621,132.11888 121.08781,128.04446 116.11264,125.52627 C 112.77744,123.83815 108.99576,121.16235 105.57862,119.43276 C 100.60329,116.91449 95.005225,116.20976 89.025151,112.57758"
       id="path3180" />
    <path
       style="opacity:1;fill:#2d5016;fill-opacity:1;stroke:#000000;stroke-width:2.99381113;stroke-miterlimit:4;stroke-dasharray:none;stroke-opacity:1"
       d="M 81.124618,122.86035 C 70.686564,117.20844 116.68174,114.29525 111.45737,103.38453 C 89.409874,93.579145 41.092258,84.371843 81.107256,60.229688 C 89.993532,57.563893 99.235384,56.35732 108.33981,54.783169 C 119.94378,54.244636 131.65187,54.62228 143.15906,56.159761 C 178.14999,65.899105 161.67794,75.166265 149.2386,93.258645 C 138.67701,100.09697 154.08561,103.71531 142.72698,108.34567 C 133.3359,111.61406 123.67451,113.93447 113.87439,115.50237 C 102.8975,117.66979 91.994839,120.20348 81.124618,122.86035 z"
       id="path3168"
       sodipodi:nodetypes="ccccccccc" />
    <path
       style="opacity:1;fill:#2d5016;fill-opacity:1;stroke:#000000;stroke-width:2.99381113;stroke-miterlimit:4;stroke-dasharray:none;stroke-opacity:1"
       d="M 169.48881,127.20518 C 167.30166,122.03128 163.26624,117.72742 162.2373,112.04639 C 160.71081,105.70775 165.06537,111.94055 164.10288,105.48852 C 155.78657,108.29684 147.32453,67.927635 187.17939,81.743955 C 197.59262,90.056815 202.73652,104.86955 205.70283,117.66354 C 220.07064,156.90513 155.87262,182.24788 169.48881,127.20518 z"
       id="path3170"
       sodipodi:nodetypes="cccccc" />
    <path
       style="opacity:1;fill:#2d5016;fill-opacity:1;stroke:#000000;stroke-width:2.99381113;stroke-miterlimit:4;stroke-dasharray:none;stroke-opacity:1"
       d="M 126.72542,165.08672 C 117.3267,166.95896 107.50859,167.35562 98.733554,171.61871 C 84.989888,204.42961 111.55118,198.36581 130.24015,197.19385 C 138.75856,196.34013 146.9278,193.46833 154.58206,189.70305 C 161.94776,187.15354 169.80509,185.72019 176.43812,181.36289 C 199.78634,149.39252 144.10794,155.56976 126.72542,165.08672 z"
       id="path3172"
       sodipodi:nodetypes="cccccc" />
    <path
       style="opacity:1;fill:#2d5016;fill-opacity:1;stroke:#000000;stroke-width:3.33670497;stroke-miterlimit:4;stroke-dasharray:none;stroke-opacity:1"
       d="M 52.813759,92.739195 C 47.05694,109.56438 45.021914,127.96379 48.35731,145.52935 C 51.177606,160.37256 56.878789,179.75818 69.194796,187.36264 C 72.938396,189.30739 77.080703,192.71616 81.50912,191.11032 C 85.57951,188.44489 94.762868,173.00881 94.98423,168.22799 C 95.821686,157.51617 104.97308,141.94527 101.95461,131.86953 C 109.07674,126.95983 70.167168,72.458309 52.813759,92.739195 z"
       id="path3174"
       sodipodi:nodetypes="ccccccc" />
    <path
       style="opacity:1;fill:#217821;fill-opacity:1;stroke:#000000;stroke-width:2.99381113;stroke-miterlimit:4;stroke-dasharray:none;stroke-opacity:1"
       d="M 114.13836,77.574721 C 101.48924,78.99779 88.537837,85.623555 82.849556,97.662825 C 77.868551,107.10855 73.05882,116.82553 70.214372,127.15979 C 69.294504,133.7505 69.577222,140.50759 70.249886,147.08474 C 72.595969,153.99011 76.630476,160.28393 81.132861,165.91355 C 88.51184,173.53861 98.776424,177.12483 108.94881,178.87939 C 116.41197,180.24227 123.78518,182.56113 131.37635,182.90143 C 138.9892,182.78473 145.93629,179.21253 152.72452,176.16039 C 158.47441,172.20237 163.62935,167.48022 168.79288,162.80578 C 174.57553,155.43009 176.6109,145.97434 179.01497,137.09016 C 179.55895,129.72638 180.86491,122.06863 179.1424,114.81699 C 177.09955,108.1968 173.93778,101.77222 168.66902,97.200045 C 163.85726,92.419545 159.19519,87.210763 153.53158,83.516284 C 141.27923,78.156275 127.7489,76.863389 114.13836,77.574721 z"
       id="path2396"
       sodipodi:nodetypes="cccccccccccccc" />
    <path
       style="opacity:1;fill:#ffffff;fill-opacity:0.19767444;stroke:none;stroke-width:2.33999991;stroke-miterlimit:4;stroke-dasharray:none;stroke-opacity:1"
       d="M 171.04009,114.48178 C 171.31729,103.08667 159.56657,97.284095 151.05509,92.645625 C 140.10182,86.512403 127.64446,82.797237 115.05064,84.645822 C 105.9618,84.479367 95.199437,89.972445 94.824923,100.20406 C 98.456874,109.53565 111.77598,102.27991 119.47832,103.89932 C 135.13562,103.90793 148.67056,113.09172 163.22897,117.54782 C 165.59858,117.91768 173.3343,119.4415 171.04009,114.48178 z"
       id="path3186" />
    <path
       style="opacity:1;fill:#000000;fill-opacity:0.19767444;stroke:none;stroke-width:2.33999991;stroke-miterlimit:4;stroke-dasharray:none;stroke-opacity:1"
       d="M 77.36247,133.90481 C 77.015503,140.08714 78.752463,146.65559 81.97251,151.8493 C 92.379695,168.92822 114.16488,174.98082 135.22391,173.46937 C 140.20963,174.26557 151.14044,170.44436 147.92167,164.23164 C 143.40531,162.10726 138.61134,160.87076 133.83632,159.46293 C 126.45055,155.96972 118.85619,152.8925 111.35996,149.62607 C 105.06334,148.1024 99.671624,144.58383 94.392067,140.95151 C 88.953396,138.16392 84.602185,132.39966 78.332981,131.82061 C 77.520053,132.13154 77.354213,133.14113 77.36247,133.90481 z"
       id="path3193"
       sodipodi:nodetypes="ccccccccc" />
    <path
       style="opacity:1;fill:#ffffff;fill-opacity:0.19767444;stroke:none;stroke-width:2.33999991;stroke-miterlimit:4;stroke-dasharray:none;stroke-opacity:1"
       d="M 202.36684,57.100603 C 200.98426,52.864958 196.5906,50.888313 193.99087,47.537535 C 185.97405,43.036611 179.47474,33.111645 170.64053,30.423857 C 165.99656,28.474084 161.23263,26.682753 156.18113,26.196876 C 145.09266,25.293151 133.32906,26.263927 126.06507,35.585841 C 125.05184,37.928802 122.66959,40.126235 123.47687,42.859385 C 125.64797,44.153121 127.75006,40.814709 129.65486,39.847798 C 140.17249,31.810211 154.73379,34.54967 166.84619,36.611277 C 172.9076,37.834537 177.63297,42.238944 181.15201,47.094455 C 185.8137,52.742827 194.51954,59.051787 202.36684,57.100603 z"
       id="path3210"
       sodipodi:nodetypes="cccccccccc" />
    <path
       style="opacity:1;fill:#ffffff;fill-opacity:0.19767444;stroke:none;stroke-width:2.33999991;stroke-miterlimit:4;stroke-dasharray:none;stroke-opacity:1"
       d="M 78.698216,52.958589 C 59.175968,48.700763 59.086665,45.720239 39.233313,56.137863 C 36.90871,57.683687 35.241651,60.112278 32.658164,61.285821 C 31.216085,62.620638 29.220981,63.840532 28.862868,65.916176 C 30.696156,66.271947 33.077834,63.798334 35.152521,63.104878 C 41.563728,59.926254 48.775261,58.751376 55.879733,58.720825 C 60.519147,58.434326 65.165804,58.203866 69.813581,58.22518 C 72.8055,58.027149 75.790952,57.513291 78.625428,56.518493 C 79.758098,55.648313 79.319423,53.999214 78.698216,52.958589 z"
       id="path3216"
       sodipodi:nodetypes="ccccccccc" />
    <path
       style="opacity:1;fill:#ffffff;fill-opacity:0.19767444;stroke:none;stroke-width:2.33999991;stroke-miterlimit:4;stroke-dasharray:none;stroke-opacity:1"
       d="M 237.27808,137.57397 C 237.18175,136.405 236.30064,135.32793 235.79649,134.24822 C 233.52556,130.24159 231.04686,126.3508 229.01724,122.21058 C 228.00356,120.12873 226.97669,118.00841 225.32351,116.3436 C 224.02664,114.92568 222.59775,113.57925 221.71478,111.84686 C 220.15444,110.18887 217.8444,109.54366 215.74731,108.84034 C 214.502,108.64762 212.85571,107.66882 211.79036,108.61124 C 211.70445,110.01782 212.66362,111.23857 213.20102,112.48828 C 215.21938,116.35246 218.41075,119.48086 220.1935,123.48432 C 221.54394,125.93676 222.90253,128.38597 224.21688,130.85671 C 225.92921,133.47256 228.17736,135.70024 230.50704,137.76597 C 231.93644,139.04029 234.15582,139.82868 235.8941,138.67205 C 236.40408,138.37294 236.86071,137.99078 237.27808,137.57397 z"
       id="path3224" />
    <path
       style="opacity:1;fill:#ffffff;fill-opacity:0.19767444;stroke:none;stroke-width:2.33999991;stroke-miterlimit:4;stroke-dasharray:none;stroke-opacity:1"
       d="M 143.56807,63.175817 C 139.69987,61.444951 135.42979,61.083924 131.24455,61.224427 C 124.61852,61.232934 117.98171,61.140669 111.36347,61.434915 C 105.83588,62.039765 100.46027,63.723281 94.875242,63.866976 C 89.322116,64.3778 83.488414,66.167793 79.856237,70.657355 C 78.723473,71.460131 74.850325,74.817442 78.3427,74.408111 C 100.71821,67.700946 120.73901,59.067244 148.77824,69.596556 C 153.14417,65.580035 147.11847,64.434421 143.56807,63.175817 z"
       id="path3227"
       sodipodi:nodetypes="cccccccc" />
    <path
       style="opacity:1;fill:#ffffff;fill-opacity:0.19767444;stroke:none;stroke-width:2.33999991;stroke-miterlimit:4;stroke-dasharray:none;stroke-opacity:1"
       d="M 166.04733,86.094682 C 168.96649,84.752873 172.28538,85.26319 175.33804,84.45103 C 177.66094,83.948074 180.25316,83.725526 182.36559,85.039173 C 184.92741,86.45353 186.03704,89.299154 187.96181,91.356858 C 190.62542,94.486052 194.13523,96.919043 196.12842,100.58963 C 196.92314,100.75235 197.50778,102.81022 196.22463,101.91644 C 193.92093,100.93735 191.57738,100.02463 189.32584,98.939698 C 186.73157,96.984742 185.60519,93.753967 183.2693,91.553572 C 181.77051,89.691442 179.72772,88.055954 177.26422,87.842017 C 174.01031,87.157825 170.72292,86.63745 167.41254,86.326492 C 166.95549,86.261603 166.49982,86.186256 166.04733,86.094682 z"
       id="path3232" />
    <path
       style="opacity:1;fill:#000000;fill-opacity:0.19767444;stroke:none;stroke-width:2.33999991;stroke-miterlimit:4;stroke-dasharray:none;stroke-opacity:1"
       d="M 42.603547,200.29586 C 43.148922,203.80818 45.698733,206.34963 49.112423,209.76332 C 51.489283,212.14018 55.519455,213.14022 58.579878,213.90533 C 62.687322,214.93219 66.967445,215.26258 71.005913,216.27219 C 74.162957,217.06145 77.276841,216.80442 79.881652,217.45563 C 82.735091,218.16898 86.032265,217.36606 88.757391,218.04734 C 91.867614,218.8249 97.863284,218.59303 100.59171,218.04734 C 103.94985,217.37571 107.46722,218.25154 110.65088,217.45563 C 114.33132,216.53551 116.43676,216.63369 119.52662,215.08876 C 121.27304,214.21555 122.79541,212.69318 123.66863,210.94675 C 125.08271,208.11859 117.36315,210.35503 114.20117,210.35503 C 110.76035,210.35503 107.26894,210.16502 104.142,210.94675 C 101.39629,211.63318 97.517624,210.94675 94.67455,210.94675 C 91.221823,210.94675 87.621447,209.76332 84.023663,209.76332 C 80.941509,209.76332 76.895645,209.16475 74.556208,208.57989 C 71.768904,207.88306 69.027568,207.34565 66.863901,206.80474 C 64.126375,206.12036 60.73659,205.62131 57.988162,205.62131 C 56.454715,205.62131 53.047565,203.15101 52.071002,202.66273 C 49.774687,201.51457 45.864877,200.94813 42.603547,200.29586 z"
       id="path3240" />
    <path
       style="opacity:1;fill:#000000;fill-opacity:0.19767444;stroke:none;stroke-width:2.33999991;stroke-miterlimit:4;stroke-dasharray:none;stroke-opacity:1"
       d="M 208.28401,198.17619 C 205.91696,199.35971 196.25089,199.35962 191.71596,199.35962 C 187.17947,199.35962 182.64298,199.35962 178.10649,199.35962 C 173.49419,199.35962 168.79523,199.68341 164.49703,200.54305 C 159.15028,201.6124 161.93395,201.82536 166.27218,202.90991 C 169.44027,203.70194 172.5892,203.45367 175.14791,204.09334 C 178.24868,204.86854 182.61634,204.09334 185.7988,204.09334 C 189.15186,204.09334 192.50492,204.09334 195.85797,204.09334 C 199.38093,204.09334 201.12899,203.66316 204.142,202.90991 C 206.39251,202.34728 207.1093,201.11295 208.28401,198.17619 z"
       id="path3242" />
    <path
       style="opacity:1;fill:#000000;fill-opacity:0.19767444;stroke:none;stroke-width:2.33999991;stroke-miterlimit:4;stroke-dasharray:none;stroke-opacity:1"
       d="M 53.254433,144.08285 C 53.289923,148.49235 55.292879,152.51681 56.683807,156.60092 C 57.567195,160.44221 58.700635,164.32337 61.053779,167.5495 C 62.746524,170.14313 64.449828,172.80162 65.24993,175.82715 C 66.2598,178.2626 68.450998,179.89183 69.926635,182.01309 C 71.091792,183.63655 73.09612,184.00493 74.959813,183.87986 C 76.809935,183.83327 78.694532,183.80296 80.516278,183.56071 C 82.525687,182.59559 82.023413,179.31641 80.06864,178.58772 C 76.888808,176.42311 74.908797,172.99817 72.026188,170.49997 C 69.353337,167.78691 66.421685,165.27488 64.076681,162.27223 C 62.089984,158.61672 62.083781,154.19151 59.775422,150.67611 C 58.667887,148.27266 57.567003,145.29834 54.763418,144.47122 C 54.270934,144.30443 53.764498,144.18201 53.254433,144.08285 z"
       id="path3244" />
    <path
       style="opacity:1;fill:#000000;fill-opacity:0.19767444;stroke:none;stroke-width:2.33999991;stroke-miterlimit:4;stroke-dasharray:none;stroke-opacity:1"
       d="M 104.142,190.82841 C 106.2978,188.27911 109.09528,192.59676 111.56803,192.94879 C 114.73401,194.60667 118.43354,195.57322 121.97098,194.6349 C 141.43285,191.35357 159.77669,186.78959 176.14217,176.38453 C 177.37902,170.42296 129.84101,187.91769 121.44985,189.25111 C 115.67792,189.6762 109.79767,189.43442 104.142,190.82841 z"
       id="path3252"
       sodipodi:nodetypes="cccccc" />
  </g>
</svg>
