<?xml version="1.0" encoding="UTF-8" standalone="no"?>
<!-- Created with Inkscape (http://www.inkscape.org/) -->
<svg
   xmlns:dc="http://purl.org/dc/elements/1.1/"
   xmlns:cc="http://creativecommons.org/ns#"
   xmlns:rdf="http://www.w3.org/1999/02/22-rdf-syntax-ns#"
   xmlns:svg="http://www.w3.org/2000/svg"
   xmlns="http://www.w3.org/2000/svg"
   xmlns:sodipodi="http://sodipodi.sourceforge.net/DTD/sodipodi-0.dtd"
   xmlns:inkscape="http://www.inkscape.org/namespaces/inkscape"
   width="250"
   height="250"
   id="svg2"
   sodipodi:version="0.32"
   inkscape:version="0.46"
   sodipodi:docname="carrot.svg"
   inkscape:output_extension="org.inkscape.output.svg.inkscape"
   inkscape:export-filename="P:\pidgey2\data\images\carrot.png"
   inkscape:export-xdpi="92.160004"
   inkscape:export-ydpi="92.160004"
   version="1.0">
  <defs
     id="defs4">
    <inkscape:perspective
       sodipodi:type="inkscape:persp3d"
       inkscape:vp_x="0 : 125 : 1"
       inkscape:vp_y="0 : 1000 : 0"
       inkscape:vp_z="250 : 125 : 1"
       inkscape:persp3d-origin="125 : 83.333333 : 1"
       id="perspective3645" />
  </defs>
  <sodipodi:namedview
     id="base"
     pagecolor="#cb90ff"
     bordercolor="#666666"
     borderopacity="1.0"
     gridtolerance="10000"
     guidetolerance="10"
     objecttolerance="10"
     inkscape:pageopacity="0"
     inkscape:pageshadow="2"
     inkscape:zoom="1.6900001"
     inkscape:cx="76.40157"
     inkscape:cy="34.884318"
     inkscape:document-units="px"
     inkscape:current-layer="layer1"
     showgrid="false"
     inkscape:window-width="1680"
     inkscape:window-height="1028"
     inkscape:window-x="0"
     inkscape:window-y="0" />
  <metadata
     id="metadata7">
    <rdf:RDF>
      <cc:Work
         rdf:about="">
        <dc:format>image/svg+xml</dc:format>
        <dc:type
           rdf:resource="http://purl.org/dc/dcmitype/StillImage" />
      </cc:Work>
    </rdf:RDF>
  </metadata>
  <g
     inkscape:label="Layer 1"
     inkscape:groupmode="layer"
     id="layer1">
    <path
       style="fill:#ff6600;fill-opacity:1;stroke:#000000;stroke-width:1.70153129;stroke-miterlimit:4;stroke-dasharray:none;stroke-opacity:1"
       d="M 150.58047,82.660986 C 143.46266,75.510439 132.19289,71.953806 122.3577,74.776477 C 70.473749,89.666986 94.10529,164.2577 134.85149,165.34389 C 163.02935,166.09505 177.55639,150.4377 170.06942,120.02395 C 166.50782,105.5559 161.22709,93.356616 150.58047,82.660986 z"
       id="path2423"
       sodipodi:nodetypes="cssss" />
    <path
       style="fill:#008000;fill-opacity:1;stroke:#000000;stroke-width:1.70153129;stroke-miterlimit:4;stroke-dasharray:none;stroke-opacity:1"
       d="M 144.44397,127.09168 C 152.77475,121.05936 162.87471,118.27002 172.60282,115.30999 C 180.00257,113.05843 187.93968,111.38472 195.72005,113.26998 C 199.33847,114.14676 208.19863,115.16669 206.87407,118.08125 C 204.82811,122.58302 190.92873,123.29047 191.13285,125.53475 C 201.91673,125.2886 212.98197,131.34961 222.80829,135.31771 C 228.50962,137.16463 235.43498,140.1392 237.6068,145.09644 C 239.51124,149.44338 229.5348,151.02376 225.46553,150.12544 C 222.61894,149.49703 218.52688,150.12873 222.83631,152.57877 C 233.03633,158.37778 241.68751,167.89608 246.92669,178.32184 C 250.07748,184.59179 239.57197,179.8211 236.48758,179.11057 C 229.55449,177.51345 234.62648,186.37776 236.80467,189.21731 C 242.39807,196.50903 244.81819,206.53001 243.44234,215.51385 C 242.40779,222.26912 237.08594,212.67602 235.07133,210.6212 C 229.2528,204.68653 225.34957,196.72974 220.04312,190.09452 C 217.40466,186.79536 218.72363,195.19668 219.09732,196.58204 C 220.57677,202.06665 215.01253,207.0505 211.05376,201.25989 C 206.25765,194.24445 202.01197,186.91871 198.70224,179.11597 C 195.04718,170.49913 189.51696,156.73723 189.16408,155.58612 C 188.88768,154.68451 193.16707,167.13999 193.93714,174.72955 C 194.33762,178.67655 192.61299,182.52323 189.2505,178.10807 C 184.60856,172.01293 179.77368,165.99201 175.21511,159.81422 C 171.92035,155.34912 168.21847,151.24056 164.71877,147.00215 C 162.82854,144.71296 160.69094,143.73925 163.19438,147.26186 C 165.18822,150.06741 167.85499,160.11842 162.20773,156.29858 C 156.54161,152.46598 152.02216,146.62015 148.97494,140.67984 C 146.81295,136.46524 138.90566,131.61246 144.44397,127.09168 L 144.44397,127.09168 z"
       id="path3198"
       sodipodi:nodetypes="csssccssssssssssssssssssssss" />
    <path
       style="fill:#008000;fill-opacity:1;stroke:#000000;stroke-width:1.70153129;stroke-miterlimit:4;stroke-dasharray:none;stroke-opacity:1"
       d="M 135.85515,124.17732 C 139.66263,119.08544 142.89287,113.38796 145.22258,107.43533 C 148.80571,93.432126 144.68433,78.982107 141.08713,65.241568 C 140.39856,50.343793 125.32276,28.641821 129.77443,55.80069 C 129.65924,60.243157 129.98131,68.712416 126.35261,70.396952 C 118.24694,63.255477 113.68766,53.148839 106.65452,45.05232 C 102.73316,38.669024 96.919902,33.8163 90.28401,30.548126 C 88.110998,29.017229 77.9997,24.278139 83.999471,29.762275 C 91.470585,37.435114 94.34655,48.058938 100.88022,56.384963 C 104.6826,62.868575 92.946188,54.606781 91.417678,51.987575 C 82.924995,46.330085 73.65208,41.372633 63.51368,40.105808 C 56.365831,39.097025 48.427859,36.328212 41.656337,39.548004 C 40.832504,46.853972 52.938612,47.519104 57.037597,52.594627 C 61.594271,54.836532 71.226823,63.631259 60.248633,62.006217 C 39.472636,62.788022 23.271039,57.693848 5.4005939,69.817318 C 8.6230857,73.872126 16.472035,72.432604 21.537744,73.834403 C 34.297278,74.59165 35.572496,75.995312 48.344852,77.227538 C 55.89672,77.720141 63.74566,77.953084 70.819297,81.170192 C 71.596916,85.631306 59.253302,90.367386 66.502958,94.573576 C 72.128533,97.068386 77.730595,92.902696 83.400823,92.790156 C 87.936075,92.480256 99.215018,89.161206 99.854458,90.639546 C 94.738467,92.041236 89.056847,100.42992 96.373892,103.07145 C 105.31905,104.59925 114.49869,102.20777 123.23579,105.57122 C 130.40176,106.00262 130.5587,115.07344 131.2207,120.39887 C 132.22459,122.18063 134.13453,123.23675 135.85515,124.17732 z"
       id="path3201"
       sodipodi:nodetypes="ccccccccccccccccccccccccc" />
    <path
       style="fill:#008000;fill-opacity:1;stroke:#000000;stroke-width:1.70153129;stroke-miterlimit:4;stroke-dasharray:none;stroke-opacity:1"
       d="M 131.64499,130.52738 C 126.69765,128.62533 120.64511,131.85132 115.17134,132.64803 C 104.61587,134.18443 93.870706,135.04178 83.234959,133.7843 C 80.828467,133.49976 76.7009,133.79081 81.16868,135.54724 C 85.790525,137.36423 90.463548,138.61623 94.587025,141.89493 C 99.969263,146.17449 90.207231,145.32516 87.657271,145.77643 C 80.855861,146.98005 73.94839,147.91837 67.122665,149.2085 C 59.919126,150.57002 50.932797,149.49528 45.604691,153.98461 C 42.532754,156.57294 52.426178,157.85695 55.158773,158.42067 C 59.470049,159.31007 71.054408,158.37736 68.643601,160.06371 C 59.243164,166.63929 58.946412,167.12584 43.135795,173.34764 C 12.844487,185.26785 21.316908,191.58868 45.989043,187.17575 C 47.794238,186.85286 55.699095,184.64067 50.545816,187.34077 C 42.313218,191.6543 32.911308,198.12636 31.232371,207.14138 C 29.98077,213.86187 39.796327,210.41819 43.324397,207.65309 C 52.565008,200.41079 63.014854,194.76052 72.154061,187.31313 C 73.594472,186.13936 76.315633,183.40724 74.441297,186.75404 C 72.080685,190.96914 67.906086,199.88888 72.138339,202.01005 C 76.489262,204.1907 81.813536,197.45079 84.798076,193.39499 C 88.272183,188.6739 90.140729,182.90532 93.052503,177.77555 C 96.650798,171.43633 96.908718,162.27262 101.77263,157.68098 C 103.67151,155.88838 103.29734,164.10004 104.81977,166.94415 C 107.76761,172.45118 113.01259,173.64523 116.69337,168.77258 C 120.0632,164.31157 123.78274,159.8524 125.89942,154.63414 C 128.08097,149.25599 129.3007,143.49551 131.57387,138.12901 C 132.57333,135.76948 134.31656,131.55449 131.64499,130.52738 z"
       id="path3206"
       sodipodi:nodetypes="csssssssssssssssssssssssss" />
    <path
       style="fill:#ffffff;fill-opacity:0.12790695;stroke:none;stroke-width:2.33999991;stroke-miterlimit:4;stroke-dasharray:none;stroke-opacity:1"
       d="M 142.75593,101.78548 C 139.21511,85.360906 144.75928,85.188886 139.1556,67.758011 C 133.77568,74.721217 137.12204,84.665836 133.88085,83.880056 C 129.79433,81.649296 124.23799,73.924708 121.25241,70.600807 C 118.66482,67.224597 116.24078,63.691271 114.61534,59.742898 C 106.18166,44.007589 105.04493,52.560872 109.52973,65.301072 C 110.97949,67.558684 112.42385,74.48425 107.74595,72.886813 C 96.268515,69.430984 90.390849,52.773539 79.481728,49.279396 C 77.86418,52.633643 87.710046,61.60181 88.987716,64.835939 C 91.907717,72.614607 63.656078,66.368967 59.869954,66.014398 C 54.910802,65.462867 22.274614,66.324999 17.272866,66.896727 C 20.604136,68.378587 50.300045,70.524482 54.110856,71.657576 C 72.433654,74.29797 101.4844,74.963264 118.23185,84.086446 C 125.83507,84.120596 139.65819,102.24621 142.75593,101.78548 z"
       id="path3209"
       sodipodi:nodetypes="cccccccccccccc" />
    <path
       style="fill:#000000;fill-opacity:0.12790695;stroke:none;stroke-width:2.33999991;stroke-miterlimit:4;stroke-dasharray:none;stroke-opacity:1"
       d="M 142.27165,105.95599 C 139.727,102.42971 137.28409,98.748966 133.58276,96.295566 C 125.6778,90.267506 128.24416,90.129666 119.26229,85.611586 C 113.17673,83.896156 104.42029,80.437406 98.225154,79.132382 C 91.544538,78.223959 86.518005,76.211497 79.658299,76.041161 C 64.453753,74.686381 53.127418,70.826221 38.044334,71.732654 C 35.830915,72.621701 31.128388,71.236935 30.49108,72.176986 C 45.173984,77.258508 61.77712,75.451934 76.16903,79.197225 C 77.246984,80.99426 73.430158,83.712146 70.288117,88.288606 C 84.24171,78.616443 95.18711,81.453932 109.66541,88.177046 C 108.00852,89.737006 95.67058,94.099846 101.39693,94.711616 C 114.72565,89.844946 123.99423,97.955466 136.59277,102.28708 C 138.53324,103.41139 140.4366,104.66917 142.27165,105.95599 z"
       id="path3212"
       sodipodi:nodetypes="ccccccccccccc" />
    <path
       style="fill:#ffffff;fill-opacity:0.12790695;stroke:none;stroke-width:2.33999991;stroke-miterlimit:4;stroke-dasharray:none;stroke-opacity:1"
       d="M 148.78191,127.62923 C 157.24663,126.85338 165.08672,123.07312 173.50995,121.98267 C 178.33254,120.94182 183.05337,119.51215 187.82785,118.3197 C 191.20751,116.6345 195.30617,119.5564 190.15045,121.28918 C 184.79583,123.31941 186.72827,129.38661 191.19954,131.01837 C 195.26622,132.76415 199.44981,134.23223 203.577,135.75868 C 207.13455,137.73439 211.35311,138.16898 214.79744,140.48261 C 216.75577,142.29929 223.52329,143.32638 222.60655,145.93713 C 220.37942,146.53556 212.71327,147.09056 217.05622,150.40802 C 220.30083,152.92162 223.98102,155.04067 226.10667,158.69674 C 229.43797,163.48516 234.34388,166.9156 237.33803,171.97091 C 239.51979,173.51659 240.5615,177.05975 236.71755,175.40373 C 233.9987,175.10915 227.6472,170.08 227.20226,174.59455 C 227.7809,179.07579 231.35301,182.34989 232.5723,186.65224 C 234.86138,191.81694 237.46639,197.06167 237.80055,202.78833 C 224.22941,177.89484 216.28917,157.15388 193.4986,139.871 C 186.80045,135.82597 182.64898,131.06336 174.90027,129.64312 C 170.03932,128.05604 158.85738,128.49362 153.7605,128.05291 C 152.09793,127.73142 150.14771,129.08908 148.78191,127.62923 z"
       id="path3215"
       sodipodi:nodetypes="ccccccccccccccccccc" />
    <path
       style="fill:#000000;fill-opacity:0.12790695;stroke:none;stroke-width:2.33999991;stroke-miterlimit:4;stroke-dasharray:none;stroke-opacity:1"
       d="M 147.68989,131.30061 C 151.64896,132.30858 155.68931,131.21373 159.67699,131.89379 C 163.88756,131.67687 168.13478,132.13266 172.30801,132.7479 C 179.45961,134.34254 186.45711,137.27107 192.14086,141.96504 C 196.21747,144.53268 199.7046,147.94157 202.69241,151.68184 C 209.66634,159.12165 215.35185,167.65315 221.11271,176.03541 C 223.84404,179.15347 225.93022,182.81388 228.31153,186.20625 C 230.17983,189.49288 231.6763,192.90062 232.82536,196.50931 C 233.37895,198.22167 236.43165,205.01633 233.40835,200.31331 C 227.7155,192.38113 222.30408,184.21023 216.06867,176.69617 C 213.51614,175.1902 217.29342,180.91774 215.95838,182.3529 C 216.0346,185.77848 213.61978,186.69562 212.75412,183.03864 C 209.23656,176.24237 204.01005,170.47731 200.57531,163.62845 C 197.43901,159.19889 194.27725,154.67049 189.82499,151.44423 C 186.72539,149.36188 184.23663,146.35869 180.70859,144.97673 C 180.30212,147.02119 184.27305,152.52206 181.859,152.54325 C 179.40478,148.20112 175.72456,144.77878 171.37714,142.37947 C 167.5828,139.71181 162.85935,138.91767 158.96783,136.38591 C 155.5456,133.86121 150.57537,134.44665 147.68989,131.30061 z"
       id="path3218" />
    <path
       style="fill:#000000;fill-opacity:0.12790695;stroke:none;stroke-width:2.33999991;stroke-miterlimit:4;stroke-dasharray:none;stroke-opacity:1"
       d="M 128.47276,133.56445 C 123.86887,137.36433 117.4544,136.57988 112.21809,138.91987 C 107.65054,140.36621 102.49562,138.0179 98.157082,139.88477 C 98.769791,141.75671 103.20303,144.24531 98.759524,145.34181 C 94.351361,147.08655 89.891121,148.84674 85.306051,150.02716 C 80.544569,151.12149 75.646792,151.62542 70.774431,151.30499 C 68.552693,151.03608 66.282182,153.7637 69.971299,153.24298 C 89.304305,166.94942 47.649402,175.18498 41.429851,176.08354 C 38.396211,177.55495 34.49123,177.92078 32.479732,180.9493 C 40.100211,180.54381 47.783275,184.48018 55.267306,181.52747 C 84.193016,162.02147 89.404924,160.96763 105.18064,149.13974 C 112.73372,143.39621 120.92225,139.3113 128.47276,133.56445 z"
       id="path3221"
       sodipodi:nodetypes="cccccccccccc" />
    <path
       style="fill:#ffffff;fill-opacity:0.12790695;stroke:none;stroke-width:2.33999991;stroke-miterlimit:4;stroke-dasharray:none;stroke-opacity:1"
       d="M 116.51504,144.33461 C 110.28582,147.46041 105.26412,152.59029 98.771908,155.24738 C 94.825754,157.71741 91.090485,160.50863 87.042871,162.81733 C 78.800099,168.76442 69.739952,173.65822 62.337322,180.71182 C 56.577194,185.07334 51.736678,190.47773 46.627629,195.52719 C 44.679457,199.50288 70.332394,175.40491 80.439427,174.09598 C 81.248139,176.08816 77.942864,183.1344 81.934156,179.46673 C 85.469234,175.61609 88.027224,171.02003 90.793644,166.61868 C 93.34368,162.94949 96.30583,159.44437 100.24646,157.23599 C 103.82083,154.96354 107.21139,152.06944 111.37388,150.97054 C 113.77114,152.10572 110.08841,156.37884 109.57389,158.66251 C 108.28514,160.89284 111.71275,155.9699 112.73693,155.49626 C 117.78699,150.91019 123.75324,146.79152 126.4669,140.27423 C 129.03547,137.25122 124.781,137.96247 122.98418,139.50882 C 120.70413,140.94576 118.69333,142.7561 116.51504,144.33461 z"
       id="path3225"
       sodipodi:nodetypes="ccccccccccccccc" />
  </g>
</svg>
