<?xml version="1.0" encoding="UTF-8" standalone="no"?>
<!-- Created with Inkscape (http://www.inkscape.org/) -->
<svg
   xmlns:dc="http://purl.org/dc/elements/1.1/"
   xmlns:cc="http://creativecommons.org/ns#"
   xmlns:rdf="http://www.w3.org/1999/02/22-rdf-syntax-ns#"
   xmlns:svg="http://www.w3.org/2000/svg"
   xmlns="http://www.w3.org/2000/svg"
   xmlns:sodipodi="http://sodipodi.sourceforge.net/DTD/sodipodi-0.dtd"
   xmlns:inkscape="http://www.inkscape.org/namespaces/inkscape"
   width="256"
   height="256"
   id="svg2"
   sodipodi:version="0.32"
   inkscape:version="0.46"
   sodipodi:docname="cherry.svg"
   inkscape:output_extension="org.inkscape.output.svg.inkscape"
   inkscape:export-filename="P:\pidgey2\data\images\cherry.png"
   inkscape:export-xdpi="90"
   inkscape:export-ydpi="90"
   version="1.0">
  <defs
     id="defs4">
    <inkscape:perspective
       sodipodi:type="inkscape:persp3d"
       inkscape:vp_x="0 : 125 : 1"
       inkscape:vp_y="0 : 1000 : 0"
       inkscape:vp_z="250 : 125 : 1"
       inkscape:persp3d-origin="125 : 83.333333 : 1"
       id="perspective3645" />
  </defs>
  <sodipodi:namedview
     id="base"
     pagecolor="#cb90ff"
     bordercolor="#666666"
     borderopacity="1.0"
     gridtolerance="10000"
     guidetolerance="10"
     objecttolerance="10"
     inkscape:pageopacity="0"
     inkscape:pageshadow="2"
     inkscape:zoom="1.1950105"
     inkscape:cx="-36.006663"
     inkscape:cy="176.54778"
     inkscape:document-units="px"
     inkscape:current-layer="layer1"
     showgrid="false"
     inkscape:window-width="1680"
     inkscape:window-height="995"
     inkscape:window-x="0"
     inkscape:window-y="21" />
  <metadata
     id="metadata7">
    <rdf:RDF>
      <cc:Work
         rdf:about="">
        <dc:format>image/svg+xml</dc:format>
        <dc:type
           rdf:resource="http://purl.org/dc/dcmitype/StillImage" />
      </cc:Work>
    </rdf:RDF>
  </metadata>
  <g
     inkscape:label="Layer 1"
     inkscape:groupmode="layer"
     id="layer1">
    <path
       style="opacity:1;fill:#008000;fill-opacity:1;stroke:#000000;stroke-width:1.79104185;stroke-miterlimit:4;stroke-dasharray:none;stroke-opacity:1"
       d="M 153.82453,78.092975 C 157.25091,80.230393 159.82131,83.886727 163.94571,84.780255 C 173.73296,85.917054 188.95283,81.36146 188.79884,69.57274 C 187.51047,67.963838 185.25674,67.985297 183.44274,67.394378 C 168.51446,63.187341 164.8474,72.620877 153.82453,78.092975 z"
       id="path3257"
       sodipodi:nodetypes="ccccc"
       inkscape:transform-center-x="-23.963434"
       inkscape:transform-center-y="-2.2262193" />
    <path
       style="opacity:1;fill:#008000;fill-opacity:1;stroke:#000000;stroke-width:1.79104185;stroke-miterlimit:4;stroke-dasharray:none;stroke-opacity:1"
       d="M 88.194156,160.61339 C 84.342407,159.39987 80.939962,156.50174 76.723123,156.66706 C 66.962256,158.01172 53.363376,166.22562 56.457976,177.60195 C 58.107468,178.83792 60.284353,178.25403 62.188463,178.37297 C 77.694421,178.71664 78.888134,168.66607 88.194156,160.61339 z"
       id="path3253"
       sodipodi:nodetypes="ccccc"
       inkscape:transform-center-x="22.417452"
       inkscape:transform-center-y="8.3264821" />
    <path
       style="opacity:1;fill:#008000;fill-opacity:1;stroke:#000000;stroke-width:1.79104185;stroke-miterlimit:4;stroke-dasharray:none;stroke-opacity:1"
       d="M 97.298917,95.299286 C 98.57271,91.467047 101.52385,88.110483 101.42469,83.891568 C 100.23331,74.110815 92.233742,60.384765 80.810252,63.300531 C 79.54857,64.930439 80.098236,67.116213 79.94945,69.018219 C 79.362595,84.516885 89.393203,85.868101 97.298917,95.299286 z"
       id="path3251"
       sodipodi:nodetypes="ccccc" />
    <path
       style="opacity:1;fill:#008000;fill-opacity:1;stroke:#000000;stroke-width:1.79104185;stroke-miterlimit:4;stroke-dasharray:none;stroke-opacity:1"
       d="M 91.956987,98.956244 C 90.683196,95.124005 87.732054,91.76744 87.831212,87.548521 C 89.022597,77.767768 97.022162,64.041718 108.44565,66.957484 C 109.70733,68.587391 109.15767,70.773166 109.30645,72.675172 C 109.89331,88.173838 99.862702,89.525056 91.956987,98.956244 z"
       id="path3239"
       sodipodi:nodetypes="ccccc" />
    <path
       style="opacity:1;fill:#502d16;fill-opacity:1;stroke:#000000;stroke-width:1.18900657;stroke-miterlimit:4;stroke-dasharray:none;stroke-opacity:1"
       d="M 125.46339,129.29611 C 69.532473,130.77749 63.593977,119.5495 10.343884,112.98791 C 52.011178,112.39716 2.3457736,109.09892 52.921055,112.93121 C 39.051031,66.729486 46.761432,74.770725 34.404343,49.315954 C 44.577389,59.163295 60.303258,97.254701 67.290224,110.75786 C 83.819959,107.37213 100.17441,111.62893 123.69594,111.2311 C 157.5443,112.2434 134.55554,41.706226 141.93912,5.3618004 C 149.42479,33.540952 149.43347,76.433788 154.18141,106.93808 C 294.55707,74.140149 200.20985,82.873089 155.35495,141.68016 C 143.47674,157.25313 177.7931,233.78304 173.06777,246.85899 C 145.05528,165.89245 146.58786,174.50068 145.11574,157.14569 C 141.67275,143.27289 125.45386,174.98981 119.11956,178.11862 C 88.196836,214.23867 84.857807,212.95545 61.917954,240.21338 C 88.307524,203.26129 76.12923,220.92294 89.372134,199.20085 C 54.566654,200.22257 71.07583,197.43665 49.292877,200.81902 C 63.128351,196.0987 72.741116,192.95938 90.514474,192.4829 C 108.32609,176.18756 128.39694,161.84005 136.91923,138.81867 C 138.79523,130.73532 128.7706,127.43871 125.46339,129.29611 z"
       id="path3179"
       sodipodi:nodetypes="ccccccccsccccccccc" />
    <path
       style="opacity:1;fill:#008000;fill-opacity:1;stroke:#000000;stroke-width:1.79104185;stroke-miterlimit:4;stroke-dasharray:none;stroke-opacity:1"
       d="M 152.79515,113.91579 C 149.2379,115.82747 144.78771,116.24168 141.96319,119.37714 C 136.11413,127.30628 132.50622,142.7782 142.81362,148.50141 C 144.85,148.18263 145.95107,146.21606 147.36513,144.93534 C 158.43287,134.06989 152.06779,126.20067 152.79515,113.91579 z"
       id="path3263"
       sodipodi:nodetypes="ccccc"
       inkscape:transform-center-x="11.077351"
       inkscape:transform-center-y="22.803489" />
    <path
       style="opacity:1;fill:#008000;fill-opacity:1;stroke:#000000;stroke-width:1.79104185;stroke-miterlimit:4;stroke-dasharray:none;stroke-opacity:1"
       d="M 80.831524,159.69773 C 78.048619,162.62417 73.950011,164.40663 72.245174,168.26701 C 69.163031,177.6256 70.564273,193.45071 82.143041,195.671 C 83.978201,194.73257 84.410485,192.52059 85.354188,190.86252 C 92.477866,177.0855 83.974695,171.59596 80.831524,159.69773 z"
       id="path3255"
       sodipodi:nodetypes="ccccc"
       inkscape:transform-center-x="2.8709511"
       inkscape:transform-center-y="24.285748" />
    <path
       style="opacity:1;fill:#e9afaf;fill-opacity:1;stroke:#000000;stroke-width:1.79104185;stroke-miterlimit:4;stroke-dasharray:none;stroke-opacity:1"
       d="M 63.134549,71.4148 C 57.46001,68.072023 49.576866,70.260688 46.217369,75.872154 C 42.516193,80.876531 42.466649,88.652737 47.029019,93.150375 C 48.889994,98.655122 40.574284,97.50764 38.3102,100.87621 C 32.85001,105.72239 29.972126,114.10091 33.031341,120.99763 C 36.059758,123.59436 41.354951,125.64443 38.908693,130.63978 C 37.883486,135.6587 36.67565,142.10978 41.138782,145.87555 C 45.878734,149.53575 53.47721,147.47455 57.114533,152.90233 C 60.166738,156.90274 64.820634,160.9307 70.239468,159.71762 C 76.231315,159.12842 82.058063,155.41689 84.431722,149.77273 C 88.254057,146.29424 93.024317,142.35074 92.719535,136.6389 C 92.87802,131.54145 90.516254,126.08672 93.276579,121.30487 C 95.472254,116.15626 98.323722,109.86793 94.941154,104.56871 C 92.430547,99.946122 91.398539,94.599137 91.99316,89.38063 C 91.94156,84.551986 89.894351,78.95619 84.882606,77.360883 C 80.525619,75.071798 77.922165,69.263368 72.459012,69.371787 C 69.28636,69.761156 66.436633,72.040604 63.134549,71.4148 z"
       id="path3180" />
    <path
       style="opacity:1;fill:#e9afaf;fill-opacity:1;stroke:#000000;stroke-width:1.79104185;stroke-miterlimit:4;stroke-dasharray:none;stroke-opacity:1"
       d="M 155.36636,31.063388 C 147.0214,31.078785 139.49702,26.220077 131.14984,26.39796 C 126.65686,26.782681 123.1564,30.520206 122.09362,34.755518 C 120.63091,39.589756 120.01777,44.719686 117.51286,49.190647 C 115.50735,53.728007 113.52153,58.764603 114.73132,63.79228 C 116.83507,67.477547 121.42956,63.772731 124.32689,65.757995 C 127.89235,68.72244 127.99371,74.080289 131.3518,77.264038 C 134.21392,80.91314 136.97598,76.997034 138.85926,74.657907 C 141.7984,72.266705 143.33003,77.239893 145.87135,78.077865 C 149.39176,80.525333 154.42206,80.391628 157.6221,77.444465 C 160.50079,74.978627 162.67816,70.215498 167.238,71.812946 C 171.5577,72.574625 177.12328,72.317483 179.61623,68.105822 C 181.61739,63.514013 181.86576,58.367934 181.95472,53.425109 C 181.81557,47.422976 179.02228,40.645833 172.88802,38.634761 C 168.64616,37.615322 165.85771,34.419259 163.40099,31.09153 C 161.15637,28.584136 157.62917,28.735191 155.36636,31.063388 z"
       id="path3182" />
    <path
       style="opacity:1;fill:#e9afaf;fill-opacity:1;stroke:#000000;stroke-width:1.79104185;stroke-miterlimit:4;stroke-dasharray:none;stroke-opacity:1"
       d="M 126.54391,75.898291 C 122.3965,71.89039 115.85249,73.845486 111.66832,76.762962 C 107.80498,79.747262 107.3771,85.021176 107.35157,89.529548 C 104.9585,94.328 98.178501,89.113845 95.449446,93.445916 C 92.238152,97.34842 94.101984,102.47949 94.639212,106.9234 C 95.354883,114.65131 89.521347,121.5137 90.96986,129.28939 C 93.52199,133.93477 99.548308,130.5993 103.35554,132.95913 C 110.161,136.10309 117.82225,140.08612 125.46861,137.46599 C 129.60151,136.07521 132.63416,132.46177 133.96254,128.39174 C 136.36362,122.48003 140.76437,128.89675 144.10006,130.11242 C 148.92988,130.83343 152.317,126.27263 154.55756,122.59448 C 158.59384,117.14455 159.96904,110.13051 164.49673,105.02589 C 168.07714,101.60079 173.47229,98.3324 173.08503,92.673216 C 172.69224,87.365049 168.7979,81.83353 163.18073,81.378091 C 158.1074,83.029519 153.61406,78.710802 151.25662,74.672635 C 147.8599,71.306959 145.2587,64.046127 139.27183,66.076475 C 134.32129,67.56587 128.64527,69.968571 126.83306,75.264569 L 126.54391,75.898291 L 126.54391,75.898291 z"
       id="path3184" />
    <path
       style="opacity:1;fill:#e9afaf;fill-opacity:1;stroke:#000000;stroke-width:1.79104185;stroke-miterlimit:4;stroke-dasharray:none;stroke-opacity:1"
       d="M 95.799977,143.79114 C 90.365443,145.9949 83.633084,147.82817 81.163347,153.77476 C 79.704977,157.46394 78.01974,161.98485 80.437268,165.65694 C 85.155662,165.65395 85.086304,172.24958 82.314979,174.74133 C 79.87355,178.3092 79.630622,183.67254 83.103511,186.67105 C 86.070826,189.45493 90.253112,190.46394 94.215976,190.64506 C 97.458606,194.84096 99.362356,200.79807 104.82736,202.66599 C 111.5865,205.57464 119.86084,207.47828 126.67272,203.71093 C 129.6227,201.61555 128.61399,196.67841 132.08616,195.16833 C 135.4346,194.7509 139.13477,197.76312 142.20653,195.29326 C 146.57956,192.07463 146.89521,186.19237 146.83774,181.23233 C 146.09388,171.45247 140.22937,163.19329 135.27843,155.0802 C 132.03693,150.46324 128.64047,145.49888 123.58514,142.74883 C 119.09176,141.00584 113.94287,142.035 109.89095,144.43164 C 106.24538,143.08368 102.1664,138.18501 98.26537,141.73398 C 97.440985,142.41636 96.695754,143.19756 95.799977,143.79114 z"
       id="path3186" />
    <path
       style="opacity:1;fill:#008000;fill-opacity:1;stroke:#000000;stroke-width:1.79104185;stroke-miterlimit:4;stroke-dasharray:none;stroke-opacity:1"
       d="M 165.07277,191.3641 C 161.46675,193.18211 157.00724,193.47981 154.10169,196.54034 C 148.0473,204.31381 144.03605,219.68611 154.19027,225.67689 C 156.23428,225.41146 157.38639,223.47435 158.83346,222.23106 C 170.18154,211.65873 164.02441,203.62576 165.07277,191.3641 z"
       id="path3261"
       sodipodi:nodetypes="ccccc"
       inkscape:transform-center-x="11.725441"
       inkscape:transform-center-y="22.57607" />
    <path
       style="opacity:1;fill:#008000;fill-opacity:1;stroke:#000000;stroke-width:1.79104185;stroke-miterlimit:4;stroke-dasharray:none;stroke-opacity:1"
       d="M 159.56684,196.1709 C 159.08217,200.1801 156.85899,204.05738 157.79679,208.17193 C 160.91313,217.51919 171.48723,229.37608 182.10068,224.24263 C 183.01232,222.39401 182.03814,220.36159 181.80497,218.46807 C 179.29191,203.16326 169.19321,203.83774 159.56684,196.1709 z"
       id="path3259"
       sodipodi:nodetypes="ccccc"
       inkscape:transform-center-x="-13.002933"
       inkscape:transform-center-y="20.615573" />
    <path
       style="opacity:1;fill:#008000;fill-opacity:1;stroke:#000000;stroke-width:1.79104185;stroke-miterlimit:4;stroke-dasharray:none;stroke-opacity:1"
       d="M 154.9793,112.7353 C 152.99439,116.25221 149.45445,118.98069 148.74289,123.14034 C 148.03695,132.96808 153.25643,147.97323 165.02702,147.30175 C 166.5778,145.94398 166.4574,143.69336 166.9681,141.85517 C 170.51558,126.75655 160.93014,123.50725 154.9793,112.7353 z"
       id="path3265"
       sodipodi:nodetypes="ccccc"
       inkscape:transform-center-x="-3.2925364"
       inkscape:transform-center-y="23.773233" />
    <path
       style="opacity:1;fill:#e9afaf;fill-opacity:1;stroke:#000000;stroke-width:1.79104185;stroke-miterlimit:4;stroke-dasharray:none;stroke-opacity:1"
       d="M 213.65172,150.19613 C 204.45934,151.32442 195.37393,148.81623 186.25021,148.10676 C 182.41754,147.67022 177.07344,146.81411 174.80046,150.79849 C 172.39231,154.3471 172.65431,158.88949 173.49717,162.86107 C 172.33359,168.51151 165.93978,164.5954 162.71719,163.36274 C 156.75232,161.92285 149.27688,164.5617 147.46089,170.89027 C 145.84018,176.15722 147.01826,181.97857 144.51334,187.03438 C 142.73708,192.09673 140.02246,197.72099 142.11375,203.08912 C 144.79629,207.50286 150.82834,207.41941 155.24605,206.21887 C 159.595,205.06686 164.34794,203.47201 168.75198,205.28182 C 173.67352,206.35921 177.51451,201.58667 178.38434,197.2124 C 178.71238,192.52548 183.54931,189.91866 187.09682,193.41474 C 190.41067,195.83221 194.83338,195.27947 197.8713,192.7083 C 202.30577,189.29495 205.10358,183.96063 205.9687,178.49663 C 206.69989,173.19374 212.26276,173.93892 215.30168,176.70289 C 219.10803,179.26619 224.14572,176.20215 224.61531,171.88253 C 225.88517,165.94023 224.34828,159.15888 219.44795,155.24838 C 217.40871,153.69511 215.29241,152.19801 213.65172,150.19613 z"
       id="path3188" />
    <path
       style="opacity:1;fill:#e9afaf;fill-opacity:1;stroke:#000000;stroke-width:1.79104185;stroke-miterlimit:4;stroke-dasharray:none;stroke-opacity:1"
       d="M 177.67488,80.490705 C 171.64106,81.425078 162.0629,82.171909 155.25742,86.255194 C 149.91963,89.457876 145.18286,99.879083 149.49294,104.18915 C 155.24855,109.94477 154.3014,104.82019 149.49294,114.43713 C 145.19418,123.03464 147.19944,130.9041 155.25742,134.93309 C 157.74724,136.17799 160.99931,135.32643 163.5839,134.29259 C 167.15753,132.86314 165.70561,141.73849 167.4269,145.18107 C 170.52929,151.38584 180.61633,151.65131 186.00135,150.30505 C 195.31402,147.97689 190.11517,147.83162 198.81133,154.78855 C 207.08456,161.40713 215.94279,157.03405 219.30729,150.30505 C 223.00083,142.91796 220.35506,136.27153 218.02629,130.4496 C 215.06018,123.03431 217.12586,113.02617 208.41881,108.67264 C 201.93142,105.42895 204.43413,100.95269 201.37332,93.300682 C 198.97174,87.296719 194.01529,84.271188 187.92285,83.0527 C 183.94703,82.257536 181.08675,83.049617 177.67488,80.490705 z"
       id="path3237" />
    <path
       style="opacity:1;fill:#ff8080;fill-opacity:1;stroke:none;stroke-width:2.33999991;stroke-miterlimit:4;stroke-dasharray:none;stroke-opacity:1"
       d="M 156.64734,38.108872 C 154.33563,35.671794 149.48329,33.625381 144.47788,33.625381 C 141.20139,33.625381 137.07059,33.625381 135.51089,33.625381 C 131.67223,33.625381 129.87309,30.556638 128.4654,36.187376 C 127.87917,38.532313 125.5677,41.342311 124.62241,43.232861 C 123.24014,45.997418 122.70092,46.808291 122.70092,50.918845 C 122.70092,55.733646 128.9555,48.507264 130.3869,47.075852 C 132.56039,44.902365 132.79863,43.345566 135.51089,41.311366 C 137.34337,39.937012 142.03693,40.70113 144.47788,41.311366 C 148.03394,42.200382 147.91652,43.87336 152.16386,43.87336 C 163.61914,43.87336 154.70462,36.554697 159.84984,40.670867 C 160.91733,41.524864 158.01441,38.108872 156.64734,38.108872 z"
       id="path3267" />
    <path
       style="opacity:1;fill:#ff8080;fill-opacity:1;stroke:none;stroke-width:2.33999991;stroke-miterlimit:4;stroke-dasharray:none;stroke-opacity:1"
       d="M 86.192498,87.427266 C 84.590788,86.494752 78.150685,83.335192 74.023025,82.303277 C 72.687676,81.96944 69.70685,78.6276 68.899036,77.819786 C 66.280219,75.20097 64.646176,74.578855 60.572554,75.257791 C 56.845089,75.879036 55.960596,78.631574 54.167568,81.02228 C 51.237162,84.929487 56.8287,83.584274 59.932055,83.584274 C 64.038018,83.584274 65.5327,83.502352 68.258537,84.865271 C 70.513741,85.992872 73.922847,86.121224 76.585019,86.786767 C 79.783018,87.586267 83.036393,87.427266 86.192498,87.427266 z"
       id="path3271" />
    <path
       style="opacity:1;fill:#ff8080;fill-opacity:1;stroke:none;stroke-width:2.33999991;stroke-miterlimit:4;stroke-dasharray:none;stroke-opacity:1"
       d="M 104.76696,97.675247 C 108.23901,98.543258 101.56447,104.34432 101.56447,107.92322 C 101.56447,111.66716 100.72382,113.92791 102.20497,116.8902 C 103.42669,119.33366 109.42773,120.82184 111.81244,122.0142 C 117.59478,124.90535 110.51789,119.43864 109.25045,118.1712 C 107.36015,116.2809 107.31014,111.05046 106.68846,108.56372 C 105.79539,104.99148 107.49236,103.76655 106.04795,100.87773 C 105.53378,99.849388 105.19395,98.74274 104.76696,97.675247 z"
       id="path3273" />
    <path
       style="opacity:1;fill:#ff8080;fill-opacity:1;stroke:none;stroke-width:2.33999991;stroke-miterlimit:4;stroke-dasharray:none;stroke-opacity:1"
       d="M 186.75078,97.675247 C 186.18066,96.534992 177.19686,96.047222 173.94081,97.675247 C 170.01016,99.640569 166.51674,102.27541 164.97383,105.36123 C 163.10391,109.10106 162.34676,110.42015 164.97383,113.04721 C 166.63755,114.71093 173.24355,112.11484 173.94081,111.76621 C 176.18721,110.64301 178.60818,107.73934 180.3458,106.00172 C 182.2524,104.09512 185.5068,104.72073 188.67228,104.72073 C 192.74536,104.72073 192.44589,101.24076 191.87477,98.956244 C 191.55843,97.69086 187.05411,97.675247 186.75078,97.675247 z"
       id="path3275" />
    <path
       style="opacity:1;fill:#ff8080;fill-opacity:1;stroke:none;stroke-width:2.33999991;stroke-miterlimit:4;stroke-dasharray:none;stroke-opacity:1"
       d="M 189.31278,160.44411 C 188.64952,157.79109 180.28332,162.25233 178.4243,163.6466 C 175.29325,165.99489 177.82835,171.42168 178.4243,172.61358 C 181.05373,177.87244 187.87661,170.5658 189.31278,168.77059 C 192.28171,165.05942 192.03406,164.2871 196.99876,164.2871 C 202.06306,164.2871 202.83043,163.14046 201.48225,160.44411 C 200.48114,158.44187 194.05143,159.1631 191.87477,159.1631 C 190.91997,159.1631 190.16677,160.0171 189.31278,160.44411 z"
       id="path3277" />
    <path
       style="opacity:1;fill:#ff8080;fill-opacity:1;stroke:none;stroke-width:2.33999991;stroke-miterlimit:4;stroke-dasharray:none;stroke-opacity:1"
       d="M 124.62241,155.96062 C 121.06907,155.96062 119.10268,151.05794 115.65544,150.19613 C 112.4767,149.40145 108.73679,149.52392 106.04795,150.19613 C 102.74953,151.02074 99.689651,150.49304 97.721474,151.47712 C 94.402111,153.13681 94.474781,159.81466 99.642969,158.52261 C 104.23145,157.3755 105.84644,155.32012 110.53144,155.32012 C 114.22019,155.32012 116.32292,157.08824 119.49843,157.88212 C 122.43303,158.61576 120.11724,159.56475 124.62241,155.96062 z"
       id="path3279" />
    <path
       style="opacity:1;fill:#ffd5d5;fill-opacity:1;stroke:none;stroke-width:2.33999991;stroke-miterlimit:4;stroke-dasharray:none;stroke-opacity:1"
       d="M 49.684077,130.34067 C 49.084579,127.34319 47.021186,136.34207 47.762582,139.30766 C 48.389601,141.81574 54.33741,143.19311 56.729562,143.79114 C 61.245674,144.92017 61.485978,146.80434 62.494049,150.83663 C 63.035277,153.00154 67.109876,153.59184 68.899036,154.03912 C 72.245049,154.87563 68.399411,146.49401 68.258537,146.35314 C 66.318349,144.41295 64.042881,143.41848 62.494049,141.86965 C 59.770907,139.1465 58.750205,136.84481 56.729562,134.82416 C 55.103832,133.19843 52.166265,132.82286 49.684077,130.34067 z"
       id="path3283" />
    <path
       style="opacity:1;fill:#ffd5d5;fill-opacity:1;stroke:none;stroke-width:2.33999991;stroke-miterlimit:4;stroke-dasharray:none;stroke-opacity:1"
       d="M 96.440476,180.29956 C 93.941529,177.80061 100.92397,186.373 100.92397,189.90704 C 100.92397,193.82011 102.00569,195.25165 105.40746,196.95253 C 108.95305,198.72533 111.25845,199.01252 114.37444,198.23353 C 117.35986,197.48717 119.3645,194.52447 120.77942,193.10954 C 123.68068,190.20828 123.83175,191.78874 124.62241,188.62605 C 125.33143,185.78997 113.96887,186.32557 112.45294,186.70455 C 108.42098,187.71254 107.48698,190.06507 104.12646,186.70455 C 101.3623,183.94039 101.21747,182.68806 96.440476,180.29956 z"
       id="path3285" />
    <path
       style="opacity:1;fill:#ffd5d5;fill-opacity:1;stroke:none;stroke-width:2.33999991;stroke-miterlimit:4;stroke-dasharray:none;stroke-opacity:1"
       d="M 166.89532,190.54755 C 164.07503,187.72725 159.35485,193.75004 155.36635,193.75004 C 152.04042,193.75004 148.14127,193.79493 145.75887,194.39053 C 143.18028,195.03517 145.70568,200.30185 147.68037,200.79552 C 150.5621,201.51595 154.21662,198.87402 157.92835,198.87402 C 161.83058,198.87402 163.86984,198.3494 166.89532,197.59303 C 168.58757,197.16997 166.95375,190.83967 166.89532,190.54755 z"
       id="path3287" />
    <path
       style="opacity:1;fill:#ffd5d5;fill-opacity:1;stroke:none;stroke-width:2.33999991;stroke-miterlimit:4;stroke-dasharray:none;stroke-opacity:1"
       d="M 211.08973,125.21668 C 214.86941,124.27176 213.01122,132.84966 213.01122,136.74566 C 213.01122,141.13356 213.26767,143.11844 209.80873,145.71264 C 206.44177,148.23786 201.77415,148.10034 198.27976,146.35314 C 195.47863,144.95257 194.3237,143.70635 191.87477,141.86965 C 189.58213,140.15017 183.87771,140.11286 182.26729,139.30766 C 181.03853,138.69327 189.27975,135.63304 189.95327,135.46466 C 192.9389,134.71825 197.39505,135.56373 199.56075,136.10516 C 202.66642,136.88157 204.20801,137.94477 207.88723,136.10516 C 209.86331,135.11712 209.99144,130.89083 210.44923,129.05968 C 210.7642,127.79978 210.87623,126.49768 211.08973,125.21668 z"
       id="path3289" />
    <path
       style="opacity:1;fill:#ffd5d5;fill-opacity:1;stroke:none;stroke-width:2.33999991;stroke-miterlimit:4;stroke-dasharray:none;stroke-opacity:1"
       d="M 135.51089,77.179288 C 135.96973,75.343952 142.07445,85.182422 142.55638,86.146269 C 143.55601,88.145554 143.19687,93.11377 143.19687,95.113245 C 143.19687,98.572294 144.94335,100.17763 145.75887,103.43973 C 147.34579,109.78738 141.95792,103.52382 141.27537,102.15873 C 140.23807,100.0841 141.07141,94.937849 140.63488,93.191754 C 139.89723,90.241142 138.60675,87.64122 138.07289,85.505769 C 137.24401,82.190277 137.53814,80.558027 135.51089,77.179288 z"
       id="path3291" />
    <path
       style="opacity:1;fill:#ffd5d5;fill-opacity:1;stroke:none;stroke-width:2.33999991;stroke-miterlimit:4;stroke-dasharray:none;stroke-opacity:1"
       d="M 172.01931,51.559343 C 171.21378,48.337234 168.19594,57.799301 164.97383,58.604827 C 160.67181,59.680332 159.4727,61.581356 156.00685,62.44782 C 151.80422,63.498474 151.15965,63.555001 150.24236,59.885825 C 150.12294,59.408132 158.53206,56.701723 159.84984,56.042833 C 162.35504,54.79023 164.93379,52.880383 167.53583,50.278346 C 169.12268,48.691489 169.85652,50.261672 172.01931,51.559343 z"
       id="path3293" />
  </g>
</svg>
