<?xml version="1.0" encoding="UTF-8" standalone="no"?>
<!-- Created with Inkscape (http://www.inkscape.org/) -->
<svg
   xmlns:dc="http://purl.org/dc/elements/1.1/"
   xmlns:cc="http://creativecommons.org/ns#"
   xmlns:rdf="http://www.w3.org/1999/02/22-rdf-syntax-ns#"
   xmlns:svg="http://www.w3.org/2000/svg"
   xmlns="http://www.w3.org/2000/svg"
   xmlns:sodipodi="http://sodipodi.sourceforge.net/DTD/sodipodi-0.dtd"
   xmlns:inkscape="http://www.inkscape.org/namespaces/inkscape"
   width="250"
   height="250"
   id="svg2"
   sodipodi:version="0.32"
   inkscape:version="0.46"
   sodipodi:docname="daisy.svg"
   inkscape:output_extension="org.inkscape.output.svg.inkscape"
   inkscape:export-filename="P:\pidgey2\data\images\daisy.png"
   inkscape:export-xdpi="92.160004"
   inkscape:export-ydpi="92.160004"
   version="1.0">
  <defs
     id="defs4">
    <inkscape:perspective
       sodipodi:type="inkscape:persp3d"
       inkscape:vp_x="0 : 125 : 1"
       inkscape:vp_y="0 : 1000 : 0"
       inkscape:vp_z="250 : 125 : 1"
       inkscape:persp3d-origin="125 : 83.333333 : 1"
       id="perspective3645" />
  </defs>
  <sodipodi:namedview
     id="base"
     pagecolor="#cb90ff"
     bordercolor="#666666"
     borderopacity="1.0"
     gridtolerance="10000"
     guidetolerance="10"
     objecttolerance="10"
     inkscape:pageopacity="0"
     inkscape:pageshadow="2"
     inkscape:zoom="1.6900001"
     inkscape:cx="-26.157751"
     inkscape:cy="168.77436"
     inkscape:document-units="px"
     inkscape:current-layer="layer1"
     showgrid="false"
     inkscape:window-width="1680"
     inkscape:window-height="994"
     inkscape:window-x="0"
     inkscape:window-y="22"
     showguides="true"
     inkscape:guide-bbox="true" />
  <metadata
     id="metadata7">
    <rdf:RDF>
      <cc:Work
         rdf:about="">
        <dc:format>image/svg+xml</dc:format>
        <dc:type
           rdf:resource="http://purl.org/dc/dcmitype/StillImage" />
      </cc:Work>
    </rdf:RDF>
  </metadata>
  <g
     inkscape:label="Layer 1"
     inkscape:groupmode="layer"
     id="layer1">
    <path
       style="opacity:1;fill:#5aa02c;fill-opacity:1;stroke:#000000;stroke-width:1.56237316;stroke-miterlimit:4;stroke-dasharray:none;stroke-opacity:1"
       d="M 91.483113,15.258106 C 73.13908,8.5535992 60.784792,25.194093 52.410469,38.12444 C 37.194165,49.508184 15.279638,52.536532 4.5397059,69.514781 C 0.38768389,81.436853 5.8519591,95.410265 13.972359,104.59378 C 21.572795,115.32555 35.733068,125.66125 33.106381,140.39982 C 29.447331,157.68857 16.338177,174.73389 23.696163,192.90792 C 32.188184,205.96503 49.939376,208.48037 63.937268,212.15767 C 81.036864,212.0842 96.970022,218.27067 110.30356,228.78262 C 125.91038,238.6639 145.70921,232.21017 160.92229,224.72879 C 177.59238,216.07183 191.56051,203.22682 206.27541,191.8502 C 218.2856,186.98719 233.45348,185.00756 238.99438,171.34481 C 247.57372,155.82477 249.82458,135.54435 240.0232,120.01787 C 231.74473,103.08188 219.74472,88.371078 208.55973,73.390862 C 202.49683,60.875774 209.39045,42.85849 194.72731,34.844273 C 182.13072,26.872066 166.2917,27.260548 151.92143,27.696863 C 138.09769,30.703985 122.77162,35.589948 110.20534,25.795439 C 104.26073,21.82547 98.495914,17.195635 91.483113,15.258106 z"
       id="path3270" />
    <path
       style="opacity:1;fill:#44aa00;fill-opacity:1;stroke:#000000;stroke-width:1.56237316;stroke-miterlimit:4;stroke-dasharray:none;stroke-opacity:1"
       d="M 122.44654,200.94299 C 121.50637,194.40809 122.17665,187.60662 124.90838,181.66855 C 127.23808,176.08622 130.87239,170.98593 135.69558,167.42858 C 137.83368,165.74004 140.07508,167.80085 140.80755,169.96115 C 142.19929,172.66371 142.96417,175.62895 144.24992,178.37785 C 144.91062,183.1896 143.68126,187.97161 142.28608,192.48068 C 139.61391,199.16254 133.85868,203.64784 129.57881,209.14943 C 126.22334,219.80835 123.10531,205.15796 122.44654,200.94299 z"
       id="path3411"
       sodipodi:nodetypes="cccccccc" />
    <path
       style="opacity:1;fill:#225500;fill-opacity:1;stroke:#000000;stroke-width:1.56237316;stroke-miterlimit:4;stroke-dasharray:none;stroke-opacity:1"
       d="M 133.73093,201.34898 C 137.89282,196.39019 143.33781,192.49155 149.54098,190.73134 C 155.21158,188.8941 161.40924,188.36839 167.2771,189.75384 C 169.96022,190.29562 169.96098,193.34855 168.86985,195.31068 C 167.82586,198.12932 166.16578,200.6384 165.01622,203.40595 C 161.93038,207.03301 157.59022,209.19364 153.33843,211.05025 C 146.62951,213.33851 139.45116,211.8414 132.52305,212.13305 C 122.43358,216.47792 131.08186,204.58741 133.73093,201.34898 z"
       id="path3413"
       sodipodi:nodetypes="cccccccc"
       inkscape:export-xdpi="90"
       inkscape:export-ydpi="90" />
    <path
       style="opacity:1;fill:#ffffff;fill-opacity:0.22093021;stroke:none;stroke-width:2.33999991;stroke-miterlimit:4;stroke-dasharray:none;stroke-opacity:1"
       d="M 163.9872,198.54092 C 156.64039,192.42816 142.37497,204.49506 136.80386,208.99182 C 154.37855,207.27411 158.73522,205.50896 163.9872,198.54092 z"
       id="path3415"
       sodipodi:nodetypes="ccc" />
    <path
       style="opacity:1;fill:#ffffff;fill-opacity:0.2965116;stroke:none;stroke-width:2.33999991;stroke-miterlimit:4;stroke-dasharray:none;stroke-opacity:1"
       d="M 138.65556,192.42257 C 139.45758,189.81658 140.5499,187.247 140.56592,184.47413 C 140.74236,181.59946 140.67171,178.66857 140.10912,175.84135 C 139.63415,174.71768 138.83635,171.35088 137.3222,172.33477 C 136.1631,174.97034 134.32939,177.434 134.23075,180.42896 C 133.89148,184.11821 134.48615,188.10396 136.6203,191.19257 C 137.18794,191.76297 137.93907,192.08607 138.65556,192.42257 z"
       id="path3417" />
    <path
       style="opacity:1;fill:#44aa00;fill-opacity:1;stroke:#000000;stroke-width:1.56237316;stroke-miterlimit:4;stroke-dasharray:none;stroke-opacity:1"
       d="M 157.79514,44.149123 C 164.31286,45.201808 170.60445,47.871109 175.45683,52.250301 C 180.08965,56.139635 183.8731,61.130302 185.82913,66.795261 C 186.80273,69.339819 184.16697,70.864154 181.88653,70.918623 C 178.8918,71.440503 175.83341,71.285708 172.82608,71.692606 C 168.0364,70.887376 163.8391,68.287066 159.95177,65.609947 C 154.37171,61.065644 151.80813,54.234215 147.8343,48.507643 C 138.66226,42.12442 153.57562,43.520134 157.79514,44.149123 z"
       id="path3473"
       sodipodi:nodetypes="cccccccc" />
    <path
       style="opacity:1;fill:#225500;fill-opacity:1;stroke:#000000;stroke-width:1.56237316;stroke-miterlimit:4;stroke-dasharray:none;stroke-opacity:1"
       d="M 154.04037,54.798258 C 157.53134,60.250239 159.62758,66.610513 159.45655,73.056317 C 159.51798,79.016798 158.17035,85.088975 155.09705,90.27609 C 153.77931,92.675289 150.86524,91.765027 149.3181,90.138113 C 146.93941,88.300598 145.04,85.967435 142.74157,84.044405 C 140.20056,80.016843 139.43349,75.229685 138.9302,70.617586 C 138.74814,63.531496 142.31907,57.126935 144.10805,50.427426 C 142.97183,39.501116 151.73997,51.303523 154.04037,54.798258 z"
       id="path3475"
       sodipodi:nodetypes="cccccccc"
       inkscape:export-xdpi="90"
       inkscape:export-ydpi="90" />
    <path
       style="opacity:1;fill:#ffffff;fill-opacity:0.22093021;stroke:none;stroke-width:2.33999991;stroke-miterlimit:4;stroke-dasharray:none;stroke-opacity:1"
       d="M 147.69202,84.514001 C 155.71857,79.32596 148.45824,62.109683 145.82878,55.450562 C 142.22393,72.737126 142.60863,77.422029 147.69202,84.514001 z"
       id="path3477"
       sodipodi:nodetypes="ccc" />
    <path
       style="opacity:1;fill:#ffffff;fill-opacity:0.2965116;stroke:none;stroke-width:2.33999991;stroke-miterlimit:4;stroke-dasharray:none;stroke-opacity:1"
       d="M 161.09059,62.16217 C 163.33853,63.705274 165.46509,65.514602 168.10684,66.357315 C 170.79789,67.38352 173.61635,68.190667 176.48264,68.497353 C 177.69686,68.379326 181.14832,68.622529 180.66107,66.883762 C 178.49146,64.99102 176.68722,62.505692 173.85814,61.517845 C 170.43821,60.09316 166.4566,59.471396 162.87187,60.58667 C 162.15807,60.958241 161.62557,61.578737 161.09059,62.16217 z"
       id="path3479" />
    <path
       style="opacity:1;fill:#44aa00;fill-opacity:1;stroke:#000000;stroke-width:1.56237316;stroke-miterlimit:4;stroke-dasharray:none;stroke-opacity:1"
       d="M 30.406116,82.70107 C 36.923836,83.753751 43.215426,86.423049 48.06781,90.802247 C 52.700627,94.69158 56.484074,99.682244 58.440105,105.3472 C 59.41371,107.89177 56.777953,109.4161 54.49751,109.47056 C 51.502775,109.99245 48.444389,109.83766 45.437054,110.24455 C 40.647379,109.43932 36.450077,106.83901 32.562753,104.16189 C 26.98269,99.617587 24.419103,92.786162 20.44528,87.059585 C 11.273242,80.676364 26.186601,82.072077 30.406116,82.70107 z"
       id="path3481"
       sodipodi:nodetypes="cccccccc" />
    <path
       style="opacity:1;fill:#ffffff;fill-opacity:0.2965116;stroke:none;stroke-width:2.33999991;stroke-miterlimit:4;stroke-dasharray:none;stroke-opacity:1"
       d="M 33.701569,100.71412 C 35.94951,102.25722 38.076066,104.06655 40.717826,104.90926 C 43.408873,105.93546 46.227328,106.74261 49.093622,107.04929 C 50.307833,106.93127 53.759302,107.17448 53.272055,105.43571 C 51.10244,103.54297 49.298199,101.05764 46.469121,100.06979 C 43.049193,98.645108 39.067579,98.023337 35.482848,99.138618 C 34.76905,99.510184 34.236547,100.13068 33.701569,100.71412 z"
       id="path3487" />
    <g
       id="g3294"
       transform="matrix(0.6676808,0,0,0.6676808,40.678505,40.415999)">
      <path
         sodipodi:nodetypes="cssss"
         id="path3246"
         d="M 87.175809,52.305578 C 100.52897,51.835162 113.03092,57.248908 115.68451,68.7867 C 120.4677,89.583987 87.24319,83.10357 82.192101,63.184882 C 81.297507,59.657104 83.325367,55.746918 85.495834,52.802171 C 85.850552,52.320911 86.541689,52.327914 87.175809,52.305578 z"
         style="fill:#ffffff;fill-opacity:1;stroke:#000000;stroke-width:2.34000015;stroke-miterlimit:4;stroke-dasharray:none;stroke-opacity:1" />
      <path
         sodipodi:nodetypes="ccccc"
         id="path3286"
         d="M 112.71443,75.236715 C 113.50715,72.949764 113.12454,70.470631 112.68081,68.15344 C 111.29289,63.454623 108.49929,60.84025 105.41778,59.119849 C 101.60343,57.087273 96.891323,55.877277 92.763711,56.051561 C 102.21082,59.352255 107.6309,66.705364 112.71443,75.236715 z"
         style="opacity:1;fill:#000000;fill-opacity:0.11627909;stroke:none;stroke-width:2.33999991;stroke-miterlimit:4;stroke-dasharray:none;stroke-opacity:1" />
      <path
         sodipodi:nodetypes="cssss"
         id="path3244"
         d="M 82.190647,59.434002 C 91.595743,68.924646 96.100571,81.782092 89.424749,91.559399 C 77.391343,109.18333 59.610836,80.378518 70.817032,63.153849 C 72.80175,60.10321 77.050142,58.940084 80.686048,58.536726 C 81.280256,58.470798 81.744013,58.983294 82.190647,59.434002 z"
         style="fill:#ffffff;fill-opacity:1;stroke:#000000;stroke-width:2.34000015;stroke-miterlimit:4;stroke-dasharray:none;stroke-opacity:1" />
      <path
         sodipodi:nodetypes="czzzz"
         id="path3232"
         d="M 72.584457,61.255102 C 71.966331,68.531012 69.09822,86.863521 50.984678,88.22659 C 32.871141,89.58964 48.175681,55.699516 61.345071,54.424872 C 74.51445,53.150245 70.546557,57.870036 72.255648,59.44008 C 73.964743,61.010114 73.202581,53.979193 72.584457,61.255102 z"
         style="fill:#ffffff;fill-opacity:1;stroke:#000000;stroke-width:2.5080874;stroke-miterlimit:4;stroke-dasharray:none;stroke-opacity:1" />
      <path
         sodipodi:nodetypes="cssss"
         id="path3234"
         d="M 64.175604,49.040993 C 57.971044,60.874486 47.076188,69.054327 35.738563,65.645459 C 15.302078,59.500851 37.386566,33.84663 57.192453,39.323366 C 60.700259,40.293352 63.092896,43.991585 64.576212,47.335581 C 64.818622,47.882079 64.470248,48.479039 64.175604,49.040993 z"
         style="fill:#ffffff;fill-opacity:1;stroke:#000000;stroke-width:2.34000015;stroke-miterlimit:4;stroke-dasharray:none;stroke-opacity:1" />
      <path
         sodipodi:nodetypes="cssss"
         id="path3236"
         d="M 63.145225,43.785005 C 49.94512,45.855175 36.883636,41.981546 32.864034,30.845799 C 25.618554,10.773193 59.380793,13.217866 66.786732,32.386058 C 68.098395,35.780927 66.554646,39.906276 64.753421,43.090313 C 64.459051,43.610675 63.772071,43.686697 63.145225,43.785005 z"
         style="fill:#ffffff;fill-opacity:1;stroke:#000000;stroke-width:2.34000015;stroke-miterlimit:4;stroke-dasharray:none;stroke-opacity:1" />
      <path
         sodipodi:nodetypes="cssss"
         id="path3238"
         d="M 69.154893,38.013461 C 60.023504,28.259181 55.886155,15.278814 62.837335,5.6953174 C 75.367083,-11.579269 92.321216,17.719557 80.6297,34.61856 C 78.559028,37.611522 74.279276,38.653357 70.633369,38.953157 C 70.037527,39.002149 69.588529,38.476677 69.154893,38.013461 z"
         style="fill:#ffffff;fill-opacity:1;stroke:#000000;stroke-width:2.34000015;stroke-miterlimit:4;stroke-dasharray:none;stroke-opacity:1" />
      <path
         sodipodi:nodetypes="cssss"
         id="path3240"
         d="M 78.7496,38.452098 C 77.323071,25.167017 81.8266,12.309106 93.144472,8.8351728 C 113.54532,2.5732839 109.46351,36.176905 89.958202,42.643015 C 86.503633,43.788218 82.458132,42.04592 79.365355,40.092148 C 78.859906,39.772846 78.817342,39.082985 78.7496,38.452098 z"
         style="fill:#ffffff;fill-opacity:1;stroke:#000000;stroke-width:2.34000015;stroke-miterlimit:4;stroke-dasharray:none;stroke-opacity:1" />
      <path
         sodipodi:nodetypes="cssss"
         id="path3242"
         d="M 84.3411,39.817149 C 95.256256,32.110816 108.6816,29.79401 117.22046,37.994631 C 132.61204,52.776548 101.26369,65.549362 86.129104,51.649292 C 83.448633,49.187461 83.004,44.805225 83.207396,41.15268 C 83.240638,40.555746 83.822754,40.183114 84.3411,39.817149 z"
         style="fill:#ffffff;fill-opacity:1;stroke:#000000;stroke-width:2.34000015;stroke-miterlimit:4;stroke-dasharray:none;stroke-opacity:1" />
      <path
         transform="matrix(-1.0989718,-1.1832579,1.1821872,-1.1032736,79.266239,200.31103)"
         d="M 79.49721,60.46191 A 9.6233463,8.7865343 0 1 1 60.250517,60.46191 A 9.6233463,8.7865343 0 1 1 79.49721,60.46191 z"
         sodipodi:ry="8.7865343"
         sodipodi:rx="9.6233463"
         sodipodi:cy="60.46191"
         sodipodi:cx="69.873863"
         id="path3248"
         style="fill:#ffff00;fill-opacity:1;stroke:#000000;stroke-width:1.4778322;stroke-miterlimit:4;stroke-dasharray:none;stroke-opacity:1"
         sodipodi:type="arc" />
      <path
         sodipodi:nodetypes="ccc"
         id="path3250"
         d="M 72.902283,62.171079 C 54.908962,56.280449 62.945979,38.346491 69.883839,39.414978 C 67.381222,46.238128 68.490948,56.512349 72.902283,62.171079 z"
         style="opacity:1;fill:#000000;fill-opacity:0.18023257;stroke:none;stroke-width:2.33999991;stroke-miterlimit:4;stroke-dasharray:none;stroke-opacity:1" />
      <path
         sodipodi:nodetypes="ccc"
         id="path3260"
         d="M 75.481823,39.043991 C 93.475144,44.934621 85.438127,62.868579 78.500267,61.800092 C 81.002884,54.976942 79.893158,44.702721 75.481823,39.043991 z"
         style="opacity:1;fill:#ffffff;fill-opacity:0.41279069;stroke:none;stroke-width:2.33999991;stroke-miterlimit:4;stroke-dasharray:none;stroke-opacity:1" />
      <path
         sodipodi:nodetypes="ccccc"
         id="path3266"
         d="M 36.094673,24.556219 C 35.580637,26.921453 36.256473,29.33718 36.973667,31.584822 C 38.912606,36.084345 41.998337,38.346521 45.263182,39.686746 C 49.292916,41.249418 54.115772,41.888224 58.193056,41.222434 C 48.419471,39.073152 42.160324,32.419683 36.094673,24.556219 z"
         style="opacity:1;fill:#000000;fill-opacity:0.11627909;stroke:none;stroke-width:2.33999991;stroke-miterlimit:4;stroke-dasharray:none;stroke-opacity:1" />
      <path
         sodipodi:nodetypes="ccccc"
         id="path3271"
         d="M 31.276071,60.373404 C 32.820128,62.237392 35.138139,63.196204 37.349399,64.018753 C 42.086593,65.269426 45.770813,64.237097 48.840056,62.494924 C 52.556325,60.288107 56.034989,56.887091 58.026981,53.267769 C 50.304815,59.632558 41.206828,60.452432 31.276071,60.373404 z"
         style="opacity:1;fill:#000000;fill-opacity:0.11627909;stroke:none;stroke-width:2.33999991;stroke-miterlimit:4;stroke-dasharray:none;stroke-opacity:1" />
      <path
         sodipodi:nodetypes="ccccc"
         id="path3273"
         d="M 47.073591,84.34629 C 49.336518,85.205199 51.825732,84.89486 54.154845,84.518708 C 58.892044,83.268054 61.586571,80.551677 63.395875,77.521523 C 65.538532,73.767895 66.885076,69.09298 66.830929,64.962049 C 63.256848,74.309151 55.749197,79.513067 47.073591,84.34629 z"
         style="opacity:1;fill:#000000;fill-opacity:0.11627909;stroke:none;stroke-width:2.33999991;stroke-miterlimit:4;stroke-dasharray:none;stroke-opacity:1" />
      <path
         sodipodi:nodetypes="ccccc"
         id="path3284"
         d="M 81.914735,93.77115 C 84.182566,92.925273 85.849776,91.050998 87.353212,89.232774 C 90.090951,85.169528 90.326466,81.350665 89.689484,77.879402 C 88.82625,73.644366 86.757049,69.241364 83.993185,66.170765 C 87.467316,75.555476 85.252336,84.417723 81.914735,93.77115 z"
         style="opacity:1;fill:#000000;fill-opacity:0.11627909;stroke:none;stroke-width:2.33999991;stroke-miterlimit:4;stroke-dasharray:none;stroke-opacity:1" />
      <path
         sodipodi:nodetypes="ccccc"
         id="path3288"
         d="M 116.38744,43.988956 C 115.62517,41.691673 113.8132,39.956946 112.05126,38.387926 C 108.09099,35.503231 104.28332,35.128028 100.79104,35.637472 C 96.527244,36.345028 92.051419,38.251606 88.881667,40.901177 C 98.387308,37.773042 107.1625,40.311076 116.38744,43.988956 z"
         style="opacity:1;fill:#000000;fill-opacity:0.11627909;stroke:none;stroke-width:2.33999991;stroke-miterlimit:4;stroke-dasharray:none;stroke-opacity:1" />
      <path
         sodipodi:nodetypes="ccccc"
         id="path3290"
         d="M 100.94421,12.29061 C 98.670438,11.460811 96.18541,11.803064 93.861313,12.209054 C 89.140549,13.520388 86.481098,16.271106 84.710812,19.324242 C 82.616485,23.105033 81.330029,27.796843 81.437174,31.926743 C 84.891043,22.534554 92.331317,17.234748 100.94421,12.29061 z"
         style="opacity:1;fill:#000000;fill-opacity:0.11627909;stroke:none;stroke-width:2.33999991;stroke-miterlimit:4;stroke-dasharray:none;stroke-opacity:1" />
      <path
         sodipodi:nodetypes="ccccc"
         id="path3292"
         d="M 70.759075,4.1751895 C 68.471878,4.9672349 66.760831,6.801579 65.214825,8.5837468 C 62.381805,12.581147 62.056083,16.393368 62.610838,19.878738 C 63.373707,24.132985 65.33825,28.583672 68.028763,31.718747 C 64.777444,22.254533 67.201303,13.44712 70.759075,4.1751895 z"
         style="opacity:1;fill:#000000;fill-opacity:0.11627909;stroke:none;stroke-width:2.33999991;stroke-miterlimit:4;stroke-dasharray:none;stroke-opacity:1" />
    </g>
    <path
       style="fill:#ffffff;fill-opacity:1;stroke:#000000;stroke-width:1.56237316;stroke-miterlimit:4;stroke-dasharray:none;stroke-opacity:1"
       d="M 85.403754,155.85362 C 91.353958,149.20664 99.743588,145.6913 106.52636,149.75061 C 118.75255,157.06766 100.2638,170.06726 88.336729,163.28562 C 86.22433,162.08453 85.279641,159.29941 84.865759,156.89223 C 84.798119,156.49882 85.121189,156.16928 85.403754,155.85362 z"
       id="path3317"
       sodipodi:nodetypes="cssss" />
    <path
       style="fill:#000000;fill-opacity:0.11627909;stroke:none;stroke-width:2.33999991;stroke-miterlimit:4;stroke-dasharray:none;stroke-opacity:1"
       d="M 108.2581,154.16422 C 107.52365,152.72467 106.153,151.76214 104.83204,150.90393 C 101.92762,149.39869 99.3766,149.53446 97.122851,150.22237 C 94.379803,151.11874 91.617548,152.82787 89.792173,154.89588 C 95.751319,151.87399 101.7989,152.66558 108.2581,154.16422 z"
       id="path3319"
       sodipodi:nodetypes="ccccc" />
    <path
       style="fill:#ffffff;fill-opacity:1;stroke:#000000;stroke-width:1.56237316;stroke-miterlimit:4;stroke-dasharray:none;stroke-opacity:1"
       d="M 86.53005,161.55129 C 95.450152,161.41289 103.72464,165.19126 105.3443,172.92824 C 108.26379,186.87441 86.169954,182.11141 83.06007,168.74822 C 82.509289,166.38149 83.91441,163.79791 85.402047,161.86069 C 85.645161,161.54408 86.106438,161.55786 86.53005,161.55129 z"
       id="path3321"
       sodipodi:nodetypes="cssss" />
    <path
       style="fill:#ffffff;fill-opacity:1;stroke:#000000;stroke-width:1.67460191;stroke-miterlimit:4;stroke-dasharray:none;stroke-opacity:1"
       d="M 82.963396,167.01893 C 86.180738,170.68213 93.680947,180.54308 85.958555,189.89505 C 78.236157,199.24701 68.997797,176.20166 74.475771,169.27115 C 79.953748,162.34064 80.390868,166.43435 81.937387,166.33768 C 83.483914,166.24102 79.746052,163.35573 82.963396,167.01893 z"
       id="path3323"
       sodipodi:nodetypes="czzzz" />
    <path
       style="fill:#ffffff;fill-opacity:1;stroke:#000000;stroke-width:1.56237316;stroke-miterlimit:4;stroke-dasharray:none;stroke-opacity:1"
       d="M 73.192801,165.41788 C 76.020479,173.87907 74.919399,182.90853 68.033677,186.79064 C 55.621914,193.78829 53.485214,171.28811 65.283713,164.28515 C 67.373339,163.04487 70.260746,163.60351 72.556971,164.43613 C 72.932235,164.5722 73.058519,165.01607 73.192801,165.41788 z"
       id="path3325"
       sodipodi:nodetypes="cssss" />
    <path
       style="fill:#ffffff;fill-opacity:1;stroke:#000000;stroke-width:1.56237316;stroke-miterlimit:4;stroke-dasharray:none;stroke-opacity:1"
       d="M 70.185486,163.48277 C 65.07634,170.79605 57.169445,175.29319 49.948383,172.07758 C 36.932146,166.2813 53.726463,151.156 66.381457,156.45667 C 68.622777,157.39545 69.895001,160.047 70.594895,162.38709 C 70.709277,162.76954 70.428109,163.13547 70.185486,163.48277 z"
       id="path3327"
       sodipodi:nodetypes="cssss" />
    <path
       style="fill:#ffffff;fill-opacity:1;stroke:#000000;stroke-width:1.56237316;stroke-miterlimit:4;stroke-dasharray:none;stroke-opacity:1"
       d="M 70.186417,157.91946 C 61.26598,157.80413 53.102288,153.79195 51.703317,146.01205 C 49.181627,131.98849 71.131067,137.37789 73.859655,150.82411 C 74.342912,153.20555 72.864879,155.74812 71.32276,157.64226 C 71.070734,157.95182 70.610035,157.92494 70.186417,157.91946 z"
       id="path3329"
       sodipodi:nodetypes="cssss" />
    <path
       style="fill:#ffffff;fill-opacity:1;stroke:#000000;stroke-width:1.56237316;stroke-miterlimit:4;stroke-dasharray:none;stroke-opacity:1"
       d="M 74.835791,153.50262 C 67.779315,148.04426 63.671553,139.92824 67.234148,132.87189 C 73.655841,120.15259 87.947495,137.6618 82.038377,150.04438 C 80.991821,152.23744 78.281613,153.37937 75.910284,153.96477 C 75.52274,154.06043 75.170892,153.76182 74.835791,153.50262 z"
       id="path3331"
       sodipodi:nodetypes="cssss" />
    <path
       style="fill:#ffffff;fill-opacity:1;stroke:#000000;stroke-width:1.56237316;stroke-miterlimit:4;stroke-dasharray:none;stroke-opacity:1"
       d="M 78.079481,151.4418 C 79.417941,142.6216 84.512523,135.08577 92.410804,134.76773 C 106.64773,134.19446 98.297045,155.19659 84.60359,156.05403 C 82.178355,156.20589 79.862686,154.39291 78.198112,152.60544 C 77.926072,152.31331 78.01592,151.86065 78.079481,151.4418 z"
       id="path3333"
       sodipodi:nodetypes="cssss" />
    <path
       sodipodi:type="arc"
       style="fill:#ffff00;fill-opacity:1;stroke:#000000;stroke-width:1.4778322;stroke-miterlimit:4;stroke-dasharray:none;stroke-opacity:1"
       id="path3335"
       sodipodi:cx="69.873863"
       sodipodi:cy="60.46191"
       sodipodi:rx="9.6233463"
       sodipodi:ry="8.7865343"
       d="M 79.49721,60.46191 A 9.6233463,8.7865343 0 1 1 60.250517,60.46191 A 9.6233463,8.7865343 0 1 1 79.49721,60.46191 z"
       transform="matrix(-0.7923014,-0.7313187,0.7303852,-0.7951102,89.231764,260.75561)" />
    <path
       style="fill:#000000;fill-opacity:0.18023257;stroke:none;stroke-width:2.33999991;stroke-miterlimit:4;stroke-dasharray:none;stroke-opacity:1"
       d="M 77.907808,169.12142 C 65.627306,166.12316 70.057482,153.77205 74.730882,154.1274 C 73.41494,158.79802 74.680824,165.5807 77.907808,169.12142 z"
       id="path3337"
       sodipodi:nodetypes="ccc" />
    <path
       style="fill:#ffffff;fill-opacity:0.41279069;stroke:none;stroke-width:2.33999991;stroke-miterlimit:4;stroke-dasharray:none;stroke-opacity:1"
       d="M 78.438462,153.59322 C 90.718962,156.59148 86.288787,168.94259 81.615386,168.58724 C 82.931323,163.91664 81.665446,157.13395 78.438462,153.59322 z"
       id="path3339"
       sodipodi:nodetypes="ccc" />
    <path
       style="fill:#000000;fill-opacity:0.11627909;stroke:none;stroke-width:2.33999991;stroke-miterlimit:4;stroke-dasharray:none;stroke-opacity:1"
       d="M 48.414403,167.61273 C 49.315461,168.9543 50.791223,169.74633 52.205187,170.44069 C 55.268541,171.58843 57.785105,171.14909 59.940611,170.19705 C 62.557035,168.97961 65.095497,166.95295 66.660936,164.68181 C 61.105162,168.3935 55.006329,168.32955 48.414403,167.61273 z"
       id="path3341"
       sodipodi:nodetypes="ccccc" />
    <path
       style="fill:#000000;fill-opacity:0.11627909;stroke:none;stroke-width:2.33999991;stroke-miterlimit:4;stroke-dasharray:none;stroke-opacity:1"
       d="M 63.43105,186.50061 C 65.042766,186.61938 66.576654,185.9468 67.995554,185.26259 C 70.788999,183.56019 71.996136,181.30876 72.577025,179.02509 C 73.233484,176.21496 73.205043,172.96682 72.383807,170.33353 C 71.876375,176.99579 68.062723,181.75562 63.43105,186.50061 z"
       id="path3343"
       sodipodi:nodetypes="ccccc" />
    <path
       style="fill:#000000;fill-opacity:0.11627909;stroke:none;stroke-width:2.33999991;stroke-miterlimit:4;stroke-dasharray:none;stroke-opacity:1"
       d="M 82.2811,189.98331 C 83.741409,189.29103 84.743409,187.94895 85.639657,186.65352 C 87.228746,183.7941 87.16724,181.24021 86.545174,178.96742 C 85.728961,176.19945 84.100907,173.38866 82.086865,171.5039 C 84.934141,177.54842 83.966991,183.57042 82.2811,189.98331 z"
       id="path3345"
       sodipodi:nodetypes="ccccc" />
    <path
       style="fill:#000000;fill-opacity:0.11627909;stroke:none;stroke-width:2.33999991;stroke-miterlimit:4;stroke-dasharray:none;stroke-opacity:1"
       d="M 102.93537,177.56731 C 103.5771,176.0841 103.44586,174.41438 103.26584,172.84944 C 102.57581,169.65174 100.84602,167.77187 98.879995,166.47288 C 96.441575,164.92954 93.364435,163.88916 90.607516,163.79958 C 96.733154,166.46787 99.975654,171.63372 102.93537,177.56731 z"
       id="path3347"
       sodipodi:nodetypes="ccccc" />
    <path
       style="fill:#000000;fill-opacity:0.11627909;stroke:none;stroke-width:2.33999991;stroke-miterlimit:4;stroke-dasharray:none;stroke-opacity:1"
       d="M 94.911679,137.94158 C 93.452965,137.24596 91.779557,137.31599 90.209077,137.43857 C 86.988249,138.01104 85.046298,139.67082 83.676186,141.58796 C 82.044582,143.96823 80.892219,147.0052 80.701734,149.757 C 83.592553,143.73318 88.873686,140.68203 94.911679,137.94158 z"
       id="path3349"
       sodipodi:nodetypes="ccccc" />
    <path
       style="fill:#000000;fill-opacity:0.11627909;stroke:none;stroke-width:2.33999991;stroke-miterlimit:4;stroke-dasharray:none;stroke-opacity:1"
       d="M 72.505788,130.71477 C 71.054482,131.42573 70.069785,132.78056 69.190218,134.08738 C 67.637949,136.96695 67.73222,139.51983 68.383397,141.78449 C 69.235042,144.54174 70.899025,147.33142 72.937087,149.19018 C 70.012494,143.18268 70.90231,137.14877 72.505788,130.71477 z"
       id="path3351"
       sodipodi:nodetypes="ccccc" />
    <path
       style="fill:#000000;fill-opacity:0.11627909;stroke:none;stroke-width:2.33999991;stroke-miterlimit:4;stroke-dasharray:none;stroke-opacity:1"
       d="M 54.635715,141.49466 C 53.959098,142.9623 54.050843,144.63465 54.193808,146.2034 C 54.808053,149.41652 56.492927,151.33675 58.427703,152.68186 C 60.828951,154.28241 63.880635,155.39524 66.634675,155.54996 C 60.573817,152.73762 57.454342,147.49656 54.635715,141.49466 z"
       id="path3353"
       sodipodi:nodetypes="ccccc" />
    <path
       style="fill:#ffffff;fill-opacity:1;stroke:#000000;stroke-width:1.5623734;stroke-miterlimit:4;stroke-dasharray:none;stroke-opacity:1"
       d="M 196.23206,132.52482 C 205.14341,132.94343 213.16594,137.23091 214.29954,145.05388 C 216.34289,159.15508 194.58941,153.02238 192.31966,139.49115 C 191.91767,137.09466 193.48131,134.60381 195.08695,132.76321 C 195.34935,132.4624 195.80887,132.50494 196.23206,132.52482 z"
       id="path3357"
       sodipodi:nodetypes="cssss" />
    <path
       style="fill:#000000;fill-opacity:0.11627909;stroke:none;stroke-width:2.33999991;stroke-miterlimit:4;stroke-dasharray:none;stroke-opacity:1"
       d="M 211.96975,149.18317 C 212.62256,147.7048 212.5038,146.03416 212.33549,144.46791 C 211.66938,141.26513 209.95369,139.3724 207.99742,138.05874 C 205.57062,136.49721 202.50134,135.43387 199.74516,135.32368 C 205.85069,138.03768 209.05448,143.22763 211.96975,149.18317 z"
       id="path3359"
       sodipodi:nodetypes="ccccc" />
    <path
       style="fill:#ffffff;fill-opacity:1;stroke:#000000;stroke-width:1.5623734;stroke-miterlimit:4;stroke-dasharray:none;stroke-opacity:1"
       d="M 192.52421,136.99513 C 198.26262,143.82581 200.55578,152.62835 195.57777,158.76867 C 186.60475,169.83681 176.35136,149.69502 184.75206,138.84724 C 186.2399,136.926 189.13063,136.3848 191.57217,136.31562 C 191.97118,136.3043 192.2517,136.67074 192.52421,136.99513 z"
       id="path3361"
       sodipodi:nodetypes="cssss" />
    <path
       style="fill:#ffffff;fill-opacity:1;stroke:#000000;stroke-width:1.67460203;stroke-miterlimit:4;stroke-dasharray:none;stroke-opacity:1"
       d="M 186.03219,137.6806 C 185.22221,142.48834 182.3092,154.53017 170.18125,154.44471 C 158.0533,154.35925 170.09428,132.64634 178.92742,132.51974 C 187.76055,132.39314 184.86159,135.31642 185.91284,136.45482 C 186.9641,137.59321 186.84217,132.87286 186.03219,137.6806 z"
       id="path3363"
       sodipodi:nodetypes="czzzz" />
    <path
       style="fill:#ffffff;fill-opacity:1;stroke:#000000;stroke-width:1.5623734;stroke-miterlimit:4;stroke-dasharray:none;stroke-opacity:1"
       d="M 181.10594,129.09224 C 176.32886,136.62663 168.63092,141.47278 161.27331,138.58321 C 148.01096,133.37465 164.11227,117.51364 176.99159,122.24323 C 179.27264,123.08089 180.66213,125.67289 181.46595,127.97936 C 181.59732,128.3563 181.33279,128.73444 181.10594,129.09224 z"
       id="path3365"
       sodipodi:nodetypes="cssss" />
    <path
       style="fill:#ffffff;fill-opacity:1;stroke:#000000;stroke-width:1.5623734;stroke-miterlimit:4;stroke-dasharray:none;stroke-opacity:1"
       d="M 180.70828,125.53829 C 171.81112,126.19258 163.33187,122.8993 161.26726,115.26901 C 157.54573,101.51512 179.87815,104.99178 183.75601,118.15263 C 184.44281,120.48355 183.18952,123.14409 181.81648,125.16414 C 181.59208,125.49428 181.13078,125.50723 180.70828,125.53829 z"
       id="path3367"
       sodipodi:nodetypes="cssss" />
    <path
       style="fill:#ffffff;fill-opacity:1;stroke:#000000;stroke-width:1.5623734;stroke-miterlimit:4;stroke-dasharray:none;stroke-opacity:1"
       d="M 185.02351,122.02703 C 179.48169,115.03592 177.43979,106.17172 182.59041,100.17545 C 191.87458,89.366968 201.551,109.79221 192.8452,120.39669 C 191.30332,122.27484 188.39837,122.7336 185.95585,122.73333 C 185.55667,122.73328 185.28669,122.35902 185.02351,122.02703 z"
       id="path3369"
       sodipodi:nodetypes="cssss" />
    <path
       style="fill:#ffffff;fill-opacity:1;stroke:#000000;stroke-width:1.5623734;stroke-miterlimit:4;stroke-dasharray:none;stroke-opacity:1"
       d="M 191.38408,122.84462 C 191.16274,113.92618 194.86403,105.61692 202.58561,103.92539 C 216.50403,100.87636 211.94667,123.01352 198.61298,126.24753 C 196.25146,126.82029 193.65492,125.43925 191.70396,123.9697 C 191.38511,123.72953 191.39459,123.26814 191.38408,122.84462 z"
       id="path3371"
       sodipodi:nodetypes="cssss" />
    <path
       style="fill:#ffffff;fill-opacity:1;stroke:#000000;stroke-width:1.5623734;stroke-miterlimit:4;stroke-dasharray:none;stroke-opacity:1"
       d="M 195.03003,124.05934 C 202.71554,119.52939 211.77609,118.72332 217.00877,124.64811 C 226.44084,135.32776 204.88089,142.10952 195.57151,132.03075 C 193.92274,130.24571 193.86698,127.30528 194.20245,124.88592 C 194.25728,124.49053 194.66505,124.27446 195.03003,124.05934 z"
       id="path3373"
       sodipodi:nodetypes="cssss" />
    <path
       sodipodi:type="arc"
       style="fill:#ffff00;fill-opacity:1;stroke:#000000;stroke-width:1.4778322;stroke-miterlimit:4;stroke-dasharray:none;stroke-opacity:1"
       id="path3375"
       sodipodi:cx="69.873863"
       sodipodi:cy="60.46191"
       sodipodi:rx="9.6233463"
       sodipodi:ry="8.7865343"
       d="M 79.49721,60.46191 A 9.6233463,8.7865343 0 1 1 60.250517,60.46191 A 9.6233463,8.7865343 0 1 1 79.49721,60.46191 z"
       transform="matrix(-0.6664544,-0.8475889,0.8471121,-0.6693757,182.85928,230.57853)" />
    <path
       style="fill:#000000;fill-opacity:0.18023257;stroke:none;stroke-width:2.33999991;stroke-miterlimit:4;stroke-dasharray:none;stroke-opacity:1"
       d="M 188.61545,138.39624 C 176.02018,137.31939 178.50111,124.43447 183.17364,124.06793 C 182.59056,128.88522 184.88301,135.39307 188.61545,138.39624 z"
       id="path3377"
       sodipodi:nodetypes="ccc" />
    <path
       style="fill:#ffffff;fill-opacity:0.41279069;stroke:none;stroke-width:2.33999991;stroke-miterlimit:4;stroke-dasharray:none;stroke-opacity:1"
       d="M 186.75522,122.97073 C 199.35048,124.04758 196.86956,136.9325 192.19702,137.29904 C 192.7801,132.48174 190.48766,125.9739 186.75522,122.97073 z"
       id="path3379"
       sodipodi:nodetypes="ccc" />
    <path
       style="fill:#000000;fill-opacity:0.11627909;stroke:none;stroke-width:2.33999991;stroke-miterlimit:4;stroke-dasharray:none;stroke-opacity:1"
       d="M 163.76164,111.26076 C 163.28999,112.80648 163.60735,114.45101 163.96144,115.98595 C 165.00512,119.0863 166.93452,120.76069 169.0336,121.83141 C 171.62948,123.09205 174.80375,123.78139 177.55337,123.56175 C 171.16751,121.59604 167.36705,116.82568 163.76164,111.26076 z"
       id="path3381"
       sodipodi:nodetypes="ccccc" />
    <path
       style="fill:#000000;fill-opacity:0.11627909;stroke:none;stroke-width:2.33999991;stroke-miterlimit:4;stroke-dasharray:none;stroke-opacity:1"
       d="M 158.59271,134.83052 C 159.51804,136.15548 161.00797,136.92051 162.43434,137.58901 C 165.51808,138.6808 168.02623,138.19573 170.16405,137.20461 C 172.75788,135.93976 175.25903,133.86722 176.78287,131.56797 C 171.29558,135.38016 165.19659,135.42724 158.59271,134.83052 z"
       id="path3383"
       sodipodi:nodetypes="ccccc" />
    <path
       style="fill:#000000;fill-opacity:0.11627909;stroke:none;stroke-width:2.33999991;stroke-miterlimit:4;stroke-dasharray:none;stroke-opacity:1"
       d="M 167.7913,151.64835 C 169.25007,152.34388 170.92347,152.27376 172.49393,152.15108 C 175.71473,151.57842 177.65658,149.9185 179.02658,148.00129 C 180.65803,145.62091 181.8102,142.58387 182.00052,139.83206 C 179.11007,145.85606 173.82913,148.90754 167.7913,151.64835 z"
       id="path3385"
       sodipodi:nodetypes="ccccc" />
    <path
       style="fill:#000000;fill-opacity:0.11627909;stroke:none;stroke-width:2.33999991;stroke-miterlimit:4;stroke-dasharray:none;stroke-opacity:1"
       d="M 190.45921,159.82894 C 192.01463,159.39033 193.22673,158.23449 194.3268,157.10696 C 196.3712,154.55316 196.73716,152.02489 196.50348,149.68011 C 196.16111,146.81469 195.02546,143.77143 193.35455,141.57673 C 195.15213,148.01194 193.19263,153.78778 190.45921,159.82894 z"
       id="path3387"
       sodipodi:nodetypes="ccccc" />
    <path
       style="fill:#000000;fill-opacity:0.11627909;stroke:none;stroke-width:2.33999991;stroke-miterlimit:4;stroke-dasharray:none;stroke-opacity:1"
       d="M 216.12601,128.59127 C 215.74465,127.02082 214.63396,125.76719 213.54748,124.62659 C 211.07026,122.49004 208.55708,122.03173 206.20531,122.17939 C 203.32929,122.41659 200.24648,123.44004 197.99205,125.02947 C 204.48878,123.46875 210.18899,125.63844 216.12601,128.59127 z"
       id="path3389"
       sodipodi:nodetypes="ccccc" />
    <path
       style="fill:#000000;fill-opacity:0.11627909;stroke:none;stroke-width:2.33999991;stroke-miterlimit:4;stroke-dasharray:none;stroke-opacity:1"
       d="M 207.58645,106.6521 C 206.11888,105.97535 204.44652,106.06693 202.87776,106.20974 C 199.66458,106.82368 197.74419,108.50838 196.3989,110.44302 C 194.79811,112.84412 193.685,115.89569 193.53001,118.64972 C 196.34293,112.58914 201.58428,109.47016 207.58645,106.6521 z"
       id="path3391"
       sodipodi:nodetypes="ccccc" />
    <path
       style="fill:#000000;fill-opacity:0.11627909;stroke:none;stroke-width:2.33999991;stroke-miterlimit:4;stroke-dasharray:none;stroke-opacity:1"
       d="M 187.94506,99.597957 C 186.37969,99.99969 185.1406,101.12656 184.0142,102.22776 C 181.90999,104.73252 181.48438,107.25144 181.66256,109.6011 C 181.93709,112.4738 183.00049,115.54305 184.61905,117.77664 C 182.9741,111.30073 185.06958,105.57283 187.94506,99.597957 z"
       id="path3393"
       sodipodi:nodetypes="ccccc" />
    <path
       style="opacity:1;fill:#000000;fill-opacity:0.14534882;stroke:none;stroke-width:2.33999991;stroke-miterlimit:4;stroke-dasharray:none;stroke-opacity:1"
       d="M 31.591725,188.76757 C 34.316014,195.16487 41.220826,198.32695 47.787137,199.02359 C 71.148667,199.77231 88.88388,208.06589 108.5129,220.06996 C 113.86438,223.17804 119.64987,225.91251 125.89393,226.46502 C 118.13176,215.5205 105.66558,209.10829 93.276861,204.79821 C 77.637872,199.39293 61.168669,197.05408 44.797285,195.18162 C 39.987006,194.11376 35.218569,192.19492 31.591725,188.76757 z"
       id="path2448"
       sodipodi:nodetypes="ccccccc" />
    <path
       style="opacity:1;fill:#ffffff;fill-opacity:0.14534882;stroke:none;stroke-width:2.33999991;stroke-miterlimit:4;stroke-dasharray:none;stroke-opacity:1"
       d="M 68.333923,26.785834 C 69.394551,22.785125 72.935625,19.8022 76.963318,19.083201 C 83.410794,17.449825 90.721515,17.689571 96.445556,21.351148 C 99.836122,24.551758 103.60016,27.350097 106.96496,30.584462 C 108.56287,32.097015 112.95082,33.537604 112.68016,35.249221 C 109.08477,36.204187 105.81394,33.674899 102.6526,32.365786 C 99.374741,30.563386 96.955896,27.378454 93.160645,26.575291 C 90.101004,25.516518 86.779378,26.151484 83.678531,26.671468 C 80.575905,28.531083 76.970611,30.003166 73.283707,28.851442 C 71.500664,28.520184 70.020555,27.388978 68.333923,26.785834 z"
       id="path3230" />
    <path
       style="opacity:1;fill:#ffffff;fill-opacity:0.14534882;stroke:none;stroke-width:2.33999991;stroke-miterlimit:4;stroke-dasharray:none;stroke-opacity:1"
       d="M 159.99189,32.711994 C 163.36796,32.360171 167.08149,32.40177 170.59372,32.271229 C 173.47053,32.183328 176.39665,32.266807 179.02893,33.577223 C 182.63776,34.80111 186.50072,35.65333 189.71645,37.754428 C 191.56952,39.172282 194.2787,39.790878 194.86375,42.383985 C 196.89118,44.317397 196.68844,47.081802 197.5041,49.545242 C 198.92045,51.797016 197.5734,56.910398 195.23235,52.831088 C 193.25304,49.790662 192.35851,45.530497 188.59783,44.09527 C 185.82471,42.67786 183.92931,39.681481 180.60548,39.380468 C 176.51373,38.543527 172.57606,37.023041 168.36522,36.820162 C 165.46502,36.096636 160.83397,36.44566 159.99189,32.711994 z"
       id="path3235" />
    <path
       style="opacity:1;fill:#ffffff;fill-opacity:0.14534882;stroke:none;stroke-width:2.33999991;stroke-miterlimit:4;stroke-dasharray:none;stroke-opacity:1"
       d="M 207.47111,82.491744 C 212.41503,90.790522 219.92838,97.436766 224.43407,106.03388 C 229.79014,117.18697 240.27527,126.192 241.92889,138.81824 C 243.4487,143.46819 239.28925,150.8397 237.97234,142.45638 C 235.87901,134.45002 235.21336,125.3268 228.49707,119.35219 C 223.77545,112.90266 222.26149,104.65468 216.24573,98.982726 C 212.52477,94.751794 208.40878,90.540397 206.63287,85.152236 C 204.38883,84.780558 207.77691,83.566632 207.47111,82.491744 z"
       id="path3241" />
  </g>
</svg>
