<?xml version="1.0" encoding="UTF-8" standalone="no"?>
<!-- Created with Inkscape (http://www.inkscape.org/) -->
<svg
   xmlns:dc="http://purl.org/dc/elements/1.1/"
   xmlns:cc="http://creativecommons.org/ns#"
   xmlns:rdf="http://www.w3.org/1999/02/22-rdf-syntax-ns#"
   xmlns:svg="http://www.w3.org/2000/svg"
   xmlns="http://www.w3.org/2000/svg"
   xmlns:sodipodi="http://sodipodi.sourceforge.net/DTD/sodipodi-0.dtd"
   xmlns:inkscape="http://www.inkscape.org/namespaces/inkscape"
   width="250"
   height="250"
   id="svg2"
   sodipodi:version="0.32"
   inkscape:version="0.46"
   sodipodi:docname="down.svg"
   inkscape:output_extension="org.inkscape.output.svg.inkscape"
   inkscape:export-filename="P:\pidgey2\data\images\down.png"
   inkscape:export-xdpi="92.160004"
   inkscape:export-ydpi="92.160004"
   version="1.0">
  <defs
     id="defs4">
    <inkscape:perspective
       sodipodi:type="inkscape:persp3d"
       inkscape:vp_x="0 : 125 : 1"
       inkscape:vp_y="0 : 1000 : 0"
       inkscape:vp_z="250 : 125 : 1"
       inkscape:persp3d-origin="125 : 83.333333 : 1"
       id="perspective3645" />
  </defs>
  <sodipodi:namedview
     id="base"
     pagecolor="#cb90ff"
     bordercolor="#666666"
     borderopacity="1.0"
     gridtolerance="10000"
     guidetolerance="10"
     objecttolerance="10"
     inkscape:pageopacity="0"
     inkscape:pageshadow="2"
     inkscape:zoom="1.6900001"
     inkscape:cx="150.29587"
     inkscape:cy="73.258763"
     inkscape:document-units="px"
     inkscape:current-layer="layer1"
     showgrid="false"
     inkscape:window-width="1680"
     inkscape:window-height="994"
     inkscape:window-x="0"
     inkscape:window-y="22" />
  <metadata
     id="metadata7">
    <rdf:RDF>
      <cc:Work
         rdf:about="">
        <dc:format>image/svg+xml</dc:format>
        <dc:type
           rdf:resource="http://purl.org/dc/dcmitype/StillImage" />
      </cc:Work>
    </rdf:RDF>
  </metadata>
  <g
     inkscape:label="Layer 1"
     inkscape:groupmode="layer"
     id="layer1">
    <path
       style="opacity:1;fill:#803300;fill-opacity:1;stroke:#000000;stroke-width:4.76334715;stroke-miterlimit:4;stroke-dasharray:none;stroke-opacity:1"
       d="M 105.75912,91.663979 C 73.809643,-17.965168 168.50875,-27.168192 133.50177,96.347299 C 127.31158,102.82469 117.56233,95.753529 109.67242,91.828589 L 109.46637,91.689959 L 105.75912,91.663979 z"
       id="path3249"
       sodipodi:nodetypes="ccccc"
       inkscape:transform-center-x="-3.1612396"
       inkscape:transform-center-y="-9.3868033" />
    <path
       style="opacity:1;fill:#502d16;fill-opacity:1;stroke:#000000;stroke-width:4.61675692;stroke-miterlimit:4;stroke-dasharray:none;stroke-opacity:1"
       d="M 109.18595,112.99392 C 113.81337,119.61977 122.31561,119.41953 129.3868,112.38848 C 129.60715,103.14713 135.88628,97.736649 134.35452,90.636229 C 117.66541,82.87195 114.01599,88.994921 105.0971,89.351014 C 106.50203,95.534259 107.63524,106.83568 109.18595,112.99392 z"
       id="path3251"
       sodipodi:nodetypes="ccccc"
       inkscape:transform-center-x="-2.7780023"
       inkscape:transform-center-y="40.112914" />
    <path
       style="opacity:1;fill:#ffffff;fill-opacity:0.24418604;stroke:none;stroke-width:5;stroke-miterlimit:4;stroke-dasharray:none;stroke-opacity:1"
       d="M 128.67782,100.34299 C 134.76515,70.161604 142.03265,57.498959 131.50413,20.564712 C 129.70213,17.332339 122.64276,10.747677 123.26275,14.930944 C 136.8423,46.194518 128.53865,67.419659 126.67445,96.312519 C 127.17862,97.722779 127.27552,100.53324 128.67782,100.34299 z"
       id="path3304"
       sodipodi:nodetypes="ccccc"
       inkscape:transform-center-x="-12.965769"
       inkscape:transform-center-y="-5.1898264" />
    <path
       style="opacity:1;fill:#000000;fill-opacity:0.24418604;stroke:none;stroke-width:5;stroke-miterlimit:4;stroke-dasharray:none;stroke-opacity:1"
       d="M 110.3352,96.282309 C 109.52998,92.053489 108.60453,87.826915 108.33247,83.458362 C 102.30739,48.849729 103.14685,31.647367 107.41132,22.32786 C 107.68462,19.235321 109.5579,21.031057 109.74155,23.207029 C 106.70719,46.318095 114.2032,69.668575 111.39422,92.679769 C 111.14588,93.941209 110.81016,95.171369 110.3352,96.282309 z"
       id="path3331"
       sodipodi:nodetypes="cccccc"
       inkscape:transform-center-x="9.0430727"
       inkscape:transform-center-y="-3.6793101" />
    <path
       style="opacity:1;fill:#917c6f;fill-opacity:1;stroke:#000000;stroke-width:4.36350298;stroke-miterlimit:4;stroke-dasharray:none;stroke-opacity:1"
       d="M 138.68777,114.74666 C 129.55769,114.25114 120.42387,113.83088 111.28628,113.48846 C 58.706778,108.84789 83.197229,196.60625 80.765482,230.98083 C 103.22333,207.58273 93.95158,175.19165 95.863088,166.12192 C 100.09363,154.25489 105.8975,158.27451 109.2572,167.67505 C 113.50959,181.79042 105.91285,204.03312 116.59976,237.0417 C 132.24618,206.60213 124.31918,182.7966 127.7878,166.09517 C 129.52778,156.10434 133.49301,156.17443 137.22174,161.23217 C 148.40687,187.06302 132.70328,205.8697 148.61545,234.83828 C 152.17112,214.22988 158.3259,195.85933 158.47754,166.39555 C 158.59004,144.53742 157.06114,120.96929 138.68777,114.74666 z"
       id="path3358"
       sodipodi:nodetypes="cccccccccsc" />
    <path
       style="opacity:1;fill:#ffffff;fill-opacity:0.18604653;stroke:none;stroke-width:5;stroke-miterlimit:4;stroke-dasharray:none;stroke-opacity:1"
       d="M 140.94099,122.37255 C 146.60438,126.84348 150.62534,133.24195 151.74069,140.22816 C 153.97204,147.18824 154.39694,154.48663 154.60767,161.71282 C 155.93931,182.40662 150.65362,202.15189 148.08154,222.2785 C 146.53206,185.42326 159.60797,158.68719 140.94099,122.37255 z"
       id="path3361"
       sodipodi:nodetypes="ccccc" />
    <path
       style="opacity:1;fill:#ffffff;fill-opacity:0.18604653;stroke:none;stroke-width:5;stroke-miterlimit:4;stroke-dasharray:none;stroke-opacity:1"
       d="M 124.08104,162.3558 C 123.63495,173.37918 123.69209,188.77645 122.88864,199.69219 C 122.2865,207.87275 120.95605,211.57532 119.91132,219.78539 C 123.34491,203.13214 117.90768,184.04307 124.08104,162.3558 z"
       id="path3369"
       sodipodi:nodetypes="cscc" />
    <path
       style="opacity:1;fill:#ffffff;fill-opacity:0.18604653;stroke:none;stroke-width:5;stroke-miterlimit:4;stroke-dasharray:none;stroke-opacity:1"
       d="M 91.723057,162.99579 C 92.512619,174.74073 92.607623,185.22639 91.942751,194.69052 C 91.272985,204.22443 87.783048,212.54276 85.504285,220.24645 C 89.53998,203.67485 87.314303,185.04667 91.723057,162.99579 z"
       id="path3375"
       sodipodi:nodetypes="cscc" />
    <path
       style="opacity:1;fill:#000000;fill-opacity:0.18604653;stroke:none;stroke-width:5;stroke-miterlimit:4;stroke-dasharray:none;stroke-opacity:1"
       d="M 94.318696,120.90674 C 88.655305,125.37767 84.634348,131.77615 83.518986,138.76234 C 81.287649,145.72242 80.862742,153.02082 80.652007,160.24701 C 80.873654,180.94082 82.608733,199.97032 84.942817,220.09692 C 86.492282,183.24169 75.651707,157.22139 94.318696,120.90674 z"
       id="path3377"
       sodipodi:nodetypes="ccccc" />
    <path
       style="opacity:1;fill:#000000;fill-opacity:0.18604653;stroke:none;stroke-width:5;stroke-miterlimit:4;stroke-dasharray:none;stroke-opacity:1"
       d="M 113.41398,160.5321 C 113.86007,171.55549 113.80293,186.95276 114.60638,197.8685 C 115.20852,206.04906 116.35269,217.44602 117.39742,225.65609 C 113.96383,209.00286 119.58733,182.21939 113.41398,160.5321 z"
       id="path3379"
       sodipodi:nodetypes="cscc" />
    <path
       style="opacity:1;fill:#000000;fill-opacity:0.18604653;stroke:none;stroke-width:5;stroke-miterlimit:4;stroke-dasharray:none;stroke-opacity:1"
       d="M 142.97777,160.63528 C 145.80485,172.11226 144.19167,184.28362 144.54308,195.62192 C 145.13108,203.85607 144.51834,211.69578 146.96122,219.67533 C 144.46247,208.95974 146.28753,197.94404 146.89406,187.1312 C 147.47238,178.47619 144.70624,169.18115 142.97777,160.63528 z"
       id="path3381"
       sodipodi:nodetypes="ccccc" />
  </g>
</svg>
