<?xml version="1.0" encoding="UTF-8" standalone="no"?>
<!-- Created with Inkscape (http://www.inkscape.org/) -->
<svg
   xmlns:dc="http://purl.org/dc/elements/1.1/"
   xmlns:cc="http://creativecommons.org/ns#"
   xmlns:rdf="http://www.w3.org/1999/02/22-rdf-syntax-ns#"
   xmlns:svg="http://www.w3.org/2000/svg"
   xmlns="http://www.w3.org/2000/svg"
   xmlns:sodipodi="http://sodipodi.sourceforge.net/DTD/sodipodi-0.dtd"
   xmlns:inkscape="http://www.inkscape.org/namespaces/inkscape"
   width="1400"
   height="1024"
   id="svg2"
   sodipodi:version="0.32"
   inkscape:version="0.46"
   sodipodi:docname="endscreen.svg"
   inkscape:output_extension="org.inkscape.output.svg.inkscape"
   inkscape:export-filename="P:\pidgey\data\images\awards.png"
   inkscape:export-xdpi="90"
   inkscape:export-ydpi="90"
   version="1.0">
  <defs
     id="defs4">
    <inkscape:perspective
       sodipodi:type="inkscape:persp3d"
       inkscape:vp_x="0 : 125 : 1"
       inkscape:vp_y="0 : 1000 : 0"
       inkscape:vp_z="250 : 125 : 1"
       inkscape:persp3d-origin="125 : 83.333333 : 1"
       id="perspective3645" />
  </defs>
  <sodipodi:namedview
     id="base"
     pagecolor="#68d4e4"
     bordercolor="#666666"
     borderopacity="1.0"
     gridtolerance="10000"
     guidetolerance="10"
     objecttolerance="10"
     inkscape:pageopacity="0.64705882"
     inkscape:pageshadow="2"
     inkscape:zoom="1.2725806"
     inkscape:cx="490.4565"
     inkscape:cy="294.67298"
     inkscape:document-units="px"
     inkscape:current-layer="layer1"
     showgrid="false"
     inkscape:window-width="1680"
     inkscape:window-height="994"
     inkscape:window-x="0"
     inkscape:window-y="22"
     showguides="true"
     inkscape:guide-bbox="true" />
  <metadata
     id="metadata7">
    <rdf:RDF>
      <cc:Work
         rdf:about="">
        <dc:format>image/svg+xml</dc:format>
        <dc:type
           rdf:resource="http://purl.org/dc/dcmitype/StillImage" />
      </cc:Work>
    </rdf:RDF>
  </metadata>
  <g
     inkscape:label="Layer 1"
     inkscape:groupmode="layer"
     id="layer1">
    <path
       style="opacity:1;fill:#803300;fill-opacity:1;stroke:#000000;stroke-width:1.72813892;stroke-miterlimit:4;stroke-dasharray:none;stroke-opacity:1"
       d="M 112.93462,935.97784 C 158.1088,885.38939 208.23717,838.28861 253.90597,788.04159 C 257.58272,781.89894 266.60936,779.00635 268.77323,787.72428 C 274.73533,795.68197 268.98009,805.44103 261.61145,810.4172 C 231.54873,847.20711 189.00248,875.65926 157.42755,910.71931 C 148.76287,918.36643 137.27876,923.20283 130.68032,932.83922 C 126.45288,937.43162 118.20807,941.93752 112.93462,935.97784 z"
       id="path3589"
       inkscape:transform-center-x="19.357702"
       inkscape:transform-center-y="0.88213751"
       sodipodi:nodetypes="ccccccc" />
    <path
       style="opacity:1;fill:#5f2600;fill-opacity:1;stroke:#000000;stroke-width:1.72813892;stroke-miterlimit:4;stroke-dasharray:none;stroke-opacity:1"
       d="M 335.96525,581.11303 C 349.17198,575.83966 371.20517,508.66145 349.98646,501.55857 C 331.93985,511.40519 323.77345,564.94048 335.96525,581.11303 z"
       id="path3601"
       sodipodi:nodetypes="ccc" />
    <path
       style="opacity:1;fill:#00aa00;fill-opacity:1;stroke:#000000;stroke-width:1.54945493;stroke-miterlimit:4;stroke-dasharray:none;stroke-opacity:1"
       d="M 1204.3565,554.82148 C 1198.3431,594.17374 1190.1233,632.50321 1180.666,669.82404 C 1155.3194,781.08977 1109.0518,888.64887 1094.3503,1006.5579 C 1092.7119,1029.7832 1086.6098,1051.337 1085.3959,1074.6001 C 1083.1538,1106.3876 1110.6886,1103.3964 1117.7759,1082.6824 C 1127.2383,1059.8538 1129.0985,1031.0608 1137.2345,1006.8626 C 1151.1513,956.135 1163.7175,904.46925 1177.5254,853.65397 C 1189.1969,798.26923 1208.049,740.58433 1225.1022,690.20687 C 1236.1105,659.40884 1247.8075,628.11178 1247.1842,592.37743 C 1249.9365,568.78869 1253.6664,544.1178 1234.1887,538.13417 C 1223.4628,536.06497 1213.7029,547.73175 1204.3565,554.82148 z"
       id="path3275"
       sodipodi:nodetypes="ccccccccccc" />
    <path
       style="opacity:1;fill:#ffff00;fill-opacity:1;stroke:#000000;stroke-width:2;stroke-miterlimit:4;stroke-dasharray:none;stroke-opacity:1"
       d="M 1221.5384,570.59129 C 1180.6687,573.29928 1144.2904,551.34031 1105.8481,541.28191 C 1021.5521,528.12092 899.02864,399.47376 935.11365,285.12298 C 956.99918,280.74013 978.65356,289.33092 999.7698,294.03925 C 1034.6086,304.39069 1067.5051,320.38468 1102.1281,331.2639 C 1129.2113,344.79437 1153.9021,364.29428 1169.6091,390.5372 C 1190.1899,419.2219 1208.2266,450.18991 1219.2173,483.84575 C 1224.8178,501.62045 1225.7147,520.30498 1223.647,538.72962 C 1222.9251,549.34882 1222.0573,559.95923 1221.5384,570.59129 z"
       id="path3286"
       sodipodi:nodetypes="ccccccccc" />
    <path
       style="opacity:1;fill:#ffff00;fill-opacity:1;stroke:#000000;stroke-width:2;stroke-miterlimit:4;stroke-dasharray:none;stroke-opacity:1"
       d="M 1193.0015,582.65521 C 1175.3119,545.71278 1182.1935,503.78163 1177.2589,464.35281 C 1174.5346,427.72311 1169.4917,389.61128 1180.91,353.94004 C 1191.2325,325.00485 1209.1454,299.64259 1225.1111,273.68911 C 1246.1489,252.78152 1311.9964,209.86456 1348.3762,197.37498 C 1372.3124,277.29916 1389.3054,393.72305 1340.9018,467.58293 C 1321.9096,497.34325 1299.8527,525.58915 1272.6838,548.29079 C 1258.2593,560.09079 1241.2436,567.86127 1223.3683,572.78259 C 1213.2403,576.05529 1203.0662,579.18925 1193.0015,582.65521 z"
       id="path3290"
       sodipodi:nodetypes="ccccccccc" />
    <path
       style="opacity:1;fill:#e5ff80;fill-opacity:1;stroke:none;stroke-width:2;stroke-miterlimit:4;stroke-dasharray:none;stroke-opacity:1"
       d="M 936.31408,294.51862 C 1004.048,292.32672 1066.9663,331.69699 1108.5885,383.77367 C 1132.72,410.24486 1139.136,437.90035 1142.2577,446.59748 C 1081.611,387.02553 1020.8377,322.30399 936.31408,294.51862 z"
       id="path3442"
       sodipodi:nodetypes="cccc" />
    <path
       style="opacity:1;fill:#ffff00;fill-opacity:1;stroke:#000000;stroke-width:2;stroke-miterlimit:4;stroke-dasharray:none;stroke-opacity:1"
       d="M 1219.2114,585.8753 C 1179.642,575.29563 1152.2584,542.80388 1119.0931,520.91672 C 1054.2806,522.46184 966.09132,298.88271 1053.1459,219.01254 C 1126.325,229.89304 1145.9301,285.29018 1183.113,320.85958 C 1204.406,342.38127 1221.5139,368.78587 1227.9466,398.68604 C 1238.209,432.46567 1245.3282,467.5891 1244.9112,502.99164 C 1244.4978,521.62321 1239.3381,539.60353 1231.4548,556.38443 C 1227.3561,566.20726 1223.1221,575.97491 1219.2114,585.8753 z"
       id="path3292"
       sodipodi:nodetypes="cccccccc" />
    <path
       style="opacity:1;fill:#e5ff80;fill-opacity:1;stroke:none;stroke-width:2;stroke-miterlimit:4;stroke-dasharray:none;stroke-opacity:1"
       d="M 1054.598,231.34306 C 1120.0134,249.04926 1168.6727,305.0939 1193.2515,367.06378 C 1208.5897,399.4334 1206.6402,427.75638 1207.0829,436.98618 C 1166.502,362.28658 1127.3055,282.62535 1054.598,231.34306 z"
       id="path3440"
       sodipodi:nodetypes="cccc" />
    <path
       style="opacity:1;fill:#ffff00;fill-opacity:1;stroke:#000000;stroke-width:2;stroke-miterlimit:4;stroke-dasharray:none;stroke-opacity:1"
       d="M 1216.4541,586.67714 C 1187.0772,558.13473 1179.029,516.41183 1160.7596,481.12425 C 1111.1141,375.25049 1122.9442,219.80067 1227.8088,191.68461 C 1294.5822,234.5838 1337.1,338.90596 1315.4168,427.5467 C 1307.892,462.03956 1296.9679,496.17169 1279.3294,526.87019 C 1269.8774,542.93149 1256.6002,556.10841 1241.5309,566.90941 C 1233.1603,573.48357 1224.6985,579.94354 1216.4541,586.67714 z"
       id="path3294"
       sodipodi:nodetypes="ccccccc" />
    <path
       style="opacity:1;fill:#00ff00;fill-opacity:1;stroke:none;stroke-width:2;stroke-miterlimit:4;stroke-dasharray:none;stroke-opacity:1"
       d="M 1238.3127,594.62319 C 1240.3275,581.74055 1243.8206,613.84226 1236.7152,634.2244 C 1211.4967,706.56578 1201.0175,735.81077 1174.5203,849.27123 C 1181.5759,768.83886 1220.8536,668.10144 1238.3127,594.62319 z"
       id="path3403"
       sodipodi:nodetypes="cscc" />
    <path
       style="opacity:1;fill:#00aa00;fill-opacity:1;stroke:#000000;stroke-width:2;stroke-miterlimit:4;stroke-dasharray:none;stroke-opacity:1"
       d="M 1237.0965,565.03482 C 1233.5119,554.54303 1214.9973,535.15656 1202.6464,522.80558 C 1190.2003,510.35947 1166.5323,506.29576 1150.4155,501.69096 C 1134.4486,497.12899 1117.0301,498.35707 1100.4071,498.35707 C 1087.6643,498.35707 1078.7062,499.52965 1073.736,509.47003 C 1070.6997,515.54269 1073.2142,525.61767 1080.4038,532.80724 C 1090.7855,543.18897 1099.0552,551.24098 1111.5201,560.58964 C 1121.6138,568.15993 1133.5496,573.82698 1144.859,579.48167 C 1155.2613,584.68284 1163.807,586.71909 1174.864,589.48333 C 1187.3882,592.6144 1207.9117,592.61219 1220.4271,589.48333 C 1225.8806,588.11995 1230.2889,584.06669 1233.7626,580.59297 C 1238.5621,575.79347 1240.4304,577.13634 1240.4304,570.5913 C 1240.4304,568.43133 1238.2078,566.88698 1237.0965,565.03482 z"
       id="path3426" />
    <path
       style="opacity:1;fill:#e5ff80;fill-opacity:1;stroke:none;stroke-width:2;stroke-miterlimit:4;stroke-dasharray:none;stroke-opacity:1"
       d="M 1334.8161,211.5805 C 1361.1483,275.41766 1372.5481,347.37347 1352.6197,410.99144 C 1344.152,445.79591 1339.2494,441.01093 1333.7813,448.45975 C 1349.2946,364.87639 1347.893,297.20243 1334.8161,211.5805 z"
       id="path3444"
       sodipodi:nodetypes="cccc" />
    <path
       style="opacity:1;fill:#00aa00;fill-opacity:1;stroke:#000000;stroke-width:2;stroke-miterlimit:4;stroke-dasharray:none;stroke-opacity:1"
       d="M 1214.6111,575.37088 C 1213.9281,564.30469 1223.6603,539.32651 1230.3741,523.20149 C 1237.1397,506.95225 1257.4744,494.1778 1270.6213,483.77999 C 1283.6459,473.47888 1300.2186,467.9781 1315.5879,461.64493 C 1327.3697,456.79007 1336.0989,454.46129 1344.4814,461.75838 C 1349.6023,466.21624 1351.1159,476.48936 1347.2077,485.87584 C 1341.5643,499.42989 1336.986,510.02527 1329.0229,523.41783 C 1322.5747,534.26275 1313.6982,544.04979 1305.3961,553.58675 C 1297.7599,562.3588 1290.6345,567.49729 1281.4646,574.26564 C 1271.0779,581.93213 1252.1014,589.7493 1239.3379,591.62464 C 1233.7762,592.4418 1228.1562,590.37375 1223.621,588.48546 C 1217.3549,585.87649 1216.1392,587.82988 1213.6456,581.77847 C 1212.8226,579.7814 1214.2892,577.50674 1214.6111,575.37088 z"
       id="path3428"
       inkscape:transform-center-x="-8.8903667"
       inkscape:transform-center-y="7.7790708" />
    <path
       style="opacity:1;fill:#e5ff80;fill-opacity:1;stroke:none;stroke-width:2;stroke-miterlimit:4;stroke-dasharray:none;stroke-opacity:1"
       d="M 1229.9895,207.85175 C 1284.1155,248.63245 1308.4202,318.76098 1308.1691,385.42671 C 1310.358,421.17951 1298.0072,446.74217 1294.9829,455.47365 C 1285.1193,371.037 1278.3873,282.51042 1229.9895,207.85175 z"
       id="path3438"
       sodipodi:nodetypes="cccc" />
    <path
       style="opacity:1;fill:#ffcc00;fill-opacity:1;stroke:none;stroke-width:2;stroke-miterlimit:4;stroke-dasharray:none;stroke-opacity:1"
       d="M 1208.2028,211.64275 C 1144.4339,250.86598 1144.3555,343.15839 1150.8557,408.5136 C 1155.7409,428.69405 1167.2267,488.87423 1187.1318,492.34558 C 1186.2797,475.91757 1176.6468,461.46506 1175.5949,445.00602 C 1161.2598,365.00779 1154.0001,302.96913 1197.5206,227.55676 C 1201.2834,222.38886 1204.4443,216.81345 1208.2028,211.64275 z"
       id="path3446"
       sodipodi:nodetypes="cccccc" />
    <path
       style="opacity:1;fill:#ffcc00;fill-opacity:1;stroke:none;stroke-width:2;stroke-miterlimit:4;stroke-dasharray:none;stroke-opacity:1"
       d="M 1052.994,239.99075 C 1006.2314,318.64621 1031.7977,422.22697 1084.5731,487.9703 C 1050.6011,414.73567 1031.3741,343.96679 1048.0564,258.51063 C 1049.9378,252.4011 1051.1177,246.10153 1052.994,239.99075 z"
       id="path3451"
       sodipodi:nodetypes="cccc" />
    <path
       style="opacity:1;fill:#ffcc00;fill-opacity:1;stroke:none;stroke-width:2;stroke-miterlimit:4;stroke-dasharray:none;stroke-opacity:1"
       d="M 940.38613,311.29188 C 935.75614,402.68107 983.38799,476.78642 1060.7528,510.28442 C 996.5186,461.38271 969.81208,413.33377 944.66637,329.97462 C 943.47767,323.69347 941.5799,317.57176 940.38613,311.29188 z"
       id="path3453"
       sodipodi:nodetypes="cccc" />
    <path
       style="opacity:1;fill:#008000;fill-opacity:1;stroke:none;stroke-width:2;stroke-miterlimit:4;stroke-dasharray:none;stroke-opacity:1"
       d="M 1167.5777,749.6923 C 1138.6767,852.75703 1117.7334,935.70455 1098.0992,1028.3514 C 1100.3564,977.91036 1143.8956,793.15244 1167.5777,749.6923 z"
       id="path3457"
       sodipodi:nodetypes="ccc" />
    <path
       style="opacity:1;fill:#00ff00;fill-opacity:1;stroke:none;stroke-width:2;stroke-miterlimit:4;stroke-dasharray:none;stroke-opacity:1"
       d="M 1299.3291,485.02151 C 1307.6493,475.0299 1330.0736,465.87737 1341.142,473.29972 C 1342.306,476.94908 1342.2756,481.07644 1340.3014,484.44795 C 1332.3018,505.65672 1323.7162,510.80595 1313.5948,526.9021 C 1320.5426,498.30594 1348.2802,472.26416 1299.3291,485.02151 z"
       id="path3459"
       sodipodi:nodetypes="ccccc" />
    <path
       style="opacity:1;fill:#008000;fill-opacity:1;stroke:none;stroke-width:2;stroke-miterlimit:4;stroke-dasharray:none;stroke-opacity:1"
       d="M 1246.2947,522.69629 C 1232.9833,531.2884 1229.4417,550.34889 1224.2928,564.40586 C 1222.9958,570.28033 1226.6203,576.64459 1231.9632,579.14245 C 1239.8062,581.23732 1249.1988,579.07075 1256.3396,575.42626 C 1257.7308,574.45177 1280.8485,559.60215 1273.8595,559.70375 C 1252.0707,562.63673 1228.2059,585.92916 1241.0534,540.14803 C 1244.311,534.77395 1246.2609,528.93816 1246.2947,522.69629 z"
       id="path3463"
       sodipodi:nodetypes="ccccccc" />
    <path
       style="opacity:1;fill:#00ff00;fill-opacity:1;stroke:none;stroke-width:2;stroke-miterlimit:4;stroke-dasharray:none;stroke-opacity:1"
       d="M 1208.2028,542.8089 C 1179.0184,510.46062 1136.2567,500.57486 1093.72,507.8308 C 1138.2891,508.58758 1176.1859,531.86969 1208.2028,542.8089 z"
       id="path3469"
       sodipodi:nodetypes="ccc" />
    <path
       style="opacity:1;fill:#008000;fill-opacity:1;stroke:none;stroke-width:2;stroke-miterlimit:4;stroke-dasharray:none;stroke-opacity:1"
       d="M 1098.2806,532.74933 C 1124.6228,567.45132 1166.3945,580.92037 1209.3927,577.29016 C 1165.0474,572.7644 1129.2569,546.35876 1098.2806,532.74933 z"
       id="path3475"
       sodipodi:nodetypes="ccc" />
    <path
       style="opacity:1;fill:#803300;fill-opacity:1;stroke:#000000;stroke-width:1.72813892;stroke-miterlimit:4;stroke-dasharray:none;stroke-opacity:1"
       d="M 87.033432,507.60405 C 114.00766,473.7747 153.37399,451.84035 185.74265,423.17535 C 199.29018,413.72765 216.16927,409.23595 228.66373,398.31791 C 238.91352,391.07284 249.21842,383.78713 260.56101,378.09415 C 266.23972,368.92018 283.84931,367.96461 288.15324,378.73332 C 289.10159,389.15592 277.20105,393.39376 270.13403,398.99115 C 252.57966,414.26432 235.00907,429.71667 214.92395,442.07763 C 190.3429,459.09323 168.94277,479.65565 145.98199,498.48043 C 135.96498,506.69529 126.27803,515.42567 115.17127,522.27382 C 109.73526,529.24242 94.384763,536.5872 93.862253,522.71619 C 92.094381,517.49738 90.060217,512.30889 87.033432,507.60405 z"
       id="path3591" />
    <path
       style="opacity:1;fill:#803300;fill-opacity:1;stroke:#000000;stroke-width:1.72813892;stroke-miterlimit:4;stroke-dasharray:none;stroke-opacity:1"
       d="M 268.35282,387.0673 C 338.70605,539.21375 466.65247,704.3122 564.85097,831.42753 C 589.93634,841.04316 572.84104,811.10366 566.71059,797.5117 C 523.75679,763.75942 273.75653,357.53201 265.40189,356.33901 C 254.59395,356.93795 245.73807,362.56666 268.35282,387.0673 z"
       id="path3593"
       sodipodi:nodetypes="ccccc" />
    <path
       style="opacity:1;fill:#803300;fill-opacity:1;stroke:#000000;stroke-width:1.72813892;stroke-miterlimit:4;stroke-dasharray:none;stroke-opacity:1"
       d="M 535.96321,775.23651 C 509.99735,822.76894 472.78345,863.08054 432.85004,900.68242 C 419.72915,914.59475 409.39173,930.88594 394.5609,943.30159 C 389.37563,977.78311 434.94217,933.1278 444.23882,922.48617 C 498.5415,856.15179 559.98054,799.01483 535.96321,775.23651 z"
       id="path3595"
       sodipodi:nodetypes="ccccc" />
    <path
       style="opacity:1;fill:#decd87;fill-opacity:1;stroke:#000000;stroke-width:1.72813892;stroke-miterlimit:4;stroke-dasharray:none;stroke-opacity:1"
       d="M 480.88567,716.54429 C 453.7775,706.96633 427.86063,691.20108 413.46621,666.87414 C 352.09816,592.39722 294.59384,480.26514 267.64892,374.1385 C 158.08531,439.90143 132.6792,457.42509 107.2103,481.44064 C 132.24144,593.24823 220.52587,713.11343 290.57051,804.3419 C 321.71688,818.02597 381.64888,840.61486 414.71426,827.48427 C 450.97026,796.52252 520.03029,754.87448 545.57452,715.63842 C 562.81444,706.22269 493.10503,716.48086 480.88567,716.54429 z"
       id="path3599"
       sodipodi:nodetypes="cccccccc" />
    <path
       style="opacity:1;fill:#803300;fill-opacity:1;stroke:#000000;stroke-width:1.72813892;stroke-miterlimit:4;stroke-dasharray:none;stroke-opacity:1"
       d="M 77.226454,522.08316 C 120.4944,596.30334 150.22671,684.93209 214.28038,746.62593 C 268.1675,822.45853 332.11779,892.26085 389.62461,965.18807 C 397.62899,981.84455 437.95562,998.5383 435.31708,968.59835 C 298.42057,827.8767 188.63282,657.01557 79.395119,488.59796 C 71.906328,483.54869 56.132687,491.14467 77.226454,522.08316 z"
       id="path3583"
       sodipodi:nodetypes="cccccc" />
    <path
       style="opacity:1;fill:#803300;fill-opacity:1;stroke:#000000;stroke-width:1.72813892;stroke-miterlimit:4;stroke-dasharray:none;stroke-opacity:1"
       d="M 139.24761,913.88401 C 244.26112,878.56615 277.99064,861.42245 381.083,820.41326 C 404.68327,815.35925 429.1828,822.28168 393.96306,843.82549 C 282.74398,872.23013 170.02405,958.22106 54.984233,971.40698 C 35.064353,952.71154 95.185481,927.99637 139.24761,913.88401 z"
       id="path3587"
       sodipodi:nodetypes="ccccc" />
    <path
       style="opacity:1;fill:#0000ff;fill-opacity:1;stroke:#000000;stroke-width:1.72813892;stroke-miterlimit:4;stroke-dasharray:none;stroke-opacity:1"
       d="M 281.07001,745.05999 C 306.69091,766.24366 336.13755,783.11405 366.72517,797.10091 C 382.86394,803.9167 412.90077,818.52502 430.16646,815.60185 C 438.17189,808.7585 431.74036,813.76672 447.37667,802.4233 C 257.15329,770.91666 218.24457,580.89267 153.10297,445.09429 C 137.35407,456.11723 143.66597,450.24337 126.52554,463.90995 C 173.96973,563.15706 198.21993,661.65499 281.07001,745.05999 z"
       id="path3629"
       sodipodi:nodetypes="ccccccc" />
    <path
       style="opacity:1;fill:#0000ff;fill-opacity:1;stroke:#000000;stroke-width:1.72813892;stroke-miterlimit:4;stroke-dasharray:none;stroke-opacity:1"
       d="M 324.54285,712.55085 C 350.16375,733.73452 379.61039,750.60491 410.19801,764.59176 C 426.33679,771.40756 456.37361,786.01587 473.6393,783.09271 C 481.64473,776.24936 475.99901,780.86467 491.63533,769.52125 C 301.41195,738.01461 265.68004,550.24503 200.53844,414.44665 C 184.78953,425.46959 189.3614,418.28988 172.22098,431.95646 C 219.66517,531.20357 241.69277,629.14585 324.54285,712.55085 z"
       id="path3635"
       sodipodi:nodetypes="ccccccc" />
    <path
       style="opacity:1;fill:#0000ff;fill-opacity:1;stroke:#000000;stroke-width:1.72813892;stroke-miterlimit:4;stroke-dasharray:none;stroke-opacity:1"
       d="M 387.94483,706.03559 C 424.39,738.48227 463.63392,755.89614 513.28234,750.9093 C 521.28778,744.06596 518.81887,745.1032 531.70487,732.18817 C 377.99328,752.24434 311.20968,523.29131 246.10862,387.45485 C 231.47102,395.69955 237.03354,392.21481 218.78181,403.10316 C 266.226,502.35027 300.2046,627.92154 387.94483,706.03559 z"
       id="path3637"
       sodipodi:nodetypes="cccccs" />
    <path
       style="opacity:1;fill:#ffffff;fill-opacity:0.26162791000000002;stroke:none;stroke-width:0;stroke-miterlimit:4;stroke-dasharray:none;stroke-opacity:1"
       d="M 489.79343,703.22512 C 404.50815,585.30509 351.95111,519.94068 283.18668,388.35382 C 401.89626,570.50478 428.32185,614.94371 489.79343,703.22512 z"
       id="path2413"
       sodipodi:nodetypes="ccc" />
    <path
       style="opacity:1;fill:#ffffff;fill-opacity:0.26162792000000001;stroke:none;stroke-width:0;stroke-miterlimit:4;stroke-dasharray:none;stroke-opacity:1"
       d="M 297.78015,831.37746 C 212.49487,713.45743 159.93783,648.09302 91.173396,516.50616 C 209.88298,698.65712 236.30857,743.09605 297.78015,831.37746 z"
       id="path3192"
       sodipodi:nodetypes="ccc" />
    <path
       style="opacity:1;fill:#000000;fill-opacity:0.26162792000000001;stroke:none;stroke-width:0;stroke-miterlimit:4;stroke-dasharray:none;stroke-opacity:1"
       d="M 404.36044,816.67268 C 271.31972,875.65476 196.47848,913.51684 53.493436,953.50339 C 256.29949,875.14116 305.25184,858.50391 404.36044,816.67268 z"
       id="path3198"
       sodipodi:nodetypes="ccc" />
    <path
       style="opacity:1;fill:#803300;fill-opacity:1;stroke:#000000;stroke-width:1.72813892;stroke-miterlimit:4;stroke-dasharray:none;stroke-opacity:1"
       d="M 144.47439,626.72755 C 120.20074,724.34425 123.93974,819.48125 109.3883,917.51561 C 105.51917,931.76871 103.58445,946.39842 100.16695,960.74244 C 132.02751,1068.3791 164.41924,698.52731 165.38747,630.27584 C 160.16927,618.24279 152.06437,614.08579 144.47439,626.72755 z"
       id="path3585"
       sodipodi:nodetypes="ccccc" />
    <path
       style="opacity:1;fill:#ffffff;fill-opacity:0.26162792000000001;stroke:none;stroke-width:0;stroke-miterlimit:4;stroke-dasharray:none;stroke-opacity:1"
       d="M 121.78565,971.86383 C 141.47699,837.01624 156.14172,760.08985 159.37219,620.50489 C 138.20433,823.42918 134.83995,871.89023 121.78565,971.86383 z"
       id="path3194"
       sodipodi:nodetypes="ccc" />
    <path
       style="opacity:1;fill:#000000;fill-opacity:0.26162792000000001;stroke:none;stroke-width:0;stroke-miterlimit:4;stroke-dasharray:none;stroke-opacity:1"
       d="M 405.65773,960.89885 C 456.21217,894.89928 487.71705,858.82906 540.61067,791.49642 C 467.93423,900.51376 443.93933,912.75758 405.65773,960.89885 z"
       id="path3200"
       sodipodi:nodetypes="ccc" />
    <path
       style="opacity:1;fill:#000000;fill-opacity:0.26162792000000001;stroke:none;stroke-width:0;stroke-miterlimit:4;stroke-dasharray:none;stroke-opacity:1"
       d="M 151.72663,909.77925 C 188.11874,873.1253 214.26571,843.46251 258.34154,810.38846 C 201.52763,866.47868 179.28385,883.04298 151.72663,909.77925 z"
       id="path3202"
       sodipodi:nodetypes="ccc" />
    <path
       style="opacity:1;fill:#000000;fill-opacity:0.26162792000000001;stroke:none;stroke-width:0;stroke-miterlimit:4;stroke-dasharray:none;stroke-opacity:1"
       d="M 323.12857,875.24993 C 358.98396,912.42907 380.43972,932.37867 412.54928,977.16201 C 355.98611,924.45107 349.05583,903.63669 323.12857,875.24993 z"
       id="path3204"
       sodipodi:nodetypes="ccc" />
    <path
       style="opacity:1;fill:#000000;fill-opacity:0.34302326000000000;stroke:none;stroke-width:0;stroke-miterlimit:4;stroke-dasharray:none;stroke-opacity:1"
       d="M 292.27081,781.73749 C 301.43026,793.63935 316.33788,798.21832 329.61913,803.8258 C 350.48731,810.46036 372.91641,815.94674 394.77462,811.04879 C 407.01436,806.89357 417.64313,798.84497 430.32574,795.84886 C 435.88772,792.93172 442.48831,789.54022 445.6241,784.0677 C 443.05148,779.65956 437.36894,784.57057 433.42089,784.4612 C 405.66555,790.0601 377.20976,789.31894 349.0591,790.55129 C 335.64226,790.70513 322.10289,791.27571 308.77983,789.54852 C 302.85561,787.96195 297.48347,784.8832 292.27081,781.73749 z"
       id="path3213" />
    <path
       style="opacity:1;fill:#ac9393;fill-opacity:1;stroke:#000000;stroke-width:1.60418785;stroke-miterlimit:4;stroke-dasharray:none;stroke-opacity:1"
       d="M 436.94717,870.79021 C 450.43404,853.0086 501.61702,856.39873 520.51664,869.48257 C 496.94577,901.63795 485.32896,900.13593 455.34841,880.57319 C 454.4856,879.18924 436.94877,875.54155 436.94717,870.79021 z"
       id="path3209"
       sodipodi:nodetypes="cccc" />
    <path
       style="opacity:1;fill:#ac9393;fill-opacity:1;stroke:#000000;stroke-width:1.60418785;stroke-miterlimit:4;stroke-dasharray:none;stroke-opacity:1"
       d="M 455.62011,984.4928 C 468.42077,1001.9922 502.53209,993.45621 509.70212,984.14553 C 514.32649,945.21073 517.82234,905.95593 520.64605,868.59403 C 515.9399,884.82674 442.4552,881.19752 436.91093,872.50796 C 440.87411,910.867 448.51328,947.15935 455.62011,984.4928 z"
       id="path3205"
       sodipodi:nodetypes="ccccc" />
    <path
       style="opacity:1;fill:#d45500;fill-opacity:1;stroke:#000000;stroke-width:1.46749425;stroke-miterlimit:4;stroke-dasharray:none;stroke-opacity:1"
       d="M 443.30108,894.43517 C 448.56794,893.16098 454.92383,895.8022 459.5953,898.46657 C 464.17819,901.41927 468.43495,896.39837 473.18034,897.77384 C 477.63561,898.29705 482.13664,900.84676 486.55402,898.59043 C 490.68013,897.36573 494.93918,896.71021 499.18037,896.42234 C 503.56349,896.05186 509.8835,897.28437 513.87883,894.64784 C 513.07035,918.2635 508.63963,953.85137 506.45081,980.98515 C 495.15336,995.35481 470.52217,995.38401 458.76166,981.41101 C 453.55619,968.60496 448.16561,923.02744 443.30108,894.43517 z"
       id="path3216"
       sodipodi:nodetypes="ccccccccc" />
    <path
       style="opacity:1;fill:#ffffff;fill-opacity:1;stroke:#000000;stroke-width:1.60418785;stroke-miterlimit:4;stroke-dasharray:none;stroke-opacity:1"
       d="M 485.47458,956.30493 C 491.44816,924.14036 486.98269,879.88773 495.88517,849.03259 C 500.05074,832.66329 535.4317,851.83765 545.25197,854.2298 C 549.92872,854.69325 550.00363,863.79551 543.85994,860.89927 C 530.71158,858.3711 515.87785,843.98892 505.35533,850.79913 C 491.79783,859.57359 498.95898,906.82593 491.06533,956.91978 C 490.57873,960.00779 485.58433,959.65404 485.47458,956.30493 z"
       id="path3221"
       sodipodi:nodetypes="ccccssc" />
    <path
       style="opacity:1;fill:#ff0000;fill-opacity:1;stroke:#000000;stroke-width:1.60418785;stroke-miterlimit:4;stroke-dasharray:none;stroke-opacity:1"
       d="M 492.49902,936.54286 C 491.93742,937.25079 491.13103,937.64404 490.33629,937.98068 C 489.78925,938.24301 489.2437,938.55233 488.62734,938.57351 C 488.1196,938.58135 488.00067,939.1731 487.91085,939.58986 C 487.65959,940.75126 487.63139,941.9503 487.65113,943.13621 C 487.75594,943.71526 488.44852,943.57278 488.84639,943.46426 C 489.42297,943.30237 489.96782,943.03982 490.54007,942.86426 C 491.45974,942.47015 492.24828,941.75076 492.80549,940.89107 C 493.15647,940.21466 493.27459,939.43519 493.41778,938.68795 C 493.53609,937.78909 493.25365,936.41917 493.48327,935.54014 C 493.94831,932.96772 493.52655,935.35594 492.49902,936.54286 z"
       id="path3226"
       sodipodi:nodetypes="ccsscsccccc" />
    <path
       style="opacity:1;fill:#ff0000;fill-opacity:1;stroke:#000000;stroke-width:1.60418785;stroke-miterlimit:4;stroke-dasharray:none;stroke-opacity:1"
       d="M 491.07212,947.63681 C 490.49089,948.32691 489.67381,948.69483 488.86997,949.00653 C 488.3158,949.25168 487.7618,949.54385 487.14513,949.54579 C 486.63739,949.53778 486.5019,950.12556 486.40041,950.53933 C 486.11665,951.69239 486.0548,952.89002 486.04124,954.07603 C 486.12975,954.6581 486.82602,954.53729 487.22677,954.44123 C 487.80763,954.29739 488.35961,954.05195 488.93655,953.89432 C 489.86688,953.52907 490.67527,952.83461 491.25637,951.99267 C 491.62619,951.32751 491.76614,950.55207 491.93025,949.80962 C 492.07374,948.91485 491.82988,947.53672 492.08409,946.66524 C 492.62114,944.10845 492.13252,946.48246 491.07212,947.63681 z"
       id="path3229"
       sodipodi:nodetypes="ccsscsccccc" />
    <path
       style="opacity:1;fill:#ff0000;fill-opacity:1;stroke:#000000;stroke-width:1.60418785;stroke-miterlimit:4;stroke-dasharray:none;stroke-opacity:1"
       d="M 493.34286,925.43457 C 492.76164,926.12467 491.94456,926.49259 491.14072,926.80429 C 490.58655,927.04944 490.03255,927.34161 489.41587,927.34354 C 488.90813,927.33554 488.77264,927.92332 488.67115,928.33709 C 488.38739,929.49015 488.32555,930.68778 488.31199,931.87379 C 488.40049,932.45586 489.09677,932.33505 489.49751,932.23898 C 490.07838,932.09515 490.63036,931.84971 491.20729,931.69208 C 492.13763,931.32683 492.94602,930.63237 493.52712,929.79043 C 493.89694,929.12527 494.03689,928.34983 494.201,927.60738 C 494.34449,926.71261 494.10063,925.33448 494.35484,924.463 C 494.89189,921.90621 494.40327,924.28022 493.34286,925.43457 z"
       id="path3231"
       sodipodi:nodetypes="ccsscsccccc" />
    <path
       style="opacity:1;fill:#ff0000;fill-opacity:1;stroke:#000000;stroke-width:1.60418785;stroke-miterlimit:4;stroke-dasharray:none;stroke-opacity:1"
       d="M 493.99401,913.99505 C 493.41278,914.68515 492.59571,915.05307 491.79186,915.36477 C 491.23769,915.60992 490.68369,915.90209 490.06702,915.90402 C 489.55928,915.89602 489.42379,916.4838 489.3223,916.89757 C 489.03854,918.05063 488.97669,919.24826 488.96313,920.43427 C 489.05164,921.01634 489.74791,920.89553 490.14866,920.79946 C 490.72952,920.65563 491.2815,920.41019 491.85844,920.25256 C 492.78877,919.88731 493.59716,919.19285 494.17826,918.35091 C 494.54808,917.68575 494.68803,916.91031 494.85214,916.16786 C 494.99563,915.27308 494.75178,913.89496 495.00598,913.02348 C 495.54303,910.46669 495.05441,912.8407 493.99401,913.99505 z"
       id="path3233"
       sodipodi:nodetypes="ccsscsccccc" />
    <path
       style="opacity:1;fill:#ff0000;fill-opacity:1;stroke:#000000;stroke-width:1.60418785;stroke-miterlimit:4;stroke-dasharray:none;stroke-opacity:1"
       d="M 494.31957,902.55551 C 493.73835,903.24561 492.92127,903.61353 492.11743,903.92523 C 491.56326,904.17038 491.00926,904.46255 490.39258,904.46449 C 489.88484,904.45648 489.74935,905.04426 489.64786,905.45803 C 489.3641,906.6111 489.30226,907.80872 489.2887,908.99473 C 489.3772,909.5768 490.07348,909.45599 490.47422,909.35993 C 491.05509,909.21609 491.60707,908.97065 492.184,908.81303 C 493.11434,908.44778 493.92273,907.75331 494.50383,906.91137 C 494.87365,906.24621 495.0136,905.47077 495.17771,904.72832 C 495.32119,903.83355 495.07734,902.45542 495.33155,901.58394 C 495.8686,899.02715 495.37997,901.40117 494.31957,902.55551 z"
       id="path3235"
       sodipodi:nodetypes="ccsscsccccc" />
    <path
       style="opacity:1;fill:#ff0000;fill-opacity:1;stroke:#000000;stroke-width:1.60418785;stroke-miterlimit:4;stroke-dasharray:none;stroke-opacity:1"
       d="M 494.80793,890.7156 C 494.22671,891.4057 493.40963,891.77362 492.60578,892.08532 C 492.05161,892.33047 491.49762,892.62264 490.88094,892.62458 C 490.3732,892.61657 490.23771,893.20435 490.13622,893.61812 C 489.85246,894.77118 489.79062,895.96881 489.77705,897.15482 C 489.86556,897.73689 490.56184,897.61608 490.96258,897.52002 C 491.54344,897.37618 492.09543,897.13074 492.67236,896.97312 C 493.6027,896.60786 494.41109,895.9134 494.99219,895.07146 C 495.36201,894.4063 495.50196,893.63086 495.66606,892.88841 C 495.80955,891.99364 495.5657,890.61551 495.8199,889.74403 C 496.35696,887.18724 495.86833,889.56125 494.80793,890.7156 z"
       id="path3237"
       sodipodi:nodetypes="ccsscsccccc" />
    <path
       style="opacity:1;fill:#ff0000;fill-opacity:1;stroke:#000000;stroke-width:1.60418785;stroke-miterlimit:4;stroke-dasharray:none;stroke-opacity:1"
       d="M 495.51333,878.99009 C 494.93211,879.68019 494.11503,880.04811 493.31118,880.35981 C 492.75702,880.60496 492.20302,880.89713 491.58634,880.89907 C 491.0786,880.89106 490.94311,881.47884 490.84162,881.89261 C 490.55786,883.04568 490.49602,884.2433 490.48246,885.42931 C 490.57096,886.01138 491.26724,885.89057 491.66798,885.79451 C 492.24884,885.65067 492.80083,885.40523 493.37776,885.24761 C 494.3081,884.88236 495.11649,884.18789 495.69759,883.34595 C 496.06741,882.68079 496.20736,881.90535 496.37146,881.1629 C 496.51495,880.26813 496.2711,878.89 496.52531,878.01852 C 497.06236,875.46173 496.57373,877.83575 495.51333,878.99009 z"
       id="path3239"
       sodipodi:nodetypes="ccsscsccccc" />
    <path
       style="opacity:1;fill:#ff0000;fill-opacity:1;stroke:#000000;stroke-width:1.60418785;stroke-miterlimit:4;stroke-dasharray:none;stroke-opacity:1"
       d="M 496.8156,865.76187 C 496.23438,866.45197 495.4173,866.81989 494.61346,867.13159 C 494.05929,867.37674 493.50529,867.66891 492.88861,867.67084 C 492.38087,867.66284 492.24538,868.25062 492.14389,868.66439 C 491.86013,869.81745 491.79829,871.01508 491.78473,872.20109 C 491.87323,872.78316 492.56951,872.66235 492.97025,872.56628 C 493.55112,872.42245 494.1031,872.17701 494.68003,872.01938 C 495.61037,871.65413 496.41876,870.95967 496.99986,870.11773 C 497.36968,869.45257 497.50963,868.67713 497.67374,867.93468 C 497.81723,867.0399 498.11053,865.66178 498.36474,864.7903 C 498.90179,862.23351 497.87601,864.60752 496.8156,865.76187 z"
       id="path3241"
       sodipodi:nodetypes="ccsscsccccc" />
    <path
       style="opacity:1;fill:#ff0000;fill-opacity:1;stroke:#000000;stroke-width:1.60418785;stroke-miterlimit:4;stroke-dasharray:none;stroke-opacity:1"
       d="M 500.11526,855.45727 C 499.34898,855.90357 498.46229,855.96321 497.60584,855.97451 C 497.00584,856.01084 495.62374,855.60621 495.04175,855.39127 C 494.56561,855.20525 494.63562,855.87353 494.40904,856.22795 C 493.77675,857.21527 493.72327,858.64616 493.33529,859.75952 C 493.2346,860.33938 493.92924,860.47024 494.33744,860.52054 C 494.93055,860.58912 495.52859,860.55176 496.12237,860.60594 C 497.115,860.58862 498.09681,860.21806 498.91099,859.62858 C 499.47006,859.13149 499.84731,858.44963 500.2369,857.80735 C 500.65524,857.01423 500.86131,855.62927 501.37665,854.89703 C 502.6918,852.67537 501.48014,854.74174 500.11526,855.45727 z"
       id="path3243"
       sodipodi:nodetypes="ccsscsccccc" />
    <path
       style="opacity:1;fill:#ff0000;fill-opacity:1;stroke:#000000;stroke-width:1.60418785;stroke-miterlimit:4;stroke-dasharray:none;stroke-opacity:1"
       d="M 498.4905,845.22905 C 499.02674,849.05657 501.22873,850.56895 504.42257,850.92864 C 505.0273,850.76542 506.16678,850.13896 506.76934,849.96903 C 507.15843,849.63953 508.06022,849.49646 508.14922,849.08046 C 504.85239,848.33727 502.77514,845.54568 501.50221,843.9363 C 500.76007,844.02003 500.00937,844.14124 499.30686,844.40997 C 498.97486,844.61048 498.77514,844.97051 498.4905,845.22905 z"
       id="path3245"
       sodipodi:nodetypes="ccccccc" />
    <path
       style="opacity:1;fill:#ff0000;fill-opacity:1;stroke:#000000;stroke-width:1.60418785;stroke-miterlimit:4;stroke-dasharray:none;stroke-opacity:1"
       d="M 512.68692,843.53037 C 510.34168,844.4571 510.45528,846.08128 511.38239,848.14108 C 511.73053,848.87504 513.14191,849.11176 514.06819,849.11176 C 515.49383,849.11176 515.43025,849.0307 515.14252,847.81752 C 514.95456,847.02502 515.1295,846.41643 515.29599,845.71439 C 517.61291,843.71244 515.30674,843.551 512.68692,843.53037 z"
       id="path3250"
       sodipodi:nodetypes="ccsscc" />
    <path
       style="opacity:1;fill:#ff0000;fill-opacity:1;stroke:#000000;stroke-width:1.60418785;stroke-miterlimit:4;stroke-dasharray:none;stroke-opacity:1"
       d="M 521.97214,846.3615 C 520.168,846.75637 520.32713,848.61116 520.20718,850.40598 C 520.20718,851.485 523.16283,851.78163 523.73711,852.02378 C 522.72134,848.72251 524.64495,847.71981 524.88817,847.00862 C 524.27336,846.68459 522.61134,846.22675 521.97214,846.3615 z"
       id="path3252"
       sodipodi:nodetypes="ccccc" />
    <path
       style="opacity:1;fill:#ff0000;fill-opacity:1;stroke:#000000;stroke-width:1.60418785;stroke-miterlimit:4;stroke-dasharray:none;stroke-opacity:1"
       d="M 529.68424,849.36651 C 527.8801,849.76138 528.03923,851.61617 527.91928,853.41099 C 527.91928,854.49001 530.87493,854.78664 531.44921,855.02879 C 530.43344,851.72752 532.35705,850.72482 532.60027,850.01363 C 531.98546,849.6896 530.32344,849.23176 529.68424,849.36651 z"
       id="path3260"
       sodipodi:nodetypes="ccccc" />
    <path
       style="opacity:1;fill:#ff0000;fill-opacity:1;stroke:#000000;stroke-width:1.68776798;stroke-miterlimit:4;stroke-dasharray:none;stroke-opacity:1"
       d="M 538.09762,852.48458 C 536.20654,852.90158 536.37335,854.8603 536.24762,856.75569 C 536.24762,857.89517 539.34568,858.20842 539.94763,858.46414 C 538.88291,854.97788 540.8992,853.919 541.15414,853.16796 C 540.50971,852.82577 538.76762,852.34228 538.09762,852.48458 z"
       id="path3262"
       sodipodi:nodetypes="ccccc" />
    <path
       style="opacity:1;fill:#4d4d4d;fill-opacity:1;stroke:#000000;stroke-width:0.81390959;stroke-miterlimit:4;stroke-dasharray:none;stroke-opacity:1"
       d="M 545.97552,856.22628 C 545.9942,856.26456 545.66653,856.55592 545.55812,856.72394 C 545.4334,856.91726 545.47589,857.43283 545.4297,857.71926 C 545.39262,857.94911 545.4297,858.27646 545.4297,858.51551 C 545.4297,858.76435 545.4297,859.01318 545.4297,859.26201 C 545.4297,859.57579 545.46584,859.72244 545.52601,859.90897 C 545.59804,860.13226 545.77485,860.14224 545.94341,860.20756 C 546.10938,860.27187 546.28358,860.16789 546.36081,860.10803 C 546.55649,859.95638 546.71006,859.91506 546.84243,859.7099 C 546.93174,859.57147 546.98217,859.27673 547.03507,859.11272 C 547.11651,858.86026 547.11878,858.54395 547.16351,858.26668 C 547.20087,858.03497 547.15796,857.68491 547.13139,857.5202 C 547.09242,857.27858 546.93769,857.07066 546.84243,856.923 C 546.70957,856.71707 546.63744,856.50575 546.55346,856.37558 C 546.42958,856.18358 546.17613,856.22628 545.97552,856.22628 z"
       id="path3264" />
    <path
       style="opacity:1;fill:#803300;fill-opacity:1;stroke:#000000;stroke-width:1.60418785;stroke-miterlimit:4;stroke-dasharray:none;stroke-opacity:1"
       d="M 453.52243,872.08442 C 464.29851,882.14261 470.23784,896.65502 480.53397,907.02876 C 473.93884,896.8078 463.68347,880.42716 458.43362,868.20172 C 456.98665,866.67645 455.27714,870.97462 453.52243,872.08442 z"
       id="path3270"
       sodipodi:nodetypes="cccc" />
    <path
       style="opacity:1;fill:none;fill-opacity:1;stroke:#000000;stroke-width:1.60418785;stroke-miterlimit:4;stroke-dasharray:none;stroke-opacity:1"
       d="M 455.67106,876.45246 C 462.09184,879.17559 468.94032,879.63319 475.82232,879.43617 C 482.6778,879.80081 489.54843,879.75019 496.40849,879.6126 C 504.19676,877.10436 516.17767,877.45183 521.35822,869.65775"
       id="path3272"
       sodipodi:nodetypes="cccc" />
    <path
       style="opacity:1;fill:#ff00ff;fill-opacity:1;stroke:#000000;stroke-width:1.60418785;stroke-miterlimit:4;stroke-dasharray:none;stroke-opacity:1"
       d="M 438.14411,847.83378 C 436.46738,867.54686 435.81426,883.16104 432.64987,900.5576 C 430.92532,907.82906 434.46171,898.03206 435.71937,895.38066 C 437.6185,891.37684 439.6813,890.85083 443.70005,890.85083 C 447.064,890.85083 448.15575,884.0457 449.83904,880.49696 C 452.67444,874.51929 459.95381,881.20544 461.50311,874.67289 C 462.62066,869.96081 464.99025,866.90748 469.48379,866.90748 C 472.27104,866.90748 477.13254,859.39291 478.69228,857.20073 C 481.47338,853.29195 484.56426,851.28525 489.12856,850.08244 C 472.00968,850.72635 455.15718,850.76159 438.14411,847.83378 z"
       id="path3268"
       sodipodi:nodetypes="ccsssssscc" />
    <path
       style="opacity:1;fill:#ffffff;fill-opacity:0.30232556;stroke:none;stroke-width:2;stroke-miterlimit:4;stroke-dasharray:none;stroke-opacity:1"
       d="M 462.04,882.68037 C 479.26517,887.88265 499.35333,879.40617 516.58714,879.45569 C 514.38633,905.91703 512.98416,932.34285 509.35273,958.7706 C 508.36807,960.36881 507.81496,983.19069 507.26721,977.06558 C 504.62917,955.63972 519.62724,898.82744 508.9354,886.90238 C 491.26694,882.8985 477.3758,897.41586 462.04,882.68037 z"
       id="path3277"
       sodipodi:nodetypes="cccccc" />
    <path
       style="opacity:1;fill:#000000;fill-opacity:0.43023257;stroke:none;stroke-width:2;stroke-miterlimit:4;stroke-dasharray:none;stroke-opacity:1"
       d="M 447.49792,921.57476 C 452.22345,941.17839 451.71382,962.71106 457.85007,981.93926 C 462.19201,987.04511 468.72499,989.68591 475.08998,990.30141 C 476.71368,991.16101 479.50014,989.05391 476.54372,988.48941 C 469.77572,984.61249 462.05032,983.03994 459.23333,974.69487 C 452.91549,958.30581 456.20198,943.27007 447.78053,921.92597 L 447.49792,921.57476 L 447.49792,921.57476 z"
       id="path3281"
       sodipodi:nodetypes="cccccccc" />
    <path
       style="opacity:1;fill:#ffffff;fill-opacity:0.26744187;stroke:none;stroke-width:2;stroke-miterlimit:4;stroke-dasharray:none;stroke-opacity:1"
       d="M 514.13104,870.09688 C 512.9553,870.04 510.67744,868.84863 509.13898,868.03777 C 508.05463,867.46626 506.83467,866.82327 505.66624,866.20744 C 504.47947,865.58196 503.48963,865.34786 502.41055,865.06349 C 501.66508,864.86704 501.54237,867.68838 501.54237,868.26656 C 501.54237,869.77306 503.0656,869.8681 504.36397,869.8681 C 505.27442,869.8681 506.0354,870.32568 507.18556,870.32568 C 508.24945,870.32568 509.66267,870.55447 510.87535,870.55447 C 512.10229,870.55447 512.95975,870.59075 514.13104,870.09688 z"
       id="path3289" />
    <path
       style="opacity:1;fill:#ffffff;fill-opacity:0.26744187;stroke:none;stroke-width:2;stroke-miterlimit:4;stroke-dasharray:none;stroke-opacity:1"
       d="M 488.9537,863.00438 C 490.11127,863.00438 486.63854,863.00438 485.48096,863.00438 C 484.22062,863.00438 483.22809,862.77558 482.00823,862.77558 C 479.77913,862.77558 478.62162,862.22722 477.45027,863.46196 C 476.4306,864.5368 475.97418,865.56754 475.71389,866.66503 C 475.39756,867.99884 478.31644,866.89382 479.62073,866.89382 C 481.24838,866.89382 482.64337,867.12261 484.17869,867.12261 C 485.33627,867.12261 486.49384,867.12261 487.65142,867.12261 C 489.45497,867.12261 490.16168,868.04718 490.47302,865.74987 C 490.74428,863.74835 490.82353,863.79278 488.9537,863.00438 z"
       id="path3291" />
    <path
       style="opacity:1;fill:#ffffff;fill-opacity:0.70348834;stroke:none;stroke-width:2;stroke-miterlimit:4;stroke-dasharray:none;stroke-opacity:1"
       d="M 441.20359,851.56488 C 443.87838,851.82758 446.5332,852.29765 449.19199,852.66214 C 451.70353,852.70917 454.21391,852.78126 456.72125,852.92807 C 459.9421,852.97103 463.17189,852.83344 466.38283,853.15799 C 470.18938,853.25403 473.99205,853.06001 477.78261,852.73729 C 478.38714,852.6978 479.99368,852.65724 478.70469,853.23706 C 475.46179,854.81461 471.79241,853.94084 468.3836,854.6618 C 465.46424,854.84981 462.52172,854.75491 459.63185,855.30032 C 457.08912,855.45391 454.54746,855.09674 452.00268,855.21787 C 449.32398,855.26048 446.62057,855.28822 443.98348,854.74668 C 442.57019,854.45748 440.47505,853.92976 440.00778,852.37688 C 440.16561,851.85623 440.72942,851.61737 441.20359,851.56488 z"
       id="path3293" />
    <path
       style="opacity:1;fill:#000000;fill-opacity:0.18604653;stroke:none;stroke-width:2;stroke-miterlimit:4;stroke-dasharray:none;stroke-opacity:1"
       d="M 450.97066,874.21509 C 449.73673,875.08906 448.77205,876.30466 447.76846,877.4413 C 447.12344,878.49463 447.443,879.83795 446.9336,880.94473 C 446.47883,882.22334 446.04751,883.51125 445.68654,884.82245 C 445.40829,885.80816 444.59678,886.41849 443.79532,886.90861 C 442.78088,887.56853 441.61525,887.87037 440.46325,888.12834 C 439.4528,888.41551 438.52289,889.01081 437.86212,889.87076 C 437.6235,890.10403 436.99712,890.78782 436.87078,890.50635 C 437.53121,889.60911 438.51023,889.05693 439.2033,888.1915 C 440.50608,886.87671 442.2909,886.36445 443.7998,885.39513 C 445.30335,884.25563 446.01909,882.31336 446.39538,880.468 C 446.52888,879.59147 446.72102,878.71488 447.19422,877.96384 C 447.66902,877.19377 448.08348,876.38357 448.55573,875.61396 C 449.11748,874.7712 450.02569,874.35066 450.97066,874.21509 z"
       id="path3297" />
  </g>
</svg>
