<?xml version="1.0" encoding="UTF-8" standalone="no"?>
<!-- Created with Inkscape (http://www.inkscape.org/) -->
<svg
   xmlns:dc="http://purl.org/dc/elements/1.1/"
   xmlns:cc="http://creativecommons.org/ns#"
   xmlns:rdf="http://www.w3.org/1999/02/22-rdf-syntax-ns#"
   xmlns:svg="http://www.w3.org/2000/svg"
   xmlns="http://www.w3.org/2000/svg"
   xmlns:sodipodi="http://sodipodi.sourceforge.net/DTD/sodipodi-0.dtd"
   xmlns:inkscape="http://www.inkscape.org/namespaces/inkscape"
   width="250"
   height="250"
   id="svg2"
   sodipodi:version="0.32"
   inkscape:version="0.46"
   sodipodi:docname="greenrosette.svg"
   inkscape:output_extension="org.inkscape.output.svg.inkscape"
   inkscape:export-filename="P:\pidgey2\data\images\greenrosette.png"
   inkscape:export-xdpi="92.160004"
   inkscape:export-ydpi="92.160004"
   version="1.0">
  <defs
     id="defs4">
    <inkscape:perspective
       sodipodi:type="inkscape:persp3d"
       inkscape:vp_x="0 : 125 : 1"
       inkscape:vp_y="0 : 1000 : 0"
       inkscape:vp_z="250 : 125 : 1"
       inkscape:persp3d-origin="125 : 83.333333 : 1"
       id="perspective3645" />
  </defs>
  <sodipodi:namedview
     id="base"
     pagecolor="#cb90ff"
     bordercolor="#666666"
     borderopacity="1.0"
     gridtolerance="10000"
     guidetolerance="10"
     objecttolerance="10"
     inkscape:pageopacity="0"
     inkscape:pageshadow="2"
     inkscape:zoom="1.7111984"
     inkscape:cx="55.715021"
     inkscape:cy="115.35281"
     inkscape:document-units="px"
     inkscape:current-layer="layer1"
     showgrid="false"
     inkscape:window-width="1424"
     inkscape:window-height="810"
     inkscape:window-x="199"
     inkscape:window-y="72" />
  <metadata
     id="metadata7">
    <rdf:RDF>
      <cc:Work
         rdf:about="">
        <dc:format>image/svg+xml</dc:format>
        <dc:type
           rdf:resource="http://purl.org/dc/dcmitype/StillImage" />
      </cc:Work>
    </rdf:RDF>
  </metadata>
  <g
     inkscape:label="Layer 1"
     inkscape:groupmode="layer"
     id="layer1">
    <path
       style="opacity:1;fill:#008000;fill-opacity:1;stroke:#000000;stroke-width:2.8083663;stroke-miterlimit:4;stroke-dasharray:none;stroke-opacity:1"
       d="M 109.48987,144.45682 C 110.39818,187.09609 105.88733,210.96048 96.00864,245.20804 C 105.07128,234.75366 116.22114,238.05966 126.14546,228.43468 C 138.91858,244.75439 154.48614,241.94437 157.36601,247.55307 C 153.71523,236.2012 143.69025,176.66031 147.48632,142.63165 C 142.38215,144.07236 114.40956,142.49925 109.48987,144.45682 z"
       id="path3306"
       sodipodi:nodetypes="cccccc"
       inkscape:transform-center-x="4.5132151"
       inkscape:transform-center-y="7.7955573" />
    <path
       style="opacity:1;fill:#008000;fill-opacity:1;stroke:#000000;stroke-width:2.8083663;stroke-miterlimit:4;stroke-dasharray:none;stroke-opacity:1"
       d="M 77.481854,131.13432 C 62.108794,170.91624 48.86258,191.27293 26.703623,219.19182 C 39.060729,212.96866 51.45187,218.12383 64.290561,212.99542 C 69.898876,232.94616 82.02975,238.40875 82.560665,244.69121 C 83.500527,232.80383 96.868336,173.92328 113.31832,143.89399 C 108.04971,143.28567 82.776362,131.19444 77.481854,131.13432 z"
       id="path3304"
       sodipodi:nodetypes="cccccc" />
    <path
       style="opacity:1;fill:#008000;fill-opacity:1;stroke:#000000;stroke-width:2.8083663;stroke-miterlimit:4;stroke-dasharray:none;stroke-opacity:1"
       d="M 176.94898,130.00476 C 192.32204,169.78668 205.56825,190.14337 227.72721,218.06226 C 215.3701,211.8391 205.44072,219.86632 192.60203,214.7379 C 186.99371,234.68865 172.40108,237.27919 171.87017,243.56165 C 170.93031,231.67427 157.5625,172.79372 141.11251,142.76443 C 146.38112,142.15611 171.65447,130.06488 176.94898,130.00476 z"
       id="path3274"
       sodipodi:nodetypes="cccccc" />
    <path
       style="fill:#00aa00;fill-opacity:1;stroke:#000000;stroke-width:2.8083663;stroke-miterlimit:4;stroke-dasharray:none;stroke-opacity:1"
       d="M 86.751049,66.764059 C 84.318521,62.846439 82.080473,58.629487 78.759993,55.491379 C 72.27822,50.898223 64.118952,50.49134 57.423153,46.335372 C 54.276558,44.48122 50.804349,41.118266 51.3843,36.903252 C 52.450076,32.432084 56.633314,30.185751 59.456432,27.114776 C 66.208983,21.946663 72.810677,16.496765 80.080326,12.169705 C 82.684971,9.8184517 86.095141,7.2486027 89.620221,9.0270037 C 96.177881,10.476376 102.55511,17.927734 104.78044,23.782412 C 108.28639,30.857058 112.4727,35.971664 113.36857,44.395161 C 114.08886,51.826474 109.72279,59.576528 102.91802,61.724893 C 99.243147,62.557698 90.166588,67.479517 86.751049,66.764059 z"
       id="path3173"
       sodipodi:nodetypes="ccccccccccc" />
    <path
       style="fill:#005500;fill-opacity:0.75;stroke:#000000;stroke-width:2.8083663;stroke-miterlimit:4;stroke-dasharray:none;stroke-opacity:1"
       d="M 93.990655,49.678154 C 90.921956,46.512774 87.457975,43.694609 85.075779,39.854115 C 83.784037,38.316486 82.30624,36.753364 81.893439,34.652811 C 81.016632,33.346967 81.914842,30.88467 83.583306,31.246814 C 85.054854,31.504904 86.584773,31.697134 87.942732,32.438341 C 89.201255,33.135665 90.411799,33.940932 91.559921,34.829682 C 93.376385,36.323134 94.232521,38.679106 95.238244,40.798001 C 100.60274,55.722269 110.93621,68.979845 93.990655,49.678154 z"
       id="path3175"
       sodipodi:nodetypes="cccccccc" />
    <path
       style="fill:#00aa00;fill-opacity:1;stroke:#000000;stroke-width:2.8083663;stroke-miterlimit:4;stroke-dasharray:none;stroke-opacity:1"
       d="M 114.59096,52.877641 C 114.94157,48.188546 115.61792,43.392887 114.8204,38.728817 C 112.37848,30.828906 106.20036,25.109171 103.33773,17.411236 C 101.93536,13.871427 101.14846,8.9302117 104.03859,6.0010717 C 107.45852,3.1921237 112.04382,4.1950577 116.03636,3.6496837 C 124.32854,4.0565407 132.66488,4.1420727 140.8778,5.5522167 C 144.28295,5.4279477 148.44747,5.6649697 150.19107,9.3957307 C 154.50828,14.874883 155.21733,24.952132 153.58515,31.026606 C 152.25497,38.907511 152.59151,45.698094 148.43083,52.91179 C 144.70516,59.229426 136.79757,62.431372 130.20834,59.616461 C 126.83895,57.838947 116.86235,55.70044 114.59096,52.877641 z"
       id="path3192"
       sodipodi:nodetypes="ccccccccccc" />
    <path
       style="fill:#005500;fill-opacity:0.75;stroke:#000000;stroke-width:2.8083663;stroke-miterlimit:4;stroke-dasharray:none;stroke-opacity:1"
       d="M 128.5396,42.884528 C 127.95573,38.365657 126.86066,33.858091 127.20628,29.262931 C 127.07902,27.199471 126.82023,24.992842 127.7089,23.068632 C 127.77391,21.461965 129.90195,20.121076 131.00419,21.509929 C 132.01176,22.686682 133.10325,23.850296 133.74252,25.331597 C 134.32897,26.712593 134.81539,28.146682 135.20452,29.605074 C 135.76973,31.981079 135.08199,34.399452 134.64876,36.73049 C 130.24598,52.011135 130.71131,69.270309 128.5396,42.884528 z"
       id="path3194"
       sodipodi:nodetypes="cccccccc" />
    <path
       style="fill:#00aa00;fill-opacity:1;stroke:#000000;stroke-width:2.8083663;stroke-miterlimit:4;stroke-dasharray:none;stroke-opacity:1"
       d="M 147.63178,59.19993 C 150.14137,55.338413 150.0213,50.65482 151.52733,46.195752 C 153.13567,38.054651 153.45174,30.687661 154.60162,22.494149 C 155.05607,18.680071 156.70168,13.987317 160.57675,13.01564 C 164.85291,12.433502 168.34186,15.772667 172.04739,17.454675 C 179.01898,22.278002 186.17995,26.847574 192.6109,32.494814 C 195.61085,34.223819 199.09677,36.674441 198.84721,40.837497 C 199.99803,47.898782 195.86811,56.986225 191.5995,61.353346 C 186.74163,67.443783 183.83665,73.491204 176.8477,77.478834 C 170.65622,80.927007 162.31852,79.428495 157.95125,73.443393 C 155.87718,70.090852 148.26544,62.863283 147.63178,59.19993 z"
       id="path3196"
       sodipodi:nodetypes="ccccccccccc"
       inkscape:transform-center-x="-6.5202072"
       inkscape:transform-center-y="3.7825587" />
    <path
       style="fill:#005500;fill-opacity:0.75;stroke:#000000;stroke-width:2.8083663;stroke-miterlimit:4;stroke-dasharray:none;stroke-opacity:1"
       d="M 164.3839,58.089867 C 166.00616,53.871447 167.18148,49.387101 169.64256,45.604043 C 170.5037,43.752923 171.31861,41.707203 172.99182,40.524258 C 173.80409,39.171424 176.2734,39.160745 176.57194,40.954908 C 176.88854,42.514795 177.28378,44.108588 177.1389,45.732933 C 176.99559,47.242153 176.74089,48.743284 176.39069,50.212943 C 175.76077,52.570225 174.02857,54.288407 172.55733,56.068399 C 161.56287,66.893957 153.84256,82.053956 164.3839,58.089867 z"
       id="path3198"
       sodipodi:nodetypes="cccccccc"
       inkscape:transform-center-x="-2.4113805"
       inkscape:transform-center-y="10.676692" />
    <path
       style="fill:#00aa00;fill-opacity:1;stroke:#000000;stroke-width:2.8083663;stroke-miterlimit:4;stroke-dasharray:none;stroke-opacity:1"
       d="M 81.360652,91.389906 C 76.981792,90.995198 72.504738,90.251365 68.144507,91.085795 C 60.754726,93.667151 55.386107,100.25704 48.183261,103.28959 C 44.87076,104.77616 40.251682,105.59807 37.527381,102.49215 C 34.917547,98.819581 35.873395,93.915271 35.380442,89.639105 C 35.794794,80.764202 35.909163,71.840694 37.260402,63.054809 C 37.158397,59.409172 37.397026,54.952118 40.889322,53.10107 C 46.025505,48.502254 55.442076,47.784897 61.109783,49.557215 C 68.466212,51.013725 74.811011,50.681546 81.53247,55.165282 C 87.418667,59.179645 90.377062,67.657764 87.720275,74.699736 C 86.045884,78.299238 84.006953,88.970116 81.360652,91.389906 z"
       id="path3200"
       sodipodi:nodetypes="ccccccccccc"
       inkscape:transform-center-x="-3.3452563"
       inkscape:transform-center-y="-5.623106" />
    <path
       style="fill:#005500;fill-opacity:0.75;stroke:#000000;stroke-width:2.8083663;stroke-miterlimit:4;stroke-dasharray:none;stroke-opacity:1"
       d="M 72.08328,78.608677 C 67.859571,79.215 63.644311,80.368618 59.353185,79.979635 C 57.425083,80.107345 55.362691,80.375238 53.568872,79.415982 C 52.068276,79.33975 50.824484,77.056186 52.126436,75.882005 C 53.229862,74.808287 54.321365,73.644694 55.70776,72.966495 C 57.000238,72.344412 58.341901,71.829647 59.705868,71.419132 C 61.927743,70.823913 64.184018,71.57012 66.359758,72.043515 C 80.615936,76.819782 96.740482,76.393001 72.08328,78.608677 z"
       id="path3202"
       sodipodi:nodetypes="cccccccc"
       inkscape:transform-center-x="-8.3605082"
       inkscape:transform-center-y="-8.0342563" />
    <path
       style="fill:#00aa00;fill-opacity:1;stroke:#000000;stroke-width:2.8083663;stroke-miterlimit:4;stroke-dasharray:none;stroke-opacity:1"
       d="M 169.27769,112.36407 C 172.51536,115.54468 176.90018,117.25436 180.82573,119.45063 C 189.0174,120.38413 195.04198,122.04062 202.32037,124.68579 C 205.79005,125.67994 209.91318,128.05564 210.29238,132.29676 C 210.25714,136.91103 206.69764,140.16377 204.64311,143.86874 C 199.24217,150.61659 194.05067,157.59937 187.95962,163.66307 C 185.9563,166.61326 183.21974,169.98207 179.39952,169.15842 C 172.7084,169.43114 164.85066,163.83006 161.38113,158.7156 C 156.39545,152.74469 151.18738,148.85118 148.43439,140.90198 C 146.07369,133.87113 148.5803,125.22776 154.70706,121.39854 C 158.08896,119.64849 165.80145,112.54441 169.27769,112.36407 z"
       id="path3204"
       sodipodi:nodetypes="ccccccccccc" />
    <path
       style="fill:#005500;fill-opacity:0.75;stroke:#000000;stroke-width:2.8083663;stroke-miterlimit:4;stroke-dasharray:none;stroke-opacity:1"
       d="M 168.05611,130.28363 C 171.74329,132.57089 175.73664,134.41975 178.90819,137.53835 C 180.50615,138.70037 182.29044,139.83949 183.16085,141.77325 C 184.30411,142.81652 183.98247,145.43737 182.28153,145.51319 C 180.79505,145.63959 179.2666,145.84488 177.78241,145.4731 C 176.40455,145.11846 175.04917,144.64671 173.73572,144.07792 C 171.63816,143.09322 170.28021,141.02504 168.83001,139.22537 C 160.28495,126.10907 147.2879,115.88402 168.05611,130.28363 z"
       id="path3206"
       sodipodi:nodetypes="cccccccc" />
    <path
       style="fill:#00aa00;fill-opacity:1;stroke:#000000;stroke-width:2.8083663;stroke-miterlimit:4;stroke-dasharray:none;stroke-opacity:1"
       d="M 146.91609,132.90745 C 147.62397,137.55012 148.03938,142.37968 149.85642,146.70392 C 153.99348,153.74868 161.27077,157.71947 165.77116,164.46036 C 167.92413,167.53803 169.79283,172.13408 167.64151,175.71851 C 164.94892,179.32197 160.27264,179.52287 156.51806,181.07522 C 148.37586,182.80451 140.26263,184.8571 131.97314,185.59196 C 128.69472,186.58497 124.59822,187.42172 122.07124,184.24605 C 116.65458,180.03211 113.71328,170.42935 113.94003,164.11324 C 113.4697,156.12057 111.62484,149.61353 114.05194,141.54355 C 116.25699,134.45503 123.21897,129.32032 130.24601,130.36538 C 133.91487,131.22806 144.07966,130.74857 146.91609,132.90745 z"
       id="path3208"
       sodipodi:nodetypes="ccccccccccc" />
    <path
       style="fill:#005500;fill-opacity:0.75;stroke:#000000;stroke-width:2.8083663;stroke-miterlimit:4;stroke-dasharray:none;stroke-opacity:1"
       d="M 135.60684,146.18361 C 137.18397,150.42159 139.25494,154.51763 139.94664,159.06781 C 140.53152,161.03871 141.27609,163.11492 140.84342,165.21087 C 141.13949,166.78751 139.37305,168.63461 137.99234,167.56849 C 136.75097,166.68406 135.43107,165.83387 134.47922,164.55939 C 133.60107,163.36877 132.80818,162.10096 132.10433,160.78463 C 131.02436,158.62247 131.15147,156.09818 131.05099,153.72389 C 131.90971,137.75935 127.59946,121.12091 135.60684,146.18361 z"
       id="path3210"
       sodipodi:nodetypes="cccccccc" />
    <path
       style="fill:#00aa00;fill-opacity:1;stroke:#000000;stroke-width:2.8083663;stroke-miterlimit:4;stroke-dasharray:none;stroke-opacity:1"
       d="M 114.33604,138.31046 C 112.76266,142.70268 110.84868,147.09866 110.38327,151.81397 C 110.64168,160.13054 115.05938,167.48519 115.77464,175.73519 C 116.18607,179.55487 115.63738,184.53282 112.09213,186.46901 C 108.07038,188.12971 103.93631,185.7814 99.962424,185.09756 C 92.115121,182.20041 84.140678,179.59815 76.63411,175.76253 C 73.334793,174.85231 69.402312,173.36593 68.713926,169.25992 C 66.017934,162.69865 67.996271,152.81725 71.164541,147.48347 C 74.519672,140.32549 75.988288,133.70959 81.882687,128.04739 C 87.123384,123.11323 95.553797,122.43221 101.1322,127.12457 C 103.89549,129.84835 112.90181,134.91589 114.33604,138.31046 z"
       id="path3212"
       sodipodi:nodetypes="ccccccccccc"
       inkscape:transform-center-x="7.7463781"
       inkscape:transform-center-y="-3.6957766" />
    <path
       style="fill:#005500;fill-opacity:0.75;stroke:#000000;stroke-width:2.8083663;stroke-miterlimit:4;stroke-dasharray:none;stroke-opacity:1"
       d="M 98.318882,143.67991 C 97.686826,148.19134 97.548168,152.84648 96.004336,157.15009 C 95.582063,159.16803 95.248163,161.36308 93.888036,162.9403 C 93.401813,164.46191 91.006643,165.10488 90.315669,163.43934 C 89.659554,162.00587 88.919483,160.55966 88.697024,158.94539 C 88.498761,157.44332 88.410481,155.92056 88.421946,154.40388 C 88.506571,151.95372 89.804315,149.84171 90.834869,147.73653 C 99.089698,134.40893 103.19652,117.71163 98.318882,143.67991 z"
       id="path3214"
       sodipodi:nodetypes="cccccccc"
       inkscape:transform-center-x="5.5168477"
       inkscape:transform-center-y="-9.9788668" />
    <path
       style="fill:#00aa00;fill-opacity:1;stroke:#000000;stroke-width:2.8083663;stroke-miterlimit:4;stroke-dasharray:none;stroke-opacity:1"
       d="M 168.81198,82.156062 C 173.15184,81.417503 176.396,76.917163 180.44299,74.989964 C 187.04095,70.590465 192.04941,66.892318 198.365,62.102629 C 201.24892,59.810644 205.55002,57.829254 208.88952,60.147014 C 212.24455,63.044277 212.41288,68.05094 213.84748,72.076568 C 215.42923,80.799721 217.31312,89.49323 217.9653,98.369981 C 218.87935,101.88355 219.64408,106.27222 216.66709,108.96414 C 212.70826,114.74513 203.72568,117.85403 197.82645,117.58518 C 191.44444,119.21843 185.44126,121.25523 176.74348,117.37206 C 170.13088,114.98231 165.3631,107.50845 166.36839,99.990481 C 167.18942,96.066621 166.78353,85.183472 168.81198,82.156062 z"
       id="path3216"
       sodipodi:nodetypes="ccccccccccc"
       inkscape:transform-center-x="0.5740469"
       inkscape:transform-center-y="4.278291" />
    <path
       style="fill:#005500;fill-opacity:0.75;stroke:#000000;stroke-width:2.8083663;stroke-miterlimit:4;stroke-dasharray:none;stroke-opacity:1"
       d="M 181.16711,94.317241 C 185.13254,92.646492 188.9674,90.446506 193.22079,89.724867 C 195.06432,89.106909 197.0069,88.318454 198.96303,88.790297 C 200.43707,88.479878 202.15523,90.378452 201.15361,91.852041 C 200.32229,93.177251 199.52263,94.586651 198.32814,95.600311 C 197.2123,96.535441 196.0247,97.378951 194.79214,98.126971 C 192.76789,99.274101 190.41036,99.127601 188.19201,99.225351 C 173.28231,98.240101 157.72174,102.78534 181.16711,94.317241 z"
       id="path3218"
       sodipodi:nodetypes="cccccccc"
       inkscape:transform-center-x="6.41918"
       inkscape:transform-center-y="8.2242718" />
    <path
       style="fill:#00aa00;fill-opacity:1;stroke:#000000;stroke-width:2.8083663;stroke-miterlimit:4;stroke-dasharray:none;stroke-opacity:1"
       d="M 92.225781,125.04054 C 88.2833,127.11828 84.088574,128.95099 80.753841,132.07174 C 75.664041,138.36101 74.236257,146.97026 69.523886,153.54304 C 67.400981,156.64457 63.838411,159.89741 60.008427,158.7389 C 56.003712,157.03164 54.461541,152.30153 51.980268,148.90908 C 48.062346,141.07514 43.863961,133.36508 40.791766,125.09052 C 38.949088,122.02268 37.007644,118.07157 39.10913,114.55851 C 41.296374,107.78376 49.020482,101.97359 54.730719,100.3653 C 61.812195,97.350871 68.948352,88.59064 74.931975,93.903201 C 81.908922,94.095681 88.526062,99.728721 89.639832,107.22914 C 89.93802,111.23755 93.328464,121.50686 92.225781,125.04054 z"
       id="path3220"
       sodipodi:nodetypes="ccccccccccc"
       inkscape:transform-center-x="2.6596038"
       inkscape:transform-center-y="-3.9799268" />
    <path
       style="fill:#005500;fill-opacity:0.75;stroke:#000000;stroke-width:2.8083663;stroke-miterlimit:4;stroke-dasharray:none;stroke-opacity:1"
       d="M 77.066535,117.32813 C 73.738974,120.1781 70.682154,123.49239 66.817606,125.52661 C 65.226817,126.69985 63.588438,128.06732 61.589383,128.23499 C 60.266746,128.9976 58.101421,127.72696 58.651789,126.00241 C 59.080405,124.4735 59.455529,122.87413 60.317063,121.52804 C 61.125129,120.28183 62.027022,119.10047 62.998216,117.99613 C 64.615665,116.26017 66.908446,115.65477 69.000861,114.86001 C 83.517269,111.08741 97.129651,101.8252 77.066535,117.32813 z"
       id="path3222"
       sodipodi:nodetypes="cccccccc"
       inkscape:transform-center-x="-3.4620141"
       inkscape:transform-center-y="-9.9630914" />
    <path
       sodipodi:type="arc"
       style="fill:#ffffff;fill-opacity:1;stroke:#000000;stroke-width:2.2219398;stroke-miterlimit:4;stroke-dasharray:none;stroke-opacity:1"
       id="path3262"
       sodipodi:cx="145.24794"
       sodipodi:cy="104.75207"
       sodipodi:rx="36.983471"
       sodipodi:ry="39.049587"
       d="M 182.23141,104.75207 A 36.983471,39.049587 0 1 1 108.26447,104.75207 A 36.983471,39.049587 0 1 1 182.23141,104.75207 z"
       transform="matrix(1.2959374,0,0,1.2327043,-64.828255,-32.126649)" />
    <path
       style="opacity:1;fill:#00aa00;fill-opacity:1;stroke:#000000;stroke-width:2.8083663;stroke-miterlimit:4;stroke-dasharray:none;stroke-opacity:1"
       d="M 90.428057,184.72796 C 88.109825,200.52333 80.69354,214.61399 78.1084,230.32429 C 75.821057,209.00719 81.913094,202.02611 90.300559,185.42667 C 90.36583,185.19935 90.410819,184.96504 90.428057,184.72796 z"
       id="path3308"
       sodipodi:nodetypes="cccc" />
    <path
       style="opacity:1;fill:#00aa00;fill-opacity:1;stroke:#000000;stroke-width:2.8083663;stroke-miterlimit:4;stroke-dasharray:none;stroke-opacity:1"
       d="M 141.29152,188.29686 C 146.61018,203.91895 143.90783,220.02182 148.8088,235.67295 C 134.08956,216.78396 138.79488,207.82644 141.49206,188.99802 C 141.45994,188.76027 141.39581,188.52423 141.29152,188.29686 z"
       id="path3317"
       sodipodi:nodetypes="cccc" />
    <path
       style="opacity:1;fill:#00aa00;fill-opacity:1;stroke:#000000;stroke-width:2.8083663;stroke-miterlimit:4;stroke-dasharray:none;stroke-opacity:1"
       d="M 187.9955,170.21201 C 198.68767,182.7008 204.11838,198.01223 214.53838,210.65163 C 195.9489,198.02031 195.11516,188.54912 188.44931,170.78391 C 188.31994,170.57929 188.16948,170.38577 187.9955,170.21201 z"
       id="path3319"
       sodipodi:nodetypes="cccc" />
  </g>
</svg>
