<?xml version="1.0" encoding="UTF-8" standalone="no"?>
<!-- Created with Inkscape (http://www.inkscape.org/) -->
<svg
   xmlns:dc="http://purl.org/dc/elements/1.1/"
   xmlns:cc="http://creativecommons.org/ns#"
   xmlns:rdf="http://www.w3.org/1999/02/22-rdf-syntax-ns#"
   xmlns:svg="http://www.w3.org/2000/svg"
   xmlns="http://www.w3.org/2000/svg"
   xmlns:sodipodi="http://sodipodi.sourceforge.net/DTD/sodipodi-0.dtd"
   xmlns:inkscape="http://www.inkscape.org/namespaces/inkscape"
   width="250"
   height="250"
   id="svg2"
   sodipodi:version="0.32"
   inkscape:version="0.46"
   sodipodi:docname="locust.svg"
   inkscape:output_extension="org.inkscape.output.svg.inkscape"
   inkscape:export-filename="P:\pidgey2\data\images\locust.png"
   inkscape:export-xdpi="92.160004"
   inkscape:export-ydpi="92.160004"
   version="1.0">
  <defs
     id="defs4">
    <inkscape:perspective
       sodipodi:type="inkscape:persp3d"
       inkscape:vp_x="0 : 125 : 1"
       inkscape:vp_y="0 : 1000 : 0"
       inkscape:vp_z="250 : 125 : 1"
       inkscape:persp3d-origin="125 : 83.333333 : 1"
       id="perspective3645" />
  </defs>
  <sodipodi:namedview
     id="base"
     pagecolor="#cb90ff"
     bordercolor="#666666"
     borderopacity="1.0"
     gridtolerance="10000"
     guidetolerance="10"
     objecttolerance="10"
     inkscape:pageopacity="0"
     inkscape:pageshadow="2"
     inkscape:zoom="0.92164295"
     inkscape:cx="-28.450785"
     inkscape:cy="143.24019"
     inkscape:document-units="px"
     inkscape:current-layer="layer1"
     showgrid="false"
     inkscape:window-width="824"
     inkscape:window-height="994"
     inkscape:window-x="5"
     inkscape:window-y="3"
     showguides="true"
     inkscape:guide-bbox="true" />
  <metadata
     id="metadata7">
    <rdf:RDF>
      <cc:Work
         rdf:about="">
        <dc:format>image/svg+xml</dc:format>
        <dc:type
           rdf:resource="http://purl.org/dc/dcmitype/StillImage" />
      </cc:Work>
    </rdf:RDF>
  </metadata>
  <g
     inkscape:label="Layer 1"
     inkscape:groupmode="layer"
     id="layer1">
    <path
       style="opacity:1;fill:none;fill-opacity:1;stroke:#000000;stroke-width:3;stroke-miterlimit:4;stroke-dasharray:none;stroke-opacity:1"
       d="M 179.95356,117.04259 C 179.96819,110.74645 184.08337,103.15546 190.95466,103.37846 C 196.11424,103.64009 201.09318,102.17611 205.67255,99.842615 C 208.3929,98.418344 210.80903,96.182216 212.00261,93.243314"
       id="path3199" />
    <path
       style="opacity:1;fill:none;fill-opacity:1;stroke:#000000;stroke-width:3;stroke-miterlimit:4;stroke-dasharray:none;stroke-opacity:1"
       d="M 179.49389,137.14061 C 186.1104,142.58579 192.73119,146.98325 202.0037,145.29824 C 206.0216,143.96865 210.02305,145.14381 211.54296,149.49793"
       id="path3201"
       sodipodi:nodetypes="ccc" />
    <path
       style="opacity:1;fill:#e9c6af;fill-opacity:1;stroke:#000000;stroke-width:3;stroke-miterlimit:4;stroke-dasharray:none;stroke-opacity:1"
       d="M 108.98256,96.13495 C 100.62538,94.823084 93.228881,91.547155 86.245465,88.345921 C 84.687173,87.630921 83.066093,86.963344 81.795192,86.060648 C 77.734364,83.671912 72.84804,81.904402 68.258207,79.933569 C 71.012936,79.201738 74.454929,80.175368 77.180166,81.178658 C 84.828235,84.052045 92.325038,87.088799 100.02642,89.90693 C 102.45511,90.801137 104.93796,91.641182 107.10187,92.783267 C 108.44305,93.487358 110.14561,94.21733 110.54973,95.250383 C 110.63892,95.794588 109.72714,96.028328 108.98256,96.13495 z"
       id="path3296" />
    <path
       style="opacity:1;fill:#806600;fill-opacity:1;stroke:#000000;stroke-width:3;stroke-miterlimit:4;stroke-dasharray:none;stroke-opacity:1"
       d="M 147.95202,114.83452 C 145.20796,112.873 145.55861,106.35916 141.3155,104.52614 C 134.2702,101.48255 119.80403,99.289327 112.47463,98.509097 C 106.14767,97.835588 106.32009,92.933284 113.8624,93.977716 C 120.88184,94.949743 128.16639,94.396608 134.96969,96.778259 C 140.62977,98.759707 147.76377,98.767586 151.77182,103.43786 C 159.34072,112.2573 151.76723,117.56173 147.95202,114.83452 z"
       id="path3298"
       sodipodi:nodetypes="cssssss" />
    <path
       style="opacity:1;fill:#e9c6af;fill-opacity:1;stroke:#000000;stroke-width:3;stroke-miterlimit:4;stroke-dasharray:none;stroke-opacity:1"
       d="M 54.422537,94.827741 C 43.595936,92.39634 32.974178,89.566636 21.895162,87.463833 C 18.586093,87.147098 15.17808,87.110172 12.007463,86.483115 C 10.670761,86.146927 2.845543,87.220385 7.8073151,86.249495 C 13.800158,85.206149 20.026566,84.659428 25.724619,85.648225 C 30.519685,86.071814 34.440301,87.71426 38.984527,88.520901 C 46.01994,90.352702 53.286811,91.973443 60.67555,93.475516 C 64.145984,93.854239 72.727901,95.41955 75.975259,96.125263 L 75.07645,99.988295 C 68.560019,97.881041 61.281405,96.600298 54.422537,94.827741 z"
       id="path3300"
       sodipodi:nodetypes="cccccccccc" />
    <path
       style="opacity:1;fill:#e9c6af;fill-opacity:1;stroke:#000000;stroke-width:3;stroke-miterlimit:4;stroke-dasharray:none;stroke-opacity:1"
       d="M 112.70966,158.83504 C 104.35248,160.1469 96.955971,163.42283 89.972556,166.62406 C 88.414263,167.33907 86.793185,168.00663 85.522283,168.90933 C 81.461454,171.29807 76.575131,173.06558 71.9853,175.03642 C 74.740028,175.76826 78.182019,174.79462 80.907257,173.79132 C 88.555327,170.91795 96.052133,167.88118 103.7535,165.06306 C 106.1822,164.16884 108.66505,163.3288 110.82896,162.18672 C 112.17013,161.48263 113.8727,160.75266 114.27682,159.71959 C 114.366,159.17539 113.45423,158.94165 112.70966,158.83504 z"
       id="path3265" />
    <path
       style="opacity:1;fill:#806600;fill-opacity:1;stroke:#000000;stroke-width:3;stroke-miterlimit:4;stroke-dasharray:none;stroke-opacity:1"
       d="M 151.67911,140.13545 C 148.93505,142.09698 149.2857,148.61081 145.04258,150.44384 C 137.9973,153.48744 123.53113,155.68066 116.20171,156.46087 C 109.87475,157.13439 110.04717,162.03669 117.5895,160.99226 C 124.60892,160.02024 131.89348,160.57336 138.69677,158.19171 C 144.35685,156.21027 151.49085,156.20238 155.49891,151.53211 C 163.0678,142.71266 155.49431,137.40825 151.67911,140.13545 z"
       id="path3263"
       sodipodi:nodetypes="cssssss" />
    <path
       style="opacity:1;fill:none;fill-opacity:1;stroke:#000000;stroke-width:3;stroke-miterlimit:4;stroke-dasharray:none;stroke-opacity:1"
       d="M 202.76348,130.53749 C 205.9996,129.11213 209.5156,130.6652 212.69428,131.52636 C 217.60825,133.37345 222.29486,135.81002 227.11098,137.88728 C 228.52958,138.73193 229.74623,139.91259 231.25152,140.60642"
       id="path3205" />
    <path
       style="opacity:1;fill:none;fill-opacity:1;stroke:#000000;stroke-width:3;stroke-miterlimit:4;stroke-dasharray:none;stroke-opacity:1"
       d="M 204.22368,121.53801 C 207.93087,120.68212 211.36062,118.88703 214.90149,117.50257 C 220.05853,115.21594 225.38641,113.28411 230.33465,110.53743 C 231.56635,109.80621 232.75562,108.99686 233.8735,108.09195"
       id="path3203" />
    <path
       style="opacity:1;fill:#e9c6af;fill-opacity:1;stroke:#000000;stroke-width:3;stroke-miterlimit:4;stroke-dasharray:none;stroke-opacity:1"
       d="M 58.089284,160.02332 C 47.267583,162.47644 36.651524,165.32746 25.57675,167.45249 C 22.268325,167.77585 18.860392,167.81963 15.691038,168.45305 C 14.355015,168.79191 6.5276593,167.73416 11.491369,168.69509 C 17.486293,169.72642 23.713785,170.26064 29.409842,169.26042 C 34.204049,168.82719 38.121362,167.17688 42.663959,166.36113 C 49.695683,164.51521 56.959287,162.87989 64.344997,161.36299 C 67.814664,160.97731 76.393422,159.39478 79.639359,158.68255 L 78.732798,154.82133 C 72.220608,156.94166 64.944581,158.23701 58.089284,160.02332 z"
       id="path3217"
       sodipodi:nodetypes="cccccccccc" />
    <path
       style="opacity:1;fill:#806600;fill-opacity:1;stroke:#000000;stroke-width:3;stroke-miterlimit:4;stroke-dasharray:none;stroke-opacity:1"
       d="M 129.90733,116.32322 C 112.5758,117.33278 95.470974,120.58493 78.149572,121.68167 C 69.232188,122.24629 56.572973,122.33976 52.422516,128.99864 C 47.965323,136.14962 66.446451,137.09513 72.955311,137.72226 C 87.875618,139.1598 103.16975,137.74476 118.09963,139.55873 C 130.97885,141.12354 143.97203,140.78239 156.85057,140.55462 C 165.87377,140.39503 171.82345,132.51766 171.47479,122.82241 C 170.99293,109.4238 139.14288,115.78525 129.90733,116.32322 z"
       id="path3186"
       sodipodi:nodetypes="csssssss" />
    <path
       style="opacity:1;fill:#d4aa00;fill-opacity:0.26162792000000001;stroke:none;stroke-width:3;stroke-miterlimit:4;stroke-dasharray:none;stroke-opacity:1"
       d="M 75.88325,126.41325 C 75.59528,127.84916 76.680471,131.20001 76.165921,133.52082 C 75.827033,135.04932 81.286153,135.07955 79.310638,131.91082 C 77.012136,128.224 81.972769,121.52021 75.88325,126.41325 z"
       id="path3280" />
    <path
       style="opacity:1;fill:#d4aa00;fill-opacity:0.26162792000000001;stroke:none;stroke-width:3;stroke-miterlimit:4;stroke-dasharray:none;stroke-opacity:1"
       d="M 131.07884,122.11649 C 130.79088,124.73321 131.87608,130.83959 131.36153,135.06889 C 131.02263,137.85433 136.48175,137.90945 134.50624,132.13493 C 132.20772,125.4163 137.16837,113.19971 131.07884,122.11649 z"
       id="path3290" />
    <path
       style="opacity:1;fill:#806600;fill-opacity:1;stroke:#000000;stroke-width:3;stroke-miterlimit:4;stroke-dasharray:none;stroke-opacity:1"
       d="M 139.55709,120.1203 C 113.18672,125.31487 99.120661,110.95214 81.469616,103.02895 C 82.663023,101.23499 80.099306,98.356736 82.727031,98.07957 C 96.867341,109.10066 117.63349,101.88361 132.08558,109.50634 C 142.48115,117.26132 143.43154,116.06114 139.55709,120.1203 z"
       id="path3302"
       sodipodi:nodetypes="ccccc" />
    <path
       style="opacity:1;fill:#d4aa00;fill-opacity:0.26162792000000001;stroke:none;stroke-width:3;stroke-miterlimit:4;stroke-dasharray:none;stroke-opacity:1"
       d="M 86.121144,125.95558 C 85.833174,127.39149 86.918365,130.74234 86.403815,133.06315 C 86.064927,134.59164 91.524047,134.62188 89.548532,131.45315 C 87.25003,127.76633 92.210665,121.06254 86.121144,125.95558 z"
       id="path3282"
       inkscape:transform-center-x="1.9544667" />
    <path
       style="opacity:1;fill:#d4aa00;fill-opacity:0.26162792000000001;stroke:none;stroke-width:3;stroke-miterlimit:4;stroke-dasharray:none;stroke-opacity:1"
       d="M 66.400949,126.32829 C 66.11298,127.76419 67.198171,131.11504 66.683619,133.43585 C 66.344731,134.96435 71.803852,134.99459 69.828338,131.82585 C 67.529835,128.13904 72.490469,121.43524 66.400949,126.32829 z"
       id="path3278" />
    <path
       style="opacity:1;fill:#554400;fill-opacity:1;stroke:#000000;stroke-width:3;stroke-miterlimit:4;stroke-dasharray:none;stroke-opacity:1"
       d="M 81.264417,102.51197 C 78.618583,103.17397 74.831497,102.80326 73.863721,99.674134 C 72.837726,96.322783 76.786734,93.94462 79.618961,94.424035 C 82.545925,94.90377 83.984473,98.626932 82.475336,101.11866 C 82.175971,101.66573 81.76473,102.15023 81.264417,102.51197 z"
       id="path3304" />
    <path
       style="opacity:1;fill:#806600;fill-opacity:1;stroke:#000000;stroke-width:3;stroke-miterlimit:4;stroke-dasharray:none;stroke-opacity:1"
       d="M 187.89454,135.23584 C 189.95209,128.89946 190.24732,122.94151 186.36438,117.20302 C 184.8861,115.59794 182.736,115.11364 180.86725,114.25575 C 176.49486,112.62829 171.47685,111.54575 167.06664,113.61413 C 163.42403,115.29278 161.23978,119.43471 160.81983,123.58912 C 160.33611,128.14534 161.24014,133.10696 164.0305,136.65657 C 164.8917,138.7285 171.49303,143.986 187.89454,135.23584 z"
       id="path3191"
       sodipodi:nodetypes="ccccccc" />
    <path
       style="opacity:1;fill:#806600;fill-opacity:1;stroke:#000000;stroke-width:3;stroke-miterlimit:4;stroke-dasharray:none;stroke-opacity:1"
       d="M 187.69309,116.73382 C 191.92945,116.97843 196.26779,116.12987 200.4262,117.41915 C 202.3229,118.61932 204.22518,120.64256 204.85959,123.25322 C 204.76879,125.65643 205.03658,131.89954 203.37517,133.715 C 200.13607,135.79532 188.70001,141.66646 188.06727,134.39257 C 185.77269,129.82848 185.32508,121.55237 187.69309,116.73382 z"
       id="path3193"
       sodipodi:nodetypes="cccccc" />
    <path
       style="opacity:1;fill:#d40000;fill-opacity:1;stroke:#000000;stroke-width:3;stroke-miterlimit:4;stroke-dasharray:none;stroke-opacity:1"
       d="M 188.49742,118.25054 C 190.31614,123.61473 195.50448,121.76816 198.34709,120.08926 C 199.66714,119.24447 200.99302,119.26255 200.58317,116.37391 C 197.97314,112.88552 189.75606,113.19905 188.49742,118.25054 z"
       id="path3197"
       sodipodi:nodetypes="cccc" />
    <path
       style="opacity:1;fill:#d4aa00;fill-opacity:0.26162792000000001;stroke:none;stroke-width:3;stroke-miterlimit:4;stroke-dasharray:none;stroke-opacity:1"
       d="M 152.44488,121.47928 C 152.15692,124.30856 153.24211,130.91092 152.72756,135.48375 C 152.38867,138.49544 157.84778,138.55504 155.87227,132.31148 C 153.57377,125.04713 158.5344,111.83823 152.44488,121.47928 z"
       id="path3294" />
    <path
       style="opacity:1;fill:#ffffff;fill-opacity:0.26162792000000001;stroke:#000000;stroke-width:3;stroke-miterlimit:4;stroke-dasharray:none;stroke-opacity:1"
       d="M 148.82153,229.63163 C 147.37296,219.90737 145.35632,209.30989 146.18212,199.42474 C 146.69633,190.39294 146.8391,180.97441 148.85137,172.11421 C 150.92659,161.76721 153.80209,139.27175 162.49415,132.42388 C 172.23826,162.73432 169.58658,265.57462 148.82153,229.63163 z"
       id="path3207"
       sodipodi:nodetypes="ccccc" />
    <path
       style="opacity:1;fill:#d4aa00;fill-opacity:0.26162792000000001;stroke:none;stroke-width:3;stroke-miterlimit:4;stroke-dasharray:none;stroke-opacity:1"
       d="M 142.20699,121.82355 C 141.91901,124.55837 143.00421,130.94029 142.48967,135.36044 C 142.15078,138.27158 147.6099,138.32918 145.63438,132.29409 C 143.33588,125.27228 148.29651,112.5044 142.20699,121.82355 z"
       id="path3292" />
    <path
       style="opacity:1;fill:#d4aa00;fill-opacity:0.26162792000000001;stroke:none;stroke-width:3;stroke-miterlimit:4;stroke-dasharray:none;stroke-opacity:1"
       d="M 120.84095,123.2332 C 120.55299,125.59014 121.63817,131.09031 121.12363,134.89974 C 120.78474,137.40866 126.24385,137.4583 124.26834,132.25706 C 121.96985,126.20542 126.93048,115.20165 120.84095,123.2332 z"
       id="path3288" />
    <path
       style="opacity:1;fill:#554400;fill-opacity:0.65697673999999995;stroke:none;stroke-width:3;stroke-miterlimit:4;stroke-dasharray:none;stroke-opacity:1"
       d="M 114.10827,122.39528 C 114.10827,123.12146 114.10827,125.8647 114.10827,127.57334 C 114.10827,129.03478 114.60198,131.02456 114.95507,132.10414 C 115.41806,133.51966 115.93951,134.47471 117.07209,135.34039 C 119.18919,136.95862 119.81472,133.75126 120.0359,133.07501 C 120.49748,131.66377 120.0359,129.68387 120.0359,128.22059 C 120.0359,126.53956 120.10168,124.86186 119.6125,123.36617 C 119.21627,122.15473 115.75218,122.39528 114.10827,122.39528 z"
       id="path3318" />
    <path
       style="opacity:1;fill:#806600;fill-opacity:1;stroke:#000000;stroke-width:3;stroke-miterlimit:4;stroke-dasharray:none;stroke-opacity:1"
       d="M 142.42259,135.44082 C 116.04186,130.29919 102.00465,144.69012 84.369531,152.64872 C 85.566537,154.44029 83.0086,157.32367 85.636877,157.59556 C 99.755048,146.54612 120.53563,153.72147 134.9724,146.06976 C 145.35239,138.29395 146.30519,139.49221 142.42259,135.44082 z"
       id="path3213"
       sodipodi:nodetypes="ccccc" />
    <path
       style="opacity:1;fill:#d4aa00;fill-opacity:0.26162792000000001;stroke:none;stroke-width:3;stroke-miterlimit:4;stroke-dasharray:none;stroke-opacity:1"
       d="M 97.537034,124.5997 C 97.24907,126.34261 98.334254,130.40989 97.819707,133.22692 C 97.48082,135.08222 102.93995,135.11893 100.96443,131.27269 C 98.665923,126.79759 103.62656,118.66047 97.537034,124.5997 z"
       id="path3284" />
    <path
       style="opacity:1;fill:#d4aa00;fill-opacity:0.26162792000000001;stroke:none;stroke-width:3;stroke-miterlimit:4;stroke-dasharray:none;stroke-opacity:1"
       d="M 110.60307,123.36899 C 110.31509,125.25361 111.40029,129.65157 110.88573,132.6976 C 110.54685,134.70374 116.00597,134.74343 114.03045,130.5845 C 111.73195,125.74559 116.69258,116.94694 110.60307,123.36899 z"
       id="path3286" />
    <path
       style="opacity:1;fill:#554400;fill-opacity:0.65697673999999995;stroke:none;stroke-width:3;stroke-miterlimit:4;stroke-dasharray:none;stroke-opacity:1"
       d="M 102.28314,122.18636 C 102.28314,122.91254 102.28314,125.65577 102.28314,127.36441 C 102.28314,128.82585 102.77684,130.81563 103.12995,131.89521 C 103.59292,133.31073 104.11438,134.26578 105.24695,135.13146 C 107.36406,136.74969 107.98958,133.54232 108.21077,132.86608 C 108.67235,131.45484 108.21077,129.47493 108.21077,128.01166 C 108.21077,126.33063 108.27655,124.65292 107.78738,123.15724 C 107.39113,121.94581 103.92705,122.18636 102.28314,122.18636 z"
       id="path3316" />
    <path
       style="opacity:1;fill:#ffffff;fill-opacity:0.17441861000000000;stroke:#000000;stroke-width:3;stroke-miterlimit:4;stroke-dasharray:none;stroke-opacity:1"
       d="M 161.24619,131.03186 C 156.82484,137.47891 152.3235,143.79912 150.32296,151.58475 C 131.29793,182.47004 133.67396,211.08356 105.16544,225.65684 C 99.426771,227.68745 84.128485,231.92643 84.80496,221.86447 C 87.32736,214.02479 87.646265,205.67618 88.032291,196.82697 C 90.31027,173.8615 96.881859,146.54098 118.34359,133.59085 C 130.8141,131.06379 143.38402,127.96942 156.15548,128.84492 C 157.9948,129.11536 159.7997,129.81053 161.24619,131.03186 z"
       id="path3209"
       sodipodi:nodetypes="cccccccc" />
    <path
       style="opacity:1;fill:#ffffff;fill-opacity:0.31395347000000001;stroke:#000000;stroke-width:3;stroke-miterlimit:4;stroke-dasharray:none;stroke-opacity:1"
       d="M 160.20517,119.24294 C 155.78382,112.79588 151.28248,106.47569 149.28195,98.690043 C 130.54392,66.124097 129.18,37.816713 104.12441,24.617973 C 98.38575,22.587359 83.087463,18.348382 83.763938,28.410335 C 86.286339,36.250025 87.75608,41.146124 88.142106,49.995326 C 90.420085,72.960793 95.840836,103.73381 117.30256,116.68394 C 129.77308,119.21102 142.343,122.30538 155.11446,121.4299 C 156.95378,121.15944 158.75869,120.46427 160.20517,119.24294 z"
       id="path3232"
       sodipodi:nodetypes="cccccccc" />
    <path
       style="opacity:1;fill:#554400;fill-opacity:0.65697673999999995;stroke:none;stroke-width:3;stroke-miterlimit:4;stroke-dasharray:none;stroke-opacity:1"
       d="M 90.187151,122.71891 C 90.187151,123.44509 90.187151,126.18831 90.187151,127.89696 C 90.187151,129.3584 90.680858,131.34818 91.033955,132.42775 C 91.496941,133.84329 92.018395,134.79835 93.150967,135.66403 C 95.268082,137.28224 95.893603,134.07488 96.114782,133.39863 C 96.576368,131.9874 96.114782,130.00748 96.114782,128.54422 C 96.114782,126.86317 96.180575,125.18547 95.691384,123.6898 C 95.295149,122.47835 91.831069,122.71891 90.187151,122.71891 z"
       id="path3320" />
    <path
       style="opacity:1;fill:#d40000;fill-opacity:1;stroke:#000000;stroke-width:3;stroke-miterlimit:4;stroke-dasharray:none;stroke-opacity:1"
       d="M 189.68789,135.93136 C 191.50661,141.29553 196.69495,139.44897 199.53757,137.77006 C 200.85762,136.9253 202.1835,136.94337 201.77365,134.05472 C 199.16362,130.56631 190.94653,130.87987 189.68789,135.93136 z"
       id="path3244"
       sodipodi:nodetypes="cccc" />
    <path
       style="opacity:1;fill:#554400;fill-opacity:1;stroke:#000000;stroke-width:3;stroke-miterlimit:4;stroke-dasharray:none;stroke-opacity:1"
       d="M 83.786271,160.42384 C 81.059289,160.37629 77.498283,159.03513 77.376019,155.76205 C 77.255225,152.25925 81.68622,150.98781 84.296889,152.18604 C 86.998959,153.40918 87.421639,157.37815 85.317381,159.39266 C 84.886262,159.84325 84.363341,160.20439 83.786271,160.42384 z"
       id="path3314" />
    <path
       style="opacity:1;fill:#554400;fill-opacity:1;stroke:none;stroke-width:3;stroke-miterlimit:4;stroke-dasharray:none;stroke-opacity:1"
       d="M 184.06007,121.24468 C 181.27102,119.61069 178.10795,118.69679 174.93282,118.77038 C 172.44776,118.60858 169.90718,117.94136 167.44483,118.63748 C 166.63012,119.02726 166.25433,120.04456 166.2386,120.96154 C 165.97116,121.78234 166.40718,122.88092 167.28577,122.87754 C 169.32432,123.50919 171.3815,124.15183 173.49849,124.36758 C 176.09285,124.47384 178.68888,123.90939 181.27771,124.28678 C 182.09746,124.34737 183.07426,124.10597 183.46427,123.22929 C 183.793,122.62292 183.91946,121.92276 184.06007,121.24468 z"
       id="path3328" />
    <path
       style="opacity:1;fill:#554400;fill-opacity:1;stroke:none;stroke-width:3;stroke-miterlimit:4;stroke-dasharray:none;stroke-opacity:1"
       d="M 184.95295,128.0444 C 182.22232,128.03902 179.46969,128.1581 176.80177,128.83789 C 174.77104,129.11428 172.71145,129.28211 170.74693,129.94707 C 169.07513,130.36174 167.37678,130.67952 165.75156,131.28863 C 164.95737,131.7504 165.27749,133.0078 165.92448,133.45339 C 167.5447,134.74716 169.64061,134.80441 171.57022,134.8397 C 173.51189,134.86562 175.53285,134.99229 177.35461,134.12049 C 178.76106,133.52133 180.1667,132.8972 181.64803,132.55344 C 183.14792,132.02392 184.42855,130.67786 184.74808,128.96537 C 184.82916,128.66197 184.89541,128.35405 184.95295,128.0444 z"
       id="path3335" />
    <path
       style="opacity:1;fill:#806600;fill-opacity:0.58139534999999998;stroke:none;stroke-width:3;stroke-miterlimit:4;stroke-dasharray:none;stroke-opacity:1"
       d="M 164.17502,154.82315 C 161.30818,155.48681 158.3051,155.27354 155.47414,156.1292 C 154.52458,156.45721 153.56882,157.28921 153.60559,158.40366 C 153.67867,159.64314 154.72061,160.54635 155.74689,161.03087 C 157.55348,159.32083 161.07708,167.96608 164.71514,159.44297 C 164.53572,157.90833 163.96034,156.38534 164.17502,154.82315 z"
       id="path3342"
       sodipodi:nodetypes="cccccc" />
    <path
       style="opacity:1;fill:#806600;fill-opacity:0.58139534999999998;stroke:none;stroke-width:3;stroke-miterlimit:4;stroke-dasharray:none;stroke-opacity:1"
       d="M 160.92027,167.99275 C 160.63847,169.97305 159.61161,171.79825 158.23033,173.18555 C 157.31911,174.05095 156.0359,174.56071 154.79535,174.29462 C 153.99248,174.24329 153.34758,174.88927 153.03764,175.59482 C 152.3628,176.77902 152.04528,178.39666 152.8768,179.58815 C 153.40803,180.37688 154.2664,181.06168 155.23223,181.06251 C 156.42886,180.905 157.15754,179.80322 158.01821,179.05942 C 158.96745,178.18781 160.2396,177.89885 161.36321,177.34774 C 162.12225,176.98353 162.91163,176.5774 163.4649,175.91603 C 163.99932,174.95561 163.64441,173.82053 163.47464,172.80804 C 163.29296,172.0173 163.23678,171.1984 163.05601,170.41129 C 162.73612,169.46341 162.18836,168.59354 161.45867,167.92506 C 160.76441,168.36125 161.55914,169.23989 161.63898,169.83861 L 161.68241,169.95179"
       id="path3354" />
    <path
       style="opacity:1;fill:#806600;fill-opacity:0.58139534999999998;stroke:none;stroke-width:3;stroke-miterlimit:4;stroke-dasharray:none;stroke-opacity:1"
       d="M 161.68241,188.36684 C 161.83407,187.65204 160.98324,187.10835 160.398,187.47498 C 159.22106,187.85114 158.23226,188.67622 157.37357,189.55874 C 156.85461,190.24708 156.62102,191.14733 155.93484,191.70435 C 155.19158,192.37323 154.17601,192.48754 153.27982,192.81565 C 152.66073,193.07096 152.26775,193.73728 152.31978,194.41785 C 152.35044,195.57181 152.91494,196.63135 153.53881,197.55969 C 153.85746,198.06249 154.38329,198.52607 155.00841,198.41634 C 156.29415,198.26174 157.23518,197.16636 158.49808,196.9221 C 159.16258,196.73814 159.85605,196.79532 160.53064,196.71036 C 161.3554,196.53848 161.86508,195.78278 162.35896,195.15011 C 163.069,194.19035 163.03399,192.90441 162.86033,191.77173 C 162.64396,190.58509 162.27757,189.41228 161.68241,188.36684 z"
       id="path3356" />
    <path
       style="opacity:1;fill:#806600;fill-opacity:0.58139534999999998;stroke:none;stroke-width:3;stroke-miterlimit:4;stroke-dasharray:none;stroke-opacity:1"
       d="M 153.29902,202.08017 C 153.69029,201.60833 153.20556,202.52671 153.11717,202.70546 C 152.52002,204.04383 151.77273,205.40153 151.74335,206.90894 C 151.88137,208.09756 152.83434,208.91897 153.56861,209.75616 C 154.30181,210.50921 154.98351,211.40565 155.10379,212.49968 C 155.23092,213.24727 154.99167,214.01148 155.12506,214.753 C 155.44448,215.50894 156.35476,215.59365 157.03971,215.776 C 157.99176,215.98339 159.168,216.12253 159.92365,215.34971 C 160.62847,214.55477 160.70308,213.42452 160.96417,212.43108 C 161.09981,211.14615 160.21115,210.08638 159.45163,209.17698 C 158.81644,208.45928 158.225,207.68511 157.87351,206.77596 C 157.28112,205.50894 156.96461,204.13095 156.7018,202.75833 C 156.34862,201.9588 155.34845,202.13678 154.65076,202.12512 C 154.20029,202.14007 153.74503,202.16315 153.29902,202.08017 z"
       id="path3358" />
    <path
       style="opacity:1;fill:#806600;fill-opacity:0.58139534999999998;stroke:none;stroke-width:3;stroke-miterlimit:4;stroke-dasharray:none;stroke-opacity:1"
       d="M 162.44454,222.45426 C 160.33592,222.44506 158.22641,222.44276 156.11832,222.46626 C 155.09173,222.5793 154.30203,223.40011 153.78766,224.26393 C 153.37791,224.95499 153.0553,225.70846 152.89956,226.50443 C 152.9248,227.01064 153.49691,227.16056 153.89598,227.23718 C 155.11676,227.45524 156.36546,227.34443 157.58792,227.20254 C 158.30766,227.07191 159.01247,226.86682 159.72776,226.71498 C 160.27695,226.57075 160.72667,226.197 161.1057,225.77877 C 161.53436,225.34056 162.0185,224.93195 162.31935,224.3851 C 162.57209,223.77465 162.40399,223.0952 162.44454,222.45426 z"
       id="path3360" />
    <path
       style="opacity:1;fill:#ffffff;fill-opacity:0.26162792000000001;stroke:#000000;stroke-width:3;stroke-miterlimit:4;stroke-dasharray:none;stroke-opacity:1"
       d="M 148.20298,21.74689 C 146.75441,31.47115 144.73778,42.068647 145.56358,51.953782 C 146.07779,60.985583 146.22056,70.404125 148.23282,79.264314 C 150.30804,89.611312 153.18353,112.10677 161.8756,118.95466 C 171.61971,88.644198 168.96802,-14.19609 148.20298,21.74689 z"
       id="path3373"
       sodipodi:nodetypes="ccccc" />
    <path
       style="opacity:1;fill:#806600;fill-opacity:0.58139534999999998;stroke:none;stroke-width:3;stroke-miterlimit:4;stroke-dasharray:none;stroke-opacity:1"
       d="M 163.17286,96.171769 C 160.30602,95.508113 157.30294,95.721385 154.47197,94.865703 C 153.52241,94.53771 152.56667,93.705693 152.60344,92.591257 C 152.6765,91.351775 153.71844,90.448569 154.74473,89.964042 C 156.55132,91.674079 160.07491,83.028835 163.71298,91.551953 C 163.53355,93.08658 162.95819,94.609584 163.17286,96.171769 z"
       id="path3375"
       sodipodi:nodetypes="cccccc" />
    <path
       style="opacity:1;fill:#806600;fill-opacity:0.58139534999999998;stroke:none;stroke-width:3;stroke-miterlimit:4;stroke-dasharray:none;stroke-opacity:1"
       d="M 159.91811,83.002168 C 159.63633,81.021866 158.60944,79.19666 157.22817,77.809365 C 156.31695,76.94397 155.03373,76.434215 153.79319,76.700291 C 152.99034,76.751625 152.34541,76.10565 152.03548,75.400089 C 151.36063,74.215894 151.04313,72.59826 151.87466,71.406771 C 152.40587,70.618039 153.26426,69.933233 154.23006,69.932416 C 155.42671,70.08992 156.15538,71.191702 157.01604,71.935494 C 157.96528,72.807109 159.23745,73.096064 160.36105,73.647165 C 161.12009,74.011385 161.90946,74.417521 162.46275,75.078888 C 162.99716,76.039302 162.64225,77.17438 162.47247,78.186882 C 162.2908,78.977616 162.23462,79.79651 162.05384,80.583617 C 161.73396,81.531509 161.1862,82.401379 160.45652,83.069864 C 159.76226,82.633658 160.55698,81.755035 160.63682,81.156309 L 160.68024,81.04312"
       id="path3377" />
    <path
       style="opacity:1;fill:#806600;fill-opacity:0.58139534999999998;stroke:none;stroke-width:3;stroke-miterlimit:4;stroke-dasharray:none;stroke-opacity:1"
       d="M 160.68024,62.628076 C 160.83191,63.34288 159.9811,63.886557 159.39583,63.519936 C 158.2189,63.143776 157.23011,62.318693 156.37141,61.43618 C 155.85245,60.747838 155.61885,59.847584 154.93269,59.29056 C 154.18944,58.621697 153.17384,58.507374 152.27766,58.179269 C 151.65857,57.923969 151.26559,57.257627 151.31761,56.577068 C 151.34828,55.423106 151.91277,54.363559 152.53665,53.435236 C 152.85529,52.932416 153.38112,52.468848 154.00624,52.578584 C 155.29199,52.733179 156.23302,53.828555 157.49592,54.072825 C 158.16043,54.256785 158.85388,54.199598 159.52849,54.284545 C 160.35324,54.456442 160.86291,55.212132 161.3568,55.844809 C 162.06684,56.804568 162.03183,58.090503 161.85817,59.223189 C 161.6418,60.409826 161.27542,61.582635 160.68024,62.628076 z"
       id="path3379" />
    <path
       style="opacity:1;fill:#806600;fill-opacity:0.58139534999999998;stroke:none;stroke-width:3;stroke-miterlimit:4;stroke-dasharray:none;stroke-opacity:1"
       d="M 152.29686,48.914749 C 152.68813,49.386591 152.20341,48.468217 152.11502,48.289457 C 151.51786,46.951087 150.77058,45.593381 150.74119,44.085973 C 150.87921,42.897355 151.83219,42.075951 152.56646,41.238754 C 153.29967,40.485699 153.98135,39.589265 154.10163,38.495235 C 154.22877,37.747644 153.9895,36.983446 154.1229,36.241921 C 154.44232,35.485966 155.35261,35.401264 156.03754,35.218919 C 156.98959,35.011531 158.16585,34.87239 158.92148,35.645208 C 159.6263,36.440149 159.70093,37.570397 159.96201,38.56383 C 160.09765,39.848764 159.20898,40.908535 158.44947,41.817931 C 157.81428,42.535639 157.22285,43.309805 156.87134,44.218966 C 156.27896,45.485974 155.96246,46.863964 155.69963,48.236581 C 155.34646,49.036107 154.3463,48.858136 153.6486,48.869798 C 153.19814,48.854837 152.74287,48.831763 152.29686,48.914749 z"
       id="path3381" />
    <path
       style="opacity:1;fill:#806600;fill-opacity:0.58139534999999998;stroke:none;stroke-width:3;stroke-miterlimit:4;stroke-dasharray:none;stroke-opacity:1"
       d="M 161.44237,28.540658 C 159.33375,28.549861 157.22424,28.552149 155.11616,28.528668 C 154.08958,28.415622 153.29988,27.59481 152.7855,26.730998 C 152.37574,26.039929 152.05314,25.286464 151.89739,24.490491 C 151.92266,23.984289 152.49476,23.834364 152.89381,23.75773 C 154.11459,23.539678 155.36329,23.650476 156.58576,23.792375 C 157.30549,23.923008 158.01031,24.128099 158.7256,24.279936 C 159.27479,24.424164 159.72452,24.797913 160.10354,25.216143 C 160.5322,25.654362 161.01634,26.062972 161.31719,26.609812 C 161.56994,27.220274 161.40182,27.899709 161.44237,28.540658 z"
       id="path3383" />
    <path
       style="opacity:1;fill:#ffffff;fill-opacity:0.20930230000000000;stroke:none;stroke-width:3;stroke-miterlimit:4;stroke-dasharray:none;stroke-opacity:1"
       d="M 181.85666,117.74443 C 181.28492,116.35677 178.1826,116.43275 176.80573,115.68379 C 175.74205,115.10519 173.88343,115.34035 172.38617,115.34035 C 170.45403,115.34035 169.72987,115.63352 168.2823,116.02723 C 166.97056,116.384 166.00088,118.64969 165.44115,119.46162 C 164.52958,120.7839 163.79154,121.86569 166.07251,121.86569 C 167.83945,121.86569 169.11813,122.17887 170.49207,122.55258 C 171.7729,122.90093 173.25184,122.89601 174.91163,122.89601 C 176.92205,122.89601 178.01133,122.65397 179.64687,122.20912 C 181.61092,121.67495 182.29638,120.13636 181.85666,117.74443 z"
       id="path3385" />
    <path
       style="opacity:1;fill:#ffffff;fill-opacity:0.20930230000000000;stroke:none;stroke-width:3;stroke-miterlimit:4;stroke-dasharray:none;stroke-opacity:1"
       d="M 156.6827,121.8293 C 144.82122,120.77544 132.81816,121.78053 120.89074,121.56949 C 112.09807,121.55393 103.28389,121.98375 94.724371,123.17148 C 86.896586,123.98233 79.276235,125.53387 71.262817,125.64066 C 67.230791,125.81842 63.179102,126.02077 59.242254,126.57727 C 56.027624,128.76203 64.208431,128.93748 66.689086,128.70158 C 73.996384,128.65423 81.248946,128.12983 88.502257,127.69791 C 95.342619,127.59836 102.19523,127.90116 109.02047,127.48015 C 115.85078,127.14415 122.7469,127.17654 129.53945,126.66371 C 135.3709,126.06243 141.30552,125.40653 147.24248,125.813 C 151.52127,125.59018 155.42016,124.45372 159.20676,123.37115 C 161.22781,122.40116 157.76842,122.0391 156.6827,121.8293 z"
       id="path3387" />
    <path
       style="opacity:1;fill:#ffffff;fill-opacity:0.20930230000000000;stroke:none;stroke-width:3;stroke-miterlimit:4;stroke-dasharray:none;stroke-opacity:1"
       d="M 197.53757,117.45935 C 196.64802,116.57912 194.12243,116.6709 192.19548,116.6709 C 189.81613,116.6709 190.35144,118.64206 192.50971,118.64206 C 194.55342,118.64206 195.71888,118.82834 197.53757,117.45935 z"
       id="path3393" />
    <path
       style="opacity:1;fill:#000000;fill-opacity:0.20930230000000000;stroke:none;stroke-width:3;stroke-miterlimit:4;stroke-dasharray:none;stroke-opacity:1"
       d="M 198.4803,133.93297 C 197.77519,133.93297 195.11154,133.93297 193.45244,133.93297 C 190.6236,133.93297 193.42334,136.26187 193.76668,136.69261 C 194.57885,137.71152 196.5103,137.40904 197.53757,137.08684 C 198.38741,136.82031 198.4803,134.41064 198.4803,133.93297 z"
       id="path3397" />
    <path
       style="opacity:1;fill:#000000;fill-opacity:0.20930230000000000;stroke:none;stroke-width:3;stroke-miterlimit:4;stroke-dasharray:none;stroke-opacity:1"
       d="M 185.01349,134.5729 C 184.35058,134.30504 181.07647,135.85591 179.64687,136.63356 C 178.28519,137.37424 176.8164,137.31752 175.543,137.66386 C 174.11248,138.05294 172.185,137.60916 171.12345,137.32043 C 169.40135,136.85205 168.43613,136.29011 171.12345,136.29011 C 172.70186,136.29011 174.28027,136.29011 175.85867,136.29011 C 177.6645,136.29011 178.80201,136.00473 180.27824,135.60323 C 181.90054,135.162 183.02294,135.00603 185.01349,134.5729 z"
       id="path3399" />
    <path
       style="opacity:1;fill:#000000;fill-opacity:0.20930230000000000;stroke:none;stroke-width:3;stroke-miterlimit:4;stroke-dasharray:none;stroke-opacity:1"
       d="M 160.49334,134.75453 C 161.37862,134.52695 155.56812,135.53815 150.96676,135.53815 C 147.28314,135.53815 143.59952,135.53815 139.91591,135.53815 C 135.2974,135.53815 130.78119,135.14633 126.19764,135.14633 C 121.14471,135.14633 116.41825,134.3627 111.33618,134.3627 C 105.81782,134.3627 100.48319,133.9709 94.950458,133.9709 C 90.305099,133.9709 85.562218,133.57909 80.851117,133.57909 C 78.150944,133.57909 75.42121,133.71627 72.848788,133.18729 C 70.22386,132.64749 67.169761,132.79548 64.465397,132.79548 C 62.695424,132.79548 57.151169,132.8107 61.035827,132.01185 C 64.368858,131.32646 68.062808,132.40366 71.324535,132.40366 C 74.500062,132.40366 77.67559,132.40366 80.851117,132.40366 C 85.042813,132.40366 89.234509,132.40366 93.426204,132.40366 C 96.73786,132.40366 100.1719,132.43283 103.33385,131.62004 C 106.43177,130.82373 110.79265,131.62004 114.00362,131.62004 C 116.92511,131.62004 119.84659,131.62004 122.76807,131.62004 C 125.94361,131.62004 129.11914,131.62004 132.29465,131.62004 C 135.85125,131.62004 139.40784,131.62004 142.96443,131.62004 C 145.8859,131.62004 148.80739,131.62004 151.72889,131.62004 C 154.13469,131.62004 155.95521,131.63785 157.44482,132.40366 C 159.44586,133.43239 158.35765,132.00963 160.49334,134.75453 z"
       id="path3401" />
  </g>
</svg>
