<?xml version="1.0" encoding="UTF-8" standalone="no"?>
<!-- Created with Inkscape (http://www.inkscape.org/) -->
<svg
   xmlns:dc="http://purl.org/dc/elements/1.1/"
   xmlns:cc="http://creativecommons.org/ns#"
   xmlns:rdf="http://www.w3.org/1999/02/22-rdf-syntax-ns#"
   xmlns:svg="http://www.w3.org/2000/svg"
   xmlns="http://www.w3.org/2000/svg"
   xmlns:sodipodi="http://sodipodi.sourceforge.net/DTD/sodipodi-0.dtd"
   xmlns:inkscape="http://www.inkscape.org/namespaces/inkscape"
   width="250"
   height="250"
   id="svg2"
   sodipodi:version="0.32"
   inkscape:version="0.46"
   sodipodi:docname="log.svg"
   inkscape:output_extension="org.inkscape.output.svg.inkscape"
   inkscape:export-filename="P:\pidgey2\data\images\log.png"
   inkscape:export-xdpi="92.160004"
   inkscape:export-ydpi="92.160004"
   version="1.0">
  <defs
     id="defs4">
    <inkscape:perspective
       sodipodi:type="inkscape:persp3d"
       inkscape:vp_x="0 : 125 : 1"
       inkscape:vp_y="0 : 1000 : 0"
       inkscape:vp_z="250 : 125 : 1"
       inkscape:persp3d-origin="125 : 83.333333 : 1"
       id="perspective3645" />
  </defs>
  <sodipodi:namedview
     id="base"
     pagecolor="#cb90ff"
     bordercolor="#666666"
     borderopacity="1.0"
     gridtolerance="10000"
     guidetolerance="10"
     objecttolerance="10"
     inkscape:pageopacity="0"
     inkscape:pageshadow="2"
     inkscape:zoom="0.8555992"
     inkscape:cx="-72.645192"
     inkscape:cy="30.702882"
     inkscape:document-units="px"
     inkscape:current-layer="layer1"
     showgrid="false"
     inkscape:window-width="1423"
     inkscape:window-height="810"
     inkscape:window-x="38"
     inkscape:window-y="15"
     showguides="true"
     inkscape:guide-bbox="true" />
  <metadata
     id="metadata7">
    <rdf:RDF>
      <cc:Work
         rdf:about="">
        <dc:format>image/svg+xml</dc:format>
        <dc:type
           rdf:resource="http://purl.org/dc/dcmitype/StillImage" />
      </cc:Work>
    </rdf:RDF>
  </metadata>
  <g
     inkscape:label="Layer 1"
     inkscape:groupmode="layer"
     id="layer1">
    <path
       style="opacity:1;fill:#2b1100;fill-opacity:1;stroke:#000000;stroke-width:1.95334482;stroke-miterlimit:4;stroke-dasharray:none;stroke-opacity:1"
       d="M 234.7865,105.89187 C 234.96257,116.08091 240.88741,127.51229 241.60383,137.02248 C 241.5002,152.54479 244.44797,158.3184 240.58355,166.18734 C 239.23477,168.5949 241.65243,171.85824 239.79514,173.99434 C 236.40185,175.45565 235.0467,170.79497 233.48301,168.79828 C 231.61183,165.25872 229.60589,161.77413 227.80458,158.20853 C 226.23473,154.12464 225.01036,149.87477 224.40537,145.55888 C 223.63274,138.323 224.86259,130.8728 228.23292,124.29439 C 230.04422,120.19552 232.97993,116.67488 236.16258,113.46244 C 237.18438,112.22041 234.28801,107.39713 234.7865,105.89187 z"
       id="path3205"
       sodipodi:nodetypes="cccccccccc" />
    <path
       style="opacity:1;fill:#502d16;fill-opacity:1;stroke:#000000;stroke-width:1.93497407;stroke-miterlimit:4;stroke-dasharray:none;stroke-opacity:1"
       d="M 9.7511162,123.48424 C 8.4731104,137.67064 13.096481,151.4604 14.00481,165.49007 C 14.64555,174.44866 24.043719,177.32479 32.05157,177.28925 C 51.46323,179.01018 71.062333,177.08539 90.454021,178.97218 C 138.9277,176.90757 181.04564,181.84584 229.52031,180.14052 C 239.3997,179.46619 241.44673,174.85314 239.31084,168.50138 C 234.7684,156.85855 233.09932,144.25907 235.39332,131.93838 C 235.0504,122.65238 240.23462,111.65532 233.39483,103.68997 C 226.17352,99.61062 223.23142,101.48819 215.1046,100.53463 C 194.99147,99.801265 174.86128,100.77773 154.82353,102.56778 C 134.74099,103.27431 114.6612,101.6539 94.581909,102.57137 C 70.164286,102.16373 45.694936,100.52844 21.290863,102.54428 C 15.036263,107.69782 12.336444,116.26101 9.7511162,123.48424 z"
       id="path3201"
       sodipodi:nodetypes="ccccccccccccc" />
    <path
       style="opacity:1;fill:#502d16;fill-opacity:1;stroke:#000000;stroke-width:1.93497407;stroke-miterlimit:4;stroke-dasharray:none;stroke-opacity:1"
       d="M 102.35678,102.77294 C 109.97943,98.832224 117.49254,94.657531 122.42507,87.927502 C 137.77114,71.534017 140.84945,46.220568 156.39016,30.277538 C 161.96381,30.408016 149.75865,49.299673 148.28837,52.446987 C 132.18316,80.193509 145.90546,74.99331 161.23518,65.759037 C 176.32303,57.652965 194.06703,59.966004 171.25763,68.419972 C 164.68763,70.574493 149.72213,77.484498 144.01138,81.224617 C 136.70718,89.1348 137.28835,95.881431 128.65193,102.52639 C 125.44357,109.7093 91.916063,110.86081 102.35678,102.77294 z"
       id="path3203"
       sodipodi:nodetypes="ccccccccc" />
    <path
       style="opacity:1;fill:#784421;fill-opacity:1;stroke:#000000;stroke-width:1.93497407;stroke-miterlimit:4;stroke-dasharray:none;stroke-opacity:1"
       d="M 225.75668,108.71182 C 191.05531,106.04881 156.48977,112.69978 121.79164,112.40754 C 102.44316,114.3711 83.052765,119.17736 63.53388,116.52684 C 50.178933,116.09225 36.779689,116.03004 23.44683,117.1591 C 32.494162,121.35854 43.121797,120.05752 52.917899,120.23009 C 87.216836,119.46399 121.4295,114.65682 155.75919,116.41837 C 179.23198,116.24321 202.81479,113.55144 225.75668,108.71182 z"
       id="path3213" />
    <path
       style="opacity:1;fill:#784421;fill-opacity:1;stroke:#000000;stroke-width:1.93497407;stroke-miterlimit:4;stroke-dasharray:none;stroke-opacity:1"
       d="M 214.07714,130.50629 C 181.45006,132.10493 148.79022,131.43398 116.25044,134.41972 C 87.106921,132.64685 57.846852,132.62287 28.617018,132.98514 C 53.006039,131.70218 77.17307,126.09833 101.71516,128.42587 C 131.19602,129.20056 160.71485,128.00173 190.19009,129.56654 C 198.21454,129.17481 206.19748,130.82347 214.07714,130.50629 z"
       id="path3215" />
    <path
       style="opacity:1;fill:#784421;fill-opacity:1;stroke:#000000;stroke-width:1.93497407;stroke-miterlimit:4;stroke-dasharray:none;stroke-opacity:1"
       d="M 211.14465,149.8577 C 188.88352,145.9773 165.93343,148.06265 143.65888,150.32683 C 147.82243,154.57967 165.50957,152.02502 174.65592,151.66767 C 187.81871,150.15036 200.99904,149.54202 214.23095,149.64537"
       id="path3217" />
    <path
       style="opacity:1;fill:#784421;fill-opacity:1;stroke:#000000;stroke-width:1.93497407;stroke-miterlimit:4;stroke-dasharray:none;stroke-opacity:1"
       d="M 169.51481,164.50601 C 144.70452,164.19847 120.07369,157.89859 95.215667,161.83188 C 85.735242,161.78918 57.588445,164.45676 60.180476,165.17655 C 82.035844,161.41407 103.85606,167.94489 125.75924,164.86532 C 140.30255,163.77714 155.02661,162.27386 169.51481,164.50601 z"
       id="path3219" />
    <path
       style="opacity:1;fill:#784421;fill-opacity:1;stroke:#000000;stroke-width:1.93497407;stroke-miterlimit:4;stroke-dasharray:none;stroke-opacity:1"
       d="M 101.00083,148.9649 C 90.269962,144.26582 78.178223,145.04771 66.679679,145.71356 C 60.408596,145.75019 54.075114,146.0871 48.009347,147.69241 C 43.272837,147.67213 38.631408,148.60647 33.955022,148.95068 C 30.187336,148.92025 37.826011,149.08528 39.255865,149.26279 C 46.492623,149.40709 53.643396,150.28426 60.849956,150.79287 C 66.222552,151.05512 71.567731,150.54683 76.92658,150.87995 C 82.71245,150.42939 88.454139,149.30296 94.24273,150.42578 C 96.530924,150.50925 99.111069,150.3519 101.00083,148.9649 z"
       id="path3223" />
    <path
       style="opacity:1;fill:#784421;fill-opacity:1;stroke:#000000;stroke-width:1.93497407;stroke-miterlimit:4;stroke-dasharray:none;stroke-opacity:1"
       d="M 217.42821,162.31462 C 216.02681,160.67911 211.95721,161.01051 209.47763,160.35013 C 204.79715,159.63649 200.04822,160.39827 195.6269,161.9549 C 193.01969,163.12992 189.02249,163.90506 188.23534,166.88621 C 188.19079,170.45614 192.97581,170.44471 195.64486,169.87309 C 198.99918,169.49828 202.32645,170.56132 205.70126,170.12449 C 209.07073,170.07887 212.22617,168.83089 215.49904,168.31456 C 219.30125,168.87436 220.21969,164.85478 217.73756,162.71453 L 217.42821,162.31462 L 217.42821,162.31462 z"
       id="path3225" />
    <path
       style="opacity:1;fill:#ffffff;fill-opacity:0.16279069;stroke:none;stroke-width:3;stroke-miterlimit:4;stroke-dasharray:none;stroke-opacity:1"
       d="M 25.102447,107.58528 C 15.227561,123.25905 17.236673,146.03811 22.16229,162.43072 C 24.919322,169.69946 25.96146,165.82584 23.828397,160.28396 C 19.733395,141.04512 22.735199,120.48458 29.901366,113.24019 C 51.086012,113.45878 66.813112,109.18404 98.235923,113.2113 C 51.012685,102.07671 43.949282,109.37378 25.102447,107.58528 z"
       id="path3248"
       sodipodi:nodetypes="cccccc" />
    <path
       style="opacity:1;fill:#000000;fill-opacity:0.2965116;stroke:none;stroke-width:3;stroke-miterlimit:4;stroke-dasharray:none;stroke-opacity:1"
       d="M 226.92561,128.94411 C 227.36716,135.26751 226.83211,141.6527 227.58239,147.94706 C 229.15702,155.18743 232.29716,162.11587 232.99705,169.51964 C 232.12423,173.07164 227.40706,171.65471 224.62912,171.83394 C 221.49175,172.16408 218.34588,172.48511 215.16654,172.50184 C 205.44575,172.75185 195.71142,172.8976 186.02888,173.88129 C 179.7455,174.24088 173.44086,173.31387 167.18914,174.11335 C 162.74988,173.77331 170.58405,172.09055 172.01952,172.04297 C 176.48433,171.39102 181.17179,171.11286 185.21726,168.99146 C 196.89937,164.64929 211.89588,167.5688 222.83097,165.8518 C 226.71439,164.28465 223.93306,159.7273 222.955,157.12729 C 217.12099,146.8457 217.40805,135.13577 220.08379,123.94917 C 221.29224,118.78118 223.19311,113.05616 228.02019,109.96219 C 231.22311,115.10253 226.55113,122.8907 226.92561,128.94411 z"
       id="path3254"
       sodipodi:nodetypes="cccccccccccccc" />
    <path
       style="opacity:1;fill:#000000;fill-opacity:0.2965116;stroke:none;stroke-width:3;stroke-miterlimit:4;stroke-dasharray:none;stroke-opacity:1"
       d="M 99.617852,71.210919 C 99.69277,71.16111 99.605965,71.038137 99.617852,71.210919 z"
       id="path3258" />
    <path
       style="opacity:1;fill:#ffffff;fill-opacity:0.18023257;stroke:none;stroke-width:3;stroke-miterlimit:4;stroke-dasharray:none;stroke-opacity:1"
       d="M 104.11806,104.75348 C 112.43108,102.04452 121.03463,98.037229 125.39242,90.35878 C 130.14377,84.165192 133.72613,77.247496 137.59315,70.593756 C 136.43012,81.638289 118.44555,107.96084 104.11806,104.75348 z"
       id="path3260"
       sodipodi:nodetypes="cccc" />
  </g>
</svg>
