<?xml version="1.0" encoding="UTF-8" standalone="no"?>
<!-- Created with Inkscape (http://www.inkscape.org/) -->
<svg
   xmlns:dc="http://purl.org/dc/elements/1.1/"
   xmlns:cc="http://creativecommons.org/ns#"
   xmlns:rdf="http://www.w3.org/1999/02/22-rdf-syntax-ns#"
   xmlns:svg="http://www.w3.org/2000/svg"
   xmlns="http://www.w3.org/2000/svg"
   xmlns:sodipodi="http://sodipodi.sourceforge.net/DTD/sodipodi-0.dtd"
   xmlns:inkscape="http://www.inkscape.org/namespaces/inkscape"
   width="1400"
   height="1024"
   id="svg2"
   sodipodi:version="0.32"
   inkscape:version="0.46"
   sodipodi:docname="menubee.svg"
   inkscape:output_extension="org.inkscape.output.svg.inkscape"
   inkscape:export-filename="P:\pidgey\data\images\awards.png"
   inkscape:export-xdpi="90"
   inkscape:export-ydpi="90"
   version="1.0">
  <defs
     id="defs4">
    <inkscape:perspective
       sodipodi:type="inkscape:persp3d"
       inkscape:vp_x="0 : 125 : 1"
       inkscape:vp_y="0 : 1000 : 0"
       inkscape:vp_z="250 : 125 : 1"
       inkscape:persp3d-origin="125 : 83.333333 : 1"
       id="perspective3645" />
  </defs>
  <sodipodi:namedview
     id="base"
     pagecolor="#68d4e4"
     bordercolor="#666666"
     borderopacity="1.0"
     gridtolerance="10000"
     guidetolerance="10"
     objecttolerance="10"
     inkscape:pageopacity="0"
     inkscape:pageshadow="2"
     inkscape:zoom="0.54345023"
     inkscape:cx="833.72693"
     inkscape:cy="401.86514"
     inkscape:document-units="px"
     inkscape:current-layer="layer1"
     showgrid="false"
     inkscape:window-width="1680"
     inkscape:window-height="994"
     inkscape:window-x="0"
     inkscape:window-y="22" />
  <metadata
     id="metadata7">
    <rdf:RDF>
      <cc:Work
         rdf:about="">
        <dc:format>image/svg+xml</dc:format>
        <dc:type
           rdf:resource="http://purl.org/dc/dcmitype/StillImage" />
      </cc:Work>
    </rdf:RDF>
  </metadata>
  <g
     inkscape:label="Layer 1"
     inkscape:groupmode="layer"
     id="layer1">
    <path
       style="fill:#784421;fill-opacity:1;stroke:#000000;stroke-width:5.03201866;stroke-miterlimit:4;stroke-dasharray:none;stroke-opacity:1"
       d="M 183.41789,332.76523 C 182.06467,331.51744 177.94953,324.77645 175.18221,321.37415 C 172.11947,317.60865 171.4253,315.6317 167.77008,312.26127 C 165.04642,309.74981 164.446,307.67735 162.0051,305.42662 C 160.18249,309.62816 157.97719,311.92957 157.06369,315.2989 C 156.24025,318.33605 154.79873,320.9947 152.94585,324.41177 C 151.51925,327.04267 149.64702,330.48702 156.24013,330.48702 C 161.25751,330.48702 180.08297,329.69012 183.41789,332.76523 z"
       id="path3747" />
    <path
       style="fill:#917c6f;fill-opacity:1;stroke:#000000;stroke-width:4.59723759;stroke-miterlimit:4;stroke-dasharray:none;stroke-opacity:1"
       d="M 68.239472,257.19055 C 70.804532,247.96672 77.601732,239.96454 86.578972,235.35455 C 101.69702,225.60492 119.32773,219.80071 137.25504,216.33143 C 154.54092,210.65573 172.18276,212.58635 190.1164,212.30924 C 188.55635,219.617 168.64425,240.15492 162.76471,244.59636 C 149.76999,253.07521 133.53311,254.58124 118.56292,258.2756 C 109.31403,260.46628 99.725485,260.35305 90.305832,261.42634 C 82.881502,262.22836 75.364032,260.72469 68.822792,257.42572 L 68.239472,257.19055 L 68.239472,257.19055 z"
       id="path3898"
       sodipodi:nodetypes="cccccccccc" />
    <path
       style="fill:#000000;fill-opacity:1;stroke:none;stroke-width:5.03201866;stroke-miterlimit:4;stroke-dasharray:none;stroke-opacity:1"
       d="M 160.2448,301.96484 L 158.8385,305.21484 C 157.1773,309.04436 154.8814,311.35649 153.776,315.43359 C 153.0496,318.11291 151.7226,320.61031 149.8698,324.02734 C 149.157,325.34181 147.8528,326.9971 148.2448,329.62109 C 148.4408,330.93309 149.4811,332.31855 150.776,332.96484 C 152.0709,333.61114 153.5337,333.80859 155.401,333.80859 C 158.0429,333.80859 163.8895,333.59585 169.526,333.77734 C 172.3443,333.86809 175.1062,334.07148 177.2448,334.40234 C 179.3834,334.73321 180.9431,335.46997 180.8698,335.40234 L 184.276,331.71484 C 184.3005,331.73742 183.7408,331.09692 183.151,330.27734 C 182.5612,329.45776 181.8283,328.4092 181.0573,327.27734 C 179.5153,325.01363 177.7877,322.44841 176.276,320.58984 C 173.3679,317.0144 172.5187,314.81003 168.6198,311.21484 C 166.2677,309.04608 165.7254,307.00422 162.8698,304.37109 L 160.2448,301.96484 z M 161.6198,310.74609 C 162.4917,311.97056 163.4726,313.29709 165.2135,314.90234 C 168.625,318.04801 169.1525,319.82179 172.3698,323.77734 C 173.4698,325.12982 174.9552,327.28265 176.3385,329.30859 C 174.2288,329.05995 172.0306,328.82171 169.6823,328.74609 C 163.818,328.55726 157.7765,328.77734 155.401,328.77734 C 154.1776,328.77734 153.6625,328.59647 153.3698,328.49609 C 153.4782,328.32064 153.7008,327.52077 154.3073,326.40234 C 156.1602,322.98522 157.7306,320.14108 158.651,316.74609 C 159.141,314.93874 160.3219,313.04342 161.6198,310.74609 z"
       id="path3057" />
    <path
       style="fill:#ffcc00;fill-opacity:1;stroke:#000000;stroke-width:5.03201866;stroke-miterlimit:4;stroke-dasharray:none;stroke-opacity:1"
       d="M 163.36378,279.13143 C 157.90029,270.44181 147.62781,266.58993 138.30693,263.55989 C 119.60649,258.3212 99.962055,258.14367 80.692742,258.21232 C 68.958552,258.96423 56.866872,262.30035 48.213342,270.66146 C 39.629422,277.06599 33.038832,286.51747 31.946622,297.37296 C 30.136882,310.07467 33.274912,323.98182 41.927682,333.64881 C 48.634622,339.21433 57.378152,341.321 65.547822,343.76536 C 80.526762,346.88451 95.862565,344.28777 110.9988,344.91733 C 126.41049,344.35066 142.49836,340.40431 154.27623,329.93536 C 161.08774,314.94611 167.60319,295.60732 163.36378,279.13143 z"
       id="path3749"
       sodipodi:nodetypes="cccccccccc" />
    <path
       style="fill:#d4aa00;fill-opacity:1;stroke:none;stroke-width:5;stroke-miterlimit:4;stroke-dasharray:none;stroke-opacity:1"
       d="M 72.234229,265.867 C 74.272038,266.17205 81.725632,271.78411 86.681075,274.75737 C 92.709132,278.37421 99.346345,283.28393 105.01745,287.53727 C 110.31177,291.50801 117.5005,293.69253 123.90948,294.7607 C 124.84105,294.91596 125.76164,295.13113 126.68773,295.31634 C 131.51037,296.28087 136.7901,297.09702 141.69022,295.87199 C 146.90362,294.56864 152.26485,293.78398 157.24837,292.5381 C 161.35897,291.51045 160.94627,290.48791 159.47096,287.53727 C 158.13428,284.86391 155.82369,282.85947 153.91447,280.31385 C 151.8933,277.61896 150.54943,276.94881 148.91365,275.31302 C 148.33552,274.7349 148.15032,274.54968 147.80235,274.20172 C 148.47715,276.90092 148.50321,276.97996 146.1354,276.97996 C 143.60152,276.97996 140.51301,276.42431 138.35634,276.42431 C 135.38576,276.42431 132.59073,275.39965 130.02161,274.75737 C 125.27812,273.5715 119.9609,274.07878 115.01912,273.09043 C 114.09304,272.90521 113.16696,272.72 112.24088,272.53478 C 105.25023,271.13665 97.919035,271.22622 90.570612,269.75654 C 81.16331,267.87508 71.459034,265.0918 72.234229,265.867 z"
       id="path4364" />
    <path
       style="fill:#fff772;fill-opacity:1;stroke:none;stroke-width:5;stroke-miterlimit:4;stroke-dasharray:none;stroke-opacity:1"
       d="M 73.115552,338.44733 C 83.967822,340.84974 96.342835,342.73892 107.14637,339.50609 C 113.50773,337.80327 121.4435,337.84765 127.52845,335.22325 C 129.55487,335.07735 153.63452,325.2921 149.25942,325.28438 C 141.34123,325.99874 132.28105,327.23539 124.55658,329.15476 C 113.43021,332.2585 102.17282,333.08181 90.534902,333.76624 C 71.865042,333.73724 69.715842,333.30382 51.825192,325.23245 C 57.363642,334.47378 64.569482,336.50951 73.115552,338.44733 z"
       id="path3859"
       sodipodi:nodetypes="cccccccc" />
    <path
       style="fill:#ffcc00;fill-opacity:1;stroke:#000000;stroke-width:15;stroke-miterlimit:4;stroke-dasharray:none;stroke-opacity:1"
       d="M 89.341872,264.30186 C 72.547872,290.5457 76.215722,314.39766 76.561962,344.87081"
       id="path3773"
       sodipodi:nodetypes="cc" />
    <path
       style="fill:#000000;fill-opacity:1;stroke:none;stroke-width:4.59723759;stroke-miterlimit:4;stroke-dasharray:none;stroke-opacity:1"
       d="M 162.4948,210.77734 C 153.6536,211.04091 144.808,212.00724 135.9635,214.87109 C 135.8712,214.90097 135.7746,214.90329 135.6823,214.93359 C 117.7269,218.4332 100.0145,224.27609 84.6823,234.12109 C 84.6234,234.1589 84.5536,234.1769 84.4948,234.21484 L 84.4948,234.24609 C 75.0753,239.15019 67.9167,247.53825 65.1823,257.37108 L 64.6198,259.37108 L 66.526,260.12108 L 66.9323,260.27733 C 66.9944,260.30867 67.0575,260.34006 67.1198,260.37108 C 73.9985,263.79734 81.8903,265.37246 89.7135,264.52733 C 98.9408,263.47597 108.6319,263.58548 118.2448,261.30858 L 118.276,261.30858 C 133.0119,257.67204 149.558,256.19822 163.1823,247.30858 L 163.2448,247.27733 L 163.3073,247.24608 C 166.6109,244.7505 172.9503,238.55687 178.9323,231.87109 C 181.9232,228.52819 184.7748,225.08894 187.026,221.96484 C 189.2773,218.84074 190.9735,216.17817 191.526,213.58984 L 192.1198,210.77734 L 189.2448,210.80859 C 180.3721,210.94569 171.4282,210.51102 162.4948,210.77734 z M 162.6823,215.40234 C 170.2218,215.17979 177.9605,215.41903 185.776,215.40234 C 185.1443,216.53635 184.3195,217.8726 183.3073,219.27734 C 181.2025,222.1982 178.4118,225.54835 175.4948,228.80859 C 169.7146,235.26889 163.2756,241.45765 160.651,243.46483 C 160.6266,243.48354 160.5498,243.54064 160.526,243.55858 C 148.1794,251.55277 132.3021,253.10085 117.151,256.83983 C 108.2661,258.9443 98.7943,258.83837 89.1823,259.93358 C 82.7261,260.63102 76.2048,259.40258 70.3698,256.74608 C 73.1143,249.00266 78.9802,242.21816 86.776,238.21484 L 86.8698,238.15234 L 86.9635,238.08984 C 101.7467,228.55616 119.1047,222.83417 136.8385,219.40234 L 136.9948,219.37109 L 137.1198,219.30859 C 145.4691,216.56714 153.9899,215.65891 162.6823,215.40234 z"
       id="path3059" />
    <path
       style="fill:#ffcc00;fill-opacity:1;stroke:#000000;stroke-width:15;stroke-miterlimit:4;stroke-dasharray:none;stroke-opacity:1"
       d="M 120.79122,264.85751 C 107.17498,284.90795 103.23942,304.70556 108.34666,343.73928"
       id="path3771"
       sodipodi:nodetypes="cc" />
    <path
       style="fill:#ffcc00;fill-opacity:1;stroke:#000000;stroke-width:15;stroke-miterlimit:4;stroke-dasharray:none;stroke-opacity:1"
       d="M 153.57443,269.30269 C 145.96954,274.52539 141.99244,283.38374 139.43046,291.95012 C 138.07187,305.75771 130.12422,327.89085 135.23807,339.31433"
       id="path3769"
       sodipodi:nodetypes="ccc" />
    <path
       style="fill:#000000;fill-opacity:1;stroke:none;stroke-width:15;stroke-miterlimit:4;stroke-dasharray:none;stroke-opacity:1"
       d="M 148.4635,263.93358 C 138.6022,270.70594 134.1668,281.3419 131.401,290.58984 L 131.1823,291.30859 L 131.1198,292.02734 C 130.5418,297.90144 128.2725,306.92368 126.6823,316.02734 C 125.092,325.13099 123.6703,334.50066 127.5573,343.18359 L 141.2448,337.05859 C 140.0179,334.31805 139.9875,326.89177 141.4323,318.62109 C 142.8117,310.72452 144.9918,302.27842 145.8698,294.62109 C 148.2267,286.85332 151.6807,279.90538 156.9635,276.27733 L 148.4635,263.93358 z"
       id="path3071" />
    <path
       style="fill:#000000;fill-opacity:1;stroke:none;stroke-width:15;stroke-miterlimit:4;stroke-dasharray:none;stroke-opacity:1"
       d="M 113.7448,261.43358 C 99.2168,282.82656 94.8434,305.67871 100.0573,345.52734 L 114.9323,343.55859 C 109.9317,305.33979 113.4465,288.579 126.151,269.87108 L 113.7448,261.43358 z"
       id="path3069" />
    <path
       style="fill:#000000;fill-opacity:1;stroke:none;stroke-width:5.03201866;stroke-miterlimit:4;stroke-dasharray:none;stroke-opacity:1"
       d="M 79.6823,256.49608 C 67.6896,257.26457 55.1038,260.66392 45.8698,269.43358 C 45.8166,269.47323 45.7665,269.51872 45.7135,269.55858 C 45.6814,269.58945 45.6519,269.62133 45.6198,269.65233 C 36.7069,276.39451 29.7556,286.33421 28.5885,297.93359 C 26.6853,311.29128 29.9626,325.78584 39.2135,336.12109 L 39.3385,336.27734 L 39.4635,336.37109 C 46.7573,342.42358 55.8858,344.54799 63.9635,346.96484 L 64.0885,346.99609 L 64.1823,347.02734 C 79.7696,350.27318 95.2786,347.6314 110.0573,348.24609 L 110.151,348.24609 L 110.2448,348.24609 C 126.0209,347.66603 142.695,343.63728 155.0885,332.62109 L 155.4948,332.27734 L 155.7135,331.77734 C 162.6122,316.59619 169.4764,296.84712 164.9635,279.30858 L 164.8385,278.93358 L 164.651,278.58983 C 158.6094,268.98078 147.645,265.02066 138.2448,261.96483 L 138.1823,261.96483 L 138.151,261.93358 C 119.0241,256.57542 99.1294,256.42737 79.8385,256.49608 L 79.7448,256.49608 L 79.6823,256.49608 z M 79.9948,261.52733 C 99.1914,261.46045 118.5514,261.67194 136.776,266.77733 C 145.8972,269.74247 155.212,273.43081 160.151,280.99608 C 163.8565,296.16484 157.9477,314.59479 151.3698,329.18359 C 140.2367,338.86572 124.9396,342.66764 110.0573,343.21484 C 94.64,342.59907 79.5479,345.06026 65.2448,342.08984 C 65.2351,342.08697 65.2232,342.09272 65.2135,342.08984 C 57.1022,339.66973 48.9188,337.58248 42.8698,332.65234 C 34.8932,323.65646 31.8797,310.52102 33.5885,298.52734 L 33.5885,298.46484 L 33.5885,298.43359 C 34.5944,288.43644 40.742,279.52901 48.8698,273.46483 L 48.9948,273.37108 L 49.1198,273.27733 C 57.1716,265.49764 68.6245,262.25593 79.9948,261.52733 z"
       id="path3061" />
    <path
       style="fill:#000000;fill-opacity:1;stroke:none;stroke-width:15;stroke-miterlimit:4;stroke-dasharray:none;stroke-opacity:1"
       d="M 82.1823,261.05858 C 64.009,289.45781 67.8736,315.83019 68.2135,345.74609 L 83.2135,345.58984 C 82.861,314.55945 79.3926,293.2408 94.8073,269.15233 L 82.1823,261.05858 z"
       id="path3067" />
    <path
       style="fill:#c8b7b7;fill-opacity:1;stroke:#000000;stroke-width:5.03201866;stroke-miterlimit:4;stroke-dasharray:none;stroke-opacity:1"
       d="M 67.920202,257.75062 C 73.155262,248.26655 82.360622,241.24071 92.826822,238.52402 C 111.01617,231.76152 130.64861,230.00493 149.92074,230.89788 C 169.16492,229.19215 186.61291,235.95714 204.9853,240.36739 C 201.31937,248.0055 175.17708,265.38899 167.91863,268.73455 C 152.25599,274.65579 135.26556,272.04513 118.94603,272.17762 C 108.88952,272.1584 99.140615,269.51249 89.227142,268.21776 C 81.426072,267.14891 74.184522,263.51622 68.448472,258.163 L 67.920202,257.75062 L 67.920202,257.75062 z"
       id="path3751"
       sodipodi:nodetypes="cccccccccc" />
    <path
       style="fill:#000000;fill-opacity:1;stroke:none;stroke-width:5;stroke-miterlimit:4;stroke-dasharray:none;stroke-opacity:1"
       d="M 50.46915,289.6601 C 61.750809,293.70786 54.938619,307.93794 44.956468,299.6466 C 39.913,294.01213 44.580741,289.38342 50.46915,289.6601 z"
       id="path3797"
       sodipodi:nodetypes="ccc" />
    <path
       style="fill:#e3dedb;fill-opacity:1;stroke:none;stroke-width:5;stroke-miterlimit:4;stroke-dasharray:none;stroke-opacity:1"
       d="M 134.10618,268.12392 C 112.69097,266.85906 91.464642,262.59112 74.561562,257.33149 C 87.472892,258.84329 121.32985,261.46959 130.05372,261.36165 C 152.49121,262.12409 172.80339,253.14831 193.26168,245.28927 C 178.27775,259.98575 155.29806,269.28691 134.10618,268.12392 z"
       id="path3879"
       sodipodi:nodetypes="ccccc" />
    <path
       style="fill:#c87137;fill-opacity:1;stroke:none;stroke-width:5;stroke-miterlimit:4;stroke-dasharray:none;stroke-opacity:1"
       d="M 160.78781,326.95929 C 160.99926,327.02843 164.40422,327.23711 166.61613,327.23711 C 168.48119,327.23711 170.34626,327.23711 172.21133,327.23711 C 174.20444,327.23711 175.50474,327.23711 172.67759,327.23711 C 171.1731,327.23711 168.6408,325.80418 167.31553,325.01452 C 166.16421,324.32851 164.20391,323.67076 163.11913,323.34758 C 161.48841,322.86175 161.21534,322.4209 160.78781,324.45888 C 160.66973,325.02169 160.78781,326.57002 160.78781,326.95929 z"
       id="path3900" />
    <path
       style="fill:#000000;fill-opacity:1;stroke:none;stroke-width:5.03201866;stroke-miterlimit:4;stroke-dasharray:none;stroke-opacity:1"
       d="M 154.6732,228.90234 C 152.3546,228.87472 149.987,228.98467 147.6107,229.18359 C 147.4966,229.1783 147.3811,229.18869 147.2669,229.18359 C 127.957,228.32014 108.1991,230.09819 89.7669,236.90234 C 89.686,236.93221 89.5978,236.93477 89.5169,236.96484 L 89.5169,236.99609 C 78.4854,239.93536 68.8387,247.30241 63.2982,257.33983 L 62.2669,259.21483 L 63.9544,260.52733 L 64.2982,260.80858 L 64.4857,260.93358 C 70.5528,266.53673 78.1763,270.39312 86.4544,271.52733 L 86.4857,271.52733 C 96.1727,272.7925 106.0222,275.47603 116.5169,275.49608 L 116.5482,275.49608 C 132.5852,275.36589 149.9375,278.12291 166.3919,271.90233 L 166.4544,271.87108 L 166.5482,271.80858 C 170.639,269.92302 178.8623,264.7853 186.8607,258.99608 C 190.8599,256.10148 194.7439,253.05993 197.9232,250.21483 C 201.1024,247.36975 203.5693,244.87163 204.8294,242.24608 L 206.1732,239.46484 L 203.1419,238.71484 C 187.2553,234.9013 171.6921,229.10507 154.6732,228.90234 z M 154.6107,233.96484 C 169.341,234.17006 183.4828,238.88478 198.3607,242.68358 C 197.368,243.81041 196.0895,245.11352 194.5794,246.46483 C 191.5991,249.13191 187.7939,252.10936 183.8919,254.93358 C 176.1176,260.56062 167.7126,265.73202 164.5169,267.21483 C 164.5048,267.22048 164.4664,267.24055 164.4544,267.24608 C 149.6238,272.79107 133.0601,270.33053 116.5169,270.46483 C 106.8986,270.44645 97.2818,267.85165 87.1419,266.52733 C 80.3843,265.60145 74.077,262.52856 68.8919,258.05858 C 73.9141,250.11642 81.9339,244.11187 91.0482,241.74608 L 91.1732,241.71483 L 91.2669,241.68358 C 109.0354,235.07757 128.3511,233.33261 147.3919,234.21484 L 147.5482,234.21484 L 147.7357,234.21484 C 150.0517,234.00955 152.3325,233.9331 154.6107,233.96484 z"
       id="path157" />
    <path
       style="opacity:1;fill:#ffffff;fill-opacity:0.36627907;stroke:none;stroke-width:5;stroke-miterlimit:4;stroke-dasharray:none;stroke-opacity:1"
       d="M 53.925605,294.6852 C 53.32025,297.80669 50.3284,298.87896 45.436861,296.90838 C 47.366352,302.02189 56.395048,299.45583 53.925605,294.6852 z"
       id="path3346"
       sodipodi:nodetypes="ccc" />
    <path
       style="opacity:1;fill:#000000;fill-opacity:1;stroke:none;stroke-width:5;stroke-miterlimit:4;stroke-dasharray:none;stroke-opacity:1"
       d="M 1227.3438,13.78125 C 1218.746,13.7624 1210.3205,14.81855 1202.25,17.09375 C 1180.7288,23.16095 1161.8769,38.000224 1149.8438,63.5 L 1154.375,65.625 C 1165.8737,41.257871 1183.3705,27.607527 1203.5938,21.90625 C 1223.817,16.204973 1246.8892,18.597928 1269.0625,26.9375 C 1313.4092,43.616643 1353.8534,84.170062 1361.0312,129.34375 C 1370.2126,187.12601 1337.4649,248.29892 1283.625,262.53125 C 1256.0611,269.81765 1233.5089,280.64742 1211.1875,287.5 C 1195.4145,292.34225 1179.7608,295.14868 1162.3438,293.59375 C 1166.788,286.49342 1171.3582,278.02249 1176.1562,267.625 C 1180.0804,259.12139 1181.5893,252.67041 1181.0312,247.59375 C 1180.4732,242.51709 1177.3347,238.88577 1173.1875,237.53125 C 1164.8932,234.82221 1153.4198,238.79045 1142.8438,245.09375 C 1132.2677,251.39705 1122.6437,260.2488 1119.5938,269.75 C 1118.0688,274.5006 1118.4073,279.6339 1121.4688,283.9375 C 1124.5302,288.2411 1129.9825,291.62276 1138.2188,294.0625 C 1143.5919,295.65413 1148.7329,296.68846 1153.7812,297.5 C 1151.843,300.21276 1149.9505,302.63209 1148.0938,304.71875 C 1140.8989,312.80434 1134.428,316.31812 1128.1875,317.15625 C 1115.7064,318.83251 1102.6238,309.27649 1086.9688,298.15625 C 1071.3137,287.03601 1053.1421,274.68134 1029.9688,273 C 1006.9014,271.32635 979.27801,280.40897 945,310.625 C 945.58944,309.40039 946.07911,308.31438 946.84375,306.8125 C 951.89073,296.89943 960.07075,281.85553 963.65625,268.90625 C 965.449,262.43161 966.23399,256.41068 964.3125,251.46875 C 963.35175,248.99778 961.58538,246.8479 959.125,245.46875 C 956.66462,244.0896 953.60161,243.45146 949.90625,243.5 C 935.12479,243.69416 909.3049,254.2426 863.21875,282.3125 C 810.43293,314.46299 739.5352,306.7402 676.375,298.75 C 669.27166,297.85138 660.05832,293.27947 651.53125,286.78125 C 649.02395,284.87051 646.62279,282.77609 644.28125,280.59375 C 654.41902,274.47235 664.49913,265.16331 670.4375,255.9375 C 672.63463,252.52406 674.2503,249.09747 675,245.75 C 675.7497,242.40253 675.59118,239.03414 674,236.125 C 672.40882,233.21586 669.48368,230.97938 665.46875,229.625 C 661.45382,228.27062 656.27946,227.69405 649.65625,227.90625 C 641.72502,228.16035 635.56167,229.39621 630.84375,231.5625 C 626.12583,233.72879 622.86152,236.91163 621.15625,240.71875 C 617.74572,248.33299 620.48172,257.54271 625.875,266.375 C 628.57861,270.80256 631.99979,275.19826 635.875,279.34375 C 633.42481,280.51899 631.0386,281.4747 628.9375,281.96875 C 572.2524,295.29757 515.01165,300.6689 455.875,296.75 C 447.01879,296.16311 432.31736,295.12785 417.4375,293.15625 C 429.13577,281.01446 430.40783,265.33849 424.25,254.25 C 420.27248,247.08762 413.25116,241.83938 404.46875,240.90625 C 395.68634,239.97312 385.364,243.35473 374.78125,252.5625 C 369.1921,257.42547 365.66475,261.85671 363.90625,266.15625 C 362.14775,270.45579 362.36257,274.73012 364.25,278.25 C 368.02485,285.28976 377.15858,289.42888 388.1875,292.625 C 393.47492,294.15726 399.24687,295.41763 405.1875,296.46875 C 404.19549,297.06615 403.36821,297.72111 402.28125,298.28125 C 342.09438,329.29702 272.62796,339.26785 205.625,338.40625 L 205.5625,343.40625 C 273.10471,344.27478 343.37189,334.25178 404.5625,302.71875 C 407.59153,301.15781 410.28504,299.41943 412.6875,297.5625 C 429.23542,299.98836 445.90188,301.11187 455.53125,301.75 C 515.18112,305.70291 572.96925,300.27589 630.09375,286.84375 C 633.15075,286.12493 636.40235,284.79029 639.71875,283.125 C 642.52997,285.82392 645.43596,288.41499 648.5,290.75 C 657.48323,297.59584 667.15096,302.63091 675.75,303.71875 C 738.96441,311.71581 811.0372,319.95598 865.8125,286.59375 C 911.65077,258.67483 937.63427,248.66202 949.96875,248.5 C 953.05237,248.4595 955.21695,248.98819 956.6875,249.8125 C 958.15805,250.63681 959.02187,251.73005 959.625,253.28125 C 960.83126,256.38365 960.50552,261.56089 958.84375,267.5625 C 955.5202,279.56572 947.47853,294.53835 942.375,304.5625 C 941.09912,307.06854 939.99474,309.26359 939.1875,311.09375 C 938.38026,312.92391 937.78095,314.15561 937.71875,315.8125 C 937.7032,316.22672 937.72054,316.70716 937.96875,317.3125 C 938.21696,317.91784 938.86394,318.64105 939.59375,318.9375 C 941.05336,319.53041 941.92524,319.01353 942.65625,318.65625 C 944.11827,317.94169 945.60709,316.73079 947.84375,314.75 C 981.71832,284.75058 1007.9982,276.43314 1029.5938,278 C 1051.1893,279.56686 1068.5124,291.15081 1084.0938,302.21875 C 1099.6751,313.28669 1113.5506,324.17894 1128.8438,322.125 C 1136.4903,321.09803 1144.1288,316.7013 1151.8438,308.03125 C 1154.2758,305.29815 1156.7253,301.98109 1159.2188,298.34375 C 1178.5152,300.51343 1195.7338,297.47636 1212.6562,292.28125 C 1235.4801,285.27443 1257.8778,274.4886 1284.9062,267.34375 C 1341.6658,252.33964 1375.5242,188.69918 1365.9688,128.5625 C 1358.4106,80.995593 1316.7087,39.511924 1270.8125,22.25 C 1256.4699,16.855649 1241.6734,13.812667 1227.3438,13.78125 z M 649.8125,232.90625 C 656.04528,232.70656 660.69109,233.30095 663.875,234.375 C 667.05891,235.44905 668.74139,236.88451 669.625,238.5 C 670.50861,240.11549 670.69145,242.12702 670.125,244.65625 C 669.55855,247.18548 668.19561,250.14752 666.21875,253.21875 C 660.66191,261.85181 650.12806,271.04078 640.40625,276.78125 C 636.38049,272.58481 632.80266,268.13507 630.125,263.75 C 625.15986,255.61885 623.37599,248.01162 625.71875,242.78125 C 626.89013,240.16606 629.07089,237.9004 632.9375,236.125 C 636.80411,234.3496 642.33132,233.14593 649.8125,232.90625 z M 1166.6875,241.84375 C 1168.6218,241.72006 1170.3022,241.84922 1171.625,242.28125 C 1174.2705,243.14531 1175.6713,244.56563 1176.0625,248.125 C 1176.4537,251.68437 1175.3419,257.47677 1171.625,265.53125 C 1166.4001,276.85363 1161.481,285.74516 1156.7812,292.96875 C 1151.2598,292.18673 1145.5893,291.01676 1139.625,289.25 C 1132.031,287.00051 1127.6624,284.02711 1125.5312,281.03125 C 1123.4001,278.03539 1123.1706,274.93572 1124.3438,271.28125 C 1126.69,263.9723 1135.5041,255.27663 1145.4062,249.375 C 1152.8328,244.94878 1160.8847,242.21483 1166.6875,241.84375 z M 403.9375,245.875 C 411.05957,246.63172 416.62894,250.786 419.90625,256.6875 C 425.39185,266.5655 424.22086,281.25033 411.15625,292.28125 C 403.5549,291.10757 396.09873,289.73791 389.5625,287.84375 C 379.01912,284.78834 371.11708,280.46422 368.65625,275.875 C 367.42584,273.58039 367.22191,271.23258 368.53125,268.03125 C 369.84059,264.82992 372.83043,260.86478 378.0625,256.3125 C 387.89629,247.75637 396.81543,245.11828 403.9375,245.875 z"
       id="path2524" />
  </g>
</svg>
