<?xml version="1.0" encoding="UTF-8" standalone="no"?>
<!-- Created with Inkscape (http://www.inkscape.org/) -->
<svg
   xmlns:dc="http://purl.org/dc/elements/1.1/"
   xmlns:cc="http://creativecommons.org/ns#"
   xmlns:rdf="http://www.w3.org/1999/02/22-rdf-syntax-ns#"
   xmlns:svg="http://www.w3.org/2000/svg"
   xmlns="http://www.w3.org/2000/svg"
   xmlns:sodipodi="http://sodipodi.sourceforge.net/DTD/sodipodi-0.dtd"
   xmlns:inkscape="http://www.inkscape.org/namespaces/inkscape"
   width="250"
   height="250"
   id="svg2"
   sodipodi:version="0.32"
   inkscape:version="0.46"
   sodipodi:docname="orange.svg"
   inkscape:output_extension="org.inkscape.output.svg.inkscape"
   inkscape:export-filename="P:\pidgey2\data\images\orange.png"
   inkscape:export-xdpi="92.160004"
   inkscape:export-ydpi="92.160004"
   version="1.0">
  <defs
     id="defs4">
    <inkscape:perspective
       sodipodi:type="inkscape:persp3d"
       inkscape:vp_x="0 : 125 : 1"
       inkscape:vp_y="0 : 1000 : 0"
       inkscape:vp_z="250 : 125 : 1"
       inkscape:persp3d-origin="125 : 83.333333 : 1"
       id="perspective3645" />
  </defs>
  <sodipodi:namedview
     id="base"
     pagecolor="#cb90ff"
     bordercolor="#666666"
     borderopacity="1.0"
     gridtolerance="10000"
     guidetolerance="10"
     objecttolerance="10"
     inkscape:pageopacity="0"
     inkscape:pageshadow="2"
     inkscape:zoom="1.6900001"
     inkscape:cx="66.713467"
     inkscape:cy="117.37618"
     inkscape:document-units="px"
     inkscape:current-layer="layer1"
     showgrid="false"
     inkscape:window-width="1680"
     inkscape:window-height="995"
     inkscape:window-x="5"
     inkscape:window-y="12" />
  <metadata
     id="metadata7">
    <rdf:RDF>
      <cc:Work
         rdf:about="">
        <dc:format>image/svg+xml</dc:format>
        <dc:type
           rdf:resource="http://purl.org/dc/dcmitype/StillImage" />
      </cc:Work>
    </rdf:RDF>
  </metadata>
  <g
     inkscape:label="Layer 1"
     inkscape:groupmode="layer"
     id="layer1">
    <path
       style="opacity:1;fill:#502d16;fill-opacity:1;stroke:#000000;stroke-width:1.09214091;stroke-miterlimit:4;stroke-dasharray:none;stroke-opacity:1"
       d="M 119.30298,139.12264 C 103.26318,90.297436 104.99702,60.133419 96.740821,11.548061 C 108.23885,48.056875 104.637,25.465869 114.59005,70.978477 C 151.59015,46.600863 146.54587,55.504156 165.68862,37.92409 C 159.70393,49.470207 130.32936,73.343988 120.28835,83.049774 C 127.62271,96.702799 128.18597,112.21518 134.73331,132.80776 C 142.76068,162.85879 211.79187,118.30466 245.71794,115.22596 C 222.89441,129.2373 194.67765,139.53677 169.08685,151.75169 C 110.64912,172.01529 70.158739,189.95915 28.397895,211.98598 C 92.262559,166.00435 85.091677,169.62097 99.975064,163.75302 C 111.27506,157.0683 79.093039,151.15332 74.670971,146.4039 C 34.740419,128.7106 34.989821,125.43439 4.9606127,112.43057 C 45.060251,123.43813 27.221819,113.79886 48.282366,125.78273 C 38.213012,95.425409 45.014164,109.21838 36.298682,90.941982 C 44.097518,101.87261 49.392616,109.50408 54.494687,125.01792 C 73.526392,136.39758 91.439381,150.27842 113.94206,151.71197 C 121.54915,151.23297 121.80873,141.54339 119.30298,139.12264 z"
       id="path3179"
       sodipodi:nodetypes="ccccccccccccccccc" />
    <path
       style="opacity:1;fill:#2ca02c;fill-opacity:1;stroke:#000000;stroke-width:1.11737323000000010;stroke-miterlimit:4;stroke-dasharray:none;stroke-opacity:1"
       d="M 171.47941,69.75741 C 166.47103,62.904547 161.18453,55.460466 152.30841,52.088377 C 146.3041,48.795577 139.07855,43.943291 131.67517,46.597518 C 129.05577,48.965845 125.23386,52.436271 123.24714,47.312733 C 118.1486,39.768739 109.15855,33.649807 98.738591,33.962933 C 91.759638,33.796673 85.707653,37.723714 81.463912,42.233119 C 74.494036,41.092293 67.409338,37.065548 60.034592,39.181995 C 50.622607,42.472263 49.079868,54.241819 55.33706,60.620322 C 58.778224,64.183227 61.579247,67.774141 57.485929,71.969817 C 52.14592,81.372498 58.417185,91.745348 64.83926,99.36571 C 68.064921,105.10604 75.507848,106.08717 82.016477,105.80524 C 89.794705,109.64453 91.155935,119.04234 99.143687,122.82971 C 106.97033,127.64699 118.90371,129.36989 126.5459,123.42337 C 130.04373,119.85125 134.57441,111.84874 138.95436,119.12104 C 144.25973,124.2258 151.8113,128.48728 159.97201,127.55228 C 167.22628,124.99965 170.37129,118.09444 174.36181,112.77062 C 179.8613,112.47103 185.13821,111.36037 188.33369,106.90946 C 195.56909,101.02862 197.84017,90.744283 192.27545,83.353649 C 188.70786,77.786951 187.55732,69.423004 179.43449,67.464812 C 177.26208,67.781834 166.55149,65.006419 171.47941,69.75741 z"
       id="path3184" />
    <path
       style="opacity:1;fill:#37c837;fill-opacity:1;stroke:#000000;stroke-width:1.09214091;stroke-miterlimit:4;stroke-dasharray:none;stroke-opacity:1"
       d="M 141.34072,117.84524 C 135.88803,121.197 132.05969,126.76794 129.08814,132.05687 C 125.24477,136.92199 123.17398,143.35554 127.03506,148.75654 C 128.86507,151.98596 118.51681,150.19168 116.04431,152.70139 C 105.98702,156.33662 104.98551,166.9962 103.2968,175.17968 C 102.61208,182.69753 106.60417,189.91377 111.92459,195.50994 C 113.50077,201.92203 107.2763,209.30736 112.66983,215.0615 C 119.62313,220.56389 129.87304,219.19905 138.49379,219.14797 C 152.17759,218.89669 168.05463,220.79541 179.01598,211.86366 C 183.99061,209.37857 182.02416,198.88562 189.82678,203.99186 C 198.22348,207.41086 208.09915,205.43802 216.4886,202.95622 C 225.06286,200.03551 231.05306,192.12528 231.91915,184.17647 C 232.53733,175.57339 226.45888,168.16272 219.77298,162.48587 C 213.90714,158.06801 220.89776,152.78281 221.81825,147.85223 C 224.10579,140.55473 226.11986,132.32606 222.79935,125.04387 C 219.44918,118.62392 212.57844,112.69199 204.20814,112.39417 C 199.46425,109.57618 199.33631,99.643718 192.79854,96.111174 C 186.72238,90.890572 177.10932,88.584012 169.39743,92.376699 C 162.40434,94.028809 161.44223,102.8702 153.22251,99.706496 C 146.29246,98.467433 141.09114,104.2062 137.8266,108.77693 C 136.32645,112.04486 135.64018,117.72699 141.34072,117.84524 z"
       id="path3191" />
    <path
       style="opacity:1;fill:#71c837;fill-opacity:1;stroke:#000000;stroke-width:1.09214091;stroke-miterlimit:4;stroke-dasharray:none;stroke-opacity:1"
       d="M 65.248152,95.834106 C 58.651807,93.446726 50.880634,91.799173 43.915954,93.811329 C 32.953573,98.567027 27.431015,110.82976 30.249324,121.1387 C 28.657896,126.14607 18.521135,124.85672 15.952085,130.43606 C 11.757164,136.30215 11.316787,143.86106 12.767218,150.51755 C 14.535552,156.17283 18.620189,161.70423 24.914925,164.06859 C 22.4349,174.66148 20.952473,186.73233 28.417467,196.13786 C 33.752859,202.63315 42.374444,207.41316 51.456889,208.23889 C 56.919695,208.79698 63.423133,205.87674 68.158796,208.82454 C 73.600743,219.31807 87.799392,226.03192 100.59169,222.39807 C 118.52703,218.17336 128.36063,199.29667 122.66522,184.1497 C 120.97258,178.17311 130.63944,175.94449 129.79018,169.7373 C 130.50092,160.52759 125.72931,150.68382 116.52457,145.87179 C 108.20718,143.23678 112.93378,135.2338 113.36258,129.62193 C 113.98884,122.6344 107.05364,117.12537 100.59169,114.17672 C 96.0827,109.75033 98.340751,102.36643 93.13343,98.123083 C 88.520279,93.699591 81.213597,95.211348 75.227506,93.999854 C 71.509191,94.471324 69.380664,97.561568 65.248152,95.834106 z"
       id="path3187" />
    <path
       style="opacity:1;fill:#ff6600;fill-opacity:1;stroke:#000000;stroke-width:1.64512992;stroke-miterlimit:4;stroke-dasharray:none;stroke-opacity:1"
       d="M 94.549816,51.871383 C 86.935346,53.533021 85.016681,63.0847 83.432777,70.427722 C 81.658738,78.652215 87.147162,87.859645 95.260765,90.748456 C 99.489404,92.254045 104.09312,91.920682 108.4201,91.234433 C 113.61127,90.411126 119.41965,88.125097 121.72349,83.13165 C 130.34652,64.441763 112.27013,48.004439 94.549816,51.871383 z"
       id="path2407"
       sodipodi:nodetypes="csssss" />
    <path
       style="opacity:1;fill:#000000;fill-opacity:0.11046514;stroke:none;stroke-width:2.33999991;stroke-miterlimit:4;stroke-dasharray:none;stroke-opacity:1"
       d="M 87.399279,70.910791 C 86.396198,73.273512 87.203483,75.844264 87.749395,78.211048 C 88.48457,81.183778 91.751542,82.621743 94.020733,84.388817 C 98.976173,86.102795 104.58532,87.947726 109.88012,87.083457 C 110.73292,86.85956 112.0028,85.87559 111.08629,84.993386 C 97.277928,82.511721 97.41028,79.692205 87.399279,70.910791 z"
       id="path3188"
       sodipodi:nodetypes="cccccc" />
    <path
       style="opacity:1;fill:#ffffff;fill-opacity:0.16279069;stroke:none;stroke-width:2.33999991;stroke-miterlimit:4;stroke-dasharray:none;stroke-opacity:1"
       d="M 97.888963,55.385047 C 100.95745,55.105401 104.06752,55.409166 107.06068,56.105571 C 109.2716,56.976492 111.02161,58.647906 113.02722,59.870537 C 114.99633,61.613828 115.71022,64.240435 116.93508,66.477886 C 117.82418,68.557363 118.00406,70.860514 117.89809,73.096846 C 117.31903,74.426641 115.78986,73.156115 115.55596,72.22245 C 113.66736,69.072998 112.50294,65.325081 109.54454,62.951128 C 107.87515,61.538526 106.43349,59.877827 104.83664,58.394705 C 102.68147,57.044721 100.14167,56.530195 97.888963,55.385047 z"
       id="path3190" />
    <path
       style="opacity:1;fill:#ff6600;fill-opacity:1;stroke:#000000;stroke-width:1.64512992;stroke-miterlimit:4;stroke-dasharray:none;stroke-opacity:1"
       d="M 79.896651,192.68675 C 87.457748,190.79704 89.08851,181.19201 90.451035,173.80472 C 91.97712,165.53062 86.214483,156.49228 78.017732,153.8486 C 73.745755,152.47076 69.154132,152.94233 64.849733,153.75829 C 59.685653,154.73723 53.948588,157.19677 51.795844,162.25719 C 43.73836,181.19776 62.300545,197.08446 79.896651,192.68675 z"
       id="path3192"
       sodipodi:nodetypes="csssss" />
    <path
       style="opacity:1;fill:#000000;fill-opacity:0.16279069;stroke:none;stroke-width:2.33999991;stroke-miterlimit:4;stroke-dasharray:none;stroke-opacity:1"
       d="M 52.612028,171.74875 C 52.347639,172.02158 53.236034,174.37769 53.236034,175.70079 C 53.236034,177.16484 54.888605,179.21393 55.524057,180.48483 C 56.104968,181.64665 57.707505,182.90243 58.644088,183.60486 C 60.068255,184.67299 60.580682,185.30117 62.180123,186.10089 C 63.877146,186.9494 65.666648,187.70053 67.588177,188.18091 C 69.163742,188.5748 70.515286,189.22092 72.164222,189.22092 C 73.657904,189.22092 75.326644,189.52232 76.532265,189.22092 C 78.632065,188.69597 77.607164,188.34564 76.116261,187.97291 C 74.937476,187.67821 73.804915,187.0714 72.788228,186.30889 C 71.876468,185.62507 71.24961,185.33158 70.292204,184.85288 C 69.140616,184.27708 68.189649,183.79033 67.380175,182.98086 C 66.505245,182.10592 65.254068,181.89476 64.468146,181.10884 C 63.437405,180.0781 62.156126,179.48216 61.348114,178.40481 C 60.5917,177.39626 59.180647,176.90153 58.436086,175.90879 C 57.88254,175.17072 56.945696,174.6264 56.356065,174.03677 C 55.744284,173.42499 55.196967,172.87767 54.692049,172.37275 C 53.629362,171.31007 54.085257,171.74875 52.612028,171.74875 z"
       id="path3206" />
    <path
       style="opacity:1;fill:#ffffff;fill-opacity:0.16279069;stroke:none;stroke-width:2.33999991;stroke-miterlimit:4;stroke-dasharray:none;stroke-opacity:1"
       d="M 61.140112,159.68462 C 64.102044,157.4918 67.947115,157.24104 71.502397,157.21272 C 78.37045,157.86804 85.221859,163.28806 86.502903,170.295 C 86.80225,171.28303 87.703747,172.24648 87.293068,173.3238 C 81.700039,166.80956 75.313558,160.72648 66.596541,159.71989 C 64.778979,159.53094 62.957548,159.68158 61.140112,159.68462 z"
       id="path3210"
       sodipodi:nodetypes="cccccc" />
    <path
       style="opacity:1;fill:#ff6600;fill-opacity:1;stroke:#000000;stroke-width:1.64512992;stroke-miterlimit:4;stroke-dasharray:none;stroke-opacity:1"
       d="M 169.41991,127.52271 C 164.44401,131.20512 159.46998,135.92815 158.32801,142.28986 C 157.00916,149.78093 158.80976,158.24937 164.5857,163.51896 C 168.63657,167.44095 174.21195,169.60166 179.83077,169.65896 C 185.67719,170.09356 192.26196,169.25122 196.51059,164.8048 C 198.87649,162.15713 199.39811,158.49205 201.16953,155.49522 C 202.27506,153.37082 202.7618,150.94696 202.34651,148.57754 C 202.30937,145.02304 202.08962,141.08344 199.47589,138.3726 C 189.14265,124.01291 186.72682,122.38002 169.41991,127.52271 z"
       id="path3220"
       sodipodi:nodetypes="ccccccccc" />
    <path
       style="opacity:1;fill:#ffffff;fill-opacity:0.11046514;stroke:none;stroke-width:2.33999991;stroke-miterlimit:4;stroke-dasharray:none;stroke-opacity:1"
       d="M 170.64636,134.74336 C 171.04314,132.83967 173.07949,132.02794 174.75077,131.55328 C 177.80244,130.8812 180.9438,131.32492 184.03198,131.28748 C 191.00171,132.82836 199.11062,143.69944 196.72237,151.03042 C 194.29153,141.41692 187.19623,137.25215 177.69119,135.56001 C 175.33473,135.35758 173.0181,134.78128 170.64636,134.74336 z"
       id="path3229"
       sodipodi:nodetypes="cccccc" />
    <path
       style="opacity:1;fill:#000000;fill-opacity:0.11046514;stroke:none;stroke-width:2.33999991;stroke-miterlimit:4;stroke-dasharray:none;stroke-opacity:1"
       d="M 161.23326,146.21558 C 161.35929,157.92815 170.96233,165.24237 184.56438,165.08254 C 186.6969,165.14487 188.94927,164.96856 190.75059,163.70195 C 192.49531,163.20063 192.00226,161.10183 190.3094,161.11542 C 175.0702,165.49584 169.07588,153.80177 161.23326,146.21558 z"
       id="path3241"
       sodipodi:nodetypes="ccccc" />
    <path
       style="opacity:1;fill:#ffffff;fill-opacity:0.2965116;stroke:none;stroke-width:2.33999991;stroke-miterlimit:4;stroke-dasharray:none;stroke-opacity:1"
       d="M 33.059834,118.70822 C 34.240865,115.38855 32.985756,111.28049 35.593816,108.49016 C 38.380424,104.35505 41.833896,99.747931 47.18357,99.145578 C 51.126436,97.834677 54.824432,99.675997 58.10416,101.63538 C 63.302473,103.53057 69.060936,102.34212 73.995085,100.21582 C 78.493924,99.942244 83.504277,100.34784 86.874572,103.71295 C 89.79347,105.73381 89.766603,109.37438 90.98375,112.28745 C 93.288427,116.12819 98.104348,117.45306 100.42446,121.28998 C 102.83762,124.4902 105.45111,128.38909 104.49844,132.59699 C 102.91434,134.02403 102.41835,129.46357 101.75143,128.40838 C 100.75899,124.76455 97.158194,122.96423 94.057045,121.37684 C 90.709004,119.91977 87.438886,118.19245 84.861271,115.55186 C 80.573677,111.74848 75.233377,108.80828 69.371306,108.75894 C 65.869676,108.85398 62.694366,107.23343 59.269069,106.87397 C 56.49468,106.67528 53.747728,107.26743 50.966485,107.22006 C 48.41367,107.25158 45.956503,108.00993 43.671201,109.06643 C 40.421629,109.95021 37.316362,112.23113 36.537572,115.65773 C 35.83573,117.06154 34.680868,118.41668 33.059834,118.70822 z"
       id="path3280" />
    <path
       style="opacity:1;fill:#ffffff;fill-opacity:0.2965116;stroke:none;stroke-width:2.33999991;stroke-miterlimit:4;stroke-dasharray:none;stroke-opacity:1"
       d="M 149.54099,114.96418 C 148.63058,112.60056 147.83255,109.88299 148.66708,107.39967 C 150.07364,105.25332 152.92929,105.48097 155.17412,105.31129 C 159.07828,104.93095 163.02091,104.92533 166.91049,105.43244 C 169.26091,105.4731 171.094,103.88368 172.87496,102.58776 C 174.76299,101.35665 177.0031,100.947 179.11191,100.28494 C 181.52529,99.350485 184.26785,97.908687 186.84984,99.084875 C 189.23528,100.46249 190.82791,102.79933 192.80053,104.6551 C 194.14692,106.41658 195.57033,108.21161 196.40086,110.275 C 196.96291,111.18936 196.11013,114.36823 195.27443,112.25811 C 194.78065,110.10392 193.40176,107.65453 190.846,107.90376 C 185.77741,107.15296 180.47538,106.91989 175.56819,108.64451 C 173.90468,109.22202 172.19686,109.77058 170.80623,110.88034 C 169.02594,112.08033 166.80901,112.1921 164.76743,111.76576 C 160.24362,111.31228 155.64364,112.0259 151.36316,113.49001 C 150.64431,113.81505 149.98268,114.30217 149.54099,114.96418 z"
       id="path3286" />
    <path
       style="opacity:1;fill:#ffffff;fill-opacity:0.2965116;stroke:none;stroke-width:2.33999991;stroke-miterlimit:4;stroke-dasharray:none;stroke-opacity:1"
       d="M 168.26117,70.451744 C 163.958,68.684542 161.11131,64.779422 157.38379,62.148373 C 152.29954,58.117526 147.2754,53.894385 141.62222,50.685824 C 138.39755,48.978309 134.34932,49.160796 132.33408,52.511548 C 129.67655,55.427271 126.40928,52.688308 123.51422,51.886307 C 120.0133,50.668481 116.63398,48.853238 114.20275,46.00345 C 109.56598,42.290735 104.42239,38.333259 98.192748,38.285104 C 94.767558,38.444385 90.158523,36.644788 87.756481,39.957277 C 87.392752,42.461191 91.853516,41.850965 93.645933,42.409376 C 97.113018,42.580808 100.66569,42.670048 103.85998,44.217641 C 111.02657,46.91483 118.22694,49.999353 124.07882,55.052815 C 127.77339,57.980319 132.2627,60.148354 136.99521,60.519827 C 140.60963,59.888758 143.74766,56.769391 147.74605,58.021406 C 152.08986,58.849384 155.94598,61.313023 159.49384,63.833499 C 162.20345,66.282374 164.57778,69.439666 168.26117,70.451744 z"
       id="path3293" />
    <path
       style="opacity:1;fill:#000000;fill-opacity:0.2965116;stroke:none;stroke-width:2.33999991;stroke-miterlimit:4;stroke-dasharray:none;stroke-opacity:1"
       d="M 27.235777,174.86878 C 26.277501,179.31261 27.496893,184.03043 30.096066,187.70278 C 31.722771,191.20941 32.857387,195.1111 35.802419,197.80115 C 38.285159,200.77639 41.983498,202.33552 45.688704,203.11216 C 50.061313,204.33949 54.751311,204.2899 59.195248,203.56477 C 62.660136,202.65602 66.342156,202.30562 69.868522,203.07571 C 73.728072,205.87038 75.220106,210.8252 79.115178,213.60289 C 82.855188,216.81833 87.638305,219.39788 92.715915,218.94723 C 90.769195,215.77309 86.356648,216.01832 83.978201,213.30624 C 79.55244,209.89396 77.662716,204.20246 73.330644,200.73196 C 68.575958,197.96309 62.872906,197.43064 57.473686,197.43186 C 54.294806,197.41967 51.042593,197.40209 48.053915,196.19757 C 43.781301,195.07001 38.925623,194.77899 35.675234,191.39178 C 32.138696,188.17427 30.724004,183.48068 28.431232,179.43362 C 27.764144,178.00293 27.248589,176.46264 27.235777,174.86878 z"
       id="path3300" />
    <path
       style="opacity:1;fill:#000000;fill-opacity:0.2965116;stroke:none;stroke-width:2.33999991;stroke-miterlimit:4;stroke-dasharray:none;stroke-opacity:1"
       d="M 135.49604,214.39303 C 139.63347,214.73311 143.7586,214.03092 147.72957,212.9427 C 152.55898,212.1912 157.45457,211.2197 161.76622,208.81516 C 167.45166,206.58359 173.75071,204.61571 177.59246,199.52973 C 181.32713,196.08675 186.71763,197.71801 191.06685,198.8164 C 196.49627,200.35284 202.32111,200.97719 207.88884,199.8668 C 209.5237,199.66207 213.19169,198.06489 209.87427,197.16944 C 205.63188,196.99184 201.36358,197.68138 197.10437,197.31196 C 193.28448,197.1676 189.74053,195.58966 185.93667,195.32544 C 180.12334,194.43257 173.78196,194.24632 168.57179,197.4024 C 162.52945,206.42776 108.62118,217.25079 135.49604,214.39303 z"
       id="path3307"
       sodipodi:nodetypes="ccccccccccc" />
    <path
       style="opacity:1;fill:#000000;fill-opacity:0.2965116;stroke:none;stroke-width:2.33999991;stroke-miterlimit:4;stroke-dasharray:none;stroke-opacity:1"
       d="M 115.42865,122.03625 C 116.77936,122.29282 119.94162,120.61178 121.2527,119.95623 C 123.07267,119.04625 123.7135,118.74345 124.99674,117.46021 C 126.51168,115.94527 127.302,115.10726 129.15678,113.71617 C 130.50932,112.70177 131.80112,112.01508 133.31682,111.63615 C 133.65832,111.55078 134.77242,107.47695 134.98084,107.0601 C 135.98342,105.05494 136.65383,104.54614 137.47686,102.90006 C 138.54593,100.76193 136.44999,102.9975 134.98084,103.73207 C 133.1292,104.65789 131.74201,105.26979 129.57279,105.81209 C 127.69467,106.28162 126.04112,107.99393 124.58074,108.72412 C 122.9227,109.55314 121.70465,109.85915 119.58869,110.38814 C 117.56043,110.8952 115.50325,110.80414 113.34863,110.80414 C 110.3308,110.80414 110.16371,110.93391 109.18859,112.88416 C 108.3345,114.59233 110.38013,117.34728 110.8526,118.29222 C 111.54856,119.68413 114.12248,121.25255 115.42865,122.03625 z"
       id="path3314" />
  </g>
</svg>
