<?xml version="1.0" encoding="UTF-8" standalone="no"?>
<!-- Created with Inkscape (http://www.inkscape.org/) -->
<svg
   xmlns:dc="http://purl.org/dc/elements/1.1/"
   xmlns:cc="http://creativecommons.org/ns#"
   xmlns:rdf="http://www.w3.org/1999/02/22-rdf-syntax-ns#"
   xmlns:svg="http://www.w3.org/2000/svg"
   xmlns="http://www.w3.org/2000/svg"
   xmlns:sodipodi="http://sodipodi.sourceforge.net/DTD/sodipodi-0.dtd"
   xmlns:inkscape="http://www.inkscape.org/namespaces/inkscape"
   width="250"
   height="250"
   id="svg2"
   sodipodi:version="0.32"
   inkscape:version="0.46"
   sodipodi:docname="orangerosette.svg"
   inkscape:output_extension="org.inkscape.output.svg.inkscape"
   inkscape:export-filename="P:\pidgey2\data\images\orangerosette.png"
   inkscape:export-xdpi="92.160004"
   inkscape:export-ydpi="92.160004"
   version="1.0">
  <defs
     id="defs4">
    <inkscape:perspective
       sodipodi:type="inkscape:persp3d"
       inkscape:vp_x="0 : 125 : 1"
       inkscape:vp_y="0 : 1000 : 0"
       inkscape:vp_z="250 : 125 : 1"
       inkscape:persp3d-origin="125 : 83.333333 : 1"
       id="perspective3645" />
  </defs>
  <sodipodi:namedview
     id="base"
     pagecolor="#cb90ff"
     bordercolor="#666666"
     borderopacity="1.0"
     gridtolerance="10000"
     guidetolerance="10"
     objecttolerance="10"
     inkscape:pageopacity="0"
     inkscape:pageshadow="2"
     inkscape:zoom="1.7111984"
     inkscape:cx="55.715021"
     inkscape:cy="116.62439"
     inkscape:document-units="px"
     inkscape:current-layer="layer1"
     showgrid="false"
     inkscape:window-width="1424"
     inkscape:window-height="810"
     inkscape:window-x="199"
     inkscape:window-y="72" />
  <metadata
     id="metadata7">
    <rdf:RDF>
      <cc:Work
         rdf:about="">
        <dc:format>image/svg+xml</dc:format>
        <dc:type
           rdf:resource="http://purl.org/dc/dcmitype/StillImage" />
      </cc:Work>
    </rdf:RDF>
  </metadata>
  <g
     inkscape:label="Layer 1"
     inkscape:groupmode="layer"
     id="layer1">
    <path
       style="opacity:1;fill:#d45500;fill-opacity:1;stroke:#000000;stroke-width:2.76845336;stroke-miterlimit:4;stroke-dasharray:none;stroke-opacity:1"
       d="M 109.15741,144.18884 C 110.05281,186.22211 105.60607,209.74734 95.867771,243.50816 C 104.80162,233.20236 115.79301,236.46138 125.57629,226.97319 C 138.16787,243.06096 153.51418,240.29088 156.35312,245.81987 C 152.75423,234.62933 142.87173,175.93465 146.61385,142.38961 C 141.58222,143.80984 114.00718,142.25909 109.15741,144.18884 z"
       id="path3306"
       sodipodi:nodetypes="cccccc"
       inkscape:transform-center-x="4.4490743"
       inkscape:transform-center-y="7.6847672" />
    <path
       style="opacity:1;fill:#d45500;fill-opacity:1;stroke:#000000;stroke-width:2.76845336;stroke-miterlimit:4;stroke-dasharray:none;stroke-opacity:1"
       d="M 77.604291,131.05568 C 62.449716,170.27221 49.39176,190.33959 27.54773,217.86169 C 39.729214,211.72698 51.94425,216.80888 64.600475,211.75336 C 70.129084,231.42055 82.087551,236.80551 82.610921,242.99868 C 83.537425,231.28025 96.715249,173.23652 112.93145,143.63401 C 107.73772,143.03433 82.823552,131.11495 77.604291,131.05568 z"
       id="path3304"
       sodipodi:nodetypes="cccccc" />
    <path
       style="opacity:1;fill:#d45500;fill-opacity:1;stroke:#000000;stroke-width:2.76845336;stroke-miterlimit:4;stroke-dasharray:none;stroke-opacity:1"
       d="M 175.65778,129.94218 C 190.81235,169.15871 203.8703,189.22608 225.71434,216.74819 C 213.53285,210.61347 203.74459,218.52661 191.08836,213.47107 C 185.55975,233.13828 171.17451,235.692 170.65115,241.88517 C 169.72465,230.16674 156.54682,172.12301 140.33062,142.5205 C 145.52435,141.92083 170.43851,130.00144 175.65778,129.94218 z"
       id="path3274"
       sodipodi:nodetypes="cccccc" />
    <path
       style="fill:#ff6600;fill-opacity:1;stroke:#000000;stroke-width:2.76845336;stroke-miterlimit:4;stroke-dasharray:none;stroke-opacity:1"
       d="M 86.74175,67.600266 C 84.343794,63.738324 82.137554,59.581304 78.864265,56.487795 C 72.474612,51.959918 64.431305,51.558818 57.830668,47.461915 C 54.728793,45.634115 51.305932,42.318955 51.87764,38.163846 C 52.928269,33.756223 57.052054,31.541815 59.83505,28.514486 C 66.491632,23.419823 72.999502,18.04738 80.165833,13.781817 C 82.73346,11.463981 86.095164,8.930655 89.570145,10.683781 C 96.034606,12.112554 102.32121,19.458012 104.51491,25.229482 C 107.97103,32.203582 112.09785,37.245498 112.98098,45.549279 C 113.69104,52.874976 109.38702,60.514885 102.67896,62.632717 C 99.056308,63.453686 90.108747,68.305555 86.74175,67.600266 z"
       id="path3173"
       sodipodi:nodetypes="ccccccccccc" />
    <path
       style="fill:#d45500;fill-opacity:0.75;stroke:#000000;stroke-width:2.76845336;stroke-miterlimit:4;stroke-dasharray:none;stroke-opacity:1"
       d="M 93.878466,50.757189 C 90.85338,47.636796 87.438629,44.858683 85.09029,41.072771 C 83.816906,39.556995 82.360112,38.016088 81.953178,35.945389 C 81.088832,34.658104 81.974276,32.230801 83.619028,32.587798 C 85.069662,32.84222 86.577838,33.031718 87.916497,33.762391 C 89.157134,34.449805 90.350473,35.243627 91.482278,36.119746 C 93.272926,37.591973 94.116894,39.914461 95.108324,42.003242 C 100.39658,56.715404 110.58319,69.78456 93.878466,50.757189 z"
       id="path3175"
       sodipodi:nodetypes="cccccccc" />
    <path
       style="fill:#ff6600;fill-opacity:1;stroke:#000000;stroke-width:2.76845336;stroke-miterlimit:4;stroke-dasharray:none;stroke-opacity:1"
       d="M 114.186,53.911204 C 114.53163,49.288751 115.19837,44.561249 114.41218,39.963466 C 112.00497,32.17583 105.91465,26.537385 103.0927,18.948854 C 101.71026,15.459354 100.93455,10.588365 103.7836,7.7008541 C 107.15493,4.9318274 111.67506,5.9205076 115.61086,5.3828845 C 123.78519,5.7839592 132.00305,5.8682756 140.09925,7.2583784 C 143.456,7.1358755 147.56134,7.3695289 149.28016,11.047268 C 153.53601,16.448548 154.23498,26.382578 152.626,32.37072 C 151.31472,40.13962 151.64648,46.833694 147.54493,53.944868 C 143.87221,60.172716 136.07701,63.329156 129.58142,60.554251 C 126.25992,58.801999 116.42511,56.693885 114.186,53.911204 z"
       id="path3192"
       sodipodi:nodetypes="ccccccccccc" />
    <path
       style="fill:#d45500;fill-opacity:0.75;stroke:#000000;stroke-width:2.76845336;stroke-miterlimit:4;stroke-dasharray:none;stroke-opacity:1"
       d="M 127.9364,44.060115 C 127.36083,39.605467 126.28132,35.161963 126.62203,30.632111 C 126.49658,28.597977 126.24147,26.422709 127.11751,24.525846 C 127.18159,22.942014 129.27939,21.620182 130.36596,22.989296 C 131.35921,24.149325 132.43519,25.296401 133.06538,26.75665 C 133.64349,28.118019 134.123,29.531726 134.5066,30.969391 C 135.06377,33.311628 134.38581,35.695631 133.95874,37.993539 C 129.61853,53.057013 130.07725,70.070896 127.9364,44.060115 z"
       id="path3194"
       sodipodi:nodetypes="cccccccc" />
    <path
       style="fill:#ff6600;fill-opacity:1;stroke:#000000;stroke-width:2.76845336;stroke-miterlimit:4;stroke-dasharray:none;stroke-opacity:1"
       d="M 146.75724,60.143639 C 149.23116,56.337003 149.1128,51.719974 150.59742,47.324279 C 152.18291,39.298881 152.49448,32.036592 153.62802,23.959528 C 154.07601,20.199656 155.69824,15.573597 159.51823,14.615729 C 163.73362,14.041865 167.17298,17.333573 170.82585,18.991676 C 177.69836,23.746453 184.75755,28.251081 191.09711,33.818062 C 194.05442,35.522494 197.4908,37.938287 197.24479,42.042177 C 198.37925,49.003105 194.30802,57.961396 190.10008,62.266451 C 185.31125,68.270329 182.44756,74.231803 175.55794,78.16276 C 169.45445,81.561927 161.23525,80.084712 156.93005,74.184672 C 154.88545,70.879778 147.38189,63.754928 146.75724,60.143639 z"
       id="path3196"
       sodipodi:nodetypes="ccccccccccc"
       inkscape:transform-center-x="-6.4275431"
       inkscape:transform-center-y="3.7288001" />
    <path
       style="fill:#d45500;fill-opacity:0.75;stroke:#000000;stroke-width:2.76845336;stroke-miterlimit:4;stroke-dasharray:none;stroke-opacity:1"
       d="M 163.27127,59.049353 C 164.87048,54.890886 166.02909,50.470272 168.4552,46.74098 C 169.3041,44.916168 170.10743,42.899522 171.75686,41.73339 C 172.55758,40.399782 174.9918,40.389255 175.2861,42.157919 C 175.5982,43.695637 175.98782,45.266778 175.845,46.868038 C 175.70372,48.355809 175.45264,49.835605 175.10742,51.284377 C 174.48645,53.608157 172.77887,55.30192 171.32854,57.056614 C 160.49034,67.728317 152.87975,82.67286 163.27127,59.049353 z"
       id="path3198"
       sodipodi:nodetypes="cccccccc"
       inkscape:transform-center-x="-2.3771101"
       inkscape:transform-center-y="10.524953" />
    <path
       style="fill:#ff6600;fill-opacity:1;stroke:#000000;stroke-width:2.76845336;stroke-miterlimit:4;stroke-dasharray:none;stroke-opacity:1"
       d="M 81.427963,91.876125 C 77.111336,91.487027 72.697911,90.753765 68.399648,91.576336 C 61.114892,94.121006 55.822573,100.61724 48.722095,103.60669 C 45.456672,105.07213 40.903241,105.88236 38.217659,102.82058 C 35.644916,99.200208 36.587179,94.365599 36.101232,90.150207 C 36.509695,81.401436 36.622439,72.60475 37.954474,63.943732 C 37.853919,60.349908 38.089156,55.956198 41.531819,54.131458 C 46.595006,49.598001 55.877747,48.890839 61.464903,50.637969 C 68.716781,52.073778 74.971406,51.74632 81.597339,56.166333 C 87.39988,60.123643 90.31623,68.481269 87.697202,75.423159 C 86.046607,78.971504 84.036654,89.490726 81.427963,91.876125 z"
       id="path3200"
       sodipodi:nodetypes="ccccccccccc"
       inkscape:transform-center-x="-3.2977129"
       inkscape:transform-center-y="-5.5431886" />
    <path
       style="fill:#d45500;fill-opacity:0.75;stroke:#000000;stroke-width:2.76845336;stroke-miterlimit:4;stroke-dasharray:none;stroke-opacity:1"
       d="M 72.282443,79.276546 C 68.118762,79.874251 63.96341,81.011474 59.73327,80.628019 C 57.832571,80.753914 55.79949,81.018 54.031165,80.072377 C 52.551896,79.997228 51.325781,77.746119 52.609229,76.588626 C 53.696973,75.530167 54.772963,74.383112 56.139655,73.714551 C 57.413764,73.101309 58.736359,72.59386 60.080941,72.18918 C 62.271238,71.60242 64.495446,72.338022 66.640264,72.804689 C 80.693831,77.513075 96.589212,77.092359 72.282443,79.276546 z"
       id="path3202"
       sodipodi:nodetypes="cccccccc"
       inkscape:transform-center-x="-8.2416873"
       inkscape:transform-center-y="-7.9200719" />
    <path
       style="fill:#ff6600;fill-opacity:1;stroke:#000000;stroke-width:2.76845336;stroke-miterlimit:4;stroke-dasharray:none;stroke-opacity:1"
       d="M 168.09551,112.5522 C 171.28717,115.68761 175.60967,117.37299 179.47943,119.53804 C 187.55468,120.45828 193.49364,122.09122 200.66858,124.6988 C 204.08895,125.67882 208.15348,128.02076 208.52729,132.2016 C 208.49256,136.75029 204.98364,139.9568 202.95831,143.60912 C 197.63413,150.26107 192.51641,157.14461 186.51193,163.12213 C 184.53708,166.03039 181.83942,169.35132 178.07349,168.53938 C 171.47746,168.80822 163.7314,163.28674 160.31118,158.24497 C 155.39636,152.35892 150.26231,148.52075 147.54844,140.68452 C 145.22129,133.7536 147.69228,125.23307 153.73196,121.45827 C 157.0658,119.73309 164.66868,112.72998 168.09551,112.5522 z"
       id="path3204"
       sodipodi:nodetypes="ccccccccccc" />
    <path
       style="fill:#d45500;fill-opacity:0.75;stroke:#000000;stroke-width:2.76845336;stroke-miterlimit:4;stroke-dasharray:none;stroke-opacity:1"
       d="M 166.89129,130.21708 C 170.52607,132.47184 174.46267,134.29442 177.58914,137.3687 C 179.16439,138.5142 180.92332,139.63713 181.78136,141.54341 C 182.90837,142.57185 182.59131,145.15545 180.91454,145.2302 C 179.44919,145.3548 177.94246,145.55717 176.47936,145.19068 C 175.12108,144.84108 173.78497,144.37603 172.49018,143.81533 C 170.42244,142.84462 169.08378,140.80583 167.6542,139.03174 C 159.23058,126.10185 146.41825,116.02212 166.89129,130.21708 z"
       id="path3206"
       sodipodi:nodetypes="cccccccc" />
    <path
       style="fill:#ff6600;fill-opacity:1;stroke:#000000;stroke-width:2.76845336;stroke-miterlimit:4;stroke-dasharray:none;stroke-opacity:1"
       d="M 146.05172,132.80361 C 146.74954,137.3803 147.15905,142.14122 148.95026,146.404 C 153.02852,153.34864 160.20239,157.263 164.63882,163.90809 C 166.76119,166.94202 168.60333,171.47275 166.48259,175.00623 C 163.82826,178.55848 159.21844,178.75652 155.51723,180.28681 C 147.49074,181.99153 139.49282,184.01494 131.32114,184.73936 C 128.08932,185.71826 124.05104,186.54311 121.55997,183.41258 C 116.22029,179.25853 113.32079,169.79224 113.54432,163.5659 C 113.08068,155.68682 111.26204,149.27226 113.65464,141.31697 C 115.82835,134.3292 122.69139,129.26746 129.61856,130.29767 C 133.23528,131.14809 143.2556,130.67541 146.05172,132.80361 z"
       id="path3208"
       sodipodi:nodetypes="ccccccccccc" />
    <path
       style="fill:#d45500;fill-opacity:0.75;stroke:#000000;stroke-width:2.76845336;stroke-miterlimit:4;stroke-dasharray:none;stroke-opacity:1"
       d="M 134.9032,145.89109 C 136.45791,150.06884 138.49945,154.10666 139.18132,158.59218 C 139.75789,160.53507 140.49188,162.58177 140.06536,164.64793 C 140.35722,166.20216 138.61588,168.02301 137.2548,166.97204 C 136.03107,166.10018 134.72993,165.26208 133.79161,164.00571 C 132.92594,162.83201 132.14431,161.58222 131.45047,160.2846 C 130.38585,158.15317 130.51115,155.66475 130.4121,153.3242 C 131.25861,137.58656 127.00962,121.18458 134.9032,145.89109 z"
       id="path3210"
       sodipodi:nodetypes="cccccccc" />
    <path
       style="fill:#ff6600;fill-opacity:1;stroke:#000000;stroke-width:2.76845336;stroke-miterlimit:4;stroke-dasharray:none;stroke-opacity:1"
       d="M 113.9347,138.12983 C 112.38369,142.45963 110.49691,146.79313 110.03811,151.44143 C 110.29285,159.6398 114.64776,166.88993 115.35286,175.02268 C 115.75844,178.78807 115.21755,183.69527 111.72269,185.60394 C 107.75809,187.24104 103.68278,184.92611 99.765363,184.25199 C 92.029587,181.39601 84.168478,178.83073 76.768595,175.04963 C 73.516169,174.15234 69.639577,172.68709 68.960974,168.63943 C 66.303298,162.17141 68.253519,152.43045 71.376761,147.17247 C 74.684208,140.11623 76.131952,133.59435 81.942578,128.01262 C 87.108794,123.14859 95.419392,122.47725 100.91852,127.10292 C 103.64254,129.78799 112.52086,134.78351 113.9347,138.12983 z"
       id="path3212"
       sodipodi:nodetypes="ccccccccccc"
       inkscape:transform-center-x="7.636285"
       inkscape:transform-center-y="-3.6432526" />
    <path
       style="fill:#d45500;fill-opacity:0.75;stroke:#000000;stroke-width:2.76845336;stroke-miterlimit:4;stroke-dasharray:none;stroke-opacity:1"
       d="M 98.145179,143.42297 C 97.522106,147.87028 97.385419,152.45926 95.863528,156.70171 C 95.447256,158.69097 95.118102,160.85483 93.777305,162.40963 C 93.297992,163.90961 90.936863,164.54345 90.255709,162.90158 C 89.608919,161.48848 88.879366,160.06282 88.660069,158.4715 C 88.464624,156.99077 88.377598,155.48966 88.3889,153.99453 C 88.472323,151.57919 89.751623,149.4972 90.76753,147.42194 C 98.90504,134.28375 102.9535,117.82376 98.145179,143.42297 z"
       id="path3214"
       sodipodi:nodetypes="cccccccc"
       inkscape:transform-center-x="5.4384416"
       inkscape:transform-center-y="-9.8370447" />
    <path
       style="fill:#ff6600;fill-opacity:1;stroke:#000000;stroke-width:2.76845336;stroke-miterlimit:4;stroke-dasharray:none;stroke-opacity:1"
       d="M 167.63642,82.773514 C 171.9146,82.045452 175.11266,77.609072 179.10213,75.709262 C 185.60632,71.37229 190.5436,67.726702 196.76943,63.005085 C 199.61236,60.745674 203.85233,58.792444 207.14437,61.077263 C 210.45172,63.93335 210.61766,68.868857 212.03187,72.837272 C 213.59114,81.43645 215.44825,90.006405 216.09117,98.756998 C 216.99222,102.22063 217.74609,106.54693 214.81141,109.20059 C 210.90884,114.89942 202.05392,117.96413 196.23853,117.69911 C 189.94722,119.30914 184.02936,121.317 175.4552,117.48901 C 168.93658,115.13323 164.23656,107.76559 165.22756,100.35447 C 166.03692,96.486374 165.6368,85.757898 167.63642,82.773514 z"
       id="path3216"
       sodipodi:nodetypes="ccccccccccc"
       inkscape:transform-center-x="0.56588796"
       inkscape:transform-center-y="4.2174874" />
    <path
       style="fill:#d45500;fill-opacity:0.75;stroke:#000000;stroke-width:2.76845336;stroke-miterlimit:4;stroke-dasharray:none;stroke-opacity:1"
       d="M 179.81596,94.761856 C 183.72503,93.114852 187.50539,90.946133 191.69833,90.23475 C 193.51566,89.625575 195.43063,88.848325 197.35896,89.313462 C 198.81205,89.007455 200.50579,90.879046 199.51841,92.331692 C 198.6989,93.638068 197.91061,95.027438 196.73309,96.026691 C 195.63311,96.948531 194.46239,97.780053 193.24735,98.517442 C 191.25187,99.648269 188.92784,99.503851 186.74102,99.600211 C 172.04322,98.628964 156.7038,103.1096 179.81596,94.761856 z"
       id="path3218"
       sodipodi:nodetypes="cccccccc"
       inkscape:transform-center-x="6.3279478"
       inkscape:transform-center-y="8.1073861" />
    <path
       style="fill:#ff6600;fill-opacity:1;stroke:#000000;stroke-width:2.76845336;stroke-miterlimit:4;stroke-dasharray:none;stroke-opacity:1"
       d="M 92.138674,125.04851 C 88.252225,127.09672 84.117115,128.90338 80.829776,131.97978 C 75.812313,138.17966 74.404821,146.66656 69.759423,153.14593 C 67.666689,156.20338 64.154751,159.40999 60.3792,158.26794 C 56.4314,156.58494 54.911147,151.92206 52.465138,148.57782 C 48.602899,140.85522 44.464182,133.25474 41.43565,125.09778 C 39.61916,122.07354 37.705308,118.17858 39.776927,114.71545 C 41.933086,108.03698 49.547417,102.30939 55.176499,100.72396 C 62.157332,97.752372 69.192069,89.116643 75.090651,94.353701 C 81.968441,94.543445 88.491537,100.09643 89.589477,107.49025 C 89.883428,111.44169 93.225686,121.56505 92.138674,125.04851 z"
       id="path3220"
       sodipodi:nodetypes="ccccccccccc"
       inkscape:transform-center-x="2.6218052"
       inkscape:transform-center-y="-3.9233626" />
    <path
       style="fill:#d45500;fill-opacity:0.75;stroke:#000000;stroke-width:2.76845336;stroke-miterlimit:4;stroke-dasharray:none;stroke-opacity:1"
       d="M 77.194875,117.44571 C 73.914605,120.25517 70.90123,123.52236 67.091605,125.52767 C 65.523425,126.68424 63.908331,128.03227 61.937687,128.19756 C 60.633847,128.94933 58.499296,127.69675 59.041842,125.99671 C 59.464367,124.48953 59.83416,122.91289 60.683449,121.58593 C 61.480031,120.35743 62.369106,119.19286 63.326497,118.10421 C 64.920959,116.39293 67.181154,115.79613 69.243831,115.01267 C 83.553929,111.29368 96.97285,102.16311 77.194875,117.44571 z"
       id="path3222"
       sodipodi:nodetypes="cccccccc"
       inkscape:transform-center-x="-3.4128111"
       inkscape:transform-center-y="-9.8214932" />
    <path
       sodipodi:type="arc"
       style="fill:#ffffff;fill-opacity:1;stroke:#000000;stroke-width:2.2219398;stroke-miterlimit:4;stroke-dasharray:none;stroke-opacity:1"
       id="path3262"
       sodipodi:cx="145.24794"
       sodipodi:cy="104.75207"
       sodipodi:rx="36.983471"
       sodipodi:ry="39.049587"
       d="M 182.23141,104.75207 A 36.983471,39.049587 0 1 1 108.26447,104.75207 A 36.983471,39.049587 0 1 1 182.23141,104.75207 z"
       transform="matrix(1.2775193,0,0,1.2151849,-62.68328,-29.884989)" />
    <path
       style="opacity:1;fill:#ff6600;fill-opacity:1;stroke:#000000;stroke-width:2.76845336;stroke-miterlimit:4;stroke-dasharray:none;stroke-opacity:1"
       d="M 90.3665,183.88764 C 88.081215,199.45852 80.770332,213.34892 78.221932,228.83595 C 75.967098,207.82181 81.972553,200.93994 90.240814,184.57642 C 90.305157,184.35233 90.349507,184.12135 90.3665,183.88764 z"
       id="path3308"
       sodipodi:nodetypes="cccc" />
    <path
       style="opacity:1;fill:#ff6600;fill-opacity:1;stroke:#000000;stroke-width:2.76845336;stroke-miterlimit:4;stroke-dasharray:none;stroke-opacity:1"
       d="M 140.50709,187.40582 C 145.75016,202.80588 143.08621,218.6799 147.91753,234.10859 C 133.40748,215.48805 138.04593,206.65784 140.70478,188.09701 C 140.67311,187.86264 140.6099,187.62996 140.50709,187.40582 z"
       id="path3317"
       sodipodi:nodetypes="cccc" />
    <path
       style="opacity:1;fill:#ff6600;fill-opacity:1;stroke:#000000;stroke-width:2.76845336;stroke-miterlimit:4;stroke-dasharray:none;stroke-opacity:1"
       d="M 186.5473,169.57799 C 197.08751,181.88929 202.44104,196.98311 212.71295,209.44288 C 194.38767,196.99108 193.56578,187.65449 186.99466,170.14176 C 186.86713,169.94005 186.71881,169.74928 186.5473,169.57799 z"
       id="path3319"
       sodipodi:nodetypes="cccc" />
  </g>
</svg>
