<?xml version="1.0" encoding="UTF-8" standalone="no"?>
<!-- Created with Inkscape (http://www.inkscape.org/) -->
<svg
   xmlns:dc="http://purl.org/dc/elements/1.1/"
   xmlns:cc="http://creativecommons.org/ns#"
   xmlns:rdf="http://www.w3.org/1999/02/22-rdf-syntax-ns#"
   xmlns:svg="http://www.w3.org/2000/svg"
   xmlns="http://www.w3.org/2000/svg"
   xmlns:sodipodi="http://sodipodi.sourceforge.net/DTD/sodipodi-0.dtd"
   xmlns:inkscape="http://www.inkscape.org/namespaces/inkscape"
   width="250"
   height="250"
   id="svg2"
   sodipodi:version="0.32"
   inkscape:version="0.46"
   sodipodi:docname="pinkrosette.svg"
   inkscape:output_extension="org.inkscape.output.svg.inkscape"
   inkscape:export-filename="P:\pidgey2\data\images\pinkrosette.png"
   inkscape:export-xdpi="92.160004"
   inkscape:export-ydpi="92.160004"
   version="1.0">
  <defs
     id="defs4">
    <inkscape:perspective
       sodipodi:type="inkscape:persp3d"
       inkscape:vp_x="0 : 125 : 1"
       inkscape:vp_y="0 : 1000 : 0"
       inkscape:vp_z="250 : 125 : 1"
       inkscape:persp3d-origin="125 : 83.333333 : 1"
       id="perspective3645" />
  </defs>
  <sodipodi:namedview
     id="base"
     pagecolor="#cb90ff"
     bordercolor="#666666"
     borderopacity="1.0"
     gridtolerance="10000"
     guidetolerance="10"
     objecttolerance="10"
     inkscape:pageopacity="0"
     inkscape:pageshadow="2"
     inkscape:zoom="1.7111984"
     inkscape:cx="55.715021"
     inkscape:cy="117.44253"
     inkscape:document-units="px"
     inkscape:current-layer="layer1"
     showgrid="false"
     inkscape:window-width="1424"
     inkscape:window-height="810"
     inkscape:window-x="199"
     inkscape:window-y="72" />
  <metadata
     id="metadata7">
    <rdf:RDF>
      <cc:Work
         rdf:about="">
        <dc:format>image/svg+xml</dc:format>
        <dc:type
           rdf:resource="http://purl.org/dc/dcmitype/StillImage" />
      </cc:Work>
    </rdf:RDF>
  </metadata>
  <g
     inkscape:label="Layer 1"
     inkscape:groupmode="layer"
     id="layer1">
    <path
       style="opacity:1;fill:#d40055;fill-opacity:1;stroke:#000000;stroke-width:2.76354527;stroke-miterlimit:4;stroke-dasharray:none;stroke-opacity:1"
       d="M 111.52593,143.5715 C 112.41974,185.53026 107.98088,209.01378 98.259851,242.71476 C 107.17786,232.42722 118.14976,235.68046 127.91569,226.20909 C 140.48496,242.26834 155.80406,239.50317 158.63797,245.02235 C 155.04546,233.85166 145.18048,175.26103 148.91596,141.77546 C 143.89325,143.19318 116.3671,141.64517 111.52593,143.5715 z"
       id="path3306"
       sodipodi:nodetypes="cccccc"
       inkscape:transform-center-x="4.4411868"
       inkscape:transform-center-y="7.6711385" />
    <path
       style="opacity:1;fill:#d40055;fill-opacity:1;stroke:#000000;stroke-width:2.76354527;stroke-miterlimit:4;stroke-dasharray:none;stroke-opacity:1"
       d="M 80.028749,130.46162 C 64.901041,169.60864 51.866234,189.64043 30.060929,217.11375 C 42.220817,210.98991 54.414198,216.0628 67.047987,211.01624 C 72.566794,230.64858 84.504062,236.02398 85.026503,242.20617 C 85.951366,230.50851 99.105827,172.56768 115.29328,143.01765 C 110.10875,142.41905 85.238757,130.52079 80.028749,130.46162 z"
       id="path3304"
       sodipodi:nodetypes="cccccc" />
    <path
       style="opacity:1;fill:#d40055;fill-opacity:1;stroke:#000000;stroke-width:2.76354527;stroke-miterlimit:4;stroke-dasharray:none;stroke-opacity:1"
       d="M 177.90841,129.35009 C 193.03611,168.49711 206.07092,188.5289 227.87622,216.00222 C 215.71633,209.87837 205.94542,217.77748 193.31163,212.73091 C 187.79283,232.36325 173.43309,234.91244 172.91065,241.09464 C 171.98579,229.39697 158.83133,171.45615 142.64387,141.90612 C 147.8284,141.30752 172.69839,129.40925 177.90841,129.35009 z"
       id="path3274"
       sodipodi:nodetypes="cccccc" />
    <path
       style="fill:#ff2a7f;fill-opacity:1;stroke:#000000;stroke-width:2.76354527;stroke-miterlimit:4;stroke-dasharray:none;stroke-opacity:1"
       d="M 89.15001,67.118704 C 86.756304,63.263609 84.553975,59.113959 81.28649,56.025934 C 74.908164,51.506085 66.879116,51.105694 60.290181,47.016055 C 57.193805,45.191495 53.777012,41.882212 54.347707,37.73447 C 55.396473,33.334662 59.512948,31.124179 62.29101,28.102216 C 68.935791,23.016585 75.432123,17.653666 82.58575,13.395665 C 85.148826,11.081937 88.504571,8.5531035 91.973391,10.303121 C 98.426391,11.729361 104.70185,19.061797 106.89166,24.823035 C 110.34165,31.784771 114.46114,36.81775 115.34272,45.10681 C 116.05152,52.41952 111.75514,60.045884 105.05896,62.159962 C 101.44274,62.979477 92.511037,67.822744 89.15001,67.118704 z"
       id="path3173"
       sodipodi:nodetypes="ccccccccccc" />
    <path
       style="fill:#aa0044;fill-opacity:0.75;stroke:#000000;stroke-width:2.76354527;stroke-miterlimit:4;stroke-dasharray:none;stroke-opacity:1"
       d="M 96.274073,50.305487 C 93.25435,47.190625 89.845654,44.417438 87.501476,40.638238 C 86.230351,39.125148 84.776138,37.586974 84.369926,35.519945 C 83.507113,34.234942 84.390988,31.811943 86.032823,32.168308 C 87.480885,32.422279 88.986387,32.61144 90.322674,33.340818 C 91.561111,34.027013 92.752335,34.819427 93.882134,35.693993 C 95.669608,37.16361 96.512079,39.481981 97.501751,41.56706 C 102.78063,56.25314 112.94919,69.299127 96.274073,50.305487 z"
       id="path3175"
       sodipodi:nodetypes="cccccccc" />
    <path
       style="fill:#ff2a7f;fill-opacity:1;stroke:#000000;stroke-width:2.76354527;stroke-miterlimit:4;stroke-dasharray:none;stroke-opacity:1"
       d="M 116.54561,53.453911 C 116.89062,48.839653 117.55617,44.120532 116.77138,39.530899 C 114.36844,31.757069 108.28892,26.12862 105.47197,18.553543 C 104.09199,15.070228 103.31764,10.207874 106.16164,7.3254829 C 109.52699,4.5613646 114.03912,5.5482914 117.96794,5.0116221 C 126.12777,5.4119858 134.33108,5.4961523 142.41291,6.8837907 C 145.76371,6.7615047 149.86177,6.9947446 151.57755,10.665963 C 155.82585,16.057669 156.52359,25.974087 154.91745,31.951615 C 153.6085,39.706742 153.93967,46.388948 149.8454,53.487515 C 146.17919,59.704323 138.3978,62.855166 131.91373,60.085181 C 128.59811,58.336036 118.78074,56.231658 116.54561,53.453911 z"
       id="path3192"
       sodipodi:nodetypes="ccccccccccc" />
    <path
       style="fill:#aa0044;fill-opacity:0.75;stroke:#000000;stroke-width:2.76354527;stroke-miterlimit:4;stroke-dasharray:none;stroke-opacity:1"
       d="M 130.27163,43.620286 C 129.69708,39.173535 128.61948,34.737909 128.95959,30.216086 C 128.83435,28.185558 128.5797,26.014147 129.45419,24.120647 C 129.51816,22.539622 131.61223,21.220134 132.69689,22.586822 C 133.68837,23.744793 134.76244,24.889836 135.39151,26.347495 C 135.9686,27.706451 136.44726,29.117653 136.83018,30.552769 C 137.38636,32.890854 136.7096,35.27063 136.28329,37.564465 C 131.95077,52.601234 132.40868,69.584954 130.27163,43.620286 z"
       id="path3194"
       sodipodi:nodetypes="cccccccc" />
    <path
       style="fill:#ff2a7f;fill-opacity:1;stroke:#000000;stroke-width:2.76354527;stroke-miterlimit:4;stroke-dasharray:none;stroke-opacity:1"
       d="M 149.0591,59.675297 C 151.52863,55.875409 151.41048,51.266565 152.89247,46.878663 C 154.47515,38.867493 154.78618,31.618078 155.91769,23.555332 C 156.36489,19.802127 157.98424,15.184269 161.79747,14.228099 C 166.00538,13.655252 169.43864,16.941125 173.08504,18.596288 C 179.94537,23.342636 186.99205,27.839278 193.32036,33.396389 C 196.27244,35.097799 199.70273,37.50931 199.45714,41.605924 C 200.5896,48.554513 196.52559,57.496923 192.3251,61.794345 C 187.54476,67.78758 184.68615,73.738485 177.80874,77.662473 C 171.71607,81.055615 163.51144,79.581019 159.21387,73.691438 C 157.1729,70.392402 149.68265,63.280184 149.0591,59.675297 z"
       id="path3196"
       sodipodi:nodetypes="ccccccccccc"
       inkscape:transform-center-x="-6.4161469"
       inkscape:transform-center-y="3.7221898" />
    <path
       style="fill:#aa0044;fill-opacity:0.75;stroke:#000000;stroke-width:2.76354527;stroke-miterlimit:4;stroke-dasharray:none;stroke-opacity:1"
       d="M 165.54386,58.58295 C 167.14023,54.431856 168.29679,50.019079 170.7186,46.296398 C 171.56599,44.474821 172.36789,42.461751 174.0144,41.297686 C 174.8137,39.966442 177.2436,39.955933 177.53738,41.721463 C 177.84892,43.256454 178.23785,44.82481 178.09529,46.423231 C 177.95427,47.908364 177.70363,49.385537 177.35902,50.831742 C 176.73915,53.151401 175.0346,54.842161 173.58684,56.593745 C 162.76785,67.246529 155.17076,82.164578 165.54386,58.58295 z"
       id="path3198"
       sodipodi:nodetypes="cccccccc"
       inkscape:transform-center-x="-2.3728941"
       inkscape:transform-center-y="10.506294" />
    <path
       style="fill:#ff2a7f;fill-opacity:1;stroke:#000000;stroke-width:2.76354527;stroke-miterlimit:4;stroke-dasharray:none;stroke-opacity:1"
       d="M 83.845643,91.351528 C 79.536668,90.963119 75.131067,90.231158 70.840425,91.05227 C 63.568583,93.592431 58.285646,100.07714 51.197756,103.06129 C 47.938122,104.52413 43.392763,105.33294 40.711941,102.27657 C 38.14376,98.662627 39.084353,93.836583 38.599267,89.62867 C 39.007006,80.895408 39.11955,72.114317 40.449223,63.468653 C 40.348846,59.881199 40.583667,55.49528 44.020226,53.673774 C 49.074437,49.148354 58.340721,48.442446 63.917973,50.186479 C 71.156995,51.619742 77.400532,51.292865 84.014719,55.705041 C 89.806973,59.655336 92.718152,67.998146 90.103767,74.92773 C 88.456099,78.469784 86.44971,88.970358 83.845643,91.351528 z"
       id="path3200"
       sodipodi:nodetypes="ccccccccccc"
       inkscape:transform-center-x="-3.2918665"
       inkscape:transform-center-y="-5.5333619" />
    <path
       style="fill:#aa0044;fill-opacity:0.75;stroke:#000000;stroke-width:2.76354527;stroke-miterlimit:4;stroke-dasharray:none;stroke-opacity:1"
       d="M 74.716335,78.774285 C 70.560037,79.370931 66.412051,80.506138 62.189409,80.123363 C 60.29208,80.249035 58.262603,80.512652 56.497414,79.568705 C 55.020767,79.49369 53.796825,77.246571 55.077999,76.09113 C 56.163814,75.034548 57.237898,73.889525 58.602166,73.22215 C 59.874015,72.609996 61.194266,72.103446 62.536464,71.699484 C 64.722879,71.113764 66.943143,71.848062 69.08416,72.313901 C 83.112812,77.01394 98.980014,76.59397 74.716335,78.774285 z"
       id="path3202"
       sodipodi:nodetypes="cccccccc"
       inkscape:transform-center-x="-8.2270762"
       inkscape:transform-center-y="-7.9060308" />
    <path
       style="fill:#ff2a7f;fill-opacity:1;stroke:#000000;stroke-width:2.76354527;stroke-miterlimit:4;stroke-dasharray:none;stroke-opacity:1"
       d="M 170.35954,111.99094 C 173.54553,115.12079 177.86038,116.80318 181.72329,118.9644 C 189.78422,119.883 195.71265,121.51305 202.87487,124.11601 C 206.28918,125.09429 210.3465,127.43208 210.71965,131.60551 C 210.68497,136.14614 207.18229,139.34697 205.16054,142.99281 C 199.84579,149.63296 194.73715,156.5043 188.74331,162.47122 C 186.77197,165.37433 184.07909,168.68938 180.31983,167.87887 C 173.7355,168.14724 166.00317,162.63555 162.58901,157.60271 C 157.6829,151.7271 152.55795,147.89573 149.8489,140.07339 C 147.52588,133.15475 149.99247,124.64933 156.02146,120.88122 C 159.34939,119.15911 166.93879,112.1684 170.35954,111.99094 z"
       id="path3204"
       sodipodi:nodetypes="ccccccccccc" />
    <path
       style="fill:#aa0044;fill-opacity:0.75;stroke:#000000;stroke-width:2.76354527;stroke-miterlimit:4;stroke-dasharray:none;stroke-opacity:1"
       d="M 169.15746,129.62452 C 172.7858,131.87527 176.71541,133.69462 179.83634,136.76345 C 181.40879,137.90692 183.16461,139.02786 184.02113,140.93076 C 185.14615,141.95739 184.82964,144.5364 183.15584,144.61102 C 181.69309,144.7354 180.18904,144.93741 178.72853,144.57157 C 177.37266,144.22258 176.03891,143.75836 174.74642,143.19865 C 172.68234,142.22967 171.34606,140.19449 169.91902,138.42354 C 161.51033,125.51658 148.72071,115.45472 169.15746,129.62452 z"
       id="path3206"
       sodipodi:nodetypes="cccccccc" />
    <path
       style="fill:#ff2a7f;fill-opacity:1;stroke:#000000;stroke-width:2.76354527;stroke-miterlimit:4;stroke-dasharray:none;stroke-opacity:1"
       d="M 148.35483,132.20646 C 149.05142,136.77503 149.4602,141.52751 151.24823,145.78274 C 155.31926,152.71507 162.48041,156.62248 166.90898,163.25579 C 169.02759,166.28434 170.86646,170.80703 168.74947,174.33426 C 166.09986,177.88021 161.49821,178.0779 157.80355,179.60548 C 149.7913,181.30716 141.80756,183.327 133.65037,184.05014 C 130.42427,185.0273 126.39315,185.85069 123.9065,182.7257 C 118.57629,178.57901 115.68193,169.12951 115.90506,162.91421 C 115.44224,155.04911 113.62682,148.64591 116.01518,140.70472 C 118.18504,133.72934 125.03591,128.67658 131.9508,129.70496 C 135.56111,130.55387 145.56367,130.08203 148.35483,132.20646 z"
       id="path3208"
       sodipodi:nodetypes="ccccccccccc" />
    <path
       style="fill:#aa0044;fill-opacity:0.75;stroke:#000000;stroke-width:2.76354527;stroke-miterlimit:4;stroke-dasharray:none;stroke-opacity:1"
       d="M 137.22608,145.27074 C 138.77803,149.44107 140.81595,153.47175 141.49661,157.9493 C 142.07215,159.88875 142.80485,161.93181 142.37907,163.99432 C 142.67042,165.5458 140.93217,167.36341 139.57351,166.31431 C 138.35194,165.444 137.0531,164.60738 136.11645,163.35323 C 135.25231,162.18163 134.47208,160.93404 133.77946,159.63872 C 132.71673,157.51107 132.84181,155.02706 132.74294,152.69068 C 133.58795,136.98092 129.34649,120.60803 137.22608,145.27074 z"
       id="path3210"
       sodipodi:nodetypes="cccccccc" />
    <path
       style="fill:#ff2a7f;fill-opacity:1;stroke:#000000;stroke-width:2.76354527;stroke-miterlimit:4;stroke-dasharray:none;stroke-opacity:1"
       d="M 116.29475,137.52323 C 114.74648,141.84536 112.86305,146.17117 112.40507,150.81123 C 112.65935,158.99507 117.00655,166.23235 117.7104,174.35067 C 118.11525,178.10939 117.57533,183.0079 114.08666,184.91318 C 110.12909,186.54739 106.061,184.23655 102.15054,183.56363 C 94.428472,180.71272 86.5813,178.15198 79.194535,174.37758 C 75.947874,173.48189 72.078155,172.01923 71.400756,167.97875 C 68.747791,161.52219 70.694554,151.7985 73.81226,146.54984 C 77.113844,139.5061 78.559021,132.9958 84.359346,127.42396 C 89.516402,122.56855 97.812268,121.89841 103.30164,126.51587 C 106.02083,129.19618 114.88341,134.18283 116.29475,137.52323 z"
       id="path3212"
       sodipodi:nodetypes="ccccccccccc"
       inkscape:transform-center-x="7.6227462"
       inkscape:transform-center-y="-3.6367899" />
    <path
       style="fill:#aa0044;fill-opacity:0.75;stroke:#000000;stroke-width:2.76354527;stroke-miterlimit:4;stroke-dasharray:none;stroke-opacity:1"
       d="M 100.53322,142.80698 C 99.911254,147.24642 99.77481,151.82726 98.255616,156.06219 C 97.840082,158.04792 97.511511,160.20794 96.173092,161.75998 C 95.694629,163.25732 93.337685,163.89001 92.657739,162.25107 C 92.012096,160.84047 91.283836,159.41734 91.064928,157.82883 C 90.869829,156.35074 90.782958,154.85228 90.794241,153.35981 C 90.877514,150.94875 92.154547,148.87046 93.168653,146.79887 C 101.29174,133.68397 105.33302,117.25316 100.53322,142.80698 z"
       id="path3214"
       sodipodi:nodetypes="cccccccc"
       inkscape:transform-center-x="5.428799"
       inkscape:transform-center-y="-9.8196093" />
    <path
       style="fill:#ff2a7f;fill-opacity:1;stroke:#000000;stroke-width:2.76354527;stroke-miterlimit:4;stroke-dasharray:none;stroke-opacity:1"
       d="M 169.90126,82.265055 C 174.17186,81.538282 177.36425,77.109766 181.34665,75.213325 C 187.83931,70.884042 192.76783,67.244916 198.98262,62.531669 C 201.82053,60.276264 206.05298,58.326497 209.33917,60.607266 C 212.64066,63.458289 212.80631,68.385047 214.21801,72.346427 C 215.77452,80.93036 217.62834,89.485122 218.27011,98.220206 C 219.16958,101.67769 219.9221,105.99632 216.99262,108.64528 C 213.09697,114.334 204.25775,117.39329 198.45267,117.12873 C 192.17252,118.73591 186.26515,120.74021 177.70618,116.91901 C 171.19912,114.5674 166.50743,107.21282 167.49668,99.814838 C 168.3046,95.9536 167.90519,85.244148 169.90126,82.265055 z"
       id="path3216"
       sodipodi:nodetypes="ccccccccccc"
       inkscape:transform-center-x="0.56488212"
       inkscape:transform-center-y="4.2100118" />
    <path
       style="fill:#aa0044;fill-opacity:0.75;stroke:#000000;stroke-width:2.76354527;stroke-miterlimit:4;stroke-dasharray:none;stroke-opacity:1"
       d="M 182.05922,94.232143 C 185.96135,92.588059 189.735,90.423185 193.92052,89.713063 C 195.73462,89.104967 197.6462,88.329096 199.57111,88.793409 C 201.02163,88.487944 202.71236,90.356216 201.72673,91.806288 C 200.90868,93.110346 200.12178,94.497258 198.94636,95.494734 C 197.84832,96.414943 196.67968,97.244991 195.4668,97.981065 C 193.47485,99.109885 191.15494,98.965732 188.97199,99.061921 C 174.30026,98.092394 158.98803,102.56509 182.05922,94.232143 z"
       id="path3218"
       sodipodi:nodetypes="cccccccc"
       inkscape:transform-center-x="6.3167297"
       inkscape:transform-center-y="8.0930142" />
    <path
       style="fill:#ff2a7f;fill-opacity:1;stroke:#000000;stroke-width:2.76354527;stroke-miterlimit:4;stroke-dasharray:none;stroke-opacity:1"
       d="M 94.537366,124.4651 C 90.657806,126.50968 86.530028,128.31314 83.248517,131.38408 C 78.239948,137.57299 76.834951,146.04483 72.197789,152.5127 C 70.108765,155.56473 66.603052,158.76566 62.834194,157.62564 C 58.893394,155.94563 57.375836,151.29102 54.934163,147.95271 C 51.078771,140.24379 46.947391,132.65678 43.924228,124.51428 C 42.110958,121.49541 40.2005,117.60736 42.268446,114.15036 C 44.420782,107.48373 52.021614,101.76629 57.640718,100.18368 C 64.609175,97.217352 71.63144,88.596938 77.519566,93.824713 C 84.385163,94.01412 90.896694,99.557258 91.992688,106.93797 C 92.286118,110.88241 95.622451,120.98781 94.537366,124.4651 z"
       id="path3220"
       sodipodi:nodetypes="ccccccccccc"
       inkscape:transform-center-x="2.617157"
       inkscape:transform-center-y="-3.916409" />
    <path
       style="fill:#aa0044;fill-opacity:0.75;stroke:#000000;stroke-width:2.76354527;stroke-miterlimit:4;stroke-dasharray:none;stroke-opacity:1"
       d="M 79.620059,116.87578 C 76.345605,119.68027 73.337571,122.94166 69.5347,124.94341 C 67.969299,126.09793 66.35707,127.44357 64.389919,127.60857 C 63.088391,128.35901 60.957624,127.10864 61.499208,125.41162 C 61.920984,123.9071 62.290121,122.33327 63.137905,121.00866 C 63.933075,119.78234 64.820573,118.61983 65.776267,117.53311 C 67.367902,115.82486 69.624091,115.22913 71.683111,114.44705 C 85.96784,110.73466 99.362972,101.62028 79.620059,116.87578 z"
       id="path3222"
       sodipodi:nodetypes="cccccccc"
       inkscape:transform-center-x="-3.406761"
       inkscape:transform-center-y="-9.8040802" />
    <path
       sodipodi:type="arc"
       style="fill:#ffffff;fill-opacity:1;stroke:#000000;stroke-width:2.2219398;stroke-miterlimit:4;stroke-dasharray:none;stroke-opacity:1"
       id="path3262"
       sodipodi:cx="145.24794"
       sodipodi:cy="104.75207"
       sodipodi:rx="36.983471"
       sodipodi:ry="39.049587"
       d="M 182.23141,104.75207 A 36.983471,39.049587 0 1 1 108.26447,104.75207 A 36.983471,39.049587 0 1 1 182.23141,104.75207 z"
       transform="matrix(1.2752545,0,0,1.2130305,-60.01012,-30.193729)" />
    <path
       style="opacity:1;fill:#ff2a7f;fill-opacity:1;stroke:#000000;stroke-width:2.76354527;stroke-miterlimit:4;stroke-dasharray:none;stroke-opacity:1"
       d="M 92.768333,183.19993 C 90.4871,198.7432 83.189177,212.60898 80.645296,228.06854 C 78.394458,207.09165 84.389268,200.222 92.64287,183.88748 C 92.7071,183.66379 92.751371,183.43323 92.768333,183.19993 z"
       id="path3308"
       sodipodi:nodetypes="cccc" />
    <path
       style="opacity:1;fill:#ff2a7f;fill-opacity:1;stroke:#000000;stroke-width:2.76354527;stroke-miterlimit:4;stroke-dasharray:none;stroke-opacity:1"
       d="M 142.82003,186.71187 C 148.0538,202.08462 145.39459,217.9305 150.21733,233.33184 C 135.73301,214.74431 140.36323,205.92976 143.01736,187.40183 C 142.98577,187.16788 142.92265,186.93561 142.82003,186.71187 z"
       id="path3317"
       sodipodi:nodetypes="cccc" />
    <path
       style="opacity:1;fill:#ff2a7f;fill-opacity:1;stroke:#000000;stroke-width:2.76354527;stroke-miterlimit:4;stroke-dasharray:none;stroke-opacity:1"
       d="M 188.77862,168.91564 C 199.30015,181.20511 204.64419,196.27218 214.89788,208.70985 C 196.60509,196.28013 195.78465,186.9601 189.22519,169.47842 C 189.09789,169.27706 188.94982,169.08663 188.77862,168.91564 z"
       id="path3319"
       sodipodi:nodetypes="cccc" />
  </g>
</svg>
