<?xml version="1.0" encoding="UTF-8" standalone="no"?>
<!-- Created with Inkscape (http://www.inkscape.org/) -->
<svg
   xmlns:dc="http://purl.org/dc/elements/1.1/"
   xmlns:cc="http://creativecommons.org/ns#"
   xmlns:rdf="http://www.w3.org/1999/02/22-rdf-syntax-ns#"
   xmlns:svg="http://www.w3.org/2000/svg"
   xmlns="http://www.w3.org/2000/svg"
   xmlns:sodipodi="http://sodipodi.sourceforge.net/DTD/sodipodi-0.dtd"
   xmlns:inkscape="http://www.inkscape.org/namespaces/inkscape"
   width="250"
   height="250"
   id="svg2"
   sodipodi:version="0.32"
   inkscape:version="0.46"
   sodipodi:docname="redrosette.svg"
   inkscape:output_extension="org.inkscape.output.svg.inkscape"
   inkscape:export-filename="P:\pidgey2\data\images\redrosette.png"
   inkscape:export-xdpi="92.160004"
   inkscape:export-ydpi="92.160004"
   version="1.0">
  <defs
     id="defs4">
    <inkscape:perspective
       sodipodi:type="inkscape:persp3d"
       inkscape:vp_x="0 : 125 : 1"
       inkscape:vp_y="0 : 1000 : 0"
       inkscape:vp_z="250 : 125 : 1"
       inkscape:persp3d-origin="125 : 83.333333 : 1"
       id="perspective3645" />
  </defs>
  <sodipodi:namedview
     id="base"
     pagecolor="#cb90ff"
     bordercolor="#666666"
     borderopacity="1.0"
     gridtolerance="10000"
     guidetolerance="10"
     objecttolerance="10"
     inkscape:pageopacity="0"
     inkscape:pageshadow="2"
     inkscape:zoom="1.7111984"
     inkscape:cx="55.715021"
     inkscape:cy="162.10367"
     inkscape:document-units="px"
     inkscape:current-layer="layer1"
     showgrid="false"
     inkscape:window-width="1424"
     inkscape:window-height="810"
     inkscape:window-x="199"
     inkscape:window-y="72" />
  <metadata
     id="metadata7">
    <rdf:RDF>
      <cc:Work
         rdf:about="">
        <dc:format>image/svg+xml</dc:format>
        <dc:type
           rdf:resource="http://purl.org/dc/dcmitype/StillImage" />
      </cc:Work>
    </rdf:RDF>
  </metadata>
  <g
     inkscape:label="Layer 1"
     inkscape:groupmode="layer"
     id="layer1">
    <path
       style="opacity:1;fill:#d40000;fill-opacity:1;stroke:#000000;stroke-width:2.80260897;stroke-miterlimit:4;stroke-dasharray:none;stroke-opacity:1"
       d="M 110.1106,144.41816 C 111.01705,186.97002 106.51544,210.78549 96.657001,244.96285 C 105.70107,234.52988 116.82807,237.82912 126.73204,228.22387 C 139.47898,244.51011 155.01462,241.70586 157.88859,247.30305 C 154.24529,235.97447 144.24086,176.55564 148.02916,142.59674 C 142.93545,144.03449 115.02021,142.46461 110.1106,144.41816 z"
       id="path3306"
       sodipodi:nodetypes="cccccc"
       inkscape:transform-center-x="4.5039627"
       inkscape:transform-center-y="7.7795719" />
    <path
       style="opacity:1;fill:#d40000;fill-opacity:1;stroke:#000000;stroke-width:2.80260897;stroke-miterlimit:4;stroke-dasharray:none;stroke-opacity:1"
       d="M 78.168197,131.12298 C 62.826654,170.82334 49.607595,191.1383 27.494066,218.99996 C 39.825838,212.78956 52.191576,217.93416 65.003948,212.81625 C 70.600765,232.7261 82.70677,238.17748 83.236597,244.44707 C 84.174531,232.58405 97.514935,173.82421 113.93121,143.85649 C 108.67339,143.24942 83.451851,131.18298 78.168197,131.12298 z"
       id="path3304"
       sodipodi:nodetypes="cccccc" />
    <path
       style="opacity:1;fill:#d40000;fill-opacity:1;stroke:#000000;stroke-width:2.80260897;stroke-miterlimit:4;stroke-dasharray:none;stroke-opacity:1"
       d="M 177.43141,129.99573 C 192.77296,169.6961 205.99202,190.01105 228.10554,217.87271 C 215.77377,211.66231 205.86474,219.67307 193.05237,214.55516 C 187.45555,234.46501 172.89283,237.05024 172.36301,243.31982 C 171.42507,231.45681 158.08467,172.69697 141.6684,142.72924 C 146.92622,142.12218 172.14776,130.05573 177.43141,129.99573 z"
       id="path3274"
       sodipodi:nodetypes="cccccc" />
    <path
       style="fill:#ff0000;fill-opacity:1;stroke:#000000;stroke-width:2.80260897;stroke-miterlimit:4;stroke-dasharray:none;stroke-opacity:1"
       d="M 87.41839,66.884679 C 84.990849,62.975091 82.757388,58.766784 79.443716,55.635109 C 72.975232,51.05137 64.83269,50.64532 58.150618,46.497873 C 55.010474,44.647522 51.545384,41.291462 52.124145,37.085089 C 53.187736,32.623088 57.362399,30.38136 60.179729,27.316681 C 66.918437,22.159162 73.506596,16.720437 80.761342,12.402247 C 83.360647,10.055814 86.763826,7.4912347 90.28168,9.26599 C 96.825896,10.71239 103.19006,18.148473 105.41083,23.991147 C 108.90959,31.05129 113.08731,36.155411 113.98134,44.561639 C 114.70016,51.977718 110.34304,59.711883 103.55222,61.855844 C 99.884879,62.686942 90.826926,67.598671 87.41839,66.884679 z"
       id="path3173"
       sodipodi:nodetypes="ccccccccccc" />
    <path
       style="fill:#550000;fill-opacity:0.75;stroke:#000000;stroke-width:2.80260897;stroke-miterlimit:4;stroke-dasharray:none;stroke-opacity:1"
       d="M 94.643154,49.833802 C 91.580746,46.674911 88.123867,43.862523 85.746554,40.029903 C 84.45746,38.495426 82.982693,36.935509 82.570738,34.839262 C 81.695729,33.536095 82.592097,31.078845 84.257141,31.440248 C 85.725671,31.697808 87.252455,31.889644 88.60763,32.629332 C 89.863573,33.325226 91.071635,34.128842 92.217404,35.01577 C 94.030144,36.50616 94.884523,38.857302 95.888185,40.971854 C 101.24169,55.865526 111.55397,69.095923 94.643154,49.833802 z"
       id="path3175"
       sodipodi:nodetypes="cccccccc" />
    <path
       style="fill:#ff0000;fill-opacity:1;stroke:#000000;stroke-width:2.80260897;stroke-miterlimit:4;stroke-dasharray:none;stroke-opacity:1"
       d="M 115.20123,53.026729 C 115.55113,48.347248 116.22609,43.56142 115.4302,38.906911 C 112.99329,31.023196 106.82783,25.315187 103.97107,17.633033 C 102.57158,14.100481 101.78629,9.1693962 104.67049,6.2462616 C 108.08341,3.4430716 112.65932,4.4439491 116.64367,3.8996936 C 124.91885,4.3057171 133.2381,4.3910726 141.43419,5.7983255 C 144.83235,5.6743121 148.98833,5.9108483 150.72836,9.6339606 C 155.03672,15.10188 155.74431,25.158469 154.11548,31.220491 C 152.78803,39.08524 153.12388,45.861901 148.97173,53.060809 C 145.25369,59.365493 137.36232,62.560875 130.78659,59.751735 C 127.42411,57.977865 117.46797,55.843741 115.20123,53.026729 z"
       id="path3192"
       sodipodi:nodetypes="ccccccccccc" />
    <path
       style="fill:#550000;fill-opacity:0.75;stroke:#000000;stroke-width:2.80260897;stroke-miterlimit:4;stroke-dasharray:none;stroke-opacity:1"
       d="M 129.12128,43.054103 C 128.5386,38.544496 127.44577,34.046171 127.7907,29.460432 C 127.66368,27.401201 127.40543,25.199096 128.29228,23.278831 C 128.35715,21.675457 130.48083,20.337317 131.58081,21.723324 C 132.58632,22.897664 133.67557,24.058893 134.31352,25.537157 C 134.89878,26.915321 135.3842,28.346471 135.77253,29.801873 C 136.33659,32.173007 135.65025,34.586422 135.21792,36.912681 C 130.82415,52.162001 131.28854,69.385791 129.12128,43.054103 z"
       id="path3194"
       sodipodi:nodetypes="cccccccc" />
    <path
       style="fill:#ff0000;fill-opacity:1;stroke:#000000;stroke-width:2.80260897;stroke-miterlimit:4;stroke-dasharray:none;stroke-opacity:1"
       d="M 148.17431,59.336058 C 150.67876,55.482456 150.55893,50.808465 152.06188,46.358539 C 153.66692,38.234128 153.98235,30.88224 155.12987,22.705526 C 155.58338,18.899267 157.22562,14.216134 161.09275,13.246449 C 165.36014,12.665504 168.84193,15.997824 172.53987,17.676383 C 179.49717,22.489822 186.64346,27.050026 193.06123,32.685689 C 196.05503,34.411149 199.5338,36.856748 199.28476,41.011268 C 200.43321,48.058077 196.31176,57.126891 192.05189,61.485059 C 187.20399,67.56301 184.30497,73.598033 177.33033,77.577488 C 171.15155,81.018592 162.83094,79.523153 158.47262,73.550321 C 156.40281,70.204652 148.80668,62.9919 148.17431,59.336058 z"
       id="path3196"
       sodipodi:nodetypes="ccccccccccc"
       inkscape:transform-center-x="-6.5068415"
       inkscape:transform-center-y="3.7748044" />
    <path
       style="fill:#550000;fill-opacity:0.75;stroke:#000000;stroke-width:2.80260897;stroke-miterlimit:4;stroke-dasharray:none;stroke-opacity:1"
       d="M 164.89209,58.22827 C 166.51102,54.018498 167.68394,49.543345 170.13997,45.768043 C 170.99935,43.920718 171.81259,41.879192 173.48237,40.698672 C 174.29297,39.348611 176.75722,39.337954 177.05514,41.128439 C 177.37109,42.685129 177.76552,44.275654 177.62094,45.896669 C 177.47793,47.402795 177.22375,48.900848 176.87427,50.367495 C 176.24563,52.719944 174.51698,54.434603 173.04877,56.210946 C 162.07685,67.014311 154.37236,82.143231 164.89209,58.22827 z"
       id="path3198"
       sodipodi:nodetypes="cccccccc"
       inkscape:transform-center-x="-2.4064346"
       inkscape:transform-center-y="10.654804" />
    <path
       style="fill:#ff0000;fill-opacity:1;stroke:#000000;stroke-width:2.80260897;stroke-miterlimit:4;stroke-dasharray:none;stroke-opacity:1"
       d="M 82.039043,91.460042 C 77.669161,91.066143 73.201285,90.323835 68.849992,91.156554 C 61.475361,93.732616 56.117748,100.309 48.929669,103.33533 C 45.623959,104.81885 41.01435,105.63908 38.295634,102.53952 C 35.69115,98.874484 36.645038,93.980228 36.153097,89.71283 C 36.566599,80.856121 36.680733,71.950906 38.029202,63.183034 C 37.927406,59.54487 38.165546,55.096954 41.650682,53.2497 C 46.776336,48.660312 56.173602,47.944426 61.82969,49.713111 C 69.171039,51.166635 75.502829,50.835137 82.21051,55.30968 C 88.08464,59.315814 91.036969,67.776552 88.385628,74.804088 C 86.71467,78.39621 84.67992,89.045213 82.039043,91.460042 z"
       id="path3200"
       sodipodi:nodetypes="ccccccccccc"
       inkscape:transform-center-x="-3.3383984"
       inkscape:transform-center-y="-5.6115791" />
    <path
       style="fill:#550000;fill-opacity:0.75;stroke:#000000;stroke-width:2.80260897;stroke-miterlimit:4;stroke-dasharray:none;stroke-opacity:1"
       d="M 72.780691,78.705015 C 68.565641,79.310095 64.359023,80.461348 60.076693,80.073163 C 58.152544,80.20061 56.09438,80.467955 54.304239,79.510665 C 52.80672,79.434589 51.565477,77.155707 52.86476,75.983932 C 53.965923,74.912416 55.055189,73.751208 56.438742,73.0744 C 57.72857,72.453592 59.067483,71.939882 60.428653,71.53021 C 62.645973,70.93621 64.897622,71.680887 67.068902,72.153312 C 81.295854,76.919788 97.387344,76.493881 72.780691,78.705015 z"
       id="path3202"
       sodipodi:nodetypes="cccccccc"
       inkscape:transform-center-x="-8.3433687"
       inkscape:transform-center-y="-8.0177854" />
    <path
       style="fill:#ff0000;fill-opacity:1;stroke:#000000;stroke-width:2.80260897;stroke-miterlimit:4;stroke-dasharray:none;stroke-opacity:1"
       d="M 169.77585,112.3912 C 173.00688,115.56529 177.38272,117.27147 181.30022,119.46324 C 189.47509,120.39483 195.48733,122.04792 202.75079,124.68767 C 206.21336,125.67978 210.32804,128.05062 210.70646,132.28303 C 210.67129,136.88785 207.11909,140.13392 205.06877,143.83129 C 199.6789,150.56531 194.49805,157.53377 188.41948,163.58503 C 186.42027,166.52919 183.68932,169.89109 179.87692,169.06913 C 173.19952,169.34129 165.35789,163.75169 161.89547,158.64771 C 156.92001,152.68905 151.72263,148.80352 148.97528,140.87061 C 146.61941,133.85417 149.12089,125.22852 155.23509,121.40716 C 158.61006,119.6607 166.30673,112.57117 169.77585,112.3912 z"
       id="path3204"
       sodipodi:nodetypes="ccccccccccc" />
    <path
       style="fill:#550000;fill-opacity:0.75;stroke:#000000;stroke-width:2.80260897;stroke-miterlimit:4;stroke-dasharray:none;stroke-opacity:1"
       d="M 168.55677,130.27404 C 172.2364,132.5566 176.22156,134.40167 179.3866,137.51388 C 180.98128,138.67351 182.76192,139.81029 183.63055,141.74009 C 184.77147,142.78123 184.45048,145.39671 182.75303,145.47238 C 181.2696,145.59851 179.74428,145.80338 178.26314,145.43236 C 176.8881,145.07845 175.5355,144.60767 174.22474,144.04005 C 172.13148,143.05737 170.77631,140.99342 169.32909,139.19744 C 160.80154,126.10803 147.83114,115.90395 168.55677,130.27404 z"
       id="path3206"
       sodipodi:nodetypes="cccccccc" />
    <path
       style="fill:#ff0000;fill-opacity:1;stroke:#000000;stroke-width:2.80260897;stroke-miterlimit:4;stroke-dasharray:none;stroke-opacity:1"
       d="M 147.46009,132.89248 C 148.16652,137.52562 148.58108,142.34528 150.39439,146.66066 C 154.52297,153.69098 161.78534,157.65362 166.27651,164.38069 C 168.42506,167.45206 170.28993,172.03868 168.14302,175.61576 C 165.45595,179.21184 160.78926,179.41232 157.04238,180.96149 C 148.91687,182.68723 140.82028,184.73563 132.54778,185.46897 C 129.27608,186.45995 125.18798,187.29498 122.66618,184.12582 C 117.26061,179.92052 114.32534,170.33745 114.55163,164.03429 C 114.08227,156.05801 112.2412,149.56431 114.66331,141.51086 C 116.86384,134.43689 123.81155,129.3127 130.82419,130.35561 C 134.48553,131.21653 144.62948,130.73802 147.46009,132.89248 z"
       id="path3208"
       sodipodi:nodetypes="ccccccccccc" />
    <path
       style="fill:#550000;fill-opacity:0.75;stroke:#000000;stroke-width:2.80260897;stroke-miterlimit:4;stroke-dasharray:none;stroke-opacity:1"
       d="M 136.17402,146.14142 C 137.74792,150.3707 139.81465,154.45835 140.50493,158.9992 C 141.08861,160.96606 141.83166,163.03801 141.39987,165.12966 C 141.69533,166.70309 139.93251,168.54638 138.55464,167.48245 C 137.31581,166.59984 135.99862,165.75139 135.04872,164.47952 C 134.17237,163.29135 133.38111,162.02613 132.67869,160.71251 C 131.60094,158.55478 131.72779,156.03566 131.62752,153.66624 C 132.48447,137.73443 128.18306,121.1301 136.17402,146.14142 z"
       id="path3210"
       sodipodi:nodetypes="cccccccc" />
    <path
       style="fill:#ff0000;fill-opacity:1;stroke:#000000;stroke-width:2.80260897;stroke-miterlimit:4;stroke-dasharray:none;stroke-opacity:1"
       d="M 114.94683,138.2844 C 113.37668,142.66762 111.46662,147.05459 111.00217,151.76023 C 111.26005,160.05976 115.66869,167.39932 116.38248,175.63241 C 116.79307,179.44426 116.24551,184.41201 112.70752,186.34422 C 108.69402,188.00152 104.56842,185.65802 100.60268,184.97559 C 92.771466,182.08438 84.813371,179.48745 77.322191,175.6597 C 74.029638,174.75135 70.105218,173.26801 69.418244,169.17042 C 66.727779,162.6226 68.70206,152.76145 71.863835,147.4386 C 75.212088,140.2953 76.677693,133.69296 82.560008,128.04237 C 87.789962,123.11833 96.203091,122.43871 101.77006,127.12144 C 104.52768,129.83965 113.51555,134.89679 114.94683,138.2844 z"
       id="path3212"
       sodipodi:nodetypes="ccccccccccc"
       inkscape:transform-center-x="7.7304988"
       inkscape:transform-center-y="-3.6882034" />
    <path
       style="fill:#550000;fill-opacity:0.75;stroke:#000000;stroke-width:2.80260897;stroke-miterlimit:4;stroke-dasharray:none;stroke-opacity:1"
       d="M 98.962508,143.64284 C 98.331747,148.14503 98.193374,152.79062 96.652707,157.08542 C 96.231299,159.09922 95.898084,161.28977 94.540745,162.86375 C 94.055519,164.38225 91.66526,165.02389 90.975702,163.36177 C 90.320932,161.93124 89.582378,160.48799 89.360376,158.87703 C 89.162519,157.37804 89.07442,155.8584 89.085861,154.34484 C 89.170313,151.8997 90.465397,149.79202 91.493837,147.69115 C 99.731744,134.39087 103.83015,117.72781 98.962508,143.64284 z"
       id="path3214"
       sodipodi:nodetypes="cccccccc"
       inkscape:transform-center-x="5.505538"
       inkscape:transform-center-y="-9.9584103" />
    <path
       style="fill:#ff0000;fill-opacity:1;stroke:#000000;stroke-width:2.80260897;stroke-miterlimit:4;stroke-dasharray:none;stroke-opacity:1"
       d="M 169.31109,82.245128 C 173.64206,81.508083 176.87957,77.016969 180.91826,75.093721 C 187.50269,70.703241 192.50089,67.012675 198.80352,62.232806 C 201.68154,59.945519 205.97382,57.968191 209.30647,60.281199 C 212.65462,63.172523 212.82261,68.168922 214.25426,72.186298 C 215.83278,80.891567 217.7128,89.567254 218.36365,98.425808 C 219.27583,101.93217 220.03898,106.31184 217.0681,108.99825 C 213.11738,114.76738 204.15322,117.86991 198.26608,117.60162 C 191.89715,119.23152 185.90628,121.26414 177.22634,117.38893 C 170.62728,115.00408 165.86928,107.54554 166.87251,100.04298 C 167.69186,96.12717 167.2868,85.266331 169.31109,82.245128 z"
       id="path3216"
       sodipodi:nodetypes="ccccccccccc"
       inkscape:transform-center-x="0.57287075"
       inkscape:transform-center-y="4.2695206" />
    <path
       style="fill:#550000;fill-opacity:0.75;stroke:#000000;stroke-width:2.80260897;stroke-miterlimit:4;stroke-dasharray:none;stroke-opacity:1"
       d="M 181.6409,94.381376 C 185.59819,92.714052 189.42519,90.518576 193.66987,89.798416 C 195.50961,89.181725 197.44821,88.394886 199.40034,88.865762 C 200.87136,88.55598 202.58599,90.450661 201.58642,91.92123 C 200.7568,93.243721 199.95879,94.650236 198.76674,95.661816 C 197.65319,96.595027 196.46803,97.43681 195.238,98.183294 C 193.2179,99.328069 190.8652,99.181872 188.65139,99.279423 C 173.77226,98.29619 158.24359,102.83212 181.6409,94.381376 z"
       id="path3218"
       sodipodi:nodetypes="cccccccc"
       inkscape:transform-center-x="6.4060188"
       inkscape:transform-center-y="8.2074118" />
    <path
       style="fill:#ff0000;fill-opacity:1;stroke:#000000;stroke-width:2.80260897;stroke-miterlimit:4;stroke-dasharray:none;stroke-opacity:1"
       d="M 92.881898,125.04169 C 88.947499,127.11516 84.761374,128.94412 81.433477,132.05848 C 76.354111,138.33485 74.929254,146.92645 70.226544,153.48576 C 68.107991,156.58093 64.552724,159.8271 60.730592,158.67097 C 56.734087,156.96721 55.195078,152.24679 52.718891,148.8613 C 48.809001,141.04342 44.619223,133.34916 41.553327,125.09157 C 39.714426,122.03002 37.776963,118.08701 39.874141,114.58115 C 42.0569,107.82029 49.765173,102.02203 55.463704,100.41704 C 62.530662,97.408785 69.652189,88.666515 75.623545,93.968187 C 82.58619,94.160267 89.189763,99.781765 90.30125,107.2668 C 90.598828,111.267 93.982321,121.51525 92.881898,125.04169 z"
       id="path3220"
       sodipodi:nodetypes="ccccccccccc"
       inkscape:transform-center-x="2.6541512"
       inkscape:transform-center-y="-3.9717658" />
    <path
       style="fill:#550000;fill-opacity:0.75;stroke:#000000;stroke-width:2.80260897;stroke-miterlimit:4;stroke-dasharray:none;stroke-opacity:1"
       d="M 77.75373,117.34509 C 74.432991,120.18922 71.382437,123.49671 67.525812,125.52676 C 65.938284,126.6976 64.303264,128.06227 62.308307,128.22959 C 60.988382,128.99063 58.827496,127.7226 59.376735,126.00159 C 59.804473,124.47581 60.178827,122.87972 61.038595,121.53639 C 61.845005,120.29273 62.745049,119.11379 63.714251,118.01172 C 65.328385,116.27932 67.616465,115.67516 69.704592,114.88203 C 84.191239,111.11717 97.775715,101.87395 77.75373,117.34509 z"
       id="path3222"
       sodipodi:nodetypes="cccccccc"
       inkscape:transform-center-x="-3.4549167"
       inkscape:transform-center-y="-9.9426666" />
    <path
       sodipodi:type="arc"
       style="fill:#ffffff;fill-opacity:1;stroke:#000000;stroke-width:2.2219398;stroke-miterlimit:4;stroke-dasharray:none;stroke-opacity:1"
       id="path3262"
       sodipodi:cx="145.24794"
       sodipodi:cy="104.75207"
       sodipodi:rx="36.983471"
       sodipodi:ry="39.049587"
       d="M 182.23141,104.75207 A 36.983471,39.049587 0 1 1 108.26447,104.75207 A 36.983471,39.049587 0 1 1 182.23141,104.75207 z"
       transform="matrix(1.2932807,0,0,1.2301771,-63.850166,-31.803296)" />
    <path
       style="opacity:1;fill:#ff0000;fill-opacity:1;stroke:#000000;stroke-width:2.80260897;stroke-miterlimit:4;stroke-dasharray:none;stroke-opacity:1"
       d="M 91.087859,184.60675 C 88.77438,200.36974 81.373299,214.43151 78.793459,230.1096 C 76.510806,208.8362 82.590352,201.86944 90.960623,185.30402 C 91.02576,185.07717 91.070657,184.84334 91.087859,184.60675 z"
       id="path3308"
       sodipodi:nodetypes="cccc" />
    <path
       style="opacity:1;fill:#ff0000;fill-opacity:1;stroke:#000000;stroke-width:2.80260897;stroke-miterlimit:4;stroke-dasharray:none;stroke-opacity:1"
       d="M 141.84705,188.16833 C 147.1548,203.75839 144.458,219.82825 149.34892,235.4473 C 134.65986,216.59703 139.35553,207.65788 142.04718,188.86806 C 142.01513,188.63079 141.95112,188.39524 141.84705,188.16833 z"
       id="path3317"
       sodipodi:nodetypes="cccc" />
    <path
       style="opacity:1;fill:#ff0000;fill-opacity:1;stroke:#000000;stroke-width:2.80260897;stroke-miterlimit:4;stroke-dasharray:none;stroke-opacity:1"
       d="M 188.45528,170.12055 C 199.12553,182.58374 204.54511,197.86378 214.94376,210.47727 C 196.39238,197.87185 195.56035,188.42007 188.90817,170.69129 C 188.77906,170.48708 188.62891,170.29396 188.45528,170.12055 z"
       id="path3319"
       sodipodi:nodetypes="cccc" />
  </g>
</svg>
