<?xml version="1.0" encoding="UTF-8" standalone="no"?>
<!-- Created with Inkscape (http://www.inkscape.org/) -->
<svg
   xmlns:dc="http://purl.org/dc/elements/1.1/"
   xmlns:cc="http://creativecommons.org/ns#"
   xmlns:rdf="http://www.w3.org/1999/02/22-rdf-syntax-ns#"
   xmlns:svg="http://www.w3.org/2000/svg"
   xmlns="http://www.w3.org/2000/svg"
   xmlns:sodipodi="http://sodipodi.sourceforge.net/DTD/sodipodi-0.dtd"
   xmlns:inkscape="http://www.inkscape.org/namespaces/inkscape"
   width="250"
   height="250"
   id="svg2"
   sodipodi:version="0.32"
   inkscape:version="0.46"
   sodipodi:docname="roselevel.svg"
   inkscape:output_extension="org.inkscape.output.svg.inkscape"
   inkscape:export-filename="P:\pidgey2\data\images\roselevel.png"
   inkscape:export-xdpi="92.160004"
   inkscape:export-ydpi="92.160004"
   version="1.0">
  <defs
     id="defs4">
    <inkscape:perspective
       sodipodi:type="inkscape:persp3d"
       inkscape:vp_x="0 : 125 : 1"
       inkscape:vp_y="0 : 1000 : 0"
       inkscape:vp_z="250 : 125 : 1"
       inkscape:persp3d-origin="125 : 83.333333 : 1"
       id="perspective3645" />
  </defs>
  <sodipodi:namedview
     id="base"
     pagecolor="#cb90ff"
     bordercolor="#666666"
     borderopacity="1.0"
     gridtolerance="10000"
     guidetolerance="10"
     objecttolerance="10"
     inkscape:pageopacity="0"
     inkscape:pageshadow="2"
     inkscape:zoom="1.7111984"
     inkscape:cx="191.65011"
     inkscape:cy="146.57948"
     inkscape:document-units="px"
     inkscape:current-layer="layer1"
     showgrid="false"
     inkscape:window-width="1680"
     inkscape:window-height="994"
     inkscape:window-x="0"
     inkscape:window-y="22" />
  <metadata
     id="metadata7">
    <rdf:RDF>
      <cc:Work
         rdf:about="">
        <dc:format>image/svg+xml</dc:format>
        <dc:type
           rdf:resource="http://purl.org/dc/dcmitype/StillImage" />
      </cc:Work>
    </rdf:RDF>
  </metadata>
  <g
     inkscape:label="Layer 1"
     inkscape:groupmode="layer"
     id="layer1">
    <g
       id="g3206"
       transform="matrix(-2.2105078,-0.6802583,0.710955,-2.1150654,95.154353,536.76573)">
      <path
         sodipodi:nodetypes="cccccccc"
         id="path6812"
         d="M 72.241363,152.5784 C 62.755301,150.78295 51.315499,147.95287 41.965911,151.24617 C 36.160182,155.0695 32.43864,161.39289 28.328751,166.84476 C 26.60427,172.09244 20.716003,180.61025 26.636745,184.87124 C 32.228107,188.55981 36.628877,182.34611 39.210457,178.06629 C 43.556851,173.07049 48.194114,168.27585 52.859173,163.55974 C 56.747578,160.67524 62.417732,160.96019 65.589896,156.79322 C 67.453138,155.10635 70.408016,154.2965 72.241363,152.5784 z"
         style="fill:#ff0000;fill-opacity:1;stroke:#000000;stroke-width:3;stroke-miterlimit:4;stroke-dasharray:none;stroke-opacity:1" />
      <path
         sodipodi:nodetypes="cccccccc"
         id="path6814"
         d="M 25.019722,182.17972 C 26.891505,191.65102 29.243552,198.62815 35.786069,206.07503 C 41.498747,210.03606 48.753843,211.13089 55.345127,212.91107 C 60.857349,212.55409 70.956597,214.84096 72.702128,207.75827 C 74.039374,201.19469 66.632734,199.42872 61.698912,198.62949 C 55.442596,196.45977 49.264444,193.94516 43.148801,191.37546 C 39.022265,188.84332 37.172051,183.47596 32.122685,182.08666 C 29.862637,180.98693 27.297594,183.24006 25.019722,182.17972 z"
         style="fill:#ff0000;fill-opacity:1;stroke:#000000;stroke-width:3;stroke-miterlimit:4;stroke-dasharray:none;stroke-opacity:1" />
      <path
         sodipodi:nodetypes="cccccccc"
         id="path6816"
         d="M 72.658381,208.73801 C 79.531442,201.95789 89.302956,194.59682 91.913296,185.03404 C 92.071696,178.08426 88.988336,171.42634 86.842656,164.94482 C 83.507882,160.54125 78.077263,151.00095 71.204731,153.44627 C 64.990354,155.94635 69.372254,162.95256 71.423443,167.51041 C 73.0595,173.92699 74.364652,180.46835 75.5894,186.98789 C 75.749628,191.82674 72.289629,196.32788 73.912036,201.30724 C 74.239388,203.79924 72.288341,206.25283 72.658381,208.73801 z"
         style="fill:#ff0000;fill-opacity:1;stroke:#000000;stroke-width:3;stroke-miterlimit:4;stroke-dasharray:none;stroke-opacity:1" />
      <path
         id="path6818"
         d="M 48.10932,160.60233 C 42.737649,165.0489 37.055347,169.88423 34.755189,176.42967 C 34.378588,181.25383 36.427441,186.00052 37.784439,190.58833 C 40.104451,193.77789 42.466674,200.65286 47.676634,199.21907 C 52.398411,197.72178 50.723021,192.64865 49.364818,189.40148 C 48.384995,184.87852 47.656287,180.28162 46.986655,175.703 C 47.047379,172.33367 49.792043,169.33907 48.768901,165.81553 C 48.617812,164.07085 48.292459,162.34391 48.10932,160.60233 z"
         style="fill:#ff0000;fill-opacity:1;stroke:#000000;stroke-width:3.11754394;stroke-miterlimit:4;stroke-dasharray:none;stroke-opacity:1" />
      <path
         id="path6820"
         d="M 45.038762,198.89114 C 50.99143,202.26617 57.40906,205.78222 64.215005,205.31856 C 68.771028,203.69939 72.409669,199.76245 76.144008,196.56106 C 78.259864,193.00183 83.741168,187.88602 80.60818,183.4286 C 77.587292,179.47021 73.518929,183.17963 71.014631,185.83082 C 67.208164,188.64015 63.246256,191.23662 59.2805,193.76834 C 56.169039,195.0952 52.464737,193.66792 49.590039,196.10818 C 48.042589,196.97206 46.572192,197.99748 45.038762,198.89114 z"
         style="fill:#ff0000;fill-opacity:1;stroke:#000000;stroke-width:3.11754394;stroke-miterlimit:4;stroke-dasharray:none;stroke-opacity:1" />
      <path
         id="path6822"
         d="M 80.910746,184.43475 C 80.091463,177.20331 79.117698,169.47189 74.990046,163.49092 C 71.260746,160.17966 66.330657,158.93401 61.89035,157.2116 C 58.086032,157.1592 51.260826,154.85157 49.712784,160.07619 C 48.470804,164.93422 53.471937,166.69339 56.821946,167.58162 C 61.012958,169.57744 65.133277,171.8281 69.207943,174.11652 C 71.918003,176.26092 72.92463,180.40492 76.324953,181.74361 C 77.823364,182.70218 79.398147,183.50478 80.910746,184.43475 z"
         style="fill:#ff0000;fill-opacity:1;stroke:#000000;stroke-width:3.11754394;stroke-miterlimit:4;stroke-dasharray:none;stroke-opacity:1" />
      <path
         sodipodi:nodetypes="ccccccc"
         id="path6824"
         d="M 47.737411,172.98079 C 46.949093,177.09002 46.584368,181.35184 47.820825,185.40808 C 49.270501,188.24197 49.662851,192.46607 52.912325,193.72541 C 58.565293,194.54635 67.288822,193.01022 73.601928,182.54556 C 72.146942,175.79782 63.326136,169.98895 58.994491,167.73573 C 56.310721,167.33489 50.804012,163.78263 49.599467,167.57741 C 49.232519,168.90355 47.874004,171.46259 47.737411,172.98079 z"
         style="fill:#ff0000;fill-opacity:1;stroke:#000000;stroke-width:3.11754394;stroke-miterlimit:4;stroke-dasharray:none;stroke-opacity:1" />
    </g>
    <g
       id="g3898"
       transform="matrix(-2.0639413,0,0,2.1309519,427.30748,-95.088439)">
      <path
         sodipodi:nodetypes="ccccccc"
         id="path3900"
         d="M 132.41449,100.81458 C 133.88744,101.16511 135.25045,101.92153 136.74182,102.19776 C 145.62175,101.25478 153.1402,96.2767 159.65742,90.476749 C 159.88665,89.704789 157.95021,90.841499 157.41841,91.007683 C 150.32879,92.800646 143.4355,99.02767 136.02955,98.25925 C 134.9014,97.58944 134.11572,97.61554 132.85795,97.37504 C 131.94321,97.6691 132.14845,100.51016 132.41449,100.81458 z"
         style="opacity:1;fill:#8dd35f;fill-opacity:1;stroke:#000000;stroke-width:2;stroke-miterlimit:4;stroke-dasharray:none;stroke-opacity:1" />
      <path
         sodipodi:nodetypes="cccccccccc"
         id="path3902"
         d="M 138.36804,114.24616 C 138.49409,115.60203 137.96486,116.91258 137.16639,117.98382 C 135.81689,119.9767 134.1908,121.76168 132.75365,123.68893 C 131.73256,124.94034 130.86267,126.30869 129.9773,127.65141 C 129.05998,128.64467 129.68224,126.98807 129.79448,126.52663 C 130.26218,124.50043 131.25901,122.66443 132.33631,120.90546 C 133.26423,119.33494 134.32483,115.92196 134.92974,114.19803 C 133.89093,108.79415 130.76721,110.14175 129.48711,105.11103 C 130.644,104.84673 131.84341,105.2155 132.98288,105.44097 C 136.12706,107.40683 137.82252,110.62363 138.36804,114.24616 z"
         style="opacity:1;fill:#8dd35f;fill-opacity:1;stroke:#000000;stroke-width:2;stroke-miterlimit:4;stroke-dasharray:none;stroke-opacity:1" />
      <path
         sodipodi:nodetypes="ccccccc"
         id="path3904"
         d="M 122.39695,123.17579 C 120.70298,125.48555 115.81201,125.21042 113.21415,125.72907 C 110.98896,126.18023 108.71184,126.04821 106.46455,126.25288 C 103.8846,126.62543 100.46684,127.33359 104.80952,127.67036 C 110.90875,128.26196 117.48844,127.86088 123.59753,127.38021 C 127.26767,126.00836 124.60844,114.6377 121.81839,113.42838 C 118.48229,114.28021 123.07302,119.76195 122.39695,123.17579 z"
         style="opacity:1;fill:#8dd35f;fill-opacity:1;stroke:#000000;stroke-width:2;stroke-miterlimit:4;stroke-dasharray:none;stroke-opacity:1" />
      <path
         sodipodi:nodetypes="ccccccccc"
         id="path3906"
         d="M 127.2613,75.720802 C 120.29945,75.861328 113.44794,78.269981 107.9045,82.480721 C 99.468924,87.236422 95.662335,93.20138 93.313573,102.34493 C 92.285349,107.47597 91.617408,112.80472 92.338021,118.01443 C 92.8144,120.56702 95.798666,121.04192 97.969038,120.80295 C 101.85112,120.6838 105.76256,121.28686 109.62803,120.60043 C 126.59387,117.94241 136.71922,105.14448 134.80169,88.138222 C 134.52887,84.514689 133.48476,80.441393 130.11696,78.482024 C 129.05013,77.69725 127.9474,76.881212 127.2613,75.720802 z"
         style="opacity:1;fill:#8dd35f;fill-opacity:1;stroke:#000000;stroke-width:2;stroke-miterlimit:4;stroke-dasharray:none;stroke-opacity:1" />
      <path
         sodipodi:nodetypes="ccccccc"
         id="path3908"
         d="M 130.32228,70.020349 C 132.07821,69.098797 133.92098,68.320649 135.81519,67.73844 C 139.80559,67.754103 145.05324,70.160509 145.54525,74.434799 C 145.11006,77.168566 144.84816,80.159901 142.94796,82.346861 C 141.13606,84.611567 137.09191,87.009656 134.84913,88.81415 C 125.38958,86.309442 126.41061,82.667053 124.13098,77.671041 C 125.59393,75.185522 127.68108,71.78352 130.32228,70.020349 z"
         style="opacity:1;fill:#8dd35f;fill-opacity:1;stroke:#000000;stroke-width:2;stroke-miterlimit:4;stroke-dasharray:none;stroke-opacity:1" />
      <path
         sodipodi:nodetypes="ccccccccc"
         id="path3910"
         d="M 138.10438,69.700418 C 136.79708,68.48976 137.44323,64.327927 135.57441,64.449229 C 132.40062,64.737354 127.90377,67.50082 125.41928,69.562538 C 116.01981,75.33125 110.85921,84.15231 107.61386,94.450077 C 109.22567,92.750434 110.1544,90.52948 111.80012,88.853026 C 115.75139,82.448707 120.68327,76.861631 126.67458,72.22643 C 128.33639,70.993727 131.28799,67.807509 133.40917,67.826242 C 135.14177,67.565433 134.18327,70.426935 135.84643,71.047337 C 136.99814,71.965523 137.8843,71.345407 138.10438,69.700418 z"
         style="opacity:1;fill:#8dd35f;fill-opacity:1;stroke:#000000;stroke-width:2;stroke-miterlimit:4;stroke-dasharray:none;stroke-opacity:1" />
      <path
         sodipodi:nodetypes="ccccccc"
         id="path3912"
         d="M 141.36095,73.895112 C 143.70049,74.661802 146.49896,71.858066 148.44946,73.491851 C 150.13628,74.098263 150.37782,76.043093 149.67313,77.678973 C 144.08086,89.644209 129.74203,98.47003 118.97659,98.41807 C 129.57451,90.643853 141.99698,87.637957 146.11279,77.423355 C 145.43872,76.061135 143.79025,77.259361 142.60875,76.466936 C 141.43516,76.114484 141.15937,74.981754 141.36095,73.895112 z"
         style="opacity:1;fill:#8dd35f;fill-opacity:1;stroke:#000000;stroke-width:2;stroke-miterlimit:4;stroke-dasharray:none;stroke-opacity:1" />
      <path
         sodipodi:nodetypes="ccccccc"
         id="path3914"
         d="M 107.57288,85.987328 C 100.26045,92.085972 95.48648,99.68639 95.737522,109.57162 C 95.474781,111.23192 95.291605,112.90952 95.296143,114.59231 C 94.851357,115.04226 95.157588,116.63286 95.432294,115.25993 C 96.520318,112.1504 98.182229,109.23 98.804397,105.96742 C 100.58251,99.94596 103.63922,94.50601 106.16468,88.775352 C 106.64913,87.854018 107.18849,86.957586 107.57288,85.987328 z"
         style="opacity:1;fill:#ffffff;fill-opacity:0.41279069;stroke:none;stroke-width:2;stroke-miterlimit:4;stroke-dasharray:none;stroke-opacity:1" />
      <path
         id="path3916"
         d="M 133.07985,72.520912 C 132.29481,72.375823 131.60467,72.870192 130.92724,73.181332 C 130.21069,73.520118 129.5782,74.011094 129.03503,74.584985 C 128.56413,75.060094 128.10636,75.571152 127.81668,76.179463 C 127.64486,76.703214 127.68565,77.266984 127.72273,77.80727 C 127.81917,78.214095 128.32176,78.317872 128.62697,78.072703 C 129.50983,77.667556 130.37515,77.178722 131.0527,76.471258 C 131.66252,75.96202 132.41311,75.67082 133.08404,75.260471 C 133.66502,74.728655 133.76708,73.904867 134.13686,73.243547 C 134.30919,72.939273 134.29379,72.368078 133.84059,72.352065 C 133.57565,72.327412 133.32511,72.438183 133.07985,72.520912 z"
         style="opacity:1;fill:#ffffff;fill-opacity:0.41279069;stroke:none;stroke-width:2;stroke-miterlimit:4;stroke-dasharray:none;stroke-opacity:1" />
      <path
         sodipodi:nodetypes="cccc"
         id="path3918"
         d="M 120.6726,113.64353 C 116.16808,116.46644 106.01898,119.5871 102.3907,117.13233 C 113.26421,115.4836 122.47908,109.68965 131.25015,100.08463 C 132.34677,102.41296 123.64925,111.28274 120.6726,113.64353 z"
         style="opacity:1;fill:#000000;fill-opacity:0.41279069;stroke:none;stroke-width:2;stroke-miterlimit:4;stroke-dasharray:none;stroke-opacity:1" />
      <path
         id="path3920"
         d="M 140.6844,80.125473 C 139.72489,81.164362 138.97036,82.371909 138.03159,83.427041 C 137.31961,84.050579 136.35061,84.286409 135.66257,84.942748 C 135.14372,85.305428 134.50476,85.406461 133.89857,85.532525 C 133.62694,85.320799 133.83458,84.969027 133.99517,84.756491 C 134.44983,84.049861 134.76445,83.196795 135.50293,82.724366 C 136.12497,82.280229 136.81355,81.922803 137.36442,81.384983 C 137.95015,80.908864 138.60492,80.527445 139.26029,80.159458 C 139.55364,79.931611 139.96096,79.696924 140.329,79.900379 C 140.456,79.960962 140.57092,80.043106 140.6844,80.125473 z"
         style="opacity:1;fill:#000000;fill-opacity:0.41279069;stroke:none;stroke-width:2;stroke-miterlimit:4;stroke-dasharray:none;stroke-opacity:1" />
    </g>
  </g>
</svg>
