<?xml version="1.0" encoding="UTF-8" standalone="no"?>
<!-- Created with Inkscape (http://www.inkscape.org/) -->
<svg
   xmlns:dc="http://purl.org/dc/elements/1.1/"
   xmlns:cc="http://creativecommons.org/ns#"
   xmlns:rdf="http://www.w3.org/1999/02/22-rdf-syntax-ns#"
   xmlns:svg="http://www.w3.org/2000/svg"
   xmlns="http://www.w3.org/2000/svg"
   xmlns:sodipodi="http://sodipodi.sourceforge.net/DTD/sodipodi-0.dtd"
   xmlns:inkscape="http://www.inkscape.org/namespaces/inkscape"
   width="250"
   height="250"
   id="svg2"
   sodipodi:version="0.32"
   inkscape:version="0.46"
   sodipodi:docname="snail.svg"
   inkscape:output_extension="org.inkscape.output.svg.inkscape"
   inkscape:export-filename="P:\pidgey2\data\images\snail.png"
   inkscape:export-xdpi="92.160004"
   inkscape:export-ydpi="92.160004"
   version="1.0">
  <defs
     id="defs4">
    <inkscape:perspective
       sodipodi:type="inkscape:persp3d"
       inkscape:vp_x="0 : 125 : 1"
       inkscape:vp_y="0 : 1000 : 0"
       inkscape:vp_z="250 : 125 : 1"
       inkscape:persp3d-origin="125 : 83.333333 : 1"
       id="perspective3645" />
  </defs>
  <sodipodi:namedview
     id="base"
     pagecolor="#cb90ff"
     bordercolor="#666666"
     borderopacity="1.0"
     gridtolerance="10000"
     guidetolerance="10"
     objecttolerance="10"
     inkscape:pageopacity="0"
     inkscape:pageshadow="2"
     inkscape:zoom="1.6900001"
     inkscape:cx="86.388797"
     inkscape:cy="55.218704"
     inkscape:document-units="px"
     inkscape:current-layer="layer1"
     showgrid="false"
     inkscape:window-width="1680"
     inkscape:window-height="994"
     inkscape:window-x="0"
     inkscape:window-y="22" />
  <metadata
     id="metadata7">
    <rdf:RDF>
      <cc:Work
         rdf:about="">
        <dc:format>image/svg+xml</dc:format>
        <dc:type
           rdf:resource="http://purl.org/dc/dcmitype/StillImage" />
      </cc:Work>
    </rdf:RDF>
  </metadata>
  <g
     inkscape:label="Layer 1"
     inkscape:groupmode="layer"
     id="layer1">
    <path
       style="opacity:1;fill:none;fill-opacity:1;stroke:#000000;stroke-width:3;stroke-miterlimit:4;stroke-dasharray:none;stroke-opacity:1"
       d="M 216.61773,107.86401 C 217.23523,105.30661 220.62583,100.57694 223.23705,97.86519 C 225.3531,95.667677 230.1601,94.661705 232.26341,94.115634 C 233.82387,93.7105 236.05522,94.115634 237.67922,94.115634"
       id="path3338" />
    <path
       sodipodi:type="arc"
       style="opacity:1;fill:#000000;fill-opacity:1;stroke:none;stroke-width:2.89474073;stroke-miterlimit:4;stroke-dasharray:none;stroke-opacity:1"
       id="path3342"
       sodipodi:cx="244.67455"
       sodipodi:cy="89.053261"
       sodipodi:rx="4.4378695"
       sodipodi:ry="4.1420116"
       d="M 249.11241,89.053261 A 4.4378695,4.1420116 0 1 1 240.23668,89.053261 A 4.4378695,4.1420116 0 1 1 249.11241,89.053261 z"
       transform="matrix(1.0169693,0,0,1.056125,-7.0072116,-0.1732065)" />
    <path
       style="opacity:1;fill:none;fill-opacity:1;stroke:#000000;stroke-width:3;stroke-miterlimit:4;stroke-dasharray:none;stroke-opacity:1"
       d="M 218.00096,125.54857 C 218.61846,128.10596 222.00907,132.83563 224.62028,135.54737 C 226.73633,137.7449 231.54333,138.75087 233.64663,139.29694 C 235.2071,139.70207 237.43845,139.29694 239.06246,139.29694"
       id="path3344" />
    <path
       sodipodi:type="arc"
       style="opacity:1;fill:#000000;fill-opacity:1;stroke:none;stroke-width:2.89474073;stroke-miterlimit:4;stroke-dasharray:none;stroke-opacity:1"
       id="path3346"
       sodipodi:cx="244.67455"
       sodipodi:cy="89.053261"
       sodipodi:rx="4.4378695"
       sodipodi:ry="4.1420116"
       d="M 249.11241,89.053261 A 4.4378695,4.1420116 0 1 1 240.23668,89.053261 A 4.4378695,4.1420116 0 1 1 249.11241,89.053261 z"
       transform="matrix(1.0169693,0,0,-1.056125,-5.6239825,233.58578)" />
    <path
       style="opacity:1;fill:#6c5d53;fill-opacity:1;stroke:#000000;stroke-width:3;stroke-miterlimit:4;stroke-dasharray:none;stroke-opacity:1"
       d="M 207.59136,109.97626 C 203.0232,84.971198 181.64253,101.57694 166.35719,93.701052 C 140.71724,91.437784 111.60307,99.99912 86.102225,95.27865 C 68.832021,95.239006 50.035585,91.361467 34.016937,99.825438 C 22.146608,108.56772 2.5059264,102.36517 3.7603195,122.8961 C 0.77309625,140.3919 18.170616,145.06672 31.146014,144.91102 C 42.333297,153.5794 55.37471,156.66481 69.259329,154.96687 C 84.994397,155.10613 100.29587,159.21235 116.08464,158.27578 C 145.84046,158.67426 178.69024,156.7256 208.28762,150.09192 C 223.76895,144.14149 211.21523,134.59028 209.89522,121.28677 C 209.52091,117.45633 209.27213,113.48551 207.59136,109.97626 z"
       id="path3333"
       sodipodi:nodetypes="ccccccccccc" />
    <path
       style="opacity:1;fill:#483e37;fill-opacity:1;stroke:#000000;stroke-width:3;stroke-miterlimit:4;stroke-dasharray:none;stroke-opacity:1"
       d="M 28.428089,108.16155 C 38.866017,106.73663 49.456205,106.62321 59.96931,105.96239 C 73.881181,105.21077 87.796707,104.60503 101.68214,103.48953 C 113.63213,102.80471 125.56881,101.98473 137.54692,101.86893 C 153.22955,101.5495 168.95151,101.3153 184.62167,101.95603 C 194.64234,104.63642 205.14014,103.94381 215.18045,106.42626 C 224.99094,111.83591 220.59015,132.73757 212.5955,135.18905 C 202.04713,140.95779 190.51895,144.59814 178.60263,145.42837 C 167.44941,146.91596 156.30185,148.43318 145.03386,148.49246 C 136.01187,149.12298 127.09883,151.60603 117.9967,150.24075 C 105.148,148.944 92.222307,149.10426 79.391753,147.52728 C 67.924052,147.10121 56.326847,147.21546 45.176846,143.94368 C 34.896533,142.33697 25.897611,136.49704 16.232643,132.86105 C 1.2551035,119.53775 15.119199,111.68656 28.428089,108.16155 z"
       id="path3325"
       sodipodi:nodetypes="cccccccccccccc" />
    <path
       style="opacity:1;fill:#800080;fill-opacity:1;stroke:#000000;stroke-width:3;stroke-miterlimit:4;stroke-dasharray:none;stroke-opacity:1"
       d="M 84.234463,160.57077 C 103.76951,162.34432 123.39902,160.13721 142.94811,160.74638 C 155.54757,158.33806 171.77853,159.45052 180.64876,148.50209 C 185.16466,137.54312 186.6838,124.79736 184.69446,113.01261 C 182.79173,101.76522 178.42369,87.444547 164.88771,88.290167 C 122.72872,86.315135 58.071954,62.396035 50.515539,117.04948 C 47.192939,137.95228 67.490394,153.87668 84.234463,160.57077 z"
       id="path3328"
       sodipodi:nodetypes="ccccccc" />
    <path
       style="opacity:1;fill:#800080;fill-opacity:1;stroke:#000000;stroke-width:3;stroke-miterlimit:4;stroke-dasharray:none;stroke-opacity:1"
       d="M 88.090195,142.98411 C 100.04929,142.27231 112.00127,141.42698 123.93326,140.39586 C 129.86735,138.46773 188.67455,140.71303 177.65633,151.16674 C 170.25142,153.22721 162.87386,155.46904 155.41528,157.26643 C 147.12088,158.65966 138.8305,160.17549 130.37917,159.75745 C 117.28431,159.47248 104.22226,161.05314 91.126773,160.11932 C 69.887995,161.56027 63.150463,145.0394 88.090195,142.98411 z"
       id="path3348"
       sodipodi:nodetypes="ccccccc" />
    <path
       style="opacity:1;fill:#ab37c8;fill-opacity:1;stroke:none;stroke-width:3;stroke-miterlimit:4;stroke-dasharray:none;stroke-opacity:1"
       d="M 70.556795,93.537417 C 69.298205,100.0824 66.772725,106.56519 67.510951,113.35264 C 66.111502,121.26269 67.45627,130.82536 73.993101,135.92696 C 78.89533,136.30612 73.984642,127.59957 74.206593,124.53952 C 73.700209,117.67194 74.044566,110.73963 73.641447,103.83144 C 74.028916,100.19654 75.234164,94.797158 70.556795,93.537417 z"
       id="path3352" />
    <path
       style="opacity:1;fill:#ab37c8;fill-opacity:1;stroke:none;stroke-width:3;stroke-miterlimit:4;stroke-dasharray:none;stroke-opacity:1"
       d="M 90.414776,89.787862 C 89.156186,96.332842 86.630706,102.81564 87.368932,109.60309 C 85.969483,117.51315 87.314251,127.07581 93.851086,132.17741 C 98.753315,132.55657 93.842625,123.85003 94.064578,120.78998 C 93.558188,113.92239 93.902544,106.99009 93.499428,100.08188 C 93.886893,96.446982 95.092144,91.047602 90.414776,89.787862 z"
       id="path3361" />
    <path
       style="opacity:1;fill:#ab37c8;fill-opacity:1;stroke:none;stroke-width:3;stroke-miterlimit:4;stroke-dasharray:none;stroke-opacity:1"
       d="M 112.07802,88.53801 C 110.81943,95.08299 108.29397,101.56579 109.03218,108.35324 C 107.63275,116.2633 108.9775,125.82596 115.51434,130.92756 C 120.41657,131.30672 115.50588,122.60018 115.72783,119.54013 C 115.22145,112.67254 115.56581,105.74023 115.16268,98.832033 C 115.55016,95.197129 116.75541,89.79775 112.07802,88.53801 z"
       id="path3363" />
    <path
       style="opacity:1;fill:#ab37c8;fill-opacity:1;stroke:none;stroke-width:3;stroke-miterlimit:4;stroke-dasharray:none;stroke-opacity:1"
       d="M 134.34304,91.037714 C 133.08446,97.582694 130.55898,104.06549 131.2972,110.85294 C 129.89775,118.76299 131.24253,128.32566 137.77936,133.42726 C 142.68158,133.80642 137.7709,125.09988 137.99285,122.03983 C 137.48646,115.17224 137.83082,108.23993 137.4277,101.33173 C 137.81517,97.696834 139.02042,92.297454 134.34304,91.037714 z"
       id="path3365" />
    <path
       style="opacity:1;fill:#ab37c8;fill-opacity:1;stroke:none;stroke-width:3;stroke-miterlimit:4;stroke-dasharray:none;stroke-opacity:1"
       d="M 153.59927,93.537418 C 152.34068,100.0824 149.8152,106.56519 150.55342,113.35264 C 149.15398,121.26269 150.49875,130.82536 157.03558,135.92696 C 161.93781,136.30612 157.02712,127.59957 157.24907,124.53952 C 156.74268,117.67194 157.08704,110.73963 156.68392,103.83144 C 157.07139,100.19654 158.27664,94.797158 153.59927,93.537418 z"
       id="path3367" />
    <path
       style="opacity:1;fill:#ab37c8;fill-opacity:1;stroke:none;stroke-width:3;stroke-miterlimit:4;stroke-dasharray:none;stroke-opacity:1"
       d="M 171.05021,95.412197 C 169.79163,101.95718 167.26615,108.43998 168.00437,115.22741 C 166.60493,123.13748 167.9497,132.70014 174.48653,137.80174 C 179.38876,138.1809 174.47807,129.47435 174.70002,126.4143 C 174.19364,119.54671 174.53799,112.61442 174.13487,105.70623 C 174.52234,102.07132 175.72759,96.671937 171.05021,95.412197 z"
       id="path3369" />
    <path
       style="opacity:1;fill:none;fill-opacity:1;stroke:#000000;stroke-width:3;stroke-miterlimit:4;stroke-dasharray:none;stroke-opacity:1"
       d="M 96.868078,160.98272 C 96.581445,151.95401 110.55644,153.83607 117.58198,152.81995 C 119.94686,152.62602 157.01997,148.73493 145.57252,157.65981"
       id="path3371"
       sodipodi:nodetypes="ccc" />
    <path
       style="opacity:1;fill:#ffffff;fill-opacity:0.25000000000000000;stroke:none;stroke-width:3;stroke-miterlimit:4;stroke-dasharray:none;stroke-opacity:1"
       d="M 55.948604,111.61356 C 57.575458,98.736507 70.706233,92.663157 81.825809,91.620737 C 108.02604,87.450275 147.39281,85.234169 168.56741,102.89455 C 174.12688,105.66555 179.01639,116.04086 169.04846,115.20335 C 109.33089,89.338548 90.077911,106.31901 55.948604,111.61356 z"
       id="path3377"
       sodipodi:nodetypes="ccccc" />
    <path
       style="opacity:1;fill:#ffffff;fill-opacity:0.25000000000000000;stroke:none;stroke-width:3;stroke-miterlimit:4;stroke-dasharray:none;stroke-opacity:1"
       d="M 48.125765,112.86342 C 39.390526,111.27938 30.080356,112.20482 22.263564,116.76533 C 18.419623,117.24829 13.930895,121.42784 20.242338,121.87968 C 26.586566,122.84613 32.804572,120.38731 39.124536,120.13582 C 43.602214,119.87884 46.469978,116.99375 48.125765,112.86342 z"
       id="path3382" />
    <path
       style="opacity:1;fill:#ffffff;fill-opacity:0.25000000000000000;stroke:none;stroke-width:3;stroke-miterlimit:4;stroke-dasharray:none;stroke-opacity:1"
       d="M 213.00717,111.61356 C 207.37706,110.49047 201.58542,110.52642 195.99941,109.10452 C 193.40791,108.64337 188.52175,107.19091 188.06294,111.21373 C 187.63381,114.61365 190.84289,116.92215 193.86195,116.58656 C 199.67564,116.44367 205.53806,117.03376 211.316,116.17152 C 213.24277,115.98043 216.81072,115.23889 214.2244,112.75082 C 213.84379,112.34362 213.41699,111.98767 213.00717,111.61356 z"
       id="path3391" />
    <path
       style="opacity:1;fill:#000000;fill-opacity:0.25000000000000000;stroke:none;stroke-width:3;stroke-miterlimit:4;stroke-dasharray:none;stroke-opacity:1"
       d="M 164.26487,148.4842 C 150.16543,141.73908 134.32551,145.51734 119.4573,143.28882 C 110.84428,144.96195 101.19236,144.82451 93.435085,149.00422 C 88.453543,158.48528 101.69601,156.95158 107.16653,157.5152 C 116.64636,157.18534 126.11194,157.64174 135.5817,157.67595 C 144.71108,156.93943 154.51015,156.43751 162.4888,151.33888 L 163.56537,150.07682 L 164.26487,148.4842 L 164.26487,148.4842 z"
       id="path3398" />
    <path
       style="opacity:1;fill:#000000;fill-opacity:0.25000000000000000;stroke:none;stroke-width:3;stroke-miterlimit:4;stroke-dasharray:none;stroke-opacity:1"
       d="M 48.727522,137.86047 C 46.171992,135.41741 43.047437,133.73157 39.980172,132.09707 C 37.05294,130.84233 33.949867,130.04901 30.84869,129.42213 C 28.919235,129.15273 26.935782,129.26924 25.056535,129.80428 C 23.859232,131.2949 26.080649,132.66499 26.886363,133.73343 C 29.126257,136.05692 31.913442,137.75885 34.94237,138.70354 C 36.928892,139.60501 38.969935,140.52735 41.18743,140.44121 C 42.855774,140.45491 44.541297,140.42181 46.196002,140.25935 C 47.336865,139.85921 47.818148,138.57796 48.727522,137.86047 z"
       id="path3405" />
    <path
       style="opacity:1;fill:#000000;fill-opacity:0.25000000000000000;stroke:none;stroke-width:3;stroke-miterlimit:4;stroke-dasharray:none;stroke-opacity:1"
       d="M 214.21071,125.36194 C 207.17705,126.94575 198.53773,126.21872 193.54427,132.62415 C 190.42832,134.96459 189.97004,141.349 195.21873,139.81846 C 199.921,138.92755 202.79193,134.37156 207.21958,132.83767 C 209.3737,130.25766 215.79273,130.19579 214.21071,125.36194 z"
       id="path3410" />
  </g>
</svg>
