<?xml version="1.0" encoding="UTF-8" standalone="no"?>
<!-- Created with Inkscape (http://www.inkscape.org/) -->
<svg
   xmlns:dc="http://purl.org/dc/elements/1.1/"
   xmlns:cc="http://creativecommons.org/ns#"
   xmlns:rdf="http://www.w3.org/1999/02/22-rdf-syntax-ns#"
   xmlns:svg="http://www.w3.org/2000/svg"
   xmlns="http://www.w3.org/2000/svg"
   xmlns:sodipodi="http://sodipodi.sourceforge.net/DTD/sodipodi-0.dtd"
   xmlns:inkscape="http://www.inkscape.org/namespaces/inkscape"
   width="250"
   height="250"
   id="svg2"
   sodipodi:version="0.32"
   inkscape:version="0.46"
   sodipodi:docname="stagbeetle.svg"
   inkscape:output_extension="org.inkscape.output.svg.inkscape"
   inkscape:export-filename="P:\pidgey2\data\images\stagbeetle.png"
   inkscape:export-xdpi="92.160004"
   inkscape:export-ydpi="92.160004"
   version="1.0">
  <defs
     id="defs4">
    <inkscape:perspective
       sodipodi:type="inkscape:persp3d"
       inkscape:vp_x="0 : 125 : 1"
       inkscape:vp_y="0 : 1000 : 0"
       inkscape:vp_z="250 : 125 : 1"
       inkscape:persp3d-origin="125 : 83.333333 : 1"
       id="perspective12" />
  </defs>
  <sodipodi:namedview
     id="base"
     pagecolor="#cb90ff"
     bordercolor="#666666"
     borderopacity="1.0"
     gridtolerance="10000"
     guidetolerance="10"
     objecttolerance="10"
     inkscape:pageopacity="0"
     inkscape:pageshadow="2"
     inkscape:zoom="1.69"
     inkscape:cx="124.04195"
     inkscape:cy="101.33136"
     inkscape:document-units="px"
     inkscape:current-layer="layer1"
     showgrid="false"
     inkscape:window-width="1680"
     inkscape:window-height="994"
     inkscape:window-x="0"
     inkscape:window-y="22" />
  <metadata
     id="metadata7">
    <rdf:RDF>
      <cc:Work
         rdf:about="">
        <dc:format>image/svg+xml</dc:format>
        <dc:type
           rdf:resource="http://purl.org/dc/dcmitype/StillImage" />
      </cc:Work>
    </rdf:RDF>
  </metadata>
  <g
     inkscape:label="Layer 1"
     inkscape:groupmode="layer"
     id="layer1">
    <path
       style="fill:#483e37;fill-rule:evenodd;stroke:#000000;stroke-width:3;stroke-linecap:butt;stroke-linejoin:miter;stroke-miterlimit:4;stroke-dasharray:none;stroke-opacity:1"
       d="M 164.66055,92.71331 C 216.82177,70.28001 218.45912,77.142426 244.01902,115.30067 C 238.66122,108.02767 213.36599,110.22675 216.89362,117.02864 C 214.09397,112.78698 216.98637,91.902773 212.69471,88.678844 C 208.86597,85.764005 175.44569,84.61201 194.86489,103.37932 C 174.68194,93.505367 171.54475,107.94809 171.84026,118.33143 C 172.65142,146.83241 174.06043,134.51801 194.59779,143.78044 C 176.08005,154.72229 196.68592,163.02967 204.54751,156.03141 C 209.95246,149.91245 211.01416,141.12258 213.90682,137.15268 C 208.96194,150.81488 240.99013,138.51181 245.00139,133.33641 C 242.28996,139.60024 211.79852,165.61986 204.78339,167.05597 C 189.28902,170.35024 182.82046,153.93355 166.48278,150.64176 C 163.03466,153.46325 154.61903,157.86578 150.22146,157.71015 C 143.44276,156.73851 136.0678,151.31132 131.56657,146.04543 C 127.57569,141.7472 124.50505,134.62733 121.53795,129.59754 C 112.55296,122.5798 116.52403,114.00075 122.58555,108.01068 C 128.37807,98.237369 132.89019,94.388614 142.49777,87.744748 C 147.58277,84.157221 154.76715,84.59183 159.46363,88.635283 C 161.28137,89.880477 163.0274,91.233407 164.66055,92.71331 z"
       id="path2426"
       sodipodi:nodetypes="cccccsccccccccccccc" />
    <path
       style="fill:#000000;fill-rule:evenodd;stroke:none;stroke-width:3;stroke-linecap:butt;stroke-linejoin:miter;stroke-miterlimit:4;stroke-dasharray:none;stroke-opacity:1"
       d="M 126.51038,81.272099 C 128.91983,74.571166 134.28315,69.617888 138.38384,63.969673 C 140.85147,60.927838 143.34246,57.905043 145.81071,54.863712 C 149.39221,53.598866 152.09968,57.025537 155.03156,58.406721 C 160.23173,61.638953 163.93912,64.702696 169.72868,66.80196 C 169.43709,68.689721 174.73381,75.489753 175.60787,78.930289 C 179.23105,80.296911 175.45398,72.52625 176.57412,70.440265 C 178.77838,67.033296 184.87796,70.663343 188.08787,69.132222 C 190.64637,63.625975 173.53411,63.138757 169.67315,61.19441 C 161.54185,55.870445 153.13404,51.030674 145.05075,45.666389 C 141.99312,43.235339 140.58313,46.992917 138.67624,48.69177 C 131.95232,56.596706 124.79928,66.890348 117.0547,74.000461 C 115.98699,78.486846 123.10854,79.425621 126.51038,81.272099 z"
       id="path4874"
       sodipodi:nodetypes="ccccccccccccc" />
    <path
       style="fill:#000000;fill-rule:evenodd;stroke:none;stroke-width:3;stroke-linecap:butt;stroke-linejoin:miter;stroke-miterlimit:4;stroke-dasharray:none;stroke-opacity:1"
       d="M 121.56549,156.19045 C 123.60842,163.01206 128.69555,168.24859 132.48426,174.11065 C 134.78349,177.28168 137.10708,180.43497 139.40696,183.60554 C 142.91469,185.06254 145.80381,181.78757 148.8062,180.56723 C 154.17383,177.62143 158.04174,174.76301 163.93651,172.98045 C 163.74761,171.07966 169.4049,164.57653 170.46404,161.18839 C 174.15594,160.02004 169.96349,167.57469 170.96898,169.71829 C 172.98545,173.23966 179.27271,169.94535 182.39497,171.64811 C 184.65144,177.28486 167.53792,176.84441 163.5773,178.57675 C 155.16954,183.45244 146.51191,187.82966 138.14991,192.7482 C 134.96508,195.01005 133.76071,191.18161 131.94864,189.38195 C 125.6628,181.1244 119.07785,170.4584 111.72979,162.9392 C 110.90668,158.40157 118.06862,157.84994 121.56549,156.19045 z"
       id="path4881"
       sodipodi:nodetypes="ccccccccccccc" />
    <path
       style="fill:#000000;fill-rule:evenodd;stroke:none;stroke-width:3;stroke-linecap:butt;stroke-linejoin:miter;stroke-miterlimit:4;stroke-dasharray:none;stroke-opacity:1"
       d="M 88.127736,74.265612 C 88.323332,68.109595 88.484419,61.941661 88.58111,55.782301 C 88.098179,51.563487 86.145265,46.825175 81.892633,45.200873 C 77.005566,43.696254 71.699388,43.565228 66.811857,45.150674 C 61.667705,46.287182 56.681027,48.158294 51.387286,48.556069 C 47.725915,49.126195 44.043843,49.685352 40.328225,49.299798 C 36.953388,49.22889 36.331557,47.121168 32.969503,46.912623 C 30.637808,46.49406 25.686495,46.550734 23.347322,46.532438 C 25.711121,49.219254 34.943705,49.902255 36.307388,53.305449 C 38.126165,54.666249 28.465457,61.352872 31.9646,59.874787 C 35.606282,61.965433 42.106471,55.358086 47.468977,53.639403 C 58.730736,52.976008 64.748472,53.017826 76.286678,50.39848 C 78.614001,50.668331 78.422793,56.857672 79.056552,59.517378 C 80.015089,63.801845 79.640526,68.213255 79.886838,72.562414 C 80.200757,75.093409 84.005259,74.349148 85.967758,74.550703 C 86.691704,74.489434 87.411846,74.388396 88.127736,74.265612 z"
       id="path4887"
       sodipodi:nodetypes="cccccccccccccccc" />
    <path
       style="fill:#000000;fill-rule:evenodd;stroke:none;stroke-width:3;stroke-linecap:butt;stroke-linejoin:miter;stroke-miterlimit:4;stroke-dasharray:none;stroke-opacity:1"
       d="M 109.34087,81.990375 C 113.60841,67.707874 117.92744,53.030446 123.63027,39.107653 C 124.82736,34.882969 121.5343,31.08449 117.39172,30.715017 C 95.0897,26.205497 98.00601,26.411095 82.514811,23.888876 C 77.740313,23.644385 67.104324,18.973499 62.932236,16.578392 C 58.837787,17.086822 64.845998,20.049972 66.364926,20.839058 C 69.112378,22.263913 72.106609,23.7158 73.762914,26.467388 C 73.803427,30.512914 66.178364,33.224322 63.524634,35.026727 C 62.889518,36.578427 79.508823,30.441652 80.928097,30.884444 C 91.789846,31.00766 99.466822,31.696804 108.13218,35.373013 C 112.00586,36.027575 115.94669,39.460074 113.61641,43.632038 C 109.10404,52.175013 94.040037,67.236844 101.3469,77.755213 C 103.46951,79.849819 108.60465,78.729862 109.34087,81.990375 z"
       id="path4889"
       sodipodi:nodetypes="cccccsccccccc" />
    <path
       style="fill:#000000;fill-rule:evenodd;stroke:none;stroke-width:3;stroke-linecap:butt;stroke-linejoin:miter;stroke-miterlimit:4;stroke-dasharray:none;stroke-opacity:1"
       d="M 79.662685,164.78528 C 79.524528,170.94285 79.351266,177.11046 79.114166,183.26602 C 78.403415,187.45248 76.196697,192.07804 71.862322,193.4696 C 66.900926,194.70727 61.595442,194.55068 56.800969,192.7028 C 51.725934,191.28931 46.847934,189.15083 41.583513,188.46688 C 37.9584,187.69926 34.312024,186.94146 30.580976,187.12518 C 27.207252,187.01317 26.472161,189.08411 23.103747,189.11023 C 20.752802,189.40187 15.811828,189.07707 13.475098,188.96863 C 15.98097,186.4138 25.236997,186.23193 26.783025,182.9076 C 28.672846,181.64732 19.388531,174.4472 22.80247,176.11266 C 26.552054,174.22235 32.684784,181.17211 37.946317,183.17875 C 49.155605,184.45122 55.166771,184.73543 66.546149,187.97595 C 68.884672,187.83257 69.029017,181.64196 69.80592,179.02048 C 70.995135,174.79422 70.860085,170.369 71.341626,166.03958 C 71.792186,163.5293 75.550787,164.47855 77.521322,164.38361 C 78.240887,164.484 78.954498,164.6239 79.662685,164.78528 z"
       id="path4898"
       sodipodi:nodetypes="cccccccccccccccc" />
    <path
       style="fill:#000000;fill-rule:evenodd;stroke:none;stroke-width:3;stroke-linecap:butt;stroke-linejoin:miter;stroke-miterlimit:4;stroke-dasharray:none;stroke-opacity:1"
       d="M 102.86005,156.48845 C 106.34765,170.98116 109.86527,185.87099 114.80554,200.08226 C 115.77203,204.36559 112.27805,207.9801 108.12153,208.12464 C 85.607975,211.41945 88.53114,211.37213 72.92606,213.0515 C 68.145327,213.03699 57.271936,217.12488 52.976233,219.29047 C 48.915337,218.56099 55.075238,215.92766 56.63468,215.22201 C 59.455282,213.94807 62.523764,212.66051 64.326689,210.00268 C 64.586286,205.9653 57.119292,202.84483 54.567094,200.90131 C 54.016965,199.31748 70.279444,206.34551 71.720619,205.98025 C 82.573096,206.44559 90.276131,206.17331 99.127901,202.9719 C 103.03135,202.52813 107.15233,199.31414 105.05146,195.02208 C 101.00849,186.24721 86.782492,170.39149 94.648398,160.28437 C 96.881351,158.30782 101.94828,159.7043 102.86005,156.48845 z"
       id="path4900"
       sodipodi:nodetypes="cccccsccccccc" />
    <path
       style="opacity:1;fill:#483e37;fill-opacity:1;stroke:#000000;stroke-width:3;stroke-miterlimit:4;stroke-dasharray:none;stroke-opacity:1"
       d="M 127.24299,75.649096 C 99.281808,72.716778 60.805077,68.371141 34.721748,74.792539 C 3.3558476,93.180504 -0.15687743,134.00231 22.118774,159.32124 C 52.248635,176.07979 93.725472,166.76368 128.29579,165.51139 C 140.87368,135.66576 138.26989,99.840442 127.24299,75.649096 z"
       id="path3165"
       sodipodi:nodetypes="ccccc" />
    <path
       style="opacity:1;fill:#000000;fill-opacity:0.23255813000000000;stroke:none;stroke-width:3;stroke-miterlimit:4;stroke-dasharray:none;stroke-opacity:1"
       d="M 123.66864,81.516424 C 97.979677,77.318833 68.456943,75.677947 40.102503,78.932273 C 26.996217,83.033479 11.403849,105.56666 14.792899,118.05083 C 56.572078,118.28123 89.503124,116.77762 125.01382,117.24023 C 132.01317,108.92141 127.79654,90.880635 123.66864,81.516424 z"
       id="path3168"
       sodipodi:nodetypes="ccccc" />
    <path
       style="opacity:1;fill:#ffffff;fill-opacity:0.23837209;stroke:none;stroke-width:3;stroke-miterlimit:4;stroke-dasharray:none;stroke-opacity:1"
       d="M 166.11834,101.89613 C 161.60789,94.488532 152.05675,88.009468 143.28586,92.549728 C 141.11244,94.790132 139.36456,99.948462 143.09348,101.59099 C 149.39041,104.01066 156.4212,104.19858 163.02321,103.13771 C 164.10374,102.86425 165.15521,102.4602 166.11834,101.89613 z"
       id="path3173"
       sodipodi:nodetypes="ccccc" />
    <path
       style="opacity:1;fill:#000000;fill-opacity:0.44186047;stroke:none;stroke-width:3;stroke-miterlimit:4;stroke-dasharray:none;stroke-opacity:1"
       d="M 166.74166,141.43064 C 162.23121,148.83825 152.68007,155.31731 143.90918,150.77705 C 141.73576,148.53665 139.98788,143.37831 143.7168,141.73578 C 150.01373,139.31611 157.04452,139.12819 163.64653,140.18906 C 164.72706,140.46252 165.77853,140.86657 166.74166,141.43064 z"
       id="path3181"
       sodipodi:nodetypes="ccccc" />
    <path
       style="opacity:1;fill:#000000;fill-opacity:0.23255813;stroke:none;stroke-width:3;stroke-miterlimit:4;stroke-dasharray:none;stroke-opacity:1"
       d="M 123.13536,156.6594 C 97.446394,160.85699 67.92366,162.49787 39.56922,159.24355 C 26.462934,155.14234 10.870566,132.60916 14.259616,120.12499 C 56.038795,119.89459 88.969841,121.3982 124.48054,120.93559 C 131.47989,129.25441 127.26326,147.29519 123.13536,156.6594 z"
       id="path3161"
       sodipodi:nodetypes="ccccc" />
    <path
       style="opacity:1;fill:#ffffff;fill-opacity:0.19186048;stroke:none;stroke-width:3;stroke-miterlimit:4;stroke-dasharray:none;stroke-opacity:1"
       d="M 120.41421,78.106512 C 103.232,77.713617 86.047879,77.464368 68.860947,77.387569 C 58.932013,77.152119 48.859175,76.16088 39.00245,77.575504 C 32.586379,79.807033 28.042885,85.382621 24.757377,91.061224 C 22.940357,93.489558 15.129464,102.77778 22.710734,100.56528 C 28.97835,99.302698 32.502222,93.72193 35.952493,88.961456 C 40.174901,84.545885 46.658911,85.991346 52.108548,85.320748 C 65.423338,84.757777 78.71088,86.096107 92.028647,85.885668 C 101.06057,86.097558 110.12484,87.043953 119.14493,86.509066 C 124.2517,85.282052 127.98171,79.467379 120.41421,78.106512 z"
       id="path3163" />
    <path
       style="opacity:1;fill:#000000;fill-opacity:0.48255813;stroke:none;stroke-width:3;stroke-miterlimit:4;stroke-dasharray:none;stroke-opacity:1"
       d="M 32.544379,155.32544 C 52.237273,152.96663 118.28377,165.61645 125.60432,145.85862 C 128.18434,144.38117 126.70124,157.24826 122.77999,159.41094 C 115.52841,161.84238 107.17742,159.40981 99.502842,160.66161 C 83.388177,160.95035 67.269798,160.41473 51.156958,160.93944 C 45.675852,159.86633 33.607093,162.99548 32.544379,155.32544 z"
       id="path3167"
       sodipodi:nodetypes="cccccc" />
  </g>
</svg>
