<?xml version="1.0" encoding="UTF-8" standalone="no"?>
<!-- Created with Inkscape (http://www.inkscape.org/) -->
<svg
   xmlns:dc="http://purl.org/dc/elements/1.1/"
   xmlns:cc="http://creativecommons.org/ns#"
   xmlns:rdf="http://www.w3.org/1999/02/22-rdf-syntax-ns#"
   xmlns:svg="http://www.w3.org/2000/svg"
   xmlns="http://www.w3.org/2000/svg"
   xmlns:sodipodi="http://sodipodi.sourceforge.net/DTD/sodipodi-0.dtd"
   xmlns:inkscape="http://www.inkscape.org/namespaces/inkscape"
   width="250"
   height="250"
   id="svg2"
   sodipodi:version="0.32"
   inkscape:version="0.46"
   sodipodi:docname="sunflower.svg"
   inkscape:output_extension="org.inkscape.output.svg.inkscape"
   inkscape:export-filename="P:\pidgey2\data\images\sunflower.png"
   inkscape:export-xdpi="92.160004"
   inkscape:export-ydpi="92.160004"
   version="1.0">
  <defs
     id="defs4">
    <inkscape:perspective
       sodipodi:type="inkscape:persp3d"
       inkscape:vp_x="0 : 125 : 1"
       inkscape:vp_y="0 : 1000 : 0"
       inkscape:vp_z="250 : 125 : 1"
       inkscape:persp3d-origin="125 : 83.333333 : 1"
       id="perspective3645" />
  </defs>
  <sodipodi:namedview
     id="base"
     pagecolor="#cb90ff"
     bordercolor="#666666"
     borderopacity="1.0"
     gridtolerance="10000"
     guidetolerance="10"
     objecttolerance="10"
     inkscape:pageopacity="0"
     inkscape:pageshadow="2"
     inkscape:zoom="2.390021"
     inkscape:cx="122.56517"
     inkscape:cy="143.07527"
     inkscape:document-units="px"
     inkscape:current-layer="layer1"
     showgrid="false"
     inkscape:window-width="1680"
     inkscape:window-height="994"
     inkscape:window-x="0"
     inkscape:window-y="22" />
  <metadata
     id="metadata7">
    <rdf:RDF>
      <cc:Work
         rdf:about="">
        <dc:format>image/svg+xml</dc:format>
        <dc:type
           rdf:resource="http://purl.org/dc/dcmitype/StillImage" />
      </cc:Work>
    </rdf:RDF>
  </metadata>
  <g
     inkscape:label="Layer 1"
     inkscape:groupmode="layer"
     id="layer1">
    <path
       style="opacity:1;fill:#008000;fill-opacity:1;stroke:#000000;stroke-width:2.34;stroke-miterlimit:4;stroke-dasharray:none;stroke-opacity:1"
       d="M 141.16371,112.71855 C 155.13514,116.36345 169.86027,119.82756 184.08891,115.30561 C 202.2872,111.08426 217.36144,98.214258 226.48266,82.186945 C 232.03267,72.777048 242.8178,63.204972 245.85353,54.437793 C 228.96285,40.34987 204.88326,42.035842 184.64988,46.095819 C 171.30758,49.429981 156.72971,52.553919 147.23109,63.355452 C 136.55508,73.385331 129.76177,87.164784 127.36595,101.40419 C 128.58709,108.42025 137.28386,112.39934 143.79863,111.24867"
       id="path3321" />
    <path
       style="opacity:1;fill:#008000;fill-opacity:1;stroke:#000000;stroke-width:2.34;stroke-miterlimit:4;stroke-dasharray:none;stroke-opacity:1"
       d="M 82.007645,117.36518 C 69.088292,120.52144 55.382888,123.11706 45.285138,132.52192 C 26.191226,147.14901 21.040134,172.00927 17.910959,194.49196 C 17.872397,204.02068 7.9059303,220.35115 24.285813,219.18411 C 40.584942,219.81983 56.553,212.11542 68.378959,201.26598 C 77.323652,191.93585 89.989902,185.04905 95.877237,172.67345 C 102.03275,158.22642 105.4381,141.63103 100.5409,126.29215"
       id="path3319" />
    <path
       style="opacity:1;fill:#ffcc00;fill-opacity:1;stroke:#000000;stroke-width:2.34;stroke-miterlimit:4;stroke-dasharray:none;stroke-opacity:1"
       d="M 120.71476,120.10779 C 142.90649,127.85765 167.48281,116.65333 181.03783,98.558139 C 188.6893,88.564469 195.51918,77.719583 201.18006,66.559758 C 198.22535,55.61689 181.76102,67.764961 173.41322,67.01014 C 152.30213,72.771888 133.89873,88.019471 123.54645,107.18961 C 121.6631,111.20833 120.44158,115.63779 120.71476,120.10779 z"
       id="path3292" />
    <path
       style="opacity:1;fill:#ffcc00;fill-opacity:1;stroke:#000000;stroke-width:2.34;stroke-miterlimit:4;stroke-dasharray:none;stroke-opacity:1"
       d="M 110.15036,112.84711 C 124.44483,94.186957 121.47862,67.340476 108.52346,48.81108 C 101.42017,38.420622 93.251602,28.544731 84.418675,19.680943 C 73.100421,19.069344 79.497259,38.504637 76.17245,46.198868 C 75.050961,68.053349 83.78646,90.298902 98.763275,106.12164 C 101.99253,109.16614 105.81872,111.71025 110.15036,112.84711 z"
       id="path3294" />
    <path
       style="opacity:1;fill:#ffcc00;fill-opacity:1;stroke:#000000;stroke-width:2.34;stroke-miterlimit:4;stroke-dasharray:none;stroke-opacity:1"
       d="M 111.93838,112.70642 C 92.598709,99.345639 65.930299,103.62677 48.059519,117.47632 C 38.03046,125.08133 28.567665,133.72507 20.148375,142.98265 C 20.093384,154.31728 39.191055,146.97365 47.039288,149.91657 C 68.922474,149.96338 90.712178,140.14591 105.78027,124.41007 C 108.6625,121.03518 111.01563,117.08867 111.93838,112.70642 z"
       id="path3296" />
    <path
       style="opacity:1;fill:#ffcc00;fill-opacity:1;stroke:#000000;stroke-width:2.34;stroke-miterlimit:4;stroke-dasharray:none;stroke-opacity:1"
       d="M 113.39724,113.51228 C 101.65427,133.87488 108.09096,160.10656 123.34858,176.79128 C 131.74436,186.16833 141.12935,194.8965 151.04124,202.53467 C 162.34277,201.66729 153.46969,183.23041 155.76431,175.16876 C 154.03052,153.3543 142.47274,132.43561 125.56312,118.69775 C 121.96492,116.09966 117.84003,114.07542 113.39724,113.51228 z"
       id="path3298" />
    <path
       style="opacity:1;fill:#ffcc00;fill-opacity:1;stroke:#000000;stroke-width:2.34;stroke-miterlimit:4;stroke-dasharray:none;stroke-opacity:1"
       d="M 119.96151,118.74468 C 141.45198,109.22141 151.7191,84.239035 149.23273,61.766992 C 147.98011,49.243045 145.54593,36.659983 142.04352,24.646641 C 132.40387,18.68392 128.70039,38.806892 122.09393,43.965398 C 110.63265,62.607157 107.63432,86.317567 113.19246,107.38344 C 114.5669,111.6034 116.7051,115.67037 119.96151,118.74468 z"
       id="path3284" />
    <path
       style="opacity:1;fill:#ffcc00;fill-opacity:1;stroke:#000000;stroke-width:2.34;stroke-miterlimit:4;stroke-dasharray:none;stroke-opacity:1"
       d="M 116.17866,120.3678 C 113.84537,96.977865 93.3206,79.420359 71.196478,74.762266 C 58.907996,72.039847 46.194249,70.421395 33.688006,69.995698 C 25.012372,77.290235 42.97136,87.094562 45.807912,94.981865 C 59.936341,111.69305 81.523507,121.94818 103.27142,123.24896 C 107.70955,123.26157 112.24095,122.50087 116.17866,120.3678 z"
       id="path3286" />
    <path
       style="opacity:1;fill:#ffcc00;fill-opacity:1;stroke:#000000;stroke-width:2.34;stroke-miterlimit:4;stroke-dasharray:none;stroke-opacity:1"
       d="M 117.3869,119.0423 C 94.139783,122.5215 77.61149,143.8838 74.04558,166.20999 C 71.929961,178.61734 70.937867,191.39523 71.126886,203.90729 C 78.838698,212.21419 87.749193,193.79538 95.487667,190.57488 C 111.4848,175.64278 120.66738,153.57801 120.89849,131.79246 C 120.69312,127.35907 119.71078,122.87051 117.3869,119.0423 z"
       id="path3288" />
    <path
       style="opacity:1;fill:#ffcc00;fill-opacity:1;stroke:#000000;stroke-width:2.34;stroke-miterlimit:4;stroke-dasharray:none;stroke-opacity:1"
       d="M 119.00237,118.63249 C 124.36146,141.51946 146.99768,156.2549 169.53998,157.9925 C 182.07834,159.09163 194.89458,159.04081 207.34978,157.83441 C 215.00171,149.47231 195.91898,142.08994 192.07956,134.63914 C 175.89541,119.90993 153.15668,112.553 131.42454,114.09517 C 127.02256,114.66057 122.6288,116.00484 119.00237,118.63249 z"
       id="path3290" />
    <path
       style="opacity:1;fill:#ffcc00;fill-opacity:1;stroke:#000000;stroke-width:2.34;stroke-miterlimit:4;stroke-dasharray:none;stroke-opacity:1"
       d="M 117.10898,118.44792 C 97.203146,105.94629 90.618083,79.751456 96.295799,57.866797 C 99.328365,45.651158 103.53879,33.546159 108.72489,22.157933 C 119.11883,17.636565 119.90349,38.082455 125.70345,44.133567 C 134.37805,64.224045 133.95127,88.119474 125.43472,108.17271 C 123.47033,112.15245 120.77195,115.87144 117.10898,118.44792 z"
       id="path3260" />
    <path
       style="opacity:1;fill:#ffcc00;fill-opacity:1;stroke:#000000;stroke-width:2.34;stroke-miterlimit:4;stroke-dasharray:none;stroke-opacity:1"
       d="M 117.08455,118.35663 C 98.251109,132.422 93.798805,159.06237 101.22195,180.4182 C 105.22924,192.34967 110.40163,204.07593 116.48876,215.0091 C 127.21331,218.678 126.34747,198.23539 131.64083,191.73648 C 138.66791,171.01219 136.31653,147.2289 126.21138,127.92735 C 123.93262,124.11889 120.94327,120.62949 117.08455,118.35663 z"
       id="path3268" />
    <path
       style="opacity:1;fill:#ffcc00;fill-opacity:1;stroke:#000000;stroke-width:2.34;stroke-miterlimit:4;stroke-dasharray:none;stroke-opacity:1"
       d="M 116.4576,118.03866 C 102.99312,98.771047 76.506399,93.480862 54.927106,100.22689 C 42.875203,103.85593 30.991673,108.65597 19.871986,114.3953 C 15.866717,124.99883 36.32647,124.77805 42.65522,130.27373 C 63.147612,137.95083 86.993219,136.35061 106.60383,126.85915 C 110.48226,124.70161 114.06419,121.82379 116.4576,118.03866 z"
       id="path3270" />
    <path
       style="opacity:1;fill:#ffcc00;fill-opacity:1;stroke:#000000;stroke-width:2.34;stroke-miterlimit:4;stroke-dasharray:none;stroke-opacity:1"
       d="M 117.38958,117.96663 C 130.80177,137.27069 157.27404,142.63265 178.87155,135.94518 C 190.93325,132.34884 202.82975,127.58103 213.96496,121.87188 C 217.99897,111.27926 197.53869,111.44455 191.22487,105.93174 C 170.75337,98.199082 146.90351,99.73465 127.26723,109.17289 C 123.38297,111.3199 119.79324,114.18801 117.38958,117.96663 z"
       id="path3272" />
    <path
       style="opacity:1;fill:#ffcc00;fill-opacity:1;stroke:#000000;stroke-width:2.34;stroke-miterlimit:4;stroke-dasharray:none;stroke-opacity:1"
       d="M 117.66133,118.00554 C 141.15922,117.38725 160.16926,98.200003 166.43121,76.475301 C 170.0441,64.418546 172.58703,51.857008 173.92524,39.415284 C 167.28401,30.229925 156.19387,47.424652 148.12042,49.677417 C 130.42174,62.547254 118.61693,83.327534 115.73081,104.92231 C 115.39401,109.34766 115.82164,113.92251 117.66133,118.00554 z"
       id="path3274" />
    <path
       style="opacity:1;fill:#ffcc00;fill-opacity:1;stroke:#000000;stroke-width:2.34;stroke-miterlimit:4;stroke-dasharray:none;stroke-opacity:1"
       d="M 113.54539,118.06517 C 120.29854,95.550105 108.01006,71.497545 89.32875,58.762426 C 79.004012,51.563946 67.865514,45.224184 56.464489,40.066283 C 45.664167,43.505743 58.533931,59.41232 58.151895,67.785466 C 64.848768,88.618807 80.90139,106.32437 100.51385,115.81201 C 104.61251,117.5144 109.092,118.5373 113.54539,118.06517 z"
       id="path3276" />
    <path
       style="opacity:1;fill:#ffcc00;fill-opacity:1;stroke:#000000;stroke-width:2.34;stroke-miterlimit:4;stroke-dasharray:none;stroke-opacity:1"
       d="M 115.16748,117.2999 C 92.347923,111.66067 68.927908,125.11559 57.125638,144.39981 C 50.442915,155.06562 44.657838,166.50204 40.066089,178.14262 C 44.03183,188.76099 59.287144,175.12554 67.66895,175.0959 C 88.148254,167.38394 105.04408,150.48113 113.55705,130.42637 C 115.05608,126.24905 115.85775,121.72473 115.16748,117.2999 z"
       id="path3278" />
    <path
       style="opacity:1;fill:#ffcc00;fill-opacity:1;stroke:#000000;stroke-width:2.34;stroke-miterlimit:4;stroke-dasharray:none;stroke-opacity:1"
       d="M 116.81725,117.53642 C 113.05335,140.73914 128.36915,162.9868 148.54968,173.18095 C 159.72384,178.97373 171.59302,183.80915 183.5686,187.43858 C 193.82911,182.62207 178.99769,168.52672 178.28618,160.17512 C 168.93356,140.39117 150.71212,124.9266 130.03123,118.07352 C 125.7458,116.91933 121.17124,116.48841 116.81725,117.53642 z"
       id="path3280" />
    <path
       style="opacity:1;fill:#502d16;fill-opacity:1;stroke:#000000;stroke-width:2.34;stroke-miterlimit:4;stroke-dasharray:none;stroke-opacity:1"
       d="M 150.5545,117.78359 C 151.8755,141.00441 127.29711,162.54748 104.4655,154.76889 C 80.114289,147.66563 70.442185,114.57496 85.415362,94.619894 C 96.509799,78.291299 122.04407,73.884461 136.87945,87.671236 C 145.59094,95.030929 150.65077,106.40747 150.5545,117.78359 z"
       id="path3300" />
    <path
       style="opacity:1;fill:#ffffff;fill-opacity:0.26744187000000003;stroke:none;stroke-width:2.34;stroke-miterlimit:4;stroke-dasharray:none;stroke-opacity:1"
       d="M 179.91473,51.767414 C 197.86534,49.395162 217.17468,46.361813 234.2518,54.254683 C 221.29805,61.27297 206.45836,55.433264 192.65915,56.977519 C 188.09502,56.254425 183.5621,54.673778 179.91473,51.767414 z"
       id="path3170" />
    <path
       style="opacity:1;fill:#ffffff;fill-opacity:0.26744187000000003;stroke:none;stroke-width:2.34;stroke-miterlimit:4;stroke-dasharray:none;stroke-opacity:1"
       d="M 67.43338,193.87085 C 56.758346,207.81842 39.028012,214.63166 21.742954,213.63833 C 29.118314,201.35471 45.810051,204.39301 56.233058,196.39633 C 59.76353,194.91961 63.505803,193.25399 67.43338,193.87085 z"
       id="path3184" />
    <path
       style="opacity:1;fill:#ffffff;fill-opacity:0.18604652999999999;stroke:none;stroke-width:2.34;stroke-miterlimit:4;stroke-dasharray:none;stroke-opacity:1"
       d="M 113.38813,85.191811 C 132.21668,82.276295 145.87666,101.98012 145.66943,119.06806 C 146.70374,130.73165 138.98617,140.43864 129.46322,146.08365 C 124.21751,151.37734 119.87457,148.45804 125.75837,143.29596 C 135.8649,127.93443 136.83237,104.04565 122.61764,90.748061 C 119.91931,88.344861 116.75696,86.48585 113.38813,85.191811 z"
       id="path3186" />
  </g>
</svg>
