<?xml version="1.0" encoding="UTF-8" standalone="no"?>
<!-- Created with Inkscape (http://www.inkscape.org/) -->
<svg
   xmlns:dc="http://purl.org/dc/elements/1.1/"
   xmlns:cc="http://creativecommons.org/ns#"
   xmlns:rdf="http://www.w3.org/1999/02/22-rdf-syntax-ns#"
   xmlns:svg="http://www.w3.org/2000/svg"
   xmlns="http://www.w3.org/2000/svg"
   xmlns:sodipodi="http://sodipodi.sourceforge.net/DTD/sodipodi-0.dtd"
   xmlns:inkscape="http://www.inkscape.org/namespaces/inkscape"
   width="250"
   height="250"
   id="svg2"
   sodipodi:version="0.32"
   inkscape:version="0.46"
   sodipodi:docname="termiteaward2.svg"
   inkscape:output_extension="org.inkscape.output.svg.inkscape"
   inkscape:export-filename="P:\pidgey2\data\images\termiteaward2.png"
   inkscape:export-xdpi="92.160004"
   inkscape:export-ydpi="92.160004"
   version="1.0">
  <defs
     id="defs4">
    <inkscape:perspective
       sodipodi:type="inkscape:persp3d"
       inkscape:vp_x="0 : 125 : 1"
       inkscape:vp_y="0 : 1000 : 0"
       inkscape:vp_z="250 : 125 : 1"
       inkscape:persp3d-origin="125 : 83.333333 : 1"
       id="perspective3645" />
  </defs>
  <sodipodi:namedview
     id="base"
     pagecolor="#cb90ff"
     bordercolor="#666666"
     borderopacity="1.0"
     gridtolerance="10000"
     guidetolerance="10"
     objecttolerance="10"
     inkscape:pageopacity="0"
     inkscape:pageshadow="2"
     inkscape:zoom="2.231629"
     inkscape:cx="157.78212"
     inkscape:cy="162.47916"
     inkscape:document-units="px"
     inkscape:current-layer="layer1"
     showgrid="false"
     inkscape:window-width="1014"
     inkscape:window-height="990"
     inkscape:window-x="480"
     inkscape:window-y="22" />
  <metadata
     id="metadata7">
    <rdf:RDF>
      <cc:Work
         rdf:about="">
        <dc:format>image/svg+xml</dc:format>
        <dc:type
           rdf:resource="http://purl.org/dc/dcmitype/StillImage" />
      </cc:Work>
    </rdf:RDF>
  </metadata>
  <g
     inkscape:label="Layer 1"
     inkscape:groupmode="layer"
     id="layer1">
    <path
       style="opacity:1;fill:#d40000;fill-opacity:1;stroke:#000000;stroke-width:2.75859736999999990;stroke-miterlimit:4;stroke-dasharray:none;stroke-opacity:1"
       d="M 110.38839,144.88708 C 111.2806,186.77071 106.84969,210.21218 97.14606,243.85283 C 106.0481,233.5837 117.00036,236.83113 126.74881,227.37672 C 139.29557,243.40721 154.58724,240.64699 157.41608,246.15629 C 153.83,235.00559 143.98267,176.51987 147.71147,143.09425 C 142.69775,144.50943 115.2209,142.9642 110.38839,144.88708 z"
       id="path3306"
       sodipodi:nodetypes="cccccc"
       inkscape:transform-center-x="4.4332338"
       inkscape:transform-center-y="7.6574057" />
    <path
       style="opacity:1;fill:#d40000;fill-opacity:1;stroke:#000000;stroke-width:2.75859736999999990;stroke-miterlimit:4;stroke-dasharray:none;stroke-opacity:1"
       d="M 78.947599,131.80067 C 63.846975,170.87759 50.835505,190.87353 29.069241,218.29766 C 41.207358,212.18477 53.378908,217.24859 65.990077,212.21105 C 71.499003,231.80825 83.414899,237.17403 83.936405,243.34515 C 84.859611,231.66843 97.990521,173.83134 114.14899,144.33422 C 108.97375,143.73669 84.148279,131.85973 78.947599,131.80067 z"
       id="path3304"
       sodipodi:nodetypes="cccccc" />
    <path
       style="opacity:1;fill:#d40000;fill-opacity:1;stroke:#000000;stroke-width:2.75859736999999990;stroke-miterlimit:4;stroke-dasharray:none;stroke-opacity:1"
       d="M 176.65201,130.69112 C 191.75263,169.76805 204.7641,189.76399 226.53036,217.18811 C 214.39225,211.07523 204.63882,218.9602 192.02766,213.92267 C 186.51873,233.51985 172.18471,236.06448 171.6632,242.23561 C 170.74,230.55889 157.60909,172.7218 141.45061,143.22468 C 146.62586,142.62714 171.45132,130.75019 176.65201,130.69112 z"
       id="path3274"
       sodipodi:nodetypes="cccccc" />
    <path
       style="fill:#ff2a2a;fill-opacity:1;stroke:#000000;stroke-width:2.75859736999999990;stroke-miterlimit:4;stroke-dasharray:none;stroke-opacity:1"
       d="M 88.052529,68.57116 C 85.663109,64.722963 83.464723,60.580742 80.203088,57.498246 C 73.836182,52.986489 65.821509,52.586815 59.24437,48.504498 C 56.153538,46.683204 52.742863,43.379847 53.312536,39.23953 C 54.359424,34.8476 58.468528,32.641075 61.241617,29.624523 C 67.874501,24.547997 74.359202,19.19468 81.500021,14.944303 C 84.058508,12.634717 87.408245,10.110411 90.870855,11.857295 C 97.312302,13.280982 103.57652,20.600289 105.76241,26.351213 C 109.20624,33.300485 113.31835,38.324452 114.19834,46.598671 C 114.90587,53.898289 110.61718,61.510999 103.933,63.621292 C 100.32325,64.439339 91.407539,69.273932 88.052529,68.57116 z"
       id="path3173"
       sodipodi:nodetypes="ccccccccccc" />
    <path
       style="fill:#aa0000;fill-opacity:1;stroke:#000000;stroke-width:2.75859736999999990;stroke-miterlimit:4;stroke-dasharray:none;stroke-opacity:1"
       d="M 95.163837,51.788041 C 92.14952,48.678756 88.746927,45.910534 86.406947,42.1381 C 85.138097,40.62772 83.686489,39.0923 83.281003,37.028972 C 82.419735,35.746269 83.302027,33.327607 84.940924,33.683335 C 86.386392,33.93685 87.889199,34.125673 89.223093,34.853746 C 90.459313,35.538711 91.648404,36.329707 92.77618,37.202708 C 94.560454,38.669693 95.401417,40.983914 96.389317,43.065259 C 101.65875,57.725045 111.8091,70.747671 95.163837,51.788041 z"
       id="path3175"
       sodipodi:nodetypes="cccccccc" />
    <path
       style="fill:#ff2a2a;fill-opacity:1;stroke:#000000;stroke-width:2.75859736999999990;stroke-miterlimit:4;stroke-dasharray:none;stroke-opacity:1"
       d="M 115.39908,54.930827 C 115.74348,50.324832 116.40784,45.61416 115.62444,41.032744 C 113.22581,33.272832 107.15717,27.65446 104.34527,20.092945 C 102.96776,16.615867 102.1948,11.762219 105.03371,8.8849877 C 108.39303,6.1258192 112.89708,7.1109792 116.81886,6.5752703 C 124.96408,6.9749172 133.1527,7.0589326 141.22007,8.4440866 C 144.56487,8.3220207 148.65559,8.5548413 150.36829,12.219488 C 154.609,17.60154 155.30548,27.500204 153.70222,33.467029 C 152.39562,41.208272 152.72619,47.878514 148.63925,54.964372 C 144.9796,61.170049 137.21215,64.315251 130.73969,61.550225 C 127.43001,59.804212 117.63021,57.703602 115.39908,54.930827 z"
       id="path3192"
       sodipodi:nodetypes="ccccccccccc" />
    <path
       style="fill:#aa0000;fill-opacity:1;stroke:#000000;stroke-width:2.75859736999999990;stroke-miterlimit:4;stroke-dasharray:none;stroke-opacity:1"
       d="M 129.10052,45.114809 C 128.527,40.676019 127.45133,36.248336 127.79083,31.734608 C 127.66582,29.707716 127.41162,27.540193 128.28455,25.650083 C 128.3484,24.071887 130.43873,22.754761 131.52144,24.119003 C 132.51115,25.274901 133.5833,26.417894 134.21123,27.872944 C 134.7873,29.229467 135.26509,30.638142 135.64732,32.070688 C 136.20252,34.404587 135.52697,36.780102 135.10142,39.06983 C 130.77665,54.079678 131.23375,71.032995 129.10052,45.114809 z"
       id="path3194"
       sodipodi:nodetypes="cccccccc" />
    <path
       style="fill:#ff2a2a;fill-opacity:1;stroke:#000000;stroke-width:2.75859736999999990;stroke-miterlimit:4;stroke-dasharray:none;stroke-opacity:1"
       d="M 147.85436,61.141076 C 150.31947,57.347991 150.20152,52.747398 151.68086,48.367353 C 153.26071,40.370525 153.57118,33.13409 154.70067,25.08578 C 155.14707,21.339293 156.76352,16.729704 160.56992,15.775246 C 164.7703,15.203424 168.19741,18.483414 171.83729,20.135614 C 178.68533,24.873464 185.71939,29.362055 192.03637,34.909218 C 194.98316,36.607581 198.4073,39.014775 198.16217,43.104054 C 199.29259,50.040202 195.23587,58.966601 191.04289,63.25633 C 186.27112,69.238836 183.41762,75.179089 176.55251,79.096046 C 170.47076,82.483114 162.28083,81.011161 157.99094,75.132121 C 155.95363,71.83899 148.47679,64.739509 147.85436,61.141076 z"
       id="path3196"
       sodipodi:nodetypes="ccccccccccc"
       inkscape:transform-center-x="-6.4046617"
       inkscape:transform-center-y="3.7155259" />
    <path
       style="fill:#aa0000;fill-opacity:1;stroke:#000000;stroke-width:2.75859736999999990;stroke-miterlimit:4;stroke-dasharray:none;stroke-opacity:1"
       d="M 164.3096,60.050684 C 165.90312,55.907022 167.05761,51.502147 169.47508,47.78613 C 170.32095,45.967815 171.12142,43.958348 172.76498,42.796367 C 173.56284,41.467507 175.9884,41.457017 176.28165,43.219385 C 176.59264,44.751628 176.98087,46.317177 176.83857,47.912736 C 176.69779,49.395211 176.4476,50.869738 176.10361,52.313353 C 175.48485,54.62886 173.78335,56.316592 172.33819,58.06504 C 161.53856,68.698749 153.95507,83.590094 164.3096,60.050684 z"
       id="path3198"
       sodipodi:nodetypes="cccccccc"
       inkscape:transform-center-x="-2.3686475"
       inkscape:transform-center-y="10.487483" />
    <path
       style="fill:#ff2a2a;fill-opacity:1;stroke:#000000;stroke-width:2.75859736999999990;stroke-miterlimit:4;stroke-dasharray:none;stroke-opacity:1"
       d="M 82.757659,92.760588 C 78.456399,92.372882 74.058685,91.642224 69.775724,92.46187 C 62.516902,94.997478 57.243424,101.47058 50.168224,104.4494 C 46.914427,105.90961 42.377206,106.71697 39.701183,103.66608 C 37.1376,100.0586 38.076509,95.241203 37.592292,91.040821 C 37.9993,82.323196 38.111643,73.557829 39.438936,64.92764 C 39.338739,61.34661 39.573138,56.968542 43.003545,55.150297 C 48.048707,50.632979 57.298401,49.928335 62.865667,51.669245 C 70.091729,53.099944 76.324087,52.773651 82.926432,57.177928 C 88.708316,61.12115 91.614283,69.449021 89.004578,76.3662 C 87.359861,79.901912 85.357063,90.383686 82.757659,92.760588 z"
       id="path3200"
       sodipodi:nodetypes="ccccccccccc"
       inkscape:transform-center-x="-3.2859731"
       inkscape:transform-center-y="-5.5234569" />
    <path
       style="fill:#aa0000;fill-opacity:1;stroke:#000000;stroke-width:2.75859736999999990;stroke-miterlimit:4;stroke-dasharray:none;stroke-opacity:1"
       d="M 73.644696,80.20587 C 69.495838,80.801449 65.35528,81.934624 61.140199,81.552529 C 59.246266,81.677978 57.220423,81.941127 55.458394,80.998867 C 53.984391,80.923985 52.76264,78.680892 54.04152,77.527519 C 55.125391,76.472825 56.197552,75.329856 57.559377,74.663675 C 58.82895,74.052615 60.146837,73.54697 61.486632,73.143732 C 63.669132,72.559064 65.885421,73.292042 68.022604,73.757051 C 82.02614,78.448671 97.864933,78.029453 73.644696,80.20587 z"
       id="path3202"
       sodipodi:nodetypes="cccccccc"
       inkscape:transform-center-x="-8.2123465"
       inkscape:transform-center-y="-7.8918761" />
    <path
       style="fill:#ff2a2a;fill-opacity:1;stroke:#000000;stroke-width:2.75859736999999990;stroke-miterlimit:4;stroke-dasharray:none;stroke-opacity:1"
       d="M 169.11667,113.36306 C 172.29695,116.4873 176.60408,118.16669 180.46006,120.32403 C 188.50655,121.24099 194.42437,122.86812 201.57377,125.46642 C 204.98197,126.44296 209.03203,128.77655 209.40451,132.94251 C 209.36989,137.47501 205.87348,140.67011 203.85535,144.30942 C 198.55012,150.93769 193.45063,157.79672 187.46752,163.75296 C 185.49971,166.65087 182.81165,169.95998 179.05912,169.15092 C 172.48658,169.41881 164.76809,163.91699 161.36005,158.89317 C 156.46272,153.02808 151.34695,149.20356 148.64275,141.39522 C 146.32388,134.48897 148.78607,125.99878 154.80425,122.23742 C 158.12622,120.51839 165.70203,113.5402 169.11667,113.36306 z"
       id="path3204"
       sodipodi:nodetypes="ccccccccccc" />
    <path
       style="fill:#aa0000;fill-opacity:1;stroke:#000000;stroke-width:2.75859736999999990;stroke-miterlimit:4;stroke-dasharray:none;stroke-opacity:1"
       d="M 167.91674,130.96506 C 171.53858,133.21178 175.46115,135.02788 178.5765,138.09122 C 180.14613,139.23264 181.89881,140.35157 182.75379,142.25107 C 183.8768,143.27584 183.56085,145.85025 181.89005,145.92473 C 180.42992,146.04889 178.92856,146.25054 177.47067,145.88535 C 176.11722,145.53699 174.78587,145.0736 173.49569,144.51489 C 171.43531,143.54765 170.10142,141.51611 168.67692,139.74833 C 160.28329,126.86448 147.51657,116.82063 167.91674,130.96506 z"
       id="path3206"
       sodipodi:nodetypes="cccccccc" />
    <path
       style="fill:#ff2a2a;fill-opacity:1;stroke:#000000;stroke-width:2.75859736999999990;stroke-miterlimit:4;stroke-dasharray:none;stroke-opacity:1"
       d="M 147.15135,133.54237 C 147.84668,138.10277 148.25473,142.84675 150.03957,147.09435 C 154.10332,154.01427 161.25164,157.91468 165.67228,164.53612 C 167.78709,167.55924 169.62267,172.07384 167.50948,175.59475 C 164.86461,179.13436 160.2712,179.3317 156.58316,180.85654 C 148.58525,182.55518 140.6158,184.5714 132.47322,185.29324 C 129.25289,186.26864 125.22899,187.09057 122.7468,183.97117 C 117.42612,179.83191 114.53695,170.39933 114.75968,164.19515 C 114.29768,156.34413 112.48553,149.9524 114.86961,142.02543 C 117.03558,135.06253 123.87417,130.01882 130.77669,131.04536 C 134.38054,131.89275 144.36518,131.42176 147.15135,133.54237 z"
       id="path3208"
       sodipodi:nodetypes="ccccccccccc" />
    <path
       style="fill:#aa0000;fill-opacity:1;stroke:#000000;stroke-width:2.75859736999999990;stroke-miterlimit:4;stroke-dasharray:none;stroke-opacity:1"
       d="M 136.04251,146.58327 C 137.59169,150.74614 139.62597,154.76959 140.30541,159.23913 C 140.87992,161.1751 141.61131,163.21452 141.1863,165.27333 C 141.47712,166.82203 139.74198,168.63639 138.38574,167.58917 C 137.16637,166.72041 135.86986,165.88529 134.93489,164.63339 C 134.07229,163.46387 133.29345,162.21853 132.60208,160.92553 C 131.54125,158.80169 131.6661,156.32213 131.5674,153.98992 C 132.4109,138.30829 128.17705,121.96472 136.04251,146.58327 z"
       id="path3210"
       sodipodi:nodetypes="cccccccc" />
    <path
       style="fill:#ff2a2a;fill-opacity:1;stroke:#000000;stroke-width:2.75859736999999990;stroke-miterlimit:4;stroke-dasharray:none;stroke-opacity:1"
       d="M 115.14867,138.84963 C 113.60318,143.16402 111.72311,147.48209 111.26596,152.11385 C 111.51978,160.28304 115.85919,167.50734 116.56178,175.61114 C 116.96591,179.36312 116.42695,184.25287 112.94453,186.15474 C 108.99405,187.78602 104.93324,185.47932 101.02978,184.8076 C 93.321541,181.96179 85.488418,179.40564 78.114878,175.63799 C 74.87403,174.74391 71.011239,173.28387 70.335052,169.25063 C 67.686838,162.80563 69.630115,153.09934 72.742239,147.86008 C 76.037912,140.82896 77.480502,134.3303 83.270442,128.76844 C 88.418265,123.92172 96.699278,123.25278 102.17882,127.86198 C 104.89315,130.53749 113.73986,135.51522 115.14867,138.84963 z"
       id="path3212"
       sodipodi:nodetypes="ccccccccccc"
       inkscape:transform-center-x="7.609102"
       inkscape:transform-center-y="-3.6302808" />
    <path
       style="fill:#aa0000;fill-opacity:1;stroke:#000000;stroke-width:2.75859736999999990;stroke-miterlimit:4;stroke-dasharray:none;stroke-opacity:1"
       d="M 99.41536,144.12393 C 98.794506,148.55541 98.658305,153.12805 97.141833,157.3554 C 96.727043,159.33758 96.39906,161.49372 95.063036,163.043 C 94.58543,164.53765 92.232707,165.16922 91.553978,163.5332 C 90.90949,162.12513 90.182535,160.70455 89.964018,159.11888 C 89.769269,157.64343 89.682553,156.14766 89.693815,154.65786 C 89.77694,152.25111 91.051686,150.17654 92.063977,148.10866 C 100.17252,135.01725 104.20657,118.61586 99.41536,144.12393 z"
       id="path3214"
       sodipodi:nodetypes="cccccccc"
       inkscape:transform-center-x="5.4190788"
       inkscape:transform-center-y="-9.802022" />
    <path
       style="fill:#ff2a2a;fill-opacity:1;stroke:#000000;stroke-width:2.75859736999999990;stroke-miterlimit:4;stroke-dasharray:none;stroke-opacity:1"
       d="M 168.65921,83.690388 C 172.92215,82.964918 176.10883,78.544335 180.0841,76.651282 C 186.56513,72.329755 191.48483,68.697142 197.6885,63.992334 C 200.52131,61.740967 204.74619,59.79469 208.02651,62.071375 C 211.32209,64.917295 211.48743,69.835231 212.8966,73.789517 C 214.45033,82.358085 216.30083,90.897527 216.94145,99.616966 C 217.83931,103.06827 218.59048,107.37916 215.66625,110.02338 C 211.77757,115.70192 202.95419,118.75573 197.15949,118.49165 C 190.89058,120.09595 184.99379,122.09665 176.45015,118.2823 C 169.95473,115.93489 165.27145,108.59349 166.25892,101.20875 C 167.06541,97.354431 166.6667,86.664146 168.65921,83.690388 z"
       id="path3216"
       sodipodi:nodetypes="ccccccccccc"
       inkscape:transform-center-x="0.56387444"
       inkscape:transform-center-y="4.2024717" />
    <path
       style="fill:#aa0000;fill-opacity:1;stroke:#000000;stroke-width:2.75859736999999990;stroke-miterlimit:4;stroke-dasharray:none;stroke-opacity:1"
       d="M 180.79539,95.636047 C 184.69054,93.994907 188.45744,91.833912 192.63546,91.125058 C 194.44631,90.518053 196.35447,89.74357 198.27593,90.20705 C 199.72386,89.90213 201.41156,91.767063 200.42769,93.21454 C 199.61111,94.516257 198.82562,95.900691 197.6523,96.896381 C 196.55623,97.814938 195.38968,98.643502 194.17896,99.378267 C 192.19058,100.50506 189.87483,100.36116 187.69579,100.45718 C 173.05032,99.489386 157.7655,103.95408 180.79539,95.636047 z"
       id="path3218"
       sodipodi:nodetypes="cccccccc"
       inkscape:transform-center-x="6.3054232"
       inkscape:transform-center-y="8.0785228" />
    <path
       style="fill:#ff2a2a;fill-opacity:1;stroke:#000000;stroke-width:2.75859736999999990;stroke-miterlimit:4;stroke-dasharray:none;stroke-opacity:1"
       d="M 93.430239,125.92692 C 89.557626,127.96782 85.437237,129.76806 82.161602,132.83351 C 77.162,139.01133 75.759519,147.46801 71.13066,153.92431 C 69.045375,156.97087 65.54594,160.16607 61.783829,159.02808 C 57.850084,157.35107 56.335243,152.7048 53.897942,149.37246 C 50.049451,141.67735 45.925468,134.10392 42.907718,125.97601 C 41.097695,122.96254 39.190658,119.08145 41.254901,115.63064 C 43.403384,108.97595 50.990608,103.26875 56.599651,101.68896 C 63.555631,98.727942 70.565324,90.122956 76.442908,95.341373 C 83.296212,95.53044 89.796086,101.06366 90.890117,108.43116 C 91.183022,112.36854 94.513381,122.45585 93.430239,125.92692 z"
       id="path3220"
       sodipodi:nodetypes="ccccccccccc"
       inkscape:transform-center-x="2.6124715"
       inkscape:transform-center-y="-3.9093969" />
    <path
       style="fill:#aa0000;fill-opacity:1;stroke:#000000;stroke-width:2.75859736999999990;stroke-miterlimit:4;stroke-dasharray:none;stroke-opacity:1"
       d="M 78.53964,118.23915 C 75.271049,121.03861 72.2684,124.29416 68.472338,126.29234 C 66.90974,127.44479 65.300397,128.78802 63.336769,128.95272 C 62.03757,129.70182 59.910619,128.45369 60.451233,126.75971 C 60.872254,125.25789 61.240729,123.68687 62.086996,122.36463 C 62.880741,121.1405 63.766651,119.98008 64.720634,118.8953 C 66.309419,117.19012 68.561569,116.59545 70.616903,115.81477 C 84.876056,112.10903 98.247205,103.01096 78.53964,118.23915 z"
       id="path3222"
       sodipodi:nodetypes="cccccccc"
       inkscape:transform-center-x="-3.4006616"
       inkscape:transform-center-y="-9.7865282" />
    <path
       sodipodi:type="arc"
       style="fill:#999999;fill-opacity:1;stroke:#000000;stroke-width:2.22193979999999990;stroke-miterlimit:4;stroke-dasharray:none;stroke-opacity:1"
       id="path3262"
       sodipodi:cx="145.24794"
       sodipodi:cy="104.75207"
       sodipodi:rx="36.983471"
       sodipodi:ry="39.049587"
       d="M 182.23141,104.75207 A 36.983471,39.049587 0 1 1 108.26447,104.75207 A 36.983471,39.049587 0 1 1 182.23141,104.75207 z"
       transform="matrix(1.2729713,0,0,1.2108588,-60.840544,-28.567049)" />
    <path
       style="opacity:1;fill:#ff2a2a;fill-opacity:1;stroke:#000000;stroke-width:2.75859736999999990;stroke-miterlimit:4;stroke-dasharray:none;stroke-opacity:1"
       d="M 91.664374,184.44455 C 89.387225,199.95999 82.102369,213.80095 79.563041,229.23283 C 77.316234,208.2935 83.300309,201.43615 91.539136,185.13087 C 91.60325,184.90759 91.647442,184.67743 91.664374,184.44455 z"
       id="path3308"
       sodipodi:nodetypes="cccc" />
    <path
       style="opacity:1;fill:#ff2a2a;fill-opacity:1;stroke:#000000;stroke-width:2.75859736999999990;stroke-miterlimit:4;stroke-dasharray:none;stroke-opacity:1"
       d="M 141.62645,187.9502 C 146.85086,203.29544 144.19641,219.11294 149.01051,234.48671 C 134.55213,215.93246 139.17406,207.13369 141.82344,188.63893 C 141.79189,188.4054 141.72889,188.17354 141.62645,187.9502 z"
       id="path3317"
       sodipodi:nodetypes="cccc" />
    <path
       style="opacity:1;fill:#ff2a2a;fill-opacity:1;stroke:#000000;stroke-width:2.75859736999999990;stroke-miterlimit:4;stroke-dasharray:none;stroke-opacity:1"
       d="M 187.50276,170.18584 C 198.00546,182.45331 203.33992,197.4934 213.57527,209.9088 C 195.31522,197.50134 194.49625,188.19799 187.94853,170.74761 C 187.82146,170.54661 187.67366,170.35652 187.50276,170.18584 z"
       id="path3319"
       sodipodi:nodetypes="cccc" />
    <path
       style="opacity:1;fill:#ffffff;fill-opacity:0.55813956;stroke:none;stroke-width:2;stroke-miterlimit:4;stroke-dasharray:none;stroke-opacity:1"
       d="M 134.50571,56.400507 C 110.74057,49.943793 82.551701,70.048053 80.930287,94.759265 C 85.212997,81.588734 110.58667,53.85576 134.50571,56.400507 z"
       id="path4398"
       sodipodi:nodetypes="ccc" />
    <path
       style="opacity:1;fill:#000000;fill-opacity:0.22674417;stroke:none;stroke-width:2;stroke-miterlimit:4;stroke-dasharray:none;stroke-opacity:1"
       d="M 113.26259,139.92558 C 137.02773,146.38229 165.21659,126.27804 166.83801,101.56683 C 168.52251,108.35199 135.94746,142.42235 113.26259,139.92558 z"
       id="path4403"
       sodipodi:nodetypes="ccc" />
    <g
       id="g3323"
       transform="translate(6.8660044e-2,0.2682194)">
      <path
         sodipodi:nodetypes="cccccc"
         id="path2412"
         d="M 115.97203,95.781373 C 104.97454,90.89061 91.691324,106.83061 94.057431,118.81917 C 97.638288,118.91985 101.3396,118.04048 104.98006,117.79693 C 109.00921,116.81783 113.28789,115.19169 116.1317,111.72466 C 117.62895,108.20337 120.07436,104.11298 118.82729,100.07812 C 118.14541,98.440513 116.99964,97.14934 115.97203,95.781373 z"
         style="opacity:1;fill:#800000;fill-opacity:1;stroke:#000000;stroke-width:2.59317827;stroke-miterlimit:4;stroke-dasharray:none;stroke-opacity:1" />
      <path
         id="path3221"
         d="M 122.94865,99.427769 C 122.94865,99.770887 122.94865,101.06706 122.94865,101.87441 C 122.94865,102.96844 123.13392,103.76612 123.36257,104.77978 C 123.55965,105.65341 123.62094,106.51735 123.7765,107.37931 C 123.84997,107.78651 123.96089,108.04387 124.05244,108.44971"
         style="opacity:1;fill:#0055d4;fill-opacity:1;stroke:#000000;stroke-width:2.59317827;stroke-miterlimit:4;stroke-dasharray:none;stroke-opacity:1" />
      <path
         sodipodi:nodetypes="ccc"
         id="path3223"
         d="M 122.94865,98.051558 C 122.9635,98.133867 126.38352,99.717598 126.94986,100.34526 C 128.01924,101.48656 129.0385,103.07152 129.7093,104.32104"
         style="opacity:1;fill:#0055d4;fill-opacity:1;stroke:#000000;stroke-width:2.59317827;stroke-miterlimit:4;stroke-dasharray:none;stroke-opacity:1" />
      <path
         id="path3184"
         d="M 123.49244,86.685782 C 121.59574,85.871209 119.73026,87.440288 118.11116,88.222666 C 115.64271,89.532451 113.15278,91.313706 112.41613,94.098626 C 111.48871,96.501324 112.17808,99.299678 114.12381,101.03451 C 115.50912,102.83321 118.02447,102.52495 119.84281,101.5779 C 122.66259,100.4989 125.76601,99.244915 127.12289,96.387538 C 127.75349,94.344906 128.9457,91.660257 127.17227,89.862124 C 126.17559,88.571709 125.00195,87.398502 123.49244,86.685782 z"
         style="opacity:1;fill:#800000;fill-opacity:1;stroke:#000000;stroke-width:1.91459489;stroke-miterlimit:4;stroke-dasharray:none;stroke-opacity:1" />
      <path
         sodipodi:nodetypes="cccccccccc"
         id="path3199"
         d="M 139.79514,80.247074 C 140.34203,79.049919 141.52608,78.2541 142.74367,78.094164 C 143.868,77.9266 145.0122,77.767388 146.12505,77.846639 C 147.74547,78.108057 149.20395,78.845557 150.6933,79.4445 C 140.54116,81.151961 146.25232,88.041819 151.2838,90.15356 C 149.61812,90.392889 147.94363,90.623263 146.27946,90.671349 C 144.24907,90.402161 142.6149,89.135918 141.02745,87.988813 C 139.87417,87.068609 139.74004,85.434017 139.65154,83.975684 C 139.53262,83.152131 139.41531,82.31783 139.63361,81.465026 C 139.69327,81.059316 139.74607,80.653224 139.79514,80.247074 z"
         style="opacity:1;fill:#800000;fill-opacity:1;stroke:#000000;stroke-width:2;stroke-miterlimit:4;stroke-dasharray:none;stroke-opacity:1" />
      <path
         sodipodi:nodetypes="cccc"
         id="path3195"
         d="M 138.95665,78.939779 C 142.78542,81.481821 143.0698,88.266911 138.69253,90.325083 C 135.38522,91.991713 131.21446,94.037911 127.74168,91.770741 C 117.72583,81.801885 128.26895,75.443335 138.95665,78.939779 z"
         style="opacity:1;fill:#800000;fill-opacity:1;stroke:#000000;stroke-width:2;stroke-miterlimit:4;stroke-dasharray:none;stroke-opacity:1" />
      <path
         id="path3225"
         d="M 126.67391,95.757827 C 126.88354,95.990149 131.7289,96.063667 132.74472,96.063667 C 133.7149,96.063667 134.64739,96.643256 135.09026,97.134065"
         style="opacity:1;fill:#0055d4;fill-opacity:1;stroke:#000000;stroke-width:2.59317827;stroke-miterlimit:4;stroke-dasharray:none;stroke-opacity:1" />
      <path
         id="path3228"
         d="M 137.35741,81.43219 C 136.41873,81.00865 135.35235,81.217666 134.38015,80.932305 C 133.29501,80.783835 132.20567,81.019038 131.11724,80.957337 C 130.22285,80.945955 129.3163,81.104208 128.52497,81.536619 C 127.89755,81.820711 127.28756,82.231376 126.98328,82.872083 C 126.69916,83.211413 126.42608,83.963846 127.03036,84.12671 C 127.71575,84.292077 128.41605,84.069583 129.09509,83.966722 C 130.12775,83.764394 131.17596,83.571853 132.23287,83.641366 C 133.41634,83.622066 134.63186,83.780539 135.78594,83.446024 C 136.36204,83.239541 136.97765,82.961915 137.3134,82.425264 C 137.44895,82.112988 137.43236,81.757405 137.35741,81.43219 z"
         style="opacity:1;fill:#ffffff;fill-opacity:0.24418604;stroke:none;stroke-width:2;stroke-miterlimit:4;stroke-dasharray:none;stroke-opacity:1" />
      <path
         id="path3230"
         d="M 121.98986,88.878331 C 121.72569,88.576755 121.30787,89.017819 120.97157,88.993842 C 119.6486,89.338592 118.28265,89.741217 117.22868,90.655227 C 116.74088,91.046779 116.40491,91.582497 116.11724,92.12898 C 115.65736,92.887821 115.07633,93.563773 114.48342,94.220312 C 114.1836,94.715267 114.95072,95.00067 115.31728,94.760338 C 116.1488,94.530011 116.78907,93.926953 117.41329,93.365012 C 117.89476,92.939425 118.46489,92.623392 119.08312,92.447796 C 120.15566,92.083709 121.31863,91.722989 122.07197,90.821954 C 122.28615,90.535449 122.54555,90.23121 122.57067,89.860926 C 122.58788,89.427426 122.2298,89.179024 121.98986,88.878331 z"
         style="opacity:1;fill:#ffffff;fill-opacity:0.21511625;stroke:none;stroke-width:2;stroke-miterlimit:4;stroke-dasharray:none;stroke-opacity:1" />
      <path
         sodipodi:nodetypes="cccccccc"
         id="path3232"
         d="M 108.20659,98.70089 C 102.73727,100.59544 99.170445,106.75959 96.898578,111.98799 C 96.950763,112.6999 95.883976,113.55718 96.157053,114.0057 C 96.848961,113.4559 97.214881,112.61001 97.83786,111.99059 C 99.442578,109.98478 101.33753,108.22129 103.41562,106.7152 C 105.29838,105.16568 107.0258,103.42523 109.02402,102.01829 C 109.81349,101.22133 110.01196,99.639992 108.9842,98.951391 C 108.74962,98.808095 108.48075,98.721269 108.20659,98.70089 z"
         style="opacity:1;fill:#ffffff;fill-opacity:0.26162792;stroke:none;stroke-width:2;stroke-miterlimit:4;stroke-dasharray:none;stroke-opacity:1" />
      <path
         sodipodi:nodetypes="ccccc"
         id="path3263"
         d="M 115.00834,108.09285 C 113.59444,111.56885 110.99518,114.57424 106.98811,114.52108 C 107.26311,113.97005 107.9397,113.83217 108.32316,113.37697 C 111.51372,111.36149 113.09716,107.18658 115.59967,104.893 C 116.07904,105.51273 115.2894,107.16654 115.00834,108.09285 z"
         style="opacity:1;fill:#000000;fill-opacity:0.24418604;stroke:none;stroke-width:2;stroke-miterlimit:4;stroke-dasharray:none;stroke-opacity:1" />
      <path
         id="path3275"
         d="M 125.31686,94.581749 C 125.34934,95.223591 124.89434,95.732904 124.57719,96.245618 C 124.34232,96.588663 124.15639,96.967357 123.90098,97.294437 C 123.22747,97.893599 122.29722,98.048618 121.56689,98.557903 C 121.11057,98.847567 120.60085,99.049596 120.0661,99.132977 C 119.824,99.212764 119.24349,99.262831 119.48116,98.852925 C 120.15136,98.088138 121.02406,97.531776 121.70046,96.771447 C 122.26574,96.228063 122.81032,95.660382 123.28669,95.036706 C 123.55087,94.744214 123.86364,94.488193 124.22628,94.328328 C 124.28853,94.039355 124.59648,93.818199 124.77761,94.147278 C 124.95803,94.291272 125.13605,94.43826 125.31686,94.581749 z"
         style="opacity:1;fill:#000000;fill-opacity:0.24418604;stroke:none;stroke-width:2;stroke-miterlimit:4;stroke-dasharray:none;stroke-opacity:1" />
      <path
         sodipodi:nodetypes="cccc"
         id="path3281"
         d="M 137.99113,87.927757 C 136.23701,90.119556 132.50649,92.062585 130.61263,90.138244 C 131.48149,89.242441 133.92809,88.808353 135.12024,88.393777 C 136.04325,88.083433 137.01717,87.923536 137.99113,87.927757 z"
         style="opacity:1;fill:#000000;fill-opacity:0.24418604;stroke:none;stroke-width:2;stroke-miterlimit:4;stroke-dasharray:none;stroke-opacity:1" />
      <path
         id="path3288"
         d="M 145.27882,79.37262 C 144.29257,79.191477 143.25726,79.363694 142.3599,79.802325 C 142.25738,79.850304 142.15573,79.903695 142.06997,79.978551 C 142.03447,80.151699 142.27982,80.140689 142.39393,80.157328 C 142.9502,80.212923 143.50939,80.16671 144.06681,80.163097 C 144.28831,80.15756 144.50386,80.079963 144.6795,79.945315 C 144.90443,79.782348 145.08128,79.56553 145.27882,79.37262 z"
         style="opacity:1;fill:#ffffff;fill-opacity:0.24418604;stroke:none;stroke-width:2;stroke-miterlimit:4;stroke-dasharray:none;stroke-opacity:1" />
      <path
         id="path3293"
         d="M 143.28098,87.450577 C 143.33432,87.620286 143.4991,87.712394 143.62248,87.826683 C 144.04874,88.166426 144.514,88.457025 145.00118,88.700595 C 145.22954,88.787019 145.47339,88.716826 145.70558,88.690243 C 145.7855,88.695036 146.00282,88.700885 145.918,88.570724 C 145.81033,88.453688 145.66636,88.379571 145.5401,88.285238 C 145.25851,88.099702 144.97065,87.917634 144.73122,87.677655 C 144.33568,87.34509 143.75904,87.246092 143.28098,87.450577 z"
         style="opacity:1;fill:#000000;fill-opacity:0.24418604;stroke:none;stroke-width:2;stroke-miterlimit:4;stroke-dasharray:none;stroke-opacity:1" />
    </g>
  </g>
</svg>
