<?xml version="1.0" encoding="UTF-8" standalone="no"?>
<!-- Created with Inkscape (http://www.inkscape.org/) -->
<svg
   xmlns:dc="http://purl.org/dc/elements/1.1/"
   xmlns:cc="http://creativecommons.org/ns#"
   xmlns:rdf="http://www.w3.org/1999/02/22-rdf-syntax-ns#"
   xmlns:svg="http://www.w3.org/2000/svg"
   xmlns="http://www.w3.org/2000/svg"
   xmlns:sodipodi="http://sodipodi.sourceforge.net/DTD/sodipodi-0.dtd"
   xmlns:inkscape="http://www.inkscape.org/namespaces/inkscape"
   width="250"
   height="250"
   id="svg2"
   sodipodi:version="0.32"
   inkscape:version="0.46"
   sodipodi:docname="termite.svg"
   inkscape:output_extension="org.inkscape.output.svg.inkscape"
   inkscape:export-filename="P:\pidgey2\data\images\termite.png"
   inkscape:export-xdpi="92.160004"
   inkscape:export-ydpi="92.160004"
   version="1.0">
  <defs
     id="defs4">
    <inkscape:perspective
       sodipodi:type="inkscape:persp3d"
       inkscape:vp_x="0 : 125 : 1"
       inkscape:vp_y="0 : 1000 : 0"
       inkscape:vp_z="250 : 125 : 1"
       inkscape:persp3d-origin="125 : 83.333333 : 1"
       id="perspective12" />
  </defs>
  <sodipodi:namedview
     id="base"
     pagecolor="#cb90ff"
     bordercolor="#666666"
     borderopacity="1.0"
     gridtolerance="10000"
     guidetolerance="10"
     objecttolerance="10"
     inkscape:pageopacity="0"
     inkscape:pageshadow="2"
     inkscape:zoom="3.38"
     inkscape:cx="46.043527"
     inkscape:cy="125"
     inkscape:document-units="px"
     inkscape:current-layer="layer1"
     showgrid="false"
     inkscape:window-width="1680"
     inkscape:window-height="1028"
     inkscape:window-x="0"
     inkscape:window-y="0"
     showguides="true"
     inkscape:guide-bbox="true" />
  <metadata
     id="metadata7">
    <rdf:RDF>
      <cc:Work
         rdf:about="">
        <dc:format>image/svg+xml</dc:format>
        <dc:type
           rdf:resource="http://purl.org/dc/dcmitype/StillImage" />
      </cc:Work>
    </rdf:RDF>
  </metadata>
  <g
     inkscape:label="Layer 1"
     inkscape:groupmode="layer"
     id="layer1">
    <path
       style="opacity:1;fill:none;fill-opacity:1;stroke:#000000;stroke-width:3;stroke-miterlimit:4;stroke-dasharray:none;stroke-opacity:1"
       d="M 120.56994,141.41413 C 118.85499,143.71496 114.47566,149.58184 112.45271,153.74227 C 110.66113,157.42684 111.63369,163.10278 112.03793,167.6928 C 112.32274,170.92674 113.95191,173.22964 114.68417,175.34799"
       id="path4237" />
    <path
       style="opacity:1;fill:none;fill-opacity:1;stroke:#000000;stroke-width:3;stroke-miterlimit:4;stroke-dasharray:none;stroke-opacity:1"
       d="M 131.11798,145.44282 C 130.38385,148.21695 128.50594,155.29314 128.17888,159.90774 C 127.88923,163.99454 130.90667,168.89936 132.99209,173.00822 C 134.46139,175.90316 136.83132,177.43317 138.30018,179.12613"
       id="path4239" />
    <path
       style="opacity:1;fill:none;fill-opacity:1;stroke:#000000;stroke-width:3;stroke-miterlimit:4;stroke-dasharray:none;stroke-opacity:1"
       d="M 145.28157,138.65477 C 145.3565,141.52343 145.54254,148.8422 146.52528,153.36278 C 147.39562,157.36632 151.66967,161.22568 154.8256,164.58304 C 157.04913,166.9485 159.75349,167.75096 161.63887,168.96299"
       id="path4241" />
    <path
       style="opacity:1;fill:none;fill-opacity:1;stroke:#000000;stroke-width:3;stroke-miterlimit:4;stroke-dasharray:none;stroke-opacity:1"
       d="M 119.20312,108.4873 C 117.48817,106.18647 113.10884,100.31959 111.08589,96.159163 C 109.29431,92.474598 110.26687,86.798648 110.67111,82.208632 C 110.95592,78.974686 112.58509,76.671795 113.31735,74.553435"
       id="path4235" />
    <path
       style="opacity:1;fill:none;fill-opacity:1;stroke:#000000;stroke-width:3;stroke-miterlimit:4;stroke-dasharray:none;stroke-opacity:1"
       d="M 129.75116,104.45861 C 129.01703,101.68447 127.13912,94.608289 126.81206,89.993687 C 126.52241,85.906896 129.53985,81.00207 131.62527,76.893214 C 133.09457,73.998275 135.4645,72.468264 136.93336,70.775303"
       id="path4233" />
    <path
       style="opacity:1;fill:none;fill-opacity:1;stroke:#000000;stroke-width:3;stroke-miterlimit:4;stroke-dasharray:none;stroke-opacity:1"
       d="M 143.91475,111.24666 C 143.98967,108.378 144.17572,101.05924 145.15846,96.538648 C 146.0288,92.535117 150.30285,88.675746 153.45878,85.318393 C 155.68231,82.952933 158.38667,82.150473 160.27205,80.938442"
       id="path4231" />
    <path
       style="fill:#800000;fill-rule:evenodd;stroke:#000000;stroke-width:3;stroke-linecap:butt;stroke-linejoin:miter;stroke-miterlimit:4;stroke-dasharray:none;stroke-opacity:1"
       d="M 194.09066,93.695571 C 200.03103,91.091513 201.72336,87.471699 207.35642,84.29559 C 214.59626,78.356382 226.5607,77.551622 233.24356,84.788078 C 238.50643,89.776713 241.40884,101.88082 243.84937,108.31147 C 244.14253,110.75032 247.25734,115.6724 244.88739,112.57033 C 241.83691,108.03492 238.73306,101.34964 234.08755,97.92268 C 230.53426,95.117413 226.55767,91.781812 221.82287,91.746569 C 218.78397,91.069133 205.07494,98.289134 202.7121,111.61925 C 203.30196,125.43451 197.05528,140.17139 206.33276,151.77736 C 210.55277,156.02877 216.67436,160.77843 223.03062,158.78667 C 236.71407,155.78423 240.04644,143.51248 243.69615,138.41099 C 242.88465,144.22532 241.06443,149.98171 238.52058,155.26455 C 235.6632,162.02619 230.56627,168.52197 223.03546,170.13199 C 214.82067,172.17728 207.61805,167.13405 201.0523,162.79235 C 197.51389,160.33084 195.73559,157.81199 192.14864,157.28767 C 188.46683,160.35421 183.90097,163.85608 179.17027,163.72983 C 171.87118,162.74829 162.60499,157.59356 157.71501,151.97258 C 153.38292,147.38746 153.13102,143.31728 149.89309,137.93585 C 144.57217,131.3376 147.8863,113.45492 152.08535,106.17429 C 158.22339,95.609653 159.93967,95.794311 170.20978,88.559501 C 175.64477,84.653827 183.3751,85.054041 188.46364,89.358561 C 190.43011,90.680674 192.32048,92.119325 194.09066,93.695571 z"
       id="path2426"
       sodipodi:nodetypes="cccccccccccccccccccccc"
       inkscape:export-filename="P:\pidgey2\data\images\path4265.png"
       inkscape:export-xdpi="90"
       inkscape:export-ydpi="90" />
    <path
       style="fill:#800000;fill-rule:evenodd;stroke:#000000;stroke-width:3;stroke-linecap:butt;stroke-linejoin:miter;stroke-miterlimit:4;stroke-dasharray:none;stroke-opacity:1"
       d="M 155.44879,128.89094 C 162.48174,108.94099 124.5042,93.909153 107.67296,108.58062 C 88.916307,119.73766 103.79771,143.50994 121.28557,145.16534 C 138.65637,145.8933 147.94188,142.52462 155.44879,128.89094 z"
       id="path5037"
       sodipodi:nodetypes="cccc"
       inkscape:export-filename="P:\pidgey2\data\images\path4265.png"
       inkscape:export-xdpi="90"
       inkscape:export-ydpi="90" />
    <path
       style="fill:#800000;fill-rule:evenodd;stroke:#000000;stroke-width:3;stroke-linecap:butt;stroke-linejoin:miter;stroke-miterlimit:4;stroke-dasharray:none;stroke-opacity:1"
       d="M 90.424266,89.698393 C 70.697118,83.536124 49.96629,91.91737 33.990878,103.49671 C 26.400229,109.30379 17.302769,119.56536 9.8135402,125.48472 C 2.4288964,129.46854 9.5825254,131.7274 13.418578,135.9457 C 18.851528,141.02369 23.806847,146.65622 29.670342,151.22542 C 47.466889,164.21176 71.465078,168.76878 92.630131,162.41038 C 107.07656,156.72842 114.85268,139.93208 111.96742,125.0224 C 112.67552,107.66926 107.0915,96.722283 90.424266,89.698393 z"
       id="path5039"
       sodipodi:nodetypes="cccccccc"
       inkscape:export-filename="P:\pidgey2\data\images\path4265.png"
       inkscape:export-xdpi="90"
       inkscape:export-ydpi="90" />
    <path
       style="opacity:1;fill:#ffffff;fill-opacity:0.20348833999999999;stroke:none;stroke-width:3;stroke-miterlimit:4;stroke-dasharray:none;stroke-opacity:1"
       d="M 108.3179,117.89064 C 104.09284,105.68117 94.846367,97.523059 82.240175,95.563057 C 75.546008,94.310468 68.717463,95.327793 62.209176,97.050331 C 45.538687,101.15367 31.536016,111.89272 19.145328,123.33506 C 25.133374,125.05842 31.120968,122.00345 36.552616,119.79324 C 43.979189,116.56843 51.378732,112.52026 59.626787,112.06127 C 73.04323,109.80929 87.243778,106.66091 100.51779,111.32282 C 104.24144,113.17183 107.54014,113.1382 108.3179,117.89064 z"
       id="path4261"
       sodipodi:nodetypes="cccccccc" />
    <path
       style="opacity:1;fill:#ffffff;fill-opacity:0.18023254999999999;stroke:none;stroke-width:3;stroke-miterlimit:4;stroke-dasharray:none;stroke-opacity:1"
       d="M 121.25263,108.27417 C 127.49877,107.92877 144.68585,109.1078 147.84217,116.13246 C 145.23239,118.11529 140.72887,114.07342 137.55886,113.95064 C 131.32546,112.55265 124.83147,112.56227 118.52392,113.37423 C 113.67108,110.2391 116.57893,109.07167 121.25263,108.27417 z"
       id="path4263"
       sodipodi:nodetypes="ccccc" />
    <path
       style="opacity:1;fill:#ffffff;fill-opacity:0.25581396000000001;stroke:none;stroke-width:3;stroke-miterlimit:4;stroke-dasharray:none;stroke-opacity:1"
       d="M 157.63101,109.33136 C 159.07752,98.758033 175.09359,92.309063 179.59377,92.671412 C 186.18969,91.205518 187.51426,100.86842 197.59764,97.496639 C 202.67409,94.974564 205.72281,90.337306 210.06594,86.525317 C 206.63445,96.479279 198.88661,106.26658 186.82274,103.5892 C 182.41074,102.45655 177.794,101.9718 173.25527,102.5638 C 171.29066,102.8148 169.36422,103.25463 167.39253,103.43562 C 164.86331,103.87891 159.13234,107.1899 157.63101,109.33136 z"
       id="path4265"
       sodipodi:nodetypes="cccccccc" />
    <path
       style="opacity:1;fill:#000000;fill-opacity:0.21317827000000000;stroke:none;stroke-width:3;stroke-miterlimit:4;stroke-dasharray:none;stroke-opacity:1"
       d="M 105.54659,137.58834 C 101.32153,149.79781 92.075049,157.95592 79.468859,159.91593 C 72.774689,161.16852 65.946148,160.15119 59.437861,158.42865 C 42.767372,154.32531 28.764701,143.58626 16.374013,132.14392 C 22.362059,130.42056 28.349653,133.47553 33.781301,135.68574 C 41.207874,138.91055 48.607417,142.95872 56.855472,143.41771 C 70.271919,145.66969 84.472459,148.81807 97.746479,144.15616 C 101.47013,142.30715 104.76883,142.34078 105.54659,137.58834 z"
       id="path3171"
       sodipodi:nodetypes="cccccccc" />
    <path
       style="opacity:1;fill:#000000;fill-opacity:0.21317827000000000;stroke:none;stroke-width:3;stroke-miterlimit:4;stroke-dasharray:none;stroke-opacity:1"
       d="M 121.14404,141.28765 C 127.39018,141.63305 144.57726,140.45402 147.73358,133.42936 C 145.1238,131.44653 140.62028,135.4884 137.45027,135.61118 C 131.21687,137.00917 124.72288,136.99955 118.41533,136.18759 C 113.56249,139.32272 116.47034,140.49015 121.14404,141.28765 z"
       id="path3173"
       sodipodi:nodetypes="ccccc" />
    <path
       style="opacity:1;fill:#000000;fill-opacity:0.21317827000000000;stroke:none;stroke-width:3;stroke-miterlimit:4;stroke-dasharray:none;stroke-opacity:1"
       d="M 156.33899,140.52632 C 157.7855,151.09965 173.80157,157.54862 178.30175,157.18627 C 184.89767,158.65217 186.22224,148.98926 196.30562,152.36104 C 201.38207,154.88312 204.43079,159.52038 208.77392,163.33237 C 205.34243,153.3784 197.59459,143.5911 185.53072,146.26848 C 181.11872,147.40113 176.50198,147.88588 171.96325,147.29388 C 169.99864,147.04288 168.0722,146.60305 166.10051,146.42206 C 163.57129,145.97877 157.84032,142.66778 156.33899,140.52632 z"
       id="path3175"
       sodipodi:nodetypes="cccccccc" />
  </g>
</svg>
