<?xml version="1.0" encoding="UTF-8" standalone="no"?>
<!-- Created with Inkscape (http://www.inkscape.org/) -->
<svg
   xmlns:dc="http://purl.org/dc/elements/1.1/"
   xmlns:cc="http://creativecommons.org/ns#"
   xmlns:rdf="http://www.w3.org/1999/02/22-rdf-syntax-ns#"
   xmlns:svg="http://www.w3.org/2000/svg"
   xmlns="http://www.w3.org/2000/svg"
   xmlns:sodipodi="http://sodipodi.sourceforge.net/DTD/sodipodi-0.dtd"
   xmlns:inkscape="http://www.inkscape.org/namespaces/inkscape"
   width="250"
   height="250"
   id="svg2"
   sodipodi:version="0.32"
   inkscape:version="0.46"
   sodipodi:docname="tutoriallevel.svg"
   inkscape:output_extension="org.inkscape.output.svg.inkscape"
   inkscape:export-filename="P:\pidgey2\data\images\roselevelaward.png"
   inkscape:export-xdpi="92.160004"
   inkscape:export-ydpi="92.160004"
   version="1.0">
  <defs
     id="defs4">
    <inkscape:perspective
       sodipodi:type="inkscape:persp3d"
       inkscape:vp_x="0 : 125 : 1"
       inkscape:vp_y="0 : 1000 : 0"
       inkscape:vp_z="250 : 125 : 1"
       inkscape:persp3d-origin="125 : 83.333333 : 1"
       id="perspective3645" />
  </defs>
  <sodipodi:namedview
     id="base"
     pagecolor="#cb90ff"
     bordercolor="#666666"
     borderopacity="1.0"
     gridtolerance="10000"
     guidetolerance="10"
     objecttolerance="10"
     inkscape:pageopacity="0"
     inkscape:pageshadow="2"
     inkscape:zoom="2.42"
     inkscape:cx="149.70796"
     inkscape:cy="120.54294"
     inkscape:document-units="px"
     inkscape:current-layer="layer1"
     showgrid="false"
     inkscape:window-width="1680"
     inkscape:window-height="994"
     inkscape:window-x="0"
     inkscape:window-y="22" />
  <metadata
     id="metadata7">
    <rdf:RDF>
      <cc:Work
         rdf:about="">
        <dc:format>image/svg+xml</dc:format>
        <dc:type
           rdf:resource="http://purl.org/dc/dcmitype/StillImage" />
      </cc:Work>
    </rdf:RDF>
  </metadata>
  <g
     inkscape:label="Layer 1"
     inkscape:groupmode="layer"
     id="layer1">
    <g
       id="g3500"
       transform="matrix(-0.5506168,-0.621649,0.7263096,-0.6146859,90.738642,306.75183)">
      <path
         sodipodi:nodetypes="ccccc"
         id="path3249"
         d="M 104.79324,156.02692 C 74.230913,270.11192 175.1189,276.99661 134.12148,150.42395 C 127.34561,143.90664 117.2064,151.47777 108.94549,155.74875 L 108.73087,155.8976 L 104.79324,156.02692 z"
         style="opacity:1;fill:#803300;fill-opacity:1;stroke:#000000;stroke-width:4.99090862;stroke-miterlimit:4;stroke-dasharray:none;stroke-opacity:1" />
      <path
         sodipodi:nodetypes="ccccc"
         id="path3251"
         d="M 107.77623,133.90715 C 112.48796,126.93745 121.52656,126.90915 129.25543,133.97382 C 129.7744,143.51022 136.61186,148.9234 135.20346,156.29755 C 117.713,164.77627 113.64727,158.55467 104.16124,158.43356 C 105.46318,152.00998 106.31867,140.30895 107.77623,133.90715 z"
         style="opacity:1;fill:#502d16;fill-opacity:1;stroke:#000000;stroke-width:4.83731461;stroke-miterlimit:4;stroke-dasharray:none;stroke-opacity:1" />
      <path
         sodipodi:nodetypes="cccc"
         id="path3253"
         d="M 74.652436,125.18155 C 64.458452,92.237775 87.489298,26.294068 116.74586,9.0134712 C 151.79515,25.178023 175.09277,92.045965 166.78712,124.34528 C 137.24076,141.26554 103.26911,146.27025 74.652436,125.18155 z"
         style="opacity:1;fill:#917c6f;fill-opacity:1;stroke:#000000;stroke-width:4.83731461;stroke-miterlimit:4;stroke-dasharray:none;stroke-opacity:1" />
      <path
         sodipodi:nodetypes="cccccc"
         id="path3271"
         d="M 114.73395,19.548554 C 106.77434,29.328393 100.16359,40.745108 94.565207,51.423207 C 88.162638,67.475027 80.942041,83.76813 81.090067,100.9237 C 80.79585,108.51895 80.452445,117.26212 86.977718,123.27788 C 92.498207,127.64795 100.35244,129.5022 107.79909,129.69945 C 80.40036,114.64048 99.133327,58.005461 114.73395,19.548554 z"
         style="opacity:1;fill:#ffffff;fill-opacity:0.24418604;stroke:none;stroke-width:5;stroke-miterlimit:4;stroke-dasharray:none;stroke-opacity:1" />
      <path
         sodipodi:nodetypes="cccccc"
         id="path3273"
         d="M 123.61378,20.331906 C 131.57339,30.111745 138.18413,41.52846 143.78252,52.206559 C 150.18509,68.258379 157.40568,84.551481 157.25766,101.70705 C 157.55187,109.3023 157.89528,118.04547 151.37001,124.06123 C 145.84951,128.4313 137.99529,130.28555 130.54864,130.4828 C 161.03157,109.09436 138.66563,57.57651 123.61378,20.331906 z"
         style="opacity:1;fill:#000000;fill-opacity:0.24418604;stroke:none;stroke-width:5;stroke-miterlimit:4;stroke-dasharray:none;stroke-opacity:1" />
      <path
         sodipodi:nodetypes="ccccc"
         id="path3515"
         d="M 128.87356,146.43144 C 136.27084,177.42804 144.38187,190.30239 134.33536,228.73132 C 132.52063,232.11885 125.22402,239.11327 125.75373,234.77654 C 139.21634,202.11872 129.7406,180.43149 126.8695,150.64863 C 127.36164,149.17848 127.37794,146.27375 128.87356,146.43144 z"
         style="opacity:1;fill:#ffffff;fill-opacity:0.24418604;stroke:none;stroke-width:5;stroke-miterlimit:4;stroke-dasharray:none;stroke-opacity:1" />
      <path
         sodipodi:nodetypes="cccccc"
         id="path3331"
         d="M 109.51231,151.13157 C 108.78724,155.52046 107.93436,159.91035 107.78001,164.42879 C 102.44606,200.3318 103.86815,218.07153 108.68583,227.57684 C 109.0715,230.7626 111.00624,228.85655 111.13426,226.60459 C 107.19827,202.82429 114.4419,178.50563 110.74842,154.82223 C 110.44571,153.52654 110.05114,152.26559 109.51231,151.13157 z"
         style="opacity:1;fill:#000000;fill-opacity:0.24418604;stroke:none;stroke-width:5;stroke-miterlimit:4;stroke-dasharray:none;stroke-opacity:1" />
    </g>
    <g
       id="g2618"
       transform="matrix(1.7403055,-0.8306512,0.7827538,1.8094622,136.68006,-213.93805)">
      <path
         sodipodi:nodetypes="ccc"
         id="path2592"
         d="M -34.61393,116.71065 C -53.030471,115.74578 -65.385281,132.02411 -67.615481,129.90833 C -62.951701,119.13746 -49.850201,112.49453 -34.61393,116.71065 z"
         style="opacity:1;fill:#ffffff;fill-opacity:0.14534882;stroke:none;stroke-width:2;stroke-miterlimit:4;stroke-dasharray:none;stroke-opacity:1" />
      <path
         sodipodi:nodetypes="cccc"
         id="path2594"
         d="M -31.81151,127.69834 C -32.15911,126.39898 -32.79035,125.13381 -32.69837,123.75527 C -32.81691,120.04877 -30.44624,118.58732 -27.24442,117.66809 C -25.62128,117.38229 -24.05392,117.90273 -22.50262,118.31017"
         style="opacity:1;fill:none;fill-opacity:1;stroke:#000000;stroke-width:2.33899999;stroke-miterlimit:4;stroke-dasharray:none;stroke-opacity:1" />
      <path
         sodipodi:nodetypes="cccc"
         id="path2596"
         d="M -33.01741,130.22847 C -32.75535,128.9092 -32.76286,127.49532 -32.07145,126.29916 C -30.54068,122.92145 -27.76828,122.65739 -24.4897,123.2469 C -22.90723,123.70742 -21.73092,124.86663 -20.51911,125.91736"
         style="opacity:1;fill:none;fill-opacity:1;stroke:#000000;stroke-width:2.33899999;stroke-miterlimit:4;stroke-dasharray:none;stroke-opacity:1" />
      <path
         sodipodi:nodetypes="cccccccccccc"
         id="path2598"
         d="M -47.356151,117.07274 C -50.353211,116.65357 -53.398791,116.80529 -56.414261,116.781 C -59.889291,117.06871 -63.302201,117.97084 -66.599851,119.0573 C -70.361257,120.76118 -73.022896,124.2522 -74.650431,127.94393 C -75.302273,130.16194 -75.244428,132.53608 -75.161284,134.81523 C -74.773831,137.34144 -73.591631,139.76586 -71.534831,141.33568 C -68.762101,143.87746 -65.252961,145.61891 -61.615641,146.50993 C -56.167361,147.42163 -50.560361,147.83908 -45.069161,147.06283 C -41.675651,146.57521 -38.670121,144.81957 -35.69079,143.23524 C -32.66914,141.30364 -29.89849,138.26304 -29.62964,134.52753 C -29.56457,131.89594 -29.38042,129.11222 -30.66883,126.69845 C -33.39121,120.08626 -41.083721,118.53109 -47.356151,117.07274 z"
         style="opacity:1;fill:#ffcc00;fill-opacity:1;stroke:#000000;stroke-width:2.33899999;stroke-miterlimit:4;stroke-dasharray:none;stroke-opacity:1" />
      <path
         sodipodi:nodetypes="ccsssscc"
         id="path2600"
         d="M -67.625791,108.9662 C -68.371521,106.23095 -68.845291,102.81293 -68.905721,99.961092 C -65.786601,100.00412 -63.731281,99.914322 -61.949861,100.13041 C -57.669711,100.64959 -52.473281,102.2405 -48.709271,104.28682 C -45.241411,106.17214 -42.100971,108.73107 -39.519771,111.69836 C -38.112311,113.31635 -37.07185,115.20364 -36.23444,117.17498 C -35.64522,118.56207 -35.84628,120.53638 -35.81361,122.07844 C -46.994161,129.0334 -61.609821,118.08801 -67.625791,108.9662 z"
         style="opacity:1;fill:#4d4d4d;fill-opacity:1;stroke:#000000;stroke-width:2.33899999;stroke-miterlimit:4;stroke-dasharray:none;stroke-opacity:1" />
      <path
         sodipodi:nodetypes="ccccc"
         id="path2602"
         d="M -72.890078,118.69594 C -64.676901,124.34356 -64.347321,134.37425 -68.701831,142.595 C -68.049381,144.04397 -66.524191,144.09482 -64.617631,144.15197 C -59.808841,137.90553 -58.571471,124.91691 -66.601741,121.31822 C -68.426261,119.87854 -70.790068,119.5469 -72.890078,118.69594 z"
         style="opacity:1;fill:#000000;fill-opacity:1;stroke:#000000;stroke-width:2.34573269;stroke-miterlimit:4;stroke-dasharray:none;stroke-opacity:1" />
      <path
         sodipodi:nodetypes="ccccc"
         id="path2604"
         d="M -60.381551,121.03434 C -52.168371,126.68196 -52.293841,137.67307 -56.648351,145.89383 C -55.995901,147.34279 -54.015661,146.43322 -52.109101,146.49036 C -46.968131,139.84655 -46.423031,126.21755 -54.598611,122.24115 C -56.423131,120.80147 -58.281541,121.8853 -60.381551,121.03434 z"
         style="opacity:1;fill:#000000;fill-opacity:1;stroke:#000000;stroke-width:2.34573269;stroke-miterlimit:4;stroke-dasharray:none;stroke-opacity:1" />
      <path
         sodipodi:nodetypes="ccccc"
         id="path2606"
         d="M -48.207211,119.74176 C -39.631661,125.26 -38.941561,137.60902 -45.225701,146.51875 C -44.573241,147.96771 -41.841321,145.14065 -39.934771,145.19779 C -34.79379,138.55397 -34.24869,124.92498 -42.424271,120.94857 C -44.248791,119.50889 -46.107201,120.59272 -48.207211,119.74176 z"
         style="opacity:1;fill:#000000;fill-opacity:1;stroke:#000000;stroke-width:2.34573269;stroke-miterlimit:4;stroke-dasharray:none;stroke-opacity:1" />
      <path
         sodipodi:nodetypes="cscccscc"
         id="path2608"
         d="M -40.990231,124.5651 C -46.354661,125.75672 -51.380361,125.48741 -56.826151,125.05914 C -61.343151,124.70391 -66.138141,123.14808 -70.066737,120.90272 C -75.355475,117.66825 -78.261119,112.31711 -79.8791,106.53197 C -74.758582,105.318 -66.809441,107.22238 -60.993431,107.87487 C -56.280681,108.29765 -51.494511,109.74588 -47.132701,111.38429 C -44.266161,112.46104 -42.149521,113.98513 -39.749291,115.82329 C -34.38973,121.63535 -32.08113,122.2654 -40.990231,124.5651 z"
         style="opacity:1;fill:#808080;fill-opacity:1;stroke:#000000;stroke-width:2.33899999;stroke-miterlimit:4;stroke-dasharray:none;stroke-opacity:1" />
      <path
         sodipodi:nodetypes="cccc"
         id="path2610"
         d="M -74.647207,128.13067 C -78.586478,131.01727 -83.499562,131.35012 -88.195148,131.90396 C -84.945787,133.11248 -79.530354,133.49036 -75.614985,134.80666 C -75.607286,132.53189 -74.838245,130.39443 -74.647207,128.13067 z"
         style="opacity:1;fill:#000000;fill-opacity:1;stroke:none;stroke-width:2.33899999;stroke-miterlimit:4;stroke-dasharray:none;stroke-opacity:1" />
      <path
         id="path2612"
         d="M -41.110361,144.50205 C -39.366461,144.59515 -36.57451,145.53871 -34.45636,146.24476 C -33.48297,146.56923 -33.07899,148.26884 -32.87208,149.09647"
         style="opacity:1;fill:none;fill-opacity:1;stroke:#000000;stroke-width:2.33899999;stroke-miterlimit:4;stroke-dasharray:none;stroke-opacity:1" />
      <path
         id="path2614"
         d="M -46.021641,147.19534 C -44.788931,147.60624 -43.596441,148.42218 -42.853071,149.41334 C -42.463961,149.93215 -42.536211,151.14651 -42.536211,151.78976"
         style="opacity:1;fill:none;fill-opacity:1;stroke:#000000;stroke-width:2.33899999;stroke-miterlimit:4;stroke-dasharray:none;stroke-opacity:1" />
      <path
         id="path2616"
         d="M -54.981961,147.26542 C -54.481211,148.16822 -53.537861,148.50999 -53.537861,150.38964 C -53.537861,150.78018 -53.537861,151.17071 -53.537861,151.56123"
         style="opacity:1;fill:none;fill-opacity:1;stroke:#000000;stroke-width:2.47917938;stroke-miterlimit:4;stroke-dasharray:none;stroke-opacity:1" />
    </g>
  </g>
</svg>
