<?xml version="1.0" encoding="UTF-8" standalone="no"?>
<!-- Created with Inkscape (http://www.inkscape.org/) -->
<svg
   xmlns:dc="http://purl.org/dc/elements/1.1/"
   xmlns:cc="http://creativecommons.org/ns#"
   xmlns:rdf="http://www.w3.org/1999/02/22-rdf-syntax-ns#"
   xmlns:svg="http://www.w3.org/2000/svg"
   xmlns="http://www.w3.org/2000/svg"
   xmlns:sodipodi="http://sodipodi.sourceforge.net/DTD/sodipodi-0.dtd"
   xmlns:inkscape="http://www.inkscape.org/namespaces/inkscape"
   width="250"
   height="250"
   id="svg2"
   sodipodi:version="0.32"
   inkscape:version="0.46"
   sodipodi:docname="waspthick.svg"
   inkscape:output_extension="org.inkscape.output.svg.inkscape"
   inkscape:export-filename="P:\pidgey2\data\images\wasp.png"
   inkscape:export-xdpi="92.160004"
   inkscape:export-ydpi="92.160004"
   version="1.0">
  <defs
     id="defs4">
    <inkscape:perspective
       sodipodi:type="inkscape:persp3d"
       inkscape:vp_x="0 : 125 : 1"
       inkscape:vp_y="0 : 1000 : 0"
       inkscape:vp_z="250 : 125 : 1"
       inkscape:persp3d-origin="125 : 83.333333 : 1"
       id="perspective12" />
  </defs>
  <sodipodi:namedview
     id="base"
     pagecolor="#cb90ff"
     bordercolor="#666666"
     borderopacity="1.0"
     gridtolerance="10000"
     guidetolerance="10"
     objecttolerance="10"
     inkscape:pageopacity="0"
     inkscape:pageshadow="2"
     inkscape:zoom="2.231629"
     inkscape:cx="78.422053"
     inkscape:cy="85.823823"
     inkscape:document-units="px"
     inkscape:current-layer="layer1"
     showgrid="false"
     inkscape:window-width="1680"
     inkscape:window-height="994"
     inkscape:window-x="0"
     inkscape:window-y="22" />
  <metadata
     id="metadata7">
    <rdf:RDF>
      <cc:Work
         rdf:about="">
        <dc:format>image/svg+xml</dc:format>
        <dc:type
           rdf:resource="http://purl.org/dc/dcmitype/StillImage" />
      </cc:Work>
    </rdf:RDF>
  </metadata>
  <g
     inkscape:label="Layer 1"
     inkscape:groupmode="layer"
     id="layer1">
    <path
       style="opacity:1;fill:#aa8800;fill-opacity:1;stroke:#000000;stroke-width:3;stroke-miterlimit:4;stroke-dasharray:none;stroke-opacity:1"
       d="M 185.51388,104.63103 C 234.1019,87.938356 239.46593,162.73296 192.98966,157.55393 C 189.07592,156.95866 184.94289,156.65374 181.32414,154.92666 C 177.65814,150.93365 183.29123,146.13515 183.14561,141.61684 C 184.76971,133.37393 184.39089,124.72283 181.87156,116.72368 C 180.38542,112.2609 181.80088,107.32067 185.51388,104.63103 z"
       id="path2544"
       sodipodi:nodetypes="cccccc" />
    <path
       style="opacity:1;fill:#aa8800;fill-opacity:1;stroke:#000000;stroke-width:3;stroke-miterlimit:4;stroke-dasharray:none;stroke-opacity:1"
       d="M 15.177938,131.62325 C 51.273473,149.94011 72.616529,178.28563 117.74067,163.36737 C 139.48382,152.14469 147.118,119.66639 130.68236,100.88407 C 84.434856,61.724666 52.869459,109.82067 15.177938,131.62325 z"
       id="path2525"
       sodipodi:nodetypes="cccc" />
    <path
       style="opacity:1;fill:#28170b;fill-opacity:1;stroke:#000000;stroke-width:3;stroke-miterlimit:4;stroke-dasharray:none;stroke-opacity:1"
       d="M 125.28517,147.63166 C 181.58446,211.40463 221.85684,96.670077 158.65867,94.064598 C 122.82043,92.58708 107.9206,127.96197 125.28517,147.63166 z"
       id="path2536"
       sodipodi:nodetypes="css" />
    <path
       style="opacity:1;fill:#000000;fill-opacity:1;stroke:#000000;stroke-width:3;stroke-miterlimit:4;stroke-dasharray:none;stroke-opacity:1"
       d="M 109.61682,89.988231 C 111.83467,92.169267 116.45964,89.496847 116.80395,92.810237 C 99.580702,119.69921 102.24922,144.02969 112.91308,163.74342 C 107.12227,163.73708 108.40265,166.39289 105.43945,165.53895 C 96.830153,147.17564 91.092365,114.19932 109.61682,89.988231 z"
       id="path4772"
       sodipodi:nodetypes="ccccc" />
    <path
       style="opacity:1;fill:#4d4d4d;fill-opacity:1;stroke:#000000;stroke-width:3;stroke-miterlimit:4;stroke-dasharray:none;stroke-opacity:1"
       d="M 182.47983,155.90322 C 157.33594,162.14571 140.08754,183.38045 116.89201,193.67344 C 102.6087,200.50493 88.966226,209.36372 73.071362,211.98282 C 61.203738,214.13343 49.173865,215.9591 37.144083,216.5711 C 30.545502,215.84219 17.589121,216.68857 14.969203,215.406 C 22.478268,211.30108 30.186315,207.59239 37.594069,203.30083 C 55.643823,190.86788 74.891844,180.93258 94.432958,171.05567 C 111.63585,160.45476 125.17645,157.65664 144.41243,155.0444 C 157.09852,153.80398 169.79597,155.76043 182.47983,155.90322 z"
       id="path4779"
       sodipodi:nodetypes="ccccccccc" />
    <path
       style="opacity:1;fill:none;fill-opacity:1;stroke:#000000;stroke-width:3;stroke-miterlimit:4;stroke-dasharray:none;stroke-opacity:1"
       d="M 221.70473,115.18064 C 226.90633,112.83984 231.75875,109.46008 237.58768,108.90717 C 240.83502,108.19673 243.57672,109.92945 245.82157,112.00738"
       id="path2388" />
    <path
       style="opacity:1;fill:none;fill-opacity:1;stroke:#000000;stroke-width:3;stroke-miterlimit:4;stroke-dasharray:none;stroke-opacity:1"
       d="M 222.49342,139.407 C 227.69501,141.74781 232.54744,145.12758 238.37637,145.68047 C 241.62371,146.39091 244.3654,144.6582 246.61025,142.58027"
       id="path2394" />
    <path
       style="opacity:1;fill:#000000;fill-opacity:1;stroke:#000000;stroke-width:3;stroke-miterlimit:4;stroke-dasharray:none;stroke-opacity:1"
       d="M 87.08886,88.234698 C 89.306712,90.415733 91.528587,87.503006 96.679098,87.452058 C 79.455842,114.34102 79.961573,145.40017 90.625427,165.11391 C 84.83462,165.10756 85.87468,166.32153 82.911496,165.46759 C 74.302191,147.10427 68.564406,112.44578 87.08886,88.234698 z"
       id="path3171"
       sodipodi:nodetypes="ccccc" />
    <path
       style="opacity:1;fill:#000000;fill-opacity:1;stroke:#000000;stroke-width:3;stroke-miterlimit:4;stroke-dasharray:none;stroke-opacity:1"
       d="M 59.453236,101.93235 C 61.671087,104.11339 65.334822,97.355701 68.322543,96.103211 C 55.38156,123.38147 58.858452,140.59799 66.83476,160.06741 C 61.043954,160.06106 61.603394,157.91068 58.640209,157.05675 C 53.183999,139.62081 48.295245,128.31004 59.453236,101.93235 z"
       id="path3173"
       sodipodi:nodetypes="ccccc" />
    <path
       style="opacity:1;fill:#000000;fill-opacity:1;stroke:#000000;stroke-width:3;stroke-miterlimit:4;stroke-dasharray:none;stroke-opacity:1"
       d="M 15.81774,131.08866 C 18.726803,130.28384 21.505488,129.05045 24.302021,127.93404 C 32.370421,124.24943 28.432016,124.10319 34.976298,118.22375 C 31.659158,122.76071 32.14816,137.46906 34.719653,141.11244 C 30.628109,139.3502 30.266559,138.22462 28.520266,136.81973 C 26.248084,135.12329 23.774097,133.747 21.31982,132.34033 C 19.527774,131.92521 17.685615,130.57889 15.81774,131.08866 z"
       id="path3175"
       sodipodi:nodetypes="ccccccc" />
    <path
       style="opacity:1;fill:#ffffff;fill-opacity:0.25581396000000001;stroke:none;stroke-width:3;stroke-miterlimit:4;stroke-dasharray:none;stroke-opacity:1"
       d="M 135.14132,110.92623 C 130.73592,111.91231 123.6776,113.13239 124.1608,116.22527 C 133.18789,118.89874 184.1188,119.75026 185.49179,115.35087 C 186.14183,112.391 182.36965,110.15269 177.30693,109.9671 C 163.69067,107.72636 148.88673,109.47671 135.14132,110.92623 z"
       id="path3186"
       sodipodi:nodetypes="ccccc" />
    <path
       style="opacity:1;fill:#ffffff;fill-opacity:0.33720930999999998;stroke:none;stroke-width:3;stroke-miterlimit:4;stroke-dasharray:none;stroke-opacity:1"
       d="M 194.24983,119.0406 C 198.37022,119.71509 202.7847,119.38606 207.03513,119.57556 C 224.96799,119.87821 216.24509,111.32449 202.3504,109.28726 C 193.71821,106.93858 191.81675,115.34952 194.24983,119.0406 z"
       id="path3191"
       sodipodi:nodetypes="cccc" />
    <path
       style="opacity:1;fill:#ffffff;fill-opacity:0.34302326000000000;stroke:none;stroke-width:3;stroke-miterlimit:4;stroke-dasharray:none;stroke-opacity:1"
       d="M 115.23104,109.53573 C 89.543883,86.697515 73.513775,103.75826 46.683491,112.91997 C 43.736396,114.47788 38.826588,119.70112 41.259661,121.98267 C 55.098041,110.36802 107.16248,122.90779 117.35712,111.22197 C 116.887,110.42128 116.10649,109.82978 115.23104,109.53573 z"
       id="path3200"
       sodipodi:nodetypes="ccccc" />
    <path
       style="opacity:1;fill:#ffffff;fill-opacity:0.33720930999999998;stroke:none;stroke-width:3;stroke-miterlimit:4;stroke-dasharray:none;stroke-opacity:1"
       d="M 66.68062,197.78264 C 76.949935,191.95656 87.947024,187.15221 96.871305,179.2852 C 77.294319,181.12763 44.43449,202.06821 29.002249,213.62854 C 52.62446,207.97892 58.869549,201.98449 66.68062,197.78264 z"
       id="path3224"
       sodipodi:nodetypes="cccc" />
    <path
       style="opacity:1;fill:#000000;fill-opacity:0.33720930999999998;stroke:none;stroke-width:3;stroke-miterlimit:4;stroke-dasharray:none;stroke-opacity:1"
       d="M 136.05787,171.45636 C 125.96161,177.57744 118.0549,184.46649 109.36222,192.58871 C 133.30693,180.26227 158.18843,165.28003 165.74621,157.86618 C 151.53703,160.55366 143.74395,167.03002 136.05787,171.45636 z"
       id="path3228"
       sodipodi:nodetypes="cccc" />
    <path
       style="opacity:1;fill:#4d4d4d;fill-opacity:1;stroke:#000000;stroke-width:3;stroke-miterlimit:4;stroke-dasharray:none;stroke-opacity:1"
       d="M 175.6653,103.00811 C 150.49118,96.888613 133.1392,75.738422 109.89365,65.558952 C 95.577115,58.797354 81.891488,50.005364 65.984012,47.463989 C 54.106016,45.371405 42.06737,43.604566 30.034741,43.051375 C 23.439796,43.812528 10.479431,43.029498 7.8658156,44.32486 C 15.394857,48.39302 23.120942,52.063996 30.549585,56.319289 C 48.659895,68.663851 67.956249,78.504958 87.54541,88.28623 C 104.7999,98.802915 118.35402,101.53482 137.60254,104.05301 C 150.29454,105.2314 162.98229,103.21289 175.6653,103.00811 z"
       id="path4774"
       sodipodi:nodetypes="ccccccccc" />
    <path
       style="opacity:1;fill:#000000;fill-opacity:0.33720930999999998;stroke:none;stroke-width:3;stroke-miterlimit:4;stroke-dasharray:none;stroke-opacity:1"
       d="M 151.45753,99.493027 C 142.65051,100.35208 133.66524,99.747489 125.23188,96.971404 C 112.85866,94.157329 99.701231,90.771189 90.358556,81.647999 C 88.068919,78.761819 95.798509,82.524942 97.784511,82.840465 C 111.10308,87.300431 125.12159,89.984139 138.0305,95.596264 C 142.36655,96.912817 146.81142,100.53324 151.45753,99.493027 z"
       id="path3167"
       sodipodi:nodetypes="cccccc" />
    <path
       style="opacity:1;fill:#ffffff;fill-opacity:0.33720930999999998;stroke:none;stroke-width:3;stroke-miterlimit:4;stroke-dasharray:none;stroke-opacity:1"
       d="M 31.063717,47.672431 C 36.660403,50.365048 47.2883,54.183484 52.849077,57.050896 C 67.204579,63.388332 86.042136,66.401248 101.46478,68.577781 C 97.310091,57.5189 46.189461,47.95747 31.063717,47.672431 z"
       id="path3174"
       sodipodi:nodetypes="cccc" />
    <path
       style="opacity:1;fill:#000000;fill-opacity:0.33720930999999998;stroke:none;stroke-width:3;stroke-miterlimit:4;stroke-dasharray:none;stroke-opacity:1"
       d="M 180.25253,140.76586 C 178.75503,138.49858 112.97755,130.87924 135.36761,150.02263 C 144.53908,151.04561 153.70063,148.22228 162.9251,149.09357 C 168.9495,147.62964 178.75978,152.06772 182.47517,145.87535 C 182.10844,143.94529 180.86239,142.55602 180.25253,140.76586 z"
       id="path3187"
       sodipodi:nodetypes="ccccc" />
    <path
       style="opacity:1;fill:#000000;fill-opacity:0.33720930999999998;stroke:none;stroke-width:3;stroke-miterlimit:4;stroke-dasharray:none;stroke-opacity:1"
       d="M 216.5351,142.7898 C 212.77352,147.15935 207.96581,150.00864 202.91132,150.92389 C 200.14112,151.69715 197.17605,151.35241 194.55122,149.99741 C 193.0754,148.10842 192.7862,144.38119 194.74487,142.81145 C 196.76654,140.68826 199.5305,141.35862 201.9227,140.63929 C 204.3085,140.27449 206.72486,140.6692 209.1084,140.15745 C 211.71168,139.80167 214.83205,139.80525 216.5351,142.7898 z"
       id="path3201" />
    <path
       style="opacity:1;fill:#000000;fill-opacity:0.33720930999999998;stroke:none;stroke-width:3;stroke-miterlimit:4;stroke-dasharray:none;stroke-opacity:1"
       d="M 112.1673,151.09542 C 100.76616,158.64328 86.870395,157.80823 74.207625,156.22565 C 67.186228,154.15808 60.212673,151.49551 53.539037,148.24854 C 48.968595,144.81105 42.757649,142.34716 39.07927,138.52065 C 43.396231,134.38374 49.232623,140.22704 53.929615,141.25004 C 60.641894,144.03331 67.743462,144.53461 74.832081,144.73399 C 83.969458,145.56964 93.118237,144.7966 102.25174,144.3556 C 106.45457,145.79028 116.50608,141.69076 116.50873,148.27138 C 115.39269,149.74304 113.67866,150.31893 112.1673,151.09542 z"
       id="path3181" />
  </g>
</svg>
