<?xml version="1.0" encoding="UTF-8" standalone="no"?>
<!-- Created with Inkscape (http://www.inkscape.org/) -->
<svg
   xmlns:dc="http://purl.org/dc/elements/1.1/"
   xmlns:cc="http://creativecommons.org/ns#"
   xmlns:rdf="http://www.w3.org/1999/02/22-rdf-syntax-ns#"
   xmlns:svg="http://www.w3.org/2000/svg"
   xmlns="http://www.w3.org/2000/svg"
   xmlns:sodipodi="http://sodipodi.sourceforge.net/DTD/sodipodi-0.dtd"
   xmlns:inkscape="http://www.inkscape.org/namespaces/inkscape"
   width="250"
   height="250"
   id="svg2"
   sodipodi:version="0.32"
   inkscape:version="0.46"
   sodipodi:docname="woodlouse.svg"
   inkscape:output_extension="org.inkscape.output.svg.inkscape"
   inkscape:export-filename="P:\pidgey2\data\images\woodlouse.png"
   inkscape:export-xdpi="92.160004"
   inkscape:export-ydpi="92.160004"
   version="1.0">
  <defs
     id="defs4">
    <inkscape:perspective
       sodipodi:type="inkscape:persp3d"
       inkscape:vp_x="0 : 125 : 1"
       inkscape:vp_y="0 : 1000 : 0"
       inkscape:vp_z="250 : 125 : 1"
       inkscape:persp3d-origin="125 : 83.333333 : 1"
       id="perspective3645" />
  </defs>
  <sodipodi:namedview
     id="base"
     pagecolor="#cb90ff"
     bordercolor="#666666"
     borderopacity="1.0"
     gridtolerance="10000"
     guidetolerance="10"
     objecttolerance="10"
     inkscape:pageopacity="0"
     inkscape:pageshadow="2"
     inkscape:zoom="2.3900209"
     inkscape:cx="74.328222"
     inkscape:cy="122.32971"
     inkscape:document-units="px"
     inkscape:current-layer="layer1"
     showgrid="false"
     inkscape:window-width="1680"
     inkscape:window-height="994"
     inkscape:window-x="0"
     inkscape:window-y="22"
     showguides="true"
     inkscape:guide-bbox="true" />
  <metadata
     id="metadata7">
    <rdf:RDF>
      <cc:Work
         rdf:about="">
        <dc:format>image/svg+xml</dc:format>
        <dc:type
           rdf:resource="http://purl.org/dc/dcmitype/StillImage" />
      </cc:Work>
    </rdf:RDF>
  </metadata>
  <g
     inkscape:label="Layer 1"
     inkscape:groupmode="layer"
     id="layer1">
    <path
       style="opacity:1;fill:#483737;fill-opacity:1;stroke:#000000;stroke-width:3;stroke-miterlimit:4;stroke-dasharray:none;stroke-opacity:1"
       d="M 23.849917,95.89374 C 11.226677,96.070968 2.1336102,110.33092 4.5346815,121.50361 C 6.2982434,127.67875 8.2769831,134.53305 14.52083,137.94095 C 19.100613,142.42416 25.785672,139.8991 23.298634,133.47976 C 23.614162,128.86443 24.979658,124.28305 24.815868,119.57422 C 24.984168,112.4873 25.103792,105.41465 25.86037,98.37801 C 25.905779,97.24028 25.364738,95.647358 23.849917,95.89374 z"
       id="path3191"
       sodipodi:nodetypes="ccccccc" />
    <path
       style="opacity:1;fill:#483737;fill-opacity:1;stroke:#000000;stroke-width:3;stroke-miterlimit:4;stroke-dasharray:none;stroke-opacity:1"
       d="M 49.697787,86.190433 C 43.842513,105.52667 43.79056,126.43621 46.341325,146.3987 C 46.056196,148.68272 48.175025,152.4374 44.260622,153.19086 C 36.400422,150.23863 30.060211,145.07216 22.371403,152.96182 C 18.891321,150.45844 19.565784,146.21548 18.569763,142.82605 C 18.555473,122.64602 15.029222,101.54603 26.775047,83.098481 C 30.150165,91.228369 46.19536,83.087272 49.697787,86.190433 z"
       id="path3186"
       sodipodi:nodetypes="ccccccc" />
    <path
       style="opacity:1;fill:#483737;fill-opacity:1;stroke:#000000;stroke-width:3;stroke-miterlimit:4;stroke-dasharray:none;stroke-opacity:1"
       d="M 73.585666,76.130757 C 64.203752,105.08193 74.079707,133.22405 68.246686,162.08722 C 60.024797,156.76597 52.873589,162.33106 46.21073,165.95368 C 42.79348,162.74203 43.997766,153.13835 43.019722,148.78997 C 43.005689,122.90051 40.08512,93.334662 51.618841,69.667844 C 54.323061,73.584149 67.06117,76.153539 73.585666,76.130757 z"
       id="path3184"
       sodipodi:nodetypes="cccccc" />
    <path
       style="opacity:1;fill:#483737;fill-opacity:1;stroke:#000000;stroke-width:3;stroke-miterlimit:4;stroke-dasharray:none;stroke-opacity:1"
       d="M 100.8444,73.632275 C 102.28477,100.78618 111.27276,154.63211 94.856219,163.84094 C 86.711197,161.18451 78.438405,163.06698 70.444702,168.18973 C 66.611932,164.81921 67.658705,154.44936 66.561725,149.88587 C 66.545987,122.71569 62.662384,89.067587 75.598576,64.229992 C 78.38862,69.179246 91.209779,75.326141 100.8444,73.632275 z"
       id="path3182"
       sodipodi:nodetypes="cccccc" />
    <path
       style="opacity:1;fill:#483737;fill-opacity:1;stroke:#000000;stroke-width:3;stroke-miterlimit:4;stroke-dasharray:none;stroke-opacity:1"
       d="M 129.1116,72.904591 C 127.78013,78.744026 126.54099,84.90626 125.4071,90.788041 C 122.89074,111.78817 123.21743,133.2347 125.41497,154.25944 C 125.10095,157.3346 131.99373,161.22559 127.68263,162.24004 C 119.53665,159.66902 106.59085,164.37115 97.800059,170.37277 C 88.58149,141.10098 93.715537,89.325618 103.86577,61.755872 C 107.93746,68.133979 121.38729,69.507251 129.1116,72.904591 z"
       id="path3180"
       sodipodi:nodetypes="ccccccc" />
    <path
       style="opacity:1;fill:#483737;fill-opacity:1;stroke:#000000;stroke-width:3;stroke-miterlimit:4;stroke-dasharray:none;stroke-opacity:1"
       d="M 157.39839,74.041448 C 144.8874,104.83423 146.60745,131.97596 153.41948,159.71966 C 150.74116,158.60582 127.78612,164.82498 127.53017,166.22912 C 114.24182,138.42214 118.55938,95.168476 131.51626,65.93917 C 135.02407,67.311657 155.09705,74.870263 157.39839,74.041448 z"
       id="path3178"
       sodipodi:nodetypes="ccccc" />
    <path
       style="opacity:1;fill:#483737;fill-opacity:1;stroke:#000000;stroke-width:3;stroke-miterlimit:4;stroke-dasharray:none;stroke-opacity:1"
       d="M 183.72676,83.66868 C 175.76934,119.52117 179.48817,121.89153 179.2424,156.15388 C 173.02099,151.60587 157.78933,163.68117 155.09502,165.86274 C 139.13091,149.15502 146.91848,81.073873 160.25786,68.667008 C 164.30198,71.406063 176.83766,81.709414 183.72676,83.66868 z"
       id="path3175"
       sodipodi:nodetypes="ccccc" />
    <path
       style="opacity:1;fill:#483737;fill-opacity:1;stroke:#000000;stroke-width:3;stroke-miterlimit:4;stroke-dasharray:none;stroke-opacity:1"
       d="M 209.26449,98.95637 C 203.85728,113.222 204.27462,129.94571 204.80222,144.98596 C 195.51748,148.02773 184.12243,152.40589 180.01401,158.99933 C 170.54805,143.30785 176.56702,93.197995 184.61969,78.393591 C 189.0334,84.506298 203.76456,91.995266 209.26449,98.95637 z"
       id="path3188"
       sodipodi:nodetypes="ccccc" />
    <path
       style="opacity:1;fill:#483e37;fill-opacity:1;stroke:#000000;stroke-width:3;stroke-miterlimit:4;stroke-dasharray:none;stroke-opacity:1"
       d="M 204.11115,94.474151 C 211.10339,95.63802 216.99,100.90591 219.76515,107.4815 C 225.54657,122.38192 221.09481,141.25736 204.37657,144.67326 C 202.18127,143.8193 201.80057,140.81107 200.79321,138.87331 C 197.46574,129.26832 198.39671,118.7747 200.31109,108.96765 C 201.2933,104.06338 202.63071,99.24263 204.11115,94.474151 z"
       id="path3198"
       sodipodi:nodetypes="cccccc" />
    <path
       style="opacity:1;fill:none;fill-opacity:1;stroke:#000000;stroke-width:3;stroke-miterlimit:4;stroke-dasharray:none;stroke-opacity:1"
       d="M 211.69001,106.95451 C 226.81922,106.11137 234.30845,90.659185 248.16383,86.870481"
       id="path3207" />
    <path
       style="opacity:1;fill:none;fill-opacity:1;stroke:#000000;stroke-width:3;stroke-miterlimit:4;stroke-dasharray:none;stroke-opacity:1"
       d="M 247.32492,148.50223 C 232.1957,147.6591 224.70648,132.20691 210.85112,128.4182"
       id="path3222"
       sodipodi:nodetypes="cc" />
    <path
       style="opacity:1;fill:#ffffff;fill-opacity:0.16279068999999999;stroke:none;stroke-width:3;stroke-miterlimit:4;stroke-dasharray:none;stroke-opacity:1"
       d="M 199.37239,95.627758 C 196.66825,92.930201 194.53348,89.611719 191.35828,87.420188 C 189.68818,86.579887 187.67176,87.308867 186.29667,88.381981 C 185.07107,89.40711 186.14727,90.911947 187.01385,91.74899 C 188.26207,92.917788 189.5544,94.057346 190.93199,95.068364 C 192.72834,96.210662 194.69969,97.065172 196.44053,98.293015 C 197.9697,98.713845 198.63937,96.555372 199.37239,95.627758 z"
       id="path3224" />
    <path
       style="opacity:1;fill:#ffffff;fill-opacity:0.16279068999999999;stroke:none;stroke-width:3;stroke-miterlimit:4;stroke-dasharray:none;stroke-opacity:1"
       d="M 176.47755,85.83185 C 173.10921,82.984366 170.45009,79.481448 166.49498,77.168115 C 164.41466,76.281111 161.90296,77.050607 160.19012,78.183363 C 158.66348,79.265467 160.00402,80.853941 161.08345,81.737505 C 162.63827,82.971263 164.24802,84.174156 165.96398,85.241365 C 168.20156,86.447151 170.65712,87.349153 172.82555,88.645238 C 174.73033,89.089457 175.56448,86.811019 176.47755,85.83185 z"
       id="path3230" />
    <path
       style="opacity:1;fill:#ffffff;fill-opacity:0.16279068999999999;stroke:none;stroke-width:3;stroke-miterlimit:4;stroke-dasharray:none;stroke-opacity:1"
       d="M 149.60727,76.154701 C 145.40232,74.823447 141.59959,72.614239 137.05873,72.001862 C 134.79727,71.984114 132.77541,73.661263 131.63068,75.366125 C 130.6383,76.952556 132.48705,77.90251 133.82344,78.302409 C 135.7334,78.842493 137.68217,79.332944 139.67673,79.65728 C 142.20605,79.908697 144.8196,79.795825 147.31987,80.157203 C 149.24885,79.833874 149.14154,77.409916 149.60727,76.154701 z"
       id="path3232" />
    <path
       style="opacity:1;fill:#ffffff;fill-opacity:0.16279068999999999;stroke:none;stroke-width:3;stroke-miterlimit:4;stroke-dasharray:none;stroke-opacity:1"
       d="M 123.14471,75.181372 C 118.93976,73.850118 115.13703,71.64091 110.59617,71.028533 C 108.33471,71.010785 106.31285,72.687934 105.16812,74.392796 C 104.17574,75.979227 106.02449,76.929181 107.36088,77.32908 C 109.27084,77.869164 111.21961,78.359615 113.21417,78.683951 C 115.74349,78.935368 118.35704,78.822496 120.85731,79.183874 C 122.78629,78.860545 122.67898,76.436587 123.14471,75.181372 z"
       id="path3234" />
    <path
       style="opacity:1;fill:#ffffff;fill-opacity:0.16279068999999999;stroke:none;stroke-width:3;stroke-miterlimit:4;stroke-dasharray:none;stroke-opacity:1"
       d="M 92.391841,78.947029 C 88.186891,77.615775 84.384161,75.406567 79.843301,74.79419 C 77.581841,74.776442 75.559981,76.453591 74.415251,78.158453 C 73.422871,79.744884 75.271621,80.694838 76.608011,81.094737 C 78.517971,81.634821 80.466741,82.125272 82.461301,82.449608 C 84.990621,82.701025 87.604171,82.588153 90.104441,82.949531 C 92.033421,82.626202 91.926111,80.202244 92.391841,78.947029 z"
       id="path3236" />
    <path
       style="opacity:1;fill:#ffffff;fill-opacity:0.16279068999999999;stroke:none;stroke-width:3;stroke-miterlimit:4;stroke-dasharray:none;stroke-opacity:1"
       d="M 66.241444,79.871074 C 62.662849,78.847162 59.42656,77.147986 55.562091,76.676987 C 53.637491,76.663336 51.9168,77.953287 50.942585,79.264554 C 50.098027,80.48473 51.671393,81.215372 52.808719,81.522947 C 54.434178,81.938344 56.092666,82.315566 57.790123,82.565024 C 59.942684,82.758397 62.166929,82.671583 64.294767,82.949531 C 65.936413,82.700848 65.845087,80.836501 66.241444,79.871074 z"
       id="path3238" />
    <path
       style="opacity:1;fill:#ffffff;fill-opacity:0.16279068999999999;stroke:none;stroke-width:3;stroke-miterlimit:4;stroke-dasharray:none;stroke-opacity:1"
       d="M 41.473832,89.941307 C 37.756612,89.748933 34.220965,88.821586 30.349622,89.232274 C 28.471311,89.652059 27.085024,91.296126 26.430865,92.792987 C 25.882539,94.171916 27.579966,94.529771 28.757335,94.573529 C 30.434581,94.612501 32.135418,94.606845 33.845474,94.467933 C 35.986342,94.171964 38.134005,93.586863 40.269816,93.378863 C 41.813398,92.767145 41.304887,90.971164 41.473832,89.941307 z"
       id="path3240" />
    <path
       style="opacity:1;fill:#ffffff;fill-opacity:0.16279068999999999;stroke:none;stroke-width:3;stroke-miterlimit:4;stroke-dasharray:none;stroke-opacity:1"
       d="M 16.372359,102.2822 C 14.669268,103.28501 12.75787,103.81251 11.223451,105.20685 C 10.56533,106.00966 10.602105,107.36633 10.901826,108.41949 C 11.201709,109.37341 12.085142,109.07013 12.617843,108.74267 C 13.367565,108.2628 14.110137,107.75031 14.80457,107.15874 C 15.626143,106.34823 16.337472,105.37009 17.191277,104.61147 C 17.627657,103.79896 16.701673,102.92261 16.372359,102.2822 z"
       id="path3242" />
    <path
       style="opacity:1;fill:#000000;fill-opacity:0.16279068999999999;stroke:none;stroke-width:3;stroke-miterlimit:4;stroke-dasharray:none;stroke-opacity:1"
       d="M 196.59019,143.83014 C 193.16353,145.5175 190.07693,147.97564 186.36646,149.03259 C 184.51505,149.29264 182.83912,147.95525 181.88101,146.49769 C 181.04911,145.13354 182.55122,144.05354 183.64054,143.53878 C 185.19777,142.83224 186.78739,142.16756 188.41653,141.65197 C 190.4844,141.1464 192.62569,140.96955 194.66844,140.36513 C 196.25179,140.45716 196.19354,142.71639 196.59019,143.83014 z"
       id="path3244"
       inkscape:transform-center-x="-3.1380478"
       inkscape:transform-center-y="-4.3500279" />
    <path
       style="opacity:1;fill:#000000;fill-opacity:0.16279068999999999;stroke:none;stroke-width:3;stroke-miterlimit:4;stroke-dasharray:none;stroke-opacity:1"
       d="M 173.65756,152.12649 C 169.47592,153.52925 165.71142,155.80299 161.18167,156.49271 C 158.92084,156.54903 156.87067,154.9066 155.69703,153.2215 C 154.67774,151.65223 156.51003,150.67089 157.8394,150.24825 C 159.73987,149.67567 161.67999,149.15206 163.66873,148.79376 C 166.1934,148.49925 168.80849,148.56753 171.30223,148.16357 C 173.23645,148.45396 173.1705,150.8794 173.65756,152.12649 z"
       id="path3246" />
    <path
       style="opacity:1;fill:#000000;fill-opacity:0.16279068999999999;stroke:none;stroke-width:3;stroke-miterlimit:4;stroke-dasharray:none;stroke-opacity:1"
       d="M 147.08297,157.19669 C 142.87802,158.52794 139.07529,160.73715 134.53443,161.34953 C 132.27297,161.36727 130.25111,159.69012 129.10638,157.98526 C 128.114,156.39883 129.96275,155.44888 131.29914,155.04898 C 133.2091,154.50889 135.15787,154.01844 137.15243,153.69411 C 139.68175,153.44269 142.2953,153.55556 144.79557,153.19418 C 146.72455,153.51751 146.61724,155.94147 147.08297,157.19669 z"
       id="path3248" />
    <path
       style="opacity:1;fill:#000000;fill-opacity:0.16279068999999999;stroke:none;stroke-width:3;stroke-miterlimit:4;stroke-dasharray:none;stroke-opacity:1"
       d="M 122.08483,158.1816 C 116.77172,159.30795 111.96682,161.17714 106.22927,161.69526 C 103.37183,161.71028 100.81713,160.29126 99.370721,158.8488 C 98.11681,157.50654 100.45277,156.7028 102.14135,156.36445 C 104.55466,155.90748 107.01701,155.49252 109.53721,155.21811 C 112.73311,155.00538 116.03543,155.10088 119.19462,154.79512 C 121.63196,155.06869 121.49637,157.11957 122.08483,158.1816 z"
       id="path3250" />
    <path
       style="opacity:1;fill:#000000;fill-opacity:0.16279068999999999;stroke:none;stroke-width:3;stroke-miterlimit:4;stroke-dasharray:none;stroke-opacity:1"
       d="M 91.122769,157.124 C 86.917819,158.45525 83.115089,160.66446 78.574229,161.27684 C 76.312769,161.29459 74.290909,159.61744 73.146179,157.91257 C 72.153799,156.32614 74.002549,155.37619 75.338939,154.97629 C 77.248899,154.43621 79.197669,153.94576 81.192229,153.62142 C 83.721549,153.37 86.335099,153.48287 88.835369,153.1215 C 90.764349,153.44483 90.657039,155.86878 91.122769,157.124 z"
       id="path3252" />
    <path
       style="opacity:1;fill:#000000;fill-opacity:0.16279068999999999;stroke:none;stroke-width:3;stroke-miterlimit:4;stroke-dasharray:none;stroke-opacity:1"
       d="M 64.763169,154.73553 C 61.184574,155.75945 57.948285,157.45862 54.083816,157.92962 C 52.159216,157.94327 50.438525,156.65332 49.46431,155.34205 C 48.619752,154.12188 50.193118,153.39124 51.330444,153.08366 C 52.955903,152.66826 54.614391,152.29104 56.311848,152.04158 C 58.464409,151.84821 60.688654,151.93502 62.816492,151.65708 C 64.458138,151.90576 64.366812,153.77011 64.763169,154.73553 z"
       id="path3254" />
    <path
       style="opacity:1;fill:#000000;fill-opacity:0.16279068999999999;stroke:none;stroke-width:3;stroke-miterlimit:4;stroke-dasharray:none;stroke-opacity:1"
       d="M 39.995557,144.6653 C 36.278337,144.85767 32.74269,145.78502 28.871347,145.37433 C 26.993036,144.95455 25.606749,143.31048 24.95259,141.81362 C 24.404264,140.43469 26.101691,140.07684 27.27906,140.03308 C 28.956306,139.99411 30.657143,139.99976 32.367199,140.13867 C 34.508067,140.43464 36.65573,141.01974 38.791541,141.22774 C 40.335123,141.83946 39.826612,143.63544 39.995557,144.6653 z"
       id="path3256" />
    <path
       style="opacity:1;fill:#000000;fill-opacity:0.16279068999999999;stroke:none;stroke-width:3;stroke-miterlimit:4;stroke-dasharray:none;stroke-opacity:1"
       d="M 14.894084,132.32441 C 13.190993,131.3216 11.279595,130.7941 9.7451757,129.39976 C 9.0870547,128.59695 9.1238297,127.24028 9.4235507,126.18712 C 9.7234337,125.2332 10.606867,125.53648 11.139568,125.86394 C 11.88929,126.34381 12.631862,126.8563 13.326295,127.44787 C 14.147868,128.25838 14.859197,129.23652 15.713002,129.99514 C 16.149382,130.80765 15.223398,131.684 14.894084,132.32441 z"
       id="path3258" />
  </g>
</svg>
