<?xml version="1.0" encoding="UTF-8" standalone="no"?>
<!-- Created with Inkscape (http://www.inkscape.org/) -->
<svg
   xmlns:dc="http://purl.org/dc/elements/1.1/"
   xmlns:cc="http://creativecommons.org/ns#"
   xmlns:rdf="http://www.w3.org/1999/02/22-rdf-syntax-ns#"
   xmlns:svg="http://www.w3.org/2000/svg"
   xmlns="http://www.w3.org/2000/svg"
   xmlns:sodipodi="http://sodipodi.sourceforge.net/DTD/sodipodi-0.dtd"
   xmlns:inkscape="http://www.inkscape.org/namespaces/inkscape"
   width="250"
   height="250"
   id="svg2"
   sodipodi:version="0.32"
   inkscape:version="0.46"
   sodipodi:docname="yellow.svg"
   inkscape:output_extension="org.inkscape.output.svg.inkscape"
   inkscape:export-filename="P:\pidgey2\data\images\yellow.png"
   inkscape:export-xdpi="92.160004"
   inkscape:export-ydpi="92.160004"
   version="1.0">
  <defs
     id="defs4">
    <inkscape:perspective
       sodipodi:type="inkscape:persp3d"
       inkscape:vp_x="0 : 125 : 1"
       inkscape:vp_y="0 : 1000 : 0"
       inkscape:vp_z="250 : 125 : 1"
       inkscape:persp3d-origin="125 : 83.333333 : 1"
       id="perspective3645" />
  </defs>
  <sodipodi:namedview
     id="base"
     pagecolor="#cb90ff"
     bordercolor="#666666"
     borderopacity="1.0"
     gridtolerance="10000"
     guidetolerance="10"
     objecttolerance="10"
     inkscape:pageopacity="0"
     inkscape:pageshadow="2"
     inkscape:zoom="1.1950105"
     inkscape:cx="90.166812"
     inkscape:cy="98.60948"
     inkscape:document-units="px"
     inkscape:current-layer="layer1"
     showgrid="false"
     inkscape:window-width="1680"
     inkscape:window-height="1028"
     inkscape:window-x="0"
     inkscape:window-y="0" />
  <metadata
     id="metadata7">
    <rdf:RDF>
      <cc:Work
         rdf:about="">
        <dc:format>image/svg+xml</dc:format>
        <dc:type
           rdf:resource="http://purl.org/dc/dcmitype/StillImage" />
      </cc:Work>
    </rdf:RDF>
  </metadata>
  <g
     inkscape:label="Layer 1"
     inkscape:groupmode="layer"
     id="layer1">
    <path
       style="opacity:1;fill:#008000;fill-opacity:1;stroke:#000000;stroke-width:1.62823153;stroke-miterlimit:4;stroke-dasharray:none;stroke-opacity:1"
       d="M 107.34088,9.4348009 C 89.627055,-0.51998502 74.156089,14.498936 63.392848,26.374381 C 45.465482,35.914014 20.694073,34.789196 7.7875721,52.464613 C 0.086934329,71.754001 14.091346,89.455211 22.670649,105.72248 C 35.418467,121.8927 20.573532,139.44287 12.712252,153.82718 C 2.7410689,168.67316 6.3696528,190.7347 24.617633,196.76043 C 38.991038,207.51813 57.652534,207.91867 72.955636,216.48333 C 86.118546,225.72961 96.723606,242.10692 114.90871,240.49209 C 145.89904,242.00202 171.64406,222.0326 198.02157,209.2441 C 215.63147,208.92281 232.90654,201.18922 239.53029,183.62982 C 252.15387,162.01538 242.27834,137.41496 232.41515,116.93252 C 223.56987,100.53091 212.30396,83.958377 217.77919,64.425803 C 218.2503,45.964168 198.00964,37.459911 182.65218,34.790851 C 167.88715,28.854026 151.90748,36.304922 137.27692,31.194873 C 125.11501,26.966344 118.75717,14.7113 107.34088,9.4348009 z"
       id="path3270" />
    <path
       style="opacity:1;fill:#ffff00;fill-opacity:1;stroke:#000000;stroke-width:1.62805772;stroke-miterlimit:4;stroke-dasharray:none;stroke-opacity:1"
       d="M 79.99043,136.04626 C 85.569376,139.24061 92.403732,142.45111 93.983393,149.31346 C 95.310389,153.9953 93.554361,159.03055 90.124304,162.35915 C 85.203915,167.57472 76.259482,169.84735 70.264785,165.11699 C 64.917114,157.54581 65.262349,145.77009 70.65866,139.50947 C 65.298196,148.57097 71.268518,141.24016 64.224246,154.09753 C 57.739573,156.94072 49.246057,156.87091 43.688517,152.07807 C 40.414042,149.57554 41.025345,145.28569 39.846181,141.91058 C 37.674781,136.24911 40.760086,129.73281 45.966451,126.98356 C 52.957525,120.98717 64.304612,125.95896 68.688649,129.23694 C 65.598039,127.44012 55.161548,122.66314 54.038144,118.82875 C 49.550272,107.82577 52.16082,99.960175 70.868531,98.02707 C 76.783456,98.188713 83.561618,100.80984 85.84226,106.71312 C 86.715431,113.26169 80.187112,117.26589 78.550768,123.06531 C 80.808031,117.93538 83.366067,111.79061 89.204022,109.98246 C 92.733541,108.98775 96.187681,110.71345 99.265198,112.16284 C 117.18468,120.41816 104.45949,153.39173 79.99043,136.04626 z"
       id="path2408"
       sodipodi:nodetypes="ccccccccccccccccc" />
    <path
       style="opacity:1;fill:#005500;fill-opacity:1;stroke:#000000;stroke-width:1.84829795;stroke-miterlimit:4;stroke-dasharray:none;stroke-opacity:1"
       d="M 119.17295,184.28595 C 120.90548,190.93259 121.00409,198.04227 118.871,204.49923 C 117.11212,210.54163 113.9484,216.2375 109.37598,220.47657 C 107.36203,222.4711 104.80493,220.60141 103.79625,218.45325 C 102.04288,215.82119 100.90701,212.8446 99.257822,210.15231 C 98.01476,205.2546 98.729195,200.16767 99.646812,195.34362 C 101.63177,188.12462 107.05977,182.81772 110.84421,176.63183 C 113.07274,165.22165 118.00134,180.00499 119.17295,184.28595 z"
       id="path3348"
       sodipodi:nodetypes="cccccccc" />
    <path
       style="opacity:1;fill:#44aa00;fill-opacity:1;stroke:#000000;stroke-width:1.84829795;stroke-miterlimit:4;stroke-dasharray:none;stroke-opacity:1"
       d="M 110.94853,178.24926 C 108.04756,184.32773 103.57814,189.67245 97.788211,193.0606 C 92.554795,196.38768 86.448989,198.53094 80.177752,198.66329 C 77.334078,198.81619 76.538391,195.74128 77.126554,193.4808 C 77.444233,190.36985 78.46306,187.41029 78.900377,184.32331 C 81.064216,179.86641 84.873342,176.56002 88.672602,173.58284 C 94.834458,169.53111 102.45476,169.17003 109.35727,167.07233 C 118.38874,160.06883 112.77364,174.29753 110.94853,178.24926 z"
       id="path3350"
       sodipodi:nodetypes="cccccccc"
       inkscape:export-xdpi="90"
       inkscape:export-ydpi="90" />
    <path
       style="opacity:1;fill:#225500;fill-opacity:1;stroke:#000000;stroke-width:1.84829795;stroke-miterlimit:4;stroke-dasharray:none;stroke-opacity:1"
       d="M 188.21124,113.03613 C 194.87521,112.05892 201.80362,112.79301 207.84285,115.7137 C 213.52135,118.20626 218.70274,122.0828 222.30634,127.217 C 224.01753,129.49334 221.90725,131.86714 219.70238,132.63801 C 216.94192,134.1073 213.91658,134.90999 211.10938,136.26657 C 206.2027,136.95255 201.33485,135.63126 196.74591,134.13475 C 189.9484,131.27488 185.40328,125.14777 179.81589,120.58424 C 168.96844,116.98573 183.91278,113.72198 188.21124,113.03613 z"
       id="path3354"
       sodipodi:nodetypes="cccccccc" />
    <path
       style="opacity:1;fill:#d4aa00;fill-opacity:1;stroke:none;stroke-width:2.34375;stroke-miterlimit:4;stroke-dasharray:none;stroke-opacity:1"
       d="M 90.333101,158.08095 C 88.272321,161.00403 84.374589,163.19662 80.704489,163.141 C 78.328366,161.51276 84.258569,158.227 84.273974,155.67669 C 84.175418,151.94375 81.608933,146.27978 80.844759,142.58867 C 85.543074,140.01955 91.266997,150.41174 90.333101,158.08095 z"
       id="path3378"
       sodipodi:nodetypes="ccccc" />
    <path
       style="opacity:1;fill:#d4aa00;fill-opacity:1;stroke:none;stroke-width:2.34375;stroke-miterlimit:4;stroke-dasharray:none;stroke-opacity:1"
       d="M 100.95586,135.7341 C 103.53988,133.26144 105.12828,129.08092 104.52734,125.45992 C 102.56377,123.35244 100.19669,129.70543 97.677052,130.10003 C 93.970979,130.55785 87.988251,128.86243 84.224539,128.65582 C 82.382876,133.68403 93.510894,137.79841 100.95586,135.7341 z"
       id="path3382"
       sodipodi:nodetypes="ccccc" />
    <path
       style="opacity:1;fill:#d4aa00;fill-opacity:1;stroke:none;stroke-width:2.34375;stroke-miterlimit:4;stroke-dasharray:none;stroke-opacity:1"
       d="M 80.688161,106.95537 C 79.459125,103.86722 76.795704,101.24005 74.072496,100.80867 C 72.1477,102.06321 76.205049,106.01202 75.95743,108.4708 C 75.505309,112.05378 73.029654,117.17084 72.088924,120.62556 C 75.306897,123.72126 80.600734,114.46664 80.688161,106.95537 z"
       id="path3384"
       sodipodi:nodetypes="ccccc" />
    <path
       style="opacity:1;fill:#d4aa00;fill-opacity:1;stroke:none;stroke-width:2.34375;stroke-miterlimit:4;stroke-dasharray:none;stroke-opacity:1"
       d="M 50.347247,151.55594 C 47.301444,149.68129 44.870261,145.92774 44.697097,142.2613 C 46.174123,139.78834 49.822995,145.5023 52.369301,145.35878 C 56.088853,145.02782 61.581914,142.11341 65.218227,141.12074 C 68.075104,145.64986 58.059746,152.01017 50.347247,151.55594 z"
       id="path3386"
       sodipodi:nodetypes="ccccc" />
    <path
       sodipodi:type="arc"
       style="opacity:1;fill:#ff6600;fill-opacity:1;stroke:#000000;stroke-width:2.34375;stroke-miterlimit:4;stroke-dasharray:none;stroke-opacity:1"
       id="path3392"
       sodipodi:cx="53.137608"
       sodipodi:cy="140.79594"
       sodipodi:rx="12.970597"
       sodipodi:ry="12.970597"
       d="M 66.108205,140.79594 A 12.970597,12.970597 0 1 1 40.16701,140.79594 A 12.970597,12.970597 0 1 1 66.108205,140.79594 z"
       transform="matrix(0.694638,0,0,0.694638,36.004367,33.611222)" />
    <path
       style="opacity:1;fill:#ffeeaa;fill-opacity:1;stroke:none;stroke-width:2.34375;stroke-miterlimit:4;stroke-dasharray:none;stroke-opacity:1"
       d="M 46.74308,138.33099 C 36.564232,138.82644 46.308578,134.10825 49.506548,130.85082 C 51.665663,128.5765 56.723086,128.99518 59.074411,131.35853 C 62.032606,130.35283 65.455429,137.17113 61.782836,137.49718 C 53.985585,135.80825 57.118764,130.5893 46.74308,138.33099 z"
       id="path3394"
       sodipodi:nodetypes="ccccc" />
    <path
       style="opacity:1;fill:#ffeeaa;fill-opacity:1;stroke:none;stroke-width:2.34375;stroke-miterlimit:4;stroke-dasharray:none;stroke-opacity:1"
       d="M 64.84473,118.72752 C 64.9607,128.52682 60.992406,118.78819 58.136774,115.44809 C 56.140564,113.18669 56.687219,108.37387 58.9125,106.31902 C 58.095582,103.39851 64.405158,100.69192 64.580882,104.23999 C 62.789698,111.57219 58.149115,108.12891 64.84473,118.72752 z"
       id="path3400"
       sodipodi:nodetypes="ccccc" />
    <path
       style="opacity:1;fill:#ffeeaa;fill-opacity:1;stroke:none;stroke-width:2.34375;stroke-miterlimit:4;stroke-dasharray:none;stroke-opacity:1"
       d="M 86.97298,123.39082 C 77.226348,124.41198 86.556524,119.5606 89.618401,116.40848 C 91.685625,114.21182 96.528365,114.31132 98.780087,116.33715 C 101.61259,115.25381 104.89075,121.28622 101.37411,121.78912 C 93.907745,120.68327 96.907392,115.74431 86.97298,123.39082 z"
       id="path3402"
       sodipodi:nodetypes="ccccc" />
    <path
       style="opacity:1;fill:#ffeeaa;fill-opacity:1;stroke:none;stroke-width:2.34375;stroke-miterlimit:4;stroke-dasharray:none;stroke-opacity:1"
       d="M 75.952189,160.73769 C 75.426019,170.52354 72.104162,160.54589 69.473456,157.02591 C 67.629666,154.63861 68.490406,149.87194 70.845505,147.96726 C 70.221653,144.99952 76.694969,142.71204 76.637901,146.264 C 74.370274,153.46313 69.965206,149.72326 75.952189,160.73769 z"
       id="path3404"
       sodipodi:nodetypes="ccccc" />
    <path
       style="opacity:1;fill:#ff9955;fill-opacity:1;stroke:none;stroke-width:2.34375;stroke-miterlimit:4;stroke-dasharray:none;stroke-opacity:1"
       d="M 72.656183,137.67179 C 60.646424,134.36311 68.255705,122.2387 71.439469,126.1387"
       id="path3406"
       sodipodi:nodetypes="cc" />
    <path
       style="opacity:1;fill:#ffff00;fill-opacity:1;stroke:#000000;stroke-width:1.62805772;stroke-miterlimit:4;stroke-dasharray:none;stroke-opacity:1"
       d="M 154.24451,81.349875 C 159.82345,84.544223 166.65782,87.754729 168.23747,94.617078 C 169.56447,99.29891 167.80844,104.33416 164.37838,107.66276 C 159.458,112.87833 150.51356,115.15097 144.51886,110.42061 C 139.17119,102.84943 139.51643,91.073702 144.91274,84.81309 C 139.55228,93.874586 145.5226,86.543773 138.47833,99.40114 C 131.99365,102.24433 123.50014,102.17452 117.9426,97.381682 C 114.66812,94.879151 115.27943,90.589303 114.10026,87.214196 C 111.92887,81.552723 115.01417,75.036428 120.22053,72.287176 C 127.21161,66.290783 138.5587,71.262578 142.94273,74.540554 C 139.85212,72.743734 129.41563,67.96675 128.29223,64.132363 C 123.80435,53.129388 126.4149,45.26379 145.12262,43.330684 C 151.03753,43.492328 157.8157,46.113459 160.09634,52.01673 C 160.96951,58.565305 154.44119,62.569504 152.80485,68.368925 C 155.06211,63.238996 157.62015,57.094228 163.45811,55.286072 C 166.98762,54.291364 170.44176,56.01706 173.51928,57.466457 C 191.43876,65.721778 178.71357,98.695346 154.24451,81.349875 z"
       id="path3414"
       sodipodi:nodetypes="ccccccccccccccccc" />
    <path
       style="opacity:1;fill:#d4aa00;fill-opacity:1;stroke:none;stroke-width:2.34375;stroke-miterlimit:4;stroke-dasharray:none;stroke-opacity:1"
       d="M 164.58718,103.38456 C 162.5264,106.30765 158.62867,108.50023 154.95857,108.44461 C 152.58244,106.81637 158.51265,103.53061 158.52806,100.98031 C 158.4295,97.247366 155.86301,91.583393 155.09884,87.892288 C 159.79716,85.323162 165.52108,95.715356 164.58718,103.38456 z"
       id="path3416"
       sodipodi:nodetypes="ccccc" />
    <path
       style="opacity:1;fill:#d4aa00;fill-opacity:1;stroke:none;stroke-width:2.34375;stroke-miterlimit:4;stroke-dasharray:none;stroke-opacity:1"
       d="M 175.20994,81.037718 C 177.79396,78.565057 179.38236,74.384531 178.78142,70.763537 C 176.81785,68.656054 174.45077,75.009046 171.93113,75.403642 C 168.22506,75.861464 162.24233,74.166047 158.47862,73.959434 C 156.63696,78.98764 167.76497,83.10203 175.20994,81.037718 z"
       id="path3418"
       sodipodi:nodetypes="ccccc" />
    <path
       style="opacity:1;fill:#d4aa00;fill-opacity:1;stroke:none;stroke-width:2.34375;stroke-miterlimit:4;stroke-dasharray:none;stroke-opacity:1"
       d="M 154.94224,52.258987 C 153.7132,49.17084 151.04979,46.543663 148.32658,46.112288 C 146.40178,47.36682 150.45913,51.315634 150.21151,53.774414 C 149.75939,57.357392 147.28373,62.474456 146.343,65.929176 C 149.56098,69.024872 154.85481,59.770252 154.94224,52.258987 z"
       id="path3420"
       sodipodi:nodetypes="ccccc" />
    <path
       style="opacity:1;fill:#d4aa00;fill-opacity:1;stroke:none;stroke-width:2.34375;stroke-miterlimit:4;stroke-dasharray:none;stroke-opacity:1"
       d="M 124.60133,96.85955 C 121.55552,94.984903 119.12434,91.23135 118.95118,87.564919 C 120.4282,85.091959 124.07708,90.805919 126.62339,90.662393 C 130.34294,90.33144 135.83599,87.417023 139.47231,86.424358 C 142.32918,90.953474 132.31383,97.313781 124.60133,96.85955 z"
       id="path3422"
       sodipodi:nodetypes="ccccc" />
    <path
       sodipodi:type="arc"
       style="opacity:1;fill:#ff6600;fill-opacity:1;stroke:#000000;stroke-width:2.34375;stroke-miterlimit:4;stroke-dasharray:none;stroke-opacity:1"
       id="path3424"
       sodipodi:cx="53.137608"
       sodipodi:cy="140.79594"
       sodipodi:rx="12.970597"
       sodipodi:ry="12.970597"
       d="M 66.108205,140.79594 A 12.970597,12.970597 0 1 1 40.16701,140.79594 A 12.970597,12.970597 0 1 1 66.108205,140.79594 z"
       transform="matrix(0.694638,0,0,0.694638,110.25845,-21.085163)" />
    <path
       style="opacity:1;fill:#ffeeaa;fill-opacity:1;stroke:none;stroke-width:2.34375;stroke-miterlimit:4;stroke-dasharray:none;stroke-opacity:1"
       d="M 120.99716,83.634609 C 110.81832,84.130052 120.56266,79.411863 123.76063,76.154434 C 125.91975,73.880113 130.97717,74.298792 133.32849,76.662145 C 136.28669,75.656441 139.70951,82.474744 136.03692,82.8008 C 128.23967,81.111864 131.37285,75.892917 120.99716,83.634609 z"
       id="path3426"
       sodipodi:nodetypes="ccccc" />
    <path
       style="opacity:1;fill:#ffeeaa;fill-opacity:1;stroke:none;stroke-width:2.34375;stroke-miterlimit:4;stroke-dasharray:none;stroke-opacity:1"
       d="M 139.09881,64.031133 C 139.21478,73.830433 135.24649,64.09181 132.39085,60.751706 C 130.39464,58.490305 130.9413,53.677485 133.16658,51.622637 C 132.34966,48.702128 138.65924,45.995538 138.83496,49.543605 C 137.04378,56.875806 132.4032,53.432528 139.09881,64.031133 z"
       id="path3428"
       sodipodi:nodetypes="ccccc" />
    <path
       style="opacity:1;fill:#ffeeaa;fill-opacity:1;stroke:none;stroke-width:2.34375;stroke-miterlimit:4;stroke-dasharray:none;stroke-opacity:1"
       d="M 161.22706,68.694439 C 151.48043,69.715599 160.8106,64.864212 163.87249,61.712098 C 165.93971,59.515431 170.78245,59.614931 173.03417,61.640766 C 175.86667,60.557422 179.14483,66.589839 175.62819,67.092736 C 168.16183,65.986886 171.16147,61.047927 161.22706,68.694439 z"
       id="path3430"
       sodipodi:nodetypes="ccccc" />
    <path
       style="opacity:1;fill:#ffeeaa;fill-opacity:1;stroke:none;stroke-width:2.34375;stroke-miterlimit:4;stroke-dasharray:none;stroke-opacity:1"
       d="M 150.20627,106.04131 C 149.6801,115.82715 146.35824,105.84951 143.72754,102.32953 C 141.88375,99.942221 142.74449,95.175553 145.09959,93.270877 C 144.47573,90.303133 150.94905,88.015656 150.89198,91.567617 C 148.62436,98.766741 144.21929,95.026873 150.20627,106.04131 z"
       id="path3432"
       sodipodi:nodetypes="ccccc" />
    <path
       style="opacity:1;fill:#ff9955;fill-opacity:1;stroke:none;stroke-width:2.34375;stroke-miterlimit:4;stroke-dasharray:none;stroke-opacity:1"
       d="M 146.91027,82.975404 C 134.9005,79.666725 142.50978,67.542313 145.69355,71.442316"
       id="path3434"
       sodipodi:nodetypes="cc" />
    <path
       style="opacity:1;fill:#ffff00;fill-opacity:1;stroke:#000000;stroke-width:1.62805772;stroke-miterlimit:4;stroke-dasharray:none;stroke-opacity:1"
       d="M 164.10919,170.13201 C 169.68814,173.32635 176.5225,176.53686 178.10216,183.39921 C 179.42915,188.08104 177.67312,193.11629 174.24307,196.44489 C 169.32268,201.66046 160.37824,203.9331 154.38355,199.20274 C 149.03587,191.63156 149.38111,179.85583 154.77742,173.59522 C 149.41696,182.65672 155.38728,175.3259 148.34301,188.18327 C 141.85834,191.02647 133.36482,190.95666 127.80728,186.16381 C 124.5328,183.66128 125.14411,179.37143 123.96494,175.99633 C 121.79354,170.33485 124.87885,163.81856 130.08521,161.06931 C 137.07628,155.07291 148.42338,160.04471 152.80741,163.32269 C 149.7168,161.52587 139.28031,156.74888 138.1569,152.91449 C 133.66904,141.91152 136.27958,134.04592 154.98729,132.11282 C 160.90222,132.27446 167.68038,134.89559 169.96102,140.79886 C 170.8342,147.34744 164.30588,151.35164 162.66953,157.15106 C 164.92679,152.02113 167.48483,145.87636 173.32279,144.0682 C 176.8523,143.0735 180.30645,144.79919 183.38396,146.24859 C 201.30344,154.50391 188.57825,187.47748 164.10919,170.13201 z"
       id="path3436"
       sodipodi:nodetypes="ccccccccccccccccc" />
    <path
       style="opacity:1;fill:#d4aa00;fill-opacity:1;stroke:none;stroke-width:2.34375;stroke-miterlimit:4;stroke-dasharray:none;stroke-opacity:1"
       d="M 174.45186,192.16669 C 172.39108,195.08978 168.49335,197.28236 164.82325,197.22674 C 162.44713,195.5985 168.37733,192.31274 168.39274,189.76244 C 168.29418,186.0295 165.7277,180.36552 164.96352,176.67442 C 169.66183,174.10529 175.38576,184.49749 174.45186,192.16669 z"
       id="path3438"
       sodipodi:nodetypes="ccccc" />
    <path
       style="opacity:1;fill:#d4aa00;fill-opacity:1;stroke:none;stroke-width:2.34375;stroke-miterlimit:4;stroke-dasharray:none;stroke-opacity:1"
       d="M 185.07462,169.81985 C 187.65864,167.34719 189.24704,163.16666 188.64611,159.54567 C 186.68253,157.43819 184.31545,163.79118 181.79581,164.18577 C 178.08974,164.6436 172.10702,162.94818 168.3433,162.74157 C 166.50164,167.76977 177.62966,171.88416 185.07462,169.81985 z"
       id="path3440"
       sodipodi:nodetypes="ccccc" />
    <path
       style="opacity:1;fill:#d4aa00;fill-opacity:1;stroke:none;stroke-width:2.34375;stroke-miterlimit:4;stroke-dasharray:none;stroke-opacity:1"
       d="M 164.80693,141.04112 C 163.57789,137.95297 160.91447,135.3258 158.19126,134.89442 C 156.26646,136.14895 160.32381,140.09776 160.07619,142.55655 C 159.62407,146.13952 157.14842,151.25659 156.20768,154.71131 C 159.42566,157.807 164.7195,148.55238 164.80693,141.04112 z"
       id="path3442"
       sodipodi:nodetypes="ccccc" />
    <path
       style="opacity:1;fill:#d4aa00;fill-opacity:1;stroke:none;stroke-width:2.34375;stroke-miterlimit:4;stroke-dasharray:none;stroke-opacity:1"
       d="M 134.46601,185.64168 C 131.42021,183.76703 128.98902,180.01348 128.81586,176.34705 C 130.29289,173.87409 133.94176,179.58805 136.48806,179.44452 C 140.20761,179.11357 145.70068,176.19915 149.33699,175.20649 C 152.19386,179.73561 142.17851,186.09591 134.46601,185.64168 z"
       id="path3444"
       sodipodi:nodetypes="ccccc" />
    <path
       sodipodi:type="arc"
       style="opacity:1;fill:#ff6600;fill-opacity:1;stroke:#000000;stroke-width:2.34375;stroke-miterlimit:4;stroke-dasharray:none;stroke-opacity:1"
       id="path3446"
       sodipodi:cx="53.137608"
       sodipodi:cy="140.79594"
       sodipodi:rx="12.970597"
       sodipodi:ry="12.970597"
       d="M 66.108205,140.79594 A 12.970597,12.970597 0 1 1 40.16701,140.79594 A 12.970597,12.970597 0 1 1 66.108205,140.79594 z"
       transform="matrix(0.694638,0,0,0.694638,120.12313,67.696966)" />
    <path
       style="opacity:1;fill:#ffeeaa;fill-opacity:1;stroke:none;stroke-width:2.34375;stroke-miterlimit:4;stroke-dasharray:none;stroke-opacity:1"
       d="M 130.86184,172.41674 C 120.68299,172.91218 130.42734,168.19399 133.62531,164.93657 C 135.78442,162.66224 140.84185,163.08092 143.19318,165.44428 C 146.15137,164.43857 149.57419,171.25688 145.9016,171.58293 C 138.10435,169.894 141.23753,164.67505 130.86184,172.41674 z"
       id="path3448"
       sodipodi:nodetypes="ccccc" />
    <path
       style="opacity:1;fill:#ffeeaa;fill-opacity:1;stroke:none;stroke-width:2.34375;stroke-miterlimit:4;stroke-dasharray:none;stroke-opacity:1"
       d="M 148.96349,152.81326 C 149.07946,162.61256 145.11117,152.87394 142.25554,149.53384 C 140.25932,147.27244 140.80598,142.45962 143.03126,140.40477 C 142.21435,137.48426 148.52392,134.77767 148.69965,138.32574 C 146.90846,145.65794 142.26788,142.21466 148.96349,152.81326 z"
       id="path3450"
       sodipodi:nodetypes="ccccc" />
    <path
       style="opacity:1;fill:#ffeeaa;fill-opacity:1;stroke:none;stroke-width:2.34375;stroke-miterlimit:4;stroke-dasharray:none;stroke-opacity:1"
       d="M 171.09174,157.47657 C 161.34511,158.49773 170.67528,153.64634 173.73716,150.49423 C 175.80439,148.29756 180.64712,148.39706 182.89885,150.4229 C 185.73135,149.33955 189.00952,155.37197 185.49288,155.87487 C 178.02651,154.76902 181.02615,149.83006 171.09174,157.47657 z"
       id="path3452"
       sodipodi:nodetypes="ccccc" />
    <path
       style="opacity:1;fill:#ffeeaa;fill-opacity:1;stroke:none;stroke-width:2.34375;stroke-miterlimit:4;stroke-dasharray:none;stroke-opacity:1"
       d="M 160.07095,194.82344 C 159.54478,204.60929 156.22292,194.63164 153.59222,191.11166 C 151.74843,188.72435 152.60917,183.95768 154.96427,182.05301 C 154.34041,179.08526 160.81373,176.79779 160.75667,180.34975 C 158.48903,187.54887 154.08397,183.809 160.07095,194.82344 z"
       id="path3454"
       sodipodi:nodetypes="ccccc" />
    <path
       style="opacity:1;fill:#ff9955;fill-opacity:1;stroke:none;stroke-width:2.34375;stroke-miterlimit:4;stroke-dasharray:none;stroke-opacity:1"
       d="M 156.77495,171.75754 C 144.76518,168.44886 152.37447,156.32444 155.55823,160.22445"
       id="path3456"
       sodipodi:nodetypes="cc" />
    <path
       style="opacity:1;fill:#55d400;fill-opacity:1;stroke:none;stroke-width:2.34375;stroke-miterlimit:4;stroke-dasharray:none;stroke-opacity:1"
       d="M 81.203604,188.95575 C 90.195403,193.19998 101.42253,177.33103 105.86325,171.35102 C 88.608135,177.65725 84.679424,180.56959 81.203604,188.95575 z"
       id="path3458"
       sodipodi:nodetypes="ccc" />
    <path
       style="opacity:1;fill:#338000;fill-opacity:1;stroke:none;stroke-width:2.34375;stroke-miterlimit:4;stroke-dasharray:none;stroke-opacity:1"
       d="M 103.40697,194.98117 C 102.8811,197.76871 102.05085,200.55237 102.357,203.42095 C 102.50915,206.41345 102.9233,209.43532 103.83397,212.29275 C 104.45579,213.39918 105.67242,216.78707 107.12332,215.59364 C 108.0149,212.73399 109.62396,209.97353 109.37738,206.86573 C 109.29877,203.01215 108.22009,198.9607 105.65425,196.01594 C 105.00102,195.49229 104.18687,195.24569 103.40697,194.98117 z"
       id="path3468" />
    <path
       style="opacity:1;fill:#005500;fill-opacity:1;stroke:#000000;stroke-width:1.84829795;stroke-miterlimit:4;stroke-dasharray:none;stroke-opacity:1"
       d="M 69.492606,76.640134 C 63.931085,72.609134 59.336888,67.182296 56.88062,60.841227 C 54.398853,55.058058 53.222004,48.649685 54.058598,42.470949 C 54.346123,39.651114 57.508656,39.469752 59.652594,40.487385 C 62.679021,41.405418 65.447604,42.981867 68.431866,44.012606 C 72.50405,47.004269 75.185067,51.385986 77.542148,55.693848 C 80.597054,62.52917 79.778437,70.076096 80.787406,77.257267 C 86.317669,87.483451 73.117693,79.201 69.492606,76.640134 z"
       id="path3474"
       sodipodi:nodetypes="cccccccc" />
    <path
       style="opacity:1;fill:#44aa00;fill-opacity:1;stroke:#000000;stroke-width:1.84829795;stroke-miterlimit:4;stroke-dasharray:none;stroke-opacity:1"
       d="M 79.679014,76.074715 C 78.056159,69.537915 78.110618,62.570935 80.428021,56.275507 C 82.354537,50.380875 85.706936,44.845912 90.46497,40.758475 C 92.563451,38.833318 95.131861,40.701868 96.114218,42.820993 C 97.845881,45.42489 98.939963,48.357466 100.56402,51.018881 C 101.72554,55.835203 100.8856,60.808749 99.844062,65.521831 C 97.661183,72.56598 92.006872,77.687326 88.010377,83.693403 C 85.487597,94.840238 80.781064,80.285728 79.679014,76.074715 z"
       id="path3476"
       sodipodi:nodetypes="cccccccc"
       inkscape:export-xdpi="90"
       inkscape:export-ydpi="90" />
    <path
       style="opacity:1;fill:#55d400;fill-opacity:1;stroke:none;stroke-width:2.34375;stroke-miterlimit:4;stroke-dasharray:none;stroke-opacity:1"
       d="M 95.841829,48.905745 C 86.201984,51.342806 87.617725,70.730118 87.989141,78.169374 C 97.30464,62.334943 98.48733,57.589652 95.841829,48.905745 z"
       id="path3478"
       sodipodi:nodetypes="ccc" />
    <path
       style="opacity:1;fill:#338000;fill-opacity:1;stroke:none;stroke-width:2.34375;stroke-miterlimit:4;stroke-dasharray:none;stroke-opacity:1"
       d="M 74.869195,58.363205 C 73.503807,55.876719 72.375889,53.1998 70.316579,51.179466 C 68.297433,48.965601 66.057323,46.895547 63.538343,45.26798 C 62.355104,44.808847 59.262798,42.966139 58.900919,44.809622 C 60.029776,47.584196 60.541606,50.738118 62.706938,52.981003 C 65.216512,55.906468 68.623989,58.34918 72.476452,58.992345 C 73.313594,58.981546 74.098924,58.654576 74.869195,58.363205 z"
       id="path3480" />
    <path
       style="opacity:1;fill:#338000;fill-opacity:1;stroke:none;stroke-width:2.34375;stroke-miterlimit:4;stroke-dasharray:none;stroke-opacity:1"
       d="M 199.30329,119.52781 C 201.2741,121.56811 203.06583,123.85454 205.58368,125.26271 C 208.11363,126.86817 210.81899,128.2768 213.67715,129.18521 C 214.93945,129.31727 218.40732,130.2826 218.27203,128.40881 C 216.45373,126.0284 215.13109,123.11983 212.45246,121.52478 C 209.26231,119.36162 205.33269,117.90019 201.4466,118.29201 C 200.64172,118.52241 199.96992,119.04427 199.30329,119.52781 z"
       id="path3482" />
    <path
       style="opacity:1;fill:#000000;fill-opacity:0.28488369;stroke:none;stroke-width:2.33999991;stroke-miterlimit:4;stroke-dasharray:none;stroke-opacity:1"
       d="M 22.320574,149.14253 C 7.5082533,168.57978 12.059266,188.21095 34.021012,198.35975 C 40.741408,202.02834 48.616348,202.21983 55.598158,205.23824 C 58.415883,206.17624 65.876047,209.28649 65.886178,209.22729 C 37.840294,198.80188 27.102421,180.2507 21.99802,153.09504 C 22.189516,151.78706 22.35039,150.46763 22.320574,149.14253 z"
       id="path2423"
       sodipodi:nodetypes="cccccc" />
    <path
       style="opacity:1;fill:#ffffff;fill-opacity:0.26162792;stroke:none;stroke-width:2.33999991;stroke-miterlimit:4;stroke-dasharray:none;stroke-opacity:1"
       d="M 165.33959,38.408323 C 179.85715,39.626946 194.87632,42.282289 207.48856,49.909449 C 213.23956,54.142514 212.38605,61.651518 210.77857,67.691022 C 209.14622,75.362496 208.4483,83.717604 212.24072,90.901058 C 215.51653,99.470254 219.61253,107.72629 222.34276,116.50129 C 204.12004,100.90172 206.75252,76.521029 198.3263,58.109745 C 193.33825,47.210862 177.847,45.041065 165.33959,38.408323 z"
       id="path3198"
       sodipodi:nodetypes="cccccsc" />
    <path
       style="opacity:1;fill:#ffffff;fill-opacity:0.26162792;stroke:none;stroke-width:2.33999991;stroke-miterlimit:4;stroke-dasharray:none;stroke-opacity:1"
       d="M 127.45458,37.477303 C 125.71312,39.728065 122.07298,36.127346 119.89596,35.390749 C 104.81324,17.963558 96.974969,19.18257 78.034609,22.303406 C 75.069583,19.98392 79.799074,15.946958 82.410095,15.225213 C 88.610402,13.173199 95.193097,11.429973 101.78073,12.112218 C 107.47993,12.917539 111.23564,17.658444 115.11003,21.410856 C 120.19049,26.076237 125.92857,30.363421 127.45458,37.477303 z"
       id="path3204"
       sodipodi:nodetypes="ccccccc" />
    <path
       style="opacity:1;fill:#000000;fill-opacity:0.28488369;stroke:none;stroke-width:2.33999991;stroke-miterlimit:4;stroke-dasharray:none;stroke-opacity:1"
       d="M 82.733634,214.60067 C 101.02845,255.74898 159.01212,229.43659 185.47862,211.62217 C 147.17803,234.59648 120.54168,233.44632 82.733634,214.60067 z"
       id="path3227"
       sodipodi:nodetypes="ccc" />
  </g>
</svg>
