<?xml version="1.0" encoding="utf-8"?>
<!-- Generator: Adobe Illustrator 12.0.1, SVG Export Plug-In . SVG Version: 6.00 Build 51448)  -->
<!DOCTYPE svg PUBLIC "-//W3C//DTD SVG 1.1//EN" "http://www.w3.org/Graphics/SVG/1.1/DTD/svg11.dtd" [
	<!ENTITY ns_svg "http://www.w3.org/2000/svg">
	<!ENTITY ns_xlink "http://www.w3.org/1999/xlink">
]>
<svg  version="1.1" id="Layer_1" xmlns="&ns_svg;" xmlns:xlink="&ns_xlink;" width="385.39" height="178.502"
	 viewBox="0 0 385.39 178.502" overflow="visible" enable-background="new 0 0 385.39 178.502" xml:space="preserve">
<g>
	<path fill-rule="evenodd" clip-rule="evenodd" fill="#FFFFFF" d="M179.99,18.095c-1.284,2.233-3.957-0.579-5.824-1.122
		c-2.09-0.607-5.562-1.419-8.847-1.812c-8.917-1.068-17.877-1.977-27.224-3.179c-7.088-0.912-14.324-1.386-20.703-1.711
		c-10.581-0.54-23.752-1.442-31.788,2.445c0.519-2.604,3.433-4.299,5.38-4.891c9.099-2.763,21.71-0.218,32.784,0.748
		c9.404,0.82,18.995,1.737,27.857,3.165c5.54,0.892,14.464,1.962,20.051,2.934C174.556,15.172,178.228,15.547,179.99,18.095z"/>
	<path fill-rule="evenodd" clip-rule="evenodd" fill="#FFFFFF" d="M349.201,22.985c1.461,16.292-0.546,30.88-1.468,45.481
		c-13.9-0.027-29.628-3.964-39.612,3.423c0.502-1.643-1.521-0.761-2.445-0.978c-6.798,1.965-13.769,1.845-22.008,3.423
		c-2.252,0.432-4.229,1.687-6.357,1.956c-2.988,0.378-5.422,0.034-8.313,0c-35.722-0.421-65.611-0.943-103.678-1.467
		c0.208-4.921-0.309-11.225,0-14.671c7.419,1.751,16.38-2.299,23.963,0c2.196,0.666,4.103,3.979,6.357,5.379
		c7.256,4.504,21.2,5.721,28.854-1.956c21.721,1.617,39.428,3.423,60.642,5.379c1.527-0.224,1.563,1.045,1.467,2.445
		c2.562,0.442,1.841-2.398,4.401-1.957c4.24,0.319,9.54,1.655,13.204,0.979c3.358-7.308,1.384-15.5,2.935-22.496
		c1.094-4.933,5.158-13.237,8.803-16.628c0.452-0.42,4.721-3.517,5.38-3.912c1.987-1.194,7.741-3.596,10.27-4.401
		c3.384-1.078,8.51-2,10.759-1.957C344.448,21.069,347.273,21.658,349.201,22.985z"/>
	<path fill-rule="evenodd" clip-rule="evenodd" fill="#FFFFFF" d="M139.4,25.431c3.269,2.056,2.056,12.62,1.956,19.562
		c-0.034,2.371-0.405,4.746-0.489,6.847c-0.086,2.158,2.035,5.435-0.978,5.869c-3.554-0.552-1.542-4.788-1.467-6.847
		c0.184-5.056,0.036-10.145,0-15.649C138.399,31.816,137.336,29.217,139.4,25.431z"/>
	<path fill-rule="evenodd" clip-rule="evenodd" fill="#FFFFFF" d="M94.896,28.365c0.641,2.434-1.506,2.081-1.467,3.912
		c1.051,3.62,1.015,10.75,0.978,17.606c-0.015,2.727,1.318,7.591-1.956,7.825c-1.438-0.361-1.346-2.113-1.467-2.934
		c-1.235-8.369,0.398-19.593,0-26.898C92.483,26.549,93.558,27.288,94.896,28.365z"/>
	<path fill-rule="evenodd" clip-rule="evenodd" fill="#FFFFFF" d="M134.998,30.321c1.988-0.459,1.695,2.648,0.979,3.423
		C134.421,33.314,134.32,31.78,134.998,30.321z"/>
	<path fill-rule="evenodd" clip-rule="evenodd" fill="#FFFFFF" d="M96.364,32.766c3.527-0.483,3.254,1.552,3.423,3.423
		c-1.129,0.501-2.603,0.658-2.445,2.445C95.832,37.101,96.171,35,96.364,32.766z"/>
	<path fill-rule="evenodd" clip-rule="evenodd" fill="#FFFFFF" d="M135.487,34.233c1.894,3.659,0.405,8.405,0.489,13.204
		c0.043,2.459,0.126,6.105,0,10.27c-2.123-4.568-0.536-11.443-0.979-16.139C134.747,38.903,134.379,36.574,135.487,34.233z"/>
	<path fill-rule="evenodd" clip-rule="evenodd" fill="#FFFFFF" d="M162.874,35.211c-0.312,7.349,0.634,15.958-0.489,22.496
		c-6.368-0.595-13.545-0.584-18.583,0c-0.947-4.594,0.124-9.844,0-15.649C150.342,39.959,157.048,38.025,162.874,35.211z"/>
	<path fill-rule="evenodd" clip-rule="evenodd" fill="#FFFFFF" d="M99.298,39.124c8.779-0.315,12.168,1.639,21.029,2.445
		c-3.301,2.568-6.655,5.082-10.27,7.336C105.791,46.324,103.23,42.038,99.298,39.124z"/>
	<path fill-rule="evenodd" clip-rule="evenodd" fill="#FFFFFF" d="M131.575,39.124c0.489,0,0.978,0,1.467,0
		c0.207,1.022-0.335,1.295-0.489,1.957C131.693,40.962,131.438,40.238,131.575,39.124z"/>
	<path fill-rule="evenodd" clip-rule="evenodd" fill="#FFFFFF" d="M129.619,41.569c-1.96,6.027-5.317,10.659-7.825,16.139
		c-5.088,0.85-6.152-2.325-7.825-4.891c4.185-3.966,8.92-7.381,13.204-11.248C127.989,41.569,128.804,41.569,129.619,41.569z"/>
	<path fill-rule="evenodd" clip-rule="evenodd" fill="#FFFFFF" d="M132.064,41.569c2.221,4.408,0.233,10.103,0.978,15.649
		c-2.437,1-6.943,0.405-8.313,0C126.929,51.757,130.095,47.262,132.064,41.569z"/>
	<path fill-rule="evenodd" clip-rule="evenodd" fill="#FFFFFF" d="M96.364,42.547c2.108,0.032,2.42,7.375,0,7.336
		C96.62,46.39,95.617,44.209,96.364,42.547z"/>
	<path fill-rule="evenodd" clip-rule="evenodd" fill="#FFFFFF" d="M99.787,48.416c2.317,0.618,1.796,4.072,3.423,5.379
		c-0.519,1.438-1.861,2.052-2.935,2.935C98.961,55.447,99.735,50.729,99.787,48.416z"/>
	<path fill-rule="evenodd" clip-rule="evenodd" fill="#FFFFFF" d="M96.364,50.372c2.228,0.366,1.674,5.621,0.978,7.336
		C95.386,56.892,96.787,52.72,96.364,50.372z"/>
	<path fill-rule="evenodd" clip-rule="evenodd" fill="#FFFFFF" d="M108.59,52.328c0.489,0,0.978,0,1.467,0
		c0.138,1.279-0.179,2.104-1.467,1.956C108.59,53.632,108.59,52.98,108.59,52.328z"/>
	<path fill-rule="evenodd" clip-rule="evenodd" fill="#FFFFFF" d="M302.741,52.817c0.568-0.08,0.87,0.108,0.979,0.489
		c-1.119,4.26,0.196,10.956-0.979,15.16c-3.93-0.308-8.118-0.358-11.248-1.467C295.725,62.754,298.959,57.511,302.741,52.817z"/>
	<path fill-rule="evenodd" clip-rule="evenodd" fill="#FFFFFF" d="M106.145,54.284C108.386,54.61,105.751,57.245,106.145,54.284
		L106.145,54.284z"/>
	<path fill-rule="evenodd" clip-rule="evenodd" fill="#FFFFFF" d="M111.524,54.284c1.474,0.646,2.841,1.398,2.935,3.423
		c-1.965,0.172-3.579-0.008-3.913-1.467C110.19,54.906,111.518,55.256,111.524,54.284z"/>
	<path fill-rule="evenodd" clip-rule="evenodd" fill="#FFFFFF" d="M105.167,57.708c-0.978,0-1.956,0-2.934,0
		C102.316,56.293,105.376,55.341,105.167,57.708z"/>
	<path fill-rule="evenodd" clip-rule="evenodd" fill="#FFFFFF" d="M52.838,59.175c2.291-0.008,0.787,3.778,2.935,3.912
		c1.259-0.371,1.699-1.561,1.467-3.423c1.141,0,2.282,0,3.423,0c-0.01,1.64,0,3.26,1.957,2.935c1.904,0.111,0.247-3.34,2.445-2.935
		c1.97-0.34,0.828,2.433,1.957,2.935c2.66,0.704,1.384-2.529,2.934-2.935c2.138-0.345,1.042,2.544,2.445,2.935
		c2.59,0.47,1.644-2.595,3.423-2.935c5.922,0.024,6.948,0.456,12.226,0c1.019,3.708,0.251,9.204,0.489,13.693
		c-23.68,0.039-37.495-0.3-60.153-0.489c-1.07-2.68-0.215-7.284-0.489-10.759c1.691-0.917,3.44-1.776,5.869-1.956
		c0.879,1.238-0.93,2.773,0.978,3.423c2.896,0.451,1.121-3.77,3.913-3.423c-0.205,1.671,0.147,2.787,1.956,2.445
		c2.081,0.45,0.032-3.229,1.956-2.935c2.331-0.538,0.673,2.914,2.445,2.935c2.687,0.73,0.095-3.817,2.935-2.935
		c2.193-0.4-0.105,3.691,1.956,3.423C52.343,63.243,51.181,59.799,52.838,59.175z"/>
	<path fill-rule="evenodd" clip-rule="evenodd" fill="#FFFFFF" d="M139.889,59.175c0.436,0.217,0.875,0.429,0.978,0.978
		c0.708,14.562,0,29.534,0,49.394c0,2.958-1.105,7.023,1.467,9.292c1.654-2.333,0.504-4.434,0.978-7.824
		c7.108,1.532,12.464,4.815,19.073,6.847c0.059,1.408-0.267,3.201,0.489,3.912c1.456,1.835,2.031-2.856,2.934-1.467
		c3.308,1.42,6.892,2.562,7.825,6.357c-25.114-4.369-55.088-5.12-81.67-3.912c-4.152,0.188-8.517,1.303-12.715,0
		c0.146-3.184,5.792-4.917,9.292-6.358c1.827-0.238-0.121,1.73,1.467,2.445c2.632-0.93,1.404-4.466,1.467-6.357
		c0.457-13.627-1.164-28.66-0.489-44.014c0.123-2.789,0.074-6.387,1.467-8.803c3.353,0.351,1.916,4.893,1.956,6.847
		c0.281,13.479,0.493,28.851,0.489,37.167c-0.002,4.475-1.048,8.095,0.489,11.737c3.086-0.988,0.958-4.538,0.978-6.357
		c0.161-14.601-0.362-28.926,0.489-49.394c1.675,3.303,0.937,7.666,0.978,11.737c0.047,4.641,0,9.527,0,14.671
		c0,9.675-0.781,19.712,0.979,27.875c1.648-0.633,1.171-3.393,2.934-3.912c10.909-1.833,19.412-2.361,29.343-1.957
		c2.215-0.259,1.158,2.754,2.445,3.423c2.472-2.874,1.437-7.587,1.467-11.737c0.086-11.574-0.047-27.322,0-39.613
		c1.899,1.14,1.439,4.101,1.467,6.357c0.145,11.54,0.008,24.036-0.489,41.569c-0.107,3.793-1.177,7.982,0.978,10.759
		c1.815-2.97,0.989-6.796,0.978-10.27c-0.065-19.837,0.15-34.189,0.489-48.905C139.116,59.706,139.807,59.745,139.889,59.175z"/>
	<path fill-rule="evenodd" clip-rule="evenodd" fill="#FFFFFF" d="M106.145,59.664c2.485,4.688,5.592,8.753,7.336,14.183
		c-4.401,0-8.803,0-13.205,0c-0.917-3.811-0.322-9.132-0.489-13.693C101.106,59.19,104.061,59.862,106.145,59.664z"/>
	<path fill-rule="evenodd" clip-rule="evenodd" fill="#FFFFFF" d="M109.079,59.664c0.568-0.08,0.87,0.108,0.978,0.489
		c2.383,2.71,7.328,6.829,5.379,10.759C112.539,67.941,110.558,64.053,109.079,59.664z"/>
	<path fill-rule="evenodd" clip-rule="evenodd" fill="#FFFFFF" d="M120.327,59.664c0.604,1.768-1.841,4.219-2.445,6.358
		c-2.359-1.065-3.186-3.661-4.401-5.869C114.942,59.169,118.094,59.876,120.327,59.664z"/>
	<path fill-rule="evenodd" clip-rule="evenodd" fill="#FFFFFF" d="M132.553,59.664c1.106,6.532,0.444,12.521-0.978,17.606
		c-2.282,0-4.564,0-6.847,0c0.605-2.003,4.94-0.276,6.357-1.467c-0.466-2.756-6.673-1.401-7.825-1.956
		c-2.01-0.925-2.783-3.085-3.913-4.891c0.874-3.365,1.966-6.511,3.913-8.803C125.473,59.104,129.551,59.922,132.553,59.664z"/>
	<path fill-rule="evenodd" clip-rule="evenodd" fill="#FFFFFF" d="M143.801,59.664c5.647,0.835,13.626-0.037,19.073,0.489
		c0,4.89,0,9.781,0,14.671c-8.39,0.132-12.071-0.479-19.073-0.489C143.903,71.114,143.145,63.701,143.801,59.664z"/>
	<path fill-rule="evenodd" clip-rule="evenodd" fill="#FFFFFF" d="M194.173,60.153c0.979,0,1.956,0,2.935,0
		c0.38,1.087,1.027,1.907,0.978,3.423C196.678,62.538,194.484,62.286,194.173,60.153z"/>
	<path fill-rule="evenodd" clip-rule="evenodd" fill="#FFFFFF" d="M24.474,64.065c1.799,1.462,0.979,5.197,0.979,8.314
		c0,9.472,0.619,16.941,0.489,25.43c-4.601-1.756-7.945-4.77-10.759-8.313c-1.901-12.083,2.151-20.492,8.803-25.431
		C24.148,64.065,24.311,64.065,24.474,64.065z"/>
	<path fill-rule="evenodd" clip-rule="evenodd" fill="#FFFFFF" d="M319.369,69.934c2.289-1.134,6.678-0.168,9.78-0.489
		c0.925,0.1,4.832-0.33,3.424,0.489c-1.63,0-3.261,0-4.891,0c-2.737,0.747-4.629-0.321-8.313,0.489
		C318.159,70.485,318.537,69.824,319.369,69.934z"/>
	<path fill-rule="evenodd" clip-rule="evenodd" fill="#FFFFFF" d="M117.393,71.401c1.414,0.216,2.229,1.031,2.445,2.445
		c-0.652,0.698-2.771,0.698-3.423,0C116.339,72.629,117.183,72.332,117.393,71.401z"/>
	<path fill-rule="evenodd" clip-rule="evenodd" fill="#FFFFFF" d="M364.85,72.379c-6.729,3.148-13.088,2.321-20.539,3.423
		c-1.867,0.4-1.894-1.041-2.445-1.956c-1.928-0.135-1.496,2.091-3.424,1.956c-6.601-0.275-13.902-1.245-21.029-2.445
		c-1.122-0.189-3.677,0.917-3.912-0.978C330.95,71.279,345.888,72.393,364.85,72.379z"/>
	<path fill-rule="evenodd" clip-rule="evenodd" fill="#FFFFFF" d="M303.23,73.846c-2.586,3.12-8.974,2.437-14.672,2.445
		C292.469,74.495,297.925,74.246,303.23,73.846z"/>
	<path fill-rule="evenodd" clip-rule="evenodd" fill="#FFFFFF" d="M319.369,75.802c-3.116,1.603-9.934-0.123-15.161,0.489
		C307.888,72.062,313.779,75.341,319.369,75.802z"/>
	<path fill-rule="evenodd" clip-rule="evenodd" fill="#FFFFFF" d="M88.539,76.291c-1.318,1.671-4.649,0.121-7.336,0
		c-15.706-0.704-36.26,1.133-52.817,0.489c-0.093-0.396-0.491-0.487-0.489-0.978c-0.08-0.569,0.108-0.87,0.489-0.978
		C45.607,75.83,69.259,74.789,88.539,76.291z"/>
	<path fill-rule="evenodd" clip-rule="evenodd" fill="#FFFFFF" d="M107.123,76.291c-1.876,1.219-4.36,1.199-6.847,0.489
		C101.274,74.642,105.125,76.363,107.123,76.291z"/>
	<path fill-rule="evenodd" clip-rule="evenodd" fill="#FFFFFF" d="M112.502,76.291c-0.437,1.201-3.421,1.326-4.401,0.489
		C109.364,75.99,111.165,75.74,112.502,76.291z"/>
	<path fill-rule="evenodd" clip-rule="evenodd" fill="#FFFFFF" d="M118.371,76.291c1.141,0,2.282,0,3.423,0
		c0.392,1.859-2.312,0.622-3.423,0.979C118.371,76.943,118.371,76.617,118.371,76.291z"/>
	<path fill-rule="evenodd" clip-rule="evenodd" fill="#FFFFFF" d="M328.172,76.78c-0.156,1.73-2.929,2.583-4.401,1.467
		C324.803,75.709,326.635,76.478,328.172,76.78z"/>
	<path fill-rule="evenodd" clip-rule="evenodd" fill="#FFFFFF" d="M143.801,77.27c0.837-1.119,3.733-0.18,5.379-0.489
		C148.395,78.062,145.626,77.839,143.801,77.27z"/>
	<path fill-rule="evenodd" clip-rule="evenodd" fill="#FFFFFF" d="M162.385,77.27c-2.777,1.135-7.657,0.167-11.248,0.489
		C153.979,75.638,159.066,77.936,162.385,77.27z"/>
	<path fill-rule="evenodd" clip-rule="evenodd" fill="#FFFFFF" d="M165.319,77.758c0.286-1.892,9.296,0.323,10.27,0
		C174.299,78.186,169.772,77.483,165.319,77.758z"/>
	<path fill-rule="evenodd" clip-rule="evenodd" fill="#FFFFFF" d="M176.567,77.758c-0.083-1.061,1.734-0.222,2.445-0.489
		C179.095,78.33,177.278,77.491,176.567,77.758z"/>
	<path fill-rule="evenodd" clip-rule="evenodd" fill="#FFFFFF" d="M181.947,77.27C180.873,78.763,178.814,76.705,181.947,77.27
		L181.947,77.27z"/>
	<path fill-rule="evenodd" clip-rule="evenodd" fill="#FFFFFF" d="M334.04,77.27c0.979,0,1.956,0,2.935,0
		c0.463,1.767-1.926,0.682-2.935,0.978C334.04,77.921,334.04,77.595,334.04,77.27z"/>
	<path fill-rule="evenodd" clip-rule="evenodd" fill="#FFFFFF" d="M344.799,77.27c-1.324,1.387-2.214,0.168-3.912,0.978
		C340.588,76.319,343.572,77.672,344.799,77.27z"/>
	<path fill-rule="evenodd" clip-rule="evenodd" fill="#FFFFFF" d="M347.733,77.27C346.659,78.763,344.602,76.705,347.733,77.27
		L347.733,77.27z"/>
	<path fill-rule="evenodd" clip-rule="evenodd" fill="#FFFFFF" d="M28.386,78.248c0.326,0,0.652,0,0.978,0
		c2.405-0.123,0.994,3.57,2.445,4.401c0.811-0.819,2.871-0.389,4.401-0.489c1.642-0.916-0.223-2.507,0.978-3.423
		c1.827-0.033,0.512,3.075,1.956,3.423c1.334-0.713,1.662,0.383,2.935,0c2.543-0.765,1.025-3.044,3.423-3.912
		c0.674,0.63,0.484,2.124,0.489,3.423c1.684,0.19,3.334,0.746,5.38,0c1.08-0.061,0.208-2.075,0.489-2.935
		c12.11-0.122,26.115,0.175,36.679,0c0.667,12.043,0.66,22.577,1.467,33.744c-1.919,1.504-4.751,2.095-6.847,3.423
		c-19.49-4.636-39.204-9.048-55.262-17.116C28.207,92.088,27.267,84.138,28.386,78.248z"/>
	<path fill-rule="evenodd" clip-rule="evenodd" fill="#FFFFFF" d="M252.858,78.736c1.642-1.13,5.371-0.171,7.825-0.489
		C259.042,79.377,255.312,78.419,252.858,78.736z"/>
	<path fill-rule="evenodd" clip-rule="evenodd" fill="#FFFFFF" d="M261.172,78.736c0.211-1.093,2.41-0.198,3.424-0.489
		C264.385,79.341,262.186,78.445,261.172,78.736z"/>
	<path fill-rule="evenodd" clip-rule="evenodd" fill="#FFFFFF" d="M290.515,78.248c-1.24,1.805-4.731,0.964-7.335,0.978
		c-2.879,0.016-5.891-0.012-8.314,0C279.401,77.132,284.95,78.975,290.515,78.248z"/>
	<path fill-rule="evenodd" clip-rule="evenodd" fill="#FFFFFF" d="M307.143,78.736c-1.855,0.858-9.536,0.753-9.781,0
		C299.826,77.979,304.679,77.979,307.143,78.736z"/>
	<path fill-rule="evenodd" clip-rule="evenodd" fill="#FFFFFF" d="M309.099,78.248c1.142,0,2.282,0,3.424,0
		C312.285,79.803,308.971,80.191,309.099,78.248z"/>
	<path fill-rule="evenodd" clip-rule="evenodd" fill="#FFFFFF" d="M313.5,78.248c2.282,0,4.564,0,6.847,0
		C319.279,79.691,313.994,80.462,313.5,78.248z"/>
	<path fill-rule="evenodd" clip-rule="evenodd" fill="#FFFFFF" d="M100.276,78.736c3.98,0.877,6.359-0.473,10.759,0.489
		c-3.48,6.627-6.607,13.607-10.27,20.051C99.513,93.922,99.494,86.642,100.276,78.736z"/>
	<path fill-rule="evenodd" clip-rule="evenodd" fill="#FFFFFF" d="M125.217,105.634c-8.399-1.16-17.25,1.285-24.941,2.445
		c0.128-6.114,4.072-10.291,6.358-14.671c2.408-4.615,4.53-9.18,6.847-14.182c0.694,0.042,1.385,0.081,1.467-0.489
		c3.583,0.855,4.832,6.093,6.847,9.781c1.913,3.502,4.099,6.351,5.379,9.292C126.588,100.484,126.454,103.61,125.217,105.634z"/>
	<path fill-rule="evenodd" clip-rule="evenodd" fill="#FFFFFF" d="M119.838,79.226c1.467,0,2.934,0,4.401,0
		c2.466,4.645,7.086,8.234,3.913,14.671C124.724,89.664,122.334,84.392,119.838,79.226z"/>
	<path fill-rule="evenodd" clip-rule="evenodd" fill="#FFFFFF" d="M126.685,79.226c1.467,0,2.934,0,4.401,0
		c0.343,2.136-0.832,2.754-0.489,4.891C127.993,83.786,127.373,81.471,126.685,79.226z"/>
	<path fill-rule="evenodd" clip-rule="evenodd" fill="#FFFFFF" d="M143.312,79.714c7.866-0.101,14.041,0.172,19.562,0.489
		c-0.457,11.062-0.37,21.424-0.489,35.211c-6.528-2.112-12.022-5.257-19.073-6.847C143.21,99.672,143.462,89.814,143.312,79.714z"/>
	<path fill-rule="evenodd" clip-rule="evenodd" fill="#FFFFFF" d="M258.238,80.693c-1.068,1.896-3.102,2.226-2.935,4.89
		c0.424,6.775,11.069,3.49,16.139,1.956c3.211-0.972,6.484-1.947,9.292-2.934c2.513-0.883,5.612-2.935,8.313-3.423
		c10.466-1.892,20.998,1.509,29.343,0c0.203,2.427-2.728,5.672-4.401,7.825c-37.624,7.55-75.649,15.053-112.48,22.496
		c-6.241,1.261-13.021,1.956-19.073,3.423c-5.688,1.38-11.76,4.869-17.605,1.957c0.506-8.18,0.379-25.721,0.489-35.701
		c-0.871-0.358-0.071-0.889,0-1.467C191.862,80.724,230.092,81.13,258.238,80.693z"/>
	<path fill-rule="evenodd" clip-rule="evenodd" fill="#FFFFFF" d="M351.157,80.204c-0.529,1.845-2.542,1.079-3.913,1.467
		c-3.67,1.038-7.924,2.643-12.226,2.934C335.764,78.384,346.281,80.857,351.157,80.204z"/>
	<path fill-rule="evenodd" clip-rule="evenodd" fill="#FFFFFF" d="M283.668,81.182c-5.759,2.555-12.066,4.561-19.072,5.869
		c-0.048-1.583-2.217-1.044-1.467-3.423c1.205-0.064,2.355-0.074,2.934,0.489c0.844-1.63-0.182-2.655-2.445-2.445
		C267.445,79.892,276.603,81.592,283.668,81.182z"/>
	<path fill-rule="evenodd" clip-rule="evenodd" fill="#FFFFFF" d="M323.771,81.182c-1.473,0.483-1.34,2.573-3.424,2.445
		C320.881,82.275,322.022,79.791,323.771,81.182z"/>
	<path fill-rule="evenodd" clip-rule="evenodd" fill="#FFFFFF" d="M331.105,81.182c-0.098,1.858-0.433,3.479-0.978,4.891
		c-3.796,0.117-6.54,1.285-9.781,1.956c0.338-1.181,4.449-6.237,5.869-6.847C327.486,80.636,329.441,80.378,331.105,81.182z"/>
	<path fill-rule="evenodd" clip-rule="evenodd" fill="#FFFFFF" d="M261.661,82.16c-1.704,0.878-1.537,2.872-0.978,4.891
		c-1.561,0.419-1.513-0.77-2.445-0.978C258.055,83.443,259.404,82.348,261.661,82.16z"/>
	<path fill-rule="evenodd" clip-rule="evenodd" fill="#FFFFFF" d="M132.553,83.138c1.115,0.678,0.182,3.404,0.489,4.891
		C130.443,88.167,132.37,84.564,132.553,83.138z"/>
	<path fill-rule="evenodd" clip-rule="evenodd" fill="#FFFFFF" d="M131.086,90.474c3.351,2.89,1.473,7.38,1.467,11.737
		C128.921,100.269,129.46,94.322,131.086,90.474z"/>
	<path fill-rule="evenodd" clip-rule="evenodd" fill="#FFFFFF" d="M128.641,101.722c2.127-0.007,1.377,2.861,2.935,3.423
		c-0.26,1.672-2.356,0.749-3.423,0.489C127.805,103.82,128.987,103.535,128.641,101.722z"/>
	<path fill-rule="evenodd" clip-rule="evenodd" fill="#FFFFFF" d="M155.538,126.174c-20.492-0.526-43.106,1.591-62.109,0.489
		c-2.583-0.149-6.106,1.022-7.825-1.467C109.362,124.016,133.563,123.516,155.538,126.174z"/>
	<path fill-rule="evenodd" clip-rule="evenodd" fill="#FFFFFF" d="M88.05,129.598c10.21-2.419,21.637,3.689,23.963,14.182
		c1.112,5.014-0.753,8.175-1.467,13.693c-4.576,6.09-9.578,10.59-17.605,10.76c-13.426,0.283-23.394-14.303-18.584-26.898
		c0.701-1.835,3.103-5.402,4.891-7.335C81.437,131.63,83.812,130.943,88.05,129.598z M79.736,156.006
		c6.799,12.856,30.165,7.097,27.876-9.781c-1.069-7.884-8.868-12.92-17.117-11.736C79.916,136.005,74.962,146.979,79.736,156.006z"
		/>
	<path fill-rule="evenodd" clip-rule="evenodd" d="M90.495,134.488c8.249-1.184,16.047,3.853,17.117,11.736
		c2.289,16.878-21.077,22.638-27.876,9.781C74.962,146.979,79.916,136.005,90.495,134.488z M80.225,150.626
		c1.636,12.961,21.197,13.929,24.941,1.956C108.197,130.605,77.801,131.425,80.225,150.626z"/>
	<path fill-rule="evenodd" clip-rule="evenodd" fill="#FFFFFF" d="M105.167,152.582c-3.744,11.973-23.305,11.005-24.941-1.956
		C77.801,131.425,108.197,130.605,105.167,152.582z"/>
	<path fill-rule="evenodd" clip-rule="evenodd" fill="#FFFFFF" d="M123.261,42.058c-2.055,3.001-7.223,7.12-11.737,9.292
		C114.754,47.571,119.357,45.164,123.261,42.058z"/>
	<path fill-rule="evenodd" clip-rule="evenodd" fill="#FFFFFF" d="M104.188,47.438c1.064-0.713,3.324,1.547,3.423,3.423
		C105.43,50.76,105.894,48.014,104.188,47.438z"/>
	<path fill-rule="evenodd" clip-rule="evenodd" fill="#FFFFFF" d="M102.721,49.883c0.806-1.088,2.188,1.365,2.445,2.445
		C103.065,52.799,104.309,49.925,102.721,49.883z"/>
	<path fill-rule="evenodd" clip-rule="evenodd" d="M183.414,16.627c-2.429,9.146-10.835,12.313-18.095,16.628
		c0.265,8.71-0.471,16.881,0,24.452c12.784-0.156,20.069-0.022,33.744,0c1.599,1.825,1.745,5.101,2.935,7.335
		c6.992,2.549,16.89,1.428,20.051-3.912c22.185,0.044,38.32,1.451,57.218,4.401c2.61,0.407,6.139,1.943,8.314,1.467
		c2.574-0.564,6.404-6.307,8.803-9.292c3.045-3.79,6.312-7.28,7.824-10.27c2.311-4.567,2.621-8.701,4.401-11.737
		c1.853-3.159,4.78-5.333,7.825-7.825c6.858-5.612,22.765-14.677,35.7-6.847c1.604,16.376-1.07,32.332-1.467,47.438
		c6.301,1.36,14.844,0.48,20.051,2.935c-2.972,4.69-10.755,4.569-17.605,5.379c-1.035,1.663,2.667,3.444,0.978,5.869
		c-6.922,2.354-14.733,3.811-22.496,5.379c-7.712,1.559-15.7,2.324-22.985,4.401c0.645,3.453,4.064,4.369,7.336,5.379
		c3.214,0.993,7.266,0.596,9.292,2.935c-0.314,5.454-6.795,3.58-9.781,2.445c-3.296-1.253-6.174-5.104-8.803-5.38
		c-0.562-1.882-2.128-2.762-2.934-4.401c-45.842,9.952-84.451,18.305-131.554,26.409c1.6,3.454,6.165,3.941,5.868,9.292
		c-19.733,1.876-34.718-0.965-53.306,0c-5.03,0.261-13.192,2.337-13.693,6.847c-0.401,3.608,2.969,5.199,3.423,7.336
		c3.056,14.36-7.672,24.9-17.117,26.897c-18.706,3.955-35.637-19.555-20.54-35.7c-0.412-3.347,0.666-5.203,1.956-6.848
		c-0.822-1.999-3.213-2.099-3.423-4.401c-0.259-2.845,1.69-3.397,3.423-5.379c-22.116-5.281-47.546-9.674-63.576-23.475
		c-1.725,12.458,1.888,31.629,0.978,43.036c-0.237,2.974,0.544,7.909-3.423,8.314c-1.164-11.004-2.009-25.043-1.467-38.635
		c0.208-5.229,1.371-10.785,0.978-15.649c-0.493-6.099-4.194-12.106,0.489-17.117c-0.387-11.394-0.84-21.525,0.489-31.788
		c0.38-2.935,0.639-6.716,2.935-8.803c3.086,2.3,1.135,6.72,0.978,9.781c-0.396,7.728-1.089,14.951-0.978,24.941
		c4.791-4.87,10.571-10.214,18.583-11.248c5.823-0.751,14.561-0.053,22.496-0.489c9.657-0.53,21.441,0.228,30.81,0.489
		c0.616-6.581-0.536-19.41,0-27.386c-4.722-4.922-8.951-12.07-5.869-21.029c7.723-6.632,20.19-5.485,33.744-3.423
		c11.448,1.741,23.356,1.551,35.701,3.423c7.817,1.186,16.211,1.985,22.985,3.423C177.992,12.944,181.688,13.833,183.414,16.627z
		 M171.677,14.671c-5.586-0.972-14.511-2.042-20.051-2.934c-8.862-1.427-18.453-2.344-27.857-3.165
		c-11.074-0.966-23.685-3.511-32.784-0.748c-1.947,0.591-4.861,2.286-5.38,4.891c8.036-3.887,21.207-2.985,31.788-2.445
		c6.379,0.325,13.615,0.8,20.703,1.711c9.347,1.202,18.306,2.111,27.224,3.179c3.284,0.393,6.757,1.205,8.847,1.812
		c1.867,0.543,4.54,3.355,5.824,1.122C178.228,15.547,174.556,15.172,171.677,14.671z M342.354,21.029
		c-2.249-0.043-7.375,0.878-10.759,1.957c-2.528,0.806-8.282,3.207-10.27,4.401c-0.659,0.396-4.928,3.492-5.38,3.912
		c-3.645,3.391-7.709,11.695-8.803,16.628c-1.551,6.996,0.424,15.188-2.935,22.496c-3.664,0.677-8.964-0.66-13.204-0.979
		c-2.561-0.441-1.84,2.398-4.401,1.957c0.097-1.4,0.061-2.669-1.467-2.445c-21.214-1.957-38.921-3.762-60.642-5.379
		c-7.654,7.677-21.599,6.46-28.854,1.956c-2.255-1.4-4.161-4.714-6.357-5.379c-7.583-2.299-16.544,1.751-23.963,0
		c-0.309,3.446,0.208,9.75,0,14.671c38.066,0.524,67.956,1.046,103.678,1.467c2.892,0.034,5.325,0.378,8.313,0
		c2.128-0.269,4.105-1.524,6.357-1.956c8.239-1.578,15.21-1.458,22.008-3.423c0.924,0.217,2.947-0.665,2.445,0.978
		c9.984-7.388,25.712-3.45,39.612-3.423c0.922-14.601,2.929-29.189,1.468-45.481C347.273,21.658,344.448,21.069,342.354,21.029z
		 M138.422,35.211c0.036,5.504,0.184,10.594,0,15.649c-0.075,2.059-2.087,6.295,1.467,6.847c3.013-0.434,0.892-3.711,0.978-5.869
		c0.084-2.101,0.455-4.476,0.489-6.847c0.1-6.941,1.312-17.506-1.956-19.562C137.336,29.217,138.399,31.816,138.422,35.211z
		 M90.984,27.875c0.398,7.305-1.235,18.529,0,26.898c0.121,0.821,0.029,2.573,1.467,2.934c3.274-0.233,1.941-5.098,1.956-7.825
		c0.037-6.855,0.073-13.986-0.978-17.606c-0.039-1.832,2.108-1.478,1.467-3.912C93.558,27.288,92.483,26.549,90.984,27.875z
		 M135.977,33.744c0.717-0.775,1.009-3.883-0.979-3.423C134.32,31.78,134.421,33.314,135.977,33.744z M97.342,38.635
		c-0.157-1.788,1.316-1.944,2.445-2.445c-0.169-1.872,0.104-3.906-3.423-3.423C96.171,35,95.832,37.101,97.342,38.635z
		 M134.998,41.569c0.443,4.696-1.144,11.57,0.979,16.139c0.126-4.165,0.043-7.811,0-10.27c-0.084-4.799,1.404-9.545-0.489-13.204
		C134.379,36.574,134.747,38.903,134.998,41.569z M143.801,42.058c0.124,5.806-0.947,11.055,0,15.649
		c5.039-0.584,12.216-0.595,18.583,0c1.123-6.539,0.177-15.147,0.489-22.496C157.048,38.025,150.342,39.959,143.801,42.058z
		 M110.057,48.905c3.615-2.254,6.969-4.768,10.27-7.336c-8.861-0.806-12.25-2.76-21.029-2.445
		C103.23,42.038,105.791,46.324,110.057,48.905z M132.553,41.08c0.154-0.662,0.696-0.934,0.489-1.957c-0.489,0-0.978,0-1.467,0
		C131.438,40.238,131.693,40.962,132.553,41.08z M127.173,41.569c-4.284,3.867-9.02,7.282-13.204,11.248
		c1.673,2.566,2.736,5.741,7.825,4.891c2.508-5.48,5.864-10.111,7.825-16.139C128.804,41.569,127.989,41.569,127.173,41.569z
		 M124.729,57.218c1.37,0.405,5.876,1,8.313,0c-0.745-5.547,1.243-11.242-0.978-15.649
		C130.095,47.262,126.929,51.757,124.729,57.218z M111.524,51.35c4.514-2.172,9.682-6.291,11.737-9.292
		C119.357,45.164,114.754,47.571,111.524,51.35z M96.364,49.883c2.42,0.04,2.108-7.304,0-7.336
		C95.617,44.209,96.62,46.39,96.364,49.883z M107.612,50.861c-0.099-1.876-2.359-4.136-3.423-3.423
		C105.894,48.014,105.43,50.76,107.612,50.861z M100.276,56.729c1.074-0.883,2.416-1.497,2.935-2.935
		c-1.627-1.308-1.106-4.762-3.423-5.379C99.735,50.729,98.961,55.447,100.276,56.729z M105.167,52.328
		c-0.257-1.08-1.639-3.533-2.445-2.445C104.309,49.925,103.065,52.799,105.167,52.328z M97.342,57.708
		c0.696-1.715,1.25-6.97-0.978-7.336C96.787,52.72,95.386,56.892,97.342,57.708z M108.59,54.284
		c1.289,0.147,1.605-0.677,1.467-1.956c-0.489,0-0.979,0-1.467,0C108.59,52.98,108.59,53.632,108.59,54.284z M291.493,67
		c3.13,1.108,7.318,1.159,11.248,1.467c1.175-4.204-0.141-10.9,0.979-15.16c-0.108-0.381-0.41-0.569-0.979-0.489
		C298.959,57.511,295.725,62.754,291.493,67z M106.145,54.284C105.751,57.245,108.386,54.61,106.145,54.284L106.145,54.284z
		 M110.546,56.24c0.334,1.459,1.947,1.64,3.913,1.467c-0.094-2.025-1.46-2.778-2.935-3.423
		C111.518,55.256,110.19,54.906,110.546,56.24z M102.232,57.708c0.978,0,1.956,0,2.934,0
		C105.376,55.341,102.316,56.293,102.232,57.708z M49.904,63.087c-2.061,0.268,0.237-3.823-1.956-3.423
		c-2.839-0.883-0.248,3.665-2.935,2.935c-1.772-0.021-0.114-3.472-2.445-2.935c-1.924-0.294,0.125,3.385-1.956,2.935
		c-1.809,0.341-2.161-0.774-1.956-2.445c-2.792-0.347-1.016,3.875-3.913,3.423c-1.908-0.65-0.099-2.185-0.978-3.423
		c-2.429,0.18-4.178,1.039-5.869,1.956c0.274,3.476-0.581,8.079,0.489,10.759c22.658,0.189,36.473,0.527,60.153,0.489
		c-0.238-4.49,0.53-9.985-0.489-13.693c-5.278,0.456-6.304,0.024-12.226,0c-1.78,0.34-0.833,3.405-3.423,2.935
		c-1.403-0.391-0.308-3.279-2.445-2.935c-1.55,0.406-0.274,3.638-2.934,2.935c-1.129-0.501,0.014-3.274-1.957-2.935
		c-2.198-0.405-0.541,3.045-2.445,2.935c-1.957,0.326-1.966-1.294-1.957-2.935c-1.141,0-2.282,0-3.423,0
		c0.232,1.862-0.208,3.053-1.467,3.423c-2.148-0.134-0.644-3.92-2.935-3.912C51.181,59.799,52.343,63.243,49.904,63.087z
		 M138.422,59.664c-0.339,14.716-0.554,29.067-0.489,48.905c0.011,3.474,0.837,7.299-0.978,10.27
		c-2.155-2.776-1.085-6.966-0.978-10.759c0.497-17.533,0.634-30.029,0.489-41.569c-0.028-2.257,0.432-5.218-1.467-6.357
		c-0.047,12.291,0.086,28.039,0,39.613c-0.03,4.15,1.005,8.863-1.467,11.737c-1.287-0.669-0.23-3.682-2.445-3.423
		c-9.931-0.405-18.434,0.123-29.343,1.957c-1.763,0.52-1.286,3.279-2.934,3.912c-1.759-8.163-0.979-18.201-0.979-27.875
		c0-5.144,0.047-10.03,0-14.671c-0.042-4.071,0.697-8.435-0.978-11.737c-0.851,20.468-0.328,34.793-0.489,49.394
		c-0.02,1.82,2.108,5.37-0.978,6.357c-1.538-3.643-0.491-7.262-0.489-11.737c0.004-8.316-0.208-23.688-0.489-37.167
		c-0.041-1.954,1.397-6.496-1.956-6.847c-1.393,2.416-1.344,6.014-1.467,8.803c-0.675,15.354,0.946,30.387,0.489,44.014
		c-0.063,1.891,1.165,5.428-1.467,6.357c-1.587-0.715,0.36-2.683-1.467-2.445c-3.5,1.441-9.146,3.174-9.292,6.358
		c4.198,1.303,8.563,0.188,12.715,0c26.583-1.208,56.556-0.457,81.67,3.912c-0.933-3.795-4.517-4.938-7.825-6.357
		c-0.903-1.39-1.479,3.302-2.934,1.467c-0.756-0.711-0.431-2.504-0.489-3.912c-6.608-2.031-11.965-5.315-19.073-6.847
		c-0.474,3.39,0.676,5.492-0.978,7.824c-2.573-2.269-1.467-6.333-1.467-9.292c0-19.86,0.708-34.831,0-49.394
		c-0.103-0.549-0.542-0.761-0.978-0.978C139.807,59.745,139.116,59.706,138.422,59.664z M99.787,60.153
		c0.167,4.561-0.428,9.882,0.489,13.693c4.401,0,8.803,0,13.205,0c-1.744-5.429-4.851-9.495-7.336-14.183
		C104.061,59.862,101.106,59.19,99.787,60.153z M115.437,70.912c1.949-3.93-2.996-8.048-5.379-10.759
		c-0.108-0.381-0.41-0.569-0.978-0.489C110.558,64.053,112.539,67.941,115.437,70.912z M113.48,60.153
		c1.216,2.208,2.042,4.804,4.401,5.869c0.604-2.139,3.049-4.59,2.445-6.358C118.094,59.876,114.942,59.169,113.48,60.153z
		 M123.261,60.153c-1.947,2.292-3.039,5.438-3.913,8.803c1.129,1.805,1.903,3.966,3.913,4.891c1.152,0.555,7.359-0.8,7.825,1.956
		c-1.417,1.191-5.752-0.536-6.357,1.467c2.282,0,4.564,0,6.847,0c1.422-5.085,2.084-11.074,0.978-17.606
		C129.551,59.922,125.473,59.104,123.261,60.153z M143.801,74.335c7.001,0.011,10.683,0.622,19.073,0.489c0-4.891,0-9.781,0-14.671
		c-5.447-0.526-13.425,0.346-19.073-0.489C143.145,63.701,143.903,71.114,143.801,74.335z M198.085,63.576
		c0.05-1.517-0.598-2.336-0.978-3.423c-0.979,0-1.956,0-2.935,0C194.484,62.286,196.678,62.538,198.085,63.576z M23.985,64.065
		c-6.652,4.938-10.704,13.347-8.803,25.431c2.813,3.543,6.158,6.557,10.759,8.313c0.13-8.489-0.489-15.958-0.489-25.43
		c0-3.117,0.821-6.852-0.979-8.314C24.311,64.065,24.148,64.065,23.985,64.065z M319.369,70.423c3.685-0.81,5.576,0.258,8.313-0.489
		c1.63,0,3.261,0,4.891,0c1.408-0.819-2.499-0.389-3.424-0.489c-3.103,0.321-7.491-0.645-9.78,0.489
		C318.537,69.824,318.159,70.485,319.369,70.423z M116.415,73.846c0.652,0.698,2.771,0.698,3.423,0
		c-0.216-1.415-1.031-2.229-2.445-2.445C117.183,72.332,116.339,72.629,116.415,73.846z M313.5,72.379
		c0.235,1.896,2.79,0.789,3.912,0.978c7.127,1.2,14.429,2.17,21.029,2.445c1.928,0.135,1.496-2.091,3.424-1.956
		c0.552,0.915,0.578,2.356,2.445,1.956c7.451-1.102,13.811-0.275,20.539-3.423C345.888,72.393,330.95,71.279,313.5,72.379z
		 M288.559,76.291c5.698-0.008,12.086,0.675,14.672-2.445C297.925,74.246,292.469,74.495,288.559,76.291z M304.208,76.291
		c5.228-0.612,12.045,1.114,15.161-0.489C313.779,75.341,307.888,72.062,304.208,76.291z M28.386,74.824
		c-0.381,0.108-0.569,0.409-0.489,0.978c-0.001,0.491,0.396,0.582,0.489,0.978c16.557,0.644,37.111-1.193,52.817-0.489
		c2.687,0.121,6.018,1.671,7.336,0C69.259,74.789,45.607,75.83,28.386,74.824z M100.276,76.78c2.487,0.709,4.971,0.729,6.847-0.489
		C105.125,76.363,101.274,74.642,100.276,76.78z M108.101,76.78c0.98,0.836,3.965,0.712,4.401-0.489
		C111.165,75.74,109.364,75.99,108.101,76.78z M118.371,77.27c1.111-0.356,3.815,0.881,3.423-0.979c-1.141,0-2.282,0-3.423,0
		C118.371,76.617,118.371,76.943,118.371,77.27z M323.771,78.248c1.473,1.116,4.245,0.263,4.401-1.467
		C326.635,76.478,324.803,75.709,323.771,78.248z M149.181,76.78c-1.646,0.31-4.542-0.63-5.379,0.489
		C145.626,77.839,148.395,78.062,149.181,76.78z M151.137,77.758c3.591-0.322,8.471,0.646,11.248-0.489
		C159.066,77.936,153.979,75.638,151.137,77.758z M175.589,77.758c-0.974,0.323-9.984-1.892-10.27,0
		C169.772,77.483,174.299,78.186,175.589,77.758z M179.013,77.27c-0.711,0.267-2.528-0.572-2.445,0.489
		C177.278,77.491,179.095,78.33,179.013,77.27z M181.947,77.27C178.814,76.705,180.873,78.763,181.947,77.27L181.947,77.27z
		 M334.04,78.248c1.009-0.296,3.397,0.789,2.935-0.978c-0.979,0-1.956,0-2.935,0C334.04,77.595,334.04,77.921,334.04,78.248z
		 M340.887,78.248c1.698-0.81,2.588,0.409,3.912-0.978C343.572,77.672,340.588,76.319,340.887,78.248z M347.733,77.27
		C344.602,76.705,346.659,78.763,347.733,77.27L347.733,77.27z M27.897,98.788c16.059,8.068,35.772,12.48,55.262,17.116
		c2.095-1.328,4.927-1.919,6.847-3.423c-0.807-11.167-0.8-21.701-1.467-33.744c-10.564,0.175-24.569-0.122-36.679,0
		c-0.281,0.86,0.591,2.874-0.489,2.935c-2.046,0.746-3.696,0.19-5.38,0c-0.005-1.299,0.185-2.793-0.489-3.423
		c-2.398,0.868-0.88,3.147-3.423,3.912c-1.273,0.383-1.601-0.713-2.935,0c-1.444-0.349-0.129-3.457-1.956-3.423
		c-1.201,0.917,0.664,2.507-0.978,3.423c-1.53,0.1-3.59-0.33-4.401,0.489c-1.451-0.831-0.041-4.524-2.445-4.401
		c-0.326,0-0.652,0-0.978,0C27.267,84.138,28.207,92.088,27.897,98.788z M260.684,78.248c-2.454,0.317-6.184-0.641-7.825,0.489
		C255.312,78.419,259.042,79.377,260.684,78.248z M264.596,78.248c-1.014,0.291-3.213-0.604-3.424,0.489
		C262.186,78.445,264.385,79.341,264.596,78.248z M274.865,79.226c2.424-0.012,5.436,0.016,8.314,0
		c2.604-0.014,6.095,0.827,7.335-0.978C284.95,78.975,279.401,77.132,274.865,79.226z M297.361,78.736
		c0.245,0.753,7.926,0.858,9.781,0C304.679,77.979,299.826,77.979,297.361,78.736z M312.522,78.248c-1.142,0-2.282,0-3.424,0
		C308.971,80.191,312.285,79.803,312.522,78.248z M320.347,78.248c-2.282,0-4.564,0-6.847,0
		C313.994,80.462,319.279,79.691,320.347,78.248z M100.765,99.276c3.663-6.444,6.79-13.424,10.27-20.051
		c-4.4-0.962-6.779,0.388-10.759-0.489C99.494,86.642,99.513,93.922,100.765,99.276z M127.173,97.809
		c-1.281-2.941-3.466-5.79-5.379-9.292c-2.015-3.688-3.264-8.926-6.847-9.781c-0.082,0.57-0.773,0.531-1.467,0.489
		c-2.316,5.002-4.438,9.567-6.847,14.182c-2.286,4.38-6.23,8.558-6.358,14.671c7.691-1.161,16.542-3.605,24.941-2.445
		C126.454,103.61,126.588,100.484,127.173,97.809z M128.152,93.897c3.174-6.437-1.447-10.026-3.913-14.671c-1.467,0-2.934,0-4.401,0
		C122.334,84.392,124.724,89.664,128.152,93.897z M130.597,84.116c-0.343-2.136,0.832-2.755,0.489-4.891c-1.467,0-2.934,0-4.401,0
		C127.373,81.471,127.993,83.786,130.597,84.116z M143.312,108.568c7.05,1.589,12.544,4.735,19.073,6.847
		c0.12-13.787,0.032-24.15,0.489-35.211c-5.521-0.317-11.696-0.59-19.562-0.489C143.462,89.814,143.21,99.672,143.312,108.568z
		 M165.319,79.714c-0.071,0.578-0.871,1.109,0,1.467c-0.11,9.98,0.017,27.521-0.489,35.701c5.846,2.913,11.917-0.577,17.605-1.957
		c6.053-1.468,12.832-2.162,19.073-3.423c36.831-7.443,74.856-14.946,112.48-22.496c1.674-2.153,4.604-5.397,4.401-7.825
		c-8.345,1.509-18.877-1.892-29.343,0c-2.701,0.488-5.801,2.54-8.313,3.423c-2.808,0.987-6.081,1.962-9.292,2.934
		c-5.069,1.534-15.715,4.819-16.139-1.956c-0.167-2.665,1.866-2.994,2.935-4.89C230.092,81.13,191.862,80.724,165.319,79.714z
		 M335.019,84.605c4.302-0.291,8.556-1.896,12.226-2.934c1.371-0.388,3.384,0.377,3.913-1.467
		C346.281,80.857,335.764,78.384,335.019,84.605z M263.617,81.671c2.264-0.21,3.289,0.815,2.445,2.445
		c-0.578-0.563-1.729-0.554-2.934-0.489c-0.75,2.379,1.419,1.841,1.467,3.423c7.006-1.308,13.313-3.314,19.072-5.869
		C276.603,81.592,267.445,79.892,263.617,81.671z M320.347,83.627c2.084,0.128,1.951-1.962,3.424-2.445
		C322.022,79.791,320.881,82.275,320.347,83.627z M326.216,81.182c-1.42,0.609-5.531,5.666-5.869,6.847
		c3.241-0.671,5.985-1.839,9.781-1.956c0.545-1.411,0.88-3.032,0.978-4.891C329.441,80.378,327.486,80.636,326.216,81.182z
		 M258.238,86.072c0.933,0.208,0.885,1.397,2.445,0.978c-0.56-2.019-0.727-4.013,0.978-4.891
		C259.404,82.348,258.055,83.443,258.238,86.072z M133.042,88.028c-0.307-1.486,0.626-4.212-0.489-4.891
		C132.37,84.564,130.443,88.167,133.042,88.028z M132.553,102.211c0.005-4.357,1.883-8.847-1.467-11.737
		C129.46,94.322,128.921,100.269,132.553,102.211z M128.152,105.634c1.067,0.26,3.163,1.184,3.423-0.489
		c-1.557-0.562-0.808-3.431-2.935-3.423C128.987,103.535,127.805,103.82,128.152,105.634z M85.604,125.196
		c1.719,2.489,5.242,1.317,7.825,1.467c19.002,1.102,41.617-1.016,62.109-0.489C133.563,123.516,109.362,124.016,85.604,125.196z
		 M79.247,133.999c-1.788,1.933-4.189,5.5-4.891,7.335c-4.81,12.596,5.158,27.182,18.584,26.898
		c8.028-0.17,13.029-4.67,17.605-10.76c0.714-5.519,2.579-8.68,1.467-13.693c-2.327-10.492-13.753-16.601-23.963-14.182
		C83.812,130.943,81.437,131.63,79.247,133.999z"/>
	<path fill-rule="evenodd" clip-rule="evenodd" fill="#FFFFFF" d="M0.511,0C128.804,0,257.096,0,385.39,0
		c0,59.5,0,119.001,0,178.502c-128.457,0-256.908,0-385.368,0c0-59.012,0-118.022,0-177.035C-0.021,0.773-0.059,0.082,0.511,0z
		 M174.611,12.226c-6.774-1.438-15.168-2.238-22.985-3.423c-12.344-1.872-24.253-1.682-35.701-3.423
		C102.371,3.318,89.904,2.17,82.181,8.803c-3.083,8.959,1.146,16.107,5.869,21.029c-0.536,7.977,0.616,20.806,0,27.386
		c-9.369-0.261-21.153-1.019-30.81-0.489c-7.935,0.436-16.673-0.263-22.496,0.489c-8.012,1.034-13.793,6.378-18.583,11.248
		c-0.111-9.99,0.582-17.213,0.978-24.941c0.157-3.062,2.108-7.481-0.978-9.781c-2.296,2.087-2.554,5.868-2.935,8.803
		c-1.329,10.263-0.875,20.394-0.489,31.788c-4.683,5.011-0.982,11.018-0.489,17.117c0.393,4.865-0.77,10.42-0.978,15.649
		c-0.542,13.592,0.304,27.631,1.467,38.635c3.968-0.405,3.186-5.341,3.423-8.314c0.91-11.407-2.703-30.578-0.978-43.036
		c16.029,13.8,41.46,18.194,63.576,23.475c-1.733,1.981-3.683,2.534-3.423,5.379c0.21,2.303,2.602,2.402,3.423,4.401
		c-1.29,1.645-2.368,3.501-1.956,6.848c-15.097,16.146,1.834,39.655,20.54,35.7c9.444-1.997,20.172-12.537,17.117-26.897
		c-0.455-2.137-3.825-3.728-3.423-7.336c0.501-4.51,8.664-6.586,13.693-6.847c18.588-0.965,33.572,1.876,53.306,0
		c0.297-5.351-4.269-5.838-5.868-9.292c47.103-8.104,85.712-16.457,131.554-26.409c0.806,1.639,2.371,2.52,2.934,4.401
		c2.629,0.276,5.507,4.127,8.803,5.38c2.986,1.135,9.467,3.008,9.781-2.445c-2.026-2.338-6.078-1.942-9.292-2.935
		c-3.271-1.01-6.691-1.927-7.336-5.379c7.285-2.078,15.273-2.843,22.985-4.401c7.763-1.569,15.574-3.025,22.496-5.379
		c1.689-2.424-2.013-4.206-0.978-5.869c6.851-0.811,14.634-0.689,17.605-5.379c-5.207-2.455-13.75-1.574-20.051-2.935
		c0.396-15.106,3.07-31.061,1.467-47.438c-12.936-7.83-28.842,1.235-35.7,6.847c-3.045,2.491-5.973,4.666-7.825,7.825
		c-1.78,3.036-2.091,7.17-4.401,11.737c-1.512,2.99-4.779,6.48-7.824,10.27c-2.398,2.985-6.229,8.728-8.803,9.292
		c-2.176,0.476-5.704-1.06-8.314-1.467c-18.897-2.95-35.033-4.357-57.218-4.401c-3.161,5.34-13.059,6.461-20.051,3.912
		c-1.189-2.234-1.336-5.511-2.935-7.335c-13.675-0.022-20.96-0.156-33.744,0c-0.471-7.571,0.265-15.742,0-24.452
		c7.26-4.314,15.666-7.482,18.095-16.628C181.688,13.833,177.992,12.944,174.611,12.226z"/>
</g>
</svg>
