<?xml version="1.0" encoding="UTF-8" standalone="no"?>
<!-- Created with Inkscape (http://www.inkscape.org/) -->
<svg
   xmlns:dc="http://purl.org/dc/elements/1.1/"
   xmlns:cc="http://creativecommons.org/ns#"
   xmlns:rdf="http://www.w3.org/1999/02/22-rdf-syntax-ns#"
   xmlns:svg="http://www.w3.org/2000/svg"
   xmlns="http://www.w3.org/2000/svg"
   xmlns:sodipodi="http://sodipodi.sourceforge.net/DTD/sodipodi-0.dtd"
   xmlns:inkscape="http://www.inkscape.org/namespaces/inkscape"
   width="250"
   height="250"
   id="svg2"
   sodipodi:version="0.32"
   inkscape:version="0.46"
   sodipodi:docname="ant.svg"
   inkscape:output_extension="org.inkscape.output.svg.inkscape"
   inkscape:export-filename="P:\pidgey\data\images\drawing.png"
   inkscape:export-xdpi="90"
   inkscape:export-ydpi="90"
   version="1.0">
  <defs
     id="defs4">
    <inkscape:perspective
       sodipodi:type="inkscape:persp3d"
       inkscape:vp_x="0 : 125 : 1"
       inkscape:vp_y="0 : 1000 : 0"
       inkscape:vp_z="250 : 125 : 1"
       inkscape:persp3d-origin="125 : 83.333333 : 1"
       id="perspective3645" />
  </defs>
  <sodipodi:namedview
     id="base"
     pagecolor="#cb90ff"
     bordercolor="#666666"
     borderopacity="1.0"
     gridtolerance="10000"
     guidetolerance="10"
     objecttolerance="10"
     inkscape:pageopacity="1"
     inkscape:pageshadow="2"
     inkscape:zoom="3.38"
     inkscape:cx="81.139816"
     inkscape:cy="97.768444"
     inkscape:document-units="px"
     inkscape:current-layer="layer1"
     showgrid="false"
     inkscape:window-width="1680"
     inkscape:window-height="1028"
     inkscape:window-x="0"
     inkscape:window-y="0" />
  <metadata
     id="metadata7">
    <rdf:RDF>
      <cc:Work
         rdf:about="">
        <dc:format>image/svg+xml</dc:format>
        <dc:type
           rdf:resource="http://purl.org/dc/dcmitype/StillImage" />
      </cc:Work>
    </rdf:RDF>
  </metadata>
  <g
     inkscape:label="Layer 1"
     inkscape:groupmode="layer"
     id="layer1">
    <path
       style="fill:#ffffff;fill-rule:evenodd;stroke:#000000;stroke-width:2;stroke-linecap:butt;stroke-linejoin:miter;stroke-opacity:1;stroke-miterlimit:4;stroke-dasharray:none"
       d="M 79.942184,173.55812 C 78.663528,182.9098 79.034208,192.42719 79.836455,201.81844 C 81.580842,214.88182 85.807732,227.76482 92.592681,239.31365 C 95.21565,242.83199 101.43541,248.18405 106.48631,247.88845 C 112.55449,247.09546 115.81659,240.73633 119.33617,236.53619 C 134.75648,216.57319 137.15232,176.41506 126.95036,158.33656 C 107.17231,142.51364 85.554247,148.33772 79.942184,173.55812 z"
       id="path3655"
       sodipodi:nodetypes="ccccccc" />
    <path
       style="fill:none;fill-rule:evenodd;stroke:#000000;stroke-width:2;stroke-linecap:butt;stroke-linejoin:miter;stroke-opacity:1;stroke-miterlimit:4;stroke-dasharray:none"
       d="M 88.757401,121.59763 C 79.438464,112.64434 64.998578,110.28904 57.963579,98.960969 C 58.021403,93.494613 63.366069,88.76203 65.231874,83.60366 C 65.718541,81.203719 63.293081,78.364437 64.201187,76.0355"
       id="path4232"
       sodipodi:nodetypes="cccc" />
    <path
       style="fill:none;fill-rule:evenodd;stroke:#000000;stroke-width:2;stroke-linecap:butt;stroke-linejoin:miter;stroke-opacity:1;stroke-miterlimit:4;stroke-dasharray:none"
       d="M 85.79882,128.69823 C 78.490578,129.3983 70.20927,127.77154 62.601878,125.93599 C 58.511736,124.79115 53.432314,121.75121 49.246061,120.97832 C 46.550586,121.71271 40.847597,134.18959 35.168672,140.50062 C 32.971659,142.94218 27.759322,141.69355 27.218935,142.60355"
       id="path4234"
       sodipodi:nodetypes="cccsc" />
    <path
       style="fill:none;fill-rule:evenodd;stroke:#000000;stroke-width:2;stroke-linecap:butt;stroke-linejoin:miter;stroke-opacity:1;stroke-miterlimit:4;stroke-dasharray:none"
       d="M 86.094673,140.53255 C 77.074958,146.62381 65.309929,145.94642 55.874433,150.81922 C 49.452742,165.45678 55.055935,180.70417 52.02468,196.1447 C 51.555627,198.53395 46.259448,201.79414 45.56213,204.14201"
       id="path4236"
       sodipodi:nodetypes="ccsc" />
    <path
       style="fill:none;fill-rule:evenodd;stroke:#000000;stroke-width:2;stroke-linecap:butt;stroke-linejoin:miter;stroke-miterlimit:4;stroke-dasharray:none;stroke-opacity:1"
       d="M 126.33136,122.929 C 135.6503,113.97571 150.09018,111.62041 157.12518,100.29234 C 157.06736,94.825977 151.72269,90.093397 149.85689,84.935027 C 149.37022,82.535087 151.79568,79.695797 150.88757,77.366867"
       id="path4258"
       sodipodi:nodetypes="cccc" />
    <path
       style="fill:none;fill-rule:evenodd;stroke:#000000;stroke-width:2;stroke-linecap:butt;stroke-linejoin:miter;stroke-miterlimit:4;stroke-dasharray:none;stroke-opacity:1"
       d="M 129.28994,130.0296 C 136.59818,130.72967 144.87949,129.10291 152.48688,127.26736 C 156.57702,126.12252 161.65645,123.08258 165.8427,122.30969 C 168.53817,123.04408 174.24116,135.52096 179.92009,141.83199 C 182.1171,144.27355 187.32944,143.02492 187.86982,143.93492"
       id="path4260"
       sodipodi:nodetypes="cccsc" />
    <path
       style="fill:none;fill-rule:evenodd;stroke:#000000;stroke-width:2;stroke-linecap:butt;stroke-linejoin:miter;stroke-miterlimit:4;stroke-dasharray:none;stroke-opacity:1"
       d="M 127.5148,141.56806 C 136.53451,147.65932 148.29954,146.98193 157.73504,151.85473 C 164.15673,166.49229 158.55353,181.73968 161.58479,197.18021 C 162.05384,199.56946 167.35002,202.82965 168.04734,205.17752"
       id="path4262"
       sodipodi:nodetypes="ccsc" />
    <path
       style="fill:#ffffff;fill-rule:evenodd;stroke:#000000;stroke-width:2.01923013;stroke-linecap:butt;stroke-linejoin:miter;stroke-miterlimit:4;stroke-dasharray:none;stroke-opacity:1"
       d="M 109.75064,106.75571 C 96.607715,105.68013 88.962822,114.86049 85.826267,127.07075 C 85.027122,134.60086 84.30386,141.49197 87.310536,148.47546 C 88.933574,151.97357 92.295669,154.38444 96.024639,155.37332 C 102.80656,157.42231 110.08464,156.94844 116.9981,155.87735 C 121.95628,155.08864 125.16908,150.59736 126.31641,146.09958 C 127.68715,140.31917 129.68734,133.06862 128.16089,127.12008 C 126.59525,121.2104 123.66105,116.94728 120.72381,111.60604 C 118.4308,108.50102 114.41614,106.91568 110.60626,106.70326 C 110.32041,106.70682 110.03469,106.72395 109.75064,106.75571 z"
       id="path3653"
       sodipodi:nodetypes="cccccccccc" />
    <g
       id="g3688">
      <path
         sodipodi:nodetypes="ccccccccccccccc"
         id="path3488"
         d="M 99.826756,75.074377 C 98.278934,54.643406 102.77586,36.968538 81.134779,38.520377 C 76.515231,44.17746 66.430546,33.636993 75.103975,31.782699 C 80.970658,31.927105 80.91912,35.476031 87.093107,34.872851 C 110.40354,36.24565 99.660504,75.35173 105.03446,80.789752 C 112.97368,82.964691 112.76527,77.189486 112.83494,71.595204 C 110.28236,50.507008 115.93737,32.955317 139.93373,35.538788 C 143.68306,34.928531 151.04099,33.222527 150.5512,41.142804 C 147.72523,48.494089 143.34267,38.263226 137.88004,38.112611 C 114.06191,37.610606 113.52314,63.721188 116.78455,78.422589 C 117.87331,82.701847 121.22417,86.365175 125.18525,88.35943 C 131.97284,95.100655 128.26481,108.8193 118.54514,110.40505 C 111.96689,112.05018 104.99424,111.37417 98.443257,110.03047 C 89.769765,106.59694 84.556709,96.187429 88.484802,87.635501 C 92.115504,81.563347 100.60461,82.214838 99.826756,75.074377 z"
         style="fill:#ffffff;fill-rule:evenodd;stroke:#000000;stroke-width:2;stroke-linecap:butt;stroke-linejoin:miter;stroke-opacity:1;stroke-miterlimit:4;stroke-dasharray:none" />
      <path
         id="path3516"
         d="M 114.78712,89.266428 C 113.01268,93.330332 112.59039,98.347664 114.99221,102.25448 C 117.12582,105.6955 120.8629,108.19622 124.93496,108.52109 C 129.42667,107.98347 132.95319,103.9978 133.70759,99.656501 C 135.03357,94.294032 133.61979,87.996883 129.21525,84.420077 C 126.54728,82.187412 122.38583,81.425371 119.38281,83.444107 C 117.23224,84.778713 115.73521,86.958224 114.78712,89.266428 z"
         style="fill:#000000;fill-rule:evenodd;stroke:#000000;stroke-width:1px;stroke-linecap:butt;stroke-linejoin:miter;stroke-opacity:1" />
      <path
         id="path3642"
         d="M 81.565712,89.43174 C 79.757705,93.548265 79.367776,98.65884 81.871984,102.58039 C 84.019153,105.93873 87.706021,108.36536 91.713552,108.6864 C 96.20137,108.14223 99.738038,104.16689 100.48618,99.821814 C 101.83645,94.408192 100.35703,88.041012 95.867697,84.481816 C 93.148827,82.266736 88.922366,81.615551 85.961698,83.736993 C 83.915124,85.083101 82.485256,87.194681 81.565712,89.43174 z"
         style="fill:#000000;fill-rule:evenodd;stroke:#000000;stroke-width:1px;stroke-linecap:butt;stroke-linejoin:miter;stroke-opacity:1" />
      <path
         sodipodi:nodetypes="cccccc"
         id="path3644"
         d="M 97.205346,89.649178 C 97.637475,91.560421 97.713379,93.53377 97.629683,95.485727 C 98.168422,96.010058 96.724233,96.254954 97.045504,95.558893 C 96.695877,94.429239 96.368652,93.104892 95.259848,92.477234 C 92.869775,91.304974 91.559613,89.299721 90.601852,86.917729 C 92.270167,82.284309 96.2295,86.638266 97.205346,89.649178 z"
         style="fill:#ffffff;fill-rule:evenodd;stroke:#000000;stroke-width:1px;stroke-linecap:butt;stroke-linejoin:miter;stroke-opacity:1" />
      <path
         sodipodi:nodetypes="cccccc"
         id="path3646"
         d="M 125.41965,85.875504 C 126.72135,85.532975 128.01325,86.141835 129.1564,86.705793 C 131.59352,89.794364 131.33316,93.74386 131.33461,97.456472 C 130.59041,96.494676 130.23327,95.079312 129.63278,93.928428 C 126.99966,92.566924 125.49603,90.607311 124.31166,87.962313 C 124.21397,87.109069 124.98825,86.514348 125.41965,85.875504 z"
         style="fill:#ffffff;fill-rule:evenodd;stroke:#000000;stroke-width:1px;stroke-linecap:butt;stroke-linejoin:miter;stroke-opacity:1" />
    </g>
  </g>
</svg>
