<?xml version="1.0" encoding="UTF-8" standalone="no"?>
<!-- Created with Inkscape (http://www.inkscape.org/) -->
<svg
   xmlns:dc="http://purl.org/dc/elements/1.1/"
   xmlns:cc="http://creativecommons.org/ns#"
   xmlns:rdf="http://www.w3.org/1999/02/22-rdf-syntax-ns#"
   xmlns:svg="http://www.w3.org/2000/svg"
   xmlns="http://www.w3.org/2000/svg"
   xmlns:sodipodi="http://sodipodi.sourceforge.net/DTD/sodipodi-0.dtd"
   xmlns:inkscape="http://www.inkscape.org/namespaces/inkscape"
   width="250"
   height="250"
   id="svg2"
   sodipodi:version="0.32"
   inkscape:version="0.46"
   sodipodi:docname="aphidaward1.svg"
   inkscape:output_extension="org.inkscape.output.svg.inkscape"
   inkscape:export-filename="P:\pidgey2\data\images\aphidaward1.png"
   inkscape:export-xdpi="92.160004"
   inkscape:export-ydpi="92.160004"
   version="1.0">
  <defs
     id="defs4">
    <inkscape:perspective
       sodipodi:type="inkscape:persp3d"
       inkscape:vp_x="0 : 125 : 1"
       inkscape:vp_y="0 : 1000 : 0"
       inkscape:vp_z="250 : 125 : 1"
       inkscape:persp3d-origin="125 : 83.333333 : 1"
       id="perspective3645" />
  </defs>
  <sodipodi:namedview
     id="base"
     pagecolor="#cb90ff"
     bordercolor="#666666"
     borderopacity="1.0"
     gridtolerance="10000"
     guidetolerance="10"
     objecttolerance="10"
     inkscape:pageopacity="0"
     inkscape:pageshadow="2"
     inkscape:zoom="4.463258"
     inkscape:cx="105.0831"
     inkscape:cy="144.55504"
     inkscape:document-units="px"
     inkscape:current-layer="layer1"
     showgrid="false"
     inkscape:window-width="1679"
     inkscape:window-height="990"
     inkscape:window-x="1"
     inkscape:window-y="26" />
  <metadata
     id="metadata7">
    <rdf:RDF>
      <cc:Work
         rdf:about="">
        <dc:format>image/svg+xml</dc:format>
        <dc:type
           rdf:resource="http://purl.org/dc/dcmitype/StillImage" />
      </cc:Work>
    </rdf:RDF>
  </metadata>
  <g
     inkscape:label="Layer 1"
     inkscape:groupmode="layer"
     id="layer1">
    <path
       style="opacity:1;fill:#ff5555;fill-opacity:1;stroke:#000000;stroke-width:2.75859736999999990;stroke-miterlimit:4;stroke-dasharray:none;stroke-opacity:1"
       d="M 110.38839,144.88708 C 111.2806,186.77071 106.84969,210.21218 97.14606,243.85283 C 106.0481,233.5837 117.00036,236.83113 126.74881,227.37672 C 139.29557,243.40721 154.58724,240.64699 157.41608,246.15629 C 153.83,235.00559 143.98267,176.51987 147.71147,143.09425 C 142.69775,144.50943 115.2209,142.9642 110.38839,144.88708 z"
       id="path3306"
       sodipodi:nodetypes="cccccc"
       inkscape:transform-center-x="4.4332338"
       inkscape:transform-center-y="7.6574057" />
    <path
       style="opacity:1;fill:#ff5555;fill-opacity:1;stroke:#000000;stroke-width:2.75859736999999990;stroke-miterlimit:4;stroke-dasharray:none;stroke-opacity:1"
       d="M 78.947599,131.80067 C 63.846975,170.87759 50.835505,190.87353 29.069241,218.29766 C 41.207358,212.18477 53.378908,217.24859 65.990077,212.21105 C 71.499003,231.80825 83.414899,237.17403 83.936405,243.34515 C 84.859611,231.66843 97.990521,173.83134 114.14899,144.33422 C 108.97375,143.73669 84.148279,131.85973 78.947599,131.80067 z"
       id="path3304"
       sodipodi:nodetypes="cccccc" />
    <path
       style="opacity:1;fill:#ff5555;fill-opacity:1;stroke:#000000;stroke-width:2.75859736999999990;stroke-miterlimit:4;stroke-dasharray:none;stroke-opacity:1"
       d="M 176.65201,130.69112 C 191.75263,169.76805 204.7641,189.76399 226.53036,217.18811 C 214.39225,211.07523 204.63882,218.9602 192.02766,213.92267 C 186.51873,233.51985 172.18471,236.06448 171.6632,242.23561 C 170.74,230.55889 157.60909,172.7218 141.45061,143.22468 C 146.62586,142.62714 171.45132,130.75019 176.65201,130.69112 z"
       id="path3274"
       sodipodi:nodetypes="cccccc" />
    <path
       style="fill:#ff8080;fill-opacity:1;stroke:#000000;stroke-width:2.75859736999999990;stroke-miterlimit:4;stroke-dasharray:none;stroke-opacity:1"
       d="M 88.052529,68.57116 C 85.663109,64.722963 83.464723,60.580742 80.203088,57.498246 C 73.836182,52.986489 65.821509,52.586815 59.24437,48.504498 C 56.153538,46.683204 52.742863,43.379847 53.312536,39.23953 C 54.359424,34.8476 58.468528,32.641075 61.241617,29.624523 C 67.874501,24.547997 74.359202,19.19468 81.500021,14.944303 C 84.058508,12.634717 87.408245,10.110411 90.870855,11.857295 C 97.312302,13.280982 103.57652,20.600289 105.76241,26.351213 C 109.20624,33.300485 113.31835,38.324452 114.19834,46.598671 C 114.90587,53.898289 110.61718,61.510999 103.933,63.621292 C 100.32325,64.439339 91.407539,69.273932 88.052529,68.57116 z"
       id="path3173"
       sodipodi:nodetypes="ccccccccccc" />
    <path
       style="fill:#ff5555;fill-opacity:0.75000000000000000;stroke:#000000;stroke-width:2.75859736999999990;stroke-miterlimit:4;stroke-dasharray:none;stroke-opacity:1"
       d="M 95.163837,51.788041 C 92.14952,48.678756 88.746927,45.910534 86.406947,42.1381 C 85.138097,40.62772 83.686489,39.0923 83.281003,37.028972 C 82.419735,35.746269 83.302027,33.327607 84.940924,33.683335 C 86.386392,33.93685 87.889199,34.125673 89.223093,34.853746 C 90.459313,35.538711 91.648404,36.329707 92.77618,37.202708 C 94.560454,38.669693 95.401417,40.983914 96.389317,43.065259 C 101.65875,57.725045 111.8091,70.747671 95.163837,51.788041 z"
       id="path3175"
       sodipodi:nodetypes="cccccccc" />
    <path
       style="fill:#ff8080;fill-opacity:1;stroke:#000000;stroke-width:2.75859736999999990;stroke-miterlimit:4;stroke-dasharray:none;stroke-opacity:1"
       d="M 115.39908,54.930827 C 115.74348,50.324832 116.40784,45.61416 115.62444,41.032744 C 113.22581,33.272832 107.15717,27.65446 104.34527,20.092945 C 102.96776,16.615867 102.1948,11.762219 105.03371,8.8849877 C 108.39303,6.1258192 112.89708,7.1109792 116.81886,6.5752703 C 124.96408,6.9749172 133.1527,7.0589326 141.22007,8.4440866 C 144.56487,8.3220207 148.65559,8.5548413 150.36829,12.219488 C 154.609,17.60154 155.30548,27.500204 153.70222,33.467029 C 152.39562,41.208272 152.72619,47.878514 148.63925,54.964372 C 144.9796,61.170049 137.21215,64.315251 130.73969,61.550225 C 127.43001,59.804212 117.63021,57.703602 115.39908,54.930827 z"
       id="path3192"
       sodipodi:nodetypes="ccccccccccc" />
    <path
       style="fill:#ff5555;fill-opacity:0.75000000000000000;stroke:#000000;stroke-width:2.75859736999999990;stroke-miterlimit:4;stroke-dasharray:none;stroke-opacity:1"
       d="M 129.10052,45.114809 C 128.527,40.676019 127.45133,36.248336 127.79083,31.734608 C 127.66582,29.707716 127.41162,27.540193 128.28455,25.650083 C 128.3484,24.071887 130.43873,22.754761 131.52144,24.119003 C 132.51115,25.274901 133.5833,26.417894 134.21123,27.872944 C 134.7873,29.229467 135.26509,30.638142 135.64732,32.070688 C 136.20252,34.404587 135.52697,36.780102 135.10142,39.06983 C 130.77665,54.079678 131.23375,71.032995 129.10052,45.114809 z"
       id="path3194"
       sodipodi:nodetypes="cccccccc" />
    <path
       style="fill:#ff8080;fill-opacity:1;stroke:#000000;stroke-width:2.75859736999999990;stroke-miterlimit:4;stroke-dasharray:none;stroke-opacity:1"
       d="M 147.85436,61.141076 C 150.31947,57.347991 150.20152,52.747398 151.68086,48.367353 C 153.26071,40.370525 153.57118,33.13409 154.70067,25.08578 C 155.14707,21.339293 156.76352,16.729704 160.56992,15.775246 C 164.7703,15.203424 168.19741,18.483414 171.83729,20.135614 C 178.68533,24.873464 185.71939,29.362055 192.03637,34.909218 C 194.98316,36.607581 198.4073,39.014775 198.16217,43.104054 C 199.29259,50.040202 195.23587,58.966601 191.04289,63.25633 C 186.27112,69.238836 183.41762,75.179089 176.55251,79.096046 C 170.47076,82.483114 162.28083,81.011161 157.99094,75.132121 C 155.95363,71.83899 148.47679,64.739509 147.85436,61.141076 z"
       id="path3196"
       sodipodi:nodetypes="ccccccccccc"
       inkscape:transform-center-x="-6.4046617"
       inkscape:transform-center-y="3.7155259" />
    <path
       style="fill:#ff5555;fill-opacity:0.75000000000000000;stroke:#000000;stroke-width:2.75859736999999990;stroke-miterlimit:4;stroke-dasharray:none;stroke-opacity:1"
       d="M 164.3096,60.050684 C 165.90312,55.907022 167.05761,51.502147 169.47508,47.78613 C 170.32095,45.967815 171.12142,43.958348 172.76498,42.796367 C 173.56284,41.467507 175.9884,41.457017 176.28165,43.219385 C 176.59264,44.751628 176.98087,46.317177 176.83857,47.912736 C 176.69779,49.395211 176.4476,50.869738 176.10361,52.313353 C 175.48485,54.62886 173.78335,56.316592 172.33819,58.06504 C 161.53856,68.698749 153.95507,83.590094 164.3096,60.050684 z"
       id="path3198"
       sodipodi:nodetypes="cccccccc"
       inkscape:transform-center-x="-2.3686475"
       inkscape:transform-center-y="10.487483" />
    <path
       style="fill:#ff8080;fill-opacity:1;stroke:#000000;stroke-width:2.75859736999999990;stroke-miterlimit:4;stroke-dasharray:none;stroke-opacity:1"
       d="M 82.757659,92.760588 C 78.456399,92.372882 74.058685,91.642224 69.775724,92.46187 C 62.516902,94.997478 57.243424,101.47058 50.168224,104.4494 C 46.914427,105.90961 42.377206,106.71697 39.701183,103.66608 C 37.1376,100.0586 38.076509,95.241203 37.592292,91.040821 C 37.9993,82.323196 38.111643,73.557829 39.438936,64.92764 C 39.338739,61.34661 39.573138,56.968542 43.003545,55.150297 C 48.048707,50.632979 57.298401,49.928335 62.865667,51.669245 C 70.091729,53.099944 76.324087,52.773651 82.926432,57.177928 C 88.708316,61.12115 91.614283,69.449021 89.004578,76.3662 C 87.359861,79.901912 85.357063,90.383686 82.757659,92.760588 z"
       id="path3200"
       sodipodi:nodetypes="ccccccccccc"
       inkscape:transform-center-x="-3.2859731"
       inkscape:transform-center-y="-5.5234569" />
    <path
       style="fill:#ff5555;fill-opacity:0.75000000000000000;stroke:#000000;stroke-width:2.75859736999999990;stroke-miterlimit:4;stroke-dasharray:none;stroke-opacity:1"
       d="M 73.644696,80.20587 C 69.495838,80.801449 65.35528,81.934624 61.140199,81.552529 C 59.246266,81.677978 57.220423,81.941127 55.458394,80.998867 C 53.984391,80.923985 52.76264,78.680892 54.04152,77.527519 C 55.125391,76.472825 56.197552,75.329856 57.559377,74.663675 C 58.82895,74.052615 60.146837,73.54697 61.486632,73.143732 C 63.669132,72.559064 65.885421,73.292042 68.022604,73.757051 C 82.02614,78.448671 97.864933,78.029453 73.644696,80.20587 z"
       id="path3202"
       sodipodi:nodetypes="cccccccc"
       inkscape:transform-center-x="-8.2123465"
       inkscape:transform-center-y="-7.8918761" />
    <path
       style="fill:#ff8080;fill-opacity:1;stroke:#000000;stroke-width:2.75859736999999990;stroke-miterlimit:4;stroke-dasharray:none;stroke-opacity:1"
       d="M 169.11667,113.36306 C 172.29695,116.4873 176.60408,118.16669 180.46006,120.32403 C 188.50655,121.24099 194.42437,122.86812 201.57377,125.46642 C 204.98197,126.44296 209.03203,128.77655 209.40451,132.94251 C 209.36989,137.47501 205.87348,140.67011 203.85535,144.30942 C 198.55012,150.93769 193.45063,157.79672 187.46752,163.75296 C 185.49971,166.65087 182.81165,169.95998 179.05912,169.15092 C 172.48658,169.41881 164.76809,163.91699 161.36005,158.89317 C 156.46272,153.02808 151.34695,149.20356 148.64275,141.39522 C 146.32388,134.48897 148.78607,125.99878 154.80425,122.23742 C 158.12622,120.51839 165.70203,113.5402 169.11667,113.36306 z"
       id="path3204"
       sodipodi:nodetypes="ccccccccccc" />
    <path
       style="fill:#ff5555;fill-opacity:0.75000000000000000;stroke:#000000;stroke-width:2.75859736999999990;stroke-miterlimit:4;stroke-dasharray:none;stroke-opacity:1"
       d="M 167.91674,130.96506 C 171.53858,133.21178 175.46115,135.02788 178.5765,138.09122 C 180.14613,139.23264 181.89881,140.35157 182.75379,142.25107 C 183.8768,143.27584 183.56085,145.85025 181.89005,145.92473 C 180.42992,146.04889 178.92856,146.25054 177.47067,145.88535 C 176.11722,145.53699 174.78587,145.0736 173.49569,144.51489 C 171.43531,143.54765 170.10142,141.51611 168.67692,139.74833 C 160.28329,126.86448 147.51657,116.82063 167.91674,130.96506 z"
       id="path3206"
       sodipodi:nodetypes="cccccccc" />
    <path
       style="fill:#ff8080;fill-opacity:1;stroke:#000000;stroke-width:2.75859736999999990;stroke-miterlimit:4;stroke-dasharray:none;stroke-opacity:1"
       d="M 147.15135,133.54237 C 147.84668,138.10277 148.25473,142.84675 150.03957,147.09435 C 154.10332,154.01427 161.25164,157.91468 165.67228,164.53612 C 167.78709,167.55924 169.62267,172.07384 167.50948,175.59475 C 164.86461,179.13436 160.2712,179.3317 156.58316,180.85654 C 148.58525,182.55518 140.6158,184.5714 132.47322,185.29324 C 129.25289,186.26864 125.22899,187.09057 122.7468,183.97117 C 117.42612,179.83191 114.53695,170.39933 114.75968,164.19515 C 114.29768,156.34413 112.48553,149.9524 114.86961,142.02543 C 117.03558,135.06253 123.87417,130.01882 130.77669,131.04536 C 134.38054,131.89275 144.36518,131.42176 147.15135,133.54237 z"
       id="path3208"
       sodipodi:nodetypes="ccccccccccc" />
    <path
       style="fill:#ff5555;fill-opacity:0.75000000000000000;stroke:#000000;stroke-width:2.75859736999999990;stroke-miterlimit:4;stroke-dasharray:none;stroke-opacity:1"
       d="M 136.04251,146.58327 C 137.59169,150.74614 139.62597,154.76959 140.30541,159.23913 C 140.87992,161.1751 141.61131,163.21452 141.1863,165.27333 C 141.47712,166.82203 139.74198,168.63639 138.38574,167.58917 C 137.16637,166.72041 135.86986,165.88529 134.93489,164.63339 C 134.07229,163.46387 133.29345,162.21853 132.60208,160.92553 C 131.54125,158.80169 131.6661,156.32213 131.5674,153.98992 C 132.4109,138.30829 128.17705,121.96472 136.04251,146.58327 z"
       id="path3210"
       sodipodi:nodetypes="cccccccc" />
    <path
       style="fill:#ff8080;fill-opacity:1;stroke:#000000;stroke-width:2.75859736999999990;stroke-miterlimit:4;stroke-dasharray:none;stroke-opacity:1"
       d="M 115.14867,138.84963 C 113.60318,143.16402 111.72311,147.48209 111.26596,152.11385 C 111.51978,160.28304 115.85919,167.50734 116.56178,175.61114 C 116.96591,179.36312 116.42695,184.25287 112.94453,186.15474 C 108.99405,187.78602 104.93324,185.47932 101.02978,184.8076 C 93.321541,181.96179 85.488418,179.40564 78.114878,175.63799 C 74.87403,174.74391 71.011239,173.28387 70.335052,169.25063 C 67.686838,162.80563 69.630115,153.09934 72.742239,147.86008 C 76.037912,140.82896 77.480502,134.3303 83.270442,128.76844 C 88.418265,123.92172 96.699278,123.25278 102.17882,127.86198 C 104.89315,130.53749 113.73986,135.51522 115.14867,138.84963 z"
       id="path3212"
       sodipodi:nodetypes="ccccccccccc"
       inkscape:transform-center-x="7.609102"
       inkscape:transform-center-y="-3.6302808" />
    <path
       style="fill:#ff5555;fill-opacity:0.75000000000000000;stroke:#000000;stroke-width:2.75859736999999990;stroke-miterlimit:4;stroke-dasharray:none;stroke-opacity:1"
       d="M 99.41536,144.12393 C 98.794506,148.55541 98.658305,153.12805 97.141833,157.3554 C 96.727043,159.33758 96.39906,161.49372 95.063036,163.043 C 94.58543,164.53765 92.232707,165.16922 91.553978,163.5332 C 90.90949,162.12513 90.182535,160.70455 89.964018,159.11888 C 89.769269,157.64343 89.682553,156.14766 89.693815,154.65786 C 89.77694,152.25111 91.051686,150.17654 92.063977,148.10866 C 100.17252,135.01725 104.20657,118.61586 99.41536,144.12393 z"
       id="path3214"
       sodipodi:nodetypes="cccccccc"
       inkscape:transform-center-x="5.4190788"
       inkscape:transform-center-y="-9.802022" />
    <path
       style="fill:#ff8080;fill-opacity:1;stroke:#000000;stroke-width:2.75859736999999990;stroke-miterlimit:4;stroke-dasharray:none;stroke-opacity:1"
       d="M 168.65921,83.690388 C 172.92215,82.964918 176.10883,78.544335 180.0841,76.651282 C 186.56513,72.329755 191.48483,68.697142 197.6885,63.992334 C 200.52131,61.740967 204.74619,59.79469 208.02651,62.071375 C 211.32209,64.917295 211.48743,69.835231 212.8966,73.789517 C 214.45033,82.358085 216.30083,90.897527 216.94145,99.616966 C 217.83931,103.06827 218.59048,107.37916 215.66625,110.02338 C 211.77757,115.70192 202.95419,118.75573 197.15949,118.49165 C 190.89058,120.09595 184.99379,122.09665 176.45015,118.2823 C 169.95473,115.93489 165.27145,108.59349 166.25892,101.20875 C 167.06541,97.354431 166.6667,86.664146 168.65921,83.690388 z"
       id="path3216"
       sodipodi:nodetypes="ccccccccccc"
       inkscape:transform-center-x="0.56387444"
       inkscape:transform-center-y="4.2024717" />
    <path
       style="fill:#ff5555;fill-opacity:0.75000000000000000;stroke:#000000;stroke-width:2.75859736999999990;stroke-miterlimit:4;stroke-dasharray:none;stroke-opacity:1"
       d="M 180.79539,95.636047 C 184.69054,93.994907 188.45744,91.833912 192.63546,91.125058 C 194.44631,90.518053 196.35447,89.74357 198.27593,90.20705 C 199.72386,89.90213 201.41156,91.767063 200.42769,93.21454 C 199.61111,94.516257 198.82562,95.900691 197.6523,96.896381 C 196.55623,97.814938 195.38968,98.643502 194.17896,99.378267 C 192.19058,100.50506 189.87483,100.36116 187.69579,100.45718 C 173.05032,99.489386 157.7655,103.95408 180.79539,95.636047 z"
       id="path3218"
       sodipodi:nodetypes="cccccccc"
       inkscape:transform-center-x="6.3054232"
       inkscape:transform-center-y="8.0785228" />
    <path
       style="fill:#ff8080;fill-opacity:1;stroke:#000000;stroke-width:2.75859736999999990;stroke-miterlimit:4;stroke-dasharray:none;stroke-opacity:1"
       d="M 93.430239,125.92692 C 89.557626,127.96782 85.437237,129.76806 82.161602,132.83351 C 77.162,139.01133 75.759519,147.46801 71.13066,153.92431 C 69.045375,156.97087 65.54594,160.16607 61.783829,159.02808 C 57.850084,157.35107 56.335243,152.7048 53.897942,149.37246 C 50.049451,141.67735 45.925468,134.10392 42.907718,125.97601 C 41.097695,122.96254 39.190658,119.08145 41.254901,115.63064 C 43.403384,108.97595 50.990608,103.26875 56.599651,101.68896 C 63.555631,98.727942 70.565324,90.122956 76.442908,95.341373 C 83.296212,95.53044 89.796086,101.06366 90.890117,108.43116 C 91.183022,112.36854 94.513381,122.45585 93.430239,125.92692 z"
       id="path3220"
       sodipodi:nodetypes="ccccccccccc"
       inkscape:transform-center-x="2.6124715"
       inkscape:transform-center-y="-3.9093969" />
    <path
       style="fill:#ff5555;fill-opacity:0.75000000000000000;stroke:#000000;stroke-width:2.75859736999999990;stroke-miterlimit:4;stroke-dasharray:none;stroke-opacity:1"
       d="M 78.53964,118.23915 C 75.271049,121.03861 72.2684,124.29416 68.472338,126.29234 C 66.90974,127.44479 65.300397,128.78802 63.336769,128.95272 C 62.03757,129.70182 59.910619,128.45369 60.451233,126.75971 C 60.872254,125.25789 61.240729,123.68687 62.086996,122.36463 C 62.880741,121.1405 63.766651,119.98008 64.720634,118.8953 C 66.309419,117.19012 68.561569,116.59545 70.616903,115.81477 C 84.876056,112.10903 98.247205,103.01096 78.53964,118.23915 z"
       id="path3222"
       sodipodi:nodetypes="cccccccc"
       inkscape:transform-center-x="-3.4006616"
       inkscape:transform-center-y="-9.7865282" />
    <path
       sodipodi:type="arc"
       style="fill:#c87137;fill-opacity:1;stroke:#000000;stroke-width:2.22193979999999990;stroke-miterlimit:4;stroke-dasharray:none;stroke-opacity:1"
       id="path3262"
       sodipodi:cx="145.24794"
       sodipodi:cy="104.75207"
       sodipodi:rx="36.983471"
       sodipodi:ry="39.049587"
       d="M 182.23141,104.75207 A 36.983471,39.049587 0 1 1 108.26447,104.75207 A 36.983471,39.049587 0 1 1 182.23141,104.75207 z"
       transform="matrix(1.2729713,0,0,1.2108588,-60.840544,-28.567049)" />
    <path
       style="opacity:1;fill:#ff8080;fill-opacity:1;stroke:#000000;stroke-width:2.75859736999999990;stroke-miterlimit:4;stroke-dasharray:none;stroke-opacity:1"
       d="M 91.664374,184.44455 C 89.387225,199.95999 82.102369,213.80095 79.563041,229.23283 C 77.316234,208.2935 83.300309,201.43615 91.539136,185.13087 C 91.60325,184.90759 91.647442,184.67743 91.664374,184.44455 z"
       id="path3308"
       sodipodi:nodetypes="cccc" />
    <path
       style="opacity:1;fill:#ff8080;fill-opacity:1;stroke:#000000;stroke-width:2.75859736999999990;stroke-miterlimit:4;stroke-dasharray:none;stroke-opacity:1"
       d="M 141.62645,187.9502 C 146.85086,203.29544 144.19641,219.11294 149.01051,234.48671 C 134.55213,215.93246 139.17406,207.13369 141.82344,188.63893 C 141.79189,188.4054 141.72889,188.17354 141.62645,187.9502 z"
       id="path3317"
       sodipodi:nodetypes="cccc" />
    <path
       style="opacity:1;fill:#ff8080;fill-opacity:1;stroke:#000000;stroke-width:2.75859736999999990;stroke-miterlimit:4;stroke-dasharray:none;stroke-opacity:1"
       d="M 187.50276,170.18584 C 198.00546,182.45331 203.33992,197.4934 213.57527,209.9088 C 195.31522,197.50134 194.49625,188.19799 187.94853,170.74761 C 187.82146,170.54661 187.67366,170.35652 187.50276,170.18584 z"
       id="path3319"
       sodipodi:nodetypes="cccc" />
    <path
       style="opacity:1;fill:#ffffff;fill-opacity:0.55813956;stroke:none;stroke-width:2;stroke-miterlimit:4;stroke-dasharray:none;stroke-opacity:1"
       d="M 134.50571,56.400507 C 110.74057,49.943793 82.551701,70.048053 80.930287,94.759265 C 85.212997,81.588734 110.58667,53.85576 134.50571,56.400507 z"
       id="path4398"
       sodipodi:nodetypes="ccc" />
    <path
       style="opacity:1;fill:#000000;fill-opacity:0.22674417;stroke:none;stroke-width:2;stroke-miterlimit:4;stroke-dasharray:none;stroke-opacity:1"
       d="M 113.26259,139.92558 C 137.02773,146.38229 165.21659,126.27804 166.83801,101.56683 C 168.52251,108.35199 135.94746,142.42235 113.26259,139.92558 z"
       id="path4403"
       sodipodi:nodetypes="ccc" />
    <g
       id="g3898"
       transform="matrix(0.8999026,0,0,0.898439,12.408822,10.652606)">
      <path
         sodipodi:nodetypes="ccccccc"
         id="path3900"
         d="M 132.41449,100.81458 C 133.88744,101.16511 135.25045,101.92153 136.74182,102.19776 C 145.62175,101.25478 153.1402,96.2767 159.65742,90.476749 C 159.88665,89.704789 157.95021,90.841499 157.41841,91.007683 C 150.32879,92.800646 143.4355,99.02767 136.02955,98.25925 C 134.9014,97.58944 134.11572,97.61554 132.85795,97.37504 C 131.94321,97.6691 132.14845,100.51016 132.41449,100.81458 z"
         style="opacity:1;fill:#8dd35f;fill-opacity:1;stroke:#000000;stroke-width:2;stroke-miterlimit:4;stroke-dasharray:none;stroke-opacity:1" />
      <path
         sodipodi:nodetypes="cccccccccc"
         id="path3902"
         d="M 138.36804,114.24616 C 138.49409,115.60203 137.96486,116.91258 137.16639,117.98382 C 135.81689,119.9767 134.1908,121.76168 132.75365,123.68893 C 131.73256,124.94034 130.86267,126.30869 129.9773,127.65141 C 129.05998,128.64467 129.68224,126.98807 129.79448,126.52663 C 130.26218,124.50043 131.25901,122.66443 132.33631,120.90546 C 133.26423,119.33494 134.32483,115.92196 134.92974,114.19803 C 133.89093,108.79415 130.76721,110.14175 129.48711,105.11103 C 130.644,104.84673 131.84341,105.2155 132.98288,105.44097 C 136.12706,107.40683 137.82252,110.62363 138.36804,114.24616 z"
         style="opacity:1;fill:#8dd35f;fill-opacity:1;stroke:#000000;stroke-width:2;stroke-miterlimit:4;stroke-dasharray:none;stroke-opacity:1" />
      <path
         sodipodi:nodetypes="ccccccc"
         id="path3904"
         d="M 122.39695,123.17579 C 120.70298,125.48555 115.81201,125.21042 113.21415,125.72907 C 110.98896,126.18023 108.71184,126.04821 106.46455,126.25288 C 103.8846,126.62543 100.46684,127.33359 104.80952,127.67036 C 110.90875,128.26196 117.48844,127.86088 123.59753,127.38021 C 127.26767,126.00836 124.60844,114.6377 121.81839,113.42838 C 118.48229,114.28021 123.07302,119.76195 122.39695,123.17579 z"
         style="opacity:1;fill:#8dd35f;fill-opacity:1;stroke:#000000;stroke-width:2;stroke-miterlimit:4;stroke-dasharray:none;stroke-opacity:1" />
      <path
         sodipodi:nodetypes="ccccccccc"
         id="path3906"
         d="M 127.2613,75.720802 C 120.29945,75.861328 113.44794,78.269981 107.9045,82.480721 C 99.468924,87.236422 95.662335,93.20138 93.313573,102.34493 C 92.285349,107.47597 91.617408,112.80472 92.338021,118.01443 C 92.8144,120.56702 95.798666,121.04192 97.969038,120.80295 C 101.85112,120.6838 105.76256,121.28686 109.62803,120.60043 C 126.59387,117.94241 136.71922,105.14448 134.80169,88.138222 C 134.52887,84.514689 133.48476,80.441393 130.11696,78.482024 C 129.05013,77.69725 127.9474,76.881212 127.2613,75.720802 z"
         style="opacity:1;fill:#8dd35f;fill-opacity:1;stroke:#000000;stroke-width:2;stroke-miterlimit:4;stroke-dasharray:none;stroke-opacity:1" />
      <path
         sodipodi:nodetypes="ccccccc"
         id="path3908"
         d="M 130.32228,70.020349 C 132.07821,69.098797 133.92098,68.320649 135.81519,67.73844 C 139.80559,67.754103 145.05324,70.160509 145.54525,74.434799 C 145.11006,77.168566 144.84816,80.159901 142.94796,82.346861 C 141.13606,84.611567 137.09191,87.009656 134.84913,88.81415 C 125.38958,86.309442 126.41061,82.667053 124.13098,77.671041 C 125.59393,75.185522 127.68108,71.78352 130.32228,70.020349 z"
         style="opacity:1;fill:#8dd35f;fill-opacity:1;stroke:#000000;stroke-width:2;stroke-miterlimit:4;stroke-dasharray:none;stroke-opacity:1" />
      <path
         sodipodi:nodetypes="ccccccccc"
         id="path3910"
         d="M 138.10438,69.700418 C 136.79708,68.48976 137.44323,64.327927 135.57441,64.449229 C 132.40062,64.737354 127.90377,67.50082 125.41928,69.562538 C 116.01981,75.33125 110.85921,84.15231 107.61386,94.450077 C 109.22567,92.750434 110.1544,90.52948 111.80012,88.853026 C 115.75139,82.448707 120.68327,76.861631 126.67458,72.22643 C 128.33639,70.993727 131.28799,67.807509 133.40917,67.826242 C 135.14177,67.565433 134.18327,70.426935 135.84643,71.047337 C 136.99814,71.965523 137.8843,71.345407 138.10438,69.700418 z"
         style="opacity:1;fill:#8dd35f;fill-opacity:1;stroke:#000000;stroke-width:2;stroke-miterlimit:4;stroke-dasharray:none;stroke-opacity:1" />
      <path
         sodipodi:nodetypes="ccccccc"
         id="path3912"
         d="M 141.36095,73.895112 C 143.70049,74.661802 146.49896,71.858066 148.44946,73.491851 C 150.13628,74.098263 150.37782,76.043093 149.67313,77.678973 C 144.08086,89.644209 129.74203,98.47003 118.97659,98.41807 C 129.57451,90.643853 141.99698,87.637957 146.11279,77.423355 C 145.43872,76.061135 143.79025,77.259361 142.60875,76.466936 C 141.43516,76.114484 141.15937,74.981754 141.36095,73.895112 z"
         style="opacity:1;fill:#8dd35f;fill-opacity:1;stroke:#000000;stroke-width:2;stroke-miterlimit:4;stroke-dasharray:none;stroke-opacity:1" />
      <path
         sodipodi:nodetypes="ccccccc"
         id="path3914"
         d="M 107.57288,85.987328 C 100.26045,92.085972 95.48648,99.68639 95.737522,109.57162 C 95.474781,111.23192 95.291605,112.90952 95.296143,114.59231 C 94.851357,115.04226 95.157588,116.63286 95.432294,115.25993 C 96.520318,112.1504 98.182229,109.23 98.804397,105.96742 C 100.58251,99.94596 103.63922,94.50601 106.16468,88.775352 C 106.64913,87.854018 107.18849,86.957586 107.57288,85.987328 z"
         style="opacity:1;fill:#ffffff;fill-opacity:0.41279069;stroke:none;stroke-width:2;stroke-miterlimit:4;stroke-dasharray:none;stroke-opacity:1" />
      <path
         id="path3916"
         d="M 133.07985,72.520912 C 132.29481,72.375823 131.60467,72.870192 130.92724,73.181332 C 130.21069,73.520118 129.5782,74.011094 129.03503,74.584985 C 128.56413,75.060094 128.10636,75.571152 127.81668,76.179463 C 127.64486,76.703214 127.68565,77.266984 127.72273,77.80727 C 127.81917,78.214095 128.32176,78.317872 128.62697,78.072703 C 129.50983,77.667556 130.37515,77.178722 131.0527,76.471258 C 131.66252,75.96202 132.41311,75.67082 133.08404,75.260471 C 133.66502,74.728655 133.76708,73.904867 134.13686,73.243547 C 134.30919,72.939273 134.29379,72.368078 133.84059,72.352065 C 133.57565,72.327412 133.32511,72.438183 133.07985,72.520912 z"
         style="opacity:1;fill:#ffffff;fill-opacity:0.41279069;stroke:none;stroke-width:2;stroke-miterlimit:4;stroke-dasharray:none;stroke-opacity:1" />
      <path
         sodipodi:nodetypes="cccc"
         id="path3918"
         d="M 120.6726,113.64353 C 116.16808,116.46644 106.01898,119.5871 102.3907,117.13233 C 113.26421,115.4836 122.47908,109.68965 131.25015,100.08463 C 132.34677,102.41296 123.64925,111.28274 120.6726,113.64353 z"
         style="opacity:1;fill:#000000;fill-opacity:0.41279069;stroke:none;stroke-width:2;stroke-miterlimit:4;stroke-dasharray:none;stroke-opacity:1" />
      <path
         id="path3920"
         d="M 140.6844,80.125473 C 139.72489,81.164362 138.97036,82.371909 138.03159,83.427041 C 137.31961,84.050579 136.35061,84.286409 135.66257,84.942748 C 135.14372,85.305428 134.50476,85.406461 133.89857,85.532525 C 133.62694,85.320799 133.83458,84.969027 133.99517,84.756491 C 134.44983,84.049861 134.76445,83.196795 135.50293,82.724366 C 136.12497,82.280229 136.81355,81.922803 137.36442,81.384983 C 137.95015,80.908864 138.60492,80.527445 139.26029,80.159458 C 139.55364,79.931611 139.96096,79.696924 140.329,79.900379 C 140.456,79.960962 140.57092,80.043106 140.6844,80.125473 z"
         style="opacity:1;fill:#000000;fill-opacity:0.41279069;stroke:none;stroke-width:2;stroke-miterlimit:4;stroke-dasharray:none;stroke-opacity:1" />
    </g>
  </g>
</svg>
