<?xml version="1.0" encoding="UTF-8" standalone="no"?>
<!-- Created with Inkscape (http://www.inkscape.org/) -->
<svg
   xmlns:dc="http://purl.org/dc/elements/1.1/"
   xmlns:cc="http://creativecommons.org/ns#"
   xmlns:rdf="http://www.w3.org/1999/02/22-rdf-syntax-ns#"
   xmlns:svg="http://www.w3.org/2000/svg"
   xmlns="http://www.w3.org/2000/svg"
   xmlns:sodipodi="http://sodipodi.sourceforge.net/DTD/sodipodi-0.dtd"
   xmlns:inkscape="http://www.inkscape.org/namespaces/inkscape"
   width="250"
   height="250"
   id="svg2"
   sodipodi:version="0.32"
   inkscape:version="0.46"
   sodipodi:docname="aphid.svg"
   inkscape:output_extension="org.inkscape.output.svg.inkscape"
   inkscape:export-filename="P:\pidgey2\data\images\aphid.png"
   inkscape:export-xdpi="92.160004"
   inkscape:export-ydpi="92.160004"
   version="1.0">
  <defs
     id="defs4">
    <inkscape:perspective
       sodipodi:type="inkscape:persp3d"
       inkscape:vp_x="0 : 125 : 1"
       inkscape:vp_y="0 : 1000 : 0"
       inkscape:vp_z="250 : 125 : 1"
       inkscape:persp3d-origin="125 : 83.333333 : 1"
       id="perspective12" />
  </defs>
  <sodipodi:namedview
     id="base"
     pagecolor="#cb90ff"
     bordercolor="#666666"
     borderopacity="1.0"
     gridtolerance="10000"
     guidetolerance="10"
     objecttolerance="10"
     inkscape:pageopacity="0"
     inkscape:pageshadow="2"
     inkscape:zoom="3.156"
     inkscape:cx="134.28828"
     inkscape:cy="121.96494"
     inkscape:document-units="px"
     inkscape:current-layer="layer1"
     showgrid="false"
     inkscape:window-width="1679"
     inkscape:window-height="994"
     inkscape:window-x="1"
     inkscape:window-y="22" />
  <metadata
     id="metadata7">
    <rdf:RDF>
      <cc:Work
         rdf:about="">
        <dc:format>image/svg+xml</dc:format>
        <dc:type
           rdf:resource="http://purl.org/dc/dcmitype/StillImage" />
      </cc:Work>
    </rdf:RDF>
  </metadata>
  <g
     inkscape:label="Layer 1"
     inkscape:groupmode="layer"
     id="layer1">
    <path
       style="opacity:1;fill:#5fd35f;fill-opacity:1;stroke:#000000;stroke-width:3;stroke-miterlimit:4;stroke-dasharray:none;stroke-opacity:1"
       d="M 98.190108,159.23488 C 97.585668,163.49619 96.537178,167.91734 93.449768,171.07332 C 91.079668,174.66279 86.451778,172.34401 82.992058,172.60649 C 66.864933,172.66515 50.737846,172.4783 34.614593,172.15499 C 26.389813,171.80257 18.159135,171.82643 9.9308099,171.86442 C 8.5565764,171.90449 1.6656084,171.26279 6.0216994,170.87604 C 19.420734,167.28804 33.507514,168.105 47.217867,166.69906 C 59.609297,166.12517 72.018539,166.43611 84.41653,166.23101 C 87.280108,165.73706 90.874148,166.5919 90.846128,162.07525 C 89.813988,158.93713 93.642688,156.24907 97.231168,157.76989 C 98.227838,157.5691 98.304488,158.55792 98.190108,159.23488 z"
       id="path3221"
       sodipodi:nodetypes="ccccccccccc" />
    <path
       style="opacity:1;fill:#5fd35f;fill-opacity:1;stroke:#000000;stroke-width:3;stroke-miterlimit:4;stroke-dasharray:none;stroke-opacity:1"
       d="M 144.50799,162.64333 C 146.24626,166.89633 147.48654,171.35609 149.55591,175.46909 C 151.66567,178.99991 147.82305,181.14193 144.89556,181.50384 C 125.30562,190.10674 104.77049,196.36769 84.041491,201.46836 C 82.139827,197.97089 140.3384,179.97934 141.37441,176.55566 C 139.89992,169.98937 135.76368,166.65309 135.50173,160.28364 C 137.85896,158.8635 140.82514,158.60346 143.47931,157.94279 C 145.28007,157.74154 144.14118,161.59049 144.50799,162.64333 z"
       id="path3223"
       sodipodi:nodetypes="cccccccc" />
    <path
       style="opacity:1;fill:#5fd35f;fill-opacity:1;stroke:#000000;stroke-width:3;stroke-miterlimit:4;stroke-dasharray:none;stroke-opacity:1"
       d="M 96.421228,81.604111 C 95.816788,77.342801 94.768298,72.921649 91.680888,69.765667 C 89.310788,66.176201 84.682903,68.494988 81.223178,68.232505 C 65.096054,68.173846 48.968966,68.360689 32.845714,68.684004 C 24.620934,69.036421 16.390255,69.012553 8.1619304,68.974571 C 6.7876964,68.934503 -0.10327162,69.576206 4.2528194,69.962949 C 17.651854,73.550954 31.738635,72.733995 45.448987,74.139935 C 57.840417,74.713821 70.24966,74.402876 82.64765,74.607982 C 85.511221,75.101934 89.105268,74.247095 89.077248,78.763741 C 88.045108,81.901861 91.873808,84.589921 95.462298,83.069101 C 96.458958,83.269891 96.535608,82.281071 96.421228,81.604111 z"
       id="path3218"
       sodipodi:nodetypes="ccccccccccc" />
    <path
       style="opacity:1;fill:#5fd35f;fill-opacity:1;stroke:#000000;stroke-width:3;stroke-miterlimit:4;stroke-dasharray:none;stroke-opacity:1"
       d="M 142.73912,78.195661 C 144.47738,73.942656 145.71766,69.482899 147.78703,65.369902 C 149.8968,61.839082 146.05418,59.697068 143.12669,59.33515 C 123.53675,50.732258 103.00161,44.471298 82.272611,39.370628 C 80.370947,42.868098 138.56952,60.859658 139.60554,64.283333 C 138.13104,70.849626 133.99481,74.185903 133.73286,80.555351 C 136.09009,81.975491 139.05627,82.235531 141.71044,82.896191 C 143.51119,83.097451 142.3723,79.248501 142.73912,78.195661 z"
       id="path3215"
       sodipodi:nodetypes="cccccccc" />
    <path
       style="opacity:1;fill:#5fd35f;fill-opacity:1;stroke:#000000;stroke-width:3;stroke-miterlimit:4;stroke-dasharray:none;stroke-opacity:1"
       d="M 191.5422,159.61638 C 210.66859,162.09628 228.29576,153.44243 245.82201,148.21828 C 244.72851,150.41512 242.79734,152.03272 240.66756,153.15065 C 226.1412,161.5262 208.7869,163.54696 192.36447,164.44064 C 190.43039,164.18605 187.47656,165.37045 186.7871,162.70782 C 184.83698,157.23432 184.81615,151.342 184.72647,145.59517 C 184.5533,141.57997 183.62961,137.39382 185.04689,133.50242 C 186.9704,133.42577 188.28244,133.46302 189.08489,135.78067 C 191.16205,142.10695 191.04648,153.01626 191.5422,159.61638 z"
       id="path3213"
       sodipodi:nodetypes="ccccccccc" />
    <path
       style="opacity:1;fill:#5fd35f;fill-opacity:1;stroke:#000000;stroke-width:3;stroke-miterlimit:4;stroke-dasharray:none;stroke-opacity:1"
       d="M 193.2364,73.843324 C 212.36279,71.36343 229.98996,80.017271 247.51621,85.241421 C 246.42271,83.044581 244.49154,81.426981 242.36176,80.309051 C 227.83541,71.933502 210.4811,69.91274 194.05867,69.019069 C 192.12459,69.273649 189.17076,68.089251 188.4813,70.751881 C 186.53119,76.22538 186.51035,82.117701 186.42067,87.864531 C 186.2475,91.879731 185.32381,96.065881 186.74109,99.957296 C 188.66461,100.03395 189.97665,99.996686 190.77909,97.679031 C 192.85625,91.352751 192.74068,80.443441 193.2364,73.843324 z"
       id="path3210"
       sodipodi:nodetypes="ccccccccc" />
    <path
       style="opacity:1;fill:#5fd35f;fill-opacity:1;stroke:#000000;stroke-width:3;stroke-miterlimit:4;stroke-dasharray:none;stroke-opacity:1"
       d="M 179.10168,92.477801 C 172.25025,87.243201 164.9524,83.152361 157.39504,80.144591 C 119.07617,64.89398 74.085782,77.488011 46.791039,110.01535 C 42.535085,114.54551 38.241044,120.48549 44.47903,125.41922 C 64.554395,149.22287 77.838747,156.34268 106.63113,165.69006 C 121.00586,168.95139 136.35283,170.76735 150.54744,165.64168 C 160.32182,161.93301 170.24995,157.13352 176.7038,148.43392 C 186.17923,132.64103 194.59316,106.95703 179.10168,92.477801 z"
       id="path2401"
       sodipodi:nodetypes="cscccccc" />
    <path
       style="opacity:1;fill:#5fd35f;fill-opacity:1;stroke:#000000;stroke-width:3;stroke-miterlimit:4;stroke-dasharray:none;stroke-opacity:1"
       d="M 215.6671,101.84588 C 221.88671,108.95057 223.77804,124.30815 221.07349,133.41105 C 213.73006,140.75462 201.03579,141.60369 191.29415,143.55401 C 187.84803,143.8565 184.18111,144.23173 180.88947,142.94514 C 177.24491,140.82584 176.5552,136.16617 176.03586,132.30341 C 175.38341,126.57461 175.47041,120.77839 174.75735,115.05945 C 174.88721,110.29752 174.85638,105.39188 176.29374,100.81877 C 177.62767,97.041461 180.94068,93.788561 185.03507,93.664121 C 194.94195,96.013061 206.70149,96.754371 215.6671,101.84588 z"
       id="path3175"
       sodipodi:nodetypes="ccccccccc" />
    <path
       style="opacity:1;fill:#80ff80;fill-opacity:1;stroke:#000000;stroke-width:3;stroke-miterlimit:4;stroke-dasharray:none;stroke-opacity:1"
       d="M 43.294608,113.7897 C 38.919868,119.71392 41.629898,123.74944 45.978685,126.35518 C 49.795962,130.21944 50.859672,114.01321 47.307009,109.99379 C 46.011332,110.75252 44.434362,112.49691 43.294608,113.7897 z"
       id="path3181"
       sodipodi:nodetypes="cccc" />
    <path
       style="opacity:1;fill:#5fd35f;fill-opacity:1;stroke:#000000;stroke-width:3;stroke-miterlimit:4;stroke-dasharray:none;stroke-opacity:1"
       d="M 217.10504,103.62794 C 220.73166,103.56127 224.36627,98.499821 219.23458,97.016191 C 199.65182,91.354591 180.22847,85.058291 160.24701,80.415281 C 154.53064,79.086991 140.06936,76.024818 143.2782,75.660186 C 154.05932,74.435092 206.59646,84.707971 226.6096,96.978811 C 230.27317,99.225091 223.09196,108.58259 218.54883,107.07657 C 217.1896,106.626 215.90756,103.64996 217.10504,103.62794 z"
       id="path3187"
       sodipodi:nodetypes="cssssss" />
    <path
       style="opacity:1;fill:#5fd35f;fill-opacity:1;stroke:#000000;stroke-width:3;stroke-miterlimit:4;stroke-dasharray:none;stroke-opacity:1"
       d="M 220.17259,133.3504 C 223.79921,133.41707 227.43382,138.47851 222.30212,139.96214 C 202.71936,145.62374 183.29602,151.92004 163.31456,156.56305 C 157.59818,157.89134 143.1369,160.95351 146.34575,161.31814 C 157.12687,162.54324 209.66401,152.27036 229.67715,139.99952 C 233.34072,137.75324 226.15951,128.39575 221.61637,129.90177 C 220.25715,130.35234 218.97511,133.32838 220.17259,133.3504 z"
       id="path3193"
       sodipodi:nodetypes="cssssss" />
    <path
       style="opacity:1;fill:#ffffff;fill-opacity:0.43023256999999998;stroke:none;stroke-width:3;stroke-miterlimit:4;stroke-dasharray:none;stroke-opacity:1"
       d="M 166.76552,93.472747 C 153.59165,76.664303 124.14285,77.729587 94.453652,83.598746 C 86.334195,85.043635 79.569755,90.106007 72.450746,93.927542 C 69.561427,96.115495 66.904494,98.666287 63.506951,100.10678 C 61.291253,101.031 57.714746,105.18875 58.573654,106.36051 C 76.436636,107.70855 96.909153,100.50457 114.80834,100.34458 C 132.83329,104.64922 140.23327,109.80297 158.51499,100.76763 C 161.85654,99.082403 166.32617,97.927547 166.76552,93.472747 z"
       id="path3225"
       sodipodi:nodetypes="cccccccc" />
    <path
       style="opacity:1;fill:#000000;fill-opacity:0.28488371;stroke:none;stroke-width:3;stroke-miterlimit:4;stroke-dasharray:none;stroke-opacity:1"
       d="M 90.64494,156.02606 C 95.957875,157.41358 105.44412,161.07433 110.92222,161.92856 C 130.78097,166.36463 139.79321,164.69411 157.32569,156.55622 C 160.33441,155.13526 163.96074,153.27895 165.07563,149.9517 C 165.472,146.86651 164.00956,141.42298 159.88669,143.96818 C 141.51015,152.70557 120.01795,149.58087 100.21991,149.19364 C 87.232067,148.5385 73.950615,145.3335 62.202788,139.73384"
       id="path3228"
       sodipodi:nodetypes="ccccccc" />
    <path
       style="opacity:1;fill:#000000;fill-opacity:0.28488371;stroke:none;stroke-width:3;stroke-miterlimit:4;stroke-dasharray:none;stroke-opacity:1"
       d="M 212.92776,133.88972 C 209.63103,135.52851 205.95377,136.12878 202.42051,137.0516 C 198.78671,137.87804 195.04564,137.63618 191.35729,137.95237 C 189.1161,138.03357 186.86363,138.06331 184.62697,137.95234 C 182.2345,137.58347 181.67501,133.72266 183.91528,132.73114 C 185.53416,131.51806 187.42041,130.65701 189.463,130.53499 C 191.9202,130.35452 194.38808,130.37346 196.84721,130.23541 C 198.38914,130.327 199.90236,130.75542 201.46235,130.56517 C 204.31764,130.332 207.18507,130.37479 210.04491,130.44167 C 211.33676,130.54934 214.0454,131.19279 213.24992,132.98427 C 213.13321,133.28242 212.99472,133.5747 212.92776,133.88972 z"
       id="path3180" />
    <path
       style="opacity:1;fill:#ffffff;fill-opacity:0.41860463999999997;stroke:none;stroke-width:3;stroke-miterlimit:4;stroke-dasharray:none;stroke-opacity:1"
       d="M 210.48088,103.85257 C 207.18415,102.21378 203.50689,101.61351 199.97363,100.69069 C 196.33983,99.864254 192.59876,100.10611 188.91041,99.789924 C 186.66922,99.708724 184.41675,99.678984 182.18009,99.789954 C 179.78762,100.15882 179.22813,104.01963 181.4684,105.01115 C 183.08728,106.22423 184.97353,107.08528 187.01612,107.2073 C 189.47332,107.38777 191.9412,107.36883 194.40033,107.50688 C 195.94226,107.41529 197.45548,106.98687 199.01547,107.17712 C 201.87076,107.41029 204.73819,107.3675 207.59803,107.30062 C 208.88988,107.19295 211.59852,106.5495 210.80304,104.75802 C 210.68633,104.45987 210.54784,104.16759 210.48088,103.85257 z"
       id="path3184" />
  </g>
</svg>
