<?xml version="1.0" encoding="UTF-8" standalone="no"?>
<!-- Created with Inkscape (http://www.inkscape.org/) -->
<svg
   xmlns:dc="http://purl.org/dc/elements/1.1/"
   xmlns:cc="http://creativecommons.org/ns#"
   xmlns:rdf="http://www.w3.org/1999/02/22-rdf-syntax-ns#"
   xmlns:svg="http://www.w3.org/2000/svg"
   xmlns="http://www.w3.org/2000/svg"
   xmlns:sodipodi="http://sodipodi.sourceforge.net/DTD/sodipodi-0.dtd"
   xmlns:inkscape="http://www.inkscape.org/namespaces/inkscape"
   width="250"
   height="250"
   id="svg2"
   sodipodi:version="0.32"
   inkscape:version="0.46"
   sodipodi:docname="appleaward2.svg"
   inkscape:output_extension="org.inkscape.output.svg.inkscape"
   inkscape:export-filename="P:\pidgey2\data\images\daisyaward2.png"
   inkscape:export-xdpi="92.160004"
   inkscape:export-ydpi="92.160004"
   version="1.0">
  <defs
     id="defs4">
    <inkscape:perspective
       sodipodi:type="inkscape:persp3d"
       inkscape:vp_x="0 : 125 : 1"
       inkscape:vp_y="0 : 1000 : 0"
       inkscape:vp_z="250 : 125 : 1"
       inkscape:persp3d-origin="125 : 83.333333 : 1"
       id="perspective3645" />
  </defs>
  <sodipodi:namedview
     id="base"
     pagecolor="#cb90ff"
     bordercolor="#666666"
     borderopacity="1.0"
     gridtolerance="10000"
     guidetolerance="10"
     objecttolerance="10"
     inkscape:pageopacity="0"
     inkscape:pageshadow="2"
     inkscape:zoom="2.42"
     inkscape:cx="123.86059"
     inkscape:cy="138.72824"
     inkscape:document-units="px"
     inkscape:current-layer="layer1"
     showgrid="false"
     inkscape:window-width="659"
     inkscape:window-height="810"
     inkscape:window-x="458"
     inkscape:window-y="80" />
  <metadata
     id="metadata7">
    <rdf:RDF>
      <cc:Work
         rdf:about="">
        <dc:format>image/svg+xml</dc:format>
        <dc:type
           rdf:resource="http://purl.org/dc/dcmitype/StillImage" />
      </cc:Work>
    </rdf:RDF>
  </metadata>
  <g
     inkscape:label="Layer 1"
     inkscape:groupmode="layer"
     id="layer1">
    <path
       style="opacity:1;fill:#338000;fill-opacity:1;stroke:#000000;stroke-width:2.76934791000000000;stroke-miterlimit:4;stroke-dasharray:none;stroke-opacity:1"
       d="M 110.32054,143.90266 C 111.21622,185.94952 106.76804,209.48235 97.026599,243.25409 C 105.96333,232.94495 116.95827,236.20503 126.74471,226.71377 C 139.34038,242.80673 154.69164,240.03576 157.5315,245.56653 C 153.93144,234.37238 144.04575,175.65873 147.78908,142.10284 C 142.75582,143.52354 115.17188,141.97228 110.32054,143.90266 z"
       id="path3306"
       sodipodi:nodetypes="cccccc"
       inkscape:transform-center-x="4.4505107"
       inkscape:transform-center-y="7.6872443" />
    <path
       style="opacity:1;fill:#338000;fill-opacity:1;stroke:#000000;stroke-width:2.76934791000000000;stroke-miterlimit:4;stroke-dasharray:none;stroke-opacity:1"
       d="M 78.757217,130.76525 C 63.597743,169.99446 50.535566,190.06832 28.684476,217.59933 C 40.869898,211.46263 53.088881,216.54617 65.749197,211.48901 C 71.279593,231.16257 83.241926,236.54927 83.765464,242.74444 C 84.692268,231.02222 97.874351,172.95972 114.09579,143.34765 C 108.90038,142.74779 83.978164,130.82455 78.757217,130.76525 z"
       id="path3304"
       sodipodi:nodetypes="cccccc" />
    <path
       style="opacity:1;fill:#338000;fill-opacity:1;stroke:#000000;stroke-width:2.76934791000000000;stroke-miterlimit:4;stroke-dasharray:none;stroke-opacity:1"
       d="M 176.84239,129.65139 C 192.00186,168.8806 205.06404,188.95446 226.91513,216.48546 C 214.72971,210.34876 204.93828,218.26445 192.27797,213.20729 C 186.74757,232.88085 172.35768,235.43539 171.83415,241.63056 C 170.90734,229.90834 157.72526,171.84586 141.50382,142.23378 C 146.69923,141.63392 171.62144,129.71067 176.84239,129.65139 z"
       id="path3274"
       sodipodi:nodetypes="cccccc" />
    <path
       style="fill:#55d400;fill-opacity:1;stroke:#000000;stroke-width:2.76934791000000000;stroke-miterlimit:4;stroke-dasharray:none;stroke-opacity:1"
       d="M 87.897629,67.289325 C 85.498897,63.426136 83.291944,59.267772 80.017598,56.173264 C 73.62588,51.643923 65.579973,51.242693 58.977201,47.144466 C 55.874325,45.316075 52.450357,41.999844 53.022251,37.843392 C 54.073219,33.434345 58.198337,31.219221 60.982232,28.190913 C 67.640965,23.094604 74.150939,17.720424 81.319586,13.453482 C 83.888043,11.134896 87.250834,8.6007525 90.726939,10.354445 C 97.193488,11.78368 103.48212,19.131511 105.67653,24.904847 C 109.13377,31.881201 113.26191,36.924747 114.14534,45.231211 C 114.85563,52.559277 110.55022,60.201655 103.83999,62.320172 C 100.21617,63.141406 91.265714,67.994844 87.897629,67.289325 z"
       id="path3173"
       sodipodi:nodetypes="ccccccccccc" />
    <path
       style="fill:#338000;fill-opacity:0.75000000000000000;stroke:#000000;stroke-width:2.76934791000000000;stroke-miterlimit:4;stroke-dasharray:none;stroke-opacity:1"
       d="M 95.036651,50.440805 C 92.010588,47.319403 88.594734,44.540393 86.245634,40.753257 C 84.97184,39.236991 83.514574,37.695587 83.107508,35.624218 C 82.242884,34.336517 83.128614,31.908429 84.773898,32.265542 C 86.224999,32.520046 87.733663,32.709605 89.072755,33.440515 C 90.313793,34.12815 91.507518,34.922229 92.639689,35.798631 C 94.430915,37.271334 95.275156,39.594573 96.266907,41.684029 C 101.55688,56.400946 111.74678,69.474327 95.036651,50.440805 z"
       id="path3175"
       sodipodi:nodetypes="cccccccc" />
    <path
       style="fill:#55d400;fill-opacity:1;stroke:#000000;stroke-width:2.76934791000000000;stroke-miterlimit:4;stroke-dasharray:none;stroke-opacity:1"
       d="M 115.35075,53.59584 C 115.69649,48.971893 116.36344,44.242863 115.577,39.643593 C 113.16901,31.85344 107.07673,26.213173 104.25386,18.622189 C 102.87098,15.131561 102.09501,10.258998 104.94498,7.3705536 C 108.3174,4.6006317 112.839,5.589631 116.77606,5.0518349 C 124.95303,5.4530392 133.17356,5.5373823 141.27237,6.9279348 C 144.63021,6.8053923 148.73686,7.0391207 150.45625,10.718049 C 154.71347,16.121075 155.41267,26.058316 153.80317,32.048394 C 152.49148,39.819805 152.82334,46.516042 148.72047,53.629514 C 145.04655,59.859376 137.24883,63.016835 130.75114,60.241034 C 127.42857,58.488216 117.59058,56.37942 115.35075,53.59584 z"
       id="path3192"
       sodipodi:nodetypes="ccccccccccc" />
    <path
       style="fill:#338000;fill-opacity:0.75000000000000000;stroke:#000000;stroke-width:2.76934791000000000;stroke-miterlimit:4;stroke-dasharray:none;stroke-opacity:1"
       d="M 129.10559,43.741567 C 128.52983,39.285479 127.44997,34.840539 127.7908,30.309222 C 127.6653,28.27443 127.41011,26.09846 128.28644,24.200984 C 128.35054,22.616639 130.44901,21.29438 131.53594,22.663937 C 132.52951,23.82434 133.60584,24.971788 134.23622,26.432509 C 134.81453,27.794318 135.29419,29.208482 135.67791,30.646611 C 136.23527,32.989606 135.55709,35.374379 135.12988,37.67303 C 130.78826,52.741373 131.24713,69.760754 129.10559,43.741567 z"
       id="path3194"
       sodipodi:nodetypes="cccccccc" />
    <path
       style="fill:#55d400;fill-opacity:1;stroke:#000000;stroke-width:2.76934791000000000;stroke-miterlimit:4;stroke-dasharray:none;stroke-opacity:1"
       d="M 147.93251,59.83029 C 150.40724,56.022422 150.28883,51.403901 151.77393,47.006786 C 153.35994,38.978794 153.67161,31.714157 154.80552,23.634482 C 155.25365,19.873396 156.87639,15.245842 160.69763,14.287665 C 164.91438,13.713614 168.35485,17.006386 172.0089,18.665025 C 178.88364,23.421339 185.94511,27.927423 192.28671,33.496203 C 195.24499,35.201185 198.68248,37.61776 198.43638,41.722976 C 199.57121,48.686155 195.49867,57.647341 191.28936,61.953787 C 186.49899,67.959606 183.63437,73.923006 176.74252,77.855234 C 170.63706,81.2555 162.4152,79.777808 158.10861,73.875861 C 156.06335,70.569897 148.55738,63.442745 147.93251,59.83029 z"
       id="path3196"
       sodipodi:nodetypes="ccccccccccc"
       inkscape:transform-center-x="-6.4296171"
       inkscape:transform-center-y="3.7300059" />
    <path
       style="fill:#338000;fill-opacity:0.75000000000000000;stroke:#000000;stroke-width:2.76934791000000000;stroke-miterlimit:4;stroke-dasharray:none;stroke-opacity:1"
       d="M 164.45188,58.735649 C 166.0516,54.575838 167.2106,50.153796 169.63749,46.423298 C 170.48667,44.597897 171.29025,42.580599 172.94022,41.41409 C 173.7412,40.080051 176.17619,40.06952 176.47059,41.838756 C 176.78279,43.376971 177.17254,44.94862 177.02967,46.550397 C 176.88836,48.038649 176.63719,49.518924 176.29186,50.968165 C 175.67069,53.292695 173.96255,54.987005 172.51176,56.742267 C 161.67005,67.417419 154.057,82.366792 164.45188,58.735649 z"
       id="path3198"
       sodipodi:nodetypes="cccccccc"
       inkscape:transform-center-x="-2.3778743"
       inkscape:transform-center-y="10.528354" />
    <path
       style="fill:#55d400;fill-opacity:1;stroke:#000000;stroke-width:2.76934791000000000;stroke-miterlimit:4;stroke-dasharray:none;stroke-opacity:1"
       d="M 82.582124,91.573032 C 78.264102,91.183808 73.84925,90.450309 69.549598,91.273146 C 62.262488,93.818635 56.968458,100.31697 49.865686,103.30739 C 46.599207,104.7733 42.044304,105.5838 39.357853,102.52102 C 36.784279,98.899481 37.726848,94.063309 37.240743,89.846556 C 37.649338,81.094958 37.762118,72.295428 39.094584,63.631611 C 38.993996,60.036624 39.229309,55.641495 42.673084,53.816165 C 47.737908,49.281242 57.023649,48.573852 62.612611,50.321547 C 69.866834,51.75782 76.123481,51.430256 82.751555,55.851697 C 88.555971,59.810286 91.473264,68.170614 88.853389,75.114748 C 87.202261,78.664239 85.191658,89.186862 82.582124,91.573032 z"
       id="path3200"
       sodipodi:nodetypes="ccccccccccc"
       inkscape:transform-center-x="-3.2987788"
       inkscape:transform-center-y="-5.544981" />
    <path
       style="fill:#338000;fill-opacity:0.75000000000000000;stroke:#000000;stroke-width:2.76934791000000000;stroke-miterlimit:4;stroke-dasharray:none;stroke-opacity:1"
       d="M 73.433647,78.96938 C 69.268622,79.567279 65.111926,80.704869 60.880419,80.321291 C 58.979105,80.447226 56.945367,80.711397 55.176471,79.765468 C 53.696724,79.690296 52.470212,77.438459 53.754076,76.28059 C 54.842171,75.22179 55.918509,74.074363 57.285642,73.405588 C 58.560163,72.792147 59.883185,72.284534 61.228202,71.879723 C 63.419208,71.292774 65.644134,72.028614 67.789645,72.495431 C 81.847755,77.205339 97.748274,76.784487 73.433647,78.96938 z"
       id="path3202"
       sodipodi:nodetypes="cccccccc"
       inkscape:transform-center-x="-8.2443511"
       inkscape:transform-center-y="-7.9226318" />
    <path
       style="fill:#55d400;fill-opacity:1;stroke:#000000;stroke-width:2.76934791000000000;stroke-miterlimit:4;stroke-dasharray:none;stroke-opacity:1"
       d="M 169.27768,112.25579 C 172.47037,115.39221 176.79427,117.07814 180.66528,119.24389 C 188.74314,120.16442 194.68402,121.79789 201.86128,124.40632 C 205.28276,125.38666 209.3486,127.72936 209.72254,131.91154 C 209.68778,136.46171 206.17774,139.66926 204.15176,143.32275 C 198.82585,149.97685 193.70648,156.86261 187.70005,162.84207 C 185.72457,165.75127 183.02604,169.07327 179.25889,168.26107 C 172.66073,168.53 164.91216,163.00673 161.49084,157.96333 C 156.57442,152.07538 151.43871,148.23597 148.72398,140.3972 C 146.39607,133.46404 148.86785,124.94076 154.90949,121.16474 C 158.24441,119.43901 165.84974,112.43362 169.27768,112.25579 z"
       id="path3204"
       sodipodi:nodetypes="ccccccccccc" />
    <path
       style="fill:#338000;fill-opacity:0.75000000000000000;stroke:#000000;stroke-width:2.76934791000000000;stroke-miterlimit:4;stroke-dasharray:none;stroke-opacity:1"
       d="M 168.07308,129.92639 C 171.70903,132.18187 175.6469,134.00504 178.77438,137.08031 C 180.35014,138.22619 182.10965,139.34948 182.96795,141.25638 C 184.09534,142.28515 183.77817,144.86959 182.10085,144.94435 C 180.63503,145.06899 179.12781,145.27144 177.66424,144.90482 C 176.30553,144.5551 174.96898,144.08992 173.67377,143.52902 C 171.60536,142.55801 170.26628,140.51856 168.83622,138.74389 C 160.40989,125.80983 147.59341,115.72684 168.07308,129.92639 z"
       id="path3206"
       sodipodi:nodetypes="cccccccc" />
    <path
       style="fill:#55d400;fill-opacity:1;stroke:#000000;stroke-width:2.76934791000000000;stroke-miterlimit:4;stroke-dasharray:none;stroke-opacity:1"
       d="M 147.22677,132.51375 C 147.92481,137.09191 148.33445,141.85438 150.12624,146.11854 C 154.20583,153.06542 161.38201,156.98104 165.81987,163.62827 C 167.94293,166.66319 169.78566,171.19538 167.66423,174.73001 C 165.00906,178.28341 160.39775,178.48151 156.69533,180.0123 C 148.66625,181.71755 140.66575,183.74164 132.49143,184.46629 C 129.25856,185.44549 125.21898,186.27062 122.7271,183.13907 C 117.38569,178.98368 114.48526,169.51433 114.70886,163.28598 C 114.24507,155.40436 112.42584,148.98773 114.81921,141.02986 C 116.99364,134.03983 123.85888,128.97646 130.78829,130.007 C 134.40618,130.8577 144.42974,130.38486 147.22677,132.51375 z"
       id="path3208"
       sodipodi:nodetypes="ccccccccccc" />
    <path
       style="fill:#338000;fill-opacity:0.75000000000000000;stroke:#000000;stroke-width:2.76934791000000000;stroke-miterlimit:4;stroke-dasharray:none;stroke-opacity:1"
       d="M 136.07464,145.60546 C 137.62986,149.78455 139.67206,153.82369 140.35415,158.31065 C 140.9309,160.25416 141.66513,162.30153 141.23846,164.36836 C 141.53042,165.9231 139.78852,167.74453 138.427,166.69322 C 137.20288,165.82108 135.90132,164.98271 134.96269,163.72593 C 134.09674,162.55185 133.31486,161.30165 132.62079,160.00362 C 131.55583,157.8715 131.68117,155.38227 131.58208,153.04098 C 132.42888,137.29824 128.17851,120.89097 136.07464,145.60546 z"
       id="path3210"
       sodipodi:nodetypes="cccccccc" />
    <path
       style="fill:#55d400;fill-opacity:1;stroke:#000000;stroke-width:2.76934791000000000;stroke-miterlimit:4;stroke-dasharray:none;stroke-opacity:1"
       d="M 115.09937,137.84169 C 113.54785,142.17288 111.66047,146.50779 111.20152,151.15759 C 111.45633,159.35862 115.81266,166.61108 116.51798,174.74646 C 116.9237,178.51307 116.38263,183.42186 112.88664,185.33114 C 108.92076,186.96878 104.84413,184.65309 100.92545,183.97876 C 93.187176,181.12186 85.323526,178.55575 77.921251,174.77342 C 74.667773,173.87585 70.789928,172.41011 70.111105,168.36116 C 67.452571,161.89104 69.403422,152.14693 72.527674,146.88725 C 75.83619,139.82872 77.284401,133.30475 83.096906,127.72121 C 88.26479,122.85561 96.578075,122.18405 102.07897,126.81121 C 104.80388,129.49716 113.68507,134.49428 115.09937,137.84169 z"
       id="path3212"
       sodipodi:nodetypes="ccccccccccc"
       inkscape:transform-center-x="7.6387536"
       inkscape:transform-center-y="-3.6444301" />
    <path
       style="fill:#338000;fill-opacity:0.75000000000000000;stroke:#000000;stroke-width:2.76934791000000000;stroke-miterlimit:4;stroke-dasharray:none;stroke-opacity:1"
       d="M 99.304744,143.13653 C 98.681469,147.58529 98.544738,152.17576 97.022355,156.41958 C 96.605949,158.40948 96.276687,160.57403 94.935458,162.12934 C 94.45599,163.62981 92.094098,164.26384 91.412724,162.62144 C 90.765725,161.20789 90.035936,159.78177 89.816568,158.18993 C 89.62106,156.70873 89.534006,155.20712 89.545312,153.71152 C 89.62876,151.2954 90.908475,149.21274 91.92471,147.1368 C 100.06485,133.99437 104.11462,117.52906 99.304744,143.13653 z"
       id="path3214"
       sodipodi:nodetypes="cccccccc"
       inkscape:transform-center-x="5.4401982"
       inkscape:transform-center-y="-9.8402252" />
    <path
       style="fill:#55d400;fill-opacity:1;stroke:#000000;stroke-width:2.76934791000000000;stroke-miterlimit:4;stroke-dasharray:none;stroke-opacity:1"
       d="M 168.81844,82.467479 C 173.09801,81.739181 176.2971,77.301367 180.28786,75.400944 C 186.79415,71.062569 191.73302,67.415803 197.96087,62.692659 C 200.80472,60.432518 205.04606,58.478657 208.33916,60.764215 C 211.64759,63.621225 211.81357,68.558328 213.22824,72.528025 C 214.78802,81.129982 216.64573,89.702708 217.28885,98.45613 C 218.1902,101.92088 218.94431,106.24857 216.00868,108.9031 C 212.10485,114.60377 203.24707,117.66948 197.4298,117.40437 C 191.13645,119.01492 185.21668,121.02342 176.63975,117.1942 C 170.11902,114.83765 165.41748,107.46763 166.4088,100.05411 C 167.21843,96.184771 166.81817,85.452827 168.81844,82.467479 z"
       id="path3216"
       sodipodi:nodetypes="ccccccccccc"
       inkscape:transform-center-x="0.5660728"
       inkscape:transform-center-y="4.2188502" />
    <path
       style="fill:#338000;fill-opacity:0.75000000000000000;stroke:#000000;stroke-width:2.76934791000000000;stroke-miterlimit:4;stroke-dasharray:none;stroke-opacity:1"
       d="M 181.00192,94.459697 C 184.91225,92.81216 188.69383,90.642739 192.88813,89.931127 C 194.70604,89.321754 196.62164,88.544253 198.55059,89.009542 C 200.00416,88.703435 201.69844,90.57563 200.71073,92.028747 C 199.89096,93.335542 199.10242,94.725366 197.92452,95.724941 C 196.82418,96.647077 195.65308,97.478869 194.43765,98.216494 C 192.44152,99.347684 190.11675,99.203221 187.92922,99.299615 C 173.22667,98.32805 157.88229,102.81014 181.00192,94.459697 z"
       id="path3218"
       sodipodi:nodetypes="cccccccc"
       inkscape:transform-center-x="6.3299937"
       inkscape:transform-center-y="8.1100064" />
    <path
       style="fill:#55d400;fill-opacity:1;stroke:#000000;stroke-width:2.76934791000000000;stroke-miterlimit:4;stroke-dasharray:none;stroke-opacity:1"
       d="M 93.296297,124.75614 C 89.408592,126.805 85.272145,128.61225 81.983744,131.68965 C 76.964659,137.89154 75.556712,146.38118 70.909813,152.86264 C 68.816403,155.92107 65.303329,159.12872 61.526557,157.98631 C 57.577481,156.30277 56.056738,151.63838 53.609938,148.29306 C 49.74645,140.56797 45.606395,132.96502 42.576885,124.80543 C 40.759808,121.78021 38.845338,117.884 40.917626,114.41974 C 43.074481,107.73912 50.691274,102.00967 56.322176,100.42373 C 63.305265,97.451176 70.342275,88.812658 76.242764,94.051411 C 83.122777,94.241212 89.647981,99.795995 90.746276,107.1922 C 91.040322,111.14493 94.38366,121.27155 93.296297,124.75614 z"
       id="path3220"
       sodipodi:nodetypes="ccccccccccc"
       inkscape:transform-center-x="2.6226525"
       inkscape:transform-center-y="-3.9246312" />
    <path
       style="fill:#338000;fill-opacity:0.75000000000000000;stroke:#000000;stroke-width:2.76934791000000000;stroke-miterlimit:4;stroke-dasharray:none;stroke-opacity:1"
       d="M 78.347668,117.15088 C 75.066339,119.96126 72.051988,123.2295 68.241133,125.23545 C 66.672445,126.39239 65.05683,127.74086 63.085549,127.90621 C 61.781288,128.65822 59.646047,127.40524 60.188768,125.70465 C 60.61143,124.19698 60.98134,122.61983 61.830905,121.29244 C 62.627745,120.06354 63.517107,118.8986 64.474808,117.8096 C 66.069785,116.09776 68.33071,115.50077 70.394055,114.71705 C 84.708777,110.99687 98.132035,101.86335 78.347668,117.15088 z"
       id="path3222"
       sodipodi:nodetypes="cccccccc"
       inkscape:transform-center-x="-3.4139144"
       inkscape:transform-center-y="-9.824667" />
    <path
       style="opacity:1;fill:#55d400;fill-opacity:1;stroke:#000000;stroke-width:2.76934791000000000;stroke-miterlimit:4;stroke-dasharray:none;stroke-opacity:1"
       d="M 91.52355,183.61429 C 89.237526,199.19021 81.92428,213.0851 79.375057,228.57712 C 77.119494,207.55619 83.12689,200.67211 91.397824,184.30329 C 91.462188,184.07913 91.506552,183.84808 91.52355,183.61429 z"
       id="path3308"
       sodipodi:nodetypes="cccc" />
    <path
       style="opacity:1;fill:#55d400;fill-opacity:1;stroke:#000000;stroke-width:2.76934791000000000;stroke-miterlimit:4;stroke-dasharray:none;stroke-opacity:1"
       d="M 141.68034,187.1336 C 146.9251,202.53864 144.26031,218.41779 149.09318,233.85148 C 134.57845,215.22492 139.21839,206.39185 141.87809,187.82502 C 141.84643,187.59058 141.78318,187.35782 141.68034,187.1336 z"
       id="path3317"
       sodipodi:nodetypes="cccc" />
    <path
       style="opacity:1;fill:#55d400;fill-opacity:1;stroke:#000000;stroke-width:2.76934791000000000;stroke-miterlimit:4;stroke-dasharray:none;stroke-opacity:1"
       d="M 187.73543,169.30002 C 198.27906,181.61529 203.63431,196.71399 213.90955,209.17778 C 195.57834,196.72196 194.75618,187.38236 188.18294,169.86398 C 188.05537,169.6622 187.907,169.47136 187.73543,169.30002 z"
       id="path3319"
       sodipodi:nodetypes="cccc" />
    <path
       sodipodi:type="arc"
       style="fill:#999999;fill-opacity:1;stroke:#000000;stroke-width:2.22193979999999990;stroke-miterlimit:4;stroke-dasharray:none;stroke-opacity:1"
       id="path3416"
       sodipodi:cx="145.24794"
       sodipodi:cy="104.75207"
       sodipodi:rx="36.983471"
       sodipodi:ry="39.049587"
       d="M 182.23141,104.75207 A 36.983471,39.049587 0 1 1 108.26447,104.75207 A 36.983471,39.049587 0 1 1 182.23141,104.75207 z"
       transform="matrix(1.2729713,0,0,1.2108588,-60.714483,-29.072457)" />
    <path
       style="opacity:1;fill:#ffffff;fill-opacity:0.33720931;stroke:none;stroke-width:2;stroke-miterlimit:4;stroke-dasharray:none;stroke-opacity:1"
       d="M 134.63178,55.895099 C 110.86663,49.438385 82.677762,69.542645 81.056348,94.253857 C 85.339058,81.083326 110.71273,53.350352 134.63178,55.895099 z"
       id="path4398"
       sodipodi:nodetypes="ccc" />
    <path
       style="opacity:1;fill:#000000;fill-opacity:0.22674417;stroke:none;stroke-width:2;stroke-miterlimit:4;stroke-dasharray:none;stroke-opacity:1"
       d="M 113.38866,139.42018 C 137.1538,145.87689 165.34266,125.77264 166.96408,101.06142 C 168.64858,107.84658 136.07353,141.91695 113.38866,139.42018 z"
       id="path4403"
       sodipodi:nodetypes="ccc" />
    <g
       id="g4166"
       transform="matrix(1.2130277,0,0,1.2206883,37.684882,-64.659668)">
      <path
         sodipodi:nodetypes="cccccc"
         id="path4175"
         d="M 73.555172,124.88482 C 74.588205,114.33367 85.458053,107.68229 94.556172,113.9791 C 93.629996,121.22571 84.622964,124.60719 78.378292,124.97709 C 76.790524,125.02024 75.177963,125.13175 73.605145,124.91226 L 73.555579,124.88504 L 73.555172,124.88482 z"
         style="opacity:1;fill:#00d400;fill-opacity:1;stroke:#000000;stroke-width:1.15386069;stroke-miterlimit:4;stroke-dasharray:none;stroke-opacity:1" />
      <path
         id="path4177"
         d="M 72.983196,124.22604 C 68.715604,120.2576 62.823171,120.65925 58.18553,123.32885 C 54.224239,125.19282 51.112118,130.12201 51.133339,135.59906 C 50.76201,141.4424 53.139194,147.79698 57.560727,150.07112 C 62.54971,153.11905 68.300864,154.08406 73.760731,153.03662 C 77.647173,152.2607 81.44137,150.15783 84.170159,146.48228 C 86.135165,144.23255 87.581486,141.0655 87.464688,137.61952 C 87.727927,132.92524 86.584683,127.57208 83.180755,125.07756 C 80.422361,122.7096 76.571531,121.34434 73.493778,123.51032 C 73.295687,123.71325 73.122508,123.95549 72.983196,124.22604 z"
         style="opacity:1;fill:#ff0000;fill-opacity:1;stroke:#000000;stroke-width:1.15386069;stroke-miterlimit:4;stroke-dasharray:none;stroke-opacity:1" />
      <path
         sodipodi:nodetypes="cccc"
         id="path4179"
         d="M 69.977116,115.13018 C 70.788054,116.77156 71.451403,120.70467 72.76874,123.5253 C 73.616347,123.18248 75.824575,115.67386 75.682064,114.86993 C 73.782128,114.84586 71.630459,115.5466 69.977116,115.13018 z"
         style="opacity:1;fill:#2b1100;fill-opacity:1;stroke:#000000;stroke-width:1.15386069;stroke-miterlimit:4;stroke-dasharray:none;stroke-opacity:1" />
      <path
         sodipodi:nodetypes="ccc"
         id="path4181"
         d="M 92.313797,114.91854 C 91.059925,117.90815 85.385506,123.82868 81.731502,121.62306 C 83.170917,117.40768 88.822404,116.67244 92.313797,114.91854 z"
         style="opacity:1;fill:#ffffff;fill-opacity:0.51162792;stroke:none;stroke-width:2.33999991;stroke-miterlimit:4;stroke-dasharray:none;stroke-opacity:1" />
      <path
         id="path4183"
         d="M 76.527849,125.61154 C 77.128725,125.70419 78.448942,125.81245 79.295517,126.0268 C 80.066407,126.22198 81.122479,127.05116 81.550649,127.3764 C 82.167843,127.8452 82.775522,128.71546 83.088242,129.34889 C 83.473144,130.12852 83.526339,131.02909 83.805783,131.73664 C 83.982632,132.18439 83.895738,132.93157 84.010799,133.39769 C 84.145483,133.94332 82.318791,134.14193 81.755664,134.33203 C 80.811168,134.65088 79.88987,134.85109 78.885494,134.85109 C 78.277625,134.85109 77.922955,135.32453 78.167947,134.33203 C 78.291721,133.83062 78.270456,133.05681 78.270456,132.56717 C 78.270456,131.97957 78.37296,131.64515 78.37296,131.00994 C 78.37296,130.4474 78.197614,129.82424 77.962938,129.34889 C 77.73313,128.88339 77.704779,128.44659 77.450404,128.10311 C 77.230231,127.80578 77.112022,127.31388 76.937877,126.96112 C 76.750096,126.58078 76.62687,126.11295 76.527849,125.61154 z"
         style="opacity:1;fill:#ffffff;fill-opacity:0.41279069;stroke:none;stroke-width:2.33999991;stroke-miterlimit:4;stroke-dasharray:none;stroke-opacity:1" />
      <path
         sodipodi:nodetypes="cccccc"
         id="path4185"
         d="M 54.284021,138.8999 C 56.246126,147.54696 61.284225,151.13017 70.092537,149.73146 C 63.885558,148.79073 58.884711,143.00518 54.560366,138.89598 L 54.421927,138.88254 L 54.284021,138.8999 L 54.284021,138.8999 z"
         style="opacity:1;fill:#000000;fill-opacity:0.16860465;stroke:none;stroke-width:2.33999991;stroke-miterlimit:4;stroke-dasharray:none;stroke-opacity:1" />
    </g>
  </g>
</svg>
