<?xml version="1.0" encoding="UTF-8" standalone="no"?>
<!-- Created with Inkscape (http://www.inkscape.org/) -->
<svg
   xmlns:dc="http://purl.org/dc/elements/1.1/"
   xmlns:cc="http://creativecommons.org/ns#"
   xmlns:rdf="http://www.w3.org/1999/02/22-rdf-syntax-ns#"
   xmlns:svg="http://www.w3.org/2000/svg"
   xmlns="http://www.w3.org/2000/svg"
   xmlns:sodipodi="http://sodipodi.sourceforge.net/DTD/sodipodi-0.dtd"
   xmlns:inkscape="http://www.inkscape.org/namespaces/inkscape"
   width="250"
   height="250"
   id="svg2"
   sodipodi:version="0.32"
   inkscape:version="0.46"
   sodipodi:docname="back.svg"
   inkscape:output_extension="org.inkscape.output.svg.inkscape"
   inkscape:export-filename="P:\pidgey2\data\images\back.png"
   inkscape:export-xdpi="92.160004"
   inkscape:export-ydpi="92.160004"
   version="1.0">
  <defs
     id="defs4">
    <inkscape:perspective
       sodipodi:type="inkscape:persp3d"
       inkscape:vp_x="0 : 125 : 1"
       inkscape:vp_y="0 : 1000 : 0"
       inkscape:vp_z="250 : 125 : 1"
       inkscape:persp3d-origin="125 : 83.333333 : 1"
       id="perspective3645" />
  </defs>
  <sodipodi:namedview
     id="base"
     pagecolor="#cb90ff"
     bordercolor="#666666"
     borderopacity="1.0"
     gridtolerance="10000"
     guidetolerance="10"
     objecttolerance="10"
     inkscape:pageopacity="0"
     inkscape:pageshadow="2"
     inkscape:zoom="1.6900001"
     inkscape:cx="56.944493"
     inkscape:cy="161.02245"
     inkscape:document-units="px"
     inkscape:current-layer="layer1"
     showgrid="false"
     inkscape:window-width="1680"
     inkscape:window-height="994"
     inkscape:window-x="0"
     inkscape:window-y="22" />
  <metadata
     id="metadata7">
    <rdf:RDF>
      <cc:Work
         rdf:about="">
        <dc:format>image/svg+xml</dc:format>
        <dc:type
           rdf:resource="http://purl.org/dc/dcmitype/StillImage" />
      </cc:Work>
    </rdf:RDF>
  </metadata>
  <g
     inkscape:label="Layer 1"
     inkscape:groupmode="layer"
     id="layer1">
    <path
       style="opacity:1;fill:#917c6f;fill-opacity:1;stroke:#000000;stroke-width:6.97883177;stroke-miterlimit:4;stroke-dasharray:none;stroke-opacity:1"
       d="M 127.62776,120.59151 C 89.686294,127.27937 49.907979,125.49332 10.110427,129.18898 C 36.450603,158.41477 91.613541,155.28967 125.51235,136.27619 C 127.12769,131.13793 127.58745,127.15698 127.62776,120.59151 z"
       id="path3175"
       sodipodi:nodetypes="cccc"
       inkscape:transform-center-x="-6.1644806"
       inkscape:transform-center-y="25.109671"
       inkscape:export-xdpi="90"
       inkscape:export-ydpi="90" />
    <path
       style="opacity:1;fill:#917c6f;fill-opacity:1;stroke:#000000;stroke-width:6.97883177;stroke-miterlimit:4;stroke-dasharray:none;stroke-opacity:1"
       d="M 127.36946,127.84436 C 88.203948,124.8657 49.336628,128.50781 10.080293,128.74221 C 33.957269,97.346013 88.942603,96.012752 124.05572,112.30958 C 126.05664,117.32413 126.82113,121.27326 127.36946,127.84436 z"
       id="path3181"
       sodipodi:nodetypes="cccc"
       inkscape:export-filename="P:\pidgey2\data\images\path3175.png"
       inkscape:export-xdpi="90"
       inkscape:export-ydpi="90" />
    <path
       style="opacity:1;fill:#241c1c;fill-opacity:1;stroke:#000000;stroke-width:6.97883177;stroke-miterlimit:4;stroke-dasharray:none;stroke-opacity:1"
       d="M 124.81017,110.306 C 130.47495,110.08714 135.97771,108.10842 141.25019,105.87396 C 146.54819,106.77033 148.82435,117.87514 147.83934,122.73529 C 140.17514,124.66315 136.25836,124.59593 128.48016,128.17301 C 127.84551,121.9331 127.5387,116.10019 124.81017,110.306 z"
       id="path3183"
       sodipodi:nodetypes="ccccc"
       inkscape:export-filename="P:\pidgey2\data\images\path3175.png"
       inkscape:export-xdpi="90"
       inkscape:export-ydpi="90" />
    <path
       style="opacity:1;fill:#803300;fill-opacity:1;stroke:#000000;stroke-width:6.97883177;stroke-miterlimit:4;stroke-dasharray:none;stroke-opacity:1"
       d="M 234.0402,72.181369 C 247.65707,72.995074 244.72485,89.252576 237.41857,96.055351 C 214.94119,119.56733 176.98451,120.39952 147.52673,123.14516 C 146.68703,111.50776 147.34353,110.81966 142.56917,105.01615 C 169.10436,86.665345 201.99552,71.038853 234.0402,72.181369 z"
       id="path3185"
       sodipodi:nodetypes="ccccc"
       inkscape:export-filename="P:\pidgey2\data\images\path3175.png"
       inkscape:export-xdpi="90"
       inkscape:export-ydpi="90" />
    <path
       style="opacity:1;fill:#241c1c;fill-opacity:1;stroke:#000000;stroke-width:6.97883177;stroke-miterlimit:4;stroke-dasharray:none;stroke-opacity:1"
       d="M 122.53013,140.17945 C 128.05343,141.45651 133.08761,144.43182 137.84766,147.6152 C 143.21976,147.72804 147.53758,137.2469 147.48125,132.28824 C 140.31442,128.95764 136.45447,128.2893 129.48487,123.31736 C 127.69157,129.32763 126.29661,134.99958 122.53013,140.17945 z"
       id="path3193"
       sodipodi:nodetypes="ccccc"
       inkscape:export-filename="P:\pidgey2\data\images\path3175.png"
       inkscape:export-xdpi="90"
       inkscape:export-ydpi="90" />
    <path
       style="opacity:1;fill:#803300;fill-opacity:1;stroke:#000000;stroke-width:6.97883177;stroke-miterlimit:4;stroke-dasharray:none;stroke-opacity:1"
       d="M 233.84818,183.43707 C 247.46301,182.58983 244.49074,166.33961 237.16773,159.55487 C 214.63251,136.09832 176.67388,135.35962 147.20941,132.68656 C 146.3984,144.32598 147.0566,145.01246 142.29654,150.82771 C 168.87686,169.1131 201.80641,184.65853 233.84818,183.43707 z"
       id="path3195"
       sodipodi:nodetypes="ccccc"
       inkscape:export-filename="P:\pidgey2\data\images\path3175.png"
       inkscape:export-xdpi="90"
       inkscape:export-ydpi="90" />
    <path
       style="opacity:1;fill:#ffffff;fill-opacity:0.22093021;stroke:none;stroke-width:5;stroke-miterlimit:4;stroke-dasharray:none;stroke-opacity:1"
       d="M 111.95581,134.34715 C 101.12593,140.26408 88.878879,140.26713 77.366643,142.80525 C 62.056438,143.7773 45.959144,144.3559 31.992926,138.43936 C 22.469235,133.4313 38.207479,137.49345 41.701493,137.32853 C 52.684359,138.71265 63.72349,139.6505 74.968944,138.02298 C 86.642213,136.94582 98.30796,135.27611 109.91824,133.0792 L 111.16824,133.35964 L 111.95581,134.34715 L 111.95581,134.34715 z"
       id="path3199"
       inkscape:transform-center-x="-7.7821617"
       inkscape:transform-center-y="28.151474"
       inkscape:export-filename="P:\pidgey2\data\images\path3175.png"
       inkscape:export-xdpi="90"
       inkscape:export-ydpi="90" />
    <path
       style="opacity:1;fill:#ffffff;fill-opacity:0.22093021;stroke:none;stroke-width:5;stroke-miterlimit:4;stroke-dasharray:none;stroke-opacity:1"
       d="M 23.029264,122.05137 C 43.287708,118.99193 95.614091,114.24246 120.33841,120.62905"
       id="path3206"
       sodipodi:nodetypes="cc"
       inkscape:export-filename="P:\pidgey2\data\images\path3175.png"
       inkscape:export-xdpi="90"
       inkscape:export-ydpi="90" />
    <path
       style="opacity:1;fill:#ffffff;fill-opacity:0.12790695;stroke:none;stroke-width:5;stroke-miterlimit:4;stroke-dasharray:none;stroke-opacity:1"
       d="M 230.11114,78.77406 C 206.03774,77.93296 175.6037,91.673343 152.90723,108.19529 C 168.32841,98.741336 234.74745,94.509494 230.37545,79.236889 L 230.15982,78.859307 L 230.11114,78.77406 z"
       id="path3221"
       sodipodi:nodetypes="ccccc"
       inkscape:export-filename="P:\pidgey2\data\images\path3175.png"
       inkscape:export-xdpi="90"
       inkscape:export-ydpi="90" />
    <path
       style="opacity:1;fill:#ffffff;fill-opacity:0.12790695;stroke:none;stroke-width:5;stroke-miterlimit:4;stroke-dasharray:none;stroke-opacity:1"
       d="M 238.67946,169.12629 C 222.11772,151.23144 189.62389,142.151 161.45203,139.76684 C 179.25646,142.95943 231.67954,183.96207 238.56913,169.64773 L 238.65914,169.22233 L 238.67946,169.12629 z"
       id="path3227"
       sodipodi:nodetypes="ccccc"
       inkscape:export-filename="P:\pidgey2\data\images\path3175.png"
       inkscape:export-xdpi="90"
       inkscape:export-ydpi="90" />
  </g>
</svg>
