<?xml version="1.0" encoding="UTF-8" standalone="no"?>
<!-- Created with Inkscape (http://www.inkscape.org/) -->
<svg
   xmlns:dc="http://purl.org/dc/elements/1.1/"
   xmlns:cc="http://creativecommons.org/ns#"
   xmlns:rdf="http://www.w3.org/1999/02/22-rdf-syntax-ns#"
   xmlns:svg="http://www.w3.org/2000/svg"
   xmlns="http://www.w3.org/2000/svg"
   xmlns:sodipodi="http://sodipodi.sourceforge.net/DTD/sodipodi-0.dtd"
   xmlns:inkscape="http://www.inkscape.org/namespaces/inkscape"
   width="250"
   height="250"
   id="svg2"
   sodipodi:version="0.32"
   inkscape:version="0.46"
   sodipodi:docname="beethick.svg"
   inkscape:output_extension="org.inkscape.output.svg.inkscape"
   inkscape:export-filename="P:\pidgey2\data\images\beethick.png"
   inkscape:export-xdpi="92.160004"
   inkscape:export-ydpi="92.160004"
   version="1.0">
  <defs
     id="defs4">
    <inkscape:perspective
       sodipodi:type="inkscape:persp3d"
       inkscape:vp_x="0 : 125 : 1"
       inkscape:vp_y="0 : 1000 : 0"
       inkscape:vp_z="250 : 125 : 1"
       inkscape:persp3d-origin="125 : 83.333333 : 1"
       id="perspective12" />
  </defs>
  <sodipodi:namedview
     id="base"
     pagecolor="#cb90ff"
     bordercolor="#666666"
     borderopacity="1.0"
     gridtolerance="10000"
     guidetolerance="10"
     objecttolerance="10"
     inkscape:pageopacity="0"
     inkscape:pageshadow="2"
     inkscape:zoom="2.390021"
     inkscape:cx="22.240197"
     inkscape:cy="109.67845"
     inkscape:document-units="px"
     inkscape:current-layer="layer1"
     showgrid="false"
     inkscape:window-width="1680"
     inkscape:window-height="994"
     inkscape:window-x="0"
     inkscape:window-y="22" />
  <metadata
     id="metadata7">
    <rdf:RDF>
      <cc:Work
         rdf:about="">
        <dc:format>image/svg+xml</dc:format>
        <dc:type
           rdf:resource="http://purl.org/dc/dcmitype/StillImage" />
      </cc:Work>
    </rdf:RDF>
  </metadata>
  <g
     inkscape:label="Layer 1"
     inkscape:groupmode="layer"
     id="layer1">
    <path
       style="opacity:1;fill:none;fill-opacity:1;stroke:#000000;stroke-width:3;stroke-miterlimit:4;stroke-dasharray:none;stroke-opacity:1"
       d="M 211.69326,108.92576 C 215.91618,111.08957 220.41202,105.87558 224.31971,102.94482 C 227.99812,100.18601 230.1835,96.677026 232.95885,92.976564 C 234.92025,90.361389 236.26944,85.062832 236.94616,81.679209 C 237.29628,79.928607 237.89856,78.534126 238.27526,77.027358"
       id="path3247"
       inkscape:export-filename="P:\pidgey\data\images\path3196.png"
       inkscape:export-xdpi="90"
       inkscape:export-ydpi="90" />
    <path
       style="opacity:1;fill:none;fill-opacity:1;stroke:#000000;stroke-width:3;stroke-miterlimit:4;stroke-dasharray:none;stroke-opacity:1"
       d="M 214.35146,138.16598 C 214.46123,137.61712 224.49531,140.32765 226.97791,140.82418 C 230.33101,141.4948 234.48651,149.86045 235.61705,152.12153 C 237.9501,156.78761 239.35363,160.83615 240.26891,165.41252 C 241.04929,169.31441 242.84219,172.29797 243.59166,176.04533"
       id="path3249"
       inkscape:export-filename="P:\pidgey\data\images\path3196.png"
       inkscape:export-xdpi="90"
       inkscape:export-ydpi="90" />
    <path
       style="opacity:1;fill:#552200;fill-opacity:1;stroke:#000000;stroke-width:3;stroke-miterlimit:4;stroke-dasharray:none;stroke-opacity:1"
       d="M 9.689184,132.2188 C 35.597889,143.44412 22.251492,137.89885 42.763818,145.85909 C 41.730585,133.44725 41.392723,120.89051 39.888256,108.53533 C 24.357978,119.99608 15.232865,126.20382 9.689184,132.2188 z"
       id="path3188"
       sodipodi:nodetypes="cccc" />
    <path
       style="opacity:1;fill:#000000;fill-opacity:1;stroke:#000000;stroke-width:3;stroke-miterlimit:4;stroke-dasharray:none;stroke-opacity:1"
       d="M 166.50384,91.647455 C 183.53444,87.518213 205.74399,90.41029 214.06302,107.9028 C 221.06561,121.95844 219.37194,139.56901 212.21432,153.14672 C 202.2059,164.19489 185.62369,164.59248 171.74546,164.21629 C 153.69535,162.14698 171.00116,142.54913 167.03044,131.71218 C 168.31479,118.34495 159.13491,104.05209 166.50384,91.647455 L 166.50384,91.647455 z"
       id="path3196"
       inkscape:export-filename="P:\pidgey\data\images\path3196.png"
       inkscape:export-xdpi="90"
       inkscape:export-ydpi="90" />
    <path
       style="fill:#ffd42a;fill-rule:evenodd;stroke:#000000;stroke-width:3;stroke-linecap:butt;stroke-linejoin:miter;stroke-miterlimit:4;stroke-dasharray:none;stroke-opacity:1"
       d="M 180.96748,93.181464 C 175.15356,77.365419 158.81318,69.677757 144.46227,63.230147 C 126.92931,57.901936 108.39718,60.489056 90.42139,60.842594 C 73.428013,62.9544 56.464225,72.095893 48.511999,87.7721 C 40.902105,98.690706 42.388038,112.61786 41.296342,125.19608 C 40.816065,137.6978 43.937025,149.8784 45.92202,162.11312 C 49.044673,177.63641 62.810995,188.49846 76.849349,194.07655 C 102.31998,203.51409 133.03463,202.08753 155.37699,185.6205 C 168.5396,175.55367 178.28864,161.11352 183.5928,145.47801 C 188.31321,130.11726 189.1081,113.08554 182.91266,98.001206 C 182.44129,96.335746 182.01811,94.596641 180.96748,93.181464 z"
       id="path3160" />
    <path
       style="opacity:1;fill:#000000;fill-opacity:0.25000000000000000;stroke:none;stroke-width:3;stroke-miterlimit:4;stroke-dasharray:none;stroke-opacity:1"
       d="M 181.7885,108.26122 C 142.09944,120.70561 86.402599,127.62264 45.653366,118.49944 C 49.214539,100.10535 50.615173,79.927137 73.134637,77.068471 C 84.652245,78.749494 94.467446,86.335931 106.20071,87.150522 C 117.64999,89.787845 128.99787,92.886383 140.35512,95.867196 C 151.48015,99.415446 162.83224,102.18115 174.25123,104.56251 C 176.94521,105.35707 179.57905,106.49976 181.7885,108.26122 z"
       id="path3233"
       sodipodi:nodetypes="ccccccc" />
    <path
       style="opacity:1;fill:#000000;fill-opacity:1;stroke:#000000;stroke-width:3;stroke-miterlimit:4;stroke-dasharray:none;stroke-opacity:1"
       d="M 61.538083,67.723656 C 79.735087,119.32531 74.59751,163.2512 65.406826,186.16026 C 69.68333,191.53634 73.112739,187.70913 78.485052,185.79065 C 94.3595,147.4168 85.143084,93.197437 78.248004,69.768866 C 72.23026,63.650484 69.000009,62.439119 61.538083,67.723656 z"
       id="path3198"
       sodipodi:nodetypes="ccccc" />
    <path
       style="opacity:1;fill:none;fill-opacity:1;stroke:#000000;stroke-width:3;stroke-miterlimit:4;stroke-dasharray:none;stroke-opacity:1"
       d="M 159.1938,174.71623 C 156.65455,178.10188 165.65556,180.39096 167.83294,184.01993 C 169.90316,187.47028 171.1557,191.88739 171.1557,195.98183 C 171.1557,199.96913 171.1557,203.95643 171.1557,207.94373 C 171.1557,208.30856 170.61748,210.63479 170.49114,211.26649"
       id="path3226"
       inkscape:export-filename="P:\pidgey\data\images\path3196.png"
       inkscape:export-xdpi="90"
       inkscape:export-ydpi="90" />
    <path
       style="opacity:1;fill:#000000;fill-opacity:1;stroke:#000000;stroke-width:3;stroke-miterlimit:4;stroke-dasharray:none;stroke-opacity:1"
       d="M 101.14991,69.273659 C 119.34692,120.87531 114.20933,164.80121 105.01865,187.71026 C 109.29516,193.08634 112.72456,189.25913 118.09688,187.34065 C 133.97133,148.9668 124.7549,94.747438 117.85982,71.318868 C 111.84209,65.200486 108.61183,63.989121 101.14991,69.273659 z"
       id="path3173"
       sodipodi:nodetypes="ccccc" />
    <path
       style="opacity:1;fill:#000000;fill-opacity:1;stroke:#000000;stroke-width:3;stroke-miterlimit:4;stroke-dasharray:none;stroke-opacity:1"
       d="M 139.69382,67.280008 C 157.89083,118.88166 152.75324,162.80756 143.56256,185.7166 C 147.83906,191.09268 151.26847,187.26548 156.64079,185.34701 C 172.51523,146.97315 163.29881,92.753794 156.40373,69.325218 C 150.386,63.206835 147.15574,61.995469 139.69382,67.280008 z"
       id="path3175"
       sodipodi:nodetypes="ccccc" />
    <path
       style="opacity:1;fill:none;fill-opacity:1;stroke:#000000;stroke-width:3;stroke-miterlimit:4;stroke-dasharray:none;stroke-opacity:1"
       d="M 157.42385,72.043232 C 154.88461,68.65758 163.88562,66.36851 166.063,62.739532 C 168.13322,59.289181 169.38576,54.872071 169.38576,50.77763 C 169.38576,46.790333 169.38576,42.80303 169.38576,38.815735 C 169.38576,38.450904 168.84754,36.124673 168.7212,35.492979"
       id="path3241"
       inkscape:export-filename="P:\pidgey\data\images\path3196.png"
       inkscape:export-xdpi="90"
       inkscape:export-ydpi="90" />
    <path
       style="opacity:1;fill:none;fill-opacity:1;stroke:#000000;stroke-width:3;stroke-miterlimit:4;stroke-dasharray:none;stroke-opacity:1"
       d="M 119.68583,63.40408 C 115.60834,62.384708 122.65376,55.519671 123.67313,51.442177 C 124.62756,47.624447 124.46667,43.725556 123.00859,40.809371 C 121.14013,37.072468 116.32083,34.329065 113.70488,30.841119 C 111.94151,28.48996 108.29874,27.80578 106.39483,26.853823"
       id="path3245"
       inkscape:export-filename="P:\pidgey\data\images\path3196.png"
       inkscape:export-xdpi="90"
       inkscape:export-ydpi="90" />
    <path
       style="opacity:1;fill:#808080;fill-opacity:1;stroke:#000000;stroke-width:3;stroke-miterlimit:4;stroke-dasharray:none;stroke-opacity:1"
       d="M 185.00606,104.45943 C 177.79402,86.870604 165.41729,72.933236 151.42066,62.417104 C 107.93021,16.835825 72.591573,-4.7488026 11.155915,28.992549 C 3.1865454,31.450315 15.100575,38.172345 17.40144,41.46405 C 29.430763,52.811905 42.497382,62.759126 56.891753,69.660217 C 69.568197,76.898088 185.38764,112.28685 185.00606,104.45943 z"
       id="path3189"
       sodipodi:nodetypes="cccccc" />
    <path
       style="opacity:1;fill:#ffffff;fill-opacity:0.54651165999999995;stroke:none;stroke-width:3;stroke-miterlimit:4;stroke-dasharray:none;stroke-opacity:1"
       d="M 213.36688,120.91572 C 214.67006,104.84233 203.08417,98.838442 188.9627,94.257792 C 193.91277,105.22286 212.22738,108.02779 213.36688,120.91572 z"
       id="path3191"
       sodipodi:nodetypes="ccc" />
    <path
       style="opacity:1;fill:#ffffff;fill-opacity:0.19186048000000000;stroke:none;stroke-width:3;stroke-miterlimit:4;stroke-dasharray:none;stroke-opacity:1"
       d="M 19.145977,129.99137 C 27.816102,123.7536 26.281424,124.55046 34.89538,118.59564 C 37.765691,124.83551 33.633854,125.1647 19.145977,129.99137 z"
       id="path3239"
       sodipodi:nodetypes="ccc" />
    <path
       style="opacity:1;fill:#808080;fill-opacity:1;stroke:#000000;stroke-width:3;stroke-miterlimit:4;stroke-dasharray:none;stroke-opacity:1"
       d="M 185.21526,148.09331 C 178.00322,165.68213 165.62649,179.61949 151.62986,190.13562 C 108.13941,235.71691 72.800786,257.30154 11.365127,223.56017 C 3.3957534,221.10241 15.309785,214.38038 17.610651,211.08868 C 29.639969,199.74083 42.70659,189.79361 57.100957,182.89252 C 69.7774,175.65464 185.59684,140.26588 185.21526,148.09331 z"
       id="path3264"
       sodipodi:nodetypes="cccccc" />
    <path
       style="opacity:1;fill:#b3b3b3;fill-opacity:1;stroke:none;stroke-width:3;stroke-miterlimit:4;stroke-dasharray:none;stroke-opacity:1"
       d="M 48.371203,198.0515 C 59.01837,181.65833 180.37872,150.50028 173.72198,155.04343 C 130.98283,171.39342 101.98379,175.00666 48.371203,198.0515 z"
       id="path3266"
       sodipodi:nodetypes="ccc" />
    <path
       style="opacity:1;fill:#ffffff;fill-opacity:0.40697674000000000;stroke:none;stroke-width:3;stroke-miterlimit:4;stroke-dasharray:none;stroke-opacity:1"
       d="M 143.39084,62.717766 C 117.50147,38.640067 87.113352,9.1068268 42.291787,21.219802 C 82.156763,14.904818 123.18449,47.587116 143.39084,62.717766 z"
       id="path2399"
       sodipodi:nodetypes="ccc" />
    <path
       style="opacity:1;fill:#6c5d53;fill-opacity:0.30813952000000000;stroke:none;stroke-width:3;stroke-miterlimit:4;stroke-dasharray:none;stroke-opacity:1"
       d="M 214.0725,139.68174 C 212.25401,155.70501 199.72834,159.36386 184.98886,161.13754 C 191.95906,151.33181 210.47093,152.10856 214.0725,139.68174 z"
       id="path3178"
       sodipodi:nodetypes="ccc" />
    <path
       style="opacity:1;fill:#000000;fill-opacity:0.26744187000000003;stroke:none;stroke-width:3;stroke-miterlimit:4;stroke-dasharray:none;stroke-opacity:1"
       d="M 106.69363,216.52748 C 94.95687,228.16952 77.876239,231.48899 61.916047,231.18504 C 56.931761,230.64217 49.434914,232.08075 45.998558,229.67472 C 66.555861,228.06358 85.689082,223.23799 103.26237,214.37522 C 104.70611,214.28739 106.14182,215.18202 106.69363,216.52748 z"
       id="path3180"
       sodipodi:nodetypes="ccccc" />
    <path
       style="opacity:1;fill:#000000;fill-opacity:0.18604651000000000;stroke:none;stroke-width:3;stroke-miterlimit:4;stroke-dasharray:none;stroke-opacity:1"
       d="M 19.422441,131.1503 C 29.090417,134.71704 27.444216,134.34615 36.99817,137.68422 C 38.439191,131.82578 34.391915,132.36661 19.422441,131.1503 z"
       id="path3201"
       sodipodi:nodetypes="ccc" />
    <path
       style="opacity:1;fill:#000000;fill-opacity:0.19186048000000000;stroke:none;stroke-width:3;stroke-miterlimit:4;stroke-dasharray:none;stroke-opacity:1"
       d="M 58.576893,61.29873 C 71.631274,69.896056 87.349544,72.679225 101.7571,78.153496 C 121.28865,83.075388 140.44011,89.304345 160.0013,93.93919 C 169.4788,94.872428 152.57834,89.95712 149.70534,88.319643 C 115.86687,79.619476 82.355934,67.030608 53.019464,55.112291 C 52.005298,57.595595 56.997147,59.998561 58.576893,61.29873 z"
       id="path3205"
       sodipodi:nodetypes="cccccc" />
  </g>
</svg>
