<?xml version="1.0" encoding="UTF-8" standalone="no"?>
<!-- Created with Inkscape (http://www.inkscape.org/) -->
<svg
   xmlns:dc="http://purl.org/dc/elements/1.1/"
   xmlns:cc="http://creativecommons.org/ns#"
   xmlns:rdf="http://www.w3.org/1999/02/22-rdf-syntax-ns#"
   xmlns:svg="http://www.w3.org/2000/svg"
   xmlns="http://www.w3.org/2000/svg"
   xmlns:sodipodi="http://sodipodi.sourceforge.net/DTD/sodipodi-0.dtd"
   xmlns:inkscape="http://www.inkscape.org/namespaces/inkscape"
   width="250"
   height="250"
   id="svg2"
   sodipodi:version="0.32"
   inkscape:version="0.46"
   sodipodi:docname="birdlevel.svg"
   inkscape:output_extension="org.inkscape.output.svg.inkscape"
   inkscape:export-filename="P:\pidgey2\data\images\birdlevel.png"
   inkscape:export-xdpi="92.160004"
   inkscape:export-ydpi="92.160004"
   version="1.0">
  <defs
     id="defs4">
    <inkscape:perspective
       sodipodi:type="inkscape:persp3d"
       inkscape:vp_x="0 : 125 : 1"
       inkscape:vp_y="0 : 1000 : 0"
       inkscape:vp_z="250 : 125 : 1"
       inkscape:persp3d-origin="125 : 83.333333 : 1"
       id="perspective3645" />
  </defs>
  <sodipodi:namedview
     id="base"
     pagecolor="#cb90ff"
     bordercolor="#666666"
     borderopacity="1.0"
     gridtolerance="10000"
     guidetolerance="10"
     objecttolerance="10"
     inkscape:pageopacity="0"
     inkscape:pageshadow="2"
     inkscape:zoom="1.7111984"
     inkscape:cx="62.793051"
     inkscape:cy="132.17749"
     inkscape:document-units="px"
     inkscape:current-layer="layer1"
     showgrid="false"
     inkscape:window-width="1680"
     inkscape:window-height="994"
     inkscape:window-x="0"
     inkscape:window-y="22" />
  <metadata
     id="metadata7">
    <rdf:RDF>
      <cc:Work
         rdf:about="">
        <dc:format>image/svg+xml</dc:format>
        <dc:type
           rdf:resource="http://purl.org/dc/dcmitype/StillImage" />
      </cc:Work>
    </rdf:RDF>
  </metadata>
  <g
     inkscape:label="Layer 1"
     inkscape:groupmode="layer"
     id="layer1">
    <path
       style="opacity:1;fill:#ffcc00;fill-opacity:1;stroke:#000000;stroke-width:2.30138421000000020;stroke-miterlimit:4;stroke-dasharray:none;stroke-opacity:1"
       d="M 10.231233,81.20374 C 34.954502,81.881262 55.799736,85.799972 79.152097,93.737256 C 81.556138,96.179806 80.645583,96.600566 79.37318,98.441216 C 75.380547,101.65801 72.306807,105.65793 69.150086,109.5595 C 67.515495,111.43459 66.18251,113.51557 65.083527,115.6995 C 44.43439,105.78734 26.443127,95.158086 10.231233,81.20374 z"
       id="path3210"
       sodipodi:nodetypes="cccccc" />
    <path
       style="opacity:1;fill:#ffcc00;fill-opacity:1;stroke:#000000;stroke-width:2.30138421000000020;stroke-miterlimit:4;stroke-dasharray:none;stroke-opacity:1"
       d="M 4.0997422,152.74404 C 25.557448,141.2457 45.520867,134.40499 69.868572,129.7659 C 73.283837,130.67415 72.742744,131.47764 72.686981,133.66847 C 71.081346,138.36127 70.696994,143.27294 70.186907,148.14129 C 69.841599,150.53839 69.868548,152.96371 70.152569,155.36252 C 47.005488,156.99745 25.723584,156.72279 4.0997422,152.74404 z"
       id="path3206"
       sodipodi:nodetypes="cccccc" />
    <path
       style="opacity:1;fill:#ffcc00;fill-opacity:1;stroke:#000000;stroke-width:2.30138421000000020;stroke-miterlimit:4;stroke-dasharray:none;stroke-opacity:1"
       d="M 58.536806,221.88814 C 61.700783,198.95946 67.932275,179.95805 78.689793,159.02174 C 81.527737,157.02701 81.885724,157.91552 83.719633,159.28086 C 86.749865,163.31229 90.704635,166.56644 94.546512,169.88804 C 96.381288,171.59366 98.465078,173.03911 100.6816,174.27707 C 88.088627,192.50393 74.994832,208.18781 58.536806,221.88814 z"
       id="path3208"
       sodipodi:nodetypes="cccccc" />
    <path
       style="opacity:1;fill:#ffcc00;fill-opacity:1;stroke:#000000;stroke-width:2.30138421000000020;stroke-miterlimit:4;stroke-dasharray:none;stroke-opacity:1"
       d="M 130.99216,234.13387 C 121.80023,212.67101 117.33453,193.2402 115.81219,170.05817 C 117.25028,167.02363 118.02614,167.63641 120.33941,167.99328 C 125.08739,170.13329 130.23744,171.1734 135.32404,172.32384 C 137.81551,172.97745 140.38871,173.29044 142.96967,173.36179 C 141.47661,195.01398 138.22032,214.67373 130.99216,234.13387 z"
       id="path3202"
       sodipodi:nodetypes="cccccc" />
    <path
       style="opacity:1;fill:#ffcc00;fill-opacity:1;stroke:#000000;stroke-width:2.30138421000000020;stroke-miterlimit:4;stroke-dasharray:none;stroke-opacity:1"
       d="M 211.81402,209.85291 C 189.4233,200.031 171.9706,188.67903 153.92978,172.70772 C 152.76489,169.57247 153.7794,169.52535 155.73063,168.31038 C 160.76338,166.84534 165.28679,164.31995 169.84442,161.91565 C 172.14255,160.80388 174.25176,159.39099 176.19014,157.79658 C 190.91002,174.57354 202.88632,191.0192 211.81402,209.85291 z"
       id="path3204"
       sodipodi:nodetypes="cccccc" />
    <path
       style="opacity:1;fill:#ffcc00;fill-opacity:1;stroke:#000000;stroke-width:2.30138421000000020;stroke-miterlimit:4;stroke-dasharray:none;stroke-opacity:1"
       d="M 243.58775,139.43173 C 219.55698,144.90492 198.34616,146.29191 173.5781,144.4254 C 170.56728,142.66599 171.32592,142.03465 172.0307,139.94455 C 174.96806,135.8535 176.79729,131.23502 178.73441,126.69082 C 179.77866,124.47777 180.47371,122.14095 180.91392,119.76283 C 203.63564,124.20341 223.99797,129.99405 243.58775,139.43173 z"
       id="path3198"
       sodipodi:nodetypes="cccccc" />
    <path
       style="opacity:1;fill:#ffcc00;fill-opacity:1;stroke:#000000;stroke-width:2.30138421000000020;stroke-miterlimit:4;stroke-dasharray:none;stroke-opacity:1"
       d="M 228.4192,58.614883 C 214.85308,77.945781 200.36404,92.491273 180.89941,106.92836 C 177.41418,107.5633 177.5076,106.61791 176.49644,104.64073 C 175.65579,99.776866 173.62013,95.234466 171.71755,90.677531 C 170.8647,88.393949 169.66625,86.242661 168.2514,84.223776 C 188.10014,72.973457 207.21039,64.215019 228.4192,58.614883 z"
       id="path3200"
       sodipodi:nodetypes="cccccc" />
    <path
       style="opacity:1;fill:#ffcc00;fill-opacity:1;stroke:#000000;stroke-width:2.30138421000000020;stroke-miterlimit:4;stroke-dasharray:none;stroke-opacity:1"
       d="M 156.79597,14.662445 C 159.90229,37.598012 158.98306,57.453509 154.20383,80.245531 C 151.99374,82.843198 151.40821,82.067392 149.2659,81.176973 C 145.24845,77.987311 140.54527,75.76727 135.93324,73.455406 C 133.69854,72.235851 131.29284,71.326632 128.81449,70.649428 C 136.09913,50.048371 144.55267,31.790876 156.79597,14.662445 z"
       id="path3196"
       sodipodi:nodetypes="cccccc" />
    <path
       style="opacity:1;fill:#ffcc00;fill-opacity:1;stroke:#000000;stroke-width:2.30138421000000020;stroke-miterlimit:4;stroke-dasharray:none;stroke-opacity:1"
       d="M 60.84897,23.439492 C 81.092181,36.723264 96.189058,50.71826 111.01302,69.358177 C 111.58203,72.634212 110.57402,72.517104 108.42786,73.399377 C 103.20022,74.031275 98.278648,75.789735 93.345719,77.423397 C 90.876892,78.148099 88.538632,79.19985 86.335117,80.457944 C 74.930999,61.559723 66.168233,43.430054 60.84897,23.439492 z"
       id="path3193"
       sodipodi:nodetypes="cccccc"
       inkscape:transform-center-y="5.200958" />
    <path
       style="opacity:1;fill:#ffcc00;fill-opacity:1;stroke:#000000;stroke-width:2.30138421000000020;stroke-miterlimit:4;stroke-dasharray:none;stroke-opacity:1"
       d="M 142.45669,68.45737 C 71.766961,43.516564 16.557277,155.79803 93.270059,181.98558 C 151.61238,214.68864 226.54688,153.06471 182.58912,98.539946 C 173.91757,84.360891 160.13188,71.777788 142.45669,68.45737 z"
       id="path3167" />
    <path
       style="opacity:1;fill:#000000;fill-opacity:0.30232556;stroke:none;stroke-width:4;stroke-miterlimit:4;stroke-dasharray:none;stroke-opacity:1"
       d="M 65.267502,139.33869 C 71.642102,162.29158 96.427708,174.2697 117.5461,183.6297 C 134.27825,188.50413 167.96216,179.30618 166.67443,162.14428 C 144.90717,163.78712 122.28889,165.46667 101.59001,156.2341 C 87.88405,154.02873 74.062804,134.70465 63.180139,137.0726 L 65.267502,139.33869 L 65.267502,139.33869 z"
       id="path3237" />
    <g
       id="g3347"
       transform="matrix(2.0673236,0,0,2.1074298,-130.80384,-76.784094)"
       style="stroke-width:1.21920562;stroke-miterlimit:4;stroke-dasharray:none">
      <path
         sodipodi:nodetypes="cccccc"
         id="path3343"
         d="M 122.80014,108.72347 C 123.72389,108.74823 124.45868,109.49671 125.12215,110.14061 C 125.83118,111.05237 125.82715,112.33845 126.03921,113.46675 C 126.23283,114.83024 126.2249,116.21542 126.23355,117.59051 C 126.38727,118.4745 127.16944,118.91494 127.77205,119.37141 C 128.53805,119.88843 127.76417,119.38292 129.83524,120.82491"
         style="opacity:1;fill:none;fill-opacity:0.26162792;stroke:#000000;stroke-width:1.21920562;stroke-miterlimit:4;stroke-dasharray:none;stroke-opacity:1" />
      <path
         sodipodi:nodetypes="ccc"
         id="path3345"
         d="M 131.29654,118.80992 C 127.98871,118.99469 125.87762,118.95009 126.28295,117.6554 C 128.19095,117.58871 130.52301,117.12811 130.88859,116.9054"
         style="opacity:1;fill:none;fill-opacity:0.26162792;stroke:#000000;stroke-width:1.21920562;stroke-miterlimit:4;stroke-dasharray:none;stroke-opacity:1" />
    </g>
    <path
       style="opacity:1;fill:#ffffff;fill-opacity:0.63953468;stroke:none;stroke-width:4;stroke-miterlimit:4;stroke-dasharray:none;stroke-opacity:1"
       d="M 187.89885,123.06745 C 182.94649,99.809976 158.93859,86.519851 138.43079,76.040573 C 122.02611,70.27512 87.8322,77.647911 88.062264,94.850626 C 109.89457,94.380126 132.57875,93.918706 152.67555,104.24825 C 166.22321,107.18642 178.83309,127.22122 189.84339,125.44194 L 187.89885,123.06745 L 187.89885,123.06745 z"
       id="path3227" />
    <path
       style="fill:#0000ff;fill-opacity:1;stroke:#000000;stroke-width:2.54482412;stroke-miterlimit:4;stroke-dasharray:none;stroke-opacity:1"
       d="M 144.684,97.830849 C 147.14007,95.812342 148.10045,89.718182 149.87562,84.625138 C 152.44002,76.67833 159.59988,75.262868 166.87785,76.760532 C 170.59844,77.743559 174.24975,78.640732 176.9078,81.929475 C 180.70358,85.471891 192.64172,106.41096 189.03223,105.87385 C 181.71749,106.39041 167.42194,111.67592 163.54643,110.35796 C 164.9272,165.23804 130.7129,172.6557 58.587989,173.14279 C 51.042988,172.60358 62.073207,168.08453 64.059232,165.5813 C 70.929804,160.1953 76.002342,152.66824 80.123159,145.00236 C 83.024235,138.28036 97.885127,142.76255 97.063431,135.297 C 106.46411,115.81834 112.05859,133.94236 144.684,97.830849 z"
       id="path3285"
       sodipodi:nodetypes="ccccccccccc" />
    <path
       style="fill:#0000ff;fill-opacity:1;stroke:#000000;stroke-width:2.54482412;stroke-miterlimit:4;stroke-dasharray:none;stroke-opacity:1"
       d="M 61.689884,149.99248 C 96.861616,159.29413 156.73817,145.05192 150.98076,117.76845 C 150.83693,113.0435 149.7238,107.75225 145.76255,105.15749 C 114.63537,88.977164 80.805004,126.06602 61.689884,149.99248 z"
       id="path3283"
       sodipodi:nodetypes="cccc" />
    <path
       style="fill:#ffff00;fill-opacity:1;stroke:#000000;stroke-width:2.54482412;stroke-miterlimit:4;stroke-dasharray:none;stroke-opacity:1"
       d="M 184.23149,92.510401 C 180.69527,96.741395 178.22139,101.34435 176.1245,106.45312 C 179.39615,108.3667 186.34515,107.52748 190.935,108.34114 C 191.70582,108.35212 193.28057,108.40524 192.29133,107.29057 C 188.58976,102.74588 187.52232,97.259892 184.23149,92.510401 z"
       id="path3293"
       sodipodi:nodetypes="ccccc" />
    <path
       style="fill:#1a1a1a;fill-opacity:1;stroke:none;stroke-width:3;stroke-miterlimit:4;stroke-dasharray:none;stroke-opacity:1"
       d="M 166.6943,88.892977 C 166.2184,88.772086 164.14171,88.89037 163.27723,89.110686 C 162.88624,89.210335 162.42298,91.139914 162.42298,91.723209 C 162.42298,93.277968 163.01255,93.438805 163.91795,93.900301 C 164.80653,94.35321 165.38819,94.553429 166.48074,94.553429 C 167.6482,94.553429 168.49549,94.023562 169.25709,93.247173 C 169.92169,92.569667 169.24371,91.042777 169.04355,90.634662 C 168.62369,89.778674 167.67133,89.092169 166.6943,88.892977 z"
       id="path3295" />
    <path
       style="fill:#ffffff;fill-opacity:0.28488369;stroke:none;stroke-width:3;stroke-miterlimit:4;stroke-dasharray:none;stroke-opacity:1"
       d="M 131.45579,107.72166 C 123.74418,106.84228 116.30627,110.01269 110.26185,114.67593 C 98.46652,124.02291 84.347839,133.09246 74.584013,144.75637 C 89.91417,138.69576 101.70528,127.89934 115.48483,118.60639 C 121.42108,115.02869 129.42501,114.09456 134.19454,108.91734 C 134.40064,107.41929 132.03956,108.57135 131.45579,107.72166 z"
       id="path3297"
       sodipodi:nodetypes="cccccc" />
    <path
       style="fill:#000000;fill-opacity:0.5;stroke:none;stroke-width:3;stroke-miterlimit:4;stroke-dasharray:none;stroke-opacity:1"
       d="M 146.61906,140.05476 C 136.4732,170.98892 97.606787,167.47268 72.101232,166.96723 C 104.98565,159.13142 119.27118,169.78558 146.61906,140.05476 z"
       id="path3302"
       sodipodi:nodetypes="ccc" />
    <path
       style="fill:#ffffff;fill-opacity:0.26162792;stroke:none;stroke-width:3;stroke-miterlimit:4;stroke-dasharray:none;stroke-opacity:1"
       d="M 174.3827,91.070069 C 170.61271,85.395877 160.99818,81.981464 155.52719,86.687885 C 156.65779,81.691457 160.65839,82.415786 164.7464,81.711825 C 166.749,81.546883 168.76519,82.337496 170.13118,83.832812 C 171.7993,86.046917 173.00332,88.626959 174.3827,91.070069 z"
       id="path3307"
       sodipodi:nodetypes="ccccc" />
    <path
       style="fill:none;fill-opacity:0.26162792;stroke:#000000;stroke-width:2.54482412;stroke-miterlimit:4;stroke-dasharray:none;stroke-opacity:1"
       d="M 127.62158,157.3865 C 130.05198,157.45034 131.98523,159.37977 133.73086,161.0396 C 135.59633,163.38994 135.58573,166.7052 136.14366,169.61371 C 136.65309,173.12853 136.63222,176.69923 136.65499,180.24395 C 137.05942,182.52268 139.11733,183.65806 140.70283,184.83474 C 142.7182,186.16752 140.6821,184.86444 146.13115,188.58158"
       id="path3320"
       sodipodi:nodetypes="cccccc" />
    <path
       style="fill:none;fill-opacity:0.26162792;stroke:#000000;stroke-width:2.54482412;stroke-miterlimit:4;stroke-dasharray:none;stroke-opacity:1"
       d="M 148.26944,183.38749 C 140.98016,182.93606 135.52633,183.93698 136.59277,180.5995 C 141.61277,180.4276 147.74849,179.24027 148.71037,178.66617"
       id="path3322"
       sodipodi:nodetypes="ccc" />
    <path
       style="fill:#000000;fill-opacity:0.42441861;stroke:none;stroke-width:1.79999995;stroke-miterlimit:4;stroke-dasharray:none;stroke-opacity:1"
       d="M 173.04149,101.95428 C 172.75324,103.54894 171.12271,104.38022 169.6861,104.61116 C 168.01664,104.88012 166.31693,104.73658 164.63791,104.90954 C 163.62101,104.96466 162.60094,105.00147 161.58346,104.93956 C 163.61754,104.66975 165.72313,103.9771 167.15118,102.40184 C 168.84244,101.64065 170.52567,100.69738 172.38494,100.48046 C 172.99789,100.60144 173.18936,101.42217 173.04149,101.95428 z"
       id="path4570" />
  </g>
</svg>
