<?xml version="1.0" encoding="UTF-8" standalone="no"?>
<!-- Created with Inkscape (http://www.inkscape.org/) -->
<svg
   xmlns:dc="http://purl.org/dc/elements/1.1/"
   xmlns:cc="http://creativecommons.org/ns#"
   xmlns:rdf="http://www.w3.org/1999/02/22-rdf-syntax-ns#"
   xmlns:svg="http://www.w3.org/2000/svg"
   xmlns="http://www.w3.org/2000/svg"
   xmlns:sodipodi="http://sodipodi.sourceforge.net/DTD/sodipodi-0.dtd"
   xmlns:inkscape="http://www.inkscape.org/namespaces/inkscape"
   width="250"
   height="250"
   id="svg2"
   sodipodi:version="0.32"
   inkscape:version="0.46"
   sodipodi:docname="blackwidow.svg"
   inkscape:output_extension="org.inkscape.output.svg.inkscape"
   inkscape:export-filename="P:\pidgey2\data\images\blackwidow.png"
   inkscape:export-xdpi="92.160004"
   inkscape:export-ydpi="92.160004"
   version="1.0">
  <defs
     id="defs4">
    <inkscape:perspective
       sodipodi:type="inkscape:persp3d"
       inkscape:vp_x="0 : 125 : 1"
       inkscape:vp_y="0 : 1000 : 0"
       inkscape:vp_z="250 : 125 : 1"
       inkscape:persp3d-origin="125 : 83.333333 : 1"
       id="perspective3645" />
  </defs>
  <sodipodi:namedview
     id="base"
     pagecolor="#cb90ff"
     bordercolor="#666666"
     borderopacity="1.0"
     gridtolerance="10000"
     guidetolerance="10"
     objecttolerance="10"
     inkscape:pageopacity="0"
     inkscape:pageshadow="2"
     inkscape:zoom="0.789"
     inkscape:cx="181.47519"
     inkscape:cy="136.63754"
     inkscape:document-units="px"
     inkscape:current-layer="layer1"
     showgrid="false"
     inkscape:window-width="1680"
     inkscape:window-height="994"
     inkscape:window-x="-4"
     inkscape:window-y="-4"
     showguides="true"
     inkscape:guide-bbox="true" />
  <metadata
     id="metadata7">
    <rdf:RDF>
      <cc:Work
         rdf:about="">
        <dc:format>image/svg+xml</dc:format>
        <dc:type
           rdf:resource="http://purl.org/dc/dcmitype/StillImage" />
      </cc:Work>
    </rdf:RDF>
  </metadata>
  <g
     inkscape:label="Layer 1"
     inkscape:groupmode="layer"
     id="layer1">
    <path
       style="opacity:1;fill:#000000;fill-opacity:1;stroke:#000000;stroke-width:1.24403917999999990;stroke-miterlimit:4;stroke-dasharray:none;stroke-opacity:1"
       d="M 146.75669,131.15931 C 149.04655,135.39572 146.92536,144.46913 151.95843,145.60201 C 183.05726,143.31799 218.26329,127.77488 246.52423,114.87478 C 228.4581,132.30568 181.62573,149.77363 148.70243,152.69809 C 145.05996,147.64427 141.3155,143.75585 138.64342,137.99893 C 137.62294,132.93754 142.77201,130.96844 146.75669,131.15931 z"
       id="path3190"
       sodipodi:nodetypes="cccccc" />
    <path
       style="opacity:1;fill:#000000;fill-opacity:1;stroke:#000000;stroke-width:1.24403917999999990;stroke-miterlimit:4;stroke-dasharray:none;stroke-opacity:1"
       d="M 139.94616,137.59666 C 143.56933,143.20733 144.88886,149.68482 147.44906,156.01412 C 189.05892,176.81355 193.94124,180.05478 217.82107,186.44296 C 198.14249,183.42524 157.0362,170.93462 142.01593,159.48408 C 137.59688,148.55563 135.05421,145.289 134.77175,136.26207 C 138.85091,136.53216 135.61761,137.05177 139.94616,137.59666 z"
       id="path3192"
       sodipodi:nodetypes="cccccc" />
    <path
       style="opacity:1;fill:#000000;fill-opacity:1;stroke:#000000;stroke-width:1.24403917999999990;stroke-miterlimit:4;stroke-dasharray:none;stroke-opacity:1"
       d="M 136.14305,139.33558 C 139.23973,147.65879 138.88028,158.29032 140.02627,167.12051 C 129.22281,180.5277 119.67221,196.47354 89.739399,218.4461 C 107.11865,200.37413 121.44761,183.45546 132.26538,167.92885 C 130.44612,159.66344 131.73149,146.15881 131.63005,138.64296 C 135.30686,136.49443 133.03999,135.63999 136.14305,139.33558 z"
       id="path3194"
       sodipodi:nodetypes="cccccc" />
    <path
       style="opacity:1;fill:#000000;fill-opacity:1;stroke:#000000;stroke-width:1.24403917999999990;stroke-miterlimit:4;stroke-dasharray:none;stroke-opacity:1"
       d="M 134.12909,132.53793 C 131.79167,147.59457 129.69982,153.30325 126.34861,169.33807 C 105.62827,185.03259 65.794079,197.89023 41.81082,201.60999 C 68.013379,192.05402 96.282199,179.07386 118.44218,168.03171 C 126.24437,156.87086 122.64428,145.37716 129.97755,133.40915 C 114.42912,132.29999 127.19539,135.00615 134.12909,132.53793 z"
       id="path3196"
       sodipodi:nodetypes="cccccc" />
    <path
       style="opacity:1;fill:#000000;fill-opacity:1;stroke:#000000;stroke-width:1.24403917999999990;stroke-miterlimit:4;stroke-dasharray:none;stroke-opacity:1"
       d="M 144.76876,110.63859 C 147.05862,106.40218 144.93743,97.328769 149.9705,96.195887 C 181.06933,98.479909 216.27536,114.02302 244.5363,126.92312 C 226.47017,109.49221 179.6378,92.024263 146.7145,89.099807 C 143.07203,94.153632 139.32757,98.042049 136.65549,103.79897 C 135.63501,108.86036 140.78408,110.82946 144.76876,110.63859 z"
       id="path3178"
       sodipodi:nodetypes="cccccc" />
    <path
       style="opacity:1;fill:#000000;fill-opacity:1;stroke:#000000;stroke-width:1.24403917999999990;stroke-miterlimit:4;stroke-dasharray:none;stroke-opacity:1"
       d="M 137.95823,104.20123 C 141.5814,98.590569 142.90093,92.113078 145.46113,85.783777 C 187.07099,64.984343 191.95331,61.743118 215.83314,55.354935 C 196.15456,58.372651 155.04827,70.863274 140.028,82.313821 C 135.60895,93.242268 133.06628,96.508899 132.78382,105.53583 C 136.86298,105.26574 133.62968,104.74612 137.95823,104.20123 z"
       id="path3180"
       sodipodi:nodetypes="cccccc" />
    <path
       style="opacity:1;fill:#000000;fill-opacity:1;stroke:#000000;stroke-width:1.24403917999999990;stroke-miterlimit:4;stroke-dasharray:none;stroke-opacity:1"
       d="M 134.15512,102.46232 C 137.2518,94.139105 136.89235,83.507584 138.03834,74.677384 C 127.23488,61.270201 117.68428,45.324356 87.751469,23.351798 C 105.13072,41.423768 119.45968,58.342433 130.27745,73.869053 C 128.45819,82.134456 129.74356,95.639085 129.64212,103.15494 C 133.31893,105.30348 131.05206,106.15791 134.15512,102.46232 z"
       id="path3182"
       sodipodi:nodetypes="cccccc" />
    <path
       style="opacity:1;fill:#000000;fill-opacity:1;stroke:#000000;stroke-width:1.24403917999999990;stroke-miterlimit:4;stroke-dasharray:none;stroke-opacity:1"
       d="M 132.14116,109.25997 C 129.80374,94.203328 127.71189,88.49465 124.36068,72.459828 C 103.64034,56.765302 63.806149,43.907666 39.822888,40.18791 C 66.025449,49.743879 94.294259,62.724033 116.45425,73.766189 C 124.25644,84.927042 120.65635,96.420729 127.98962,108.38875 C 112.44119,109.49791 125.20746,106.79175 132.14116,109.25997 z"
       id="path3184"
       sodipodi:nodetypes="cccccc" />
    <path
       style="opacity:1;fill:#000000;fill-opacity:1;stroke:#000000;stroke-width:1.24403918;stroke-miterlimit:4;stroke-dasharray:none;stroke-opacity:1"
       d="M 141.15168,109.55818 C 137.15366,91.670902 122.70788,78.291087 107.1665,70.672925 C 89.268999,63.208915 69.278379,61.659621 50.315962,64.80868 C 33.966117,68.985259 20.332955,72.109888 13.822438,87.790549 C 5.5965052,103.22853 1.6230292,133.00405 9.0570582,149.74793 C 14.815138,162.11608 27.566877,168.45728 39.071786,173.83921 C 48.121264,177.81485 57.961756,178.92484 67.666379,179.56393 C 107.1795,185.40432 147.21903,152.86535 141.15168,109.55818 z"
       id="path2394"
       sodipodi:nodetypes="cccccccc" />
    <path
       style="opacity:1;fill:#000000;fill-opacity:1;stroke:#000000;stroke-width:1.13410723;stroke-miterlimit:4;stroke-dasharray:none;stroke-opacity:1"
       d="M 150.32139,105.9866 C 154.22969,106.83916 157.59673,110.25181 158.35294,115.26796 C 158.77704,120.2182 160.46044,125.53543 159.14709,130.40207 C 157.48051,134.35098 153.57248,135.23864 150.53856,136.84147 C 144.82634,138.88046 138.22523,140.37146 132.71884,136.77229 C 129.29807,133.01549 131.1154,126.4072 130.34975,121.41174 C 128.80337,103.29516 138.00786,101.36629 150.32139,105.9866 z"
       id="path3174"
       sodipodi:nodetypes="ccccccc" />
    <path
       style="opacity:1;fill:#ffffff;fill-opacity:0.24418604;stroke:#000000;stroke-width:1.24403918;stroke-miterlimit:4;stroke-dasharray:none;stroke-opacity:1"
       d="M 114.15593,81.51306 C 78.787059,66.858785 51.666229,56.542062 20.081682,85.674572 C 4.9464952,97.982569 18.959434,108.29933 48.453482,82.425476 C 60.680767,71.699007 95.893449,81.471362 114.15593,81.51306 z"
       id="path3202"
       sodipodi:nodetypes="ccsc" />
    <path
       style="opacity:1;fill:#333333;fill-opacity:0.24418604;stroke:#000000;stroke-width:1.24403918;stroke-miterlimit:4;stroke-dasharray:none;stroke-opacity:1"
       d="M 127.41139,143.78662 C 115.85768,164.92693 91.121149,171.03352 69.476629,172.01264 C 61.929139,173.56703 50.326696,164.46422 64.609049,164.93491 C 84.263949,163.81444 99.940079,150.7545 115.12904,139.76564 C 118.93839,138.06121 132.49373,135.04438 127.41139,143.78662 z"
       id="path3208" />
    <path
       style="opacity:1;fill:#000000;fill-opacity:1;stroke:#000000;stroke-width:1.24403918;stroke-miterlimit:4;stroke-dasharray:none;stroke-opacity:1"
       d="M 156.3274,109.53963 C 155.5585,103.9126 146.52189,98.181629 142.69809,103.32196 C 141.43118,109.92257 149.89161,111.19034 154.50653,109.87787 C 155.11761,109.79067 155.72513,109.6773 156.3274,109.53963 z"
       id="path3218" />
    <path
       style="opacity:1;fill:#000000;fill-opacity:1;stroke:#000000;stroke-width:1.24403918;stroke-miterlimit:4;stroke-dasharray:none;stroke-opacity:1"
       d="M 158.29025,131.9881 C 157.52136,137.61514 148.48474,143.3461 144.66094,138.20577 C 143.39404,131.60515 151.85446,130.3374 156.46938,131.64985 C 157.08046,131.73707 157.68798,131.85043 158.29025,131.9881 z"
       id="path3245" />
    <path
       style="opacity:1;fill:#ffffff;fill-opacity:0.13953486;stroke:none;stroke-width:1.5;stroke-miterlimit:4;stroke-dasharray:none;stroke-opacity:1"
       d="M 152.7053,106.06967 C 152.52068,104.84091 151.49423,103.97688 150.37682,103.40048 C 149.08577,102.73449 147.46794,103.29949 146.75473,103.66739 C 144.33375,104.91625 146.73609,105.00199 148.56578,105.00199 C 149.48319,105.00199 150.5366,106.01863 151.15298,106.33659 C 152.06627,106.80771 150.05643,107.1628 152.7053,106.06967 z"
       id="path3247" />
    <path
       style="opacity:1;fill:#ffffff;fill-opacity:0.13953486;stroke:none;stroke-width:1.5;stroke-miterlimit:4;stroke-dasharray:none;stroke-opacity:1"
       d="M 148.12271,134.79467 C 148.51513,133.61898 149.67354,132.95592 150.87218,132.59255 C 152.25706,132.1727 153.75249,133.02407 154.39136,133.51634 C 156.56001,135.18737 154.18086,134.83329 152.38003,134.49935 C 151.47708,134.33191 150.26596,135.14025 149.60478,135.34069 C 148.62512,135.63769 150.54237,136.35402 148.12271,134.79467 z"
       id="path3249" />
    <path
       style="opacity:1;fill:#550000;fill-opacity:1;stroke:none;stroke-width:1.5;stroke-miterlimit:4;stroke-dasharray:none;stroke-opacity:1"
       d="M 85.947609,104.13189 C 80.152309,108.68745 78.223279,117.26613 79.891459,124.32766 C 82.595109,129.33295 85.838369,136.88012 92.279589,136.69399 C 99.606769,135.73992 104.8493,127.02025 102.17809,119.82789 C 99.705979,114.24182 101.35302,106.47176 95.664839,102.73854 C 92.664549,100.40833 88.415779,101.53089 85.947609,104.13189 z"
       id="path3253" />
    <path
       style="opacity:1;fill:#550000;fill-opacity:1;stroke:none;stroke-width:1.5;stroke-miterlimit:4;stroke-dasharray:none;stroke-opacity:1"
       d="M 47.648193,109.81329 C 44.584035,112.37756 44.713843,116.77442 43.528319,120.31901 C 42.33183,123.27811 43.809157,126.55891 45.739769,128.79131 C 47.140685,130.27656 48.521575,131.85441 50.216153,132.98363 C 52.129718,134.07317 54.646571,133.13881 55.525267,131.08272 C 57.061113,128.06011 56.594593,124.56643 56.383263,121.30964 C 56.405677,117.77219 57.423689,113.8174 55.34647,110.66365 C 53.883263,108.27329 50.802015,107.97469 48.611286,109.42985 C 48.294125,109.5676 47.974716,109.70069 47.648193,109.81329 z"
       id="path3255" />
  </g>
</svg>
