<?xml version="1.0" encoding="UTF-8" standalone="no"?>
<!-- Created with Inkscape (http://www.inkscape.org/) -->
<svg
   xmlns:dc="http://purl.org/dc/elements/1.1/"
   xmlns:cc="http://creativecommons.org/ns#"
   xmlns:rdf="http://www.w3.org/1999/02/22-rdf-syntax-ns#"
   xmlns:svg="http://www.w3.org/2000/svg"
   xmlns="http://www.w3.org/2000/svg"
   xmlns:sodipodi="http://sodipodi.sourceforge.net/DTD/sodipodi-0.dtd"
   xmlns:inkscape="http://www.inkscape.org/namespaces/inkscape"
   width="250"
   height="250"
   id="svg2"
   sodipodi:version="0.32"
   inkscape:version="0.46"
   sodipodi:docname="butterfly.svg"
   inkscape:output_extension="org.inkscape.output.svg.inkscape"
   inkscape:export-filename="P:\pidgey\data\images\drawing.png"
   inkscape:export-xdpi="90"
   inkscape:export-ydpi="90"
   version="1.0">
  <defs
     id="defs4">
    <inkscape:perspective
       sodipodi:type="inkscape:persp3d"
       inkscape:vp_x="0 : 125 : 1"
       inkscape:vp_y="0 : 1000 : 0"
       inkscape:vp_z="250 : 125 : 1"
       inkscape:persp3d-origin="125 : 83.333333 : 1"
       id="perspective3645" />
  </defs>
  <sodipodi:namedview
     id="base"
     pagecolor="#cb90ff"
     bordercolor="#666666"
     borderopacity="1.0"
     gridtolerance="10000"
     guidetolerance="10"
     objecttolerance="10"
     inkscape:pageopacity="1"
     inkscape:pageshadow="2"
     inkscape:zoom="1.69"
     inkscape:cx="81.139816"
     inkscape:cy="97.768444"
     inkscape:document-units="px"
     inkscape:current-layer="layer1"
     showgrid="false"
     inkscape:window-width="1680"
     inkscape:window-height="1028"
     inkscape:window-x="80"
     inkscape:window-y="14" />
  <metadata
     id="metadata7">
    <rdf:RDF>
      <cc:Work
         rdf:about="">
        <dc:format>image/svg+xml</dc:format>
        <dc:type
           rdf:resource="http://purl.org/dc/dcmitype/StillImage" />
      </cc:Work>
    </rdf:RDF>
  </metadata>
  <g
     inkscape:label="Layer 1"
     inkscape:groupmode="layer"
     id="layer1">
    <path
       style="fill:#000000;fill-rule:evenodd;stroke:#000000;stroke-width:1.62541032;stroke-linecap:butt;stroke-linejoin:miter;stroke-miterlimit:4;stroke-dasharray:none;stroke-opacity:1"
       d="M 112.58048,103.42168 C 108.2711,95.714538 98.479623,93.932228 90.890907,90.256368 C 81.453226,85.394758 70.907911,82.678228 60.236028,81.639758 C 52.071954,80.388408 43.700429,80.117638 35.483035,80.770978 C 29.710379,82.315148 27.036182,87.977018 24.637554,92.616908 C 21.049276,100.6453 22.713979,109.47726 22.933474,117.89246 C 23.463889,125.07458 24.116519,132.93767 29.673065,138.45571 C 34.227606,143.61293 41.472547,145.94681 48.473225,145.54999 C 55.016549,145.31112 61.54044,144.62539 68.094152,144.79354 C 80.41417,144.16381 92.809199,141.71865 103.91523,136.57466 C 108.08293,134.47709 110.95153,130.63023 111.95542,126.32544 C 114.05275,119.95056 115.7926,113.15067 114.72107,106.46462 C 114.36966,105.27774 113.67993,104.13239 112.58048,103.42168 z"
       id="path3657" />
    <path
       style="fill:#000000;fill-rule:evenodd;stroke:#000000;stroke-width:1.62541032;stroke-linecap:butt;stroke-linejoin:miter;stroke-miterlimit:4;stroke-dasharray:none;stroke-opacity:1"
       d="M 139.18061,106.64645 C 143.48998,98.939318 153.28147,97.157008 160.87018,93.481138 C 170.30786,88.619538 180.85318,85.903018 191.52506,84.864538 C 199.68914,83.613188 208.06066,83.342428 216.27805,83.995768 C 222.05071,85.539928 224.72491,91.201798 227.12354,95.841688 C 230.71182,103.87007 229.04711,112.70203 228.82762,121.11724 C 228.2972,128.29935 227.64457,136.16245 222.08803,141.68049 C 217.53348,146.8377 210.28854,149.17159 203.28787,148.77476 C 196.74454,148.5359 190.22065,147.85016 183.66694,148.01832 C 171.34692,147.38859 158.95189,144.94343 147.84586,139.79943 C 143.67816,137.70186 140.80956,133.855 139.80567,129.55022 C 137.70834,123.17534 135.96849,116.37545 137.04003,109.6894 C 137.39143,108.50251 138.08115,107.35717 139.18061,106.64645 z"
       id="path3668" />
    <path
       style="fill:#000000;fill-rule:evenodd;stroke:#000000;stroke-width:1.62541032;stroke-linecap:butt;stroke-linejoin:miter;stroke-miterlimit:4;stroke-dasharray:none;stroke-opacity:1"
       d="M 53.517624,143.958 C 48.32617,146.61717 43.169221,149.6274 39.526002,154.09619 C 35.176137,158.10602 32.077545,163.12138 30.088848,168.50543 C 26.382435,176.43618 24.801294,185.69698 28.066772,193.99594 C 30.681726,200.31679 37.521448,203.9324 43.864237,206.39017 C 51.716308,209.23306 60.291514,208.24973 68.458607,207.5362 C 77.119055,206.38273 86.431741,204.34314 92.438165,197.87712 C 97.949566,192.21217 101.54741,185.19758 105.0996,178.37243 C 108.15238,170.08065 108.13051,161.16103 108.57123,152.48988 C 108.59429,148.17972 109.15298,143.23956 105.62396,139.87994 C 102.49145,136.32485 97.329598,135.42002 92.66813,135.93086 C 85.538018,136.35715 78.448401,137.28025 71.346372,137.96626 C 65.067743,138.95418 59.259684,141.49874 53.517624,143.958 z"
       id="path3670" />
    <path
       style="fill:#000000;fill-rule:evenodd;stroke:#000000;stroke-width:1.62541032;stroke-linecap:butt;stroke-linejoin:miter;stroke-miterlimit:4;stroke-dasharray:none;stroke-opacity:1"
       d="M 200.47099,146.15343 C 205.66245,148.8126 210.8194,151.82282 214.46262,156.29161 C 218.81248,160.30144 221.91108,165.3168 223.89977,170.70085 C 227.60619,178.63161 229.18733,187.89241 225.92184,196.19137 C 223.30689,202.51222 216.46718,206.12784 210.12438,208.5856 C 202.27231,211.4285 193.6971,210.44516 185.53001,209.73163 C 176.86956,208.57817 167.55688,206.53857 161.55046,200.07256 C 156.03906,194.4076 152.44121,187.39302 148.88902,180.56785 C 145.83624,172.27608 145.85811,163.35646 145.41738,154.6853 C 145.39433,150.37514 144.83564,145.43498 148.36466,142.07537 C 151.49717,138.52028 156.65902,137.61544 161.32049,138.12628 C 168.4506,138.55258 175.54022,139.47567 182.64225,140.16168 C 188.92088,141.14961 194.72894,143.69416 200.47099,146.15343 z"
       id="path3676" />
    <path
       style="fill:#ffffff;fill-rule:evenodd;stroke:#000000;stroke-width:1.62541032;stroke-linecap:butt;stroke-linejoin:miter;stroke-miterlimit:4;stroke-dasharray:none;stroke-opacity:1"
       d="M 104.1937,149.92813 C 103.12118,157.29192 103.4321,164.78619 104.10502,172.18114 C 105.5682,182.46764 109.11368,192.61209 114.80484,201.70598 C 117.00496,204.47643 122.22205,208.6908 126.4587,208.45804 C 131.54864,207.83361 134.28486,202.82625 137.23706,199.51893 C 150.17149,183.79947 152.1811,152.17777 143.62378,137.94222 C 127.03411,125.48278 108.90106,130.06883 104.1937,149.92813 z"
       id="path3655"
       sodipodi:nodetypes="ccccccc" />
    <path
       style="fill:#ffffff;fill-rule:evenodd;stroke:#000000;stroke-width:1.64103866;stroke-linecap:butt;stroke-linejoin:miter;stroke-miterlimit:4;stroke-dasharray:none;stroke-opacity:1"
       d="M 129.19679,97.325928 C 118.17261,96.478978 111.76014,103.70787 109.12922,113.32259 C 108.45891,119.25202 107.85224,124.67829 110.37422,130.1773 C 111.73561,132.93181 114.55571,134.8302 117.68354,135.60888 C 123.37216,137.22231 129.47695,136.84917 135.2759,136.00576 C 139.43479,135.38471 142.12966,131.84814 143.09203,128.30646 C 144.24179,123.75479 145.91954,118.04549 144.63916,113.36143 C 143.32592,108.70798 140.86473,105.35107 138.401,101.14522 C 136.47764,98.700228 133.11018,97.451888 129.91448,97.284618 C 129.67471,97.287428 129.43505,97.300918 129.19679,97.325928 z"
       id="path3653"
       sodipodi:nodetypes="cccccccccc" />
    <g
       id="g3688"
       transform="matrix(0.8387919,0,0,0.7874297,37.138848,13.263306)">
      <path
         sodipodi:nodetypes="ccccccccccccccc"
         id="path3488"
         d="M 99.826756,75.074377 C 98.278934,54.643406 102.77586,36.968538 81.134779,38.520377 C 76.515231,44.17746 66.430546,33.636993 75.103975,31.782699 C 80.970658,31.927105 80.91912,35.476031 87.093107,34.872851 C 110.40354,36.24565 99.660504,75.35173 105.03446,80.789752 C 112.97368,82.964691 112.76527,77.189486 112.83494,71.595204 C 110.28236,50.507008 115.93737,32.955317 139.93373,35.538788 C 143.68306,34.928531 151.04099,33.222527 150.5512,41.142804 C 147.72523,48.494089 143.34267,38.263226 137.88004,38.112611 C 114.06191,37.610606 113.52314,63.721188 116.78455,78.422589 C 117.87331,82.701847 121.22417,86.365175 125.18525,88.35943 C 131.97284,95.100655 128.26481,108.8193 118.54514,110.40505 C 111.96689,112.05018 104.99424,111.37417 98.443257,110.03047 C 89.769765,106.59694 84.556709,96.187429 88.484802,87.635501 C 92.115504,81.563347 100.60461,82.214838 99.826756,75.074377 z"
         style="fill:#ffffff;fill-rule:evenodd;stroke:#000000;stroke-width:2;stroke-linecap:butt;stroke-linejoin:miter;stroke-miterlimit:4;stroke-dasharray:none;stroke-opacity:1" />
      <path
         id="path3516"
         d="M 114.78712,89.266428 C 113.01268,93.330332 112.59039,98.347664 114.99221,102.25448 C 117.12582,105.6955 120.8629,108.19622 124.93496,108.52109 C 129.42667,107.98347 132.95319,103.9978 133.70759,99.656501 C 135.03357,94.294032 133.61979,87.996883 129.21525,84.420077 C 126.54728,82.187412 122.38583,81.425371 119.38281,83.444107 C 117.23224,84.778713 115.73521,86.958224 114.78712,89.266428 z"
         style="fill:#000000;fill-rule:evenodd;stroke:#000000;stroke-width:1px;stroke-linecap:butt;stroke-linejoin:miter;stroke-opacity:1" />
      <path
         id="path3642"
         d="M 81.565712,89.43174 C 79.757705,93.548265 79.367776,98.65884 81.871984,102.58039 C 84.019153,105.93873 87.706021,108.36536 91.713552,108.6864 C 96.20137,108.14223 99.738038,104.16689 100.48618,99.821814 C 101.83645,94.408192 100.35703,88.041012 95.867697,84.481816 C 93.148827,82.266736 88.922366,81.615551 85.961698,83.736993 C 83.915124,85.083101 82.485256,87.194681 81.565712,89.43174 z"
         style="fill:#000000;fill-rule:evenodd;stroke:#000000;stroke-width:1px;stroke-linecap:butt;stroke-linejoin:miter;stroke-opacity:1" />
      <path
         sodipodi:nodetypes="cccccc"
         id="path3644"
         d="M 97.205346,89.649178 C 97.637475,91.560421 97.713379,93.53377 97.629683,95.485727 C 98.168422,96.010058 96.724233,96.254954 97.045504,95.558893 C 96.695877,94.429239 96.368652,93.104892 95.259848,92.477234 C 92.869775,91.304974 91.559613,89.299721 90.601852,86.917729 C 92.270167,82.284309 96.2295,86.638266 97.205346,89.649178 z"
         style="fill:#ffffff;fill-rule:evenodd;stroke:#000000;stroke-width:1px;stroke-linecap:butt;stroke-linejoin:miter;stroke-opacity:1" />
      <path
         sodipodi:nodetypes="cccccc"
         id="path3646"
         d="M 125.41965,85.875504 C 126.72135,85.532975 128.01325,86.141835 129.1564,86.705793 C 131.59352,89.794364 131.33316,93.74386 131.33461,97.456472 C 130.59041,96.494676 130.23327,95.079312 129.63278,93.928428 C 126.99966,92.566924 125.49603,90.607311 124.31166,87.962313 C 124.21397,87.109069 124.98825,86.514348 125.41965,85.875504 z"
         style="fill:#ffffff;fill-rule:evenodd;stroke:#000000;stroke-width:1px;stroke-linecap:butt;stroke-linejoin:miter;stroke-opacity:1" />
    </g>
  </g>
</svg>
