<?xml version="1.0" encoding="UTF-8" standalone="no"?>
<!-- Created with Inkscape (http://www.inkscape.org/) -->
<svg
   xmlns:dc="http://purl.org/dc/elements/1.1/"
   xmlns:cc="http://creativecommons.org/ns#"
   xmlns:rdf="http://www.w3.org/1999/02/22-rdf-syntax-ns#"
   xmlns:svg="http://www.w3.org/2000/svg"
   xmlns="http://www.w3.org/2000/svg"
   xmlns:sodipodi="http://sodipodi.sourceforge.net/DTD/sodipodi-0.dtd"
   xmlns:inkscape="http://www.inkscape.org/namespaces/inkscape"
   width="250"
   height="250"
   id="svg2"
   sodipodi:version="0.32"
   inkscape:version="0.46"
   sodipodi:docname="butterflylevelspecialaward.svg"
   inkscape:output_extension="org.inkscape.output.svg.inkscape"
   inkscape:export-filename="P:\pidgey2\data\images\roselevelspecialaward.png"
   inkscape:export-xdpi="92.160004"
   inkscape:export-ydpi="92.160004"
   version="1.0">
  <defs
     id="defs4">
    <inkscape:perspective
       sodipodi:type="inkscape:persp3d"
       inkscape:vp_x="0 : 125 : 1"
       inkscape:vp_y="0 : 1000 : 0"
       inkscape:vp_z="250 : 125 : 1"
       inkscape:persp3d-origin="125 : 83.333333 : 1"
       id="perspective3645" />
  </defs>
  <sodipodi:namedview
     id="base"
     pagecolor="#cb90ff"
     bordercolor="#666666"
     borderopacity="1.0"
     gridtolerance="10000"
     guidetolerance="10"
     objecttolerance="10"
     inkscape:pageopacity="0"
     inkscape:pageshadow="2"
     inkscape:zoom="3.4223968"
     inkscape:cx="161.27821"
     inkscape:cy="146.57948"
     inkscape:document-units="px"
     inkscape:current-layer="layer1"
     showgrid="false"
     inkscape:window-width="1680"
     inkscape:window-height="994"
     inkscape:window-x="0"
     inkscape:window-y="22" />
  <metadata
     id="metadata7">
    <rdf:RDF>
      <cc:Work
         rdf:about="">
        <dc:format>image/svg+xml</dc:format>
        <dc:type
           rdf:resource="http://purl.org/dc/dcmitype/StillImage" />
      </cc:Work>
    </rdf:RDF>
  </metadata>
  <g
     inkscape:label="Layer 1"
     inkscape:groupmode="layer"
     id="layer1">
    <path
       style="opacity:1;fill:#ff0066;fill-opacity:1;stroke:#000000;stroke-width:2.76934791000000000;stroke-miterlimit:4;stroke-dasharray:none;stroke-opacity:1"
       d="M 110.32054,143.90266 C 111.21622,185.94952 106.76804,209.48235 97.026599,243.25409 C 105.96333,232.94495 116.95827,236.20503 126.74471,226.71377 C 139.34038,242.80673 154.69164,240.03576 157.5315,245.56653 C 153.93144,234.37238 144.04575,175.65873 147.78908,142.10284 C 142.75582,143.52354 115.17188,141.97228 110.32054,143.90266 z"
       id="path3306"
       sodipodi:nodetypes="cccccc"
       inkscape:transform-center-x="4.4505107"
       inkscape:transform-center-y="7.6872443" />
    <path
       style="opacity:1;fill:#ff0066;fill-opacity:1;stroke:#000000;stroke-width:2.76934791000000000;stroke-miterlimit:4;stroke-dasharray:none;stroke-opacity:1"
       d="M 78.757217,130.76525 C 63.597743,169.99446 50.535566,190.06832 28.684476,217.59933 C 40.869898,211.46263 53.088881,216.54617 65.749197,211.48901 C 71.279593,231.16257 83.241926,236.54927 83.765464,242.74444 C 84.692268,231.02222 97.874351,172.95972 114.09579,143.34765 C 108.90038,142.74779 83.978164,130.82455 78.757217,130.76525 z"
       id="path3304"
       sodipodi:nodetypes="cccccc" />
    <path
       style="opacity:1;fill:#ff0066;fill-opacity:1;stroke:#000000;stroke-width:2.76934791000000000;stroke-miterlimit:4;stroke-dasharray:none;stroke-opacity:1"
       d="M 176.84239,129.65139 C 192.00186,168.8806 205.06404,188.95446 226.91513,216.48546 C 214.72971,210.34876 204.93828,218.26445 192.27797,213.20729 C 186.74757,232.88085 172.35768,235.43539 171.83415,241.63056 C 170.90734,229.90834 157.72526,171.84586 141.50382,142.23378 C 146.69923,141.63392 171.62144,129.71067 176.84239,129.65139 z"
       id="path3274"
       sodipodi:nodetypes="cccccc" />
    <path
       style="fill:#ff5599;fill-opacity:1;stroke:#000000;stroke-width:2.76934791000000000;stroke-miterlimit:4;stroke-dasharray:none;stroke-opacity:1"
       d="M 87.897629,67.289325 C 85.498897,63.426136 83.291944,59.267772 80.017598,56.173264 C 73.62588,51.643923 65.579973,51.242693 58.977201,47.144466 C 55.874325,45.316075 52.450357,41.999844 53.022251,37.843392 C 54.073219,33.434345 58.198337,31.219221 60.982232,28.190913 C 67.640965,23.094604 74.150939,17.720424 81.319586,13.453482 C 83.888043,11.134896 87.250834,8.6007525 90.726939,10.354445 C 97.193488,11.78368 103.48212,19.131511 105.67653,24.904847 C 109.13377,31.881201 113.26191,36.924747 114.14534,45.231211 C 114.85563,52.559277 110.55022,60.201655 103.83999,62.320172 C 100.21617,63.141406 91.265714,67.994844 87.897629,67.289325 z"
       id="path3173"
       sodipodi:nodetypes="ccccccccccc" />
    <path
       style="fill:#ff0066;fill-opacity:1;stroke:#000000;stroke-width:2.76934791000000000;stroke-miterlimit:4;stroke-dasharray:none;stroke-opacity:1"
       d="M 95.036651,50.440805 C 92.010588,47.319403 88.594734,44.540393 86.245634,40.753257 C 84.97184,39.236991 83.514574,37.695587 83.107508,35.624218 C 82.242884,34.336517 83.128614,31.908429 84.773898,32.265542 C 86.224999,32.520046 87.733663,32.709605 89.072755,33.440515 C 90.313793,34.12815 91.507518,34.922229 92.639689,35.798631 C 94.430915,37.271334 95.275156,39.594573 96.266907,41.684029 C 101.55688,56.400946 111.74678,69.474327 95.036651,50.440805 z"
       id="path3175"
       sodipodi:nodetypes="cccccccc" />
    <path
       style="fill:#ff5599;fill-opacity:1;stroke:#000000;stroke-width:2.76934791000000000;stroke-miterlimit:4;stroke-dasharray:none;stroke-opacity:1"
       d="M 115.35075,53.59584 C 115.69649,48.971893 116.36344,44.242863 115.577,39.643593 C 113.16901,31.85344 107.07673,26.213173 104.25386,18.622189 C 102.87098,15.131561 102.09501,10.258998 104.94498,7.3705536 C 108.3174,4.6006317 112.839,5.589631 116.77606,5.0518349 C 124.95303,5.4530392 133.17356,5.5373823 141.27237,6.9279348 C 144.63021,6.8053923 148.73686,7.0391207 150.45625,10.718049 C 154.71347,16.121075 155.41267,26.058316 153.80317,32.048394 C 152.49148,39.819805 152.82334,46.516042 148.72047,53.629514 C 145.04655,59.859376 137.24883,63.016835 130.75114,60.241034 C 127.42857,58.488216 117.59058,56.37942 115.35075,53.59584 z"
       id="path3192"
       sodipodi:nodetypes="ccccccccccc" />
    <path
       style="fill:#ff0066;fill-opacity:1;stroke:#000000;stroke-width:2.76934791000000000;stroke-miterlimit:4;stroke-dasharray:none;stroke-opacity:1"
       d="M 129.10559,43.741567 C 128.52983,39.285479 127.44997,34.840539 127.7908,30.309222 C 127.6653,28.27443 127.41011,26.09846 128.28644,24.200984 C 128.35054,22.616639 130.44901,21.29438 131.53594,22.663937 C 132.52951,23.82434 133.60584,24.971788 134.23622,26.432509 C 134.81453,27.794318 135.29419,29.208482 135.67791,30.646611 C 136.23527,32.989606 135.55709,35.374379 135.12988,37.67303 C 130.78826,52.741373 131.24713,69.760754 129.10559,43.741567 z"
       id="path3194"
       sodipodi:nodetypes="cccccccc" />
    <path
       style="fill:#ff5599;fill-opacity:1;stroke:#000000;stroke-width:2.76934791000000000;stroke-miterlimit:4;stroke-dasharray:none;stroke-opacity:1"
       d="M 147.93251,59.83029 C 150.40724,56.022422 150.28883,51.403901 151.77393,47.006786 C 153.35994,38.978794 153.67161,31.714157 154.80552,23.634482 C 155.25365,19.873396 156.87639,15.245842 160.69763,14.287665 C 164.91438,13.713614 168.35485,17.006386 172.0089,18.665025 C 178.88364,23.421339 185.94511,27.927423 192.28671,33.496203 C 195.24499,35.201185 198.68248,37.61776 198.43638,41.722976 C 199.57121,48.686155 195.49867,57.647341 191.28936,61.953787 C 186.49899,67.959606 183.63437,73.923006 176.74252,77.855234 C 170.63706,81.2555 162.4152,79.777808 158.10861,73.875861 C 156.06335,70.569897 148.55738,63.442745 147.93251,59.83029 z"
       id="path3196"
       sodipodi:nodetypes="ccccccccccc"
       inkscape:transform-center-x="-6.4296171"
       inkscape:transform-center-y="3.7300059" />
    <path
       style="fill:#ff0066;fill-opacity:1;stroke:#000000;stroke-width:2.76934791000000000;stroke-miterlimit:4;stroke-dasharray:none;stroke-opacity:1"
       d="M 164.45188,58.735649 C 166.0516,54.575838 167.2106,50.153796 169.63749,46.423298 C 170.48667,44.597897 171.29025,42.580599 172.94022,41.41409 C 173.7412,40.080051 176.17619,40.06952 176.47059,41.838756 C 176.78279,43.376971 177.17254,44.94862 177.02967,46.550397 C 176.88836,48.038649 176.63719,49.518924 176.29186,50.968165 C 175.67069,53.292695 173.96255,54.987005 172.51176,56.742267 C 161.67005,67.417419 154.057,82.366792 164.45188,58.735649 z"
       id="path3198"
       sodipodi:nodetypes="cccccccc"
       inkscape:transform-center-x="-2.3778743"
       inkscape:transform-center-y="10.528354" />
    <path
       style="fill:#ff5599;fill-opacity:1;stroke:#000000;stroke-width:2.76934791000000000;stroke-miterlimit:4;stroke-dasharray:none;stroke-opacity:1"
       d="M 82.582124,91.573032 C 78.264102,91.183808 73.84925,90.450309 69.549598,91.273146 C 62.262488,93.818635 56.968458,100.31697 49.865686,103.30739 C 46.599207,104.7733 42.044304,105.5838 39.357853,102.52102 C 36.784279,98.899481 37.726848,94.063309 37.240743,89.846556 C 37.649338,81.094958 37.762118,72.295428 39.094584,63.631611 C 38.993996,60.036624 39.229309,55.641495 42.673084,53.816165 C 47.737908,49.281242 57.023649,48.573852 62.612611,50.321547 C 69.866834,51.75782 76.123481,51.430256 82.751555,55.851697 C 88.555971,59.810286 91.473264,68.170614 88.853389,75.114748 C 87.202261,78.664239 85.191658,89.186862 82.582124,91.573032 z"
       id="path3200"
       sodipodi:nodetypes="ccccccccccc"
       inkscape:transform-center-x="-3.2987788"
       inkscape:transform-center-y="-5.544981" />
    <path
       style="fill:#ff0066;fill-opacity:1;stroke:#000000;stroke-width:2.76934791000000000;stroke-miterlimit:4;stroke-dasharray:none;stroke-opacity:1"
       d="M 73.433647,78.96938 C 69.268622,79.567279 65.111926,80.704869 60.880419,80.321291 C 58.979105,80.447226 56.945367,80.711397 55.176471,79.765468 C 53.696724,79.690296 52.470212,77.438459 53.754076,76.28059 C 54.842171,75.22179 55.918509,74.074363 57.285642,73.405588 C 58.560163,72.792147 59.883185,72.284534 61.228202,71.879723 C 63.419208,71.292774 65.644134,72.028614 67.789645,72.495431 C 81.847755,77.205339 97.748274,76.784487 73.433647,78.96938 z"
       id="path3202"
       sodipodi:nodetypes="cccccccc"
       inkscape:transform-center-x="-8.2443511"
       inkscape:transform-center-y="-7.9226318" />
    <path
       style="fill:#ff5599;fill-opacity:1;stroke:#000000;stroke-width:2.76934791000000000;stroke-miterlimit:4;stroke-dasharray:none;stroke-opacity:1"
       d="M 169.27768,112.25579 C 172.47037,115.39221 176.79427,117.07814 180.66528,119.24389 C 188.74314,120.16442 194.68402,121.79789 201.86128,124.40632 C 205.28276,125.38666 209.3486,127.72936 209.72254,131.91154 C 209.68778,136.46171 206.17774,139.66926 204.15176,143.32275 C 198.82585,149.97685 193.70648,156.86261 187.70005,162.84207 C 185.72457,165.75127 183.02604,169.07327 179.25889,168.26107 C 172.66073,168.53 164.91216,163.00673 161.49084,157.96333 C 156.57442,152.07538 151.43871,148.23597 148.72398,140.3972 C 146.39607,133.46404 148.86785,124.94076 154.90949,121.16474 C 158.24441,119.43901 165.84974,112.43362 169.27768,112.25579 z"
       id="path3204"
       sodipodi:nodetypes="ccccccccccc" />
    <path
       style="fill:#ff0066;fill-opacity:1;stroke:#000000;stroke-width:2.76934791000000000;stroke-miterlimit:4;stroke-dasharray:none;stroke-opacity:1"
       d="M 168.07308,129.92639 C 171.70903,132.18187 175.6469,134.00504 178.77438,137.08031 C 180.35014,138.22619 182.10965,139.34948 182.96795,141.25638 C 184.09534,142.28515 183.77817,144.86959 182.10085,144.94435 C 180.63503,145.06899 179.12781,145.27144 177.66424,144.90482 C 176.30553,144.5551 174.96898,144.08992 173.67377,143.52902 C 171.60536,142.55801 170.26628,140.51856 168.83622,138.74389 C 160.40989,125.80983 147.59341,115.72684 168.07308,129.92639 z"
       id="path3206"
       sodipodi:nodetypes="cccccccc" />
    <path
       style="fill:#ff5599;fill-opacity:1;stroke:#000000;stroke-width:2.76934791000000000;stroke-miterlimit:4;stroke-dasharray:none;stroke-opacity:1"
       d="M 147.22677,132.51375 C 147.92481,137.09191 148.33445,141.85438 150.12624,146.11854 C 154.20583,153.06542 161.38201,156.98104 165.81987,163.62827 C 167.94293,166.66319 169.78566,171.19538 167.66423,174.73001 C 165.00906,178.28341 160.39775,178.48151 156.69533,180.0123 C 148.66625,181.71755 140.66575,183.74164 132.49143,184.46629 C 129.25856,185.44549 125.21898,186.27062 122.7271,183.13907 C 117.38569,178.98368 114.48526,169.51433 114.70886,163.28598 C 114.24507,155.40436 112.42584,148.98773 114.81921,141.02986 C 116.99364,134.03983 123.85888,128.97646 130.78829,130.007 C 134.40618,130.8577 144.42974,130.38486 147.22677,132.51375 z"
       id="path3208"
       sodipodi:nodetypes="ccccccccccc" />
    <path
       style="fill:#ff0066;fill-opacity:1;stroke:#000000;stroke-width:2.76934791000000000;stroke-miterlimit:4;stroke-dasharray:none;stroke-opacity:1"
       d="M 136.07464,145.60546 C 137.62986,149.78455 139.67206,153.82369 140.35415,158.31065 C 140.9309,160.25416 141.66513,162.30153 141.23846,164.36836 C 141.53042,165.9231 139.78852,167.74453 138.427,166.69322 C 137.20288,165.82108 135.90132,164.98271 134.96269,163.72593 C 134.09674,162.55185 133.31486,161.30165 132.62079,160.00362 C 131.55583,157.8715 131.68117,155.38227 131.58208,153.04098 C 132.42888,137.29824 128.17851,120.89097 136.07464,145.60546 z"
       id="path3210"
       sodipodi:nodetypes="cccccccc" />
    <path
       style="fill:#ff5599;fill-opacity:1;stroke:#000000;stroke-width:2.76934791000000000;stroke-miterlimit:4;stroke-dasharray:none;stroke-opacity:1"
       d="M 115.09937,137.84169 C 113.54785,142.17288 111.66047,146.50779 111.20152,151.15759 C 111.45633,159.35862 115.81266,166.61108 116.51798,174.74646 C 116.9237,178.51307 116.38263,183.42186 112.88664,185.33114 C 108.92076,186.96878 104.84413,184.65309 100.92545,183.97876 C 93.187176,181.12186 85.323526,178.55575 77.921251,174.77342 C 74.667773,173.87585 70.789928,172.41011 70.111105,168.36116 C 67.452571,161.89104 69.403422,152.14693 72.527674,146.88725 C 75.83619,139.82872 77.284401,133.30475 83.096906,127.72121 C 88.26479,122.85561 96.578075,122.18405 102.07897,126.81121 C 104.80388,129.49716 113.68507,134.49428 115.09937,137.84169 z"
       id="path3212"
       sodipodi:nodetypes="ccccccccccc"
       inkscape:transform-center-x="7.6387536"
       inkscape:transform-center-y="-3.6444301" />
    <path
       style="fill:#ff0066;fill-opacity:1;stroke:#000000;stroke-width:2.76934791000000000;stroke-miterlimit:4;stroke-dasharray:none;stroke-opacity:1"
       d="M 99.304744,143.13653 C 98.681469,147.58529 98.544738,152.17576 97.022355,156.41958 C 96.605949,158.40948 96.276687,160.57403 94.935458,162.12934 C 94.45599,163.62981 92.094098,164.26384 91.412724,162.62144 C 90.765725,161.20789 90.035936,159.78177 89.816568,158.18993 C 89.62106,156.70873 89.534006,155.20712 89.545312,153.71152 C 89.62876,151.2954 90.908475,149.21274 91.92471,147.1368 C 100.06485,133.99437 104.11462,117.52906 99.304744,143.13653 z"
       id="path3214"
       sodipodi:nodetypes="cccccccc"
       inkscape:transform-center-x="5.4401982"
       inkscape:transform-center-y="-9.8402252" />
    <path
       style="fill:#ff5599;fill-opacity:1;stroke:#000000;stroke-width:2.76934791000000000;stroke-miterlimit:4;stroke-dasharray:none;stroke-opacity:1"
       d="M 168.81844,82.467479 C 173.09801,81.739181 176.2971,77.301367 180.28786,75.400944 C 186.79415,71.062569 191.73302,67.415803 197.96087,62.692659 C 200.80472,60.432518 205.04606,58.478657 208.33916,60.764215 C 211.64759,63.621225 211.81357,68.558328 213.22824,72.528025 C 214.78802,81.129982 216.64573,89.702708 217.28885,98.45613 C 218.1902,101.92088 218.94431,106.24857 216.00868,108.9031 C 212.10485,114.60377 203.24707,117.66948 197.4298,117.40437 C 191.13645,119.01492 185.21668,121.02342 176.63975,117.1942 C 170.11902,114.83765 165.41748,107.46763 166.4088,100.05411 C 167.21843,96.184771 166.81817,85.452827 168.81844,82.467479 z"
       id="path3216"
       sodipodi:nodetypes="ccccccccccc"
       inkscape:transform-center-x="0.5660728"
       inkscape:transform-center-y="4.2188502" />
    <path
       style="fill:#ff0066;fill-opacity:1;stroke:#000000;stroke-width:2.76934791000000000;stroke-miterlimit:4;stroke-dasharray:none;stroke-opacity:1"
       d="M 181.00192,94.459697 C 184.91225,92.81216 188.69383,90.642739 192.88813,89.931127 C 194.70604,89.321754 196.62164,88.544253 198.55059,89.009542 C 200.00416,88.703435 201.69844,90.57563 200.71073,92.028747 C 199.89096,93.335542 199.10242,94.725366 197.92452,95.724941 C 196.82418,96.647077 195.65308,97.478869 194.43765,98.216494 C 192.44152,99.347684 190.11675,99.203221 187.92922,99.299615 C 173.22667,98.32805 157.88229,102.81014 181.00192,94.459697 z"
       id="path3218"
       sodipodi:nodetypes="cccccccc"
       inkscape:transform-center-x="6.3299937"
       inkscape:transform-center-y="8.1100064" />
    <path
       style="fill:#ff5599;fill-opacity:1;stroke:#000000;stroke-width:2.76934791000000000;stroke-miterlimit:4;stroke-dasharray:none;stroke-opacity:1"
       d="M 93.296297,124.75614 C 89.408592,126.805 85.272145,128.61225 81.983744,131.68965 C 76.964659,137.89154 75.556712,146.38118 70.909813,152.86264 C 68.816403,155.92107 65.303329,159.12872 61.526557,157.98631 C 57.577481,156.30277 56.056738,151.63838 53.609938,148.29306 C 49.74645,140.56797 45.606395,132.96502 42.576885,124.80543 C 40.759808,121.78021 38.845338,117.884 40.917626,114.41974 C 43.074481,107.73912 50.691274,102.00967 56.322176,100.42373 C 63.305265,97.451176 70.342275,88.812658 76.242764,94.051411 C 83.122777,94.241212 89.647981,99.795995 90.746276,107.1922 C 91.040322,111.14493 94.38366,121.27155 93.296297,124.75614 z"
       id="path3220"
       sodipodi:nodetypes="ccccccccccc"
       inkscape:transform-center-x="2.6226525"
       inkscape:transform-center-y="-3.9246312" />
    <path
       style="fill:#ff0066;fill-opacity:1;stroke:#000000;stroke-width:2.76934791000000000;stroke-miterlimit:4;stroke-dasharray:none;stroke-opacity:1"
       d="M 78.347668,117.15088 C 75.066339,119.96126 72.051988,123.2295 68.241133,125.23545 C 66.672445,126.39239 65.05683,127.74086 63.085549,127.90621 C 61.781288,128.65822 59.646047,127.40524 60.188768,125.70465 C 60.61143,124.19698 60.98134,122.61983 61.830905,121.29244 C 62.627745,120.06354 63.517107,118.8986 64.474808,117.8096 C 66.069785,116.09776 68.33071,115.50077 70.394055,114.71705 C 84.708777,110.99687 98.132035,101.86335 78.347668,117.15088 z"
       id="path3222"
       sodipodi:nodetypes="cccccccc"
       inkscape:transform-center-x="-3.4139144"
       inkscape:transform-center-y="-9.824667" />
    <path
       sodipodi:type="arc"
       style="fill:#d4aa00;fill-opacity:1;stroke:#000000;stroke-width:2.22193979999999990;stroke-miterlimit:4;stroke-dasharray:none;stroke-opacity:1"
       id="path3262"
       sodipodi:cx="145.24794"
       sodipodi:cy="104.75207"
       sodipodi:rx="36.983471"
       sodipodi:ry="39.049587"
       d="M 182.23141,104.75207 A 36.983471,39.049587 0 1 1 108.26447,104.75207 A 36.983471,39.049587 0 1 1 182.23141,104.75207 z"
       transform="matrix(1.2779323,0,0,1.2155776,-61.575698,-30.227438)" />
    <path
       style="opacity:1;fill:#ff5599;fill-opacity:1;stroke:#000000;stroke-width:2.76934791000000000;stroke-miterlimit:4;stroke-dasharray:none;stroke-opacity:1"
       d="M 91.52355,183.61429 C 89.237526,199.19021 81.92428,213.0851 79.375057,228.57712 C 77.119494,207.55619 83.12689,200.67211 91.397824,184.30329 C 91.462188,184.07913 91.506552,183.84808 91.52355,183.61429 z"
       id="path3308"
       sodipodi:nodetypes="cccc" />
    <path
       style="opacity:1;fill:#ff5599;fill-opacity:1;stroke:#000000;stroke-width:2.76934791000000000;stroke-miterlimit:4;stroke-dasharray:none;stroke-opacity:1"
       d="M 141.68034,187.1336 C 146.9251,202.53864 144.26031,218.41779 149.09318,233.85148 C 134.57845,215.22492 139.21839,206.39185 141.87809,187.82502 C 141.84643,187.59058 141.78318,187.35782 141.68034,187.1336 z"
       id="path3317"
       sodipodi:nodetypes="cccc" />
    <path
       style="opacity:1;fill:#ff5599;fill-opacity:1;stroke:#000000;stroke-width:2.76934791000000000;stroke-miterlimit:4;stroke-dasharray:none;stroke-opacity:1"
       d="M 187.73543,169.30002 C 198.27906,181.61529 203.63431,196.71399 213.90955,209.17778 C 195.57834,196.72196 194.75618,187.38236 188.18294,169.86398 C 188.05537,169.6622 187.907,169.47136 187.73543,169.30002 z"
       id="path3319"
       sodipodi:nodetypes="cccc" />
    <path
       style="opacity:1;fill:#ffffff;fill-opacity:0.33720931;stroke:none;stroke-width:2;stroke-miterlimit:4;stroke-dasharray:none;stroke-opacity:1"
       d="M 134.41674,54.821807 C 110.6516,48.365093 82.462729,68.469353 80.841315,93.180565 C 85.124025,80.010034 110.4977,52.27706 134.41674,54.821807 z"
       id="path4398"
       sodipodi:nodetypes="ccc" />
    <path
       style="opacity:1;fill:#000000;fill-opacity:0.22674417;stroke:none;stroke-width:2;stroke-miterlimit:4;stroke-dasharray:none;stroke-opacity:1"
       d="M 113.17362,138.34688 C 136.93876,144.80359 165.12762,124.69934 166.74904,99.98813 C 168.43354,106.77329 135.85849,140.84365 113.17362,138.34688 z"
       id="path4403"
       sodipodi:nodetypes="ccc" />
    <g
       id="g3351"
       transform="matrix(0.6066109,0,0,0.5820913,-29.38515,34.096027)">
      <g
         transform="matrix(0.7549481,0,0,0.7512496,182.35383,4.9581573e-2)"
         id="g3353">
        <path
           style="opacity:1;fill:#ffd5d5;fill-opacity:1;stroke:#000000;stroke-width:2;stroke-miterlimit:4;stroke-dasharray:none;stroke-opacity:1"
           d="M 116.66667,89.285713 C 112.71062,88.512697 108.73417,87.780829 104.75503,87.15318 C 102.01853,87.256017 99.488318,88.988536 97.44762,90.648298 C 96.054856,92.956952 94.882556,95.956544 95.846928,98.635426 C 97.496564,101.98585 100.858,104.43004 104.55495,105.00531 C 107.8156,105.76172 111.18495,106.56492 114.54394,106.24719 C 116.86031,104.96034 118.53136,102.56144 119.87964,100.33918 C 120.7414,97.128763 119.52227,107.11369 119.44444,108.33333 C 119.59242,111.59807 121.70236,114.53788 124.15127,116.55848 C 128.18248,119.34566 133.51934,120.10793 138.22854,118.90249 C 143.68502,116.96622 144.87185,109.07997 141.08909,105.05277 C 138.86901,102.73137 136.81635,100.22484 134.22816,98.292687 C 133.55353,96.589402 137.36551,98.388033 138.4252,98.429927 C 142.57021,99.479062 147.6131,99.858785 151.11917,96.970612 C 152.85032,95.053449 153.20575,92.271628 153.41025,89.791929 C 153.3759,86.708105 151.34064,83.79539 148.58062,82.532697 C 144.82645,81.374741 140.58856,81.388413 137.1161,83.406737 C 135.97571,83.931552 131.73043,86.432549 134.61647,84.030057 C 136.01784,80.095611 132.31798,71.448043 128.43557,69.93495 C 121.85585,67.911851 111.77728,67.674879 110.31856,77.444955 C 109.97087,81.575754 115.54471,85.524444 116.66667,89.285713 z"
           id="path3355"
           sodipodi:nodetypes="ccccccccccccccccccccc" />
        <path
           style="opacity:1;fill:#ff8080;fill-opacity:1;stroke:none;stroke-width:2;stroke-miterlimit:4;stroke-dasharray:none;stroke-opacity:1"
           d="M 123.80952,98.015873 C 123.78637,98.919892 123.4127,101.70914 123.4127,103.96825 C 123.4127,106.92579 123.36039,106.93137 125.79365,107.53968 C 127.80425,108.04233 129.50423,106.87487 130.55556,106.34921 C 132.88367,105.18515 132.93651,105.53051 132.93651,102.38095 C 132.93651,100.63471 131.794,98.741207 130.95238,97.619048 C 129.41872,95.574172 133.02716,95.116225 134.12698,94.84127 C 136.26661,94.306362 137.8417,94.111005 139.68254,93.650794 C 142.26789,93.004455 140.28155,89.293252 140.07937,88.888889 C 139.35829,87.446748 136.19935,88.271592 135.31746,88.492063 C 133.55694,88.932193 130.89943,88.478826 129.36508,88.095238 C 127.65647,87.668085 127.39132,85.358931 126.98413,83.730159 C 126.62083,82.276973 124.7931,81.142304 123.80952,80.15873 C 122.18307,78.532279 120.18835,79.414823 119.04762,80.555556 C 117.72351,81.879668 117.85714,82.97733 117.85714,85.31746 C 117.85714,86.635626 120.34302,88.372347 121.03175,88.888889 C 123.45048,90.702937 121.55094,91.245367 119.44444,91.666667 C 117.57024,92.041507 115.3373,92.098214 113.88889,92.460317 C 111.67527,93.013721 110.70153,93.266726 109.52381,94.444444 C 107.71455,96.253706 110.97892,98.181237 111.90476,98.412698 C 114.44592,99.047989 115.74695,98.543422 117.85714,98.015873 C 119.40627,97.62859 120.14186,96.278277 121.42857,95.634921 C 123.12264,94.787886 122.36134,95.602232 123.80952,98.015873 z"
           id="path3357" />
        <path
           style="opacity:1;fill:#ffff00;fill-opacity:1;stroke:#000000;stroke-width:2;stroke-miterlimit:4;stroke-dasharray:none;stroke-opacity:1"
           d="M 121.8254,92.063492 C 121.54207,90.110994 122.04499,89.230817 125,88.492063 C 127.34059,87.906917 128.85543,88.776061 129.7619,89.68254 C 131.29837,91.219005 130.78392,93.590893 130.15873,94.84127 C 129.81291,95.532906 126.11578,95.634921 125,95.634921 C 122.54788,95.634921 122.54415,95.657257 121.8254,92.063492 z"
           id="path3359" />
      </g>
      <g
         transform="matrix(-0.7549481,0,0,0.7512496,352.35915,6.9089906)"
         id="g3361">
        <path
           style="opacity:1;fill:#ffd5d5;fill-opacity:1;stroke:#000000;stroke-width:2;stroke-miterlimit:4;stroke-dasharray:none;stroke-opacity:1"
           d="M 116.66667,89.285713 C 112.71062,88.512697 108.73417,87.780829 104.75503,87.15318 C 102.01853,87.256017 99.488318,88.988536 97.44762,90.648298 C 96.054856,92.956952 94.882556,95.956544 95.846928,98.635426 C 97.496564,101.98585 100.858,104.43004 104.55495,105.00531 C 107.8156,105.76172 111.18495,106.56492 114.54394,106.24719 C 116.86031,104.96034 118.53136,102.56144 119.87964,100.33918 C 120.7414,97.128763 119.52227,107.11369 119.44444,108.33333 C 119.59242,111.59807 121.70236,114.53788 124.15127,116.55848 C 128.18248,119.34566 133.51934,120.10793 138.22854,118.90249 C 143.68502,116.96622 144.87185,109.07997 141.08909,105.05277 C 138.86901,102.73137 136.81635,100.22484 134.22816,98.292687 C 133.55353,96.589402 137.36551,98.388033 138.4252,98.429927 C 142.57021,99.479062 147.6131,99.858785 151.11917,96.970612 C 152.85032,95.053449 153.20575,92.271628 153.41025,89.791929 C 153.3759,86.708105 151.34064,83.79539 148.58062,82.532697 C 144.82645,81.374741 140.58856,81.388413 137.1161,83.406737 C 135.97571,83.931552 131.73043,86.432549 134.61647,84.030057 C 136.01784,80.095611 132.31798,71.448043 128.43557,69.93495 C 121.85585,67.911851 111.77728,67.674879 110.31856,77.444955 C 109.97087,81.575754 115.54471,85.524444 116.66667,89.285713 z"
           id="path3363"
           sodipodi:nodetypes="ccccccccccccccccccccc" />
        <path
           style="opacity:1;fill:#ff8080;fill-opacity:1;stroke:none;stroke-width:2;stroke-miterlimit:4;stroke-dasharray:none;stroke-opacity:1"
           d="M 123.80952,98.015873 C 123.78637,98.919892 123.4127,101.70914 123.4127,103.96825 C 123.4127,106.92579 123.36039,106.93137 125.79365,107.53968 C 127.80425,108.04233 129.50423,106.87487 130.55556,106.34921 C 132.88367,105.18515 132.93651,105.53051 132.93651,102.38095 C 132.93651,100.63471 131.794,98.741207 130.95238,97.619048 C 129.41872,95.574172 133.02716,95.116225 134.12698,94.84127 C 136.26661,94.306362 137.8417,94.111005 139.68254,93.650794 C 142.26789,93.004455 140.28155,89.293252 140.07937,88.888889 C 139.35829,87.446748 136.19935,88.271592 135.31746,88.492063 C 133.55694,88.932193 130.89943,88.478826 129.36508,88.095238 C 127.65647,87.668085 127.39132,85.358931 126.98413,83.730159 C 126.62083,82.276973 124.7931,81.142304 123.80952,80.15873 C 122.18307,78.532279 120.18835,79.414823 119.04762,80.555556 C 117.72351,81.879668 117.85714,82.97733 117.85714,85.31746 C 117.85714,86.635626 120.34302,88.372347 121.03175,88.888889 C 123.45048,90.702937 121.55094,91.245367 119.44444,91.666667 C 117.57024,92.041507 115.3373,92.098214 113.88889,92.460317 C 111.67527,93.013721 110.70153,93.266726 109.52381,94.444444 C 107.71455,96.253706 110.97892,98.181237 111.90476,98.412698 C 114.44592,99.047989 115.74695,98.543422 117.85714,98.015873 C 119.40627,97.62859 120.14186,96.278277 121.42857,95.634921 C 123.12264,94.787886 122.36134,95.602232 123.80952,98.015873 z"
           id="path3365" />
        <path
           style="opacity:1;fill:#ffff00;fill-opacity:1;stroke:#000000;stroke-width:2;stroke-miterlimit:4;stroke-dasharray:none;stroke-opacity:1"
           d="M 121.8254,92.063492 C 121.54207,90.110994 122.04499,89.230817 125,88.492063 C 127.34059,87.906917 128.85543,88.776061 129.7619,89.68254 C 131.29837,91.219005 130.78392,93.590893 130.15873,94.84127 C 129.81291,95.532906 126.11578,95.634921 125,95.634921 C 122.54788,95.634921 122.54415,95.657257 121.8254,92.063492 z"
           id="path3367" />
      </g>
      <g
         transform="matrix(0.671603,-0.3448131,0.3431238,0.6683128,152.04634,75.882776)"
         id="g3369">
        <path
           style="opacity:1;fill:#ffd5d5;fill-opacity:1;stroke:#000000;stroke-width:2;stroke-miterlimit:4;stroke-dasharray:none;stroke-opacity:1"
           d="M 116.66667,89.285713 C 112.71062,88.512697 108.73417,87.780829 104.75503,87.15318 C 102.01853,87.256017 99.488318,88.988536 97.44762,90.648298 C 96.054856,92.956952 94.882556,95.956544 95.846928,98.635426 C 97.496564,101.98585 100.858,104.43004 104.55495,105.00531 C 107.8156,105.76172 111.18495,106.56492 114.54394,106.24719 C 116.86031,104.96034 118.53136,102.56144 119.87964,100.33918 C 120.7414,97.128763 119.52227,107.11369 119.44444,108.33333 C 119.59242,111.59807 121.70236,114.53788 124.15127,116.55848 C 128.18248,119.34566 133.51934,120.10793 138.22854,118.90249 C 143.68502,116.96622 144.87185,109.07997 141.08909,105.05277 C 138.86901,102.73137 136.81635,100.22484 134.22816,98.292687 C 133.55353,96.589402 137.36551,98.388033 138.4252,98.429927 C 142.57021,99.479062 147.6131,99.858785 151.11917,96.970612 C 152.85032,95.053449 153.20575,92.271628 153.41025,89.791929 C 153.3759,86.708105 151.34064,83.79539 148.58062,82.532697 C 144.82645,81.374741 140.58856,81.388413 137.1161,83.406737 C 135.97571,83.931552 131.73043,86.432549 134.61647,84.030057 C 136.01784,80.095611 132.31798,71.448043 128.43557,69.93495 C 121.85585,67.911851 111.77728,67.674879 110.31856,77.444955 C 109.97087,81.575754 115.54471,85.524444 116.66667,89.285713 z"
           id="path3371"
           sodipodi:nodetypes="ccccccccccccccccccccc" />
        <path
           style="opacity:1;fill:#ff8080;fill-opacity:1;stroke:none;stroke-width:2;stroke-miterlimit:4;stroke-dasharray:none;stroke-opacity:1"
           d="M 123.80952,98.015873 C 123.78637,98.919892 123.4127,101.70914 123.4127,103.96825 C 123.4127,106.92579 123.36039,106.93137 125.79365,107.53968 C 127.80425,108.04233 129.50423,106.87487 130.55556,106.34921 C 132.88367,105.18515 132.93651,105.53051 132.93651,102.38095 C 132.93651,100.63471 131.794,98.741207 130.95238,97.619048 C 129.41872,95.574172 133.02716,95.116225 134.12698,94.84127 C 136.26661,94.306362 137.8417,94.111005 139.68254,93.650794 C 142.26789,93.004455 140.28155,89.293252 140.07937,88.888889 C 139.35829,87.446748 136.19935,88.271592 135.31746,88.492063 C 133.55694,88.932193 130.89943,88.478826 129.36508,88.095238 C 127.65647,87.668085 127.39132,85.358931 126.98413,83.730159 C 126.62083,82.276973 124.7931,81.142304 123.80952,80.15873 C 122.18307,78.532279 120.18835,79.414823 119.04762,80.555556 C 117.72351,81.879668 117.85714,82.97733 117.85714,85.31746 C 117.85714,86.635626 120.34302,88.372347 121.03175,88.888889 C 123.45048,90.702937 121.55094,91.245367 119.44444,91.666667 C 117.57024,92.041507 115.3373,92.098214 113.88889,92.460317 C 111.67527,93.013721 110.70153,93.266726 109.52381,94.444444 C 107.71455,96.253706 110.97892,98.181237 111.90476,98.412698 C 114.44592,99.047989 115.74695,98.543422 117.85714,98.015873 C 119.40627,97.62859 120.14186,96.278277 121.42857,95.634921 C 123.12264,94.787886 122.36134,95.602232 123.80952,98.015873 z"
           id="path3373" />
        <path
           style="opacity:1;fill:#ffff00;fill-opacity:1;stroke:#000000;stroke-width:2;stroke-miterlimit:4;stroke-dasharray:none;stroke-opacity:1"
           d="M 121.8254,92.063492 C 121.54207,90.110994 122.04499,89.230817 125,88.492063 C 127.34059,87.906917 128.85543,88.776061 129.7619,89.68254 C 131.29837,91.219005 130.78392,93.590893 130.15873,94.84127 C 129.81291,95.532906 126.11578,95.634921 125,95.634921 C 122.54788,95.634921 122.54415,95.657257 121.8254,92.063492 z"
           id="path3375" />
      </g>
    </g>
    <g
       id="g3377"
       transform="matrix(0.6066109,0,0,0.5820913,-48.70533,49.360954)">
      <g
         transform="matrix(0.7549481,0,0,0.7512496,182.35383,4.9581573e-2)"
         id="g3379">
        <path
           style="opacity:1;fill:#ffd5d5;fill-opacity:1;stroke:#000000;stroke-width:2;stroke-miterlimit:4;stroke-dasharray:none;stroke-opacity:1"
           d="M 116.66667,89.285713 C 112.71062,88.512697 108.73417,87.780829 104.75503,87.15318 C 102.01853,87.256017 99.488318,88.988536 97.44762,90.648298 C 96.054856,92.956952 94.882556,95.956544 95.846928,98.635426 C 97.496564,101.98585 100.858,104.43004 104.55495,105.00531 C 107.8156,105.76172 111.18495,106.56492 114.54394,106.24719 C 116.86031,104.96034 118.53136,102.56144 119.87964,100.33918 C 120.7414,97.128763 119.52227,107.11369 119.44444,108.33333 C 119.59242,111.59807 121.70236,114.53788 124.15127,116.55848 C 128.18248,119.34566 133.51934,120.10793 138.22854,118.90249 C 143.68502,116.96622 144.87185,109.07997 141.08909,105.05277 C 138.86901,102.73137 136.81635,100.22484 134.22816,98.292687 C 133.55353,96.589402 137.36551,98.388033 138.4252,98.429927 C 142.57021,99.479062 147.6131,99.858785 151.11917,96.970612 C 152.85032,95.053449 153.20575,92.271628 153.41025,89.791929 C 153.3759,86.708105 151.34064,83.79539 148.58062,82.532697 C 144.82645,81.374741 140.58856,81.388413 137.1161,83.406737 C 135.97571,83.931552 131.73043,86.432549 134.61647,84.030057 C 136.01784,80.095611 132.31798,71.448043 128.43557,69.93495 C 121.85585,67.911851 111.77728,67.674879 110.31856,77.444955 C 109.97087,81.575754 115.54471,85.524444 116.66667,89.285713 z"
           id="path3381"
           sodipodi:nodetypes="ccccccccccccccccccccc" />
        <path
           style="opacity:1;fill:#ff8080;fill-opacity:1;stroke:none;stroke-width:2;stroke-miterlimit:4;stroke-dasharray:none;stroke-opacity:1"
           d="M 123.80952,98.015873 C 123.78637,98.919892 123.4127,101.70914 123.4127,103.96825 C 123.4127,106.92579 123.36039,106.93137 125.79365,107.53968 C 127.80425,108.04233 129.50423,106.87487 130.55556,106.34921 C 132.88367,105.18515 132.93651,105.53051 132.93651,102.38095 C 132.93651,100.63471 131.794,98.741207 130.95238,97.619048 C 129.41872,95.574172 133.02716,95.116225 134.12698,94.84127 C 136.26661,94.306362 137.8417,94.111005 139.68254,93.650794 C 142.26789,93.004455 140.28155,89.293252 140.07937,88.888889 C 139.35829,87.446748 136.19935,88.271592 135.31746,88.492063 C 133.55694,88.932193 130.89943,88.478826 129.36508,88.095238 C 127.65647,87.668085 127.39132,85.358931 126.98413,83.730159 C 126.62083,82.276973 124.7931,81.142304 123.80952,80.15873 C 122.18307,78.532279 120.18835,79.414823 119.04762,80.555556 C 117.72351,81.879668 117.85714,82.97733 117.85714,85.31746 C 117.85714,86.635626 120.34302,88.372347 121.03175,88.888889 C 123.45048,90.702937 121.55094,91.245367 119.44444,91.666667 C 117.57024,92.041507 115.3373,92.098214 113.88889,92.460317 C 111.67527,93.013721 110.70153,93.266726 109.52381,94.444444 C 107.71455,96.253706 110.97892,98.181237 111.90476,98.412698 C 114.44592,99.047989 115.74695,98.543422 117.85714,98.015873 C 119.40627,97.62859 120.14186,96.278277 121.42857,95.634921 C 123.12264,94.787886 122.36134,95.602232 123.80952,98.015873 z"
           id="path3383" />
        <path
           style="opacity:1;fill:#ffff00;fill-opacity:1;stroke:#000000;stroke-width:2;stroke-miterlimit:4;stroke-dasharray:none;stroke-opacity:1"
           d="M 121.8254,92.063492 C 121.54207,90.110994 122.04499,89.230817 125,88.492063 C 127.34059,87.906917 128.85543,88.776061 129.7619,89.68254 C 131.29837,91.219005 130.78392,93.590893 130.15873,94.84127 C 129.81291,95.532906 126.11578,95.634921 125,95.634921 C 122.54788,95.634921 122.54415,95.657257 121.8254,92.063492 z"
           id="path3385" />
      </g>
      <g
         transform="matrix(-0.7549481,0,0,0.7512496,352.35915,6.9089906)"
         id="g3387">
        <path
           style="opacity:1;fill:#ffd5d5;fill-opacity:1;stroke:#000000;stroke-width:2;stroke-miterlimit:4;stroke-dasharray:none;stroke-opacity:1"
           d="M 116.66667,89.285713 C 112.71062,88.512697 108.73417,87.780829 104.75503,87.15318 C 102.01853,87.256017 99.488318,88.988536 97.44762,90.648298 C 96.054856,92.956952 94.882556,95.956544 95.846928,98.635426 C 97.496564,101.98585 100.858,104.43004 104.55495,105.00531 C 107.8156,105.76172 111.18495,106.56492 114.54394,106.24719 C 116.86031,104.96034 118.53136,102.56144 119.87964,100.33918 C 120.7414,97.128763 119.52227,107.11369 119.44444,108.33333 C 119.59242,111.59807 121.70236,114.53788 124.15127,116.55848 C 128.18248,119.34566 133.51934,120.10793 138.22854,118.90249 C 143.68502,116.96622 144.87185,109.07997 141.08909,105.05277 C 138.86901,102.73137 136.81635,100.22484 134.22816,98.292687 C 133.55353,96.589402 137.36551,98.388033 138.4252,98.429927 C 142.57021,99.479062 147.6131,99.858785 151.11917,96.970612 C 152.85032,95.053449 153.20575,92.271628 153.41025,89.791929 C 153.3759,86.708105 151.34064,83.79539 148.58062,82.532697 C 144.82645,81.374741 140.58856,81.388413 137.1161,83.406737 C 135.97571,83.931552 131.73043,86.432549 134.61647,84.030057 C 136.01784,80.095611 132.31798,71.448043 128.43557,69.93495 C 121.85585,67.911851 111.77728,67.674879 110.31856,77.444955 C 109.97087,81.575754 115.54471,85.524444 116.66667,89.285713 z"
           id="path3389"
           sodipodi:nodetypes="ccccccccccccccccccccc" />
        <path
           style="opacity:1;fill:#ff8080;fill-opacity:1;stroke:none;stroke-width:2;stroke-miterlimit:4;stroke-dasharray:none;stroke-opacity:1"
           d="M 123.80952,98.015873 C 123.78637,98.919892 123.4127,101.70914 123.4127,103.96825 C 123.4127,106.92579 123.36039,106.93137 125.79365,107.53968 C 127.80425,108.04233 129.50423,106.87487 130.55556,106.34921 C 132.88367,105.18515 132.93651,105.53051 132.93651,102.38095 C 132.93651,100.63471 131.794,98.741207 130.95238,97.619048 C 129.41872,95.574172 133.02716,95.116225 134.12698,94.84127 C 136.26661,94.306362 137.8417,94.111005 139.68254,93.650794 C 142.26789,93.004455 140.28155,89.293252 140.07937,88.888889 C 139.35829,87.446748 136.19935,88.271592 135.31746,88.492063 C 133.55694,88.932193 130.89943,88.478826 129.36508,88.095238 C 127.65647,87.668085 127.39132,85.358931 126.98413,83.730159 C 126.62083,82.276973 124.7931,81.142304 123.80952,80.15873 C 122.18307,78.532279 120.18835,79.414823 119.04762,80.555556 C 117.72351,81.879668 117.85714,82.97733 117.85714,85.31746 C 117.85714,86.635626 120.34302,88.372347 121.03175,88.888889 C 123.45048,90.702937 121.55094,91.245367 119.44444,91.666667 C 117.57024,92.041507 115.3373,92.098214 113.88889,92.460317 C 111.67527,93.013721 110.70153,93.266726 109.52381,94.444444 C 107.71455,96.253706 110.97892,98.181237 111.90476,98.412698 C 114.44592,99.047989 115.74695,98.543422 117.85714,98.015873 C 119.40627,97.62859 120.14186,96.278277 121.42857,95.634921 C 123.12264,94.787886 122.36134,95.602232 123.80952,98.015873 z"
           id="path3391" />
        <path
           style="opacity:1;fill:#ffff00;fill-opacity:1;stroke:#000000;stroke-width:2;stroke-miterlimit:4;stroke-dasharray:none;stroke-opacity:1"
           d="M 121.8254,92.063492 C 121.54207,90.110994 122.04499,89.230817 125,88.492063 C 127.34059,87.906917 128.85543,88.776061 129.7619,89.68254 C 131.29837,91.219005 130.78392,93.590893 130.15873,94.84127 C 129.81291,95.532906 126.11578,95.634921 125,95.634921 C 122.54788,95.634921 122.54415,95.657257 121.8254,92.063492 z"
           id="path3393" />
      </g>
      <g
         transform="matrix(0.671603,-0.3448131,0.3431238,0.6683128,152.04634,75.882776)"
         id="g3395">
        <path
           style="opacity:1;fill:#ffd5d5;fill-opacity:1;stroke:#000000;stroke-width:2;stroke-miterlimit:4;stroke-dasharray:none;stroke-opacity:1"
           d="M 116.66667,89.285713 C 112.71062,88.512697 108.73417,87.780829 104.75503,87.15318 C 102.01853,87.256017 99.488318,88.988536 97.44762,90.648298 C 96.054856,92.956952 94.882556,95.956544 95.846928,98.635426 C 97.496564,101.98585 100.858,104.43004 104.55495,105.00531 C 107.8156,105.76172 111.18495,106.56492 114.54394,106.24719 C 116.86031,104.96034 118.53136,102.56144 119.87964,100.33918 C 120.7414,97.128763 119.52227,107.11369 119.44444,108.33333 C 119.59242,111.59807 121.70236,114.53788 124.15127,116.55848 C 128.18248,119.34566 133.51934,120.10793 138.22854,118.90249 C 143.68502,116.96622 144.87185,109.07997 141.08909,105.05277 C 138.86901,102.73137 136.81635,100.22484 134.22816,98.292687 C 133.55353,96.589402 137.36551,98.388033 138.4252,98.429927 C 142.57021,99.479062 147.6131,99.858785 151.11917,96.970612 C 152.85032,95.053449 153.20575,92.271628 153.41025,89.791929 C 153.3759,86.708105 151.34064,83.79539 148.58062,82.532697 C 144.82645,81.374741 140.58856,81.388413 137.1161,83.406737 C 135.97571,83.931552 131.73043,86.432549 134.61647,84.030057 C 136.01784,80.095611 132.31798,71.448043 128.43557,69.93495 C 121.85585,67.911851 111.77728,67.674879 110.31856,77.444955 C 109.97087,81.575754 115.54471,85.524444 116.66667,89.285713 z"
           id="path3397"
           sodipodi:nodetypes="ccccccccccccccccccccc" />
        <path
           style="opacity:1;fill:#ff8080;fill-opacity:1;stroke:none;stroke-width:2;stroke-miterlimit:4;stroke-dasharray:none;stroke-opacity:1"
           d="M 123.80952,98.015873 C 123.78637,98.919892 123.4127,101.70914 123.4127,103.96825 C 123.4127,106.92579 123.36039,106.93137 125.79365,107.53968 C 127.80425,108.04233 129.50423,106.87487 130.55556,106.34921 C 132.88367,105.18515 132.93651,105.53051 132.93651,102.38095 C 132.93651,100.63471 131.794,98.741207 130.95238,97.619048 C 129.41872,95.574172 133.02716,95.116225 134.12698,94.84127 C 136.26661,94.306362 137.8417,94.111005 139.68254,93.650794 C 142.26789,93.004455 140.28155,89.293252 140.07937,88.888889 C 139.35829,87.446748 136.19935,88.271592 135.31746,88.492063 C 133.55694,88.932193 130.89943,88.478826 129.36508,88.095238 C 127.65647,87.668085 127.39132,85.358931 126.98413,83.730159 C 126.62083,82.276973 124.7931,81.142304 123.80952,80.15873 C 122.18307,78.532279 120.18835,79.414823 119.04762,80.555556 C 117.72351,81.879668 117.85714,82.97733 117.85714,85.31746 C 117.85714,86.635626 120.34302,88.372347 121.03175,88.888889 C 123.45048,90.702937 121.55094,91.245367 119.44444,91.666667 C 117.57024,92.041507 115.3373,92.098214 113.88889,92.460317 C 111.67527,93.013721 110.70153,93.266726 109.52381,94.444444 C 107.71455,96.253706 110.97892,98.181237 111.90476,98.412698 C 114.44592,99.047989 115.74695,98.543422 117.85714,98.015873 C 119.40627,97.62859 120.14186,96.278277 121.42857,95.634921 C 123.12264,94.787886 122.36134,95.602232 123.80952,98.015873 z"
           id="path3399" />
        <path
           style="opacity:1;fill:#ffff00;fill-opacity:1;stroke:#000000;stroke-width:2;stroke-miterlimit:4;stroke-dasharray:none;stroke-opacity:1"
           d="M 121.8254,92.063492 C 121.54207,90.110994 122.04499,89.230817 125,88.492063 C 127.34059,87.906917 128.85543,88.776061 129.7619,89.68254 C 131.29837,91.219005 130.78392,93.590893 130.15873,94.84127 C 129.81291,95.532906 126.11578,95.634921 125,95.634921 C 122.54788,95.634921 122.54415,95.657257 121.8254,92.063492 z"
           id="path3401" />
      </g>
    </g>
    <g
       id="g3337"
       transform="matrix(0.6066109,0,0,0.5820913,-34.206332,60.539481)">
      <g
         transform="matrix(0.7549481,0,0,0.7512496,182.35383,4.9581573e-2)"
         id="g7081">
        <path
           style="opacity:1;fill:#ffd5d5;fill-opacity:1;stroke:#000000;stroke-width:2;stroke-miterlimit:4;stroke-dasharray:none;stroke-opacity:1"
           d="M 116.66667,89.285713 C 112.71062,88.512697 108.73417,87.780829 104.75503,87.15318 C 102.01853,87.256017 99.488318,88.988536 97.44762,90.648298 C 96.054856,92.956952 94.882556,95.956544 95.846928,98.635426 C 97.496564,101.98585 100.858,104.43004 104.55495,105.00531 C 107.8156,105.76172 111.18495,106.56492 114.54394,106.24719 C 116.86031,104.96034 118.53136,102.56144 119.87964,100.33918 C 120.7414,97.128763 119.52227,107.11369 119.44444,108.33333 C 119.59242,111.59807 121.70236,114.53788 124.15127,116.55848 C 128.18248,119.34566 133.51934,120.10793 138.22854,118.90249 C 143.68502,116.96622 144.87185,109.07997 141.08909,105.05277 C 138.86901,102.73137 136.81635,100.22484 134.22816,98.292687 C 133.55353,96.589402 137.36551,98.388033 138.4252,98.429927 C 142.57021,99.479062 147.6131,99.858785 151.11917,96.970612 C 152.85032,95.053449 153.20575,92.271628 153.41025,89.791929 C 153.3759,86.708105 151.34064,83.79539 148.58062,82.532697 C 144.82645,81.374741 140.58856,81.388413 137.1161,83.406737 C 135.97571,83.931552 131.73043,86.432549 134.61647,84.030057 C 136.01784,80.095611 132.31798,71.448043 128.43557,69.93495 C 121.85585,67.911851 111.77728,67.674879 110.31856,77.444955 C 109.97087,81.575754 115.54471,85.524444 116.66667,89.285713 z"
           id="path7066"
           sodipodi:nodetypes="ccccccccccccccccccccc" />
        <path
           style="opacity:1;fill:#ff8080;fill-opacity:1;stroke:none;stroke-width:2;stroke-miterlimit:4;stroke-dasharray:none;stroke-opacity:1"
           d="M 123.80952,98.015873 C 123.78637,98.919892 123.4127,101.70914 123.4127,103.96825 C 123.4127,106.92579 123.36039,106.93137 125.79365,107.53968 C 127.80425,108.04233 129.50423,106.87487 130.55556,106.34921 C 132.88367,105.18515 132.93651,105.53051 132.93651,102.38095 C 132.93651,100.63471 131.794,98.741207 130.95238,97.619048 C 129.41872,95.574172 133.02716,95.116225 134.12698,94.84127 C 136.26661,94.306362 137.8417,94.111005 139.68254,93.650794 C 142.26789,93.004455 140.28155,89.293252 140.07937,88.888889 C 139.35829,87.446748 136.19935,88.271592 135.31746,88.492063 C 133.55694,88.932193 130.89943,88.478826 129.36508,88.095238 C 127.65647,87.668085 127.39132,85.358931 126.98413,83.730159 C 126.62083,82.276973 124.7931,81.142304 123.80952,80.15873 C 122.18307,78.532279 120.18835,79.414823 119.04762,80.555556 C 117.72351,81.879668 117.85714,82.97733 117.85714,85.31746 C 117.85714,86.635626 120.34302,88.372347 121.03175,88.888889 C 123.45048,90.702937 121.55094,91.245367 119.44444,91.666667 C 117.57024,92.041507 115.3373,92.098214 113.88889,92.460317 C 111.67527,93.013721 110.70153,93.266726 109.52381,94.444444 C 107.71455,96.253706 110.97892,98.181237 111.90476,98.412698 C 114.44592,99.047989 115.74695,98.543422 117.85714,98.015873 C 119.40627,97.62859 120.14186,96.278277 121.42857,95.634921 C 123.12264,94.787886 122.36134,95.602232 123.80952,98.015873 z"
           id="path7069" />
        <path
           style="opacity:1;fill:#ffff00;fill-opacity:1;stroke:#000000;stroke-width:2;stroke-miterlimit:4;stroke-dasharray:none;stroke-opacity:1"
           d="M 121.8254,92.063492 C 121.54207,90.110994 122.04499,89.230817 125,88.492063 C 127.34059,87.906917 128.85543,88.776061 129.7619,89.68254 C 131.29837,91.219005 130.78392,93.590893 130.15873,94.84127 C 129.81291,95.532906 126.11578,95.634921 125,95.634921 C 122.54788,95.634921 122.54415,95.657257 121.8254,92.063492 z"
           id="path7071" />
      </g>
      <g
         transform="matrix(-0.7549481,0,0,0.7512496,352.35915,6.9089906)"
         id="g7086">
        <path
           style="opacity:1;fill:#ffd5d5;fill-opacity:1;stroke:#000000;stroke-width:2;stroke-miterlimit:4;stroke-dasharray:none;stroke-opacity:1"
           d="M 116.66667,89.285713 C 112.71062,88.512697 108.73417,87.780829 104.75503,87.15318 C 102.01853,87.256017 99.488318,88.988536 97.44762,90.648298 C 96.054856,92.956952 94.882556,95.956544 95.846928,98.635426 C 97.496564,101.98585 100.858,104.43004 104.55495,105.00531 C 107.8156,105.76172 111.18495,106.56492 114.54394,106.24719 C 116.86031,104.96034 118.53136,102.56144 119.87964,100.33918 C 120.7414,97.128763 119.52227,107.11369 119.44444,108.33333 C 119.59242,111.59807 121.70236,114.53788 124.15127,116.55848 C 128.18248,119.34566 133.51934,120.10793 138.22854,118.90249 C 143.68502,116.96622 144.87185,109.07997 141.08909,105.05277 C 138.86901,102.73137 136.81635,100.22484 134.22816,98.292687 C 133.55353,96.589402 137.36551,98.388033 138.4252,98.429927 C 142.57021,99.479062 147.6131,99.858785 151.11917,96.970612 C 152.85032,95.053449 153.20575,92.271628 153.41025,89.791929 C 153.3759,86.708105 151.34064,83.79539 148.58062,82.532697 C 144.82645,81.374741 140.58856,81.388413 137.1161,83.406737 C 135.97571,83.931552 131.73043,86.432549 134.61647,84.030057 C 136.01784,80.095611 132.31798,71.448043 128.43557,69.93495 C 121.85585,67.911851 111.77728,67.674879 110.31856,77.444955 C 109.97087,81.575754 115.54471,85.524444 116.66667,89.285713 z"
           id="path7088"
           sodipodi:nodetypes="ccccccccccccccccccccc" />
        <path
           style="opacity:1;fill:#ff8080;fill-opacity:1;stroke:none;stroke-width:2;stroke-miterlimit:4;stroke-dasharray:none;stroke-opacity:1"
           d="M 123.80952,98.015873 C 123.78637,98.919892 123.4127,101.70914 123.4127,103.96825 C 123.4127,106.92579 123.36039,106.93137 125.79365,107.53968 C 127.80425,108.04233 129.50423,106.87487 130.55556,106.34921 C 132.88367,105.18515 132.93651,105.53051 132.93651,102.38095 C 132.93651,100.63471 131.794,98.741207 130.95238,97.619048 C 129.41872,95.574172 133.02716,95.116225 134.12698,94.84127 C 136.26661,94.306362 137.8417,94.111005 139.68254,93.650794 C 142.26789,93.004455 140.28155,89.293252 140.07937,88.888889 C 139.35829,87.446748 136.19935,88.271592 135.31746,88.492063 C 133.55694,88.932193 130.89943,88.478826 129.36508,88.095238 C 127.65647,87.668085 127.39132,85.358931 126.98413,83.730159 C 126.62083,82.276973 124.7931,81.142304 123.80952,80.15873 C 122.18307,78.532279 120.18835,79.414823 119.04762,80.555556 C 117.72351,81.879668 117.85714,82.97733 117.85714,85.31746 C 117.85714,86.635626 120.34302,88.372347 121.03175,88.888889 C 123.45048,90.702937 121.55094,91.245367 119.44444,91.666667 C 117.57024,92.041507 115.3373,92.098214 113.88889,92.460317 C 111.67527,93.013721 110.70153,93.266726 109.52381,94.444444 C 107.71455,96.253706 110.97892,98.181237 111.90476,98.412698 C 114.44592,99.047989 115.74695,98.543422 117.85714,98.015873 C 119.40627,97.62859 120.14186,96.278277 121.42857,95.634921 C 123.12264,94.787886 122.36134,95.602232 123.80952,98.015873 z"
           id="path7090" />
        <path
           style="opacity:1;fill:#ffff00;fill-opacity:1;stroke:#000000;stroke-width:2;stroke-miterlimit:4;stroke-dasharray:none;stroke-opacity:1"
           d="M 121.8254,92.063492 C 121.54207,90.110994 122.04499,89.230817 125,88.492063 C 127.34059,87.906917 128.85543,88.776061 129.7619,89.68254 C 131.29837,91.219005 130.78392,93.590893 130.15873,94.84127 C 129.81291,95.532906 126.11578,95.634921 125,95.634921 C 122.54788,95.634921 122.54415,95.657257 121.8254,92.063492 z"
           id="path7092" />
      </g>
      <g
         transform="matrix(0.671603,-0.3448131,0.3431238,0.6683128,152.04634,75.882776)"
         id="g7094">
        <path
           style="opacity:1;fill:#ffd5d5;fill-opacity:1;stroke:#000000;stroke-width:2;stroke-miterlimit:4;stroke-dasharray:none;stroke-opacity:1"
           d="M 116.66667,89.285713 C 112.71062,88.512697 108.73417,87.780829 104.75503,87.15318 C 102.01853,87.256017 99.488318,88.988536 97.44762,90.648298 C 96.054856,92.956952 94.882556,95.956544 95.846928,98.635426 C 97.496564,101.98585 100.858,104.43004 104.55495,105.00531 C 107.8156,105.76172 111.18495,106.56492 114.54394,106.24719 C 116.86031,104.96034 118.53136,102.56144 119.87964,100.33918 C 120.7414,97.128763 119.52227,107.11369 119.44444,108.33333 C 119.59242,111.59807 121.70236,114.53788 124.15127,116.55848 C 128.18248,119.34566 133.51934,120.10793 138.22854,118.90249 C 143.68502,116.96622 144.87185,109.07997 141.08909,105.05277 C 138.86901,102.73137 136.81635,100.22484 134.22816,98.292687 C 133.55353,96.589402 137.36551,98.388033 138.4252,98.429927 C 142.57021,99.479062 147.6131,99.858785 151.11917,96.970612 C 152.85032,95.053449 153.20575,92.271628 153.41025,89.791929 C 153.3759,86.708105 151.34064,83.79539 148.58062,82.532697 C 144.82645,81.374741 140.58856,81.388413 137.1161,83.406737 C 135.97571,83.931552 131.73043,86.432549 134.61647,84.030057 C 136.01784,80.095611 132.31798,71.448043 128.43557,69.93495 C 121.85585,67.911851 111.77728,67.674879 110.31856,77.444955 C 109.97087,81.575754 115.54471,85.524444 116.66667,89.285713 z"
           id="path7096"
           sodipodi:nodetypes="ccccccccccccccccccccc" />
        <path
           style="opacity:1;fill:#ff8080;fill-opacity:1;stroke:none;stroke-width:2;stroke-miterlimit:4;stroke-dasharray:none;stroke-opacity:1"
           d="M 123.80952,98.015873 C 123.78637,98.919892 123.4127,101.70914 123.4127,103.96825 C 123.4127,106.92579 123.36039,106.93137 125.79365,107.53968 C 127.80425,108.04233 129.50423,106.87487 130.55556,106.34921 C 132.88367,105.18515 132.93651,105.53051 132.93651,102.38095 C 132.93651,100.63471 131.794,98.741207 130.95238,97.619048 C 129.41872,95.574172 133.02716,95.116225 134.12698,94.84127 C 136.26661,94.306362 137.8417,94.111005 139.68254,93.650794 C 142.26789,93.004455 140.28155,89.293252 140.07937,88.888889 C 139.35829,87.446748 136.19935,88.271592 135.31746,88.492063 C 133.55694,88.932193 130.89943,88.478826 129.36508,88.095238 C 127.65647,87.668085 127.39132,85.358931 126.98413,83.730159 C 126.62083,82.276973 124.7931,81.142304 123.80952,80.15873 C 122.18307,78.532279 120.18835,79.414823 119.04762,80.555556 C 117.72351,81.879668 117.85714,82.97733 117.85714,85.31746 C 117.85714,86.635626 120.34302,88.372347 121.03175,88.888889 C 123.45048,90.702937 121.55094,91.245367 119.44444,91.666667 C 117.57024,92.041507 115.3373,92.098214 113.88889,92.460317 C 111.67527,93.013721 110.70153,93.266726 109.52381,94.444444 C 107.71455,96.253706 110.97892,98.181237 111.90476,98.412698 C 114.44592,99.047989 115.74695,98.543422 117.85714,98.015873 C 119.40627,97.62859 120.14186,96.278277 121.42857,95.634921 C 123.12264,94.787886 122.36134,95.602232 123.80952,98.015873 z"
           id="path7098" />
        <path
           style="opacity:1;fill:#ffff00;fill-opacity:1;stroke:#000000;stroke-width:2;stroke-miterlimit:4;stroke-dasharray:none;stroke-opacity:1"
           d="M 121.8254,92.063492 C 121.54207,90.110994 122.04499,89.230817 125,88.492063 C 127.34059,87.906917 128.85543,88.776061 129.7619,89.68254 C 131.29837,91.219005 130.78392,93.590893 130.15873,94.84127 C 129.81291,95.532906 126.11578,95.634921 125,95.634921 C 122.54788,95.634921 122.54415,95.657257 121.8254,92.063492 z"
           id="path7100" />
      </g>
    </g>
    <g
       id="g4227"
       transform="matrix(0.7216865,-0.1649134,0.1549639,0.646438,-115.81979,67.88821)">
      <path
         sodipodi:nodetypes="ccc"
         id="path4575"
         d="M 306.8057,101.98039 C 306.70552,99.899381 307.32702,98.127661 308.70684,96.59383 C 310.23369,95.233845 312.12848,94.901889 314.0934,94.851117"
         style="opacity:1;fill:none;fill-opacity:0.24418604;stroke:#000000;stroke-width:2;stroke-miterlimit:4;stroke-dasharray:none;stroke-opacity:1" />
      <path
         sodipodi:nodetypes="ccc"
         id="path4365"
         d="M 301.1277,89.826799 C 282.73573,88.471974 270.03882,104.4849 267.85395,102.32235 C 272.74487,91.652704 285.98417,85.288833 301.1277,89.826799 z"
         style="opacity:1;fill:#ffffff;fill-opacity:0.14534882;stroke:none;stroke-width:2;stroke-miterlimit:4;stroke-dasharray:none;stroke-opacity:1" />
      <path
         sodipodi:nodetypes="ccccc"
         id="path4469"
         d="M 275.48792,124.02171 C 278.84396,120.75548 282.12071,117.37524 285.94347,114.64996 C 290.31531,111.64 286.85382,107.66727 282.57699,109.33362 C 278.35892,109.78287 268.31588,116.16521 265.23648,122.2343 C 261.64387,134.80905 270.79887,128.09077 275.48792,124.02171 z"
         style="opacity:1;fill:#502d16;fill-opacity:1;stroke:#000000;stroke-width:2;stroke-miterlimit:4;stroke-dasharray:none;stroke-opacity:1" />
      <path
         sodipodi:nodetypes="ccccc"
         id="path4471"
         d="M 291.38982,103.65088 C 289.36155,104.00739 287.48482,105.40767 286.75603,107.33808 C 286.25786,109.6355 288.99829,110.80683 290.88936,110.618 C 294.14511,110.21707 301.62067,108.94118 300.29985,104.35689 C 298.63492,101.65658 293.92701,102.81332 291.38982,103.65088 z"
         style="opacity:1;fill:#502d16;fill-opacity:1;stroke:#000000;stroke-width:2;stroke-miterlimit:4;stroke-dasharray:none;stroke-opacity:1" />
      <path
         sodipodi:nodetypes="ccc"
         id="path4473"
         d="M 304.63606,101.86082 C 301.10001,101.32648 298.43265,104.32617 301.53482,106.65319 C 305.76561,109.03018 310.69912,102.47922 304.63606,101.86082 z"
         style="opacity:1;fill:#502d16;fill-opacity:1;stroke:#000000;stroke-width:1.89135873;stroke-miterlimit:4;stroke-dasharray:none;stroke-opacity:1" />
      <path
         sodipodi:nodetypes="ccc"
         id="path4581"
         d="M 307.43941,103.88154 C 307.53259,103.23799 308.08502,101.9685 308.54841,101.50511 C 310.38886,99.35304 312.81406,98.851652 315.51926,98.970256"
         style="opacity:1;fill:none;fill-opacity:0.24418604;stroke:#000000;stroke-width:2;stroke-miterlimit:4;stroke-dasharray:none;stroke-opacity:1" />
      <path
         id="path4496"
         d="M 298.55499,108.30824 C 299.13506,108.31577 300.35233,108.59077 301.13158,108.9804 C 301.73769,109.28345 302.05951,110.1641 302.36387,110.77281"
         style="opacity:1;fill:none;fill-opacity:1;stroke:#000000;stroke-width:2;stroke-miterlimit:4;stroke-dasharray:none;stroke-opacity:1" />
      <path
         id="path4498"
         d="M 295.75435,110.32471 C 295.91979,110.65559 296.34493,111.39385 296.53853,111.78104 C 296.80158,112.30716 297.06813,112.55516 297.21068,113.12535 C 297.32859,113.59698 297.43473,113.70459 297.43473,114.24561"
         style="opacity:1;fill:none;fill-opacity:1;stroke:#000000;stroke-width:2;stroke-miterlimit:4;stroke-dasharray:none;stroke-opacity:1" />
      <path
         id="path4500"
         d="M 291.72142,111.22091 C 291.83156,111.6615 292.143,112.65665 292.28155,113.3494 C 292.41941,114.03873 292.28889,114.32827 292.16952,114.80574 C 292.09594,115.10005 292.03349,115.30186 291.94547,115.47789"
         style="opacity:1;fill:none;fill-opacity:1;stroke:#000000;stroke-width:2;stroke-miterlimit:4;stroke-dasharray:none;stroke-opacity:1" />
      <path
         sodipodi:nodetypes="czzzzz"
         id="path4521"
         d="M 293.54223,95.073714 C 293.59993,90.258468 294.76799,85.473543 287.77745,81.898478 C 280.78692,78.323412 268.46876,89.946556 268.57155,96.651823 C 268.67433,103.35709 274.5061,103.40776 278.09697,104.1351 C 281.68784,104.86244 284.39763,105.28439 287.9085,104.29024 C 291.41938,103.29608 293.48452,99.888961 293.54223,95.073714 z"
         style="opacity:1;fill:#892ca0;fill-opacity:1;stroke:#000000;stroke-width:2;stroke-miterlimit:4;stroke-dasharray:none;stroke-opacity:1" />
      <path
         sodipodi:nodetypes="czzzzz"
         id="path4510"
         d="M 298.12374,97.545496 C 298.18144,92.73025 299.3495,87.945325 292.35896,84.37026 C 285.36843,80.795194 273.05027,92.418338 273.15306,99.123605 C 273.25584,105.82887 279.08761,105.87954 282.67848,106.60688 C 286.26935,107.33422 288.97914,107.75617 292.49001,106.76202 C 296.00089,105.76786 298.06603,102.36074 298.12374,97.545496 z"
         style="opacity:1;fill:#aa00d4;fill-opacity:1;stroke:#000000;stroke-width:2;stroke-miterlimit:4;stroke-dasharray:none;stroke-opacity:1" />
      <path
         sodipodi:nodetypes="cssss"
         id="path4523"
         d="M 257.4006,110.6138 C 261.19496,113.08394 266.99188,111.37493 271.58942,109.85232 C 275.51572,108.55201 280.72863,108.88537 283.38694,105.91054 C 289.47802,99.094198 276.95462,94.484538 270.94335,92.856959 C 262.32763,90.524216 249.27829,105.32617 257.4006,110.6138 z"
         style="opacity:1;fill:#892ca0;fill-opacity:1;stroke:#000000;stroke-width:2;stroke-miterlimit:4;stroke-dasharray:none;stroke-opacity:1" />
      <path
         sodipodi:nodetypes="cssss"
         id="path4512"
         d="M 261.98211,113.08559 C 265.77648,115.55573 271.57339,113.84672 276.17093,112.32411 C 280.09723,111.0238 285.31014,111.35716 287.96845,108.38232 C 294.05953,101.56598 281.53613,96.95632 275.52486,95.328741 C 266.90915,92.995998 253.8598,107.79796 261.98211,113.08559 z"
         style="opacity:1;fill:#aa00d4;fill-opacity:1;stroke:#000000;stroke-width:2;stroke-miterlimit:4;stroke-dasharray:none;stroke-opacity:1" />
      <path
         id="path4525"
         d="M 268.42171,102.37305 C 265.70375,102.12688 264.35404,105.63913 265.01073,107.92119 C 266.03464,110.5512 269.23316,110.52933 271.55552,110.42241 C 274.00609,110.57091 274.90375,107.67298 273.81385,105.80452 C 272.85407,103.71891 270.64926,102.41572 268.42171,102.37305 z"
         style="opacity:1;fill:#4400aa;fill-opacity:1;stroke:#000000;stroke-width:1.83664691;stroke-miterlimit:4;stroke-dasharray:none;stroke-opacity:1" />
      <path
         sodipodi:nodetypes="ccccccc"
         id="path4536"
         d="M 290.72522,89.464551 C 289.57486,90.519032 289.03162,92.10725 288.99845,93.639602 C 289.02892,95.626162 289.82995,96.140119 291.6204,96.630554 C 292.30289,96.837681 292.92329,96.389322 293.32048,95.875255 C 294.32381,94.62857 294.46281,92.889335 294.16843,91.368738 C 293.98721,90.794094 294.143,90.075555 293.62455,89.649914 C 292.45902,88.793826 291.86469,88.728361 290.72522,89.464551 z"
         style="opacity:1;fill:#4400aa;fill-opacity:1;stroke:#000000;stroke-width:2;stroke-miterlimit:4;stroke-dasharray:none;stroke-opacity:1" />
      <path
         sodipodi:nodetypes="cccccc"
         id="path4540"
         d="M 274.12657,96.996952 C 273.48008,96.86238 271.06492,97.898314 270.44099,98.067182 C 269.00741,98.566446 267.95995,99.593087 266.96791,100.6905 C 267.63197,100.6662 268.24104,100.35023 268.85333,100.09739 C 269.99213,99.612473 272.93707,98.429477 274.10116,98.02045 C 274.70744,97.834267 275.38453,96.706353 274.12657,96.996952 z"
         style="opacity:1;fill:#ffffff;fill-opacity:0.34883722;stroke:none;stroke-width:2;stroke-miterlimit:4;stroke-dasharray:none;stroke-opacity:1" />
      <path
         sodipodi:nodetypes="ccc"
         id="path4543"
         d="M 289.93307,86.216771 C 286.65911,85.117195 277.418,90.708281 279.90094,93.323492 C 281.53248,89.945495 288.03548,88.012366 289.93307,86.216771 z"
         style="opacity:1;fill:#ffffff;fill-opacity:0.36627909;stroke:none;stroke-width:2;stroke-miterlimit:4;stroke-dasharray:none;stroke-opacity:1" />
      <path
         sodipodi:nodetypes="ccc"
         id="path4550"
         d="M 282.88301,83.127415 C 280.03901,83.971046 276.54785,86.202393 274.12459,88.845031 C 271.02329,91.832824 281.12942,84.359499 282.88301,83.127415 z"
         style="opacity:1;fill:#ffffff;fill-opacity:0.29069764;stroke:none;stroke-width:2;stroke-miterlimit:4;stroke-dasharray:none;stroke-opacity:1" />
      <path
         sodipodi:nodetypes="ccc"
         id="path4558"
         d="M 267.04874,95.001356 C 262.90376,95.8284 258.52692,99.550378 257.82918,103.85806 C 259.80118,100.0406 261.03822,99.021866 267.04874,95.001356 z"
         style="opacity:1;fill:#ffffff;fill-opacity:0.24418604;stroke:none;stroke-width:2;stroke-miterlimit:4;stroke-dasharray:none;stroke-opacity:1" />
      <path
         id="path4568"
         d="M 275.53787,116.12756 C 271.48893,116.60061 268.74727,120.29151 267.55741,123.92684 C 267.38254,125.32957 269.88117,123.27436 270.33851,122.68987 C 272.01851,120.62692 274.16849,118.8984 275.59312,116.6625 C 275.64625,116.47798 275.58025,116.30586 275.53787,116.12756 z"
         style="opacity:1;fill:#ffffff;fill-opacity:0.24418604;stroke:none;stroke-width:2;stroke-miterlimit:4;stroke-dasharray:none;stroke-opacity:1" />
      <path
         sodipodi:nodetypes="cccc"
         id="path4583"
         d="M 304.82533,103.40625 C 303.80023,102.8511 302.94054,103.21389 301.94641,103.59334 C 302.35981,104.59825 303.82767,103.88779 304.85915,103.5855 C 304.85084,103.52518 304.83423,103.46645 304.82533,103.40625 z"
         style="opacity:1;fill:#ffffff;fill-opacity:0.24418604;stroke:none;stroke-width:2;stroke-miterlimit:4;stroke-dasharray:none;stroke-opacity:1" />
      <path
         sodipodi:nodetypes="ccccc"
         id="path4590"
         d="M 284.70494,112.83274 C 280.76868,115.28084 277.80587,118.91155 274.68976,122.27242 C 274.02084,122.34689 275.35584,121.11032 275.59386,120.73836 C 277.80099,117.82963 279.92478,114.79581 283.18034,112.98275 C 283.66568,112.81084 284.19528,112.7345 284.70494,112.83274 z"
         style="opacity:1;fill:#000000;fill-opacity:0.24418604;stroke:none;stroke-width:2;stroke-miterlimit:4;stroke-dasharray:none;stroke-opacity:1" />
      <path
         id="path4601"
         d="M 297.9337,106.33718 C 297.99619,106.89032 297.17383,106.84515 296.84782,107.12582 C 296.02135,107.53412 295.21128,108.02116 294.28348,108.15811 C 293.89849,108.17704 293.25802,108.51445 293.04854,108.37878 C 293.4385,107.85639 294.16032,107.82672 294.68147,107.49218 C 295.26918,107.17297 295.90306,106.95142 296.50056,106.65019 C 296.9687,106.53049 297.43405,106.22887 297.9337,106.33718 z"
         style="opacity:1;fill:#000000;fill-opacity:0.24418604;stroke:none;stroke-width:2;stroke-miterlimit:4;stroke-dasharray:none;stroke-opacity:1" />
      <path
         id="path4608"
         d="M 305.53827,104.83211 C 305.47075,105.07572 305.26,105.24137 305.11981,105.44267 C 304.80694,105.81568 304.30402,105.93077 303.8455,106.0066 C 303.44743,106.05589 303.01012,106.00668 302.70103,105.72733 C 302.37279,105.52976 302.66185,105.22754 302.93871,105.22576 C 303.49939,105.11316 304.08052,105.17336 304.63952,105.04149 C 304.94194,104.98459 305.24077,104.91037 305.53827,104.83211 z"
         style="opacity:1;fill:#000000;fill-opacity:0.24418604;stroke:none;stroke-width:2;stroke-miterlimit:4;stroke-dasharray:none;stroke-opacity:1" />
      <path
         id="path4616"
         d="M 287.47743,104.43603 C 287.79455,107.10628 284.80821,108.47432 282.65676,109.03678 C 280.97993,109.52947 277.83802,110.18491 276.85516,109.71371 C 279.40226,109.11756 281.22987,107.12727 283.3546,105.71226 C 284.25093,105.05747 286.65154,102.90393 287.47743,104.43603 z"
         style="opacity:1;fill:#000000;fill-opacity:0.24418604;stroke:none;stroke-width:2;stroke-miterlimit:4;stroke-dasharray:none;stroke-opacity:1" />
      <path
         id="path4625"
         d="M 291.59657,102.77253 C 291.01235,104.17354 292.7555,105.20695 293.71199,103.97794 C 295.07716,102.97878 295.87566,101.33251 296.12478,99.69358 C 295.51729,99.04532 294.84295,101.00147 294.13179,101.35279 C 293.34523,101.91268 292.44428,102.31043 291.59657,102.77253 z"
         style="opacity:1;fill:#000000;fill-opacity:0.24418604;stroke:none;stroke-width:2;stroke-miterlimit:4;stroke-dasharray:none;stroke-opacity:1" />
      <path
         sodipodi:nodetypes="ccccc"
         id="path4633"
         d="M 268.54524,104.11918 C 267.24154,104.33931 267.03279,104.80534 266.731,105.88222 C 266.74301,106.45938 266.50054,107.01771 266.56209,107.5967 C 267.87192,106.43886 270.44967,105.18902 269.78489,104.36114 C 269.42623,104.0533 268.96424,104.1753 268.54524,104.11918 z"
         style="opacity:1;fill:#ffffff;fill-opacity:0.4534884;stroke:none;stroke-width:2;stroke-miterlimit:4;stroke-dasharray:none;stroke-opacity:1" />
      <path
         id="path4644"
         d="M 291.12129,92.633122 C 291.04111,92.277153 291.21244,91.928956 291.32093,91.598079 C 291.45333,91.254008 291.81206,91.054364 292.1682,91.042913 C 292.5259,91.064309 292.53365,91.526773 292.54714,91.796543 C 292.57151,92.081909 292.4865,92.425531 292.18188,92.52462 C 291.8394,92.64559 291.46938,92.546759 291.12129,92.633122 z"
         style="opacity:1;fill:#ffffff;fill-opacity:0.49418604;stroke:none;stroke-width:2;stroke-miterlimit:4;stroke-dasharray:none;stroke-opacity:1" />
    </g>
  </g>
</svg>
