<?xml version="1.0" encoding="UTF-8" standalone="no"?>
<!-- Created with Inkscape (http://www.inkscape.org/) -->
<svg
   xmlns:dc="http://purl.org/dc/elements/1.1/"
   xmlns:cc="http://creativecommons.org/ns#"
   xmlns:rdf="http://www.w3.org/1999/02/22-rdf-syntax-ns#"
   xmlns:svg="http://www.w3.org/2000/svg"
   xmlns="http://www.w3.org/2000/svg"
   xmlns:sodipodi="http://sodipodi.sourceforge.net/DTD/sodipodi-0.dtd"
   xmlns:inkscape="http://www.inkscape.org/namespaces/inkscape"
   width="250"
   height="250"
   id="svg2"
   sodipodi:version="0.32"
   inkscape:version="0.46"
   sodipodi:docname="cabbageaward3.svg"
   inkscape:output_extension="org.inkscape.output.svg.inkscape"
   inkscape:export-filename="P:\pidgey2\data\images\yellowaward3.png"
   inkscape:export-xdpi="92.160004"
   inkscape:export-ydpi="92.160004"
   version="1.0">
  <defs
     id="defs4">
    <inkscape:perspective
       sodipodi:type="inkscape:persp3d"
       inkscape:vp_x="0 : 125 : 1"
       inkscape:vp_y="0 : 1000 : 0"
       inkscape:vp_z="250 : 125 : 1"
       inkscape:persp3d-origin="125 : 83.333333 : 1"
       id="perspective3645" />
  </defs>
  <sodipodi:namedview
     id="base"
     pagecolor="#cb90ff"
     bordercolor="#666666"
     borderopacity="1.0"
     gridtolerance="10000"
     guidetolerance="10"
     objecttolerance="10"
     inkscape:pageopacity="0"
     inkscape:pageshadow="2"
     inkscape:zoom="2.42"
     inkscape:cx="123.86059"
     inkscape:cy="138.72824"
     inkscape:document-units="px"
     inkscape:current-layer="layer1"
     showgrid="false"
     inkscape:window-width="1072"
     inkscape:window-height="810"
     inkscape:window-x="989"
     inkscape:window-y="75" />
  <metadata
     id="metadata7">
    <rdf:RDF>
      <cc:Work
         rdf:about="">
        <dc:format>image/svg+xml</dc:format>
        <dc:type
           rdf:resource="http://purl.org/dc/dcmitype/StillImage" />
      </cc:Work>
    </rdf:RDF>
  </metadata>
  <g
     inkscape:label="Layer 1"
     inkscape:groupmode="layer"
     id="layer1">
    <path
       style="opacity:1;fill:#112b00;fill-opacity:1;stroke:#000000;stroke-width:2.76934791000000000;stroke-miterlimit:4;stroke-dasharray:none;stroke-opacity:1"
       d="M 110.32054,143.90266 C 111.21622,185.94952 106.76804,209.48235 97.026599,243.25409 C 105.96333,232.94495 116.95827,236.20503 126.74471,226.71377 C 139.34038,242.80673 154.69164,240.03576 157.5315,245.56653 C 153.93144,234.37238 144.04575,175.65873 147.78908,142.10284 C 142.75582,143.52354 115.17188,141.97228 110.32054,143.90266 z"
       id="path3306"
       sodipodi:nodetypes="cccccc"
       inkscape:transform-center-x="4.4505107"
       inkscape:transform-center-y="7.6872443" />
    <path
       style="opacity:1;fill:#112b00;fill-opacity:1;stroke:#000000;stroke-width:2.76934791000000000;stroke-miterlimit:4;stroke-dasharray:none;stroke-opacity:1"
       d="M 78.757217,130.76525 C 63.597743,169.99446 50.535566,190.06832 28.684476,217.59933 C 40.869898,211.46263 53.088881,216.54617 65.749197,211.48901 C 71.279593,231.16257 83.241926,236.54927 83.765464,242.74444 C 84.692268,231.02222 97.874351,172.95972 114.09579,143.34765 C 108.90038,142.74779 83.978164,130.82455 78.757217,130.76525 z"
       id="path3304"
       sodipodi:nodetypes="cccccc" />
    <path
       style="opacity:1;fill:#112b00;fill-opacity:1;stroke:#000000;stroke-width:2.76934791000000000;stroke-miterlimit:4;stroke-dasharray:none;stroke-opacity:1"
       d="M 176.84239,129.65139 C 192.00186,168.8806 205.06404,188.95446 226.91513,216.48546 C 214.72971,210.34876 204.93828,218.26445 192.27797,213.20729 C 186.74757,232.88085 172.35768,235.43539 171.83415,241.63056 C 170.90734,229.90834 157.72526,171.84586 141.50382,142.23378 C 146.69923,141.63392 171.62144,129.71067 176.84239,129.65139 z"
       id="path3274"
       sodipodi:nodetypes="cccccc" />
    <path
       style="fill:#225500;fill-opacity:1;stroke:#000000;stroke-width:2.76934791000000000;stroke-miterlimit:4;stroke-dasharray:none;stroke-opacity:1"
       d="M 87.897629,67.289325 C 85.498897,63.426136 83.291944,59.267772 80.017598,56.173264 C 73.62588,51.643923 65.579973,51.242693 58.977201,47.144466 C 55.874325,45.316075 52.450357,41.999844 53.022251,37.843392 C 54.073219,33.434345 58.198337,31.219221 60.982232,28.190913 C 67.640965,23.094604 74.150939,17.720424 81.319586,13.453482 C 83.888043,11.134896 87.250834,8.6007525 90.726939,10.354445 C 97.193488,11.78368 103.48212,19.131511 105.67653,24.904847 C 109.13377,31.881201 113.26191,36.924747 114.14534,45.231211 C 114.85563,52.559277 110.55022,60.201655 103.83999,62.320172 C 100.21617,63.141406 91.265714,67.994844 87.897629,67.289325 z"
       id="path3173"
       sodipodi:nodetypes="ccccccccccc" />
    <path
       style="fill:#112b00;fill-opacity:0.75000000000000000;stroke:#000000;stroke-width:2.76934791000000000;stroke-miterlimit:4;stroke-dasharray:none;stroke-opacity:1"
       d="M 95.036651,50.440805 C 92.010588,47.319403 88.594734,44.540393 86.245634,40.753257 C 84.97184,39.236991 83.514574,37.695587 83.107508,35.624218 C 82.242884,34.336517 83.128614,31.908429 84.773898,32.265542 C 86.224999,32.520046 87.733663,32.709605 89.072755,33.440515 C 90.313793,34.12815 91.507518,34.922229 92.639689,35.798631 C 94.430915,37.271334 95.275156,39.594573 96.266907,41.684029 C 101.55688,56.400946 111.74678,69.474327 95.036651,50.440805 z"
       id="path3175"
       sodipodi:nodetypes="cccccccc" />
    <path
       style="fill:#225500;fill-opacity:1;stroke:#000000;stroke-width:2.76934791000000000;stroke-miterlimit:4;stroke-dasharray:none;stroke-opacity:1"
       d="M 115.35075,53.59584 C 115.69649,48.971893 116.36344,44.242863 115.577,39.643593 C 113.16901,31.85344 107.07673,26.213173 104.25386,18.622189 C 102.87098,15.131561 102.09501,10.258998 104.94498,7.3705536 C 108.3174,4.6006317 112.839,5.589631 116.77606,5.0518349 C 124.95303,5.4530392 133.17356,5.5373823 141.27237,6.9279348 C 144.63021,6.8053923 148.73686,7.0391207 150.45625,10.718049 C 154.71347,16.121075 155.41267,26.058316 153.80317,32.048394 C 152.49148,39.819805 152.82334,46.516042 148.72047,53.629514 C 145.04655,59.859376 137.24883,63.016835 130.75114,60.241034 C 127.42857,58.488216 117.59058,56.37942 115.35075,53.59584 z"
       id="path3192"
       sodipodi:nodetypes="ccccccccccc" />
    <path
       style="fill:#112b00;fill-opacity:0.75000000000000000;stroke:#000000;stroke-width:2.76934791000000000;stroke-miterlimit:4;stroke-dasharray:none;stroke-opacity:1"
       d="M 129.10559,43.741567 C 128.52983,39.285479 127.44997,34.840539 127.7908,30.309222 C 127.6653,28.27443 127.41011,26.09846 128.28644,24.200984 C 128.35054,22.616639 130.44901,21.29438 131.53594,22.663937 C 132.52951,23.82434 133.60584,24.971788 134.23622,26.432509 C 134.81453,27.794318 135.29419,29.208482 135.67791,30.646611 C 136.23527,32.989606 135.55709,35.374379 135.12988,37.67303 C 130.78826,52.741373 131.24713,69.760754 129.10559,43.741567 z"
       id="path3194"
       sodipodi:nodetypes="cccccccc" />
    <path
       style="fill:#225500;fill-opacity:1;stroke:#000000;stroke-width:2.76934791000000000;stroke-miterlimit:4;stroke-dasharray:none;stroke-opacity:1"
       d="M 147.93251,59.83029 C 150.40724,56.022422 150.28883,51.403901 151.77393,47.006786 C 153.35994,38.978794 153.67161,31.714157 154.80552,23.634482 C 155.25365,19.873396 156.87639,15.245842 160.69763,14.287665 C 164.91438,13.713614 168.35485,17.006386 172.0089,18.665025 C 178.88364,23.421339 185.94511,27.927423 192.28671,33.496203 C 195.24499,35.201185 198.68248,37.61776 198.43638,41.722976 C 199.57121,48.686155 195.49867,57.647341 191.28936,61.953787 C 186.49899,67.959606 183.63437,73.923006 176.74252,77.855234 C 170.63706,81.2555 162.4152,79.777808 158.10861,73.875861 C 156.06335,70.569897 148.55738,63.442745 147.93251,59.83029 z"
       id="path3196"
       sodipodi:nodetypes="ccccccccccc"
       inkscape:transform-center-x="-6.4296171"
       inkscape:transform-center-y="3.7300059" />
    <path
       style="fill:#112b00;fill-opacity:0.75000000000000000;stroke:#000000;stroke-width:2.76934791000000000;stroke-miterlimit:4;stroke-dasharray:none;stroke-opacity:1"
       d="M 164.45188,58.735649 C 166.0516,54.575838 167.2106,50.153796 169.63749,46.423298 C 170.48667,44.597897 171.29025,42.580599 172.94022,41.41409 C 173.7412,40.080051 176.17619,40.06952 176.47059,41.838756 C 176.78279,43.376971 177.17254,44.94862 177.02967,46.550397 C 176.88836,48.038649 176.63719,49.518924 176.29186,50.968165 C 175.67069,53.292695 173.96255,54.987005 172.51176,56.742267 C 161.67005,67.417419 154.057,82.366792 164.45188,58.735649 z"
       id="path3198"
       sodipodi:nodetypes="cccccccc"
       inkscape:transform-center-x="-2.3778743"
       inkscape:transform-center-y="10.528354" />
    <path
       style="fill:#225500;fill-opacity:1;stroke:#000000;stroke-width:2.76934791000000000;stroke-miterlimit:4;stroke-dasharray:none;stroke-opacity:1"
       d="M 82.582124,91.573032 C 78.264102,91.183808 73.84925,90.450309 69.549598,91.273146 C 62.262488,93.818635 56.968458,100.31697 49.865686,103.30739 C 46.599207,104.7733 42.044304,105.5838 39.357853,102.52102 C 36.784279,98.899481 37.726848,94.063309 37.240743,89.846556 C 37.649338,81.094958 37.762118,72.295428 39.094584,63.631611 C 38.993996,60.036624 39.229309,55.641495 42.673084,53.816165 C 47.737908,49.281242 57.023649,48.573852 62.612611,50.321547 C 69.866834,51.75782 76.123481,51.430256 82.751555,55.851697 C 88.555971,59.810286 91.473264,68.170614 88.853389,75.114748 C 87.202261,78.664239 85.191658,89.186862 82.582124,91.573032 z"
       id="path3200"
       sodipodi:nodetypes="ccccccccccc"
       inkscape:transform-center-x="-3.2987788"
       inkscape:transform-center-y="-5.544981" />
    <path
       style="fill:#112b00;fill-opacity:0.75000000000000000;stroke:#000000;stroke-width:2.76934791000000000;stroke-miterlimit:4;stroke-dasharray:none;stroke-opacity:1"
       d="M 73.433647,78.96938 C 69.268622,79.567279 65.111926,80.704869 60.880419,80.321291 C 58.979105,80.447226 56.945367,80.711397 55.176471,79.765468 C 53.696724,79.690296 52.470212,77.438459 53.754076,76.28059 C 54.842171,75.22179 55.918509,74.074363 57.285642,73.405588 C 58.560163,72.792147 59.883185,72.284534 61.228202,71.879723 C 63.419208,71.292774 65.644134,72.028614 67.789645,72.495431 C 81.847755,77.205339 97.748274,76.784487 73.433647,78.96938 z"
       id="path3202"
       sodipodi:nodetypes="cccccccc"
       inkscape:transform-center-x="-8.2443511"
       inkscape:transform-center-y="-7.9226318" />
    <path
       style="fill:#225500;fill-opacity:1;stroke:#000000;stroke-width:2.76934791000000000;stroke-miterlimit:4;stroke-dasharray:none;stroke-opacity:1"
       d="M 169.27768,112.25579 C 172.47037,115.39221 176.79427,117.07814 180.66528,119.24389 C 188.74314,120.16442 194.68402,121.79789 201.86128,124.40632 C 205.28276,125.38666 209.3486,127.72936 209.72254,131.91154 C 209.68778,136.46171 206.17774,139.66926 204.15176,143.32275 C 198.82585,149.97685 193.70648,156.86261 187.70005,162.84207 C 185.72457,165.75127 183.02604,169.07327 179.25889,168.26107 C 172.66073,168.53 164.91216,163.00673 161.49084,157.96333 C 156.57442,152.07538 151.43871,148.23597 148.72398,140.3972 C 146.39607,133.46404 148.86785,124.94076 154.90949,121.16474 C 158.24441,119.43901 165.84974,112.43362 169.27768,112.25579 z"
       id="path3204"
       sodipodi:nodetypes="ccccccccccc" />
    <path
       style="fill:#112b00;fill-opacity:0.75000000000000000;stroke:#000000;stroke-width:2.76934791000000000;stroke-miterlimit:4;stroke-dasharray:none;stroke-opacity:1"
       d="M 168.07308,129.92639 C 171.70903,132.18187 175.6469,134.00504 178.77438,137.08031 C 180.35014,138.22619 182.10965,139.34948 182.96795,141.25638 C 184.09534,142.28515 183.77817,144.86959 182.10085,144.94435 C 180.63503,145.06899 179.12781,145.27144 177.66424,144.90482 C 176.30553,144.5551 174.96898,144.08992 173.67377,143.52902 C 171.60536,142.55801 170.26628,140.51856 168.83622,138.74389 C 160.40989,125.80983 147.59341,115.72684 168.07308,129.92639 z"
       id="path3206"
       sodipodi:nodetypes="cccccccc" />
    <path
       style="fill:#225500;fill-opacity:1;stroke:#000000;stroke-width:2.76934791000000000;stroke-miterlimit:4;stroke-dasharray:none;stroke-opacity:1"
       d="M 147.22677,132.51375 C 147.92481,137.09191 148.33445,141.85438 150.12624,146.11854 C 154.20583,153.06542 161.38201,156.98104 165.81987,163.62827 C 167.94293,166.66319 169.78566,171.19538 167.66423,174.73001 C 165.00906,178.28341 160.39775,178.48151 156.69533,180.0123 C 148.66625,181.71755 140.66575,183.74164 132.49143,184.46629 C 129.25856,185.44549 125.21898,186.27062 122.7271,183.13907 C 117.38569,178.98368 114.48526,169.51433 114.70886,163.28598 C 114.24507,155.40436 112.42584,148.98773 114.81921,141.02986 C 116.99364,134.03983 123.85888,128.97646 130.78829,130.007 C 134.40618,130.8577 144.42974,130.38486 147.22677,132.51375 z"
       id="path3208"
       sodipodi:nodetypes="ccccccccccc" />
    <path
       style="fill:#112b00;fill-opacity:0.75000000000000000;stroke:#000000;stroke-width:2.76934791000000000;stroke-miterlimit:4;stroke-dasharray:none;stroke-opacity:1"
       d="M 136.07464,145.60546 C 137.62986,149.78455 139.67206,153.82369 140.35415,158.31065 C 140.9309,160.25416 141.66513,162.30153 141.23846,164.36836 C 141.53042,165.9231 139.78852,167.74453 138.427,166.69322 C 137.20288,165.82108 135.90132,164.98271 134.96269,163.72593 C 134.09674,162.55185 133.31486,161.30165 132.62079,160.00362 C 131.55583,157.8715 131.68117,155.38227 131.58208,153.04098 C 132.42888,137.29824 128.17851,120.89097 136.07464,145.60546 z"
       id="path3210"
       sodipodi:nodetypes="cccccccc" />
    <path
       style="fill:#225500;fill-opacity:1;stroke:#000000;stroke-width:2.76934791000000000;stroke-miterlimit:4;stroke-dasharray:none;stroke-opacity:1"
       d="M 115.09937,137.84169 C 113.54785,142.17288 111.66047,146.50779 111.20152,151.15759 C 111.45633,159.35862 115.81266,166.61108 116.51798,174.74646 C 116.9237,178.51307 116.38263,183.42186 112.88664,185.33114 C 108.92076,186.96878 104.84413,184.65309 100.92545,183.97876 C 93.187176,181.12186 85.323526,178.55575 77.921251,174.77342 C 74.667773,173.87585 70.789928,172.41011 70.111105,168.36116 C 67.452571,161.89104 69.403422,152.14693 72.527674,146.88725 C 75.83619,139.82872 77.284401,133.30475 83.096906,127.72121 C 88.26479,122.85561 96.578075,122.18405 102.07897,126.81121 C 104.80388,129.49716 113.68507,134.49428 115.09937,137.84169 z"
       id="path3212"
       sodipodi:nodetypes="ccccccccccc"
       inkscape:transform-center-x="7.6387536"
       inkscape:transform-center-y="-3.6444301" />
    <path
       style="fill:#112b00;fill-opacity:0.75000000000000000;stroke:#000000;stroke-width:2.76934791000000000;stroke-miterlimit:4;stroke-dasharray:none;stroke-opacity:1"
       d="M 99.304744,143.13653 C 98.681469,147.58529 98.544738,152.17576 97.022355,156.41958 C 96.605949,158.40948 96.276687,160.57403 94.935458,162.12934 C 94.45599,163.62981 92.094098,164.26384 91.412724,162.62144 C 90.765725,161.20789 90.035936,159.78177 89.816568,158.18993 C 89.62106,156.70873 89.534006,155.20712 89.545312,153.71152 C 89.62876,151.2954 90.908475,149.21274 91.92471,147.1368 C 100.06485,133.99437 104.11462,117.52906 99.304744,143.13653 z"
       id="path3214"
       sodipodi:nodetypes="cccccccc"
       inkscape:transform-center-x="5.4401982"
       inkscape:transform-center-y="-9.8402252" />
    <path
       style="fill:#225500;fill-opacity:1;stroke:#000000;stroke-width:2.76934791000000000;stroke-miterlimit:4;stroke-dasharray:none;stroke-opacity:1"
       d="M 168.81844,82.467479 C 173.09801,81.739181 176.2971,77.301367 180.28786,75.400944 C 186.79415,71.062569 191.73302,67.415803 197.96087,62.692659 C 200.80472,60.432518 205.04606,58.478657 208.33916,60.764215 C 211.64759,63.621225 211.81357,68.558328 213.22824,72.528025 C 214.78802,81.129982 216.64573,89.702708 217.28885,98.45613 C 218.1902,101.92088 218.94431,106.24857 216.00868,108.9031 C 212.10485,114.60377 203.24707,117.66948 197.4298,117.40437 C 191.13645,119.01492 185.21668,121.02342 176.63975,117.1942 C 170.11902,114.83765 165.41748,107.46763 166.4088,100.05411 C 167.21843,96.184771 166.81817,85.452827 168.81844,82.467479 z"
       id="path3216"
       sodipodi:nodetypes="ccccccccccc"
       inkscape:transform-center-x="0.5660728"
       inkscape:transform-center-y="4.2188502" />
    <path
       style="fill:#112b00;fill-opacity:0.75000000000000000;stroke:#000000;stroke-width:2.76934791000000000;stroke-miterlimit:4;stroke-dasharray:none;stroke-opacity:1"
       d="M 181.00192,94.459697 C 184.91225,92.81216 188.69383,90.642739 192.88813,89.931127 C 194.70604,89.321754 196.62164,88.544253 198.55059,89.009542 C 200.00416,88.703435 201.69844,90.57563 200.71073,92.028747 C 199.89096,93.335542 199.10242,94.725366 197.92452,95.724941 C 196.82418,96.647077 195.65308,97.478869 194.43765,98.216494 C 192.44152,99.347684 190.11675,99.203221 187.92922,99.299615 C 173.22667,98.32805 157.88229,102.81014 181.00192,94.459697 z"
       id="path3218"
       sodipodi:nodetypes="cccccccc"
       inkscape:transform-center-x="6.3299937"
       inkscape:transform-center-y="8.1100064" />
    <path
       style="fill:#225500;fill-opacity:1;stroke:#000000;stroke-width:2.76934791000000000;stroke-miterlimit:4;stroke-dasharray:none;stroke-opacity:1"
       d="M 93.296297,124.75614 C 89.408592,126.805 85.272145,128.61225 81.983744,131.68965 C 76.964659,137.89154 75.556712,146.38118 70.909813,152.86264 C 68.816403,155.92107 65.303329,159.12872 61.526557,157.98631 C 57.577481,156.30277 56.056738,151.63838 53.609938,148.29306 C 49.74645,140.56797 45.606395,132.96502 42.576885,124.80543 C 40.759808,121.78021 38.845338,117.884 40.917626,114.41974 C 43.074481,107.73912 50.691274,102.00967 56.322176,100.42373 C 63.305265,97.451176 70.342275,88.812658 76.242764,94.051411 C 83.122777,94.241212 89.647981,99.795995 90.746276,107.1922 C 91.040322,111.14493 94.38366,121.27155 93.296297,124.75614 z"
       id="path3220"
       sodipodi:nodetypes="ccccccccccc"
       inkscape:transform-center-x="2.6226525"
       inkscape:transform-center-y="-3.9246312" />
    <path
       style="fill:#112b00;fill-opacity:0.75000000000000000;stroke:#000000;stroke-width:2.76934791000000000;stroke-miterlimit:4;stroke-dasharray:none;stroke-opacity:1"
       d="M 78.347668,117.15088 C 75.066339,119.96126 72.051988,123.2295 68.241133,125.23545 C 66.672445,126.39239 65.05683,127.74086 63.085549,127.90621 C 61.781288,128.65822 59.646047,127.40524 60.188768,125.70465 C 60.61143,124.19698 60.98134,122.61983 61.830905,121.29244 C 62.627745,120.06354 63.517107,118.8986 64.474808,117.8096 C 66.069785,116.09776 68.33071,115.50077 70.394055,114.71705 C 84.708777,110.99687 98.132035,101.86335 78.347668,117.15088 z"
       id="path3222"
       sodipodi:nodetypes="cccccccc"
       inkscape:transform-center-x="-3.4139144"
       inkscape:transform-center-y="-9.824667" />
    <path
       style="opacity:1;fill:#225500;fill-opacity:1;stroke:#000000;stroke-width:2.76934791000000000;stroke-miterlimit:4;stroke-dasharray:none;stroke-opacity:1"
       d="M 91.52355,183.61429 C 89.237526,199.19021 81.92428,213.0851 79.375057,228.57712 C 77.119494,207.55619 83.12689,200.67211 91.397824,184.30329 C 91.462188,184.07913 91.506552,183.84808 91.52355,183.61429 z"
       id="path3308"
       sodipodi:nodetypes="cccc" />
    <path
       style="opacity:1;fill:#225500;fill-opacity:1;stroke:#000000;stroke-width:2.76934791000000000;stroke-miterlimit:4;stroke-dasharray:none;stroke-opacity:1"
       d="M 141.68034,187.1336 C 146.9251,202.53864 144.26031,218.41779 149.09318,233.85148 C 134.57845,215.22492 139.21839,206.39185 141.87809,187.82502 C 141.84643,187.59058 141.78318,187.35782 141.68034,187.1336 z"
       id="path3317"
       sodipodi:nodetypes="cccc" />
    <path
       style="opacity:1;fill:#225500;fill-opacity:1;stroke:#000000;stroke-width:2.76934791000000000;stroke-miterlimit:4;stroke-dasharray:none;stroke-opacity:1"
       d="M 187.73543,169.30002 C 198.27906,181.61529 203.63431,196.71399 213.90955,209.17778 C 195.57834,196.72196 194.75618,187.38236 188.18294,169.86398 C 188.05537,169.6622 187.907,169.47136 187.73543,169.30002 z"
       id="path3319"
       sodipodi:nodetypes="cccc" />
    <path
       sodipodi:type="arc"
       style="fill:#d4aa00;fill-opacity:1;stroke:#000000;stroke-width:2.22193979999999990;stroke-miterlimit:4;stroke-dasharray:none;stroke-opacity:1"
       id="path3416"
       sodipodi:cx="145.24794"
       sodipodi:cy="104.75207"
       sodipodi:rx="36.983471"
       sodipodi:ry="39.049587"
       d="M 182.23141,104.75207 A 36.983471,39.049587 0 1 1 108.26447,104.75207 A 36.983471,39.049587 0 1 1 182.23141,104.75207 z"
       transform="matrix(1.2729713,0,0,1.2108588,-60.714483,-29.072457)" />
    <path
       style="opacity:1;fill:#ffffff;fill-opacity:0.33720931;stroke:none;stroke-width:2;stroke-miterlimit:4;stroke-dasharray:none;stroke-opacity:1"
       d="M 134.63178,55.895099 C 110.86663,49.438385 82.677762,69.542645 81.056348,94.253857 C 85.339058,81.083326 110.71273,53.350352 134.63178,55.895099 z"
       id="path4398"
       sodipodi:nodetypes="ccc" />
    <path
       style="opacity:1;fill:#000000;fill-opacity:0.22674417;stroke:none;stroke-width:2;stroke-miterlimit:4;stroke-dasharray:none;stroke-opacity:1"
       d="M 113.38866,139.42018 C 137.1538,145.87689 165.34266,125.77264 166.96408,101.06142 C 168.64858,107.84658 136.07353,141.91695 113.38866,139.42018 z"
       id="path4403"
       sodipodi:nodetypes="ccc" />
    <g
       id="g5701"
       transform="matrix(0.2472845,0,0,0.2579282,92.385633,66.567759)">
      <path
         id="path5724"
         d="M 182.95837,123.3492 C 193.99713,118.50991 199.51452,108.92747 205.11054,100.32407 C 210.8982,91.712835 218.4106,82.750998 216.22797,71.890941 C 215.0469,65.498017 212.85402,59.105064 210.21514,52.878176 C 205.80227,45.779149 197.56946,40.577072 192.73864,33.638912 C 186.73301,25.207394 176.14245,18.94446 164.64663,16.499747 C 152.38667,13.487524 140.34558,17.67096 131.5347,23.15517 C 124.07037,27.531509 118.95245,33.780209 115.04958,40.45268 C 109.82293,48.351163 102.50822,55.395153 99.307064,64.175642 C 97.997724,69.367173 97.540164,74.972869 99.057304,80.399733 C 101.95881,86.528171 106.93096,92.413645 114.17377,96.012765 C 124.16751,101.66227 135.0081,106.18753 145.72928,110.73277 C 152.39183,112.89576 158.67504,116.47374 165.86924,116.6854 C 172.29326,116.73315 178.92814,118.76231 182.95837,123.3492 z"
         style="opacity:1;fill:#225500;fill-opacity:1;stroke:#000000;stroke-width:3.47201204;stroke-miterlimit:4;stroke-dasharray:none;stroke-opacity:1" />
      <path
         id="path3182"
         d="M 200.3849,100.39057 C 187.94478,94.093975 172.92258,92.011995 156.74392,92.011995 C 143.15265,92.011995 136.38924,97.630645 125.89425,106.48407 C 114.51576,116.0828 113.10293,136.15788 113.10293,149.90028 C 113.10293,168.17935 129.58255,181.81639 140.94287,193.3165 C 153.85984,206.39238 182.26286,212.24249 199.63249,209.31193 C 210.89573,207.41163 224.85298,196.72984 232.73944,188.74636 C 241.21477,180.16676 245.53076,170.08245 245.53076,158.27884 C 245.53076,144.80641 243.06113,133.47493 237.25402,121.71783 C 234.46388,116.06889 230.03534,112.88695 226.71999,109.53081 C 222.4891,105.24786 217.6399,103.01782 213.17623,99.628878 C 207.77729,95.529855 198.02434,95.820435 191.35574,95.820435 C 189.16585,95.820435 189.90154,95.329735 189.09844,95.058745"
         style="opacity:1;fill:#225500;fill-opacity:1;stroke:#000000;stroke-width:2.99381113;stroke-miterlimit:4;stroke-dasharray:none;stroke-opacity:1" />
      <path
         id="path3176"
         d="M 104.62162,56.393227 C 97.855814,48.219124 87.558938,45.736774 78.192233,42.969405 C 68.781586,40.043066 58.705261,35.74881 48.635996,40.009675 C 42.688875,42.430886 36.933697,45.700581 31.423458,49.307176 C 25.407896,54.596607 21.948236,62.664906 16.167263,68.268828 C 9.1676244,75.192173 5.1312406,85.475135 4.9524004,95.662725 C 4.3707197,106.61812 10.693578,115.77958 17.659252,121.94103 C 23.299994,127.22123 30.302983,130.11467 37.484501,131.89432 C 46.100684,134.5097 54.288173,139.0674 63.371465,139.78682 C 68.631353,139.72295 74.129434,138.85209 79.080218,136.36526 C 84.445609,132.56048 89.183591,127.07362 91.283702,120.19429 C 94.841162,110.54912 97.152704,100.44538 99.506194,90.437295 C 100.33009,84.365973 102.59186,78.296088 101.43123,72.215639 C 100.25851,66.817722 100.95846,60.799561 104.62162,56.393227 z"
         style="opacity:1;fill:#225500;fill-opacity:1;stroke:#000000;stroke-width:3.20476341;stroke-miterlimit:4;stroke-dasharray:none;stroke-opacity:1" />
      <path
         id="path3180"
         d="M 92.7873,114.86265 C 91.584626,113.23935 71.280155,122.62767 67.20465,124.00289 C 58.637509,126.89374 51.568727,135.30285 45.384159,139.99834 C 38.757898,145.02917 35.600176,160.57601 34.097695,168.18079 C 33.798499,169.69519 33.596084,171.22754 33.345272,172.75092 C 31.863263,181.75237 31.868846,189.68077 33.345272,198.64831 C 35.42926,211.30608 47.731192,215.8317 57.423059,220.73726 C 68.979701,226.58667 87.085795,223.78401 99.559174,223.78401 C 101.56565,223.78401 103.57213,223.78401 105.57862,223.78401 C 114.50676,223.78401 130.40049,218.46906 134.17098,210.83531 C 138.683,201.70026 140.19043,195.30485 140.19043,184.93792 C 140.19043,176.02786 137.71882,167.31297 135.67586,159.04053 C 133.73243,151.17121 130.97268,142.79056 126.64667,136.95158 C 123.06621,132.11888 121.08781,128.04446 116.11264,125.52627 C 112.77744,123.83815 108.99576,121.16235 105.57862,119.43276 C 100.60329,116.91449 95.005225,116.20976 89.025151,112.57758"
         style="opacity:1;fill:#225500;fill-opacity:1;stroke:#000000;stroke-width:2.99381113;stroke-miterlimit:4;stroke-dasharray:none;stroke-opacity:1" />
      <path
         sodipodi:nodetypes="ccccccccc"
         id="path3168"
         d="M 81.124618,122.86035 C 70.686564,117.20844 116.68174,114.29525 111.45737,103.38453 C 89.409874,93.579145 41.092258,84.371843 81.107256,60.229688 C 89.993532,57.563893 99.235384,56.35732 108.33981,54.783169 C 119.94378,54.244636 131.65187,54.62228 143.15906,56.159761 C 178.14999,65.899105 161.67794,75.166265 149.2386,93.258645 C 138.67701,100.09697 154.08561,103.71531 142.72698,108.34567 C 133.3359,111.61406 123.67451,113.93447 113.87439,115.50237 C 102.8975,117.66979 91.994839,120.20348 81.124618,122.86035 z"
         style="opacity:1;fill:#2d5016;fill-opacity:1;stroke:#000000;stroke-width:2.99381113;stroke-miterlimit:4;stroke-dasharray:none;stroke-opacity:1" />
      <path
         sodipodi:nodetypes="cccccc"
         id="path3170"
         d="M 169.48881,127.20518 C 167.30166,122.03128 163.26624,117.72742 162.2373,112.04639 C 160.71081,105.70775 165.06537,111.94055 164.10288,105.48852 C 155.78657,108.29684 147.32453,67.927635 187.17939,81.743955 C 197.59262,90.056815 202.73652,104.86955 205.70283,117.66354 C 220.07064,156.90513 155.87262,182.24788 169.48881,127.20518 z"
         style="opacity:1;fill:#2d5016;fill-opacity:1;stroke:#000000;stroke-width:2.99381113;stroke-miterlimit:4;stroke-dasharray:none;stroke-opacity:1" />
      <path
         sodipodi:nodetypes="cccccc"
         id="path3172"
         d="M 126.72542,165.08672 C 117.3267,166.95896 107.50859,167.35562 98.733554,171.61871 C 84.989888,204.42961 111.55118,198.36581 130.24015,197.19385 C 138.75856,196.34013 146.9278,193.46833 154.58206,189.70305 C 161.94776,187.15354 169.80509,185.72019 176.43812,181.36289 C 199.78634,149.39252 144.10794,155.56976 126.72542,165.08672 z"
         style="opacity:1;fill:#2d5016;fill-opacity:1;stroke:#000000;stroke-width:2.99381113;stroke-miterlimit:4;stroke-dasharray:none;stroke-opacity:1" />
      <path
         sodipodi:nodetypes="ccccccc"
         id="path3174"
         d="M 52.813759,92.739195 C 47.05694,109.56438 45.021914,127.96379 48.35731,145.52935 C 51.177606,160.37256 56.878789,179.75818 69.194796,187.36264 C 72.938396,189.30739 77.080703,192.71616 81.50912,191.11032 C 85.57951,188.44489 94.762868,173.00881 94.98423,168.22799 C 95.821686,157.51617 104.97308,141.94527 101.95461,131.86953 C 109.07674,126.95983 70.167168,72.458309 52.813759,92.739195 z"
         style="opacity:1;fill:#2d5016;fill-opacity:1;stroke:#000000;stroke-width:3.33670497;stroke-miterlimit:4;stroke-dasharray:none;stroke-opacity:1" />
      <path
         sodipodi:nodetypes="cccccccccccccc"
         id="path2396"
         d="M 114.13836,77.574721 C 101.48924,78.99779 88.537837,85.623555 82.849556,97.662825 C 77.868551,107.10855 73.05882,116.82553 70.214372,127.15979 C 69.294504,133.7505 69.577222,140.50759 70.249886,147.08474 C 72.595969,153.99011 76.630476,160.28393 81.132861,165.91355 C 88.51184,173.53861 98.776424,177.12483 108.94881,178.87939 C 116.41197,180.24227 123.78518,182.56113 131.37635,182.90143 C 138.9892,182.78473 145.93629,179.21253 152.72452,176.16039 C 158.47441,172.20237 163.62935,167.48022 168.79288,162.80578 C 174.57553,155.43009 176.6109,145.97434 179.01497,137.09016 C 179.55895,129.72638 180.86491,122.06863 179.1424,114.81699 C 177.09955,108.1968 173.93778,101.77222 168.66902,97.200045 C 163.85726,92.419545 159.19519,87.210763 153.53158,83.516284 C 141.27923,78.156275 127.7489,76.863389 114.13836,77.574721 z"
         style="opacity:1;fill:#217821;fill-opacity:1;stroke:#000000;stroke-width:2.99381113;stroke-miterlimit:4;stroke-dasharray:none;stroke-opacity:1" />
      <path
         id="path3186"
         d="M 171.04009,114.48178 C 171.31729,103.08667 159.56657,97.284095 151.05509,92.645625 C 140.10182,86.512403 127.64446,82.797237 115.05064,84.645822 C 105.9618,84.479367 95.199437,89.972445 94.824923,100.20406 C 98.456874,109.53565 111.77598,102.27991 119.47832,103.89932 C 135.13562,103.90793 148.67056,113.09172 163.22897,117.54782 C 165.59858,117.91768 173.3343,119.4415 171.04009,114.48178 z"
         style="opacity:1;fill:#ffffff;fill-opacity:0.19767444;stroke:none;stroke-width:2.33999991;stroke-miterlimit:4;stroke-dasharray:none;stroke-opacity:1" />
      <path
         sodipodi:nodetypes="ccccccccc"
         id="path3193"
         d="M 77.36247,133.90481 C 77.015503,140.08714 78.752463,146.65559 81.97251,151.8493 C 92.379695,168.92822 114.16488,174.98082 135.22391,173.46937 C 140.20963,174.26557 151.14044,170.44436 147.92167,164.23164 C 143.40531,162.10726 138.61134,160.87076 133.83632,159.46293 C 126.45055,155.96972 118.85619,152.8925 111.35996,149.62607 C 105.06334,148.1024 99.671624,144.58383 94.392067,140.95151 C 88.953396,138.16392 84.602185,132.39966 78.332981,131.82061 C 77.520053,132.13154 77.354213,133.14113 77.36247,133.90481 z"
         style="opacity:1;fill:#000000;fill-opacity:0.19767444;stroke:none;stroke-width:2.33999991;stroke-miterlimit:4;stroke-dasharray:none;stroke-opacity:1" />
      <path
         sodipodi:nodetypes="cccccccccc"
         id="path5736"
         d="M 202.36684,57.100603 C 200.98426,52.864958 196.5906,50.888313 193.99087,47.537535 C 185.97405,43.036611 179.47474,33.111645 170.64053,30.423857 C 165.99656,28.474084 161.23263,26.682753 156.18113,26.196876 C 145.09266,25.293151 133.32906,26.263927 126.06507,35.585841 C 125.05184,37.928802 122.66959,40.126235 123.47687,42.859385 C 125.64797,44.153121 127.75006,40.814709 129.65486,39.847798 C 140.17249,31.810211 154.73379,34.54967 166.84619,36.611277 C 172.9076,37.834537 177.63297,42.238944 181.15201,47.094455 C 185.8137,52.742827 194.51954,59.051787 202.36684,57.100603 z"
         style="opacity:1;fill:#ffffff;fill-opacity:0.19767444;stroke:none;stroke-width:2.33999991;stroke-miterlimit:4;stroke-dasharray:none;stroke-opacity:1" />
      <path
         sodipodi:nodetypes="ccccccccc"
         id="path5738"
         d="M 78.698216,52.958589 C 59.175968,48.700763 59.086665,45.720239 39.233313,56.137863 C 36.90871,57.683687 35.241651,60.112278 32.658164,61.285821 C 31.216085,62.620638 29.220981,63.840532 28.862868,65.916176 C 30.696156,66.271947 33.077834,63.798334 35.152521,63.104878 C 41.563728,59.926254 48.775261,58.751376 55.879733,58.720825 C 60.519147,58.434326 65.165804,58.203866 69.813581,58.22518 C 72.8055,58.027149 75.790952,57.513291 78.625428,56.518493 C 79.758098,55.648313 79.319423,53.999214 78.698216,52.958589 z"
         style="opacity:1;fill:#ffffff;fill-opacity:0.19767444;stroke:none;stroke-width:2.33999991;stroke-miterlimit:4;stroke-dasharray:none;stroke-opacity:1" />
      <path
         id="path3224"
         d="M 237.27808,137.57397 C 237.18175,136.405 236.30064,135.32793 235.79649,134.24822 C 233.52556,130.24159 231.04686,126.3508 229.01724,122.21058 C 228.00356,120.12873 226.97669,118.00841 225.32351,116.3436 C 224.02664,114.92568 222.59775,113.57925 221.71478,111.84686 C 220.15444,110.18887 217.8444,109.54366 215.74731,108.84034 C 214.502,108.64762 212.85571,107.66882 211.79036,108.61124 C 211.70445,110.01782 212.66362,111.23857 213.20102,112.48828 C 215.21938,116.35246 218.41075,119.48086 220.1935,123.48432 C 221.54394,125.93676 222.90253,128.38597 224.21688,130.85671 C 225.92921,133.47256 228.17736,135.70024 230.50704,137.76597 C 231.93644,139.04029 234.15582,139.82868 235.8941,138.67205 C 236.40408,138.37294 236.86071,137.99078 237.27808,137.57397 z"
         style="opacity:1;fill:#ffffff;fill-opacity:0.19767444;stroke:none;stroke-width:2.33999991;stroke-miterlimit:4;stroke-dasharray:none;stroke-opacity:1" />
      <path
         sodipodi:nodetypes="cccccccc"
         id="path3227"
         d="M 143.56807,63.175817 C 139.69987,61.444951 135.42979,61.083924 131.24455,61.224427 C 124.61852,61.232934 117.98171,61.140669 111.36347,61.434915 C 105.83588,62.039765 100.46027,63.723281 94.875242,63.866976 C 89.322116,64.3778 83.488414,66.167793 79.856237,70.657355 C 78.723473,71.460131 74.850325,74.817442 78.3427,74.408111 C 100.71821,67.700946 120.73901,59.067244 148.77824,69.596556 C 153.14417,65.580035 147.11847,64.434421 143.56807,63.175817 z"
         style="opacity:1;fill:#ffffff;fill-opacity:0.19767444;stroke:none;stroke-width:2.33999991;stroke-miterlimit:4;stroke-dasharray:none;stroke-opacity:1" />
      <path
         id="path3232"
         d="M 166.04733,86.094682 C 168.96649,84.752873 172.28538,85.26319 175.33804,84.45103 C 177.66094,83.948074 180.25316,83.725526 182.36559,85.039173 C 184.92741,86.45353 186.03704,89.299154 187.96181,91.356858 C 190.62542,94.486052 194.13523,96.919043 196.12842,100.58963 C 196.92314,100.75235 197.50778,102.81022 196.22463,101.91644 C 193.92093,100.93735 191.57738,100.02463 189.32584,98.939698 C 186.73157,96.984742 185.60519,93.753967 183.2693,91.553572 C 181.77051,89.691442 179.72772,88.055954 177.26422,87.842017 C 174.01031,87.157825 170.72292,86.63745 167.41254,86.326492 C 166.95549,86.261603 166.49982,86.186256 166.04733,86.094682 z"
         style="opacity:1;fill:#ffffff;fill-opacity:0.19767444;stroke:none;stroke-width:2.33999991;stroke-miterlimit:4;stroke-dasharray:none;stroke-opacity:1" />
      <path
         id="path3240"
         d="M 42.603547,200.29586 C 43.148922,203.80818 45.698733,206.34963 49.112423,209.76332 C 51.489283,212.14018 55.519455,213.14022 58.579878,213.90533 C 62.687322,214.93219 66.967445,215.26258 71.005913,216.27219 C 74.162957,217.06145 77.276841,216.80442 79.881652,217.45563 C 82.735091,218.16898 86.032265,217.36606 88.757391,218.04734 C 91.867614,218.8249 97.863284,218.59303 100.59171,218.04734 C 103.94985,217.37571 107.46722,218.25154 110.65088,217.45563 C 114.33132,216.53551 116.43676,216.63369 119.52662,215.08876 C 121.27304,214.21555 122.79541,212.69318 123.66863,210.94675 C 125.08271,208.11859 117.36315,210.35503 114.20117,210.35503 C 110.76035,210.35503 107.26894,210.16502 104.142,210.94675 C 101.39629,211.63318 97.517624,210.94675 94.67455,210.94675 C 91.221823,210.94675 87.621447,209.76332 84.023663,209.76332 C 80.941509,209.76332 76.895645,209.16475 74.556208,208.57989 C 71.768904,207.88306 69.027568,207.34565 66.863901,206.80474 C 64.126375,206.12036 60.73659,205.62131 57.988162,205.62131 C 56.454715,205.62131 53.047565,203.15101 52.071002,202.66273 C 49.774687,201.51457 45.864877,200.94813 42.603547,200.29586 z"
         style="opacity:1;fill:#000000;fill-opacity:0.19767444;stroke:none;stroke-width:2.33999991;stroke-miterlimit:4;stroke-dasharray:none;stroke-opacity:1" />
      <path
         id="path3242"
         d="M 208.28401,198.17619 C 205.91696,199.35971 196.25089,199.35962 191.71596,199.35962 C 187.17947,199.35962 182.64298,199.35962 178.10649,199.35962 C 173.49419,199.35962 168.79523,199.68341 164.49703,200.54305 C 159.15028,201.6124 161.93395,201.82536 166.27218,202.90991 C 169.44027,203.70194 172.5892,203.45367 175.14791,204.09334 C 178.24868,204.86854 182.61634,204.09334 185.7988,204.09334 C 189.15186,204.09334 192.50492,204.09334 195.85797,204.09334 C 199.38093,204.09334 201.12899,203.66316 204.142,202.90991 C 206.39251,202.34728 207.1093,201.11295 208.28401,198.17619 z"
         style="opacity:1;fill:#000000;fill-opacity:0.19767444;stroke:none;stroke-width:2.33999991;stroke-miterlimit:4;stroke-dasharray:none;stroke-opacity:1" />
      <path
         id="path3244"
         d="M 53.254433,144.08285 C 53.289923,148.49235 55.292879,152.51681 56.683807,156.60092 C 57.567195,160.44221 58.700635,164.32337 61.053779,167.5495 C 62.746524,170.14313 64.449828,172.80162 65.24993,175.82715 C 66.2598,178.2626 68.450998,179.89183 69.926635,182.01309 C 71.091792,183.63655 73.09612,184.00493 74.959813,183.87986 C 76.809935,183.83327 78.694532,183.80296 80.516278,183.56071 C 82.525687,182.59559 82.023413,179.31641 80.06864,178.58772 C 76.888808,176.42311 74.908797,172.99817 72.026188,170.49997 C 69.353337,167.78691 66.421685,165.27488 64.076681,162.27223 C 62.089984,158.61672 62.083781,154.19151 59.775422,150.67611 C 58.667887,148.27266 57.567003,145.29834 54.763418,144.47122 C 54.270934,144.30443 53.764498,144.18201 53.254433,144.08285 z"
         style="opacity:1;fill:#000000;fill-opacity:0.19767444;stroke:none;stroke-width:2.33999991;stroke-miterlimit:4;stroke-dasharray:none;stroke-opacity:1" />
      <path
         sodipodi:nodetypes="cccccc"
         id="path3252"
         d="M 104.142,190.82841 C 106.2978,188.27911 109.09528,192.59676 111.56803,192.94879 C 114.73401,194.60667 118.43354,195.57322 121.97098,194.6349 C 141.43285,191.35357 159.77669,186.78959 176.14217,176.38453 C 177.37902,170.42296 129.84101,187.91769 121.44985,189.25111 C 115.67792,189.6762 109.79767,189.43442 104.142,190.82841 z"
         style="opacity:1;fill:#000000;fill-opacity:0.19767444;stroke:none;stroke-width:2.33999991;stroke-miterlimit:4;stroke-dasharray:none;stroke-opacity:1" />
    </g>
  </g>
</svg>
