<?xml version="1.0" encoding="UTF-8" standalone="no"?>
<!-- Created with Inkscape (http://www.inkscape.org/) -->
<svg
   xmlns:dc="http://purl.org/dc/elements/1.1/"
   xmlns:cc="http://creativecommons.org/ns#"
   xmlns:rdf="http://www.w3.org/1999/02/22-rdf-syntax-ns#"
   xmlns:svg="http://www.w3.org/2000/svg"
   xmlns="http://www.w3.org/2000/svg"
   xmlns:sodipodi="http://sodipodi.sourceforge.net/DTD/sodipodi-0.dtd"
   xmlns:inkscape="http://www.inkscape.org/namespaces/inkscape"
   width="250"
   height="250"
   id="svg2"
   sodipodi:version="0.32"
   inkscape:version="0.46"
   sodipodi:docname="compost.svg"
   inkscape:output_extension="org.inkscape.output.svg.inkscape"
   inkscape:export-filename="P:\pidgey2\data\images\compost.png"
   inkscape:export-xdpi="92.160004"
   inkscape:export-ydpi="92.160004"
   version="1.0">
  <defs
     id="defs4">
    <inkscape:perspective
       sodipodi:type="inkscape:persp3d"
       inkscape:vp_x="0 : 125 : 1"
       inkscape:vp_y="0 : 1000 : 0"
       inkscape:vp_z="250 : 125 : 1"
       inkscape:persp3d-origin="125 : 83.333333 : 1"
       id="perspective12" />
  </defs>
  <sodipodi:namedview
     id="base"
     pagecolor="#cb90ff"
     bordercolor="#666666"
     borderopacity="1.0"
     gridtolerance="10000"
     guidetolerance="10"
     objecttolerance="10"
     inkscape:pageopacity="0"
     inkscape:pageshadow="2"
     inkscape:zoom="1.6900001"
     inkscape:cx="189.13953"
     inkscape:cy="163.79497"
     inkscape:document-units="px"
     inkscape:current-layer="layer1"
     showgrid="false"
     inkscape:window-width="1680"
     inkscape:window-height="1026"
     inkscape:window-x="0"
     inkscape:window-y="2"
     showguides="true"
     inkscape:guide-bbox="true" />
  <metadata
     id="metadata7">
    <rdf:RDF>
      <cc:Work
         rdf:about="">
        <dc:format>image/svg+xml</dc:format>
        <dc:type
           rdf:resource="http://purl.org/dc/dcmitype/StillImage" />
      </cc:Work>
    </rdf:RDF>
  </metadata>
  <g
     inkscape:label="Layer 1"
     inkscape:groupmode="layer"
     id="layer1">
    <path
       style="opacity:1;fill:#552200;fill-opacity:1;stroke:#000000;stroke-width:2.40067554;stroke-miterlimit:4;stroke-dasharray:none;stroke-opacity:1"
       d="M 15.356234,218.65951 C 8.8279536,205.49811 2.5642358,188.63923 8.644727,174.61631 C 17.701267,163.08594 33.970708,170.4069 34.066805,183.9003 C 42.340616,171.66414 42.845697,153.70581 57.329671,145.41525 C 72.52134,133.10115 74.251163,153.92643 77.649094,163.35746 C 78.785508,147.04507 76.520318,125.28373 93.164858,115.39999 C 107.13596,109.20962 121.37883,118.62545 129.26287,129.3583 C 136.55738,134.99049 141.68376,148.69618 144.26952,152.90354 C 146.62517,139.63645 149.31933,121.29116 165.79159,117.89492 C 178.99511,114.68983 190.95214,124.50445 194.53082,136.13654 C 197.87767,145.01407 200.78556,161.85932 214.70217,156.28729 C 227.41159,148.59393 236.79163,160.90284 238.99762,171.97257 C 244.96083,183.24282 245.21366,195.74891 239.50407,207.21579 C 234.90373,223.89533 211.62778,218.30189 197.83285,220.94329 C 166.91179,222.55553 136.45191,215.4839 105.53564,216.61976 C 77.900607,216.7894 50.17596,215.82624 22.751627,219.72846 C 20.257269,219.98416 17.611707,219.81961 15.356234,218.65951 z"
       id="path2389" />
    <path
       style="opacity:1;fill:#916f6f;fill-opacity:1;stroke:#000000;stroke-width:2.40067554;stroke-miterlimit:4;stroke-dasharray:none;stroke-opacity:1"
       d="M 136.54502,115.50875 C 131.115,119.13694 123.56801,129.79487 121.13968,139.08607 C 119.2462,146.33078 116.00454,150.95383 116.00454,158.73382 C 116.00454,164.8439 116.47871,169.46482 119.08562,174.45204 C 121.86831,179.77554 130.92017,177.19362 135.51799,175.43443 C 143.81272,172.26073 149.16773,167.28988 155.03145,161.68099 C 160.44324,156.50441 164.95356,153.1725 169.40978,148.90995 C 172.72712,145.73678 175.10975,140.95261 176.59894,138.10367 C 179.04793,133.41855 168.67038,129.08537 165.30168,128.27981 C 159.78735,126.96112 153.82838,121.81008 148.86931,119.43831 C 144.61997,117.40599 141.42953,116.4432 136.54502,115.50875 z"
       id="path2393" />
    <path
       style="opacity:1;fill:#6c5353;fill-opacity:1;stroke:#000000;stroke-width:2.40067554;stroke-miterlimit:4;stroke-dasharray:none;stroke-opacity:1"
       d="M 148.80549,120.47152 C 148.56303,126.28996 145.86482,131.82524 145.55446,137.61287 C 145.26081,139.61184 145.24464,143.82979 148.45436,141.89362 C 152.07458,140.11218 154.45384,136.73886 158.08186,134.96247 C 160.91815,133.05132 163.18673,129.62726 162.24219,126.21586 C 160.53691,124.13933 157.77636,123.10143 155.25846,122.23142 C 153.1195,121.60564 150.97461,120.99527 148.80549,120.47152 z"
       id="path3264"
       sodipodi:nodetypes="ccccccc" />
    <path
       style="opacity:1;fill:#a05a2c;fill-opacity:1;stroke:#000000;stroke-width:2.40067554;stroke-miterlimit:4;stroke-dasharray:none;stroke-opacity:1"
       d="M 153.49091,123.36785 C 169.02856,93.224392 184.64324,67.402017 199.70697,39.864877 C 201.11315,39.864877 204.84209,39.333086 204.84209,41.829654 C 204.84209,46.989645 178.25583,93.673612 176.08543,97.82577 C 173.74466,102.30386 171.72334,107.31157 169.92329,111.5792 C 162.45738,129.27972 146.71302,142.11509 153.49091,123.36785 z"
       id="path2395"
       sodipodi:nodetypes="ccsssc" />
    <path
       style="opacity:1;fill:#ff0000;fill-opacity:1;stroke:#000000;stroke-width:2.92420244;stroke-miterlimit:4;stroke-dasharray:none;stroke-opacity:1"
       d="M 200.73095,13.882304 C 199.36026,23.935883 199.22735,39.808374 198.39462,50.415478 C 201.05259,47.682282 242.32171,31.587271 236.41923,28.461812 C 224.62663,25.143889 211.96736,18.175654 200.73095,13.882304 z M 207.5831,24.403146 C 210.83564,25.448998 219.09746,29.365458 221.47641,30.518456 C 213.96667,34.493578 217.58143,32.469215 207.04435,36.785487 C 207.58839,26.293007 206.82433,31.669259 207.5831,24.403146 z"
       id="path3169"
       sodipodi:nodetypes="cccccccc" />
    <path
       style="opacity:1;fill:#552200;fill-opacity:1;stroke:#000000;stroke-width:2.40067554;stroke-miterlimit:4;stroke-dasharray:none;stroke-opacity:1"
       d="M 102.13973,161.681 C 102.65934,153.58599 112.71109,151.10311 119.76496,151.76665 C 128.87342,152.28312 136.61531,157.8152 142.03414,164.47048 C 149.35281,168.42066 154.49046,157.50843 162.87427,161.44216 C 169.90073,163.15441 177.86088,163.56173 183.67268,168.03808 C 188.86159,172.86363 194.27284,183.19943 186.86143,188.40192 C 177.88011,194.12271 166.96545,189.91382 157.78105,187.01498 C 150.68397,184.42176 143.14531,186.17544 136.56847,189.23398 C 124.34775,193.99617 109.91254,189.90568 99.950687,182.32078 C 91.263968,176.38112 101.58845,169.39834 101.82687,163.17545 L 102.13973,161.681 L 102.13973,161.681 z"
       id="path3174" />
    <path
       style="opacity:1;fill:#008000;fill-opacity:1;stroke:#000000;stroke-width:2.40067554;stroke-miterlimit:4;stroke-dasharray:none;stroke-opacity:1"
       d="M 46.40912,168.74991 C 45.709419,170.08849 44.432725,170.99913 43.14115,167.70794 C 41.849577,164.41674 39.772078,158.40048 37.331427,154.50953 C 33.982857,149.17112 36.276604,150.3746 39.146966,153.12021 C 39.173178,153.14529 39.873182,143.81447 39.873182,136.79586 C 39.873182,129.24494 42.979413,137.16594 45.682905,140.26913 C 47.34434,142.17621 46.420223,132.84534 50.403305,127.76538 C 50.459242,127.69402 56.204511,136.26469 56.939243,137.1432 C 57.545965,137.86864 61.43357,132.45318 63.475182,129.84933 C 64.875851,128.06293 68.542661,141.9291 68.921797,143.7424 C 69.548822,146.74126 66.976968,149.57065 66.380044,152.42557 C 65.883211,154.80176 65.479387,155.8086 63.838289,156.59348 C 61.567322,157.67962 58.708799,159.04676 55.84992,160.41407 C 54.052941,161.27352 53.23511,161.83832 51.855736,162.49804 C 50.783503,163.01085 49.871636,164.61609 48.950875,165.27664 C 47.730598,166.15208 47.108822,167.41133 46.40912,168.74991 z"
       id="path3176"
       sodipodi:nodetypes="ccssssssssssssss" />
    <path
       style="opacity:1;fill:#008000;fill-opacity:1;stroke:#000000;stroke-width:2.40067554;stroke-miterlimit:4;stroke-dasharray:none;stroke-opacity:1"
       d="M 217.79595,152.7729 C 212.76725,154.52168 207.27079,152.55879 204.21754,158.04097 C 200.29955,162.29563 207.20772,168.17744 202.41187,171.75106 C 200.4711,173.68063 191.1454,175.89076 198.22575,175.12607 C 205.25679,175.55809 212.63137,178.30183 219.5641,175.78763 C 223.65558,172.25774 227.89028,168.29685 233.79396,169.61352 C 238.25247,165.74236 232.25978,161.12006 230.50277,157.45344 C 228.12527,151.97462 222.94002,151.8135 217.79595,152.7729 z"
       id="path3178"
       sodipodi:nodetypes="cccccccc" />
    <path
       style="opacity:1;fill:#008000;fill-opacity:1;stroke:#000000;stroke-width:2.40067554;stroke-miterlimit:4;stroke-dasharray:none;stroke-opacity:1"
       d="M 102.65325,165.61054 C 102.51244,159.3737 100.78027,153.28736 100.56824,147.05591 C 102.70068,147.11424 104.13403,153.43975 107.19473,150.38728 C 108.07204,147.45916 107.216,144.24911 107.95519,141.25522 C 111.23867,141.25425 110.30333,146.19104 113.27685,146.88818 C 116.55185,147.42687 116.73242,143.43342 118.82071,142.04544 C 121.8122,141.39736 121.97238,146.22491 124.04485,147.62092 C 126.07001,150.3318 129.28665,147.86376 131.902,148.3656 C 133.72657,150.0979 132.77202,153.25368 132.74872,155.54029 C 131.11996,158.9585 126.59037,157.34987 123.61035,157.30445 C 119.6021,157.00142 115.7597,158.36321 112.12247,159.78752 C 109.68656,161.30082 107.01968,162.53349 105.6407,165.10588 C 104.88444,166.08083 103.7207,165.88929 102.65325,165.61054 z"
       id="path3208" />
    <path
       style="opacity:1;fill:#008000;fill-opacity:1;stroke:#000000;stroke-width:2.40067554;stroke-miterlimit:4;stroke-dasharray:none;stroke-opacity:1"
       d="M 28.49349,172.18635 C 26.147666,168.16078 20.806409,167.71197 16.513125,167.9483 C 12.658674,168.26849 11.466958,172.32376 11.735551,175.44094 C 12.019618,179.42231 17.131427,179.67244 19.866566,181.59693 C 24.887159,184.05555 29.473715,187.33934 33.039075,191.53718 C 35.731495,194.67972 37.990134,190.17753 35.748063,187.97317 C 34.98168,179.08605 33.012223,179.62732 28.49349,172.18635 z"
       id="path3210"
       sodipodi:nodetypes="ccccccc" />
    <path
       style="opacity:1;fill:#784421;fill-opacity:1;stroke:#000000;stroke-width:2.40067554;stroke-miterlimit:4;stroke-dasharray:none;stroke-opacity:1"
       d="M 78.643199,123.61053 C 75.962235,130.13841 78.704602,141.78937 87.964737,140.47856 C 95.122653,138.49088 100.09072,131.97516 107.79315,131.11954 C 112.80482,129.82788 123.57303,132.7426 121.6118,124.34468 C 119.24606,117.96142 111.71119,115.28621 105.40017,113.66299 C 95.389869,110.68087 83.427419,114.41064 78.643199,123.61053 z"
       id="path3212"
       sodipodi:nodetypes="cccccc" />
    <path
       style="opacity:1;fill:#784421;fill-opacity:1;stroke:#000000;stroke-width:2.40067554;stroke-miterlimit:4;stroke-dasharray:none;stroke-opacity:1"
       d="M 72.356044,173.96085 C 64.652187,173.96022 56.42602,173.72494 49.158565,176.24426 C 41.769338,181.01761 48.300477,189.30991 55.425342,189.6223 C 63.431859,193.50611 71.464436,185.60588 79.023985,189.98697 C 84.374072,192.30548 91.744497,199.44177 96.953282,193.17476 C 100.39968,186.99957 93.704768,182.77733 88.135645,181.88676 C 83.615429,178.39212 78.419611,174.39023 72.356044,173.96085 z"
       id="path3214" />
    <path
       style="opacity:1;fill:#2b1100;fill-opacity:1;stroke:#000000;stroke-width:2.40067554;stroke-miterlimit:4;stroke-dasharray:none;stroke-opacity:1"
       d="M 206.38262,203.92368 C 201.71976,201.47394 195.38512,198.78316 190.54249,202.30934 C 187.49201,205.48751 183.71061,202.89122 180.02146,203.4676 C 174.51508,203.63014 169.02088,203.05803 163.62717,202.11162 C 159.79638,201.59925 154.84409,204.81648 156.92105,208.855 C 160.21658,215.00713 167.71247,216.82722 173.80585,219.46213 C 181.51817,222.69317 190.20112,222.72143 198.47003,222.44143 C 202.86501,221.63892 207.2701,220.93993 211.75025,220.91454 C 217.06612,220.29552 222.32596,219.16333 227.52324,218.00029 C 231.03662,215.78554 228.20355,211.14597 225.6956,209.29452 L 207.1693,204.32528 L 206.38262,203.92368 L 206.38262,203.92368 z"
       id="path3218"
       sodipodi:nodetypes="ccccccccccccc" />
    <path
       style="opacity:1;fill:#2b1100;fill-opacity:1;stroke:#000000;stroke-width:2.40067554;stroke-miterlimit:4;stroke-dasharray:none;stroke-opacity:1"
       d="M 98.031635,205.39726 C 101.23478,207.85839 105.74974,206.29589 109.40111,205.86035 C 114.44307,204.76505 119.42256,206.61884 124.48992,206.498 C 128.62742,206.4587 132.85764,207.34486 136.9244,206.47758 C 141.84081,205.39824 143.45145,199.60261 140.31944,196.04359 C 138.29845,192.65189 133.87777,193.83445 130.53684,193.59226 C 118.56639,191.87747 116.53498,198.42417 104.42803,199.73942 C 101.3494,200.17602 97.722604,201.88995 98.031635,205.39726 z"
       id="path3220"
       sodipodi:nodetypes="cccccccc" />
    <path
       style="opacity:1;fill:#2b1100;fill-opacity:1;stroke:#000000;stroke-width:2.40067554;stroke-miterlimit:4;stroke-dasharray:none;stroke-opacity:1"
       d="M 47.707479,204.41487 C 46.573703,204.68599 39.84415,202.4501 36.41022,202.4501 C 30.541215,202.4501 29.221054,204.28082 29.221054,209.818 C 29.221054,214.36289 32.646785,215.42636 35.896707,216.20353 C 39.457279,217.05499 44.492576,216.20353 48.220991,216.20353 C 52.001014,216.20353 52.10857,215.08248 52.842597,212.27398 C 53.475837,209.8511 50.943162,208.00111 49.761526,206.87084 C 48.986517,206.12951 48.392161,205.23353 47.707479,204.41487 z"
       id="path3222" />
    <path
       style="opacity:1;fill:#784421;fill-opacity:1;stroke:#000000;stroke-width:2.40067554;stroke-miterlimit:4;stroke-dasharray:none;stroke-opacity:1"
       d="M 188.40972,135.64771 C 186.29683,133.75041 184.02148,136.72507 183.20518,138.45582 C 180.94146,142.69766 180.12254,147.58379 180.31625,152.30967 C 180.62542,155.90813 183.1272,159.29045 186.8082,160.36261 C 189.08348,160.99398 193.79742,162.06173 194.04536,158.70573 C 194.31224,154.90289 194.17022,151.01555 192.80246,147.39341 C 192.37541,144.75382 190.64116,142.72541 188.86383,140.84069 C 188.01588,139.22561 188.47615,137.37601 188.40972,135.64771 z"
       id="path3224" />
    <path
       style="opacity:1;fill:#ffffff;fill-opacity:0.27906979;stroke:none;stroke-width:2;stroke-miterlimit:4;stroke-dasharray:none;stroke-opacity:1"
       d="M 125.86822,133.5188 C 126.09218,136.36545 124.06108,140.60679 127.46859,142.27374 C 131.09091,142.80095 130.96914,138.27251 132.70701,136.37577 C 135.34833,132.35299 137.41452,128.0109 140.11679,124.02241 C 143.17403,121.09655 138.72905,117.12938 135.716,119.93917 C 131.41115,123.82697 128.1873,128.3377 125.86822,133.5188 z"
       id="path3292"
       sodipodi:nodetypes="cccccc" />
    <path
       style="opacity:1;fill:#000000;fill-opacity:0.27906979;stroke:none;stroke-width:2;stroke-miterlimit:4;stroke-dasharray:none;stroke-opacity:1"
       d="M 173.00435,135.40212 C 174.18989,136.17439 173.93779,137.74586 173.08245,138.65786 C 172.03829,140.00134 170.64909,141.08087 169.75962,142.53443 C 165.14761,148.06898 160.62254,153.9465 154.2428,157.74445 C 153.21092,158.08559 152.45897,159.51461 151.24708,159.05951 C 150.24413,158.20238 150.87822,156.74258 151.48846,155.85459 C 152.67315,152.35211 155.7128,149.90203 158.25232,147.29409 C 161.62979,144.33182 165.08551,141.4394 168.2907,138.30625 C 169.43703,136.89325 170.81631,134.88761 173.00435,135.40212 z"
       id="path3301" />
    <path
       style="opacity:1;fill:#000000;fill-opacity:0.27906979;stroke:none;stroke-width:2;stroke-miterlimit:4;stroke-dasharray:none;stroke-opacity:1"
       d="M 237.9636,98.071367 C 238.00188,97.998145 237.9636,97.907635 237.9636,98.071367 z"
       id="path3308" />
  </g>
</svg>
