<?xml version="1.0" encoding="UTF-8" standalone="no"?>
<!-- Created with Inkscape (http://www.inkscape.org/) -->
<svg
   xmlns:dc="http://purl.org/dc/elements/1.1/"
   xmlns:cc="http://creativecommons.org/ns#"
   xmlns:rdf="http://www.w3.org/1999/02/22-rdf-syntax-ns#"
   xmlns:svg="http://www.w3.org/2000/svg"
   xmlns="http://www.w3.org/2000/svg"
   xmlns:sodipodi="http://sodipodi.sourceforge.net/DTD/sodipodi-0.dtd"
   xmlns:inkscape="http://www.inkscape.org/namespaces/inkscape"
   width="1400"
   height="250"
   id="svg2"
   sodipodi:version="0.32"
   inkscape:version="0.46"
   sodipodi:docname="dude.svg"
   inkscape:output_extension="org.inkscape.output.svg.inkscape"
   inkscape:export-filename="P:\pidgey\data\images\awards.png"
   inkscape:export-xdpi="90"
   inkscape:export-ydpi="90"
   version="1.0">
  <defs
     id="defs4">
    <inkscape:perspective
       sodipodi:type="inkscape:persp3d"
       inkscape:vp_x="0 : 125 : 1"
       inkscape:vp_y="0 : 1000 : 0"
       inkscape:vp_z="250 : 125 : 1"
       inkscape:persp3d-origin="125 : 83.333333 : 1"
       id="perspective3645" />
  </defs>
  <sodipodi:namedview
     id="base"
     pagecolor="#000000"
     bordercolor="#666666"
     borderopacity="1.0"
     gridtolerance="10000"
     guidetolerance="10"
     objecttolerance="10"
     inkscape:pageopacity="0"
     inkscape:pageshadow="2"
     inkscape:zoom="0.54483133"
     inkscape:cx="432.25751"
     inkscape:cy="-125.49982"
     inkscape:document-units="px"
     inkscape:current-layer="layer1"
     showgrid="false"
     inkscape:window-width="1677"
     inkscape:window-height="994"
     inkscape:window-x="3"
     inkscape:window-y="22"
     showguides="true"
     inkscape:guide-bbox="true" />
  <metadata
     id="metadata7">
    <rdf:RDF>
      <cc:Work
         rdf:about="">
        <dc:format>image/svg+xml</dc:format>
        <dc:type
           rdf:resource="http://purl.org/dc/dcmitype/StillImage" />
      </cc:Work>
    </rdf:RDF>
  </metadata>
  <g
     inkscape:label="Layer 1"
     inkscape:groupmode="layer"
     id="layer1">
    <path
       style="opacity:1;fill:#d4aa00;fill-opacity:1;stroke:#000000;stroke-width:2.43483496;stroke-miterlimit:4;stroke-dasharray:none;stroke-opacity:1"
       d="M 172.11569,186.64849 C 174.50501,187.62752 177.03948,189.18248 179.68535,188.14581 C 182.58965,187.19499 184.2985,186.71789 187.29503,186.8514 C 190.36754,190.20189 181.07876,190.86774 184.47273,191.04182 C 188.12437,190.79892 192.57885,188.48379 193.99703,189.94918 C 195.85993,191.8741 190.99418,193.27354 190.26368,193.64481 C 189.01696,194.27844 199.91372,197.37443 196.75044,197.96551 C 194.26962,198.64247 190.00252,196.67554 187.62241,197.23855 C 187.63275,199.48044 188.78379,202.87489 185.81883,201.16426 C 183.88861,200.05062 182.0416,192.74679 182.06785,196.46589 C 182.07797,197.89931 180.05834,200.2476 179.42961,197.30453 C 178.22619,194.72135 174.66462,191.60141 171.92558,190.63763 C 160.56986,185.125 148.4846,181.64014 136.09568,179.5726 C 130.50386,178.35617 124.5643,178.47681 134.8785,176.71178 C 147.84181,174.52868 160.67097,181.27295 172.11569,186.64849 z"
       id="path3781"
       sodipodi:nodetypes="ccccssccssccccc" />
    <path
       style="opacity:1;fill:#000000;fill-opacity:1;stroke:none;stroke-width:2.43483496;stroke-miterlimit:4;stroke-dasharray:none;stroke-opacity:1"
       d="M 139.9625,175.09372 C 138.29154,175.11074 136.61849,175.24708 134.93125,175.53122 C 132.33583,175.97537 130.76294,176.29006 129.80625,176.59372 C 129.56708,176.66964 129.35692,176.73877 129.15,176.84372 C 128.94308,176.94867 128.68731,177.01968 128.43125,177.46872 C 128.30322,177.69324 128.24162,178.0812 128.30625,178.40622 C 128.37088,178.73124 128.54234,178.95448 128.68125,179.09372 C 128.95909,179.37221 129.14903,179.42781 129.3375,179.49997 C 130.0914,179.78862 130.96503,179.87467 132.15,180.06247 C 133.33497,180.25027 134.73737,180.48752 136.0875,180.78122 L 136.11875,180.78122 L 136.15,180.78122 C 148.44664,182.83336 160.41823,186.29748 171.65,191.74997 L 171.7125,191.78122 L 171.775,191.78122 C 174.04975,192.58163 177.58266,195.75386 178.55625,197.84372 L 178.5875,197.84372 C 178.78359,198.60481 179.06145,199.25442 179.7125,199.65622 C 180.44848,200.11043 181.40439,199.8917 181.93125,199.53122 C 182.33297,199.25636 182.5826,198.89871 182.8375,198.53122 C 183.08095,199.04315 183.29586,199.54821 183.5875,200.06247 C 184.07039,200.91394 184.5538,201.69444 185.4625,202.21872 C 186.32517,202.71643 187.09487,203.08935 188.025,202.74997 C 188.49007,202.58028 188.84481,202.17398 189.025,201.81247 C 189.2052,201.45096 189.27774,201.13237 189.30625,200.81247 C 189.37927,199.9934 189.26698,199.27958 189.18125,198.53122 C 190.01448,198.54824 190.90114,198.59256 192.15,198.84372 C 193.80177,199.1759 195.54006,199.58061 197.2125,199.15622 L 197.2125,199.18747 C 197.24279,199.18181 197.27644,199.1622 197.30625,199.15622 C 197.548,199.10775 197.79016,199.03108 198.05625,198.87497 C 198.35516,198.69961 198.74697,198.27234 198.775,197.71872 C 198.80303,197.1651 198.55135,196.83336 198.36875,196.62497 C 198.18615,196.41658 198.02648,196.25494 197.8375,196.12497 C 197.0816,195.60507 196.06305,195.18827 194.9625,194.71872 C 194.25226,194.41569 193.64833,194.14644 193.025,193.87497 C 193.34374,193.7272 193.64299,193.62679 193.9625,193.43747 C 194.59281,193.06401 195.25049,192.63589 195.65,191.84372 C 195.84976,191.44764 195.93668,190.91154 195.8375,190.40622 C 195.73832,189.9009 195.46934,189.48723 195.11875,189.12497 C 194.43132,188.41465 193.49493,188.23146 192.65,188.24997 C 191.80507,188.26848 190.92966,188.46693 190.025,188.68747 C 189.71041,188.76416 189.40954,188.79173 189.0875,188.87497 C 189.20544,188.53004 189.42168,188.22827 189.36875,187.84372 C 189.27754,187.18105 188.92536,186.57004 188.43125,186.03122 L 188.0875,185.65622 L 187.5875,185.65622 C 184.44158,185.51605 182.48031,186.04266 179.55625,186.99997 L 179.525,186.99997 L 179.49375,187.03122 C 178.48625,187.42596 177.51553,187.33695 176.4,186.99997 C 175.29629,186.66656 174.11817,186.07687 172.86875,185.56247 C 172.85662,185.55677 172.84964,185.53692 172.8375,185.53122 C 162.86551,180.8459 151.64504,174.97471 139.9625,175.09372 z M 139.99375,177.53122 C 150.88931,177.45427 161.79031,183.03085 171.8375,187.74997 L 171.86875,187.78122 L 171.9,187.78122 C 173.02516,188.24224 174.302,188.91763 175.7125,189.34372 C 177.10528,189.76445 178.68876,189.89484 180.30625,189.28122 L 180.30625,189.31247 C 180.33275,189.30379 180.34249,189.28981 180.36875,189.28122 C 182.97709,188.42827 184.51754,188.0869 186.93125,188.12497 C 186.93192,188.12792 186.96234,188.15501 186.9625,188.15622 C 186.96467,188.17195 186.98513,188.11256 186.93125,188.18747 C 186.8235,188.33729 186.23155,188.76044 185.55625,189.03122 C 184.88096,189.302 184.23937,189.44389 183.7125,189.65622 C 183.58079,189.7093 183.45169,189.72711 183.15,189.99997 C 182.99916,190.1364 182.67862,190.47169 182.74375,191.06247 C 182.80889,191.65325 183.21431,191.93112 183.4,192.03122 C 183.77139,192.23141 183.88381,192.19664 184.05625,192.21872 C 184.2287,192.2408 184.42087,192.26947 184.65,192.28122 L 184.7125,192.28122 L 184.80625,192.28122 C 186.85494,192.14494 188.93337,191.47333 190.61875,191.06247 C 191.46144,190.85704 192.17799,190.6985 192.68125,190.68747 C 193.18452,190.67644 193.3471,190.7901 193.36875,190.81247 C 193.30468,190.88784 193.10489,191.11123 192.7125,191.34372 C 192.26792,191.60714 191.71703,191.85916 191.2125,192.06247 C 190.70798,192.26578 190.35638,192.36229 189.9625,192.56247 C 189.7991,192.64552 189.57557,192.79478 189.4,193.06247 C 189.22443,193.33016 189.15875,193.73769 189.2125,194.03122 C 189.32002,194.61829 189.59614,194.78558 189.775,194.93747 C 190.13274,195.24125 190.46676,195.38244 190.9,195.59372 C 191.48608,195.87954 192.26098,196.19152 192.99375,196.49997 C 192.84174,196.47128 192.77259,196.49966 192.61875,196.46872 C 190.95202,196.13353 189.24521,195.67034 187.5875,196.06247 L 186.65,196.28122 L 186.65,197.24997 C 186.65549,198.43984 186.82949,199.59903 186.8375,200.24997 C 186.72762,200.21287 186.88512,200.24259 186.68125,200.12497 C 186.62484,200.09242 186.11799,199.55871 185.7125,198.84372 C 185.30702,198.12873 184.90962,197.2576 184.55625,196.49997 C 184.37957,196.12116 184.21835,195.77473 184.05625,195.46872 C 183.89416,195.16271 183.81603,194.939 183.43125,194.59372 C 183.23886,194.42108 182.75296,194.08407 182.11875,194.28122 C 181.48455,194.47837 181.32419,194.9481 181.24375,195.18747 C 181.08289,195.6662 181.08388,195.98611 181.0875,196.49997 C 181.08796,196.56421 180.948,196.75363 180.8375,196.96872 L 180.8375,196.93747 L 180.775,196.81247 C 179.36042,193.77603 175.88306,190.72525 172.7125,189.56247 C 172.67054,189.5421 172.62949,189.52029 172.5875,189.49997 C 161.14456,183.9625 148.99183,180.4503 136.55625,178.37497 L 136.55625,178.40622 C 135.8999,178.26405 135.34248,178.17236 134.7125,178.06247 C 135.01342,178.00879 135.00281,177.99474 135.3375,177.93747 C 136.89109,177.67584 138.43724,177.54221 139.99375,177.53122 z"
       id="path3310" />
    <path
       style="opacity:1;fill:#ffaaaa;fill-opacity:1;stroke:#000000;stroke-width:2.69234419;stroke-miterlimit:4;stroke-dasharray:none;stroke-opacity:1"
       d="M 132.56001,116.92007 C 118.30333,130.61056 168.12996,149.15604 153.80555,157.81036 C 145.41889,161.97367 132.51323,161.95921 136.69191,174.66444 C 139.30227,179.35461 143.49913,183.4728 143.99798,189.25573 C 145.67126,195.85487 143.97217,198.01028 138.0818,201.21061 C 126.33897,206.05796 110.99949,203.89387 98.506218,202.18942 C 92.479893,200.49766 88.327365,210.78611 89.691588,216.62355 C 92.121887,231.93923 73.19277,225.77663 64.552081,222.88173 C 63.395888,215.93246 63.796114,207.98707 62.244247,200.88934 C 61.143622,191.96528 59.144388,183.11779 59.057456,174.07534 L 132.56001,116.92005 L 132.56001,116.92007 z"
       id="path3758"
       sodipodi:nodetypes="cccccccccccc" />
    <path
       style="opacity:1;fill:#000000;fill-opacity:1;stroke:none;stroke-width:2.69234419;stroke-miterlimit:4;stroke-dasharray:none;stroke-opacity:1"
       d="M 131.34483,116.84836 L 131.21983,116.94211 L 57.813579,174.00461 L 57.313579,174.41086 L 57.313579,175.06711 C 57.402339,184.29951 59.411459,193.20105 60.501079,202.03586 L 60.501079,202.09836 L 60.532329,202.16086 C 62.029109,209.00661 61.621879,216.93561 62.813579,224.09833 L 62.938579,224.87963 L 63.719829,225.12963 C 68.048109,226.57973 74.996159,228.92363 80.876079,228.91083 C 83.816039,228.90443 86.592009,228.30533 88.532329,226.41083 C 90.472649,224.51643 91.273859,221.49313 90.626079,217.41086 L 90.594829,217.34836 L 90.594829,217.28586 C 90.021479,214.83253 90.655129,210.99654 92.126079,208.19211 C 92.861548,206.78989 93.792498,205.64962 94.751078,205.00461 C 95.709658,204.3596 96.625078,204.15726 97.751078,204.47336 L 97.813578,204.50461 L 97.907328,204.50461 C 110.39561,206.20838 125.93294,208.50116 138.18858,203.44211 L 138.25108,203.41086 L 138.31358,203.37961 C 141.32245,201.74484 143.48557,200.30076 144.65733,198.12961 C 145.80117,196.0102 145.7516,193.44806 144.93858,190.12961 C 144.91873,190.0486 144.92811,189.99281 144.90733,189.91086 L 144.87608,189.91086 C 144.24377,183.7219 139.98791,179.48126 137.53233,175.12961 C 136.59078,172.21073 136.65392,170.22141 137.25108,168.75461 C 137.85593,167.26892 139.06073,166.15786 140.78233,165.19211 C 144.22554,163.2606 149.56087,162.20881 154.00108,160.00461 L 154.06358,159.97336 L 154.09483,159.94211 C 156.12428,158.71599 157.32655,157.02004 157.37608,155.16086 C 157.42561,153.30168 156.49828,151.55377 155.18858,149.84836 C 152.56918,146.43753 148.08515,142.89498 143.65733,139.19211 C 139.22951,135.48924 134.86074,131.65391 132.59483,128.12961 C 131.46188,126.36746 130.88339,124.72124 130.90733,123.25461 C 130.93127,121.78798 131.50879,120.40267 133.09483,118.87961 L 131.34483,116.84836 z M 128.37608,122.53586 C 128.35098,122.76727 128.22362,122.99117 128.21983,123.22336 C 128.18389,125.42519 129.0352,127.53017 130.34483,129.56711 C 132.96409,133.64099 137.48238,137.55926 141.93858,141.28586 C 146.39478,145.01246 150.81475,148.57631 153.06358,151.50461 C 154.188,152.96876 154.68038,154.20211 154.65733,155.06711 C 154.63429,155.93211 154.27149,156.69215 152.71983,157.62961 C 148.782,159.56211 143.50313,160.58584 139.46983,162.84836 C 137.43902,163.98756 135.68412,165.50831 134.78233,167.72336 C 133.88054,169.93841 133.89218,172.69551 135.00108,176.06711 L 135.06358,176.19211 L 135.12608,176.31711 C 137.87177,181.25043 141.80309,185.15501 142.25108,190.34836 L 142.25108,190.47336 L 142.28233,190.56711 C 143.08371,193.72759 143.01439,195.49193 142.28233,196.84836 C 141.56282,198.18154 139.94767,199.41431 137.15733,200.94211 C 137.133,200.95543 137.11934,200.95999 137.09483,200.97336 C 125.92538,205.55315 110.90967,203.57638 98.469828,201.87961 C 98.409498,201.87138 98.342528,201.85657 98.282328,201.84836 L 98.282328,201.87961 C 96.460348,201.43019 94.673838,201.8285 93.251078,202.78586 C 91.778789,203.77654 90.605249,205.25401 89.719829,206.94211 C 87.964399,210.28894 87.212809,214.44829 87.969829,217.81711 C 87.976479,217.84669 87.962949,217.88141 87.969829,217.91086 C 88.504029,221.41123 87.839539,223.35033 86.657329,224.50463 C 85.461939,225.67173 83.444699,226.21783 80.876079,226.22333 C 76.014959,226.23393 69.733609,224.28383 65.407329,222.84833 C 64.435099,216.31105 64.706509,208.77208 63.188579,201.72336 C 63.183319,201.68072 63.162629,201.64099 63.157329,201.59836 C 62.070419,192.85168 60.203929,184.28211 60.032329,175.69211 L 128.37608,122.53586 z"
       id="path3312" />
    <path
       style="opacity:1;fill:#ffaaaa;fill-opacity:1;stroke:#000000;stroke-width:2.92594099;stroke-miterlimit:4;stroke-dasharray:none;stroke-opacity:1"
       d="M 123.18323,245.16213 C 119.72882,236.24643 114.10602,229.01093 108.01376,223.21193 C 103.03818,218.96526 98.130628,218.91299 92.139925,219.70681 C 80.173464,218.63612 67.715456,221.69483 56.020722,225.09903 C 49.320301,226.79513 41.834369,225.76543 35.923992,231.00333 C 30.714674,236.19143 29.975496,241.36493 30.375593,249.20403 C 32.404053,264.34833 134.96602,290.24333 123.18323,245.16213 z"
       id="path3282"
       sodipodi:nodetypes="ccccccc" />
    <path
       style="opacity:1;fill:#a05a2c;fill-opacity:1;stroke:#000000;stroke-width:2.5232687;stroke-miterlimit:4;stroke-dasharray:none;stroke-opacity:1"
       d="M 44.488206,146.65274 C 43.420336,149.78861 41.99608,157.14537 41.99608,162.25225 C 41.99608,166.39591 40.750017,170.40326 40.750017,174.62428 C 40.750017,179.4966 40.073766,183.58502 41.373048,188.07212 C 42.865997,193.22806 41.837303,195.335 48.849427,192.91334 C 54.581527,190.93375 59.50756,186.95317 64.425216,183.76881 C 68.111917,181.38154 69.274016,179.69938 71.278561,176.23801 C 73.003793,173.25894 73.890218,171.19039 75.016751,169.24513 C 76.691098,166.35393 77.846897,175.25373 78.75494,178.38966 C 79.928679,182.4432 81.256443,183.76071 84.985255,180.54132 C 88.070417,177.87765 90.8802,175.54825 93.084668,173.01052 C 95.374788,170.37419 96.579898,168.05092 98.068918,165.47973 C 99.328748,163.30431 101.17146,159.04655 101.18408,159.02477 C 102.47435,156.79676 103.5052,163.71835 105.5453,165.47973 C 107.83636,167.45778 107.03636,168.8704 111.15258,167.09347 C 113.9193,165.89911 115.72499,161.34966 116.75987,159.56267 C 118.17296,157.1226 118.90112,155.32732 120.49806,152.56979 C 121.81775,150.29099 121.74738,147.17938 122.36715,145.039 C 123.10102,142.50453 123.61322,141.11794 123.61322,138.04612 C 123.61322,135.49396 124.27511,131.99481 124.85928,129.97741 C 125.15156,128.96804 110.11678,132.57622 108.66045,133.20489 C 103.70558,135.34386 97.484798,136.53324 91.838602,137.5082 C 84.827964,138.71878 78.873806,140.60758 71.901592,141.81152 C 66.142664,142.80594 61.792979,144.50109 55.702774,144.50109 C 52.027135,144.50109 47.743031,144.96665 44.488206,146.65274 z"
       id="path3216" />
    <path
       style="opacity:1;fill:#000000;fill-opacity:1;stroke:none;stroke-width:2.5232687;stroke-miterlimit:4;stroke-dasharray:none;stroke-opacity:1"
       d="M 124.55625,128.23801 C 124.04879,128.24233 123.43584,128.28707 122.7125,128.39426 C 121.26582,128.60863 119.36786,128.99483 117.4,129.42551 C 115.43214,129.85619 113.40082,130.35425 111.775,130.76926 C 110.14919,131.18427 109.08612,131.44183 108.4,131.73801 C 103.64166,133.79212 97.498518,134.98464 91.868752,135.95676 C 84.759322,137.1844 78.804122,139.08248 71.931252,140.26926 C 66.040392,141.28644 61.818592,142.92551 55.962502,142.92551 C 52.180322,142.92548 47.722082,143.35632 44.150002,145.20676 L 43.712502,145.45676 L 43.525002,145.92551 C 42.373392,149.30732 40.993752,156.58406 40.993752,161.92551 C 40.993752,165.81621 39.743752,169.8312 39.743752,174.30051 C 39.743762,179.05608 39.011252,183.31691 40.400002,188.11301 C 40.756092,189.34277 40.976032,190.39388 41.212502,191.33176 C 41.448972,192.26964 41.688122,193.16081 42.368752,193.89426 C 43.049382,194.62771 44.145372,194.94029 45.275002,194.86301 C 46.404632,194.78573 47.696362,194.42124 49.493752,193.80051 C 55.508302,191.72336 60.531082,187.65182 65.368752,184.51926 C 69.180892,182.05076 70.597072,180.04147 72.618752,176.55051 C 74.126282,173.94737 74.939112,172.21459 75.837502,170.55051 C 75.981112,170.92309 76.070872,171.05955 76.212502,171.58176 C 76.796962,173.73669 77.272072,176.68863 77.775002,178.42551 C 78.387062,180.53928 78.968452,182.26177 80.618752,183.01926 C 81.443902,183.39801 82.427242,183.3383 83.306252,182.98801 C 84.185262,182.63772 85.063792,182.03238 86.056252,181.17551 C 89.130002,178.52167 91.973132,176.16912 94.274998,173.51926 C 96.662068,170.77132 97.928208,168.34195 99.399998,165.80051 C 100.50327,163.89541 101.49079,161.59654 101.9625,160.51926 C 102.04638,160.70377 102.06525,160.71526 102.15,160.92551 C 102.47833,161.74001 102.84089,162.71755 103.275,163.64426 C 103.70911,164.57097 104.18288,165.4399 104.9625,166.11301 C 105.9406,166.95746 106.12283,167.75109 107.24375,168.45676 C 107.80421,168.80959 108.57286,168.91812 109.30625,168.80051 C 110.03964,168.6829 110.82875,168.38796 111.9,167.92551 C 113.72683,167.13689 114.9492,165.49463 115.93125,163.89426 C 116.91331,162.29389 117.64328,160.66133 118.0875,159.89426 C 119.54089,157.38463 120.27622,155.59021 121.8375,152.89426 C 123.41654,150.16763 123.31569,146.88385 123.8375,145.08176 C 124.56195,142.57983 125.11875,140.95007 125.11875,137.73801 C 125.11875,135.404 125.75967,131.90684 126.30625,130.01926 C 126.40887,129.66487 126.29067,129.04152 126.025,128.73801 C 125.75933,128.4345 125.5419,128.3847 125.36875,128.33176 C 125.02246,128.22589 124.80998,128.23585 124.55625,128.23801 z M 123.55625,130.83176 C 123.059,132.92533 122.5875,135.49862 122.5875,137.73801 C 122.5875,140.66959 122.1433,141.79596 121.4,144.36301 C 120.68228,146.84168 120.71034,149.78205 119.65,151.61301 C 118.0174,154.43212 117.27279,156.24256 115.9,158.61301 C 115.30935,159.63293 114.64619,161.16206 113.775,162.58176 C 112.90381,164.00146 111.83989,165.20727 110.9,165.61301 C 109.91314,166.03903 109.24589,166.24504 108.9,166.30051 C 108.55411,166.35598 108.62795,166.32598 108.5875,166.30051 C 108.5066,166.24958 107.93172,165.34033 106.61875,164.20676 C 106.37832,163.99918 105.96078,163.34735 105.5875,162.55051 C 105.21423,161.75367 104.83944,160.81432 104.49375,159.95676 C 104.14807,159.0992 103.90295,158.36916 103.3375,157.70676 C 103.05478,157.37556 102.50393,156.91903 101.74375,157.01926 C 100.98357,157.11949 100.58803,157.64916 100.3375,158.08176 C 100.32488,158.10354 98.381928,162.4999 97.212498,164.51926 C 95.706248,167.1202 94.561918,169.33829 92.368752,171.86301 C 90.261682,174.28861 87.496582,176.59571 84.400002,179.26926 C 83.528052,180.02209 82.824102,180.4628 82.368752,180.64426 C 81.913402,180.82572 81.800862,180.79291 81.681252,180.73801 C 81.442032,180.62821 80.774182,179.67777 80.212502,177.73801 C 79.807392,176.33896 79.289042,173.28166 78.650002,170.92551 C 78.330482,169.74743 78.043642,168.77233 77.431252,167.95676 C 77.125062,167.54897 76.502922,166.9975 75.681252,167.11301 C 74.859582,167.22852 74.476652,167.79042 74.181252,168.30051 C 73.004172,170.33305 72.123482,172.37845 70.431252,175.30051 C 68.443852,178.73229 67.555022,180.0882 63.993752,182.39426 C 58.996102,185.63042 54.130912,189.5122 48.681252,191.39426 C 46.972582,191.98436 45.783812,192.28412 45.087502,192.33176 C 44.391192,192.3794 44.337842,192.31057 44.212502,192.17551 C 44.087162,192.04045 43.859672,191.53836 43.650002,190.70676 C 43.440332,189.87516 43.227892,188.74248 42.837502,187.39426 C 41.627692,183.21616 42.243762,179.28956 42.243752,174.30051 C 42.243752,170.32778 43.493752,166.32207 43.493752,161.92551 C 43.493752,157.2521 44.829592,150.41672 45.806252,147.30051 C 48.706642,145.94891 52.568872,145.45673 55.962502,145.45676 C 62.286812,145.45676 66.741782,143.70962 72.368752,142.73801 C 79.440322,141.51691 85.394422,139.61903 92.306252,138.42551 C 97.968868,137.44771 104.2486,136.27429 109.4,134.05051 C 109.44205,134.03236 110.80634,133.61356 112.4,133.20676 C 113.99367,132.79996 115.99491,132.31804 117.93125,131.89426 C 119.8676,131.47048 121.75186,131.09218 123.0875,130.89426 C 123.30124,130.86259 123.37298,130.85374 123.55625,130.83176 z"
       id="path3316" />
    <path
       style="opacity:1;fill:#aa8800;fill-opacity:1;stroke:#000000;stroke-width:2.73624754;stroke-miterlimit:4;stroke-dasharray:none;stroke-opacity:1"
       d="M 116.60842,79.966483 C 132.53699,58.681813 193.57085,56.604123 178.89189,90.478163 C 165.3116,114.28147 137.58163,123.85966 116.36175,139.3216 C 90.168352,155.30392 59.583021,164.41171 29.121499,164.31108 C -5.5850451,157.42962 16.403919,139.81077 34.272429,130.84183 C 71.30108,110.67549 88.623873,90.558173 116.60842,79.966483 z"
       id="path3742"
       sodipodi:nodetypes="cccccc" />
    <path
       style="opacity:1;fill:#000000;fill-opacity:1;stroke:none;stroke-width:2.73624754;stroke-miterlimit:4;stroke-dasharray:none;stroke-opacity:1"
       d="M 154.14268,62.769263 C 139.85105,63.294583 124.20976,68.847763 116.70518,78.519263 C 88.556464,89.279303 71.223224,109.3414 34.517674,129.33176 C 25.463504,133.87642 15.402604,140.3754 11.673924,147.39426 C 10.741754,149.14897 10.218904,150.98903 10.330174,152.83176 C 10.441444,154.67449 11.226304,156.47769 12.673924,158.05051 C 15.569164,161.19614 20.923504,163.58438 29.736424,165.33176 L 29.892674,165.36301 L 30.017674,165.36301 C 60.754924,165.46455 91.554824,156.28409 117.95518,140.17551 L 118.01768,140.14426 L 118.04893,140.11301 C 139.02766,124.82678 167.08718,115.19412 180.98643,90.831763 L 181.01768,90.769263 L 181.04893,90.706763 C 184.85417,81.925563 183.76178,74.936583 179.48643,70.300513 C 175.21107,65.664443 168.12276,63.404523 160.20518,62.863013 C 158.22578,62.727633 156.20839,62.693333 154.14268,62.769263 z M 154.23643,65.519263 C 156.2045,65.436003 158.1434,65.453573 160.01768,65.581763 C 167.51476,66.094513 173.94862,68.339223 177.48643,72.175513 C 181.02423,76.011803 182.05191,81.457193 178.51768,89.613013 C 165.24554,112.72468 137.95403,122.26414 116.54893,137.83176 C 116.51866,137.85377 116.48542,137.87222 116.45518,137.89426 C 90.561704,153.67032 60.333924,162.69341 30.267674,162.64426 C 30.256644,162.64207 30.247444,162.64645 30.236424,162.64426 C 21.716534,160.95132 16.855754,158.57728 14.673924,156.20676 C 13.581594,155.01997 13.121944,153.88482 13.048924,152.67551 C 12.975904,151.4662 13.316104,150.1138 14.080174,148.67551 C 17.136474,142.92234 26.953334,136.16229 35.767674,131.73801 L 35.798924,131.73801 L 35.830174,131.73801 C 73.037054,111.47462 90.363454,91.380353 117.98643,80.925513 L 118.36143,80.800513 L 118.61143,80.456763 C 125.15191,71.717003 140.45989,66.102073 154.23643,65.519263 z"
       id="path3318" />
    <path
       style="opacity:1;fill:#aa8800;fill-opacity:1;stroke:#000000;stroke-width:2.73624754;stroke-miterlimit:4;stroke-dasharray:none;stroke-opacity:1"
       d="M 58.391007,67.526973 C 80.777641,54.812033 96.130568,60.434873 114.24001,73.266623 C 138.92057,90.754433 97.127308,110.70866 82.113476,119.84337 C 28.397005,152.52555 27.455433,85.097463 58.391007,67.526973 z"
       id="path3738"
       sodipodi:nodetypes="csss" />
    <path
       style="opacity:1;fill:#000000;fill-opacity:1;stroke:none;stroke-width:2.92594099;stroke-miterlimit:4;stroke-dasharray:none;stroke-opacity:1"
       d="M 96.356788,218.84836 C 95.004008,218.87904 93.604958,219.04497 92.20054,219.22336 C 79.89798,218.1226 67.28094,221.27573 55.54429,224.69213 C 49.23171,226.29003 41.32855,225.17193 34.88804,230.87963 L 34.85679,230.91083 L 34.82554,230.94213 C 29.3207,236.42453 28.41909,242.29123 28.82554,250.25463 L 28.82554,250.31713 L 28.85679,250.37963 C 29.21438,253.04933 31.39381,255.24153 34.51304,257.41083 C 37.63227,259.58013 41.83371,261.67493 46.76304,263.62963 C 56.62171,267.53893 69.37743,270.81023 81.73179,272.19213 C 94.086148,273.57393 106.04319,273.13623 114.48179,269.25453 C 118.70109,267.31373 122.06632,264.44793 123.91929,260.50463 C 125.77226,256.56133 126.04721,251.65563 124.51304,245.78583 L 124.51304,245.69213 L 124.48179,245.62963 C 120.93049,236.46383 115.15738,229.03763 108.95054,223.12963 L 108.91929,223.09833 L 108.88804,223.09833 C 104.88875,219.68496 100.75081,218.74871 96.356788,218.84836 z M 96.388038,221.75463 C 100.24823,221.61303 103.48262,222.34983 106.91929,225.25463 C 106.94369,225.27523 106.95737,225.29623 106.98179,225.31713 C 112.935,230.99673 118.38604,238.02563 121.73179,246.66083 C 123.09381,251.98093 122.75619,256.07703 121.26304,259.25463 C 119.75453,262.46483 117.03366,264.86393 113.26304,266.59833 C 105.7218,270.06723 94.111118,270.63553 82.04429,269.28583 C 69.97746,267.93613 57.43078,264.70733 47.85679,260.91083 C 43.06979,259.01263 39.0324,256.97403 36.20054,255.00463 C 33.42359,253.07333 31.95942,251.22373 31.76304,250.09833 C 31.76245,250.08683 31.76362,250.07863 31.76304,250.06713 C 31.37285,242.37353 31.9816,237.92233 36.88804,233.03583 C 42.26097,228.32363 49.23047,229.29273 56.29429,227.50463 L 56.32554,227.50463 L 56.35679,227.47333 C 68.00962,224.08133 80.28893,221.12023 91.91929,222.16083 L 92.10679,222.16083 L 92.26304,222.12963 C 93.732858,221.93483 95.092178,221.80213 96.388038,221.75463 z"
       id="path3314" />
    <rect
       style="opacity:1;fill:#ffaaaa;fill-opacity:1;stroke:none;stroke-width:3;stroke-miterlimit:4;stroke-dasharray:none;stroke-opacity:1"
       id="rect3300"
       width="22.254595"
       height="10.094868"
       x="65.616638"
       y="215.19861"
       ry="0" />
    <path
       style="opacity:1;fill:#ffc5c5;fill-opacity:1;stroke:none;stroke-width:3;stroke-miterlimit:4;stroke-dasharray:none;stroke-opacity:1"
       d="M 33.726035,240.66523 C 39.190849,226.63653 70.042654,226.86683 80.59431,225.16203 C 87.914658,223.42693 97.343778,223.78423 104.50936,226.46853 C 110.27671,229.74723 112.78853,236.21083 116.07985,241.68043 C 113.65279,238.80733 111.69898,234.79883 107.64738,234.03133 C 96.176718,227.78793 84.299999,231.29003 72.120453,232.21283 C 64.529931,233.20933 56.989731,235.48693 49.264577,234.67233 C 43.225092,233.87853 39.155326,239.89163 33.726035,240.66523 z"
       id="path3290"
       sodipodi:nodetypes="cccccccc" />
    <path
       style="opacity:1;fill:#0000ff;fill-opacity:1;stroke:#000000;stroke-width:3.11962175;stroke-miterlimit:4;stroke-dasharray:none;stroke-opacity:1"
       d="M 91.881726,252.14273 C 89.400722,283.31713 78.274375,263.48653 78.600331,243.47113 C 79.881472,237.28033 80.320167,225.37473 84.566718,219.92245 C 87.017316,215.49765 98.099958,215.81555 96.826708,219.97673 C 91.313046,225.07273 91.021346,243.77423 91.881726,252.14273 z"
       id="path3762"
       sodipodi:nodetypes="ccccc" />
    <path
       style="opacity:1;fill:#0000ff;fill-opacity:1;stroke:#000000;stroke-width:2.92723322;stroke-miterlimit:4;stroke-dasharray:none;stroke-opacity:1"
       d="M 42.32725,242.77563 C 41.685683,249.90063 42.801474,257.03833 43.978063,263.98353 C 44.717127,266.53753 44.971168,269.91923 47.172513,271.25243 C 48.754146,271.79353 50.438022,271.17563 52.067901,271.54383 C 53.602875,271.78493 55.603738,270.86803 55.699857,268.68723 C 55.849825,263.31233 55.474831,258.16363 55.360896,252.79793 C 54.330102,243.36863 53.111078,235.08263 57.200245,227.18023 C 57.838421,225.72613 59.511558,223.84853 58.810524,222.27813 C 56.493928,219.39961 50.943679,221.20553 48.114729,222.50793 C 44.199028,229.03883 43.244939,234.59003 42.32725,242.77563 z"
       id="path3764"
       sodipodi:nodetypes="cccccccccc" />
    <path
       style="opacity:1;fill:#bda33a;fill-opacity:1;stroke:none;stroke-width:2.33999991;stroke-miterlimit:4;stroke-dasharray:none;stroke-opacity:1"
       d="M 66.66729,71.543563 C 61.466089,75.238283 53.463894,80.245583 53.16496,86.725873 C 59.077956,84.988243 65.173681,82.639663 71.556819,82.224343 C 81.803752,80.217993 92.289162,80.940533 102.63586,81.037653 C 109.52225,78.685323 99.742568,73.741583 97.128048,71.668473 C 88.223096,63.230343 76.451098,65.036193 66.66729,71.543563 z"
       id="path3821"
       sodipodi:nodetypes="cccccc" />
    <path
       style="opacity:1;fill:#bda33a;fill-opacity:1;stroke:none;stroke-width:2.33999991;stroke-miterlimit:4;stroke-dasharray:none;stroke-opacity:1"
       d="M 160.9427,70.170533 C 152.90035,67.662083 131.88363,69.312703 129.73206,78.498523 C 145.3329,74.069353 157.86059,81.283923 172.05848,86.241923 C 174.7848,77.102943 169.7075,72.569353 160.9427,70.170533 z"
       id="path3830"
       sodipodi:nodetypes="cccc" />
    <path
       style="opacity:1;fill:#836900;fill-opacity:1;stroke:none;stroke-width:2.33999991;stroke-miterlimit:4;stroke-dasharray:none;stroke-opacity:1"
       d="M 134.11202,125.12127 C 96.882278,144.60656 67.571085,161.98452 25.037035,158.69187 C 20.985852,158.19568 18.684864,154.18549 24.208179,154.16281 C 61.441096,154.05168 92.158003,137.78256 123.28958,123.18592 C 126.88492,122.63262 131.56563,121.69813 134.11202,125.12127 z"
       id="path3835"
       sodipodi:nodetypes="ccccc" />
    <path
       style="opacity:1;fill:#000000;fill-opacity:1;stroke:none;stroke-width:2.33899999;stroke-miterlimit:4;stroke-dasharray:none;stroke-opacity:1"
       d="M 129.87274,179.38819 C 133.50584,179.55187 133.83632,178.25137 140.93956,180.80972 C 141.47133,179.83669 138.41696,176.66872 137.93225,175.87258 C 131.10969,177.71192 131.34949,177.90054 129.87274,179.38819 z"
       id="path3210"
       sodipodi:nodetypes="cccc" />
    <path
       style="opacity:1;fill:#000000;fill-opacity:0.27325583;stroke:none;stroke-width:2;stroke-miterlimit:4;stroke-dasharray:none;stroke-opacity:1"
       d="M 144.75022,142.32008 C 116.89693,158.01165 89.889622,168.30391 59.798791,166.55211 C 56.631106,166.48308 42.770074,166.2676 42.965965,164.46899 C 79.049249,162.17898 104.52229,145.17585 131.00012,129.21305 C 133.50347,132.64694 137.82915,137.43334 144.75022,142.32008 z"
       id="path3224"
       sodipodi:nodetypes="ccccc" />
    <path
       style="opacity:1;fill:#ac7373;fill-opacity:1;stroke:none;stroke-width:2;stroke-miterlimit:4;stroke-dasharray:none;stroke-opacity:1"
       d="M 96.683478,198.69431 C 107.80761,197.24583 130.54646,200.21948 141.727,194.91234 C 132.63024,204.53167 110.81576,201.05793 96.683478,198.69431 z"
       id="path3231"
       sodipodi:nodetypes="ccc" />
    <path
       style="opacity:1;fill:#ac7373;fill-opacity:1;stroke:none;stroke-width:2;stroke-miterlimit:4;stroke-dasharray:none;stroke-opacity:1"
       d="M 63.529125,187.70429 C 63.662947,186.62221 71.458427,203.18753 67.180105,218.07063 C 65.646856,208.05877 64.978405,197.89284 63.529125,187.70429 z"
       id="path3247"
       sodipodi:nodetypes="ccc" />
    <path
       style="opacity:1;fill:#ffffff;fill-opacity:1;stroke:#000000;stroke-width:3.03322887;stroke-miterlimit:4;stroke-dasharray:none;stroke-opacity:1"
       d="M 157.86364,166.81829 C 207.78008,139.98945 173.99854,17.565227 296.58485,-8.4762411 C 439.36782,-38.808161 574.31123,-48.365826 701.33115,-47.152415 C 828.35108,-45.939003 947.45539,-34.022634 1058.5366,-21.202135 C 1172.5417,-8.0441773 1244.7367,59.277116 1251.3278,123.37108 C 1257.919,187.46504 1198.9065,248.33166 1050.4964,248.58028 C 817.28878,248.97095 551.54372,251.85873 428.7921,249.29398 C 151.41642,243.58393 265.12828,154.69295 157.86364,166.81829 z"
       id="path3252"
       sodipodi:nodetypes="cssssssc" />
    <path
       style="opacity:1;fill:#ffc5c5;fill-opacity:1;stroke:none;stroke-width:3;stroke-miterlimit:4;stroke-dasharray:none;stroke-opacity:1"
       d="M 145.15511,145.79484 C 148.13395,147.85084 151.68462,149.92809 153.26664,153.25746 C 153.72806,155.10311 151.54503,155.20422 150.02203,155.20422 C 144.60707,155.26377 146.15338,149.4913 145.15511,145.79484 z"
       id="path3304"
       sodipodi:nodetypes="cccc" />
    <path
       style="opacity:1;fill:#000000;fill-opacity:1;stroke:none;stroke-width:2.73624754;stroke-miterlimit:4;stroke-dasharray:none;stroke-opacity:1"
       d="M 81.01304,59.031223 C 73.82885,59.241263 66.1771,61.493783 57.63804,66.343723 C 41.51157,75.503083 33.85249,97.164503 37.07554,112.81247 C 38.68706,120.63645 43.25178,127.09912 50.95054,129.24997 C 58.6493,131.40082 69.1227,129.31127 82.73179,121.03122 C 90.13504,116.52694 104.42473,109.23611 113.88804,100.71872 C 118.6197,96.460033 122.24975,91.849443 123.01304,86.843723 C 123.77633,81.838003 121.36944,76.704443 114.95054,72.156223 C 105.82393,65.689403 97.268088,60.940663 88.04429,59.468723 C 85.73834,59.100733 83.40777,58.961213 81.01304,59.031223 z M 81.07554,61.749973 C 83.30284,61.688333 85.49387,61.845303 87.63804,62.187473 C 96.214728,63.556143 104.37397,68.041293 113.35679,74.406223 C 119.27817,78.601913 120.92627,82.497863 120.32554,86.437473 C 119.72482,90.377083 116.58386,94.629793 112.07554,98.687473 C 103.05891,106.80283 88.93612,114.05704 81.32554,118.68747 C 68.0764,126.74852 58.2881,128.4741 51.66929,126.62497 C 45.05048,124.77584 41.23452,119.39405 39.76304,112.24997 C 36.82008,97.961813 44.17269,77.129853 58.98179,68.718723 C 67.23271,64.032433 74.39365,61.934893 81.07554,61.749973 z"
       id="path3320" />
    <path
       style="opacity:1;fill:#000000;fill-opacity:1;stroke:none;stroke-width:3.11962175;stroke-miterlimit:4;stroke-dasharray:none;stroke-opacity:1"
       d="M 92.04429,215.18747 C 88.82117,215.13608 85.06985,216.07713 83.29429,218.99997 L 83.26304,218.96872 C 83.21276,219.03328 83.18723,219.12175 83.13804,219.18747 C 80.79511,222.31773 79.65629,226.73073 78.85679,231.15623 C 78.04051,235.67463 77.58931,240.22053 76.98179,243.15623 L 76.95054,243.31243 L 76.95054,243.46873 C 76.86663,248.62123 77.53697,253.70793 78.60679,258.03123 C 79.67661,262.35443 81.07451,265.87693 82.91929,268.03113 C 83.84168,269.10833 85.00659,269.95323 86.45054,269.93743 C 87.89449,269.92163 89.1023,268.94663 89.95054,267.59373 C 91.64702,264.88783 92.728188,260.17973 93.356788,252.28123 L 93.356788,252.12493 L 93.356788,251.99993 C 92.940518,247.95113 92.809858,241.22333 93.450538,234.99993 C 94.091218,228.77653 95.725838,223.03673 97.794288,221.12493 L 98.106788,220.84373 L 98.231788,220.43743 C 98.484378,219.61196 98.456838,218.68716 98.106788,217.93747 C 97.756728,217.18778 97.151548,216.66923 96.513038,216.28122 C 95.236008,215.50521 93.695698,215.2138 92.04429,215.18747 z M 91.98179,218.31247 C 93.248208,218.33266 94.368588,218.62182 94.888038,218.93747 C 95.147758,219.0953 95.241148,219.23434 95.263038,219.28122 C 95.273988,219.30466 95.261938,219.37338 95.263038,219.40622 C 92.18624,222.70553 90.96146,228.51033 90.32554,234.68743 C 89.66878,241.06703 89.83728,247.70213 90.26304,252.03123 C 90.26473,252.04843 90.26134,252.07663 90.26304,252.09373 C 89.64898,259.73553 88.39925,264.22493 87.32554,265.93743 C 86.78689,266.79653 86.51004,266.81143 86.41929,266.81243 C 86.32854,266.81343 85.89739,266.70423 85.29429,265.99993 C 84.0881,264.59143 82.64027,261.33133 81.63804,257.28123 C 80.64233,253.25743 80.00601,248.41763 80.07554,243.59373 C 80.076,243.56213 80.07503,243.53153 80.07554,243.49993 C 80.71963,240.26753 81.15442,235.95253 81.91929,231.71873 C 82.70428,227.37353 83.93071,223.21873 85.73179,220.90623 L 85.79429,220.78123 L 85.85679,220.68743 C 86.59158,219.36073 89.44895,218.27209 91.98179,218.31247 z"
       id="path3324" />
    <path
       style="opacity:1;fill:#000000;fill-opacity:1;stroke:none;stroke-width:2.92723322;stroke-miterlimit:4;stroke-dasharray:none;stroke-opacity:1"
       d="M 53.192099,219.5825 C 50.919799,219.86727 48.734679,220.69913 47.223349,221.39493 L 46.817099,221.58243 L 46.598349,221.98873 C 42.548479,228.74333 41.520389,234.60803 40.598349,242.83243 L 40.598349,242.86373 C 39.935359,250.22663 41.075879,257.49963 42.254599,264.45743 L 42.285849,264.51993 L 42.285849,264.61363 C 42.619879,265.76803 42.869839,267.26083 43.348349,268.73863 C 43.826859,270.21653 44.581229,271.76973 46.129599,272.70743 L 46.285849,272.80123 L 46.410849,272.86363 C 47.513609,273.24093 48.563249,273.18703 49.410849,273.14493 C 50.258449,273.10283 50.935729,273.05473 51.473349,273.17623 L 51.504599,273.20743 L 51.567099,273.20743 C 52.711849,273.38723 53.932919,273.15443 54.973349,272.45743 C 56.013779,271.76043 56.812269,270.48513 56.879599,268.95743 C 57.032199,263.48853 56.648749,258.30613 56.535849,252.98873 L 56.535849,252.92623 L 56.535849,252.86373 C 55.501569,243.40253 54.380659,235.50853 58.223349,228.08243 L 58.254599,228.01993 L 58.254599,227.98873 C 58.477679,227.48043 59.054509,226.60763 59.535849,225.61373 C 60.017189,224.61983 60.495299,223.27423 59.879599,221.89493 L 59.785849,221.73873 L 59.660849,221.58243 C 58.050869,219.58198 55.464399,219.29776 53.192099,219.5825 z M 53.567099,222.48873 C 55.226529,222.28073 56.421439,222.56883 57.160849,223.30123 C 57.195159,223.51333 57.193329,223.78043 56.910849,224.36373 C 56.579899,225.04703 56.041859,225.82343 55.629599,226.73873 C 55.618929,226.76243 55.608819,226.77733 55.598349,226.80123 C 51.322089,235.12243 52.607089,243.72643 53.629599,253.05123 C 53.630509,253.09403 53.628659,253.13343 53.629599,253.17623 C 53.747619,258.54283 54.119529,263.62463 53.973349,268.86363 C 53.944559,269.51673 53.716119,269.77353 53.348349,270.01993 C 52.980579,270.26633 52.394829,270.36243 52.004599,270.30123 L 52.004599,270.33243 C 50.969879,270.12383 50.017219,270.16963 49.254599,270.20743 C 48.523529,270.24373 47.994909,270.20983 47.535849,270.08243 C 46.952739,269.66223 46.485809,268.93263 46.129599,267.83243 C 45.760659,266.69293 45.507909,265.30783 45.129599,263.95743 L 45.160849,263.95743 C 43.988159,257.03523 42.890499,250.02203 43.504599,243.14493 C 44.396279,235.19133 45.319859,230.03583 48.879599,223.92623 C 50.185929,223.35623 51.929809,222.69383 53.567099,222.48873 z"
       id="path3326" />
    <path
       style="opacity:1;fill:#2c5aa0;fill-opacity:1;stroke:none;stroke-width:2.33899999;stroke-miterlimit:4;stroke-dasharray:none;stroke-opacity:1"
       d="M 55.034624,224.13723 C 54.056584,224.02603 51.870679,224.11043 50.607122,224.51803 C 49.427199,224.89873 48.89323,225.89433 48.540953,226.80353 C 48.265212,227.51513 47.950621,228.14923 47.950621,229.27933 C 47.950621,230.06013 51.497712,229.51663 51.787789,229.46983 C 53.172492,229.24643 53.97321,227.79233 54.444292,227.18433 C 55.119019,226.31363 55.322526,225.06603 55.034624,224.13723 z"
       id="path3178" />
    <path
       style="opacity:1;fill:#2c5aa0;fill-opacity:1;stroke:none;stroke-width:2.33899999;stroke-miterlimit:4;stroke-dasharray:none;stroke-opacity:1"
       d="M 92.955728,219.55324 C 91.977687,219.44204 89.791782,219.52644 88.528225,219.93404 C 87.348302,220.31473 86.814333,221.31033 86.462056,222.21953 C 86.186315,222.93113 85.871724,223.56523 85.871724,224.69533 C 85.871724,225.47613 89.418815,224.93263 89.708892,224.88583 C 91.093595,224.66243 91.894313,223.20833 92.365395,222.60033 C 93.040118,221.72963 93.243628,220.48203 92.955728,219.55324 z"
       id="path3180" />
  </g>
</svg>
