<?xml version="1.0" encoding="UTF-8" standalone="no"?>
<!-- Created with Inkscape (http://www.inkscape.org/) -->
<svg
   xmlns:dc="http://purl.org/dc/elements/1.1/"
   xmlns:cc="http://creativecommons.org/ns#"
   xmlns:rdf="http://www.w3.org/1999/02/22-rdf-syntax-ns#"
   xmlns:svg="http://www.w3.org/2000/svg"
   xmlns="http://www.w3.org/2000/svg"
   xmlns:sodipodi="http://sodipodi.sourceforge.net/DTD/sodipodi-0.dtd"
   xmlns:inkscape="http://www.inkscape.org/namespaces/inkscape"
   width="250"
   height="250"
   id="svg2"
   sodipodi:version="0.32"
   inkscape:version="0.46"
   sodipodi:docname="earwig.svg"
   inkscape:output_extension="org.inkscape.output.svg.inkscape"
   inkscape:export-filename="P:\pidgey2\data\images\earwig.png"
   inkscape:export-xdpi="92.160004"
   inkscape:export-ydpi="92.160004"
   version="1.0">
  <defs
     id="defs4">
    <inkscape:perspective
       sodipodi:type="inkscape:persp3d"
       inkscape:vp_x="0 : 125 : 1"
       inkscape:vp_y="0 : 1000 : 0"
       inkscape:vp_z="250 : 125 : 1"
       inkscape:persp3d-origin="125 : 83.333333 : 1"
       id="perspective3645" />
  </defs>
  <sodipodi:namedview
     id="base"
     pagecolor="#cb90ff"
     bordercolor="#666666"
     borderopacity="1.0"
     gridtolerance="10000"
     guidetolerance="10"
     objecttolerance="10"
     inkscape:pageopacity="0"
     inkscape:pageshadow="2"
     inkscape:zoom="1.578"
     inkscape:cx="-10.212177"
     inkscape:cy="174.49497"
     inkscape:document-units="px"
     inkscape:current-layer="layer1"
     showgrid="false"
     inkscape:window-width="1680"
     inkscape:window-height="994"
     inkscape:window-x="0"
     inkscape:window-y="22"
     showguides="true"
     inkscape:guide-bbox="true" />
  <metadata
     id="metadata7">
    <rdf:RDF>
      <cc:Work
         rdf:about="">
        <dc:format>image/svg+xml</dc:format>
        <dc:type
           rdf:resource="http://purl.org/dc/dcmitype/StillImage" />
      </cc:Work>
    </rdf:RDF>
  </metadata>
  <g
     inkscape:label="Layer 1"
     inkscape:groupmode="layer"
     id="layer1">
    <path
       style="opacity:1;fill:none;fill-opacity:0.19767444000000001;stroke:#000000;stroke-width:3;stroke-miterlimit:4;stroke-dasharray:none;stroke-opacity:1"
       d="M 141.93791,116.92688 C 142.23519,114.13291 141.98096,108.70055 140.29371,106.42871 C 133.05643,104.09445 126.13325,103.8858 118.93598,104.005 C 114.9261,104.13519 110.92284,103.55228 106.90812,103.77254 C 103.73396,103.86548 100.60793,104.49616 97.430134,104.55336 C 96.5622,104.61635 95.694732,104.70572 94.839276,104.8686 C 94.471546,104.33614 94.10381,103.80367 93.736082,103.27121 C 92.829178,101.95803 93.761601,100.78294 94.392377,99.628288"
       id="path3641"
       sodipodi:nodetypes="ccccccsc" />
    <path
       style="opacity:1;fill:none;fill-opacity:0.19767444000000001;stroke:#000000;stroke-width:3;stroke-miterlimit:4;stroke-dasharray:none;stroke-opacity:1"
       d="M 157.68106,116.86233 C 158.75293,114.26507 159.35607,108.35008 158.37669,105.69511 C 149.81696,101.80483 146.1441,99.920698 139.24765,97.987118 C 135.36332,96.983078 131.68611,95.296658 127.77178,94.377688 C 124.69986,93.573218 121.52271,93.298258 118.45735,92.458468 C 117.60679,92.274558 116.74925,92.116078 115.88254,92.031518 C 115.6796,91.417058 115.47665,90.802598 115.27371,90.188148 C 114.77321,88.672758 115.99875,87.807708 116.92909,86.877368"
       id="path3643"
       sodipodi:nodetypes="ccccccsc" />
    <path
       style="opacity:1;fill:none;fill-opacity:0.19767444000000001;stroke:#000000;stroke-width:3;stroke-miterlimit:4;stroke-dasharray:none;stroke-opacity:1"
       d="M 143.53954,141.37886 C 143.83681,144.17282 142.7549,149.19134 141.06764,151.46318 C 132.17498,152.96974 127.73487,154.41994 120.53761,154.30074 C 116.52772,154.17055 112.52447,154.75347 108.50975,154.53321 C 105.33559,154.44025 102.20955,153.80959 99.031763,153.75237 C 98.163826,153.68938 97.296357,153.60001 96.440902,153.43714 C 96.073172,153.9696 95.705436,154.50207 95.337708,155.03453 C 94.430804,156.3477 95.363226,157.5228 95.994003,158.67745"
       id="path3639"
       sodipodi:nodetypes="ccccccsc" />
    <path
       style="opacity:1;fill:none;fill-opacity:0.19767444000000001;stroke:#000000;stroke-width:3;stroke-miterlimit:4;stroke-dasharray:none;stroke-opacity:1"
       d="M 159.28268,141.44342 C 160.35456,144.04067 160.54385,147.05873 159.56447,149.7137 C 152.56797,153.97175 147.78896,158.40666 140.84927,160.31862 C 136.96494,161.32265 133.28774,163.00907 129.37341,163.92804 C 126.30148,164.73252 123.12433,165.00748 120.05897,165.84726 C 119.20842,166.03118 118.35088,166.18966 117.48417,166.27421 C 117.28123,166.88868 117.07828,167.50313 116.87534,168.11759 C 116.37483,169.63298 117.60038,170.49802 118.53072,171.42837"
       id="path3633"
       sodipodi:nodetypes="ccccccsc" />
    <path
       style="opacity:1;fill:none;fill-opacity:0.19767444000000001;stroke:#000000;stroke-width:3;stroke-miterlimit:4;stroke-dasharray:none;stroke-opacity:1"
       d="M 176.11997,116.51588 C 176.36733,113.19889 175.50409,109.68664 176.8234,106.52589 C 178.05929,104.53271 178.81531,101.78864 181.26889,100.9636 C 183.88591,100.63677 186.55669,100.67017 189.19124,100.42731 C 190.96121,100.41083 192.66719,100.10353 194.35399,99.591468 C 197.05366,98.954498 199.88896,99.057668 202.50512,98.050488 C 204.2545,97.519798 205.87476,96.638548 207.44309,95.736958 C 209.57197,95.121308 211.32559,93.027068 210.9706,90.734618 C 210.95868,90.222768 210.87936,89.714478 210.8831,89.201998"
       id="path3618" />
    <path
       style="opacity:1;fill:none;fill-opacity:0.19767444000000001;stroke:#000000;stroke-width:3;stroke-miterlimit:4;stroke-dasharray:none;stroke-opacity:1"
       d="M 176.42872,135.83755 C 176.67609,139.15454 175.81284,142.66679 177.13216,145.82754 C 178.36804,147.82072 179.12407,150.56478 181.57765,151.38983 C 184.19467,151.71665 186.86544,151.68325 189.49999,151.92612 C 191.26996,151.9426 192.97594,152.2499 194.66275,152.76196 C 197.36242,153.39892 200.19772,153.29576 202.81388,154.30293 C 204.56326,154.83363 206.18352,155.71488 207.75184,156.61646 C 209.88073,157.23212 211.63435,159.32635 211.27936,161.6188 C 211.26744,162.13065 211.18812,162.63894 211.19185,163.15143"
       id="path3623" />
    <path
       style="opacity:1;fill:#2b1100;fill-opacity:1;stroke:#000000;stroke-width:3;stroke-miterlimit:4;stroke-dasharray:none;stroke-opacity:1"
       d="M 68.276718,117.19279 C 89.676299,110.84212 111.99638,115.88619 133.75026,116.78102 C 143.25786,123.01206 141.13851,143.12237 127.09663,139.84971 C 107.51821,139.87591 87.726888,145.34484 68.328722,141.05999 C 61.010325,136.00332 60.615013,122.11137 68.276718,117.19279 z"
       id="path3474" />
    <path
       style="opacity:1;fill:#28170b;fill-opacity:1;stroke:#000000;stroke-width:3;stroke-miterlimit:4;stroke-dasharray:none;stroke-opacity:1"
       d="M 66.228283,125.38654 C 67.104276,118.6303 59.319878,116.11824 54.025945,115.26153 C 36.863739,112.81211 25.36447,114.07646 9.6347879,120.7981 C 6.8891988,122.07036 -0.018673123,129.44998 6.3907654,124.9019 C 17.287386,120.06052 29.814548,119.02702 41.432675,121.63494 C 48.432951,123.89682 55.57592,125.72834 62.638045,127.7383 C 64.308774,128.14905 66.147445,127.21609 66.228283,125.38654 z"
       id="path3486"
       sodipodi:nodetypes="ccccccc" />
    <path
       style="opacity:1;fill:#28170b;fill-opacity:1;stroke:#000000;stroke-width:3;stroke-miterlimit:4;stroke-dasharray:none;stroke-opacity:1"
       d="M 66.123626,133.01984 C 66.99962,139.77607 59.215222,142.28813 53.921289,143.14485 C 36.759086,145.59427 25.25981,144.32991 9.5301309,137.60827 C 6.7845421,136.33602 -0.12332902,128.9564 6.2861086,133.50447 C 17.182731,138.34586 29.709893,139.37936 41.328019,136.77144 C 48.328295,134.50956 55.471263,132.67804 62.533388,130.66808 C 64.204118,130.25733 66.042789,131.19028 66.123626,133.01984 z"
       id="path3492"
       sodipodi:nodetypes="ccccccc" />
    <path
       style="opacity:1;fill:#502d16;fill-opacity:1;stroke:#000000;stroke-width:3;stroke-miterlimit:4;stroke-dasharray:none;stroke-opacity:1"
       d="M 132.03212,116.54181 C 138.24524,113.38657 158.19816,111.636 167.26422,119.53835 C 170.91818,124.66177 170.1034,131.58028 167.30531,136.89242 C 160.02236,148.70598 127.57716,147.3153 126.30983,128.81823 C 126.19632,124.43518 129.0603,120.98754 131.67152,117.82717 L 131.91472,117.21139 L 132.03212,116.54181 L 132.03212,116.54181 z"
       id="path3501"
       sodipodi:nodetypes="cccccccc" />
    <path
       style="opacity:1;fill:#502d16;fill-opacity:1;stroke:#000000;stroke-width:3;stroke-miterlimit:4;stroke-dasharray:none;stroke-opacity:1"
       d="M 159.76671,131.77316 C 177.47284,153.68252 190.16366,134.27775 181.92955,117.85929 C 174.03658,106.80585 157.7822,126.71976 159.76671,131.77316 z"
       id="path3506"
       sodipodi:nodetypes="ccc" />
    <path
       style="opacity:1;fill:#2b1100;fill-opacity:1;stroke:#000000;stroke-width:3;stroke-miterlimit:4;stroke-dasharray:none;stroke-opacity:1"
       d="M 191.47555,112.1323 C 188.89499,111.62282 184.79029,111.28025 183.85499,114.45034 C 183.47057,117.57881 182.7233,120.62351 182.23612,123.73857 C 181.64318,129.55418 182.06879,135.7521 184.59092,141.08415 C 187.01529,143.63518 190.812,141.76422 193.54689,140.75592 C 198.84278,138.70675 204.1015,136.55868 209.41305,134.57988 C 212.34387,132.71219 216.34049,131.9091 218.0682,128.61651 C 219.27094,125.77177 218.08758,122.35047 215.50674,120.70661 C 211.10429,117.50739 205.48733,117.20899 200.58377,115.1332 C 197.4989,114.28312 194.44988,113.32036 191.47555,112.1323 z"
       id="path3512" />
    <path
       style="opacity:1;fill:none;fill-opacity:1;stroke:#000000;stroke-width:3;stroke-miterlimit:4;stroke-dasharray:none;stroke-opacity:1"
       d="M 214.00835,119.53386 C 219.49259,114.76307 225.5422,110.11297 228.48868,103.23171 C 231.43312,96.987858 233.70378,90.443908 236.0112,83.947648 C 237.86668,77.713448 238.4984,71.072598 237.77461,64.618475 C 237.59143,63.85397 237.2763,63.120381 236.83379,62.470267"
       id="path3514" />
    <path
       style="opacity:1;fill:none;fill-opacity:1;stroke:#000000;stroke-width:3;stroke-miterlimit:4;stroke-dasharray:none;stroke-opacity:1"
       d="M 213.42308,130.94657 C 219.46208,134.79464 225.78066,138.47362 230.78469,143.66038 C 239.50282,153.22821 244.14277,165.87125 245.90899,178.54443 C 246.30966,182.26791 246.37302,186.08402 245.6128,189.76597"
       id="path3516" />
    <path
       style="opacity:1;fill:#552200;fill-opacity:1;stroke:none;stroke-width:3;stroke-miterlimit:4;stroke-dasharray:none;stroke-opacity:1"
       d="M 74.837784,119.7526 C 73.735143,122.78508 73.255507,125.97731 72.963178,129.17942 C 72.975403,131.89552 73.625342,134.5438 73.969737,137.22392 C 75.430917,138.69196 76.104549,131.85458 76.145373,130.23539 C 76.115255,129.11418 76.44706,128.00463 76.259498,126.88622 C 75.793102,124.47488 76.018492,121.9675 74.837784,119.7526 z"
       id="path3518"
       sodipodi:nodetypes="cccccc" />
    <path
       style="opacity:1;fill:#552200;fill-opacity:1;stroke:none;stroke-width:3;stroke-miterlimit:4;stroke-dasharray:none;stroke-opacity:1"
       d="M 84.569139,119.76729 C 83.466498,122.79976 82.986863,125.99199 82.694534,129.19411 C 82.706758,131.9102 83.356698,134.55847 83.701092,137.2386 C 85.162273,138.70664 85.835905,131.86927 85.87673,130.25007 C 85.846612,129.12886 86.178415,128.01931 85.990855,126.90089 C 85.524458,124.48956 85.749849,121.98217 84.569139,119.76729 z"
       id="path3521"
       sodipodi:nodetypes="cccccc" />
    <path
       style="opacity:1;fill:#552200;fill-opacity:1;stroke:none;stroke-width:3;stroke-miterlimit:4;stroke-dasharray:none;stroke-opacity:1"
       d="M 93.348153,119.76729 C 92.245512,122.79976 91.765876,125.99199 91.473547,129.19411 C 91.485772,131.9102 92.135711,134.55847 92.480106,137.2386 C 93.941286,138.70664 94.614919,131.86927 94.655743,130.25007 C 94.625625,129.12886 94.957429,128.01931 94.769868,126.90089 C 94.303471,124.48956 94.528862,121.98217 93.348153,119.76729 z"
       id="path3523"
       sodipodi:nodetypes="cccccc" />
    <path
       style="opacity:1;fill:#552200;fill-opacity:1;stroke:none;stroke-width:3;stroke-miterlimit:4;stroke-dasharray:none;stroke-opacity:1"
       d="M 102.12716,119.47464 C 101.02452,122.50712 100.54489,125.69935 100.25256,128.90147 C 100.26478,131.61755 100.91472,134.26584 101.25912,136.94595 C 102.7203,138.41401 103.39393,131.57662 103.43475,129.95743 C 103.40464,128.83623 103.73644,127.72667 103.54888,126.60826 C 103.08248,124.19693 103.30787,121.68954 102.12716,119.47464 z"
       id="path3525"
       sodipodi:nodetypes="cccccc" />
    <path
       style="opacity:1;fill:#552200;fill-opacity:1;stroke:none;stroke-width:3;stroke-miterlimit:4;stroke-dasharray:none;stroke-opacity:1"
       d="M 110.90618,119.47465 C 109.80354,122.50713 109.3239,125.69936 109.03157,128.90148 C 109.0438,131.61756 109.69374,134.26584 110.03813,136.94596 C 111.49931,138.41402 112.17294,131.57663 112.21377,129.95744 C 112.18365,128.83623 112.51545,127.72668 112.32789,126.60827 C 111.86149,124.19693 112.08689,121.68954 110.90618,119.47465 z"
       id="path3527"
       sodipodi:nodetypes="cccccc" />
    <path
       style="opacity:1;fill:#552200;fill-opacity:1;stroke:none;stroke-width:3;stroke-miterlimit:4;stroke-dasharray:none;stroke-opacity:1"
       d="M 119.39256,119.47465 C 118.28991,122.50713 117.81028,125.69936 117.51795,128.90148 C 117.53018,131.61756 118.18012,134.26584 118.52451,136.94596 C 119.98569,138.41402 120.65932,131.57663 120.70015,129.95744 C 120.67003,128.83623 121.00183,127.72668 120.81427,126.60827 C 120.34787,124.19693 120.57326,121.68954 119.39256,119.47465 z"
       id="path3529"
       sodipodi:nodetypes="cccccc" />
    <path
       style="opacity:1;fill:#ffffff;fill-opacity:0.19767444000000001;stroke:none;stroke-width:3;stroke-miterlimit:4;stroke-dasharray:none;stroke-opacity:1"
       d="M 60.082974,119.82649 C 52.538664,114.90092 44.089774,116.32985 35.701515,115.33335 C 28.584834,114.45139 22.575864,118.59766 15.974047,119.84753 C 30.334729,116.48097 43.389411,115.65836 57.190007,122.29095 C 58.986256,122.79477 60.129194,121.55775 60.082974,119.82649 z"
       id="path3531"
       sodipodi:nodetypes="ccccc" />
    <path
       style="opacity:1;fill:#ffffff;fill-opacity:0.19767444000000001;stroke:none;stroke-width:3;stroke-miterlimit:4;stroke-dasharray:none;stroke-opacity:1"
       d="M 60.668241,133.58028 C 54.574759,135.34671 48.911721,139.05967 42.379435,138.95818 C 39.683887,139.03939 36.989123,139.3543 34.286288,139.39467 C 28.809621,139.57552 23.32821,139.44792 17.854663,139.22812 C 28.081561,139.30572 38.273247,142.20676 48.49785,140.51331 C 51.954489,139.77403 55.659034,139.41256 58.680277,137.42627 C 59.941213,136.57769 60.821098,135.13632 60.668241,133.58028 z"
       id="path3535" />
    <path
       style="opacity:1;fill:#ffffff;fill-opacity:0.19767444000000001;stroke:none;stroke-width:3;stroke-miterlimit:4;stroke-dasharray:none;stroke-opacity:1"
       d="M 127.09611,120.11913 C 109.73233,115.2758 91.459734,116.77464 73.753207,118.43375 C 72.26919,118.62758 69.254215,120.37703 71.096435,121.91993 C 73.024564,122.71753 75.23761,121.7322 77.271575,121.6622 C 86.385342,120.35497 95.614956,117.53233 104.85368,118.87111 C 111.08484,119.45742 117.19038,120.3919 123.23325,122.06801 C 124.6502,122.18601 127.80818,122.4714 127.09611,120.11913 z"
       id="path3545"
       sodipodi:nodetypes="ccccccc" />
    <path
       style="opacity:1;fill:#ffffff;fill-opacity:0.19767444000000001;stroke:none;stroke-width:3;stroke-miterlimit:4;stroke-dasharray:none;stroke-opacity:1"
       d="M 161.18794,119.53386 C 156.61122,117.63538 151.58753,117.09142 146.66965,117.0037 C 142.9986,117.18621 139.16084,116.68154 135.64916,117.95506 C 133.91619,118.51805 132.63951,122.36823 135.54874,120.7399 C 138.73954,119.62544 142.16243,119.58159 145.50771,119.50905 C 150.49974,119.32669 155.41565,120.29598 160.30417,121.17699 C 161.14224,121.33888 162.20075,120.08951 161.18794,119.53386 z"
       id="path3550" />
    <path
       style="opacity:1;fill:#ffffff;fill-opacity:0.19767444000000001;stroke:none;stroke-width:3;stroke-miterlimit:4;stroke-dasharray:none;stroke-opacity:1"
       d="M 167.62588,122.4602 C 170.0146,120.43466 172.89358,119.14147 175.73781,117.90902 C 177.58452,117.02689 179.68735,118.4314 179.49752,120.46837 C 180.03437,122.29431 178.37772,122.41441 177.42647,121.2359 C 175.07008,120.19534 172.39894,121.18036 170.197,122.19614 C 169.35984,122.44251 168.47326,122.28114 167.62588,122.4602 z"
       id="path3556" />
    <path
       style="opacity:1;fill:#ffffff;fill-opacity:0.19767444000000001;stroke:none;stroke-width:3;stroke-miterlimit:4;stroke-dasharray:none;stroke-opacity:1"
       d="M 213.42308,122.4602 C 207.46498,120.71868 201.71767,118.2706 195.83682,116.42184 C 193.09265,115.42323 183.61359,114.22497 186.80935,119.07282 C 190.94021,120.07397 195.33842,118.79056 199.58192,119.66101 C 204.17586,119.94419 208.55982,121.54296 212.99623,122.47073 L 213.25222,122.46441 L 213.42308,122.4602 z"
       id="path3568" />
    <path
       style="opacity:1;fill:#000000;fill-opacity:0.19767444000000001;stroke:none;stroke-width:3;stroke-miterlimit:4;stroke-dasharray:none;stroke-opacity:1"
       d="M 214.00835,128.45919 C 207.60587,131.30484 200.99698,133.6844 194.38454,135.94228 C 192.40334,137.00227 186.21081,140.02435 186.90114,135.72038 C 189.81115,132.44206 194.78174,132.50869 198.69126,131.05055 C 203.00966,129.47775 207.53069,129.23293 212.06104,128.99718 C 212.7253,128.88124 213.38103,128.70823 214.00835,128.45919 z"
       id="path3578" />
    <path
       style="opacity:1;fill:#000000;fill-opacity:0.19767444000000001;stroke:none;stroke-width:3;stroke-miterlimit:4;stroke-dasharray:none;stroke-opacity:1"
       d="M 179.62387,134.89713 C 177.71593,138.74737 171.78596,139.78879 168.80248,136.61156 C 166.95113,135.26791 169.38595,133.25294 170.91764,134.28312 C 173.19762,134.72787 175.78802,135.50092 177.92246,134.16162 C 178.54458,133.9115 179.60874,134.03824 179.62387,134.89713 z"
       id="path3586" />
    <path
       style="opacity:1;fill:#000000;fill-opacity:0.19767444000000001;stroke:none;stroke-width:3;stroke-miterlimit:4;stroke-dasharray:none;stroke-opacity:1"
       d="M 162.5048,138.40874 C 157.57956,141.75078 151.30468,140.87164 145.68227,141.02777 C 141.85759,141.0501 137.09181,141.35927 134.48095,137.9878 C 134.1132,134.71682 139.30938,138.14137 141.23397,138.03866 C 147.09715,139.04071 153.00742,137.74061 158.86027,137.39902 C 159.88465,137.27948 163.44492,136.08537 162.5048,138.40874 z"
       id="path3597" />
    <path
       style="opacity:1;fill:#000000;fill-opacity:0.19767444000000001;stroke:none;stroke-width:3;stroke-miterlimit:4;stroke-dasharray:none;stroke-opacity:1"
       d="M 122.41397,137.6664 C 118.6634,138.31852 114.87321,138.74142 111.06407,138.44979 C 107.51817,138.58207 103.98681,138.95511 100.42779,138.87266 C 92.922596,139.01941 85.445406,140.00932 77.928541,139.69189 C 75.368432,139.57531 72.748735,139.73728 70.229361,139.34179 C 68.162123,137.12992 72.347572,136.02281 74.025659,136.67291 C 84.293938,136.51884 94.566877,136.81515 104.83297,136.53412 C 108.40792,135.94482 112.06939,136.18993 115.59302,135.24699 C 117.80216,135.34947 121.79021,133.77878 122.73324,136.30165 C 122.36196,136.81334 122.18302,137.05619 122.41397,137.6664 z"
       id="path3604" />
  </g>
</svg>
