<?xml version="1.0" encoding="UTF-8" standalone="no"?>
<!-- Created with Inkscape (http://www.inkscape.org/) -->
<svg
   xmlns:dc="http://purl.org/dc/elements/1.1/"
   xmlns:cc="http://creativecommons.org/ns#"
   xmlns:rdf="http://www.w3.org/1999/02/22-rdf-syntax-ns#"
   xmlns:svg="http://www.w3.org/2000/svg"
   xmlns="http://www.w3.org/2000/svg"
   xmlns:sodipodi="http://sodipodi.sourceforge.net/DTD/sodipodi-0.dtd"
   xmlns:inkscape="http://www.inkscape.org/namespaces/inkscape"
   width="250"
   height="250"
   id="svg2"
   sodipodi:version="0.32"
   inkscape:version="0.46"
   sodipodi:docname="fushia.svg"
   inkscape:output_extension="org.inkscape.output.svg.inkscape"
   inkscape:export-filename="P:\pidgey2\data\images\fushia.png"
   inkscape:export-xdpi="92.160004"
   inkscape:export-ydpi="92.160004"
   version="1.0">
  <defs
     id="defs4">
    <inkscape:perspective
       sodipodi:type="inkscape:persp3d"
       inkscape:vp_x="0 : 125 : 1"
       inkscape:vp_y="0 : 1000 : 0"
       inkscape:vp_z="250 : 125 : 1"
       inkscape:persp3d-origin="125 : 83.333333 : 1"
       id="perspective3645" />
  </defs>
  <sodipodi:namedview
     id="base"
     pagecolor="#cb90ff"
     bordercolor="#666666"
     borderopacity="1.0"
     gridtolerance="10000"
     guidetolerance="10"
     objecttolerance="10"
     inkscape:pageopacity="0"
     inkscape:pageshadow="2"
     inkscape:zoom="2.231629"
     inkscape:cx="44.417999"
     inkscape:cy="138.64672"
     inkscape:document-units="px"
     inkscape:current-layer="layer1"
     showgrid="false"
     inkscape:window-width="1680"
     inkscape:window-height="994"
     inkscape:window-x="0"
     inkscape:window-y="22"
     showguides="true"
     inkscape:guide-bbox="true" />
  <metadata
     id="metadata7">
    <rdf:RDF>
      <cc:Work
         rdf:about="">
        <dc:format>image/svg+xml</dc:format>
        <dc:type
           rdf:resource="http://purl.org/dc/dcmitype/StillImage" />
      </cc:Work>
    </rdf:RDF>
  </metadata>
  <g
     inkscape:label="Layer 1"
     inkscape:groupmode="layer"
     id="layer1">
    <path
       style="opacity:1;fill:#44aa00;fill-opacity:1;stroke:#000000;stroke-width:1.6079011;stroke-miterlimit:4;stroke-dasharray:none;stroke-opacity:1"
       d="M 102.04643,8.7672601 C 83.997169,-0.077694715 69.554145,15.617263 59.585518,27.945385 C 42.411259,38.365645 17.883559,38.634585 6.1212574,56.810331 C -0.409659,76.290107 14.407563,92.992305 23.7869,108.5805 C 37.277795,123.84063 23.594055,142.00066 16.631257,156.64496 C 7.6103622,171.86276 12.422963,193.44933 30.780913,198.38406 C 45.575794,208.20807 64.028804,207.56415 79.61972,215.17045 C 93.134881,223.56916 104.52105,239.15319 122.39129,236.54536 C 153.08245,236.31035 177.39671,215.15383 202.73563,201.05418 C 220.10984,199.75594 236.74047,191.15572 242.30419,173.44452 C 253.56764,151.39422 242.44394,127.64815 231.56179,107.96844 C 221.91228,92.262392 209.86256,76.522373 214.18205,56.926378 C 213.61896,38.666828 193.15491,31.395222 177.83872,29.614633 C 162.92559,24.573687 147.5586,32.822554 132.82434,28.590675 C 120.5773,25.0919 113.61545,13.342573 102.04643,8.7672601 z"
       id="path3270" />
    <path
       style="opacity:1;fill:#8d5fd3;fill-opacity:1;stroke:#000000;stroke-width:1.6079011;stroke-miterlimit:4;stroke-dasharray:none;stroke-opacity:1"
       d="M 80.605069,40.758078 C 79.319674,40.547266 79.346047,42.227039 79.018103,43.052819 C 78.435861,44.852851 77.448162,46.558494 75.951981,47.7482 C 74.873228,48.768435 73.656735,49.675454 72.818132,50.9203 C 72.169526,52.780068 73.273938,54.631781 74.296663,56.119309 C 75.197796,57.490988 76.644654,58.776996 78.395696,58.637243 C 80.365186,58.740999 82.486813,58.397711 83.991593,57.021494 C 85.255112,55.905696 86.170408,54.454939 87.04564,53.03238 C 87.587197,51.787861 87.569015,50.395165 87.95502,49.104217 C 88.452977,46.736054 88.490155,44.163749 87.455466,41.927556 C 86.430912,40.869521 84.854042,40.873235 83.510594,40.564826 C 82.539555,40.477702 81.557841,40.558572 80.605069,40.758078 z"
       id="path3239" />
    <path
       style="opacity:1;fill:#71c837;fill-opacity:1;stroke:#000000;stroke-width:1.6079011;stroke-miterlimit:4;stroke-dasharray:none;stroke-opacity:1"
       d="M 68.448971,86.132769 C 75.156619,87.21613 81.631548,89.963215 86.625332,94.470018 C 91.39315,98.472686 95.286848,103.60878 97.299878,109.43882 C 98.301855,112.05753 95.589291,113.62628 93.242394,113.68234 C 90.160391,114.21943 87.012884,114.06012 83.917915,114.47888 C 78.988667,113.65019 74.669054,110.9741 70.668452,108.21897 C 64.925785,103.54224 62.287494,96.511741 58.197873,90.618298 C 48.758559,84.049066 64.106498,85.485451 68.448971,86.132769 z"
       id="path3411"
       sodipodi:nodetypes="cccccccc" />
    <path
       style="opacity:1;fill:#338000;fill-opacity:1;stroke:#000000;stroke-width:1.6079011;stroke-miterlimit:4;stroke-dasharray:none;stroke-opacity:1"
       d="M 64.584793,97.092221 C 68.177483,102.70307 70.334806,109.24869 70.158795,115.88233 C 70.222019,122.0165 68.835115,128.26562 65.672263,133.60388 C 64.316123,136.073 61.317133,135.13621 59.724912,133.46189 C 57.276903,131.57083 55.322149,129.16968 52.956741,127.19061 C 50.341689,123.04568 49.552258,118.11903 49.0343,113.37253 C 48.846932,106.07995 52.52192,99.488756 54.363036,92.594023 C 53.193707,81.34932 62.217351,93.495651 64.584793,97.092221 z"
       id="path3413"
       sodipodi:nodetypes="cccccccc"
       inkscape:export-xdpi="90"
       inkscape:export-ydpi="90" />
    <path
       style="opacity:1;fill:#ffffff;fill-opacity:0.34883722;stroke:none;stroke-width:2.33999991;stroke-miterlimit:4;stroke-dasharray:none;stroke-opacity:1"
       d="M 58.051437,127.67389 C 66.311892,122.33467 58.839989,104.6167 56.133905,97.76354 C 52.424017,115.55384 52.819918,120.37526 58.051437,127.67389 z"
       id="path3415"
       sodipodi:nodetypes="ccc" />
    <path
       style="opacity:1;fill:#ffffff;fill-opacity:0.26162792;stroke:none;stroke-width:2.33999991;stroke-miterlimit:4;stroke-dasharray:none;stroke-opacity:1"
       d="M 71.840454,104.67072 C 74.153901,106.25879 76.342426,108.12084 79.061167,108.98811 C 81.830632,110.04422 84.731217,110.8749 87.681035,111.19051 C 88.930629,111.06905 92.482675,111.31934 91.98123,109.5299 C 89.748391,107.582 87.891574,105.02425 84.980057,104.00762 C 81.460471,102.54143 77.362832,101.90154 73.67364,103.04931 C 72.939042,103.43171 72.391023,104.07029 71.840454,104.67072 z"
       id="path3417" />
    <path
       style="opacity:1;fill:#71c837;fill-opacity:1;stroke:#000000;stroke-width:1.6079011;stroke-miterlimit:4;stroke-dasharray:none;stroke-opacity:1"
       d="M 200.78782,64.24832 C 202.59372,70.798507 202.78993,77.829345 200.76969,84.245557 C 199.11384,90.246527 196.06363,95.924254 191.59987,100.1806 C 189.63554,102.18135 187.08036,100.36751 186.05285,98.256752 C 184.28206,95.677701 183.11725,92.74932 181.44867,90.109242 C 180.15117,85.282161 180.78723,80.240738 181.62789,75.456508 C 183.49104,68.288617 188.78624,62.964205 192.4436,56.793191 C 194.48948,45.476398 199.56956,60.030272 200.78782,64.24832 z"
       id="path4103"
       sodipodi:nodetypes="cccccccc" />
    <path
       style="opacity:1;fill:#338000;fill-opacity:1;stroke:#000000;stroke-width:1.6079011;stroke-miterlimit:4;stroke-dasharray:none;stroke-opacity:1"
       d="M 189.21429,65.294721 C 185.60713,70.896281 180.55272,75.58158 174.44737,78.181756 C 168.89575,80.791647 162.63621,82.130738 156.46597,81.475919 C 153.65646,81.270141 153.26044,78.153303 154.12042,76.008786 C 154.82139,72.995898 156.19145,70.21929 157.00682,67.244892 C 159.68777,63.142287 163.83921,60.374481 167.93978,57.928496 C 174.49311,54.723708 182.01576,55.322887 189.05137,54.128183 C 198.78986,48.386018 191.49965,61.645439 189.21429,65.294721 z"
       id="path4105"
       sodipodi:nodetypes="cccccccc"
       inkscape:export-xdpi="90"
       inkscape:export-ydpi="90" />
    <path
       style="opacity:1;fill:#ffffff;fill-opacity:0.34883722;stroke:none;stroke-width:2.33999991;stroke-miterlimit:4;stroke-dasharray:none;stroke-opacity:1"
       d="M 158.68724,72.078699 C 166.97945,77.368477 179.98173,63.201754 185.08747,57.889485 C 167.36671,61.91847 163.14723,64.28464 158.68724,72.078699 z"
       id="path4107"
       sodipodi:nodetypes="ccc" />
    <path
       style="opacity:1;fill:#ffffff;fill-opacity:0.26162792;stroke:none;stroke-width:2.33999991;stroke-miterlimit:4;stroke-dasharray:none;stroke-opacity:1"
       d="M 185.34205,75.045825 C 184.8606,77.81028 184.07803,80.575142 184.42066,83.408218 C 184.61268,86.365993 185.06425,89.349195 186.00466,92.162853 C 186.63506,93.248593 187.88546,96.582687 189.30399,95.382136 C 190.14618,92.541259 191.69937,89.788548 191.41235,86.718028 C 191.28111,82.907519 190.15797,78.915193 187.57922,76.038118 C 186.92583,75.529247 186.11713,75.296631 185.34205,75.045825 z"
       id="path4109" />
    <path
       style="opacity:1;fill:#71c837;fill-opacity:1;stroke:#000000;stroke-width:1.6079011;stroke-miterlimit:4;stroke-dasharray:none;stroke-opacity:1"
       d="M 161.51342,208.34577 C 155.16105,210.75691 148.17945,211.61041 141.6023,210.19966 C 135.47267,209.11284 129.53435,206.60752 124.87884,202.5618 C 122.703,200.79339 124.26968,198.07962 126.27498,196.85904 C 128.67694,194.8546 131.48344,193.42078 133.95572,191.51238 C 138.64014,189.76872 143.71897,189.93006 148.56089,190.31917 C 155.87171,191.50315 161.66843,196.27668 168.15471,199.34031 C 179.61333,200.31785 165.59891,206.738 161.51342,208.34577 z"
       id="path4111"
       sodipodi:nodetypes="cccccccc" />
    <path
       style="opacity:1;fill:#338000;fill-opacity:1;stroke:#000000;stroke-width:1.6079011;stroke-miterlimit:4;stroke-dasharray:none;stroke-opacity:1"
       d="M 159.38822,196.92102 C 153.47359,193.85406 148.33572,189.26043 145.17544,183.4253 C 142.05732,178.14237 140.13815,172.03566 140.2125,165.83122 C 140.15437,163.01479 143.22045,162.32874 145.43605,162.98419 C 148.50133,163.40005 151.394,164.50417 154.43166,165.03753 C 158.76722,167.32266 161.91149,171.19677 164.73059,175.05037 C 168.53476,181.27492 168.64241,188.82063 170.49047,195.71351 C 177.11904,204.87171 163.23541,198.85473 159.38822,196.92102 z"
       id="path4113"
       sodipodi:nodetypes="cccccccc"
       inkscape:export-xdpi="90"
       inkscape:export-ydpi="90" />
    <path
       style="opacity:1;fill:#ffffff;fill-opacity:0.34883722;stroke:none;stroke-width:2.33999991;stroke-miterlimit:4;stroke-dasharray:none;stroke-opacity:1"
       d="M 149.77639,167.16306 C 145.28607,175.91404 160.60773,187.53307 166.37463,192.11911 C 160.70448,174.85332 157.95372,170.87386 149.77639,167.16306 z"
       id="path4115"
       sodipodi:nodetypes="ccc" />
    <path
       style="opacity:1;fill:#ffffff;fill-opacity:0.26162792;stroke:none;stroke-width:2.33999991;stroke-miterlimit:4;stroke-dasharray:none;stroke-opacity:1"
       d="M 149.31745,193.97858 C 146.52007,193.75803 143.69409,193.23771 140.90553,193.84404 C 137.97872,194.31209 135.05088,195.04095 132.33762,196.24061 C 131.31566,196.96988 128.11325,198.52689 129.44131,199.8268 C 132.34856,200.39936 135.23458,201.68806 138.26475,201.11486 C 142.04623,200.62749 145.91589,199.13556 148.53894,196.29881 C 148.98441,195.60066 149.14031,194.77373 149.31745,193.97858 z"
       id="path4117" />
    <path
       style="opacity:1;fill:#8d5fd3;fill-opacity:1;stroke:#000000;stroke-width:1.6079011;stroke-miterlimit:4;stroke-dasharray:none;stroke-opacity:1"
       d="M 87.994872,58.308855 C 89.749524,59.229782 91.867141,59.772055 93.803894,59.117127 C 95.242333,57.412192 95.023457,55.039659 95.038544,52.959176 C 94.752218,49.80983 93.933629,46.72176 92.83659,43.764939 C 92.081022,42.315723 91.385343,40.724088 90.080003,39.68436 C 88.84002,39.030637 87.41269,38.956466 86.047695,38.799128 C 84.468048,39.065446 83.696694,40.683238 83.241911,42.050841 C 82.480015,44.112196 81.824435,46.307054 82.012702,48.525942 C 82.426531,50.478161 83.415948,52.240165 84.165185,54.071847 C 85.060663,55.771821 86.344258,57.30068 87.994872,58.308855 z"
       id="path3241" />
    <path
       style="opacity:1;fill:none;fill-opacity:1;stroke:#000000;stroke-width:1.6079011;stroke-miterlimit:4;stroke-dasharray:none;stroke-opacity:1"
       d="M 84.849684,56.304285 C 84.899428,57.600827 84.736017,58.894132 84.586577,60.178542 C 84.254763,61.462506 83.300245,62.435433 82.574476,63.504297 C 81.864927,64.416711 81.066951,65.263924 80.168615,65.993006"
       id="path3292" />
    <path
       style="opacity:1;fill:#ffd42a;fill-opacity:1;stroke:#000000;stroke-width:1.6079011;stroke-miterlimit:4;stroke-dasharray:none;stroke-opacity:1"
       d="M 79.84203,65.122111 C 79.407786,64.892946 78.80933,65.10813 78.317961,65.230972 C 77.871558,65.342573 77.664789,65.856569 77.664789,66.319593 C 77.664789,67.022238 77.779499,67.247844 78.317961,67.517075 C 78.854615,67.785402 79.329034,67.843661 79.950892,67.843661 C 80.49538,67.843661 80.763589,67.41575 80.930651,67.081627 C 81.170128,66.602671 80.910363,66.020718 80.821788,65.666421 C 80.767544,65.449442 79.963423,65.146389 79.84203,65.122111 z"
       id="path3307" />
    <path
       style="opacity:1;fill:#ffd42a;fill-opacity:1;stroke:#000000;stroke-width:1.6079011;stroke-miterlimit:4;stroke-dasharray:none;stroke-opacity:1"
       d="M 88.174989,64.791634 C 87.740745,64.56247 87.142288,64.777653 86.65092,64.900496 C 86.204516,65.012096 85.997748,65.526092 85.997748,65.989116 C 85.997748,66.691761 86.112457,66.917367 86.65092,67.186599 C 87.187574,67.454926 87.661993,67.513185 88.283851,67.513185 C 88.828339,67.513185 89.096548,67.085273 89.263609,66.751151 C 89.503087,66.272194 89.243322,65.690242 89.154747,65.335944 C 89.100502,65.118965 88.296381,64.815913 88.174989,64.791634 z"
       id="path3309" />
    <path
       style="opacity:1;fill:none;fill-opacity:1;stroke:#000000;stroke-width:1.6079011;stroke-miterlimit:4;stroke-dasharray:none;stroke-opacity:1"
       d="M 85.502856,56.739733 C 85.01466,58.144558 84.844714,59.76994 85.528003,61.141739 C 85.92806,62.002097 86.568582,62.71975 87.235957,63.382285 C 87.440524,63.6591 88.202535,64.761076 88.442131,65.01325"
       id="path3311"
       sodipodi:nodetypes="cccc" />
    <path
       style="opacity:1;fill:#440055;fill-opacity:1;stroke:#000000;stroke-width:1.6079011;stroke-miterlimit:4;stroke-dasharray:none;stroke-opacity:1"
       d="M 74.725074,42.468924 C 73.122398,43.041349 71.515898,43.604985 69.94992,44.270807 C 67.346715,45.1346 64.522938,44.61942 61.897325,45.328357 C 60.479773,46.030754 61.869993,47.286517 62.924976,47.286789 C 63.821125,47.409804 64.655739,47.751075 65.521999,47.981139 C 66.928709,48.232437 68.380559,48.109823 69.778857,48.40438 C 71.756258,48.375385 73.736794,48.296051 75.708306,48.161125 C 79.023527,47.730385 82.351854,46.454666 84.747317,44.062834 C 85.771225,43.066529 85.716036,41.541549 85.558135,40.233389 C 85.565667,39.011809 85.308384,37.61126 83.921982,37.276293 C 81.327654,37.684338 77.703045,41.116764 74.725074,42.468924 z"
       id="path3320"
       sodipodi:nodetypes="ccccccccccc" />
    <path
       style="opacity:1;fill:#440055;fill-opacity:1;stroke:#000000;stroke-width:1.6079011;stroke-miterlimit:4;stroke-dasharray:none;stroke-opacity:1"
       d="M 94.591933,42.38807 C 96.194609,42.960494 97.801109,43.524131 99.367087,44.189952 C 101.97029,45.053746 104.79407,44.538566 107.41968,45.247503 C 108.83723,45.949899 107.44701,47.205663 106.39203,47.205935 C 105.49588,47.32895 104.66127,47.670221 103.79501,47.900285 C 102.3883,48.151583 100.93645,48.028969 99.53815,48.323526 C 97.560749,48.294531 95.580213,48.215197 93.608701,48.080271 C 90.29348,47.649531 86.965153,46.373812 84.56969,43.98198 C 83.545782,42.985674 83.600971,41.460695 83.758872,40.152534 C 83.75134,38.930955 84.008623,37.530406 85.395025,37.195439 C 87.989353,37.603484 91.613962,41.035909 94.591933,42.38807 z"
       id="path3326"
       sodipodi:nodetypes="ccccccccccc" />
    <path
       style="opacity:1;fill:#440055;fill-opacity:1;stroke:#000000;stroke-width:1.6079011;stroke-miterlimit:4;stroke-dasharray:none;stroke-opacity:1"
       d="M 79.065526,38.306124 C 79.251498,36.621129 78.767879,34.848998 79.451104,33.234004 C 79.909309,31.9949 81.198368,31.1769 82.501949,31.16086 C 83.69213,31.089319 84.950533,31.017736 86.050294,31.566747 C 86.740588,31.899457 87.438283,32.419531 87.621449,33.204885 C 87.913249,34.277129 87.672307,35.389386 87.692273,36.480085 C 87.658484,37.390194 87.412226,38.437402 86.55005,38.912292 C 85.578167,39.547378 84.384576,39.669048 83.251596,39.615021 C 82.348605,39.58959 81.442774,39.637199 80.541688,39.59381 C 79.825217,39.60246 79.51306,38.961883 79.218691,38.431941 L 79.147354,38.364163 L 79.065526,38.306124 L 79.065526,38.306124 z"
       id="path3328" />
    <path
       style="opacity:1;fill:#ffffff;fill-opacity:0.26162792;stroke:none;stroke-width:2.33999991;stroke-miterlimit:4;stroke-dasharray:none;stroke-opacity:1"
       d="M 101.39429,45.91267 C 102.13923,46.007752 102.89736,46.013594 103.63679,46.128207 C 104.2151,46.387861 103.0666,46.336472 102.8629,46.364847 C 98.466746,46.647242 94.404214,45.984328 90.370811,44.265305 C 89.144329,43.064872 87.567472,42.117846 87.578012,40.302131 C 91.726128,43.02327 96.422828,45.29623 101.39429,45.91267 z"
       id="path3335"
       sodipodi:nodetypes="cccccc" />
    <path
       style="opacity:1;fill:#ffffff;fill-opacity:0.26162792;stroke:none;stroke-width:2.33999991;stroke-miterlimit:4;stroke-dasharray:none;stroke-opacity:1"
       d="M 67.124044,46.461866 C 66.379106,46.556948 65.620976,46.56279 64.881551,46.677404 C 64.303237,46.937058 65.451733,46.885668 65.655438,46.914043 C 70.051592,47.196439 74.114124,46.533525 78.147527,44.814502 C 79.374009,43.614069 80.950866,42.667043 80.940326,40.851328 C 76.79221,43.572467 72.09551,45.845426 67.124044,46.461866 z"
       id="path3343"
       sodipodi:nodetypes="cccccc" />
    <path
       style="opacity:1;fill:#000000;fill-opacity:0.26162792;stroke:none;stroke-width:2.33999991;stroke-miterlimit:4;stroke-dasharray:none;stroke-opacity:1"
       d="M 76.756215,49.302535 C 76.059583,49.757984 75.457615,50.339349 74.852109,50.905459 C 74.570392,51.209032 74.287514,51.53618 73.899393,51.705023 C 73.645763,51.930194 73.900072,52.274025 74.149201,52.370358 C 74.808464,52.619822 75.547148,52.455628 76.163857,52.158812 C 76.66696,51.899165 77.159728,51.603072 77.717272,51.472514 C 78.527432,51.267663 79.208694,50.747393 79.864644,50.251983 C 80.225573,50.01339 80.511666,49.678772 80.703253,49.291357 C 80.893117,48.891963 81.095349,47.934847 81.018472,47.472467 C 79.518563,46.948664 77.99799,48.40254 76.756215,49.302535 z"
       id="path3345"
       sodipodi:nodetypes="cccscccscc" />
    <path
       style="opacity:1;fill:#000000;fill-opacity:0.26162792;stroke:none;stroke-width:2.33999991;stroke-miterlimit:4;stroke-dasharray:none;stroke-opacity:1"
       d="M 85.377649,45.761589 C 85.246362,46.161984 85.566461,46.902084 86.070443,47.532062 C 86.42715,47.977946 86.665315,48.434843 87.071145,48.840673 C 87.467725,49.237253 87.762732,49.686214 88.148824,50.072306 C 88.51359,50.437072 89.083638,50.725566 89.534412,50.996031 C 90.084501,51.326085 90.721409,51.58953 91.227908,51.842779 C 91.564524,52.011087 92.190581,51.986996 92.459542,51.919756 C 92.764611,51.843489 92.843875,51.460098 92.921404,51.149985 C 93.005322,50.814314 92.921404,50.343378 92.921404,49.995329 C 92.921404,49.610444 92.921404,49.225558 92.921404,48.840673 C 92.921404,48.557413 91.772264,48.34308 91.535816,48.224856 C 91.171119,48.042507 90.705548,47.886698 90.458137,47.762993 C 90.144272,47.606061 89.836544,47.375219 89.534412,47.224154 C 89.134329,47.024112 88.864124,46.921872 88.533709,46.839268 C 88.092237,46.7289 87.896438,46.487507 87.45603,46.377405 C 87.13465,46.29706 87.027837,46.097158 86.609283,45.99252 C 86.056629,45.854357 86.079484,45.621222 85.377649,45.761589 z"
       id="path3351" />
    <path
       style="opacity:1;fill:#ffffff;fill-opacity:0.26162792;stroke:none;stroke-width:2.33999991;stroke-miterlimit:4;stroke-dasharray:none;stroke-opacity:1"
       d="M 81.855978,32.844514 C 82.094375,32.8613 82.969663,32.790083 83.54334,32.790083 C 83.849264,32.790083 84.14785,32.874614 84.414236,33.007807 C 84.775253,33.188316 85.187068,33.41053 85.448425,33.606548 C 85.572406,33.699534 85.724095,34.273781 85.775012,34.477445 C 85.85364,34.79196 85.82074,35.195966 85.883873,35.511634 C 85.945467,35.819603 85.879215,36.141517 85.938304,36.436961 C 86.036756,36.929221 85.860001,36.933529 85.666149,36.545823 C 85.486259,36.186044 85.397229,35.895886 85.121839,35.620496 C 84.907244,35.405901 84.746463,35.138139 84.577529,34.912893 C 84.377524,34.646219 84.124496,34.45986 83.924357,34.25972 C 83.704599,34.039963 83.209792,33.902438 82.944598,33.769841 C 82.738935,33.66701 82.576522,33.585803 82.400288,33.497686 C 82.125339,33.360212 81.916044,33.204913 81.855978,32.844514 z"
       id="path3355" />
    <path
       style="opacity:1;fill:none;fill-opacity:1;stroke:#000000;stroke-width:1.6079011;stroke-miterlimit:4;stroke-dasharray:none;stroke-opacity:1"
       d="M 83.488908,30.721704 C 83.59803,30.206065 83.714428,29.236475 84.033218,28.598894 C 84.467547,27.730237 84.685569,26.803492 85.393994,26.095067 C 85.910895,25.578166 86.464652,25.267607 87.081356,24.897585 C 87.120457,24.874124 87.405667,24.789481 87.407942,24.788722"
       id="path3361" />
    <path
       style="opacity:1;fill:#8d5fd3;fill-opacity:1;stroke:#000000;stroke-width:1.6079011;stroke-miterlimit:4;stroke-dasharray:none;stroke-opacity:1"
       d="M 170.77159,122.03012 C 169.4862,121.81931 169.51257,123.49908 169.18463,124.32486 C 168.60239,126.1249 167.61469,127.83054 166.11851,129.02025 C 165.03976,130.04048 163.82326,130.9475 162.98466,132.19235 C 162.33606,134.05211 163.44046,135.90382 164.46319,137.39135 C 165.36432,138.76303 166.81118,140.04904 168.56222,139.90929 C 170.53171,140.01304 172.65334,139.66975 174.15812,138.29353 C 175.42164,137.17774 176.33694,135.72698 177.21216,134.30442 C 177.75372,133.05991 177.73554,131.66721 178.12155,130.37626 C 178.6195,128.0081 178.65669,125.43579 177.62199,123.1996 C 176.59744,122.14156 175.02057,122.14528 173.67712,121.83687 C 172.70608,121.74974 171.72437,121.83061 170.77159,122.03012 z"
       id="path3363" />
    <path
       style="opacity:1;fill:#8d5fd3;fill-opacity:1;stroke:#000000;stroke-width:1.6079011;stroke-miterlimit:4;stroke-dasharray:none;stroke-opacity:1"
       d="M 178.1614,139.5809 C 179.91605,140.50183 182.03367,141.0441 183.97042,140.38917 C 185.40886,138.68423 185.18999,136.3117 185.20507,134.23122 C 184.91875,131.08187 184.10016,127.9938 183.00312,125.03698 C 182.24755,123.58777 181.55187,121.99613 180.24653,120.9564 C 179.00655,120.30268 177.57922,120.22851 176.21422,120.07117 C 174.63458,120.33749 173.86322,121.95528 173.40844,123.32288 C 172.64654,125.38424 171.99096,127.5791 172.17923,129.79798 C 172.59306,131.7502 173.58247,133.51221 174.33171,135.34389 C 175.22719,137.04387 176.51078,138.57272 178.1614,139.5809 z"
       id="path3365" />
    <path
       style="opacity:1;fill:none;fill-opacity:1;stroke:#000000;stroke-width:1.6079011;stroke-miterlimit:4;stroke-dasharray:none;stroke-opacity:1"
       d="M 175.01621,137.57633 C 175.06595,138.87287 174.90255,140.16618 174.75311,141.45059 C 174.42129,142.73455 173.46677,143.70747 172.741,144.77634 C 172.03145,145.68875 171.23348,146.53597 170.33514,147.26505"
       id="path3367" />
    <path
       style="opacity:1;fill:#ffd42a;fill-opacity:1;stroke:#000000;stroke-width:1.6079011;stroke-miterlimit:4;stroke-dasharray:none;stroke-opacity:1"
       d="M 170.00855,146.39415 C 169.57431,146.16499 168.97586,146.38017 168.48449,146.50302 C 168.03809,146.61461 167.83132,147.12861 167.83132,147.59163 C 167.83132,148.29428 167.94602,148.51989 168.48449,148.78912 C 169.02115,149.05744 169.49556,149.11571 170.11742,149.11571 C 170.66191,149.11571 170.93012,148.68779 171.09718,148.35367 C 171.33665,147.87471 171.07689,147.29276 170.98832,146.93846 C 170.93407,146.72149 170.12995,146.41843 170.00855,146.39415 z"
       id="path3369" />
    <path
       style="opacity:1;fill:#ffd42a;fill-opacity:1;stroke:#000000;stroke-width:1.6079011;stroke-miterlimit:4;stroke-dasharray:none;stroke-opacity:1"
       d="M 178.34152,146.06368 C 177.90727,145.83451 177.30882,146.0497 176.81745,146.17254 C 176.37104,146.28414 176.16427,146.79814 176.16427,147.26116 C 176.16427,147.9638 176.27898,148.18941 176.81745,148.45864 C 177.3541,148.72697 177.82852,148.78523 178.45038,148.78523 C 178.99487,148.78523 179.26308,148.35732 179.43013,148.02319 C 179.66961,147.54424 179.40985,146.96229 179.32127,146.60799 C 179.26703,146.39101 178.46291,146.08796 178.34152,146.06368 z"
       id="path3371" />
    <path
       style="opacity:1;fill:none;fill-opacity:1;stroke:#000000;stroke-width:1.6079011;stroke-miterlimit:4;stroke-dasharray:none;stroke-opacity:1"
       d="M 175.66938,138.01177 C 175.18119,139.41661 175.01124,141.04199 175.69453,142.41378 C 176.09458,143.27414 176.73511,143.99179 177.40248,144.65433 C 177.60705,144.93114 178.36906,146.03312 178.60865,146.28529"
       id="path3373"
       sodipodi:nodetypes="cccc" />
    <path
       style="opacity:1;fill:#440055;fill-opacity:1;stroke:#000000;stroke-width:1.6079011;stroke-miterlimit:4;stroke-dasharray:none;stroke-opacity:1"
       d="M 164.8916,123.74097 C 163.28892,124.31339 161.68242,124.87703 160.11644,125.54285 C 157.51324,126.40664 154.68946,125.89146 152.06385,126.6004 C 150.6463,127.30279 152.03652,128.55856 153.0915,128.55883 C 153.98765,128.68184 154.82227,129.02312 155.68853,129.25319 C 157.09523,129.50448 158.54708,129.38187 159.94538,129.67642 C 161.92278,129.64743 163.90332,129.56809 165.87483,129.43317 C 169.19006,129.00243 172.51838,127.72671 174.91384,125.33488 C 175.93775,124.33857 175.88256,122.81359 175.72466,121.50543 C 175.73219,120.28385 175.47491,118.8833 174.08851,118.54834 C 171.49418,118.95638 167.86957,122.38881 164.8916,123.74097 z"
       id="path3375"
       sodipodi:nodetypes="ccccccccccc" />
    <path
       style="opacity:1;fill:#440055;fill-opacity:1;stroke:#000000;stroke-width:1.6079011;stroke-miterlimit:4;stroke-dasharray:none;stroke-opacity:1"
       d="M 184.75846,123.66012 C 186.36114,124.23254 187.96764,124.79617 189.53361,125.462 C 192.13682,126.32579 194.9606,125.81061 197.58621,126.51955 C 199.00376,127.22195 197.61354,128.4777 196.55855,128.47798 C 195.66241,128.601 194.82779,128.94226 193.96153,129.17233 C 192.55483,129.42362 191.10297,129.30101 189.70468,129.59557 C 187.72727,129.56658 185.74674,129.48724 183.77523,129.35231 C 180.46001,128.92157 177.13168,127.64585 174.73622,125.25403 C 173.71231,124.25772 173.7675,122.73274 173.9254,121.42458 C 173.91786,120.203 174.17515,118.80245 175.56155,118.46748 C 178.15588,118.87553 181.78049,122.30795 184.75846,123.66012 z"
       id="path3377"
       sodipodi:nodetypes="ccccccccccc" />
    <path
       style="opacity:1;fill:#440055;fill-opacity:1;stroke:#000000;stroke-width:1.6079011;stroke-miterlimit:4;stroke-dasharray:none;stroke-opacity:1"
       d="M 169.23206,119.57817 C 169.41802,117.89317 168.93441,116.12104 169.61763,114.50605 C 170.07584,113.26694 171.36489,112.44894 172.66848,112.4329 C 173.85866,112.36136 175.11706,112.28978 176.21682,112.83879 C 176.90712,113.1715 177.60481,113.69158 177.78798,114.47693 C 178.07978,115.54918 177.83883,116.66143 177.8588,117.75213 C 177.82501,118.66224 177.57875,119.70945 176.71657,120.18433 C 175.74469,120.81942 174.5511,120.94109 173.41812,120.88706 C 172.51513,120.86163 171.6093,120.90924 170.70821,120.86585 C 169.99174,120.8745 169.67959,120.23393 169.38522,119.70398 L 169.31388,119.63621 L 169.23206,119.57817 L 169.23206,119.57817 z"
       id="path3379" />
    <path
       style="opacity:1;fill:#ffffff;fill-opacity:0.26162792;stroke:none;stroke-width:2.33999991;stroke-miterlimit:4;stroke-dasharray:none;stroke-opacity:1"
       d="M 191.56082,127.18471 C 192.30576,127.2798 193.06389,127.28564 193.80331,127.40025 C 194.38163,127.65991 193.23313,127.60852 193.02942,127.63689 C 188.63327,127.91929 184.57074,127.25637 180.53734,125.53735 C 179.31085,124.33692 177.734,123.38989 177.74454,121.57417 C 181.89265,124.29531 186.58935,126.56827 191.56082,127.18471 z"
       id="path3381"
       sodipodi:nodetypes="cccccc" />
    <path
       style="opacity:1;fill:#ffffff;fill-opacity:0.26162792;stroke:none;stroke-width:2.33999991;stroke-miterlimit:4;stroke-dasharray:none;stroke-opacity:1"
       d="M 157.29057,127.73391 C 156.54563,127.82899 155.7875,127.83483 155.04808,127.94945 C 154.46976,128.2091 155.61826,128.15771 155.82197,128.18609 C 160.21812,128.46848 164.28065,127.80557 168.31405,126.08655 C 169.54054,124.88611 171.11739,123.93909 171.10685,122.12337 C 166.95874,124.84451 162.26204,127.11747 157.29057,127.73391 z"
       id="path3383"
       sodipodi:nodetypes="cccccc" />
    <path
       style="opacity:1;fill:#000000;fill-opacity:0.26162792;stroke:none;stroke-width:2.33999991;stroke-miterlimit:4;stroke-dasharray:none;stroke-opacity:1"
       d="M 166.92274,130.57458 C 166.22611,131.03003 165.62414,131.61139 165.01863,132.1775 C 164.73692,132.48107 164.45404,132.80822 164.06592,132.97706 C 163.81229,133.20224 164.0666,133.54607 164.31573,133.6424 C 164.97499,133.89186 165.71367,133.72767 166.33038,133.43086 C 166.83349,133.17121 167.32625,132.87511 167.8838,132.74456 C 168.69396,132.53971 169.37522,132.01944 170.03117,131.52403 C 170.3921,131.28544 170.67819,130.95081 170.86978,130.5634 C 171.05964,130.16401 171.26188,129.20689 171.185,128.74451 C 169.68509,128.22071 168.16452,129.67459 166.92274,130.57458 z"
       id="path3385"
       sodipodi:nodetypes="cccscccscc" />
    <path
       style="opacity:1;fill:#000000;fill-opacity:0.26162792;stroke:none;stroke-width:2.33999991;stroke-miterlimit:4;stroke-dasharray:none;stroke-opacity:1"
       d="M 175.54417,127.03363 C 175.41289,127.43403 175.73298,128.17413 176.23697,128.80411 C 176.59368,129.24999 176.83184,129.70689 177.23767,130.11272 C 177.63425,130.50929 177.92926,130.95825 178.31535,131.34435 C 178.68012,131.70912 179.25017,131.99761 179.70094,132.26808 C 180.25103,132.59813 180.88794,132.86157 181.39443,133.11482 C 181.73105,133.28313 182.3571,133.25904 182.62607,133.1918 C 182.93114,133.11553 183.0104,132.73214 183.08793,132.42203 C 183.17185,132.08636 183.08793,131.61542 183.08793,131.26737 C 183.08793,130.88248 183.08793,130.49761 183.08793,130.11272 C 183.08793,129.82946 181.93879,129.61512 181.70235,129.4969 C 181.33765,129.31455 180.87208,129.15874 180.62467,129.03504 C 180.3108,128.87811 180.00307,128.64726 179.70094,128.49619 C 179.30086,128.29615 179.03065,128.19392 178.70024,128.11131 C 178.25876,128.00095 178.06296,127.75955 177.62256,127.64945 C 177.30118,127.5691 177.19436,127.3692 176.77581,127.26456 C 176.22315,127.1264 176.24601,126.89327 175.54417,127.03363 z"
       id="path3387" />
    <path
       style="opacity:1;fill:#ffffff;fill-opacity:0.26162792;stroke:none;stroke-width:2.33999991;stroke-miterlimit:4;stroke-dasharray:none;stroke-opacity:1"
       d="M 172.02251,114.11656 C 172.2609,114.13334 173.13619,114.06213 173.70987,114.06213 C 174.01579,114.06213 174.31438,114.14666 174.58077,114.27985 C 174.94178,114.46036 175.3536,114.68257 175.61495,114.87859 C 175.73894,114.97157 175.89062,115.54582 175.94154,115.74949 C 176.02017,116.06401 175.98727,116.46801 176.0504,116.78368 C 176.112,117.09165 176.04574,117.41356 176.10483,117.70901 C 176.20328,118.20126 176.02653,118.20557 175.83267,117.81787 C 175.65279,117.45809 175.56376,117.16793 175.28837,116.89254 C 175.07377,116.67794 174.91299,116.41019 174.74406,116.18494 C 174.54405,115.91826 174.29102,115.73191 174.09088,115.53176 C 173.87112,115.31201 173.37632,115.17448 173.11112,115.04188 C 172.90546,114.93905 172.74305,114.85785 172.56681,114.76973 C 172.29186,114.63225 172.08257,114.47696 172.02251,114.11656 z"
       id="path3389" />
    <path
       style="opacity:1;fill:none;fill-opacity:1;stroke:#000000;stroke-width:1.6079011;stroke-miterlimit:4;stroke-dasharray:none;stroke-opacity:1"
       d="M 173.65543,111.99375 C 173.76456,111.47811 173.88096,110.50852 174.19975,109.87094 C 174.63407,109.00228 174.8521,108.07553 175.56052,107.36711 C 176.07742,106.85021 176.63118,106.53965 177.24788,106.16963 C 177.28699,106.14617 177.5722,106.06153 177.57447,106.06077"
       id="path3391" />
    <path
       style="opacity:1;fill:#8d5fd3;fill-opacity:1;stroke:#000000;stroke-width:1.6079011;stroke-miterlimit:4;stroke-dasharray:none;stroke-opacity:1"
       d="M 77.167449,158.67121 C 75.882056,158.4604 75.908428,160.14018 75.580485,160.96595 C 74.998246,162.76599 74.010548,164.47163 72.514362,165.66134 C 71.435611,166.68157 70.219117,167.58859 69.380514,168.83344 C 68.731912,170.6932 69.83632,172.54491 70.859048,174.03244 C 71.76018,175.40413 73.207037,176.69013 74.958076,176.55038 C 76.927569,176.65413 79.049195,176.31084 80.553977,174.93463 C 81.817492,173.81883 82.732793,172.36807 83.608021,170.94551 C 84.149581,169.701 84.131399,168.3083 84.517405,167.01735 C 85.01536,164.64919 85.052541,162.07689 84.01785,159.84069 C 82.993294,158.78265 81.416424,158.78637 80.072974,158.47796 C 79.101939,158.39083 78.120226,158.4717 77.167449,158.67121 z"
       id="path3393" />
    <path
       style="opacity:1;fill:#8d5fd3;fill-opacity:1;stroke:#000000;stroke-width:1.6079011;stroke-miterlimit:4;stroke-dasharray:none;stroke-opacity:1"
       d="M 84.557253,176.22199 C 86.311906,177.14292 88.429525,177.68519 90.366276,177.03026 C 91.804716,175.32532 91.585842,172.95279 91.600925,170.87231 C 91.314601,167.72296 90.496015,164.63489 89.398973,161.67807 C 88.643403,160.22886 87.947725,158.63722 86.642384,157.59749 C 85.402404,156.94377 83.975075,156.8696 82.610077,156.71226 C 81.030431,156.97858 80.259079,158.59637 79.804297,159.96397 C 79.042399,162.02533 78.386815,164.22019 78.575084,166.43907 C 78.988912,168.39129 79.978328,170.1533 80.727569,171.98498 C 81.623046,173.68496 82.906639,175.21382 84.557253,176.22199 z"
       id="path3395" />
    <path
       style="opacity:1;fill:none;fill-opacity:1;stroke:#000000;stroke-width:1.6079011;stroke-miterlimit:4;stroke-dasharray:none;stroke-opacity:1"
       d="M 81.412067,174.21742 C 81.461809,175.51396 81.298401,176.80727 81.148963,178.09168 C 80.817144,179.37564 79.862628,180.34857 79.13686,181.41743 C 78.427308,182.32984 77.629336,183.17706 76.731,183.90614"
       id="path3397" />
    <path
       style="opacity:1;fill:#ffd42a;fill-opacity:1;stroke:#000000;stroke-width:1.6079011;stroke-miterlimit:4;stroke-dasharray:none;stroke-opacity:1"
       d="M 76.40441,183.03525 C 75.970167,182.80608 75.371712,183.02126 74.880347,183.14411 C 74.433941,183.25571 74.227175,183.76971 74.227175,184.23273 C 74.227175,184.93537 74.341879,185.16098 74.880347,185.43021 C 75.417001,185.69853 75.891414,185.7568 76.513274,185.7568 C 77.057761,185.7568 77.325971,185.32888 77.493035,184.99476 C 77.732509,184.51581 77.472744,183.93386 77.384172,183.57955 C 77.329929,183.36258 76.525807,183.05952 76.40441,183.03525 z"
       id="path3399" />
    <path
       style="opacity:1;fill:#ffd42a;fill-opacity:1;stroke:#000000;stroke-width:1.6079011;stroke-miterlimit:4;stroke-dasharray:none;stroke-opacity:1"
       d="M 84.737372,182.70477 C 84.303129,182.47561 83.704673,182.69079 83.213301,182.81363 C 82.766896,182.92523 82.560129,183.43923 82.560129,183.90225 C 82.560129,184.60489 82.67484,184.8305 83.213301,185.09974 C 83.749956,185.36806 84.224376,185.42632 84.846235,185.42632 C 85.390722,185.42632 85.658933,184.99841 85.82599,184.66428 C 86.065471,184.18533 85.805705,183.60338 85.717126,183.24908 C 85.662884,183.0321 84.858761,182.72905 84.737372,182.70477 z"
       id="path3401" />
    <path
       style="opacity:1;fill:none;fill-opacity:1;stroke:#000000;stroke-width:1.6079011;stroke-miterlimit:4;stroke-dasharray:none;stroke-opacity:1"
       d="M 82.065239,174.65286 C 81.577042,176.0577 81.407099,177.68308 82.090389,179.05487 C 82.49044,179.91523 83.130962,180.63288 83.798337,181.29542 C 84.002905,181.57223 84.764919,182.67421 85.00451,182.92638"
       id="path3403"
       sodipodi:nodetypes="cccc" />
    <path
       style="opacity:1;fill:#440055;fill-opacity:1;stroke:#000000;stroke-width:1.6079011;stroke-miterlimit:4;stroke-dasharray:none;stroke-opacity:1"
       d="M 71.287458,160.38206 C 69.684779,160.95448 68.078279,161.51812 66.5123,162.18394 C 63.909095,163.04774 61.085318,162.53255 58.459705,163.24149 C 57.042154,163.94389 58.432377,165.19965 59.48736,165.19992 C 60.38351,165.32294 61.218121,165.66421 62.084381,165.89428 C 63.491089,166.14557 64.942941,166.02296 66.341238,166.31751 C 68.31864,166.28852 70.299176,166.20919 72.270689,166.07426 C 75.585913,165.64352 78.914234,164.3678 81.309698,161.97597 C 82.333608,160.97967 82.278417,159.45468 82.12052,158.14652 C 82.128051,156.92494 81.870766,155.52439 80.484363,155.18943 C 77.890036,155.59747 74.265428,159.0299 71.287458,160.38206 z"
       id="path3405"
       sodipodi:nodetypes="ccccccccccc" />
    <path
       style="opacity:1;fill:#440055;fill-opacity:1;stroke:#000000;stroke-width:1.6079011;stroke-miterlimit:4;stroke-dasharray:none;stroke-opacity:1"
       d="M 91.154313,160.30121 C 92.756992,160.87363 94.363491,161.43726 95.92947,162.10309 C 98.532679,162.96688 101.35646,162.4517 103.98207,163.16064 C 105.39962,163.86304 104.0094,165.11879 102.95441,165.11907 C 102.05827,165.24209 101.22365,165.58335 100.35739,165.81342 C 98.950685,166.06471 97.498833,165.9421 96.100533,166.23666 C 94.12313,166.20767 92.142595,166.12833 90.171081,165.9934 C 86.855864,165.56266 83.527536,164.28695 81.132073,161.89512 C 80.108163,160.89881 80.163353,159.37383 80.321258,158.06567 C 80.31372,156.84409 80.571005,155.44354 81.957407,155.10857 C 84.551735,155.51662 88.176342,158.94904 91.154313,160.30121 z"
       id="path3407"
       sodipodi:nodetypes="ccccccccccc" />
    <path
       style="opacity:1;fill:#440055;fill-opacity:1;stroke:#000000;stroke-width:1.6079011;stroke-miterlimit:4;stroke-dasharray:none;stroke-opacity:1"
       d="M 75.627911,156.21926 C 75.813878,154.53426 75.330264,152.76214 76.013484,151.14714 C 76.471695,149.90804 77.760751,149.09003 79.064332,149.074 C 80.254516,149.00245 81.512918,148.93087 82.612675,149.47988 C 83.302973,149.81259 84.000664,150.33267 84.183835,151.11802 C 84.475634,152.19027 84.23469,153.30252 84.254658,154.39322 C 84.220864,155.30333 83.974608,156.35054 83.11243,156.82543 C 82.14055,157.46051 80.946958,157.58218 79.813979,157.52815 C 78.910991,157.50272 78.005158,157.55034 77.104067,157.50694 C 76.387596,157.51559 76.075444,156.87502 75.781074,156.34508 L 75.709735,156.2773 L 75.627911,156.21926 L 75.627911,156.21926 z"
       id="path3409" />
    <path
       style="opacity:1;fill:#ffffff;fill-opacity:0.26162792;stroke:none;stroke-width:2.33999991;stroke-miterlimit:4;stroke-dasharray:none;stroke-opacity:1"
       d="M 97.956679,163.8258 C 98.701619,163.92089 99.459751,163.92673 100.19917,164.04134 C 100.77749,164.301 99.628993,164.24961 99.425284,164.27798 C 95.029128,164.56038 90.966594,163.89746 86.933194,162.17844 C 85.706709,160.97801 84.129853,160.03098 84.140394,158.21526 C 88.288511,160.9364 92.985211,163.20936 97.956679,163.8258 z"
       id="path3412"
       sodipodi:nodetypes="cccccc" />
    <path
       style="opacity:1;fill:#ffffff;fill-opacity:0.26162792;stroke:none;stroke-width:2.33999991;stroke-miterlimit:4;stroke-dasharray:none;stroke-opacity:1"
       d="M 63.686428,164.375 C 62.941489,164.47008 62.183356,164.47592 61.443935,164.59054 C 60.86562,164.85019 62.014115,164.7988 62.217823,164.82718 C 66.613976,165.10957 70.676503,164.44666 74.709909,162.72764 C 75.936394,161.5272 77.513251,160.58018 77.50271,158.76447 C 73.354593,161.4856 68.657893,163.75856 63.686428,164.375 z"
       id="path3414"
       sodipodi:nodetypes="cccccc" />
    <path
       style="opacity:1;fill:#000000;fill-opacity:0.26162792;stroke:none;stroke-width:2.33999991;stroke-miterlimit:4;stroke-dasharray:none;stroke-opacity:1"
       d="M 73.318601,167.21567 C 72.621967,167.67112 72.020001,168.25248 71.414489,168.8186 C 71.132776,169.12217 70.849895,169.44931 70.461773,169.61816 C 70.208144,169.84333 70.462453,170.18716 70.711582,170.28349 C 71.370849,170.53296 72.109528,170.36876 72.72624,170.07195 C 73.229342,169.8123 73.722108,169.5162 74.279652,169.38565 C 75.089814,169.1808 75.771076,168.66053 76.427024,168.16512 C 76.787957,167.92653 77.074046,167.5919 77.265634,167.20449 C 77.455497,166.8051 77.657735,165.84798 77.580858,165.3856 C 76.080947,164.8618 74.560375,166.31568 73.318601,167.21567 z"
       id="path3416"
       sodipodi:nodetypes="cccscccscc" />
    <path
       style="opacity:1;fill:#000000;fill-opacity:0.26162792;stroke:none;stroke-width:2.33999991;stroke-miterlimit:4;stroke-dasharray:none;stroke-opacity:1"
       d="M 81.940029,163.67472 C 81.808745,164.07512 82.128841,164.81522 82.632828,165.4452 C 82.989535,165.89108 83.227697,166.34798 83.633527,166.75381 C 84.030108,167.15038 84.325117,167.59935 84.711206,167.98544 C 85.075972,168.35021 85.646021,168.6387 86.096797,168.90917 C 86.646885,169.23922 87.283792,169.50266 87.790288,169.75591 C 88.12691,169.92422 88.752961,169.90013 89.021927,169.83289 C 89.326995,169.75662 89.406256,169.37323 89.483786,169.06312 C 89.567706,168.72745 89.483786,168.25651 89.483786,167.90846 C 89.483786,167.52358 89.483786,167.1387 89.483786,166.75381 C 89.483786,166.47055 88.334645,166.25621 88.098201,166.13799 C 87.733503,165.95565 87.267933,165.79983 87.020523,165.67613 C 86.706652,165.5192 86.398925,165.28835 86.096797,165.13729 C 85.696712,164.93725 85.426509,164.83501 85.096092,164.75241 C 84.65462,164.64204 84.45882,164.40064 84.018413,164.29054 C 83.697032,164.21019 83.590217,164.01029 83.171668,163.90565 C 82.61901,163.76749 82.641864,163.53436 81.940029,163.67472 z"
       id="path3418" />
    <path
       style="opacity:1;fill:#ffffff;fill-opacity:0.26162792;stroke:none;stroke-width:2.33999991;stroke-miterlimit:4;stroke-dasharray:none;stroke-opacity:1"
       d="M 78.418362,150.75765 C 78.656757,150.77443 79.532046,150.70322 80.105723,150.70322 C 80.411644,150.70322 80.710232,150.78775 80.976622,150.92094 C 81.337637,151.10145 81.749452,151.32366 82.010804,151.51968 C 82.134791,151.61267 82.286477,152.18691 82.337394,152.39058 C 82.416023,152.7051 82.383123,153.1091 82.446257,153.42477 C 82.507852,153.73274 82.441598,154.05465 82.500685,154.3501 C 82.599138,154.84235 82.422386,154.84666 82.228531,154.45896 C 82.048645,154.09918 81.959613,153.80902 81.684222,153.53363 C 81.469629,153.31903 81.308846,153.05128 81.139913,152.82603 C 80.939908,152.55936 80.686876,152.373 80.486741,152.17285 C 80.266981,151.9531 79.772173,151.81557 79.506979,151.68297 C 79.301319,151.58014 79.138907,151.49894 78.96267,151.41082 C 78.687719,151.27334 78.478424,151.11805 78.418362,150.75765 z"
       id="path3420" />
    <path
       style="opacity:1;fill:none;fill-opacity:1;stroke:#000000;stroke-width:1.6079011;stroke-miterlimit:4;stroke-dasharray:none;stroke-opacity:1"
       d="M 80.051288,148.63484 C 80.160413,148.1192 80.276814,147.14961 80.595604,146.51203 C 81.02993,145.64337 81.247951,144.71663 81.956376,144.0082 C 82.473275,143.4913 83.027032,143.18075 83.643738,142.81073 C 83.682843,142.78727 83.968053,142.70263 83.970327,142.70186"
       id="path3422" />
    <path
       style="opacity:1;fill:#8d5fd3;fill-opacity:1;stroke:#000000;stroke-width:1.6079011;stroke-miterlimit:4;stroke-dasharray:none;stroke-opacity:1"
       d="M 125.20115,89.699743 C 123.91576,89.488929 123.94213,91.168705 123.61419,91.994479 C 123.03195,93.794517 122.04425,95.500157 120.54807,96.689866 C 119.46932,97.7101 118.25282,98.617121 117.41422,99.861967 C 116.76562,101.72173 117.87002,103.57344 118.89275,105.06097 C 119.79388,106.43265 121.24074,107.71866 122.99178,107.57891 C 124.96127,107.68266 127.0829,107.33938 128.58768,105.96315 C 129.8512,104.84736 130.7665,103.3966 131.64172,101.97404 C 132.18329,100.72953 132.1651,99.336829 132.55111,98.045884 C 133.04906,95.67772 133.08625,93.105415 132.05155,90.869216 C 131.027,89.811183 129.45013,89.8149 128.10668,89.506492 C 127.13564,89.419363 126.15393,89.500233 125.20115,89.699743 z"
       id="path3424" />
    <path
       style="opacity:1;fill:#8d5fd3;fill-opacity:1;stroke:#000000;stroke-width:1.6079011;stroke-miterlimit:4;stroke-dasharray:none;stroke-opacity:1"
       d="M 132.59096,107.25052 C 134.34561,108.17145 136.46323,108.71372 138.39998,108.0588 C 139.83842,106.35385 139.61955,103.98132 139.63463,101.90084 C 139.34831,98.751491 138.52972,95.663421 137.43268,92.706601 C 136.67711,91.257387 135.98143,89.66575 134.67609,88.626022 C 133.43611,87.972301 132.00878,87.898131 130.64378,87.74079 C 129.06414,88.007111 128.29278,89.6249 127.838,90.992502 C 127.0761,93.053859 126.42052,95.24872 126.60879,97.467603 C 127.02262,99.419821 128.01203,101.18183 128.76127,103.01351 C 129.65675,104.71349 130.94034,106.24235 132.59096,107.25052 z"
       id="path3426" />
    <path
       style="opacity:1;fill:none;fill-opacity:1;stroke:#000000;stroke-width:1.6079011;stroke-miterlimit:4;stroke-dasharray:none;stroke-opacity:1"
       d="M 129.44577,105.24595 C 129.49551,106.54249 129.33211,107.8358 129.18267,109.12021 C 128.85085,110.40417 127.89633,111.37709 127.17056,112.44595 C 126.46101,113.35837 125.66304,114.20558 124.7647,114.93467"
       id="path3428" />
    <path
       style="opacity:1;fill:#ffd42a;fill-opacity:1;stroke:#000000;stroke-width:1.6079011;stroke-miterlimit:4;stroke-dasharray:none;stroke-opacity:1"
       d="M 124.43811,114.06377 C 124.00387,113.8346 123.40542,114.04979 122.91405,114.17263 C 122.46765,114.28423 122.26088,114.79823 122.26088,115.26125 C 122.26088,115.9639 122.37558,116.1895 122.91405,116.45873 C 123.45071,116.72706 123.92512,116.78532 124.54698,116.78532 C 125.09147,116.78532 125.35968,116.35741 125.52674,116.02329 C 125.76621,115.54433 125.50645,114.96238 125.41788,114.60808 C 125.36363,114.3911 124.55951,114.08805 124.43811,114.06377 z"
       id="path3430" />
    <path
       style="opacity:1;fill:#ffd42a;fill-opacity:1;stroke:#000000;stroke-width:1.6079011;stroke-miterlimit:4;stroke-dasharray:none;stroke-opacity:1"
       d="M 132.77108,113.73329 C 132.33683,113.50413 131.73838,113.71931 131.24701,113.84215 C 130.8006,113.95376 130.59383,114.46775 130.59383,114.93078 C 130.59383,115.63342 130.70854,115.85903 131.24701,116.12826 C 131.78366,116.39659 132.25808,116.45484 132.87994,116.45484 C 133.42443,116.45484 133.69264,116.02693 133.85969,115.69281 C 134.09918,115.21385 133.83941,114.6319 133.75083,114.27761 C 133.69659,114.06062 132.89247,113.75757 132.77108,113.73329 z"
       id="path3432" />
    <path
       style="opacity:1;fill:none;fill-opacity:1;stroke:#000000;stroke-width:1.6079011;stroke-miterlimit:4;stroke-dasharray:none;stroke-opacity:1"
       d="M 130.09894,105.68139 C 129.61075,107.08623 129.4408,108.71161 130.12409,110.0834 C 130.52414,110.94375 131.16467,111.66141 131.83204,112.32395 C 132.03661,112.60076 132.79862,113.70273 133.03821,113.95491"
       id="path3434"
       sodipodi:nodetypes="cccc" />
    <path
       style="opacity:1;fill:#440055;fill-opacity:1;stroke:#000000;stroke-width:1.6079011;stroke-miterlimit:4;stroke-dasharray:none;stroke-opacity:1"
       d="M 119.32116,91.410591 C 117.71848,91.983011 116.11198,92.546649 114.546,93.212471 C 111.9428,94.076264 109.11902,93.561083 106.49341,94.270023 C 105.07586,94.972415 106.46608,96.228179 107.52106,96.228454 C 108.41721,96.351465 109.25183,96.692739 110.11809,96.922806 C 111.52479,97.174099 112.97665,97.051486 114.37494,97.346041 C 116.35234,97.317051 118.33288,97.237714 120.30439,97.102788 C 123.61962,96.672049 126.94794,95.39633 129.3434,93.004495 C 130.36731,92.008194 130.31212,90.48321 130.15422,89.175052 C 130.16175,87.953473 129.90447,86.552922 128.51807,86.217957 C 125.92374,86.625999 122.29913,90.058429 119.32116,91.410591 z"
       id="path3436"
       sodipodi:nodetypes="ccccccccccc" />
    <path
       style="opacity:1;fill:#440055;fill-opacity:1;stroke:#000000;stroke-width:1.6079011;stroke-miterlimit:4;stroke-dasharray:none;stroke-opacity:1"
       d="M 139.18802,91.329736 C 140.7907,91.902155 142.3972,92.465793 143.96317,93.131616 C 146.56639,93.995409 149.39016,93.480228 152.01578,94.189168 C 153.43333,94.891566 152.04311,96.147323 150.98812,96.147598 C 150.09198,96.270616 149.25736,96.611883 148.3911,96.84195 C 146.98439,97.093243 145.53254,96.970631 144.13424,97.265193 C 142.15683,97.236195 140.1763,97.156859 138.20479,97.021932 C 134.88957,96.591193 131.56124,95.315475 129.16578,92.923647 C 128.14187,91.927339 128.19706,90.402361 128.35496,89.094196 C 128.34742,87.872618 128.60471,86.472067 129.99111,86.137101 C 132.58544,86.545151 136.21005,89.977573 139.18802,91.329736 z"
       id="path3438"
       sodipodi:nodetypes="ccccccccccc" />
    <path
       style="opacity:1;fill:#440055;fill-opacity:1;stroke:#000000;stroke-width:1.6079011;stroke-miterlimit:4;stroke-dasharray:none;stroke-opacity:1"
       d="M 123.66162,87.24779 C 123.84758,85.562792 123.36397,83.790665 124.04719,82.175666 C 124.5054,80.936565 125.79446,80.118562 127.09804,80.102525 C 128.28822,80.03098 129.54662,79.959401 130.64638,80.50841 C 131.33668,80.841122 132.03437,81.361195 132.21754,82.146552 C 132.50934,83.218795 132.26839,84.33105 132.28836,85.42175 C 132.25457,86.331857 132.00831,87.379067 131.14613,87.853955 C 130.17425,88.489041 128.98066,88.610713 127.84768,88.556683 C 126.9447,88.531252 126.03886,88.578864 125.13777,88.535471 C 124.4213,88.544122 124.10915,87.903546 123.81478,87.373605 L 123.74344,87.305826 L 123.66162,87.24779 L 123.66162,87.24779 z"
       id="path3440" />
    <path
       style="opacity:1;fill:#ffffff;fill-opacity:0.26162792;stroke:none;stroke-width:2.33999991;stroke-miterlimit:4;stroke-dasharray:none;stroke-opacity:1"
       d="M 145.99039,94.85433 C 146.73533,94.949416 147.49346,94.955257 148.23288,95.069872 C 148.8112,95.329527 147.6627,95.278136 147.45899,95.306508 C 143.06283,95.588908 139.0003,94.925992 134.9669,93.206967 C 133.74041,92.006538 132.16356,91.059512 132.1741,89.243793 C 136.32222,91.964932 141.01891,94.237893 145.99039,94.85433 z"
       id="path3442"
       sodipodi:nodetypes="cccccc" />
    <path
       style="opacity:1;fill:#ffffff;fill-opacity:0.26162792;stroke:none;stroke-width:2.33999991;stroke-miterlimit:4;stroke-dasharray:none;stroke-opacity:1"
       d="M 111.72013,95.403532 C 110.97519,95.498611 110.21706,95.504452 109.47764,95.619066 C 108.89932,95.878721 110.04782,95.82733 110.25153,95.855709 C 114.64768,96.138102 118.71021,95.475186 122.74361,93.756168 C 123.9701,92.555733 125.54696,91.608706 125.53641,89.792994 C 121.3883,92.514133 116.6916,94.787087 111.72013,95.403532 z"
       id="path3444"
       sodipodi:nodetypes="cccccc" />
    <path
       style="opacity:1;fill:#000000;fill-opacity:0.26162792;stroke:none;stroke-width:2.33999991;stroke-miterlimit:4;stroke-dasharray:none;stroke-opacity:1"
       d="M 121.35231,98.244198 C 120.65567,98.699647 120.05371,99.281013 119.44819,99.847124 C 119.16648,100.15069 118.8836,100.47784 118.49548,100.64668 C 118.24185,100.87186 118.49616,101.21569 118.74529,101.31202 C 119.40455,101.56148 120.14323,101.39729 120.75994,101.10048 C 121.26305,100.84083 121.75581,100.54473 122.31336,100.41418 C 123.12352,100.20933 123.80478,99.689055 124.46073,99.19365 C 124.82166,98.955055 125.10775,98.620433 125.29934,98.233019 C 125.4892,97.833627 125.69144,96.876513 125.61456,96.414132 C 124.11465,95.890327 122.59408,97.344207 121.35231,98.244198 z"
       id="path3446"
       sodipodi:nodetypes="cccscccscc" />
    <path
       style="opacity:1;fill:#000000;fill-opacity:0.26162792;stroke:none;stroke-width:2.33999991;stroke-miterlimit:4;stroke-dasharray:none;stroke-opacity:1"
       d="M 129.97373,94.70325 C 129.84245,95.103651 130.16255,95.843746 130.66653,96.473727 C 131.02324,96.919611 131.2614,97.376509 131.66723,97.782339 C 132.06381,98.178913 132.35882,98.627875 132.74491,99.013971 C 133.10968,99.378737 133.67973,99.667232 134.1305,99.937696 C 134.68059,100.26775 135.3175,100.53119 135.82399,100.78444 C 136.16061,100.95275 136.78666,100.92866 137.05563,100.86142 C 137.3607,100.78515 137.43996,100.40176 137.51749,100.09165 C 137.60141,99.755976 137.51749,99.285039 137.51749,98.936991 C 137.51749,98.552104 137.51749,98.167225 137.51749,97.782339 C 137.51749,97.49908 136.36835,97.284742 136.13191,97.16652 C 135.76721,96.984174 135.30164,96.828359 135.05423,96.70466 C 134.74036,96.547725 134.43263,96.316881 134.1305,96.165814 C 133.73042,95.965775 133.46021,95.863536 133.1298,95.780935 C 132.68832,95.670567 132.49252,95.429169 132.05212,95.319069 C 131.73074,95.238722 131.62392,95.03882 131.20537,94.934183 C 130.65271,94.79602 130.67557,94.562888 129.97373,94.70325 z"
       id="path3448" />
    <path
       style="opacity:1;fill:#ffffff;fill-opacity:0.26162792;stroke:none;stroke-width:2.33999991;stroke-miterlimit:4;stroke-dasharray:none;stroke-opacity:1"
       d="M 126.45207,81.786176 C 126.69046,81.802963 127.56575,81.731748 128.13943,81.731748 C 128.44535,81.731748 128.74394,81.816279 129.01033,81.949467 C 129.37134,82.129978 129.78316,82.352191 130.04451,82.548211 C 130.1685,82.641194 130.32018,83.215442 130.3711,83.419109 C 130.44973,83.733626 130.41683,84.137628 130.47996,84.453299 C 130.54156,84.761267 130.4753,85.083177 130.53439,85.378625 C 130.63284,85.870884 130.45609,85.875192 130.26224,85.487489 C 130.08235,85.12771 129.99332,84.837553 129.71793,84.562162 C 129.50333,84.347562 129.34255,84.079806 129.17362,83.854555 C 128.97361,83.587884 128.72058,83.401526 128.52045,83.201383 C 128.30069,82.98163 127.80588,82.844099 127.54068,82.711502 C 127.33502,82.608672 127.17261,82.527466 126.99637,82.439348 C 126.72142,82.301872 126.51213,82.146579 126.45207,81.786176 z"
       id="path3450" />
    <path
       style="opacity:1;fill:none;fill-opacity:1;stroke:#000000;stroke-width:1.6079011;stroke-miterlimit:4;stroke-dasharray:none;stroke-opacity:1"
       d="M 128.08499,79.663368 C 128.19412,79.147727 128.31052,78.178142 128.62931,77.540561 C 129.06363,76.671903 129.28166,75.745154 129.99008,75.036729 C 130.50698,74.51983 131.06074,74.209278 131.67744,73.839255 C 131.71655,73.815796 132.00176,73.731155 132.00403,73.730392"
       id="path3452" />
    <path
       style="opacity:1;fill:#ffffff;fill-opacity:0.30813952;stroke:none;stroke-width:2.33999991;stroke-miterlimit:4;stroke-dasharray:none;stroke-opacity:1"
       d="M 106.55965,20.278106 C 113.67884,27.617376 121.8966,34.255704 131.79454,37.312228 C 148.20109,39.548238 163.93554,34.586317 180.41909,35.613871 C 188.09254,33.713061 206.48862,49.827813 201.32773,46.374365 C 188.86737,42.602064 175.71023,41.726719 162.79609,43.081226 C 154.12122,43.835661 145.36662,43.926348 136.67218,44.423765 C 120.3341,42.676275 100.16321,26.758609 89.534414,14.277958 C 96.560597,11.364903 101.78353,15.448902 106.55965,20.278106 z"
       id="path2452"
       sodipodi:nodetypes="cccccccc" />
    <path
       style="opacity:1;fill:#ffffff;fill-opacity:0.30813952;stroke:none;stroke-width:2.33999991;stroke-miterlimit:4;stroke-dasharray:none;stroke-opacity:1"
       d="M 49.198416,40.758078 C 41.667182,39.012525 34.455528,42.996316 27.891095,46.141056 C 22.847254,50.016259 16.863947,52.628381 12.423324,57.248447 C 8.0272401,61.388959 14.399308,65.876193 17.858072,61.560755 C 24.241382,57.234297 30.218784,52.129498 37.288722,48.928276 C 41.601964,46.037109 48.51958,47.325853 51.242797,42.330426 C 50.969937,41.433663 50.056583,40.936721 49.198416,40.758078 z"
       id="path3226" />
    <path
       style="opacity:1;fill:#000000;fill-opacity:0.33720931;stroke:none;stroke-width:2.33999991;stroke-miterlimit:4;stroke-dasharray:none;stroke-opacity:1"
       d="M 172.66967,214.11048 C 158.92298,225.02673 142.14748,233.93746 124.05613,231.74216 C 108.51654,231.43914 97.215282,220.16757 85.281836,211.94399 C 71.106781,203.57848 53.967374,204.39885 38.804295,199.4229 C 33.629241,198.65893 23.451603,185.25735 34.672064,192.37253 C 48.808965,201.05193 65.481852,197.03551 80.781541,198.91412 C 96.77741,202.82968 102.91412,221.98431 119.56582,224.59717 C 135.89816,229.01463 150.89616,219.34111 165.61311,213.96195 C 167.89871,213.31881 170.45818,212.93709 172.66967,214.11048 z"
       id="path3233" />
    <path
       style="opacity:1;fill:#000000;fill-opacity:0.36046514;stroke:none;stroke-width:2.33999991;stroke-miterlimit:4;stroke-dasharray:none;stroke-opacity:1"
       d="M 242.56487,160.53443 C 243.37123,170.98273 237.07531,180.50328 229.12518,186.70826 C 224.87169,189.8589 220.33585,193.43501 214.96675,194.22929 C 209.44199,194.69175 211.29697,189.26948 215.02961,187.95139 C 222.36089,183.26638 230.0464,178.02518 233.68215,169.77074 C 236.00622,166.45502 236.46374,159.14201 241.47143,159.49172 C 242.20175,159.485 242.3005,160.08981 242.56487,160.53443 z"
       id="path3240" />
  </g>
</svg>
