<?xml version="1.0" encoding="UTF-8" standalone="no"?>
<!-- Created with Inkscape (http://www.inkscape.org/) -->
<svg
   xmlns:dc="http://purl.org/dc/elements/1.1/"
   xmlns:cc="http://creativecommons.org/ns#"
   xmlns:rdf="http://www.w3.org/1999/02/22-rdf-syntax-ns#"
   xmlns:svg="http://www.w3.org/2000/svg"
   xmlns="http://www.w3.org/2000/svg"
   xmlns:sodipodi="http://sodipodi.sourceforge.net/DTD/sodipodi-0.dtd"
   xmlns:inkscape="http://www.inkscape.org/namespaces/inkscape"
   width="1400"
   height="1024"
   id="svg2"
   sodipodi:version="0.32"
   inkscape:version="0.46"
   sodipodi:docname="gameoverscreen.svg"
   inkscape:output_extension="org.inkscape.output.svg.inkscape"
   inkscape:export-filename="P:\pidgey\data\images\awards.png"
   inkscape:export-xdpi="90"
   inkscape:export-ydpi="90"
   version="1.0">
  <defs
     id="defs4">
    <inkscape:perspective
       sodipodi:type="inkscape:persp3d"
       inkscape:vp_x="0 : 125 : 1"
       inkscape:vp_y="0 : 1000 : 0"
       inkscape:vp_z="250 : 125 : 1"
       inkscape:persp3d-origin="125 : 83.333333 : 1"
       id="perspective3645" />
  </defs>
  <sodipodi:namedview
     id="base"
     pagecolor="#68d4e4"
     bordercolor="#666666"
     borderopacity="1.0"
     gridtolerance="10000"
     guidetolerance="10"
     objecttolerance="10"
     inkscape:pageopacity="0.64705882"
     inkscape:pageshadow="2"
     inkscape:zoom="0.31814516"
     inkscape:cx="681.30098"
     inkscape:cy="772.2847"
     inkscape:document-units="px"
     inkscape:current-layer="layer1"
     showgrid="false"
     inkscape:window-width="1680"
     inkscape:window-height="994"
     inkscape:window-x="0"
     inkscape:window-y="22" />
  <metadata
     id="metadata7">
    <rdf:RDF>
      <cc:Work
         rdf:about="">
        <dc:format>image/svg+xml</dc:format>
        <dc:type
           rdf:resource="http://purl.org/dc/dcmitype/StillImage" />
      </cc:Work>
    </rdf:RDF>
  </metadata>
  <g
     inkscape:label="Layer 1"
     inkscape:groupmode="layer"
     id="layer1">
    <path
       style="opacity:1;fill:#aa4400;fill-opacity:1;stroke:#000000;stroke-width:2.33999991;stroke-miterlimit:4;stroke-dasharray:none;stroke-opacity:1"
       d="M 295.46261,679.95941 C 367.25202,751.24751 365.31039,846.46927 387.32845,940.41726 C 387.25507,954.77433 391.79225,972.22255 384.88208,984.76088 C 372.93811,990.63932 360.2794,980.8246 354.01695,970.97218 C 341.4185,951.25052 337.00562,927.72532 326.35897,907.01759 C 316.82921,886.95534 314.48603,864.56199 306.97679,843.77918 C 294.86196,807.27294 284.56686,768.99706 286.77036,730.20453 C 288.59716,716.57552 290.55494,702.91841 291.55028,689.22453 C 292.36524,685.96101 293.61495,682.78164 295.46261,679.95941 z"
       id="path3276"
       sodipodi:nodetypes="ccccccccc" />
    <path
       style="opacity:1;fill:#ffff00;fill-opacity:1;stroke:#000000;stroke-width:2.33999991;stroke-miterlimit:4;stroke-dasharray:none;stroke-opacity:1"
       d="M 691.8514,952.35291 C 707.7601,944.02294 724.19578,950.83408 734.987,930.9809 C 728.97569,925.2007 702.06636,910.8943 694.91871,909.00347 C 686.26441,909.91343 678.54578,914.60597 669.91316,915.62722 C 660.03498,918.70263 654.08049,927.76395 646.35673,933.99985 C 642.83792,936.27103 640.53464,942.88336 646.45405,943.49331 C 654.8155,945.92341 663.0536,948.76183 671.0373,952.25033 C 675.77714,954.11414 680.52536,956.21949 685.53881,957.16245 C 688.41465,957.14671 690.87739,954.95538 691.8514,952.35291 z"
       id="path3237"
       sodipodi:nodetypes="ccccccccc" />
    <path
       style="opacity:1;fill:#ffff00;fill-opacity:1;stroke:#000000;stroke-width:2.33999991;stroke-miterlimit:4;stroke-dasharray:none;stroke-opacity:1"
       d="M 615.45296,958.86389 C 634.06509,966.6427 653.06528,973.70016 672.61018,978.73023 C 689.29055,981.75288 706.94614,979.70392 722.20674,972.21553 C 726.04573,971.69634 737.60357,969.72072 732.12082,964.35527 C 698.29773,925.28739 670.26586,937.20189 637.76933,933.32291 C 630.5719,931.88961 623.08757,928.25868 615.73449,930.96107 C 610.29307,934.32272 603.78292,938.717 603.00619,945.60753 C 602.87251,952.73691 609.30931,957.14307 615.45296,958.86389 z"
       id="path3233"
       sodipodi:nodetypes="cccccccc" />
    <path
       style="opacity:1;fill:#ffff00;fill-opacity:1;stroke:#000000;stroke-width:2.33999991;stroke-miterlimit:4;stroke-dasharray:none;stroke-opacity:1"
       d="M 600.38393,944.41779 C 595.57135,943.16321 607.4214,935.40491 610.38251,930.89164 C 616.45913,921.62977 625.25341,914.72715 632.54413,906.61594 C 636.48077,902.23628 641.24895,898.8977 646.98953,896.92743 C 667.01303,890.05502 683.32676,892.52767 703.13198,891.40052 C 709.23702,891.05307 715.76833,890.66793 721.44474,892.12848 C 726.32031,893.38297 722.70752,900.56691 720.66738,903.93364 C 710.09272,921.38444 698.15195,926.03313 683.73086,934.70087 C 649.56701,955.23489 627.27483,951.42789 600.38393,944.41779 z"
       id="path3235"
       sodipodi:nodetypes="cssssssss" />
    <path
       style="opacity:1;fill:#552200;fill-opacity:1;stroke:#000000;stroke-width:2.33999991;stroke-miterlimit:4;stroke-dasharray:none;stroke-opacity:1"
       d="M 319.82256,809.61723 C 327.86162,809.43928 334.92501,813.23943 341.82509,816.68948 C 346.70762,819.13074 351.05105,824.14012 352.82636,827.69074 C 355.19179,832.4216 358.28738,837.04118 359.8986,840.26362 C 362.66898,845.80437 371.1882,844.40747 377.97211,845.76425 C 382.57807,846.68544 388.30199,851.3793 390.54499,853.6223 C 394.07532,857.15263 394.77036,860.50142 396.83143,864.62357 C 398.17012,867.30094 403.01828,870.02461 405.47528,872.48162 C 410.08888,877.09521 420.62534,876.63041 425.1204,881.12547 C 429.97978,885.98485 441.28592,888.64713 447.12294,894.48415 C 451.42197,898.78319 451.98991,902.02119 455.76679,907.05703 C 459.1561,911.5761 463.70769,917.12102 466.76806,921.20152 C 470.52847,926.2154 474.79769,927.4548 477.76933,931.41698 C 480.34227,934.84757 495.59659,938.759 499.77186,940.84664 C 504.21705,943.06923 496.9028,950.37672 495.05703,954.99112 C 493.28062,959.43215 488.60447,961.40215 485.62738,963.63498 C 480.20569,967.70124 472.02995,967.564 465.19645,967.564 C 459.8833,967.564 454.55135,967.33561 449.48035,968.34981 C 440.25331,970.19521 429.98196,968.7626 421.19138,972.27883 C 414.74733,974.85645 402.4777,976.20785 395.25982,976.20785 C 387.87635,976.20785 380.17614,977.1815 373.25729,978.56527 C 367.01344,979.81404 362.04768,981.70849 355.18378,981.70849 C 349.63286,981.70849 344.92792,983.2801 339.46768,983.2801 C 333.71316,983.2801 327.4126,982.75774 322.17997,984.0659 C 315.00449,985.85977 305.13648,984.0659 297.82002,984.0659 C 290.04716,984.0659 287.69265,978.21991 286.03295,969.92142 C 284.077,960.14164 282.09562,951.90603 283.67554,940.84664 C 283.93747,939.01309 284.19941,937.17955 284.46134,935.346 C 286.04907,924.23193 285.64929,912.52068 288.39037,901.5564 C 291.02705,891.00967 289.83582,880.26216 293.891,870.1242 C 295.85577,865.21229 293.891,855.12642 293.891,849.69328 C 293.891,845.39321 296.03604,839.54152 297.03422,835.54879 C 298.16739,831.0161 299.90526,827.44929 301.74905,823.76172 C 303.28403,820.69174 305.23395,818.79063 308.03549,816.68948 C 312.72147,813.17498 314.64887,813.75618 319.82256,809.61723 z"
       id="path3225" />
    <path
       style="opacity:1;fill:#d38d5f;fill-opacity:1;stroke:#000000;stroke-width:2.33999991;stroke-miterlimit:4;stroke-dasharray:none;stroke-opacity:1"
       d="M 432.03823,861.28754 C 424.7613,854.05667 417.99505,844.14015 419.7072,833.38756 C 422.26992,826.17645 419.29766,789.32711 413.51652,816.85357 C 409.14792,825.40456 409.24046,842.7964 414.84426,850.64138 C 443.49256,879.42897 396.62684,858.398 377.10546,864.50299 C 372.6063,866.85327 367.60881,868.42879 363.72536,871.81561 C 368.80932,872.62814 373.91288,870.81677 379.03296,871.61019 C 389.59153,872.22942 400.26655,872.21084 410.60901,874.69372 C 415.80471,875.66059 421.4146,876.42878 426.27682,873.78414 C 436.74572,872.26681 423.87154,891.77432 421.79614,896.15269 C 418.32481,902.3553 414.28103,908.53542 412.98045,915.63606 C 413.96408,917.18794 417.53087,911.773 418.93762,910.10068 C 423.20643,904.31538 429.68327,900.48092 433.36705,894.17922 C 436.21206,886.23985 448.92377,871.7132 440.36899,867.24579 C 436.8565,866.11032 433.77187,864.80487 432.03823,861.28754 z"
       id="path3227"
       sodipodi:nodetypes="ccccccccccccccc" />
    <path
       style="opacity:1;fill:#008000;fill-opacity:1;stroke:#000000;stroke-width:2.33999991;stroke-miterlimit:4;stroke-dasharray:none;stroke-opacity:1"
       d="M 441.39874,877.40902 C 454.80873,885.94035 462.42368,893.03342 476.78333,900.20523 C 506.13084,916.68948 543.0671,942.53769 575.86599,951.61531 C 584.45045,955.13882 594.6573,961.87341 604.05079,963.56081 C 616.40861,967.59354 629.58117,969.58922 642.53131,968.04898 C 647.15946,962.88998 610.11751,950.00014 605.38877,947.62053 C 602.41215,940.30722 634.42342,913.28612 618.25501,917.70215 C 608.88193,920.41992 602.85621,928.22806 594.292,932.42889 C 561.98099,961.35712 485.43656,893.74639 445.97302,870.45515 C 442.12347,868.51978 442.61718,871.3535 441.39874,877.40902 z"
       id="path3229"
       sodipodi:nodetypes="cccccccccc" />
    <path
       style="opacity:1;fill:#6c5353;fill-opacity:1;stroke:#000000;stroke-width:2.33999991;stroke-miterlimit:4;stroke-dasharray:none;stroke-opacity:1"
       d="M 880.87315,875.24485 C 852.92858,871.52903 821.41662,872.16986 798.32953,890.49761 C 785.27794,901.47653 777.0151,922.71474 788.21176,937.72221 C 806.46854,960.81808 835.95385,970.5554 863.89397,975.63939 C 902.89504,988.92221 941.13823,986.12787 980.86933,990.76985 C 996.68083,992.48695 1012.7676,990.05625 1028.3618,993.73939 C 1039.5717,996.49753 1044.2991,984.1867 1044.1996,975.19587 C 1044.2891,963.6748 1043.7612,952.16014 1044.9032,940.66511 C 1045.4777,928.48599 1045.8215,916.19116 1043.8574,904.11049 C 1036.222,892.58289 1021.3582,891.43414 1009.339,887.42343 C 966.70823,881.64072 923.88314,876.90458 880.87315,875.24485 z"
       id="path3249"
       sodipodi:nodetypes="ccccccccccc" />
    <path
       style="opacity:1;fill:#ac9393;fill-opacity:1;stroke:#000000;stroke-width:2.33999991;stroke-miterlimit:4;stroke-dasharray:none;stroke-opacity:1"
       d="M 1048.3685,966.92103 C 1059.5473,966.94715 1070.5993,969.12673 1081.7802,969.10184 C 1086.0879,967.03549 1087.1264,961.94788 1088.786,957.92042 C 1090.4322,952.86443 1092.1546,947.71894 1092.5747,942.39994 C 1091.9861,938.36153 1087.6101,936.41555 1083.9528,936.14636 C 1073.3506,934.5665 1062.635,937.20446 1052.0227,935.67085 C 1042.8856,934.98038 1033.5441,933.52667 1024.4783,935.51357 C 1020.6156,937.04229 1020.1743,941.6791 1020.0055,945.2644 C 1019.8056,948.82713 1019.8712,953.13609 1023.1277,955.39152 C 1028.5727,959.66123 1036.639,958.06745 1041.6933,963.05172 C 1050.7458,973.87758 1041.7533,965.11063 1048.3685,966.92103 z"
       id="path3251"
       sodipodi:nodetypes="ccccccccccc" />
    <path
       style="opacity:1;fill:#a05a2c;fill-opacity:1;stroke:#000000;stroke-width:2.33999991;stroke-miterlimit:4;stroke-dasharray:none;stroke-opacity:1"
       d="M 1084.4107,962.86979 C 1118.6904,969.24837 1158.0373,977.13584 1193.222,975.97291 C 1199.3694,974.66014 1191.8082,969.37023 1188.9647,968.61798 C 1179.9023,964.70051 1170.1104,962.81391 1161.0245,958.98322 C 1157.4734,956.12969 1165.9748,956.75787 1167.9855,956.58906 C 1176.7,956.37699 1185.4798,957.22994 1194.1478,956.16701 C 1197.5285,954.40927 1190.24,952.54806 1188.8402,951.75236 C 1184.9183,950.07909 1180.6467,949.2359 1176.8892,947.20925 C 1175.1814,943.65465 1182.993,944.03861 1185.4485,943.29692 C 1187.282,943.0525 1194.3897,942.4276 1188.8639,942.45351 C 1158.1815,942.4541 1127.4956,942.37069 1096.8156,942.49828 C 1092.3317,942.51478 1087.9595,945.35904 1086.8973,949.86315 C 1085.5908,954.09305 1085.3184,958.5514 1084.4107,962.86979 z"
       id="path3253"
       sodipodi:nodetypes="ccccccccccccc" />
    <path
       style="opacity:1;fill:#a05a2c;fill-opacity:1;stroke:#000000;stroke-width:2.54904532;stroke-miterlimit:4;stroke-dasharray:none;stroke-opacity:1"
       d="M 1278.6186,565.25284 C 1262.3504,706.61579 1234.3667,846.06315 1217.2109,987.78172 C 1221.628,978.61523 1220.1404,962.97223 1228.4838,978.40593 C 1235.6617,984.26328 1239.125,1009.4189 1241.8892,987.40781 C 1241.5077,979.75124 1253.4258,957.06421 1255.5381,975.72415 C 1255.548,982.88436 1257.6853,987.85309 1259.0013,978.01589 C 1274.9531,848.51241 1297.1635,726.25287 1311.6265,584.2956 C 1302.3281,577.29734 1284.1086,576.41794 1278.6186,565.25284 z"
       id="path3261"
       sodipodi:nodetypes="cccccccc" />
    <path
       style="opacity:1;fill:#ff0000;fill-opacity:1;stroke:#000000;stroke-width:2.54904532;stroke-miterlimit:4;stroke-dasharray:none;stroke-opacity:1"
       d="M 1237.9496,423.75396 C 1204.5552,423.01488 1239.9634,482.49652 1250.8081,502.56591 C 1261.6527,522.63532 1273.5293,556.09638 1277.6848,579.57827 C 1281.4623,588.9558 1299.1787,592.64888 1311.8343,584.93264 C 1304.8726,546.17768 1438.8328,463.19569 1378.9579,446.88252 C 1332.1184,439.52527 1284.0978,432.69789 1237.9496,423.75396 z M 1270.3897,458.77204 C 1299.3913,466.07567 1329.7859,465.78333 1345.024,471.23787 C 1328.9332,494.28735 1315.7663,511.11273 1301.2387,532.61256 C 1293.2908,507.56816 1278.3253,483.53923 1270.3897,458.77204 z"
       id="path3263"
       sodipodi:nodetypes="czcccccccc" />
    <path
       style="opacity:1;fill:#aa4400;fill-opacity:1;stroke:#000000;stroke-width:2.11256289;stroke-miterlimit:4;stroke-dasharray:none;stroke-opacity:1"
       d="M 263.81978,699.11825 C 192.91173,745.8841 111.58603,768.86989 43.036114,818.11935 C 42.093854,878.9646 40.913714,927.18983 74.240974,978.79241 C 153.55075,984.22141 223.3993,983.87947 303.66235,987.03238 C 314.35886,986.1307 339.77442,990.18278 332.83549,972.10491 C 325.30057,954.37636 316.95104,936.98477 310.52268,918.81491 C 298.71918,893.55063 300.84861,862.60289 293.9774,835.20285 C 285.18069,811.2089 287.93477,782.91625 282.66552,757.96028 C 280.25846,744.07876 268.03037,732.98765 263.27082,719.54887"
       id="path3270"
       sodipodi:nodetypes="ccccccccc" />
    <path
       style="opacity:1;fill:#aa4400;fill-opacity:1;stroke:#000000;stroke-width:2.65620828;stroke-miterlimit:4;stroke-dasharray:none;stroke-opacity:1"
       d="M 296.51823,680.82732 C 257.29836,696.62114 291.14652,677.60836 243.93489,705.9577 C 245.21739,791.34292 280.3065,914.21453 324.18525,987.27711 C 338.12844,990.249 365.43208,991.63544 390.63242,986.96129 C 323.65456,930.38135 276.39911,670.01831 296.51823,680.82732 z"
       id="path3217"
       sodipodi:nodetypes="ccccc" />
    <path
       style="opacity:1;fill:#ffffff;fill-opacity:0.09883722;stroke:none;stroke-width:2.33999991;stroke-miterlimit:4;stroke-dasharray:none;stroke-opacity:1"
       d="M 1012.3905,977.32556 C 980.90854,977.72917 947.6555,986.09965 917.32197,976.43238 C 892.97396,969.8584 865.35657,961.69876 840.65942,956.18384 C 829.64315,951.78208 810.3729,951.99815 805.24086,941.8723 C 826.40721,942.83192 847.09757,949.92489 868.04348,953.44091 C 912.83846,968.60337 967.22495,965.68988 1011.4593,976.81868 L 1012.3701,977.31444 L 1012.3905,977.32556 z"
       id="path3321"
       sodipodi:nodetypes="cccccccc" />
    <path
       style="opacity:1;fill:#000000;fill-opacity:0.17441861;stroke:none;stroke-width:2.33999991;stroke-miterlimit:4;stroke-dasharray:none;stroke-opacity:1"
       d="M 839.44053,883.60493 C 859.412,881.55697 885.0114,882.50971 904.77972,884.99831 C 936.19933,895.18896 992.37155,885.35565 1032.0247,902.75634 C 1028.9124,919.74528 1006.8431,909.29627 994.73409,909.43664 C 946.73288,904.5104 899.19034,897.70523 850.79838,899.54803 C 828.68664,894.30852 801.69728,887.60713 839.44053,883.60493 z"
       id="path3327"
       sodipodi:nodetypes="cccccc" />
    <path
       style="opacity:1;fill:#ffffff;fill-opacity:0.17441861;stroke:none;stroke-width:2.33999991;stroke-miterlimit:4;stroke-dasharray:none;stroke-opacity:1"
       d="M 1280.2128,600.59631 C 1280.555,659.37173 1260.5915,715.90485 1256.795,774.4058 C 1253.3595,830.12063 1229.0624,882.59764 1230.9117,938.54821 C 1228.4477,952.5172 1236.6764,897.26302 1241.6236,883.86345 C 1256.8121,830.90376 1254.5875,775.04599 1270.3856,722.11226 C 1279.9122,684.11 1281.3477,644.67522 1281.7151,605.84976 L 1280.2128,600.59631 L 1280.2128,600.59631 z"
       id="path3332" />
    <path
       style="opacity:1;fill:#000000;fill-opacity:0.17441861;stroke:none;stroke-width:2.33999991;stroke-miterlimit:4;stroke-dasharray:none;stroke-opacity:1"
       d="M 1305.7938,598.94571 C 1289.059,715.53888 1267.951,833.55183 1257.3229,950.79657 C 1266.2232,901.7095 1270.1949,856.89753 1279.8236,803.59499 C 1287.0541,756.58823 1303.0303,645.26688 1305.7938,598.94571 z"
       id="path3342"
       sodipodi:nodetypes="cccc" />
    <path
       style="opacity:1;fill:#ffffff;fill-opacity:0.1744186;stroke:none;stroke-width:2.33999991000000000;stroke-miterlimit:4;stroke-dasharray:none;stroke-opacity:1"
       d="M 1169.6389,945.65364 C 1167.5832,945.65364 1161.7521,945.65364 1157.9703,945.65364 C 1154.4954,945.65364 1152.7213,945.098 1149.0799,945.098 C 1144.8199,945.098 1140.56,945.098 1136.3,945.098 C 1130.9981,945.098 1125.899,944.54235 1120.7418,944.54235 C 1116.1114,944.54235 1111.4811,944.54235 1106.8507,944.54235 C 1103.5982,944.54235 1100.6384,944.31457 1097.9603,945.65364 C 1093.5961,947.83572 1102.7322,947.87624 1104.0724,947.87624 C 1106.9756,947.87624 1109.7822,947.97682 1112.4071,947.32059 C 1115.6911,946.49959 1120.1322,947.32059 1123.5201,947.32059 C 1128.3357,947.32059 1133.1513,947.32059 1137.9669,947.32059 C 1141.3008,947.32059 1144.6347,947.32059 1147.9686,947.32059 C 1150.7468,947.32059 1153.5251,947.32059 1156.3033,947.32059 C 1159.0816,947.32059 1161.8598,947.32059 1164.638,947.32059 C 1166.705,947.32059 1167.1587,946.64571 1169.6389,945.65364 z"
       id="path3349" />
    <path
       style="opacity:1;fill:#000000;fill-opacity:0.17441861;stroke:none;stroke-width:2.33999991;stroke-miterlimit:4;stroke-dasharray:none;stroke-opacity:1"
       d="M 1097.4045,960.65613 C 1105.7746,959.75173 1113.8142,963.18952 1122.11,963.71036 C 1138.885,967.05822 1155.6525,972.66304 1172.9665,971.18106 C 1176.7149,971.35277 1184.0397,970.85625 1176.1113,969.75592 C 1166.6062,969.14976 1156.8296,970.2227 1147.8078,966.38556 C 1138.459,963.45196 1128.834,961.67898 1119.3643,959.2051 C 1112.1635,957.82827 1104.1399,957.20533 1097.4045,960.65613 z"
       id="path3353" />
    <path
       style="opacity:1;fill:#ffffff;fill-opacity:0.17441861;stroke:none;stroke-width:2.33999991;stroke-miterlimit:4;stroke-dasharray:none;stroke-opacity:1"
       d="M 1081.2908,940.09717 C 1075.7874,939.78518 1070.3245,938.83063 1064.8001,938.90843 C 1058.107,938.50639 1051.381,938.08667 1044.684,938.59897 C 1042.0045,938.85356 1039.3488,939.52287 1036.6409,939.17428 C 1034.3016,939.08361 1031.8241,938.64425 1029.5808,939.49289 C 1028.1737,940.30703 1026.99,943.13365 1027.8472,944.16769 C 1031.133,944.76381 1034.4999,944.46976 1037.8217,944.5582 C 1052.4814,944.51795 1067.1422,944.57722 1081.8012,944.51511 C 1084.0316,944.00514 1082.1779,941.38377 1081.3958,940.27145 L 1081.3382,940.17584 L 1081.2908,940.09717 z"
       id="path3359" />
    <path
       style="opacity:1;fill:#000000;fill-opacity:0.17441861;stroke:none;stroke-width:2.33999991;stroke-miterlimit:4;stroke-dasharray:none;stroke-opacity:1"
       d="M 1077.4012,963.43439 C 1079.2918,963.37278 1076.0029,963.25042 1075.5332,963.2183 C 1067.8665,962.76413 1060.1846,962.92977 1052.511,962.82566 C 1051.0118,962.47022 1048.1148,963.0919 1047.6145,961.36602 C 1048.7582,959.69718 1050.9195,959.05146 1052.733,958.35779 C 1055.5645,957.60347 1058.5204,958.01828 1061.3309,958.63719 C 1065.2729,959.02672 1069.2301,958.00199 1073.1638,958.6655 C 1075.2471,958.91962 1077.3587,958.92188 1079.4387,959.12415 C 1081.2716,959.43027 1081.1299,961.70057 1079.6806,962.44128 C 1079.0144,962.94893 1078.2165,963.26336 1077.4012,963.43439 z"
       id="path3363" />
    <path
       style="opacity:1;fill:#ffffff;fill-opacity:0.27325583;stroke:none;stroke-width:2.33999991;stroke-miterlimit:4;stroke-dasharray:none;stroke-opacity:1"
       d="M 1348.0018,448.34875 C 1310.7915,446.34462 1273.3202,431.23699 1236.5593,430.04617 C 1223.3279,439.09612 1234.7365,455.43586 1241.4623,464.84808 C 1250.7239,478.46319 1260.5814,492.22401 1265.5637,508.09921 C 1268.3124,496.0441 1259.3808,484.63495 1255.6059,473.49923 C 1254.3486,461.96836 1237.8979,450.50166 1248.0195,439.92838 C 1280.9237,443.6542 1306.5201,452.47422 1340.5981,451.25184 C 1343.1685,450.58138 1345.6727,449.63159 1348.0018,448.34875 z"
       id="path3367"
       sodipodi:nodetypes="cccccccc" />
    <path
       style="opacity:1;fill:#000000;fill-opacity:0.27325583;stroke:none;stroke-width:2.33999991;stroke-miterlimit:4;stroke-dasharray:none;stroke-opacity:1"
       d="M 1388.5642,466.68513 C 1368.677,496.73741 1346.2059,525.45021 1318.9425,550.12476 C 1314.3985,552.09463 1309.2029,579.26178 1308.211,574.23349 C 1310.7987,536.70025 1359.4574,499.39449 1388.5642,466.68513 z"
       id="path3376"
       sodipodi:nodetypes="cccc" />
    <path
       style="opacity:1;fill:#ffffff;fill-opacity:0.27325583;stroke:none;stroke-width:2.33999991;stroke-miterlimit:4;stroke-dasharray:none;stroke-opacity:1"
       d="M 228.95393,734.2484 C 247.48209,744.73913 197.93941,754.26485 186.93041,761.93431 C 147.50257,781.86737 115.05785,795.03948 64.584547,825.12138 C 63.181562,851.93621 61.590875,906.79896 67.453721,933.10845 C 52.115125,894.53337 41.088747,849.56448 54.66292,817.91597 C 111.7653,790.02969 168.12022,753.7506 228.95393,734.2484 z"
       id="path3383"
       sodipodi:nodetypes="cccccc" />
    <path
       style="opacity:1;fill:#000000;fill-opacity:0.27325583;stroke:none;stroke-width:2.33999991;stroke-miterlimit:4;stroke-dasharray:none;stroke-opacity:1"
       d="M 87.792374,969.54651 C 142.77978,975.98099 198.11941,981.55922 253.54784,979.29353 C 275.515,982.75915 329.05157,970.03239 297.33159,969.90354 C 224.09707,959.04732 156.13683,963.84265 87.792374,969.54651 z"
       id="path3389"
       sodipodi:nodetypes="cccc" />
    <path
       style="opacity:1;fill:#000000;fill-opacity:0.27325583;stroke:none;stroke-width:2.33999991;stroke-miterlimit:4;stroke-dasharray:none;stroke-opacity:1"
       d="M 360.05984,972.88037 C 356.05248,971.08452 351.56111,971.06943 347.25334,970.79816 C 343.40963,970.68434 339.5496,970.53411 335.71146,970.789 C 334.07725,971.02582 331.06623,971.52142 331.30135,973.69484 C 332.14937,975.51292 334.41246,975.79784 336.12572,976.35039 C 341.51488,977.57839 347.09739,977.41022 352.58302,977.23833 C 356.84621,976.67797 361.04765,975.37171 364.8255,973.31515 C 366.50378,971.51924 362.20915,972.50464 361.26665,972.65341 C 360.86424,972.7283 360.46243,972.80647 360.05984,972.88037 z"
       id="path3397" />
    <path
       style="opacity:1;fill:#ffffff;fill-opacity:0.27325583;stroke:none;stroke-width:2.33999991;stroke-miterlimit:4;stroke-dasharray:none;stroke-opacity:1"
       d="M 278.93524,699.50165 C 282.00271,699.8564 277.25561,701.56657 276.26323,701.95032 C 270.4509,704.38125 264.17805,706.3624 259.58127,710.87696 C 256.86298,712.69786 253.8044,714.62582 253.39875,718.22424 C 253.15201,720.3721 250.54443,725.94019 254.60041,725.45442 C 258.07937,724.45625 261.50467,723.27899 265.00719,722.36217 C 271.39348,720.24344 276.60297,715.69648 280.97882,710.73383 C 283.39467,707.68254 281.34324,703.71604 279.69265,700.83196 C 279.44078,700.38818 279.18559,699.94629 278.93524,699.50165 z"
       id="path3401" />
    <path
       style="opacity:1;fill:#ffffff;fill-opacity:0.51162791;stroke:none;stroke-width:2.33999991000000000;stroke-miterlimit:4;stroke-dasharray:none;stroke-opacity:1"
       d="M 712.34064,899.53485 C 703.33855,897.58074 694.05015,898.57985 684.9174,898.44345 C 678.62579,898.45754 672.55754,900.15223 666.45195,901.37983 C 659.72242,902.08356 651.76571,901.76778 647.0871,907.61975 C 644.0691,912.39802 639.11974,914.92174 634.81261,918.25749 C 631.08185,921.93282 628.70818,926.70996 625.08385,930.50542 C 623.62304,932.72823 621.36797,936.94516 620.72611,938.1038 C 628.19266,932.88451 634.51358,926.17042 641.75973,920.74083 C 648.65666,917.94991 656.36609,917.73284 663.00339,914.18153 C 671.36584,911.21517 680.21942,910.02737 688.75824,907.67869 C 693.89889,906.43726 699.20084,906.25802 704.43712,905.91184 C 707.88746,905.15613 710.64881,902.54145 712.34064,899.53485 z"
       id="path3408" />
    <path
       style="opacity:1;fill:#ffffff;fill-opacity:0.51162792;stroke:none;stroke-width:2.33999991;stroke-miterlimit:4;stroke-dasharray:none;stroke-opacity:1"
       d="M 721.23102,965.10132 C 718.09382,960.46243 713.48481,957.07541 709.55027,953.14971 C 704.20658,948.13082 696.31813,949.88014 689.7192,948.55765 C 684.13612,947.28681 678.32267,945.59434 672.60986,947.28667 C 667.76341,948.25971 664.3255,952.36918 659.35761,953.01985 C 656.81783,953.4018 652.4263,955.42658 657.36355,956.01353 C 665.1714,956.48737 673.10245,955.70656 680.82804,957.41631 C 687.63627,958.67098 694.63196,958.7197 701.3859,960.34103 C 707.14226,961.17967 713.74055,959.21538 718.56466,963.39133 C 719.44273,963.97758 720.31517,964.57444 721.23102,965.10132 z"
       id="path3412" />
  </g>
</svg>
