<?xml version="1.0" encoding="UTF-8" standalone="no"?>
<!-- Created with Inkscape (http://www.inkscape.org/) -->
<svg
   xmlns:dc="http://purl.org/dc/elements/1.1/"
   xmlns:cc="http://creativecommons.org/ns#"
   xmlns:rdf="http://www.w3.org/1999/02/22-rdf-syntax-ns#"
   xmlns:svg="http://www.w3.org/2000/svg"
   xmlns="http://www.w3.org/2000/svg"
   xmlns:sodipodi="http://sodipodi.sourceforge.net/DTD/sodipodi-0.dtd"
   xmlns:inkscape="http://www.inkscape.org/namespaces/inkscape"
   width="250"
   height="250"
   id="svg2"
   sodipodi:version="0.32"
   inkscape:version="0.46"
   sodipodi:docname="greatdividelevel.svg"
   inkscape:output_extension="org.inkscape.output.svg.inkscape"
   inkscape:export-filename="P:\pidgey2\data\images\roselevelaward.png"
   inkscape:export-xdpi="92.160004"
   inkscape:export-ydpi="92.160004"
   version="1.0">
  <defs
     id="defs4">
    <inkscape:perspective
       sodipodi:type="inkscape:persp3d"
       inkscape:vp_x="0 : 125 : 1"
       inkscape:vp_y="0 : 1000 : 0"
       inkscape:vp_z="250 : 125 : 1"
       inkscape:persp3d-origin="125 : 83.333333 : 1"
       id="perspective3645" />
  </defs>
  <sodipodi:namedview
     id="base"
     pagecolor="#cb90ff"
     bordercolor="#666666"
     borderopacity="1.0"
     gridtolerance="10000"
     guidetolerance="10"
     objecttolerance="10"
     inkscape:pageopacity="0"
     inkscape:pageshadow="2"
     inkscape:zoom="1.7111984"
     inkscape:cx="161.27821"
     inkscape:cy="187.90179"
     inkscape:document-units="px"
     inkscape:current-layer="layer1"
     showgrid="false"
     inkscape:window-width="1680"
     inkscape:window-height="994"
     inkscape:window-x="0"
     inkscape:window-y="22" />
  <metadata
     id="metadata7">
    <rdf:RDF>
      <cc:Work
         rdf:about="">
        <dc:format>image/svg+xml</dc:format>
        <dc:type
           rdf:resource="http://purl.org/dc/dcmitype/StillImage" />
      </cc:Work>
    </rdf:RDF>
  </metadata>
  <g
     inkscape:label="Layer 1"
     inkscape:groupmode="layer"
     id="layer1">
    <path
       style="fill:none;fill-opacity:1;stroke:#000000;stroke-width:5.01947069;stroke-miterlimit:4;stroke-dasharray:none;stroke-opacity:1"
       d="M 157.07895,44.537458 C 156.36596,41.620138 155.07118,38.779599 155.25985,35.684505 C 155.0167,27.362702 159.87935,24.081464 166.44683,22.017624 C 169.77617,21.375944 172.99109,22.544441 176.17307,23.459211"
       id="path3223"
       sodipodi:nodetypes="cccc" />
    <path
       style="fill:none;fill-opacity:1;stroke:#000000;stroke-width:5.01947069;stroke-miterlimit:4;stroke-dasharray:none;stroke-opacity:1"
       d="M 157.59262,47.451383 C 158.13015,44.48935 158.11475,41.314922 159.53295,38.629319 C 162.67282,31.045715 168.35949,30.452843 175.08442,31.776418 C 178.33033,32.81036 180.74314,35.413016 183.22877,37.772114"
       id="path2792"
       sodipodi:nodetypes="cccc" />
    <path
       style="fill:none;fill-opacity:1;stroke:#000000;stroke-width:4.47355652;stroke-miterlimit:4;stroke-dasharray:none;stroke-opacity:1"
       d="M 131.99992,64.876138 C 135.97925,65.025376 142.35011,66.537985 147.18342,67.669831 C 149.40458,68.189997 150.32639,70.914606 150.79853,72.241379"
       id="path3245" />
    <path
       style="fill:none;fill-opacity:1;stroke:#000000;stroke-width:5.01947069;stroke-miterlimit:4;stroke-dasharray:none;stroke-opacity:1"
       d="M 129.08047,71.460165 C 131.60897,72.382714 134.05497,74.214657 135.57975,76.440001 C 136.37788,77.60483 136.22968,80.331301 136.22968,81.775521"
       id="path3247" />
    <path
       style="fill:none;fill-opacity:1;stroke:#000000;stroke-width:5.32029438;stroke-miterlimit:4;stroke-dasharray:none;stroke-opacity:1"
       d="M 117.13527,79.666118 C 118.16239,81.693078 120.09736,82.460417 120.09736,86.680593 C 120.09736,87.55743 120.09736,88.434245 120.09736,89.311038"
       id="path3249" />
    <path
       style="fill:#000000;fill-opacity:0.2965116;stroke:#000000;stroke-width:4.29197979;stroke-miterlimit:4;stroke-dasharray:none;stroke-opacity:1"
       d="M 106.96554,55.357322 C 98.506227,58.530646 61.438217,47.742584 75.243126,32.679939 C 87.891171,18.955243 125.57721,53.727093 110.0464,53.522634 C 108.54798,53.072999 108.01726,54.459811 106.96554,55.357322 z"
       id="path3205"
       sodipodi:nodetypes="cccc" />
    <path
       style="fill:#000000;fill-opacity:0.2965116;stroke:#000000;stroke-width:4.29197979;stroke-miterlimit:4;stroke-dasharray:none;stroke-opacity:1"
       d="M 113.79038,50.923272 C 104.90311,51.23188 71.908913,28.873342 88.793358,18.87892 C 104.24471,9.7947122 132.05428,55.382886 117.19063,50.158914 C 115.86016,49.242099 115.01643,50.401922 113.79038,50.923272 z"
       id="path3211"
       sodipodi:nodetypes="cccc" />
    <path
       style="fill:#5fd38d;fill-opacity:1;stroke:#000000;stroke-width:3;stroke-miterlimit:4;stroke-dasharray:none;stroke-opacity:1"
       d="M 66.467302,91.787328 C 62.71297,95.601415 57.684919,100.25664 56.515033,106.67107 C 85.040782,100.99479 132.32932,71.913087 151.86385,56.787959 C 154.50912,53.673549 158.98654,49.995969 158.68364,45.322321 C 136.16964,22.367969 83.283195,74.716255 66.467302,91.787328 z"
       id="path2423"
       sodipodi:nodetypes="ccccc" />
    <path
       style="fill:#ccff00;fill-opacity:1;stroke:#000000;stroke-width:4.52523327;stroke-miterlimit:4;stroke-dasharray:none;stroke-opacity:1"
       d="M 113.52057,55.816105 C 118.56678,55.958933 123.15911,58.397331 127.32069,60.95487 C 131.07228,60.199304 128.81263,50.030177 123.78235,48.522236 C 119.99491,50.455922 117.01427,53.457432 113.52057,55.816105 z"
       id="path3224"
       sodipodi:nodetypes="cccc" />
    <path
       style="fill:#000000;fill-opacity:0.2965116;stroke:#000000;stroke-width:4.48453474;stroke-miterlimit:4;stroke-dasharray:none;stroke-opacity:1"
       d="M 120.64494,60.889618 C 142.6824,52.422411 175.6154,50.736447 196.51718,63.36005 C 201.44785,66.315778 205.90338,74.516253 201.38875,77.381927 C 183.33433,88.842039 127.43358,82.180442 120.64494,60.889618 z"
       id="path3197"
       sodipodi:nodetypes="ccsc" />
    <path
       style="fill:#000000;fill-opacity:0.2965116;stroke:#000000;stroke-width:4.48453474;stroke-miterlimit:4;stroke-dasharray:none;stroke-opacity:1"
       d="M 119.24572,61.951717 C 142.34244,58.155297 174.98059,63.255094 193.35063,79.942793 C 197.68785,83.857645 200.66038,92.826807 195.73509,94.715575 C 176.03841,102.26894 122.26873,84.257918 119.24572,61.951717 z"
       id="path3201"
       sodipodi:nodetypes="ccsc" />
    <path
       style="fill:#ccff00;fill-opacity:1;stroke:#000000;stroke-width:3;stroke-miterlimit:4;stroke-dasharray:none;stroke-opacity:1"
       d="M 65.544997,93.513252 C 68.520924,93.289429 71.366721,94.441167 74.047008,95.776922 C 75.374731,96.503579 75.131616,95.998388 74.73636,94.267816 C 74.005647,90.594839 73.978563,88.850459 71.059814,88.231347 C 69.049146,89.769281 67.385253,91.786699 65.544997,93.513252 z"
       id="path3213"
       sodipodi:nodetypes="ccccc" />
    <path
       style="fill:#ccff00;fill-opacity:1;stroke:#000000;stroke-width:3;stroke-miterlimit:4;stroke-dasharray:none;stroke-opacity:1"
       d="M 75.243637,85.442387 C 79.622041,85.111176 83.940798,86.542105 88.021315,88.17629 C 90.474147,86.525198 88.003429,78.944733 83.531856,79.063279 C 80.496488,80.76042 78.075914,83.449397 75.243637,85.442387 z"
       id="path3215"
       sodipodi:nodetypes="cccc" />
    <path
       style="fill:#ccff00;fill-opacity:1;stroke:#000000;stroke-width:3;stroke-miterlimit:4;stroke-dasharray:none;stroke-opacity:1"
       d="M 86.181876,75.890476 C 90.859638,75.119545 96.78173,76.183262 101.31512,77.587751 C 105.08542,76.562601 100.84431,66.445868 96.660214,66.685609 C 93.477807,68.755907 89.146882,73.57277 86.181876,75.890476 z"
       id="path3217"
       sodipodi:nodetypes="cccc" />
    <path
       style="fill:#ccff00;fill-opacity:1;stroke:#000000;stroke-width:3;stroke-miterlimit:4;stroke-dasharray:none;stroke-opacity:1"
       d="M 98.893455,65.476049 C 104.21124,65.090841 109.51629,66.910951 114.38138,69.190809 C 116.66794,65.405864 112.87888,55.321983 108.93966,56.80828 C 105.11292,59.030928 102.46317,62.919493 98.893455,65.476049 z"
       id="path3221"
       sodipodi:nodetypes="cccc" />
    <path
       style="fill:#ccff00;fill-opacity:1;stroke:#000000;stroke-width:3;stroke-miterlimit:4;stroke-dasharray:none;stroke-opacity:1"
       d="M 126.98632,46.641493 C 131.5391,46.634694 140.73339,59.389259 141.28089,53.397537 C 141.32518,48.85501 143.66842,42.768365 138.32776,42.054001 C 134.35936,42.967258 130.81209,45.208775 126.98632,46.641493 z"
       id="path3226"
       sodipodi:nodetypes="cccc" />
    <path
       style="fill:#ffffff;fill-opacity:0.45930236;stroke:none;stroke-width:4.29199982;stroke-miterlimit:4;stroke-dasharray:none;stroke-opacity:1"
       d="M 145.07345,43.739386 C 127.77685,47.660516 103.46814,64.539247 89.304819,76.312295 C 81.323859,83.366329 72.925889,89.584679 65.354969,97.130679 C 89.481449,81.509779 118.74468,58.922488 145.07345,43.739386 z"
       id="path3228"
       sodipodi:nodetypes="cccc" />
    <path
       style="fill:#000000;fill-opacity:0.25581396;stroke:none;stroke-width:2;stroke-miterlimit:4;stroke-dasharray:none;stroke-opacity:1"
       d="M 70.109409,100.32813 C 84.416877,94.744089 84.398376,89.586074 120.61293,72.898345 C 105.9096,84.637266 86.173992,93.244053 70.109409,100.32813 z"
       id="path3232"
       sodipodi:nodetypes="ccc" />
    <g
       id="g2810"
       transform="matrix(-1.9925565,0.5808726,0.4978048,2.1721051,307.70425,-117.98109)">
      <path
         sodipodi:nodetypes="cccc"
         id="path2825"
         d="M 134.42363,91.127968 C 134.14651,89.791881 133.64324,88.490959 133.71657,87.073456 C 133.62206,83.262202 135.51212,81.759447 138.06483,80.81424 C 139.3589,80.520361 140.60851,81.055515 141.8453,81.474464"
         style="opacity:1;fill:none;fill-opacity:1;stroke:#000000;stroke-width:2.11779642;stroke-miterlimit:4;stroke-dasharray:none;stroke-opacity:1" />
      <path
         sodipodi:nodetypes="cccc"
         id="path2827"
         d="M 135.15888,92.648705 C 135.41252,91.373672 135.40526,90.007214 136.07446,88.851174 C 137.55607,85.586747 140.23943,85.331542 143.41272,85.901285 C 144.94437,86.346354 146.08291,87.466689 147.2558,88.482182"
         style="opacity:1;fill:none;fill-opacity:1;stroke:#000000;stroke-width:2.262218;stroke-miterlimit:4;stroke-dasharray:none;stroke-opacity:1" />
      <path
         id="path2829"
         d="M 120.17689,103.53671 C 122.5091,103.61833 126.24294,104.44562 129.07566,105.06467 C 130.37744,105.34916 130.9177,106.83934 131.19441,107.56499"
         style="opacity:1;fill:none;fill-opacity:1;stroke:#000000;stroke-width:2.53278589;stroke-miterlimit:4;stroke-dasharray:none;stroke-opacity:1" />
      <path
         id="path2831"
         d="M 116.58044,108.51336 C 118.06235,109.01793 119.49591,110.01988 120.38955,111.23699 C 120.85732,111.87407 120.77047,113.36527 120.77047,114.15516"
         style="opacity:1;fill:none;fill-opacity:1;stroke:#000000;stroke-width:2.8418653;stroke-miterlimit:4;stroke-dasharray:none;stroke-opacity:1" />
      <path
         id="path2833"
         d="M 106.61679,111.62582 C 107.21877,112.73442 108.35282,113.15411 108.35282,115.46225 C 108.35282,115.94183 108.35282,116.42138 108.35282,116.90093"
         style="opacity:1;fill:none;fill-opacity:1;stroke:#000000;stroke-width:3.012182;stroke-miterlimit:4;stroke-dasharray:none;stroke-opacity:1" />
      <path
         sodipodi:nodetypes="csssss"
         id="path3298"
         d="M 125.18103,86.554074 C 113.93638,84.853618 97.197314,85.030424 92.538092,99.817233 C 91.350088,103.58756 90.920066,107.67336 91.143102,111.68174 C 91.35218,115.43934 96.534182,114.50735 98.958456,113.88131 C 111.64324,110.60561 129.03069,106.38019 136.07508,93.973539 C 138.34664,89.972826 129.07501,87.142932 125.18103,86.554074 z"
         style="opacity:1;fill:#ff0000;fill-opacity:1;stroke:#000000;stroke-width:2.3840735;stroke-miterlimit:4;stroke-dasharray:none;stroke-opacity:1" />
      <path
         sodipodi:nodetypes="cccc"
         id="path3309"
         d="M 128.60618,88.165051 C 129.04445,91.326284 129.709,94.61137 131.63775,97.210293 C 137.22637,95.759701 137.6019,90.911085 131.98661,88.562407 C 130.90335,88.192088 129.74435,88.03432 128.60618,88.165051 z"
         style="opacity:1;fill:#000000;fill-opacity:1;stroke:#000000;stroke-width:2.42998314;stroke-miterlimit:4;stroke-dasharray:none;stroke-opacity:1" />
      <path
         id="path3318"
         d="M 101.9684,98.15197 C 96.989485,99.202033 99.071927,108.75264 103.80468,104.57962 C 105.90403,102.5687 104.90496,98.61666 101.9684,98.15197 z"
         style="opacity:1;fill:#000000;fill-opacity:1;stroke:#000000;stroke-width:2.42998314;stroke-miterlimit:4;stroke-dasharray:none;stroke-opacity:1" />
      <path
         id="path3329"
         d="M 115.74769,92.487608 C 120.72661,93.53767 118.64417,103.08828 113.91141,98.915257 C 111.81207,96.904337 112.81113,92.952297 115.74769,92.487608 z"
         style="opacity:1;fill:#000000;fill-opacity:1;stroke:#000000;stroke-width:2.42998314;stroke-miterlimit:4;stroke-dasharray:none;stroke-opacity:1" />
      <path
         sodipodi:nodetypes="ccc"
         id="path3331"
         d="M 124.05464,90.173258 C 105.30069,86.299027 93.603645,92.420331 93.888086,109.43221 C 92.83042,90.132717 120.15852,90.316278 124.05464,90.173258 z"
         style="opacity:1;fill:#ffffff;fill-opacity:0.34302326;stroke:none;stroke-width:2;stroke-miterlimit:4;stroke-dasharray:none;stroke-opacity:1" />
      <path
         sodipodi:nodetypes="ccc"
         id="path3333"
         d="M 100.31684,111.00968 C 97.120316,111.10297 124.96558,102.80792 128.21473,97.520551 C 126.08044,104.06366 109.19469,109.06489 100.31684,111.00968 z"
         style="opacity:1;fill:#000000;fill-opacity:0.34302326;stroke:none;stroke-width:2;stroke-miterlimit:4;stroke-dasharray:none;stroke-opacity:0.2965116" />
      <path
         id="path3340"
         d="M 134.69373,91.273771 C 134.17818,90.578394 133.26591,90.486621 132.57391,90.054459 C 131.62998,89.663654 130.5524,89.682425 129.57493,89.923139 C 128.87696,90.019193 129.02934,90.844573 129.45963,91.182287 C 130.01453,91.775366 130.89666,91.539554 131.60952,91.545422 C 132.60286,91.439061 133.60876,91.455698 134.59631,91.297726 C 134.62879,91.289742 134.66126,91.281756 134.69373,91.273771 z"
         style="opacity:1;fill:#ffffff;fill-opacity:0.34302326;stroke:none;stroke-width:2;stroke-miterlimit:4;stroke-dasharray:none;stroke-opacity:0.2965116" />
    </g>
    <path
       style="opacity:1;fill:none;fill-opacity:1;stroke:#000000;stroke-width:10;stroke-miterlimit:4;stroke-dasharray:none;stroke-opacity:1"
       d="M 19.869116,150.65442 C 25.236345,141.82268 34.970628,131.12376 46.166476,125.52583 C 60.057265,118.58044 73.798407,114.08867 89.411023,112.66934 C 105.39389,111.21636 120.98473,110.68581 136.74627,113.83812 C 149.78486,116.44583 162.5444,117.92882 175.90012,117.92882 C 189.38711,117.92882 200.30808,116.43666 213.30081,113.83812 C 224.30951,111.63637 233.27335,97.268456 237.84501,88.125142 C 239.30501,85.205146 240.02788,81.7312 240.76694,78.77497"
       id="path3667" />
  </g>
</svg>
