<?xml version="1.0" encoding="UTF-8" standalone="no"?>
<!-- Created with Inkscape (http://www.inkscape.org/) -->
<svg
   xmlns:dc="http://purl.org/dc/elements/1.1/"
   xmlns:cc="http://creativecommons.org/ns#"
   xmlns:rdf="http://www.w3.org/1999/02/22-rdf-syntax-ns#"
   xmlns:svg="http://www.w3.org/2000/svg"
   xmlns="http://www.w3.org/2000/svg"
   xmlns:sodipodi="http://sodipodi.sourceforge.net/DTD/sodipodi-0.dtd"
   xmlns:inkscape="http://www.inkscape.org/namespaces/inkscape"
   width="250"
   height="250"
   id="svg2"
   sodipodi:version="0.32"
   inkscape:version="0.46"
   sodipodi:docname="ladybird.svg"
   inkscape:output_extension="org.inkscape.output.svg.inkscape"
   inkscape:export-filename="P:\pidgey2\data\images\ladybird.png"
   inkscape:export-xdpi="92.160004"
   inkscape:export-ydpi="92.160004"
   version="1.0">
  <defs
     id="defs4">
    <inkscape:perspective
       sodipodi:type="inkscape:persp3d"
       inkscape:vp_x="0 : 125 : 1"
       inkscape:vp_y="0 : 1000 : 0"
       inkscape:vp_z="250 : 125 : 1"
       inkscape:persp3d-origin="125 : 83.333333 : 1"
       id="perspective3645" />
  </defs>
  <sodipodi:namedview
     id="base"
     pagecolor="#cb90ff"
     bordercolor="#666666"
     borderopacity="1.0"
     gridtolerance="10000"
     guidetolerance="10"
     objecttolerance="10"
     inkscape:pageopacity="0"
     inkscape:pageshadow="2"
     inkscape:zoom="3.3800001"
     inkscape:cx="88.276451"
     inkscape:cy="133.2714"
     inkscape:document-units="px"
     inkscape:current-layer="layer1"
     showgrid="false"
     inkscape:window-width="1680"
     inkscape:window-height="994"
     inkscape:window-x="0"
     inkscape:window-y="22"
     showguides="true"
     inkscape:guide-bbox="true" />
  <metadata
     id="metadata7">
    <rdf:RDF>
      <cc:Work
         rdf:about="">
        <dc:format>image/svg+xml</dc:format>
        <dc:type
           rdf:resource="http://purl.org/dc/dcmitype/StillImage" />
      </cc:Work>
    </rdf:RDF>
  </metadata>
  <g
     inkscape:label="Layer 1"
     inkscape:groupmode="layer"
     id="layer1">
    <path
       style="opacity:1;fill:none;fill-opacity:0.23837207999999999;stroke:#000000;stroke-width:3;stroke-miterlimit:4;stroke-dasharray:none;stroke-opacity:1"
       d="M 196.37478,99.638481 C 198.15462,104.27279 202.95723,107.25039 207.57085,108.04309 C 212.00232,108.80449 215.67042,105.04844 218.99277,102.49903 C 221.47068,100.5976 223.66196,95.318382 219.70484,93.894816 C 217.02516,92.930808 215.01953,95.690134 214.81976,98.220458 C 214.58742,101.16331 213.68195,104.98401 216.41511,106.8531 C 219.20952,108.76408 223.2785,110.97208 226.56535,109.19888 C 229.97992,107.35678 232.51705,103.77261 233.32249,99.878972"
       id="path3260"
       sodipodi:nodetypes="csssssss" />
    <path
       style="opacity:1;fill:#000000;fill-opacity:1;stroke:#000000;stroke-width:3;stroke-miterlimit:4;stroke-dasharray:none;stroke-opacity:1"
       d="M 69.453355,67.971523 C 59.860556,66.65735 52.034138,82.381745 43.06878,87.706413 C 17.01562,107.75235 25.937941,139.51555 55.893264,154.15564 C 68.755153,160.86698 81.828541,167.32818 95.083045,164.64082 C 109.49586,166.10562 123.90481,163.33975 138.10391,157.61854 C 146.57936,153.90676 157.59633,156.94239 163.04585,138.00126 C 167.97603,119.07047 163.58828,91.563768 155.61444,81.050155 C 138.14142,64.04723 118.81929,74.63006 100.5334,69.291469 C 90.163832,68.996715 79.798127,68.641037 69.453355,67.971523 z"
       id="path3191"
       sodipodi:nodetypes="ccccccccc" />
    <path
       style="opacity:1;fill:#000000;fill-opacity:1;stroke:#000000;stroke-width:3;stroke-miterlimit:4;stroke-dasharray:none;stroke-opacity:1"
       d="M 158.45874,82.725425 C 174.00196,80.962766 193.83522,85.25068 202.70617,100.47839 C 206.90594,113.48938 205.19197,130.24672 194.83178,139.31344 C 189.33925,142.73825 183.34537,145.43981 177.32787,147.52007 C 172.05118,148.24162 162.00527,150.52581 162.67437,141.43902 C 161.54054,135.92245 161.64741,130.2631 161.7178,124.62422 C 114.63989,115.27543 149.35146,110.19909 158.42885,103.41535 C 157.41303,96.529192 157.01459,89.577768 158.45874,82.725425 z"
       id="path3186"
       sodipodi:nodetypes="cccccccc" />
    <path
       style="opacity:1;fill:#6c5353;fill-opacity:1;stroke:#000000;stroke-width:3;stroke-miterlimit:4;stroke-dasharray:none;stroke-opacity:1"
       d="M 40.912346,82.092055 C 9.8155286,101.00963 89.846908,116.31881 105.77715,115.67835 C 119.65377,116.32657 124.37565,116.03846 138.22906,115.94642 C 152.1542,119.32259 147.99527,105.73053 140.42432,99.890295 C 131.84933,91.260071 118.4182,97.206906 107.80687,93.49542 C 96.240522,90.172895 84.501504,87.685123 72.420836,86.888502 C 62.015246,84.663763 51.202939,84.880057 40.912346,82.092055 z"
       id="path3195"
       sodipodi:nodetypes="ccccccc" />
    <path
       style="opacity:1;fill:#ffffff;fill-opacity:0.23837207999999999;stroke:none;stroke-width:3;stroke-miterlimit:4;stroke-dasharray:none;stroke-opacity:1"
       d="M 181.37134,90.03501 C 187.78582,95.087149 197.00445,99.893756 200.31254,109.56542 C 199.14698,96.775328 190.52848,91.080325 181.37134,90.03501 z"
       id="path3264"
       sodipodi:nodetypes="ccc" />
    <path
       style="opacity:1;fill:#d40000;fill-opacity:1;stroke:#000000;stroke-width:3;stroke-miterlimit:4;stroke-dasharray:none;stroke-opacity:1"
       d="M 185.23849,82.765682 C 176.87331,69.798197 168.85215,55.920956 155.5329,47.012038 C 146.06371,39.675966 134.89255,34.502052 122.93574,32.336939 C 110.93567,29.800439 98.245675,26.617194 86.137656,30.447137 C 73.472217,33.678871 61.566544,40.047642 53.142512,49.878166 C 46.246653,57.796842 39.129542,66.939557 39.644536,77.846095 C 39.446565,84.711542 42.536429,91.719358 48.848931,95.280759 C 64.042856,107.09985 83.337484,112.33745 102.39225,114.7095 C 116.76902,116.46781 130.80952,117.49895 145.26127,117.59689 C 156.74364,117.67469 166.99746,111.10511 177.85819,108.14882 C 187.3556,103.86432 191.22923,91.204209 185.23849,82.765682 z"
       id="path2410"
       sodipodi:nodetypes="ccccccccscc" />
    <path
       style="opacity:1;fill:#6c5353;fill-opacity:1;stroke:#000000;stroke-width:3;stroke-miterlimit:4;stroke-dasharray:none;stroke-opacity:1"
       d="M 41.14902,152.35948 C 35.089328,147.35018 31.426719,135.86407 41.381594,132.68897 C 52.013062,127.76079 63.28227,124.27561 74.779351,121.83313 C 83.138527,121.42463 91.012271,117.93745 99.477749,118.33898 C 111.33566,117.34872 123.46623,122.01703 135.37264,122.71834 C 142.31402,120.3911 144.16883,119.86622 145.95826,125.15119 C 143.85031,133.21965 136.98411,140.2227 127.76834,139.37709 C 117.1327,139.00778 106.60131,140.62182 96.562735,144.00312 C 86.995557,146.83352 76.87402,146.36742 67.153913,148.55108 C 58.445839,149.83841 49.672055,150.02124 41.14902,152.35948 z"
       id="path3198"
       sodipodi:nodetypes="cccccccccc" />
    <path
       style="opacity:1;fill:#d40000;fill-opacity:1;stroke:#000000;stroke-width:3;stroke-miterlimit:4;stroke-dasharray:none;stroke-opacity:1"
       d="M 185.01648,150.92659 C 176.6513,163.89407 168.63014,177.77133 155.3109,186.68024 C 145.8417,194.0163 134.67055,199.19022 122.71373,201.35534 C 110.71366,203.89184 98.02367,207.07508 85.915651,203.24515 C 73.250212,200.01341 61.344536,193.64464 52.920506,183.81412 C 46.024648,175.89544 38.907537,166.75272 39.422531,155.84618 C 39.224559,148.98074 42.31443,141.97293 48.626926,138.41152 C 63.820843,126.59243 83.115484,121.35484 102.17024,118.98279 C 116.54701,117.22448 128.36857,117.82054 142.82032,117.72261 C 154.3027,117.64481 166.77543,122.58718 177.63617,125.54347 C 187.13359,129.82796 191.00722,142.48807 185.01648,150.92659 z"
       id="path3184"
       sodipodi:nodetypes="ccccccccscc" />
    <path
       style="opacity:1;fill:#000000;fill-opacity:1;stroke:#000000;stroke-width:3;stroke-miterlimit:4;stroke-dasharray:none;stroke-opacity:1"
       d="M 57.593026,154.02953 C 56.041514,158.28014 53.796814,164.19699 56.770757,168.25783 C 60.765897,172.65627 67.212168,172.65746 71.766764,169.67141 C 75.686972,166.64497 75.75598,159.78726 74.682907,154.80589 C 72.729718,148.83849 60.935047,150.78961 57.593026,154.02953 z"
       id="path3200"
       sodipodi:nodetypes="ccccc" />
    <path
       style="opacity:1;fill:#000000;fill-opacity:1;stroke:#000000;stroke-width:3;stroke-miterlimit:4;stroke-dasharray:none;stroke-opacity:1"
       d="M 105.70974,166.60705 C 104.15825,170.85765 101.91354,176.77451 104.88747,180.83536 C 108.88261,185.23379 115.32888,185.23496 119.88349,182.24895 C 123.80369,179.22249 123.8727,172.36481 122.79963,167.38341 C 120.84645,161.41602 109.05176,163.36714 105.70974,166.60705 z"
       id="path3214"
       sodipodi:nodetypes="ccccc" />
    <path
       style="opacity:1;fill:#000000;fill-opacity:1;stroke:#000000;stroke-width:3;stroke-miterlimit:4;stroke-dasharray:none;stroke-opacity:1"
       d="M 149.88832,136.85305 C 148.33679,141.10365 146.09209,147.02051 149.06604,151.08136 C 153.06119,155.47978 159.50745,155.48097 164.06204,152.49493 C 167.98227,149.46849 168.05125,142.6108 166.97819,137.6294 C 165.025,131.662 153.23034,133.61313 149.88832,136.85305 z"
       id="path3216"
       sodipodi:nodetypes="ccccc" />
    <path
       style="opacity:1;fill:#000000;fill-opacity:1;stroke:#000000;stroke-width:3;stroke-miterlimit:4;stroke-dasharray:none;stroke-opacity:1"
       d="M 56.937569,78.725039 C 59.87174,83.775592 67.500721,83.283535 71.933582,80.138623 C 75.975531,77.271052 77.765513,69.343406 74.849725,65.273087 C 66.635561,53.806454 50.505187,67.653072 56.937569,78.725039 z"
       id="path3218"
       sodipodi:nodetypes="csss" />
    <path
       style="opacity:1;fill:#000000;fill-opacity:1;stroke:#000000;stroke-width:3;stroke-miterlimit:4;stroke-dasharray:none;stroke-opacity:1"
       d="M 145.57821,73.963915 C 143.14847,77.683106 141.55341,84.304881 144.75594,88.19222 C 148.5225,92.764178 155.31909,92.750714 159.75196,89.605795 C 163.79391,86.738227 164.0252,79.650213 162.66809,74.740271 C 160.99895,68.701429 148.04202,70.192588 145.57821,73.963915 z"
       id="path3222"
       sodipodi:nodetypes="cssss" />
    <path
       style="opacity:1;fill:#000000;fill-opacity:1;stroke:#000000;stroke-width:3;stroke-miterlimit:4;stroke-dasharray:none;stroke-opacity:1"
       d="M 99.675036,42.900538 C 97.245295,46.61973 95.650236,53.241504 98.852761,57.128843 C 102.61932,61.700802 109.41591,61.687338 113.84878,58.542419 C 117.89073,55.674851 118.12203,48.586837 116.76492,43.676894 C 115.09577,37.638052 102.13884,39.129212 99.675036,42.900538 z"
       id="path2408"
       sodipodi:nodetypes="cssss" />
    <path
       style="opacity:1;fill:#ffffff;fill-opacity:0.23837207999999999;stroke:none;stroke-width:3;stroke-miterlimit:4;stroke-dasharray:none;stroke-opacity:1"
       d="M 172.38449,76.946108 C 163.18154,42.709582 87.212707,13.097781 54.927703,52.501262 C 104.77473,23.679755 147.59118,52.733944 172.38449,76.946108 z"
       id="path3224"
       sodipodi:nodetypes="ccc" />
    <path
       style="opacity:1;fill:#000000;fill-opacity:0.23837207999999999;stroke:none;stroke-width:3;stroke-miterlimit:4;stroke-dasharray:none;stroke-opacity:1"
       d="M 167.48098,105.54617 C 168.98991,115.51191 73.361193,115.23918 59.469789,91.249508 C 99.251296,105.82152 125.26554,109.34746 167.48098,105.54617 z"
       id="path3244"
       sodipodi:nodetypes="ccc" />
    <path
       style="opacity:1;fill:none;fill-opacity:0.23837207999999999;stroke:#000000;stroke-width:3;stroke-miterlimit:4;stroke-dasharray:none;stroke-opacity:1"
       d="M 191.95937,130.22833 C 195.13813,125.68469 201.01001,124.86799 205.77607,122.82396 C 210.33827,121.31308 216.61461,121.75408 219.0951,126.50107 C 221.33122,129.26552 220.00649,134.29687 216.32438,134.90711 C 212.97394,134.55161 213.8977,130.59646 214.76496,128.47046 C 215.67825,124.90981 218.40345,121.11352 222.48679,121.33437 C 227.60708,121.31365 232.48964,126.53726 230.91329,131.70414 C 230.79351,132.33085 230.70835,132.97013 230.75032,133.60947"
       id="path3262" />
    <path
       style="opacity:1;fill:#ffffff;fill-opacity:0.23837207999999999;stroke:none;stroke-width:3;stroke-miterlimit:4;stroke-dasharray:none;stroke-opacity:1"
       d="M 168.73243,128.73214 C 170.17536,120.30035 78.72868,120.53112 65.444772,140.82823 C 103.48656,128.49919 128.36316,125.51597 168.73243,128.73214 z"
       id="path2411"
       sodipodi:nodetypes="ccc" />
    <path
       style="opacity:1;fill:#000000;fill-opacity:0.23837207999999999;stroke:none;stroke-width:3;stroke-miterlimit:4;stroke-dasharray:none;stroke-opacity:1"
       d="M 173.46329,157.84346 C 164.0895,190.69275 86.710387,219.1047 53.826048,181.29782 C 104.59843,208.9515 148.20973,181.07457 173.46329,157.84346 z"
       id="path3183"
       sodipodi:nodetypes="ccc" />
    <path
       style="opacity:1;fill:#ffffff;fill-opacity:0.23837207999999999;stroke:none;stroke-width:3;stroke-miterlimit:4;stroke-dasharray:none;stroke-opacity:1"
       d="M 38.621602,99.70684 C 36.90988,98.530614 30.521799,109.99935 30.261996,112.70546 C 29.391525,114.305 30.318965,115.2388 31.173422,115.29958 C 32.472212,115.42399 33.90101,114.43973 35.241878,113.63958 C 39.461045,109.89547 43.37825,102.77365 38.621602,99.70684 z"
       id="path3185"
       sodipodi:nodetypes="ccccc"
       inkscape:transform-center-x="3.4495066" />
  </g>
</svg>
