<?xml version="1.0" encoding="UTF-8" standalone="no"?>
<!-- Created with Inkscape (http://www.inkscape.org/) -->
<svg
   xmlns:dc="http://purl.org/dc/elements/1.1/"
   xmlns:cc="http://creativecommons.org/ns#"
   xmlns:rdf="http://www.w3.org/1999/02/22-rdf-syntax-ns#"
   xmlns:svg="http://www.w3.org/2000/svg"
   xmlns="http://www.w3.org/2000/svg"
   xmlns:sodipodi="http://sodipodi.sourceforge.net/DTD/sodipodi-0.dtd"
   xmlns:inkscape="http://www.inkscape.org/namespaces/inkscape"
   width="250"
   height="250"
   id="svg2"
   sodipodi:version="0.32"
   inkscape:version="0.46"
   sodipodi:docname="locustaward1.svg"
   inkscape:output_extension="org.inkscape.output.svg.inkscape"
   inkscape:export-filename="P:\pidgey2\data\images\locustaward1.png"
   inkscape:export-xdpi="92.160004"
   inkscape:export-ydpi="92.160004"
   version="1.0">
  <defs
     id="defs4">
    <inkscape:perspective
       sodipodi:type="inkscape:persp3d"
       inkscape:vp_x="0 : 125 : 1"
       inkscape:vp_y="0 : 1000 : 0"
       inkscape:vp_z="250 : 125 : 1"
       inkscape:persp3d-origin="125 : 83.333333 : 1"
       id="perspective3645" />
  </defs>
  <sodipodi:namedview
     id="base"
     pagecolor="#cb90ff"
     bordercolor="#666666"
     borderopacity="1.0"
     gridtolerance="10000"
     guidetolerance="10"
     objecttolerance="10"
     inkscape:pageopacity="0"
     inkscape:pageshadow="2"
     inkscape:zoom="2.231629"
     inkscape:cx="115.72851"
     inkscape:cy="144.55504"
     inkscape:document-units="px"
     inkscape:current-layer="layer1"
     showgrid="false"
     inkscape:window-width="985"
     inkscape:window-height="990"
     inkscape:window-x="17"
     inkscape:window-y="-2" />
  <metadata
     id="metadata7">
    <rdf:RDF>
      <cc:Work
         rdf:about="">
        <dc:format>image/svg+xml</dc:format>
        <dc:type
           rdf:resource="http://purl.org/dc/dcmitype/StillImage" />
      </cc:Work>
    </rdf:RDF>
  </metadata>
  <g
     inkscape:label="Layer 1"
     inkscape:groupmode="layer"
     id="layer1">
    <path
       style="opacity:1;fill:#ff5555;fill-opacity:1;stroke:#000000;stroke-width:2.75859736999999990;stroke-miterlimit:4;stroke-dasharray:none;stroke-opacity:1"
       d="M 110.38839,144.88708 C 111.2806,186.77071 106.84969,210.21218 97.14606,243.85283 C 106.0481,233.5837 117.00036,236.83113 126.74881,227.37672 C 139.29557,243.40721 154.58724,240.64699 157.41608,246.15629 C 153.83,235.00559 143.98267,176.51987 147.71147,143.09425 C 142.69775,144.50943 115.2209,142.9642 110.38839,144.88708 z"
       id="path3306"
       sodipodi:nodetypes="cccccc"
       inkscape:transform-center-x="4.4332338"
       inkscape:transform-center-y="7.6574057" />
    <path
       style="opacity:1;fill:#ff5555;fill-opacity:1;stroke:#000000;stroke-width:2.75859736999999990;stroke-miterlimit:4;stroke-dasharray:none;stroke-opacity:1"
       d="M 78.947599,131.80067 C 63.846975,170.87759 50.835505,190.87353 29.069241,218.29766 C 41.207358,212.18477 53.378908,217.24859 65.990077,212.21105 C 71.499003,231.80825 83.414899,237.17403 83.936405,243.34515 C 84.859611,231.66843 97.990521,173.83134 114.14899,144.33422 C 108.97375,143.73669 84.148279,131.85973 78.947599,131.80067 z"
       id="path3304"
       sodipodi:nodetypes="cccccc" />
    <path
       style="opacity:1;fill:#ff5555;fill-opacity:1;stroke:#000000;stroke-width:2.75859736999999990;stroke-miterlimit:4;stroke-dasharray:none;stroke-opacity:1"
       d="M 176.65201,130.69112 C 191.75263,169.76805 204.7641,189.76399 226.53036,217.18811 C 214.39225,211.07523 204.63882,218.9602 192.02766,213.92267 C 186.51873,233.51985 172.18471,236.06448 171.6632,242.23561 C 170.74,230.55889 157.60909,172.7218 141.45061,143.22468 C 146.62586,142.62714 171.45132,130.75019 176.65201,130.69112 z"
       id="path3274"
       sodipodi:nodetypes="cccccc" />
    <path
       style="fill:#ff8080;fill-opacity:1;stroke:#000000;stroke-width:2.75859736999999990;stroke-miterlimit:4;stroke-dasharray:none;stroke-opacity:1"
       d="M 88.052529,68.57116 C 85.663109,64.722963 83.464723,60.580742 80.203088,57.498246 C 73.836182,52.986489 65.821509,52.586815 59.24437,48.504498 C 56.153538,46.683204 52.742863,43.379847 53.312536,39.23953 C 54.359424,34.8476 58.468528,32.641075 61.241617,29.624523 C 67.874501,24.547997 74.359202,19.19468 81.500021,14.944303 C 84.058508,12.634717 87.408245,10.110411 90.870855,11.857295 C 97.312302,13.280982 103.57652,20.600289 105.76241,26.351213 C 109.20624,33.300485 113.31835,38.324452 114.19834,46.598671 C 114.90587,53.898289 110.61718,61.510999 103.933,63.621292 C 100.32325,64.439339 91.407539,69.273932 88.052529,68.57116 z"
       id="path3173"
       sodipodi:nodetypes="ccccccccccc" />
    <path
       style="fill:#ff5555;fill-opacity:0.75000000000000000;stroke:#000000;stroke-width:2.75859736999999990;stroke-miterlimit:4;stroke-dasharray:none;stroke-opacity:1"
       d="M 95.163837,51.788041 C 92.14952,48.678756 88.746927,45.910534 86.406947,42.1381 C 85.138097,40.62772 83.686489,39.0923 83.281003,37.028972 C 82.419735,35.746269 83.302027,33.327607 84.940924,33.683335 C 86.386392,33.93685 87.889199,34.125673 89.223093,34.853746 C 90.459313,35.538711 91.648404,36.329707 92.77618,37.202708 C 94.560454,38.669693 95.401417,40.983914 96.389317,43.065259 C 101.65875,57.725045 111.8091,70.747671 95.163837,51.788041 z"
       id="path3175"
       sodipodi:nodetypes="cccccccc" />
    <path
       style="fill:#ff8080;fill-opacity:1;stroke:#000000;stroke-width:2.75859736999999990;stroke-miterlimit:4;stroke-dasharray:none;stroke-opacity:1"
       d="M 115.39908,54.930827 C 115.74348,50.324832 116.40784,45.61416 115.62444,41.032744 C 113.22581,33.272832 107.15717,27.65446 104.34527,20.092945 C 102.96776,16.615867 102.1948,11.762219 105.03371,8.8849877 C 108.39303,6.1258192 112.89708,7.1109792 116.81886,6.5752703 C 124.96408,6.9749172 133.1527,7.0589326 141.22007,8.4440866 C 144.56487,8.3220207 148.65559,8.5548413 150.36829,12.219488 C 154.609,17.60154 155.30548,27.500204 153.70222,33.467029 C 152.39562,41.208272 152.72619,47.878514 148.63925,54.964372 C 144.9796,61.170049 137.21215,64.315251 130.73969,61.550225 C 127.43001,59.804212 117.63021,57.703602 115.39908,54.930827 z"
       id="path3192"
       sodipodi:nodetypes="ccccccccccc" />
    <path
       style="fill:#ff5555;fill-opacity:0.75000000000000000;stroke:#000000;stroke-width:2.75859736999999990;stroke-miterlimit:4;stroke-dasharray:none;stroke-opacity:1"
       d="M 129.10052,45.114809 C 128.527,40.676019 127.45133,36.248336 127.79083,31.734608 C 127.66582,29.707716 127.41162,27.540193 128.28455,25.650083 C 128.3484,24.071887 130.43873,22.754761 131.52144,24.119003 C 132.51115,25.274901 133.5833,26.417894 134.21123,27.872944 C 134.7873,29.229467 135.26509,30.638142 135.64732,32.070688 C 136.20252,34.404587 135.52697,36.780102 135.10142,39.06983 C 130.77665,54.079678 131.23375,71.032995 129.10052,45.114809 z"
       id="path3194"
       sodipodi:nodetypes="cccccccc" />
    <path
       style="fill:#ff8080;fill-opacity:1;stroke:#000000;stroke-width:2.75859736999999990;stroke-miterlimit:4;stroke-dasharray:none;stroke-opacity:1"
       d="M 147.85436,61.141076 C 150.31947,57.347991 150.20152,52.747398 151.68086,48.367353 C 153.26071,40.370525 153.57118,33.13409 154.70067,25.08578 C 155.14707,21.339293 156.76352,16.729704 160.56992,15.775246 C 164.7703,15.203424 168.19741,18.483414 171.83729,20.135614 C 178.68533,24.873464 185.71939,29.362055 192.03637,34.909218 C 194.98316,36.607581 198.4073,39.014775 198.16217,43.104054 C 199.29259,50.040202 195.23587,58.966601 191.04289,63.25633 C 186.27112,69.238836 183.41762,75.179089 176.55251,79.096046 C 170.47076,82.483114 162.28083,81.011161 157.99094,75.132121 C 155.95363,71.83899 148.47679,64.739509 147.85436,61.141076 z"
       id="path3196"
       sodipodi:nodetypes="ccccccccccc"
       inkscape:transform-center-x="-6.4046617"
       inkscape:transform-center-y="3.7155259" />
    <path
       style="fill:#ff5555;fill-opacity:0.75000000000000000;stroke:#000000;stroke-width:2.75859736999999990;stroke-miterlimit:4;stroke-dasharray:none;stroke-opacity:1"
       d="M 164.3096,60.050684 C 165.90312,55.907022 167.05761,51.502147 169.47508,47.78613 C 170.32095,45.967815 171.12142,43.958348 172.76498,42.796367 C 173.56284,41.467507 175.9884,41.457017 176.28165,43.219385 C 176.59264,44.751628 176.98087,46.317177 176.83857,47.912736 C 176.69779,49.395211 176.4476,50.869738 176.10361,52.313353 C 175.48485,54.62886 173.78335,56.316592 172.33819,58.06504 C 161.53856,68.698749 153.95507,83.590094 164.3096,60.050684 z"
       id="path3198"
       sodipodi:nodetypes="cccccccc"
       inkscape:transform-center-x="-2.3686475"
       inkscape:transform-center-y="10.487483" />
    <path
       style="fill:#ff8080;fill-opacity:1;stroke:#000000;stroke-width:2.75859736999999990;stroke-miterlimit:4;stroke-dasharray:none;stroke-opacity:1"
       d="M 82.757659,92.760588 C 78.456399,92.372882 74.058685,91.642224 69.775724,92.46187 C 62.516902,94.997478 57.243424,101.47058 50.168224,104.4494 C 46.914427,105.90961 42.377206,106.71697 39.701183,103.66608 C 37.1376,100.0586 38.076509,95.241203 37.592292,91.040821 C 37.9993,82.323196 38.111643,73.557829 39.438936,64.92764 C 39.338739,61.34661 39.573138,56.968542 43.003545,55.150297 C 48.048707,50.632979 57.298401,49.928335 62.865667,51.669245 C 70.091729,53.099944 76.324087,52.773651 82.926432,57.177928 C 88.708316,61.12115 91.614283,69.449021 89.004578,76.3662 C 87.359861,79.901912 85.357063,90.383686 82.757659,92.760588 z"
       id="path3200"
       sodipodi:nodetypes="ccccccccccc"
       inkscape:transform-center-x="-3.2859731"
       inkscape:transform-center-y="-5.5234569" />
    <path
       style="fill:#ff5555;fill-opacity:0.75000000000000000;stroke:#000000;stroke-width:2.75859736999999990;stroke-miterlimit:4;stroke-dasharray:none;stroke-opacity:1"
       d="M 73.644696,80.20587 C 69.495838,80.801449 65.35528,81.934624 61.140199,81.552529 C 59.246266,81.677978 57.220423,81.941127 55.458394,80.998867 C 53.984391,80.923985 52.76264,78.680892 54.04152,77.527519 C 55.125391,76.472825 56.197552,75.329856 57.559377,74.663675 C 58.82895,74.052615 60.146837,73.54697 61.486632,73.143732 C 63.669132,72.559064 65.885421,73.292042 68.022604,73.757051 C 82.02614,78.448671 97.864933,78.029453 73.644696,80.20587 z"
       id="path3202"
       sodipodi:nodetypes="cccccccc"
       inkscape:transform-center-x="-8.2123465"
       inkscape:transform-center-y="-7.8918761" />
    <path
       style="fill:#ff8080;fill-opacity:1;stroke:#000000;stroke-width:2.75859736999999990;stroke-miterlimit:4;stroke-dasharray:none;stroke-opacity:1"
       d="M 169.11667,113.36306 C 172.29695,116.4873 176.60408,118.16669 180.46006,120.32403 C 188.50655,121.24099 194.42437,122.86812 201.57377,125.46642 C 204.98197,126.44296 209.03203,128.77655 209.40451,132.94251 C 209.36989,137.47501 205.87348,140.67011 203.85535,144.30942 C 198.55012,150.93769 193.45063,157.79672 187.46752,163.75296 C 185.49971,166.65087 182.81165,169.95998 179.05912,169.15092 C 172.48658,169.41881 164.76809,163.91699 161.36005,158.89317 C 156.46272,153.02808 151.34695,149.20356 148.64275,141.39522 C 146.32388,134.48897 148.78607,125.99878 154.80425,122.23742 C 158.12622,120.51839 165.70203,113.5402 169.11667,113.36306 z"
       id="path3204"
       sodipodi:nodetypes="ccccccccccc" />
    <path
       style="fill:#ff5555;fill-opacity:0.75000000000000000;stroke:#000000;stroke-width:2.75859736999999990;stroke-miterlimit:4;stroke-dasharray:none;stroke-opacity:1"
       d="M 167.91674,130.96506 C 171.53858,133.21178 175.46115,135.02788 178.5765,138.09122 C 180.14613,139.23264 181.89881,140.35157 182.75379,142.25107 C 183.8768,143.27584 183.56085,145.85025 181.89005,145.92473 C 180.42992,146.04889 178.92856,146.25054 177.47067,145.88535 C 176.11722,145.53699 174.78587,145.0736 173.49569,144.51489 C 171.43531,143.54765 170.10142,141.51611 168.67692,139.74833 C 160.28329,126.86448 147.51657,116.82063 167.91674,130.96506 z"
       id="path3206"
       sodipodi:nodetypes="cccccccc" />
    <path
       style="fill:#ff8080;fill-opacity:1;stroke:#000000;stroke-width:2.75859736999999990;stroke-miterlimit:4;stroke-dasharray:none;stroke-opacity:1"
       d="M 147.15135,133.54237 C 147.84668,138.10277 148.25473,142.84675 150.03957,147.09435 C 154.10332,154.01427 161.25164,157.91468 165.67228,164.53612 C 167.78709,167.55924 169.62267,172.07384 167.50948,175.59475 C 164.86461,179.13436 160.2712,179.3317 156.58316,180.85654 C 148.58525,182.55518 140.6158,184.5714 132.47322,185.29324 C 129.25289,186.26864 125.22899,187.09057 122.7468,183.97117 C 117.42612,179.83191 114.53695,170.39933 114.75968,164.19515 C 114.29768,156.34413 112.48553,149.9524 114.86961,142.02543 C 117.03558,135.06253 123.87417,130.01882 130.77669,131.04536 C 134.38054,131.89275 144.36518,131.42176 147.15135,133.54237 z"
       id="path3208"
       sodipodi:nodetypes="ccccccccccc" />
    <path
       style="fill:#ff5555;fill-opacity:0.75000000000000000;stroke:#000000;stroke-width:2.75859736999999990;stroke-miterlimit:4;stroke-dasharray:none;stroke-opacity:1"
       d="M 136.04251,146.58327 C 137.59169,150.74614 139.62597,154.76959 140.30541,159.23913 C 140.87992,161.1751 141.61131,163.21452 141.1863,165.27333 C 141.47712,166.82203 139.74198,168.63639 138.38574,167.58917 C 137.16637,166.72041 135.86986,165.88529 134.93489,164.63339 C 134.07229,163.46387 133.29345,162.21853 132.60208,160.92553 C 131.54125,158.80169 131.6661,156.32213 131.5674,153.98992 C 132.4109,138.30829 128.17705,121.96472 136.04251,146.58327 z"
       id="path3210"
       sodipodi:nodetypes="cccccccc" />
    <path
       style="fill:#ff8080;fill-opacity:1;stroke:#000000;stroke-width:2.75859736999999990;stroke-miterlimit:4;stroke-dasharray:none;stroke-opacity:1"
       d="M 115.14867,138.84963 C 113.60318,143.16402 111.72311,147.48209 111.26596,152.11385 C 111.51978,160.28304 115.85919,167.50734 116.56178,175.61114 C 116.96591,179.36312 116.42695,184.25287 112.94453,186.15474 C 108.99405,187.78602 104.93324,185.47932 101.02978,184.8076 C 93.321541,181.96179 85.488418,179.40564 78.114878,175.63799 C 74.87403,174.74391 71.011239,173.28387 70.335052,169.25063 C 67.686838,162.80563 69.630115,153.09934 72.742239,147.86008 C 76.037912,140.82896 77.480502,134.3303 83.270442,128.76844 C 88.418265,123.92172 96.699278,123.25278 102.17882,127.86198 C 104.89315,130.53749 113.73986,135.51522 115.14867,138.84963 z"
       id="path3212"
       sodipodi:nodetypes="ccccccccccc"
       inkscape:transform-center-x="7.609102"
       inkscape:transform-center-y="-3.6302808" />
    <path
       style="fill:#ff5555;fill-opacity:0.75000000000000000;stroke:#000000;stroke-width:2.75859736999999990;stroke-miterlimit:4;stroke-dasharray:none;stroke-opacity:1"
       d="M 99.41536,144.12393 C 98.794506,148.55541 98.658305,153.12805 97.141833,157.3554 C 96.727043,159.33758 96.39906,161.49372 95.063036,163.043 C 94.58543,164.53765 92.232707,165.16922 91.553978,163.5332 C 90.90949,162.12513 90.182535,160.70455 89.964018,159.11888 C 89.769269,157.64343 89.682553,156.14766 89.693815,154.65786 C 89.77694,152.25111 91.051686,150.17654 92.063977,148.10866 C 100.17252,135.01725 104.20657,118.61586 99.41536,144.12393 z"
       id="path3214"
       sodipodi:nodetypes="cccccccc"
       inkscape:transform-center-x="5.4190788"
       inkscape:transform-center-y="-9.802022" />
    <path
       style="fill:#ff8080;fill-opacity:1;stroke:#000000;stroke-width:2.75859736999999990;stroke-miterlimit:4;stroke-dasharray:none;stroke-opacity:1"
       d="M 168.65921,83.690388 C 172.92215,82.964918 176.10883,78.544335 180.0841,76.651282 C 186.56513,72.329755 191.48483,68.697142 197.6885,63.992334 C 200.52131,61.740967 204.74619,59.79469 208.02651,62.071375 C 211.32209,64.917295 211.48743,69.835231 212.8966,73.789517 C 214.45033,82.358085 216.30083,90.897527 216.94145,99.616966 C 217.83931,103.06827 218.59048,107.37916 215.66625,110.02338 C 211.77757,115.70192 202.95419,118.75573 197.15949,118.49165 C 190.89058,120.09595 184.99379,122.09665 176.45015,118.2823 C 169.95473,115.93489 165.27145,108.59349 166.25892,101.20875 C 167.06541,97.354431 166.6667,86.664146 168.65921,83.690388 z"
       id="path3216"
       sodipodi:nodetypes="ccccccccccc"
       inkscape:transform-center-x="0.56387444"
       inkscape:transform-center-y="4.2024717" />
    <path
       style="fill:#ff5555;fill-opacity:0.75000000000000000;stroke:#000000;stroke-width:2.75859736999999990;stroke-miterlimit:4;stroke-dasharray:none;stroke-opacity:1"
       d="M 180.79539,95.636047 C 184.69054,93.994907 188.45744,91.833912 192.63546,91.125058 C 194.44631,90.518053 196.35447,89.74357 198.27593,90.20705 C 199.72386,89.90213 201.41156,91.767063 200.42769,93.21454 C 199.61111,94.516257 198.82562,95.900691 197.6523,96.896381 C 196.55623,97.814938 195.38968,98.643502 194.17896,99.378267 C 192.19058,100.50506 189.87483,100.36116 187.69579,100.45718 C 173.05032,99.489386 157.7655,103.95408 180.79539,95.636047 z"
       id="path3218"
       sodipodi:nodetypes="cccccccc"
       inkscape:transform-center-x="6.3054232"
       inkscape:transform-center-y="8.0785228" />
    <path
       style="fill:#ff8080;fill-opacity:1;stroke:#000000;stroke-width:2.75859736999999990;stroke-miterlimit:4;stroke-dasharray:none;stroke-opacity:1"
       d="M 93.430239,125.92692 C 89.557626,127.96782 85.437237,129.76806 82.161602,132.83351 C 77.162,139.01133 75.759519,147.46801 71.13066,153.92431 C 69.045375,156.97087 65.54594,160.16607 61.783829,159.02808 C 57.850084,157.35107 56.335243,152.7048 53.897942,149.37246 C 50.049451,141.67735 45.925468,134.10392 42.907718,125.97601 C 41.097695,122.96254 39.190658,119.08145 41.254901,115.63064 C 43.403384,108.97595 50.990608,103.26875 56.599651,101.68896 C 63.555631,98.727942 70.565324,90.122956 76.442908,95.341373 C 83.296212,95.53044 89.796086,101.06366 90.890117,108.43116 C 91.183022,112.36854 94.513381,122.45585 93.430239,125.92692 z"
       id="path3220"
       sodipodi:nodetypes="ccccccccccc"
       inkscape:transform-center-x="2.6124715"
       inkscape:transform-center-y="-3.9093969" />
    <path
       style="fill:#ff5555;fill-opacity:0.75000000000000000;stroke:#000000;stroke-width:2.75859736999999990;stroke-miterlimit:4;stroke-dasharray:none;stroke-opacity:1"
       d="M 78.53964,118.23915 C 75.271049,121.03861 72.2684,124.29416 68.472338,126.29234 C 66.90974,127.44479 65.300397,128.78802 63.336769,128.95272 C 62.03757,129.70182 59.910619,128.45369 60.451233,126.75971 C 60.872254,125.25789 61.240729,123.68687 62.086996,122.36463 C 62.880741,121.1405 63.766651,119.98008 64.720634,118.8953 C 66.309419,117.19012 68.561569,116.59545 70.616903,115.81477 C 84.876056,112.10903 98.247205,103.01096 78.53964,118.23915 z"
       id="path3222"
       sodipodi:nodetypes="cccccccc"
       inkscape:transform-center-x="-3.4006616"
       inkscape:transform-center-y="-9.7865282" />
    <path
       sodipodi:type="arc"
       style="fill:#c87137;fill-opacity:1;stroke:#000000;stroke-width:2.22193979999999990;stroke-miterlimit:4;stroke-dasharray:none;stroke-opacity:1"
       id="path3262"
       sodipodi:cx="145.24794"
       sodipodi:cy="104.75207"
       sodipodi:rx="36.983471"
       sodipodi:ry="39.049587"
       d="M 182.23141,104.75207 A 36.983471,39.049587 0 1 1 108.26447,104.75207 A 36.983471,39.049587 0 1 1 182.23141,104.75207 z"
       transform="matrix(1.2729713,0,0,1.2108588,-60.840544,-28.567049)" />
    <path
       style="opacity:1;fill:#ff8080;fill-opacity:1;stroke:#000000;stroke-width:2.75859736999999990;stroke-miterlimit:4;stroke-dasharray:none;stroke-opacity:1"
       d="M 91.664374,184.44455 C 89.387225,199.95999 82.102369,213.80095 79.563041,229.23283 C 77.316234,208.2935 83.300309,201.43615 91.539136,185.13087 C 91.60325,184.90759 91.647442,184.67743 91.664374,184.44455 z"
       id="path3308"
       sodipodi:nodetypes="cccc" />
    <path
       style="opacity:1;fill:#ff8080;fill-opacity:1;stroke:#000000;stroke-width:2.75859736999999990;stroke-miterlimit:4;stroke-dasharray:none;stroke-opacity:1"
       d="M 141.62645,187.9502 C 146.85086,203.29544 144.19641,219.11294 149.01051,234.48671 C 134.55213,215.93246 139.17406,207.13369 141.82344,188.63893 C 141.79189,188.4054 141.72889,188.17354 141.62645,187.9502 z"
       id="path3317"
       sodipodi:nodetypes="cccc" />
    <path
       style="opacity:1;fill:#ff8080;fill-opacity:1;stroke:#000000;stroke-width:2.75859736999999990;stroke-miterlimit:4;stroke-dasharray:none;stroke-opacity:1"
       d="M 187.50276,170.18584 C 198.00546,182.45331 203.33992,197.4934 213.57527,209.9088 C 195.31522,197.50134 194.49625,188.19799 187.94853,170.74761 C 187.82146,170.54661 187.67366,170.35652 187.50276,170.18584 z"
       id="path3319"
       sodipodi:nodetypes="cccc" />
    <path
       style="opacity:1;fill:#ffffff;fill-opacity:0.55813956;stroke:none;stroke-width:2;stroke-miterlimit:4;stroke-dasharray:none;stroke-opacity:1"
       d="M 134.50571,56.400507 C 110.74057,49.943793 82.551701,70.048053 80.930287,94.759265 C 85.212997,81.588734 110.58667,53.85576 134.50571,56.400507 z"
       id="path4398"
       sodipodi:nodetypes="ccc" />
    <path
       style="opacity:1;fill:#000000;fill-opacity:0.22674417;stroke:none;stroke-width:2;stroke-miterlimit:4;stroke-dasharray:none;stroke-opacity:1"
       d="M 113.26259,139.92558 C 137.02773,146.38229 165.21659,126.27804 166.83801,101.56683 C 168.52251,108.35199 135.94746,142.42235 113.26259,139.92558 z"
       id="path4403"
       sodipodi:nodetypes="ccc" />
    <g
       id="g4249"
       transform="matrix(1.0336225,0,0,1.0455958,-5.7025251,-4.9640109)">
      <path
         sodipodi:nodetypes="cccccccccc"
         id="path4100"
         d="M 138.3719,96.206822 C 140.94254,99.720042 143.9828,99.352302 147.62891,100.02835 C 149.65247,103.09625 148.63123,107.71179 152.59898,109.24144 C 153.25558,109.18058 154.09762,110.3529 152.97286,110.21262 C 151.62186,110.10763 150.3996,110.55937 149.09538,110.20617 C 147.89825,109.10945 147.9448,106.54991 147.23275,105.19027 C 146.80891,104.19178 146.77086,102.87246 145.74865,102.25676 C 143.65561,101.83525 141.65123,101.25278 139.6102,100.57421 C 138.70925,99.836672 138.4377,98.649502 138.09232,97.593202 C 138.04017,97.112112 138.2407,96.658182 138.3719,96.206822 z"
         style="opacity:1;fill:#806600;fill-opacity:1;stroke:#000000;stroke-width:1.30784762;stroke-miterlimit:4;stroke-dasharray:none;stroke-opacity:1" />
      <path
         id="path4088"
         d="M 139.19996,98.142442 C 137.86674,98.493242 138.08326,100.28322 137.26141,101.18071 C 136.40259,102.79124 135.54745,104.42964 134.43372,105.87752 C 133.11065,107.36904 131.30323,108.42702 129.3256,108.73153 C 126.46692,109.39306 123.51285,109.1672 120.61331,109.4742 C 119.32605,109.50383 117.90444,109.5642 116.76253,108.88708 C 115.77681,108.07567 115.87752,106.59431 116.41213,105.55998 C 116.84339,103.96586 118.0195,102.59489 119.57863,102.02274 C 121.81977,100.95912 123.95297,99.693382 126.10537,98.466262 C 128.05718,97.367482 130.24443,96.820492 132.24132,95.823238 C 133.74352,95.170431 135.45131,94.525447 137.09373,94.992352 C 138.34887,95.531306 138.74299,96.984302 139.19996,98.142442 z"
         style="opacity:1;fill:#554400;fill-opacity:1;stroke:#000000;stroke-width:1.74379683;stroke-miterlimit:4;stroke-dasharray:none;stroke-opacity:1" />
      <path
         sodipodi:nodetypes="ccccccccc"
         id="path4080"
         d="M 123.46703,103.39628 C 117.46504,104.29387 111.38343,104.20953 105.33651,104.46084 C 101.03924,105.04617 92.449222,105.35908 90.511395,109.17377 C 92.030434,110.78564 94.623852,112.09131 96.601718,112.66615 C 100.21409,113.13353 103.85882,112.63424 107.48576,112.7917 C 114.43015,112.33014 130.86237,115.57515 134.24994,106.08776 C 135.39462,104.01523 132.9067,104.50291 131.10797,104.78187 C 129.06116,104.61047 126.96834,104.71846 124.96816,104.22389 C 124.42295,104.04263 123.91105,103.76166 123.46703,103.39628 z"
         style="opacity:1;fill:#806600;fill-opacity:1;stroke:#000000;stroke-width:1.74379683;stroke-miterlimit:4;stroke-dasharray:none;stroke-opacity:1" />
      <path
         sodipodi:nodetypes="cccccccccccc"
         id="path4082"
         d="M 134.54203,89.598557 C 130.93539,89.803355 127.46423,90.839112 124.00961,91.751083 C 121.43993,92.56468 118.77602,93.376423 116.59466,94.926679 C 115.36776,95.972962 114.26567,97.150712 112.9324,98.082822 C 110.79822,100.06191 109.46026,102.69526 108.78421,105.40863 C 108.64615,106.85519 110.48546,107.28804 111.70656,107.22736 C 113.45986,107.2562 115.21434,107.24838 116.96624,107.29743 C 119.25913,107.26353 121.50077,106.5525 123.37152,105.32009 C 125.81749,103.849 125.41326,101.2073 127.93068,99.840202 C 129.60168,98.794352 133.50095,98.149722 134.02517,96.342962 C 134.54025,94.738387 135.2051,93.102737 135.12413,91.404692 C 135.06196,90.77433 134.86382,90.155818 134.54203,89.598557 z"
         style="opacity:1;fill:#6c5d53;fill-opacity:1;stroke:#000000;stroke-width:1.80006635;stroke-miterlimit:4;stroke-dasharray:none;stroke-opacity:1" />
      <path
         sodipodi:nodetypes="cccccc"
         id="path4086"
         d="M 150.98346,86.077834 C 153.18253,94.637738 152.05695,101.97985 143.48299,93.435787 C 142.67573,92.742788 142.29351,91.70958 142.08827,90.694471 C 141.49624,88.648707 141.50934,86.454503 141.97388,84.385915 C 142.17751,83.59007 142.58986,82.803723 143.34951,82.415815 C 145.9605,81.16864 149.75572,83.58739 150.98346,86.077834 z"
         style="opacity:1;fill:#806600;fill-opacity:1;stroke:#000000;stroke-width:1.74379683;stroke-miterlimit:4;stroke-dasharray:none;stroke-opacity:1" />
      <path
         sodipodi:nodetypes="ccccccc"
         id="path4092"
         d="M 112.08231,85.577463 C 115.67554,91.894674 117.27099,99.874612 122.04693,106.12954 C 123.14132,107.27404 124.88124,108.22979 126.46757,107.61075 C 128.1182,106.73407 128.34978,104.37038 127.3564,102.91228 C 125.91015,99.891512 123.58768,97.425892 121.93496,94.531064 C 119.98623,92.274384 117.2728,84.293013 113.49062,83.646061 C 111.64341,83.596877 111.21545,84.104678 112.08231,85.577463 z"
         style="opacity:1;fill:#806600;fill-opacity:1;stroke:#000000;stroke-width:1.74379683;stroke-miterlimit:4;stroke-dasharray:none;stroke-opacity:1" />
      <path
         sodipodi:nodetypes="ccccc"
         id="path4084"
         d="M 141.3746,84.123905 C 134.83638,86.544174 126.5723,88.542838 123.67327,92.28363 C 134.49298,92.213903 133.86829,95.909661 137.86314,98.679532 C 140.83395,97.215722 142.0678,96.367572 142.74829,93.189002 C 141.40508,91.516749 140.17478,88.167025 141.3746,84.123905 z"
         style="opacity:1;fill:#806600;fill-opacity:1;stroke:#000000;stroke-width:1.74379683;stroke-miterlimit:4;stroke-dasharray:none;stroke-opacity:1" />
      <path
         sodipodi:nodetypes="ccccsccccc"
         id="path4094"
         d="M 112.67178,84.704734 C 111.4123,83.895144 109.5181,84.235321 109.17659,85.560845 C 106.49646,93.113711 106.85256,101.14097 105.64155,108.90138 C 105.14937,110.7679 104.91095,113.83644 103.23531,115.11094 C 101.88656,116.19179 100.28673,115.30148 98.668057,115.29355 C 97.127347,115.28285 96.198488,117.55878 98.270737,117.35372 C 100.04731,117.4763 101.82139,117.97203 103.60453,117.78023 C 108.28896,115.46007 108.16184,107.02746 108.28957,102.341 C 109.07597,96.929162 109.65568,91.824318 111.68411,87.378617 C 111.96431,86.972415 112.51147,85.173802 112.67178,84.704734 z"
         style="opacity:1;fill:#806600;fill-opacity:1;stroke:#000000;stroke-width:1.74379683;stroke-miterlimit:4;stroke-dasharray:none;stroke-opacity:1" />
      <path
         sodipodi:nodetypes="cccccccccccccccccc"
         id="path4096"
         d="M 132.57556,104.22583 C 132.02414,103.38372 130.82166,103.19758 129.95138,102.74337 C 128.72809,102.19279 127.49312,101.67087 126.18485,101.35393 C 124.88048,101.06774 123.65301,100.91369 122.28875,100.89577 C 120.95676,101.11233 120.83025,101.88921 120.18542,102.85703 C 119.649,104.27241 119.96367,105.81673 119.87881,107.29345 C 119.84988,110.03922 120.04672,112.82125 119.40995,115.51871 C 119.46025,116.79217 118.00396,116.97357 117.14316,117.4456 C 115.85807,117.83728 114.2992,118.05177 113.10232,117.30914 C 112.61697,116.59665 114.35449,116.95377 114.75858,116.61492 C 116.27467,116.28669 117.64614,114.97935 117.58892,113.35109 C 117.67608,110.95632 117.76065,108.55096 117.44788,106.16839 C 117.28575,104.25452 117.5167,102.28082 118.20736,100.48799 C 118.9755,99.031052 120.65141,98.213332 122.27028,98.363212 C 123.85378,98.399242 125.49152,98.372982 126.95037,99.092562 C 128.66598,99.898522 130.35023,100.77449 132.12917,101.43946 C 132.83958,101.7987 134.43176,102.12005 133.86519,103.2241 C 133.5658,103.69212 133.07883,104.01299 132.57556,104.22583 z"
         style="opacity:1;fill:#806600;fill-opacity:1;stroke:#000000;stroke-width:1.74379683;stroke-miterlimit:4;stroke-dasharray:none;stroke-opacity:1" />
      <path
         sodipodi:nodetypes="ccccc"
         id="path4136"
         d="M 146.17405,90.666331 C 147.13435,92.848049 148.25962,92.2477 149.3783,90.523397 C 149.65752,89.828683 149.46755,89.055118 149.21505,88.383011 C 149.03649,87.979587 148.74545,87.612668 148.35136,87.404091 C 146.3478,86.319793 146.31834,88.909061 146.17405,90.666331 z"
         style="opacity:1;fill:#c8ab37;fill-opacity:1;stroke:#000000;stroke-width:1.30784762;stroke-miterlimit:4;stroke-dasharray:none;stroke-opacity:1" />
      <path
         sodipodi:nodetypes="cccccc"
         id="path4158"
         d="M 94.166133,108.57929 C 94.300652,108.96671 94.832509,108.54863 95.134577,108.66954 C 97.672237,108.26257 100.23116,108.13892 102.79307,107.87763 C 103.3917,107.72147 103.93981,107.40136 104.5551,107.3043 C 104.9769,107.02224 104.51437,106.50514 104.18083,106.3841 C 100.59814,105.84571 97.280268,106.86618 94.166133,108.57929 z"
         style="opacity:1;fill:#ffffff;fill-opacity:0.42441861;stroke:none;stroke-width:1.5;stroke-miterlimit:4;stroke-dasharray:none;stroke-opacity:1" />
      <path
         id="path4165"
         d="M 137.95788,87.219995 C 136.88434,87.415387 136.08896,88.285356 135.0262,88.513837 C 134.12477,88.825707 133.27595,89.269366 132.38384,89.604696 C 132.03738,89.769176 131.71276,89.987806 131.45169,90.270893 C 131.04035,90.344777 131.04771,91.082915 131.53738,90.873102 C 132.27912,90.830477 133.05971,90.853787 133.73704,90.498438 C 134.46275,90.205081 135.22167,90.005029 135.95305,89.726463 C 136.92114,89.394668 137.92164,89.141607 138.85079,88.706933 C 139.26687,88.437936 139.54618,87.927822 139.46837,87.427072 C 139.26519,86.987089 138.69037,87.069353 138.30135,87.146925 C 138.1866,87.170023 138.07255,87.196516 137.95788,87.219995 z"
         style="opacity:1;fill:#ffffff;fill-opacity:0.42441861;stroke:none;stroke-width:1.5;stroke-miterlimit:4;stroke-dasharray:none;stroke-opacity:1" />
      <path
         sodipodi:nodetypes="ccccsccc"
         id="path4176"
         d="M 143.39553,85.54259 C 143.34859,85.849114 143.32138,86.162304 143.3625,86.471149 C 143.44823,86.706166 143.75888,86.689832 143.94461,86.594206 C 145.14515,85.904058 146.5559,85.769834 147.8848,85.577744 C 148.05767,85.414831 147.98132,85.161046 147.95145,84.957117 C 147.93346,84.66052 147.69842,84.429564 147.43831,84.31808 C 147.07839,84.124538 146.69015,83.973165 146.28989,83.894035 C 144.82602,83.958259 143.91915,84.257768 143.39553,85.54259 z"
         style="opacity:1;fill:#ffffff;fill-opacity:0.42441861;stroke:none;stroke-width:1.5;stroke-miterlimit:4;stroke-dasharray:none;stroke-opacity:1" />
      <path
         id="path4183"
         d="M 148.30849,82.519191 C 148.22789,82.499005 149.68857,79.112596 149.68857,78.509683 C 149.68857,76.645325 150.33236,75.282648 149.82658,73.255845 C 149.75601,72.973073 149.64257,72.702809 149.55056,72.426292 C 149.26756,71.575719 148.5814,71.039554 148.17048,70.490667 C 148.10877,70.408226 148.07848,70.306322 148.03248,70.214149"
         style="opacity:1;fill:none;fill-opacity:0.42441861;stroke:#000000;stroke-width:1.30784762;stroke-miterlimit:4;stroke-dasharray:none;stroke-opacity:1" />
      <path
         id="path4185"
         d="M 148.99853,84.040038 C 148.48289,83.351268 150.68474,83.668497 151.48268,83.348744 C 152.90861,82.777336 153.77147,81.001918 154.51885,79.754013 C 155.23258,78.56232 155.62292,77.250475 155.62292,75.882764 C 155.62292,75.56016 155.62292,75.237556 155.62292,74.914952"
         style="opacity:1;fill:none;fill-opacity:0.42441861;stroke:#000000;stroke-width:1.30784762;stroke-miterlimit:4;stroke-dasharray:none;stroke-opacity:1" />
      <path
         sodipodi:nodetypes="ccccc"
         id="path4193"
         d="M 131.6095,106.99101 C 130.65643,109.00166 128.74071,110.53902 126.54547,110.95042 C 125.3969,111.2243 122.35027,111.30895 121.22772,111.69625 C 124.77044,110.72158 129.36631,109.00719 131.6095,106.99101 L 131.6095,106.99101 z"
         style="opacity:1;fill:#000000;fill-opacity:0.42441861;stroke:none;stroke-width:1.5;stroke-miterlimit:4;stroke-dasharray:none;stroke-opacity:1" />
      <path
         id="path4203"
         d="M 115.46255,111.27704 C 114.38611,111.6775 113.2799,111.08485 112.18024,111.21845 C 111.47507,111.22934 110.74738,111.3934 110.0548,111.24639 C 109.39167,110.73435 110.27588,110.21393 110.81579,110.35314 C 111.83952,110.1608 112.88183,110.04446 113.92191,110.15782 C 114.67744,110.19851 115.43041,110.27814 116.18639,110.31142 C 116.29067,110.79681 115.73088,110.99435 115.46255,111.27704 z"
         style="opacity:1;fill:#000000;fill-opacity:0.42441861;stroke:none;stroke-width:1.5;stroke-miterlimit:4;stroke-dasharray:none;stroke-opacity:1" />
      <path
         id="path4213"
         d="M 103.31783,111.4153 C 101.97498,111.63976 100.608,111.51463 99.253677,111.55578 C 98.737307,111.55551 98.220887,111.55059 97.704757,111.53403 C 97.137978,111.18528 98.029613,110.71057 98.340457,110.53986 C 99.046657,110.3891 99.767837,110.61345 100.48256,110.58498 C 101.35941,110.57158 102.23471,110.62077 103.10175,110.75541 C 103.54394,110.50442 103.77068,110.97221 103.41106,111.25081 L 103.36379,111.33268 L 103.31783,111.4153 L 103.31783,111.4153 z"
         style="opacity:1;fill:#000000;fill-opacity:0.42441861;stroke:none;stroke-width:1.5;stroke-miterlimit:4;stroke-dasharray:none;stroke-opacity:1" />
      <path
         sodipodi:nodetypes="cccc"
         id="path4231"
         d="M 115.95622,98.420832 C 116.27087,99.154472 115.34222,99.791182 115.04898,100.39033 C 112.02956,102.67272 109.20305,106.43241 112.07491,101.66525 C 113.24531,99.281082 114.05343,99.488412 115.95622,98.420832 z"
         style="opacity:1;fill:#ffffff;fill-opacity:0.42441861;stroke:none;stroke-width:1.5;stroke-miterlimit:4;stroke-dasharray:none;stroke-opacity:1" />
      <path
         id="path4240"
         d="M 129.12536,94.685973 C 127.96495,94.325944 126.72237,94.496068 125.5503,94.189375 C 125.02519,94.161417 124.47403,94.044366 123.9648,94.128162 C 123.59534,94.604388 124.54717,94.833632 124.9143,94.872469 C 125.50951,94.910868 126.10944,94.886925 126.69616,95.013999 C 127.27892,95.075624 127.86846,95.018462 128.44954,95.101953 C 128.71916,95.045295 128.8863,94.802273 129.12536,94.685973 z"
         style="opacity:1;fill:#ffffff;fill-opacity:0.42441861;stroke:none;stroke-width:1.5;stroke-miterlimit:4;stroke-dasharray:none;stroke-opacity:1" />
      <path
         id="path4247"
         d="M 140.56396,93.482174 C 140.78577,93.848467 140.20044,95.18815 139.78326,96.024032 C 139.13572,97.321462 138.59438,96.703912 138.22188,96.610612 C 137.36687,96.396472 138.9575,94.775679 139.19775,94.655339 C 139.9368,94.285137 139.73357,94.314068 140.56396,93.482174 z"
         style="opacity:1;fill:#000000;fill-opacity:0.42441861;stroke:none;stroke-width:1.5;stroke-miterlimit:4;stroke-dasharray:none;stroke-opacity:1" />
    </g>
  </g>
</svg>
