<?xml version="1.0" encoding="UTF-8" standalone="no"?>
<!-- Created with Inkscape (http://www.inkscape.org/) -->
<svg
   xmlns:dc="http://purl.org/dc/elements/1.1/"
   xmlns:cc="http://creativecommons.org/ns#"
   xmlns:rdf="http://www.w3.org/1999/02/22-rdf-syntax-ns#"
   xmlns:svg="http://www.w3.org/2000/svg"
   xmlns="http://www.w3.org/2000/svg"
   xmlns:sodipodi="http://sodipodi.sourceforge.net/DTD/sodipodi-0.dtd"
   xmlns:inkscape="http://www.inkscape.org/namespaces/inkscape"
   width="250"
   height="250"
   id="svg2"
   sodipodi:version="0.32"
   inkscape:version="0.46"
   sodipodi:docname="mantis.svg"
   inkscape:output_extension="org.inkscape.output.svg.inkscape"
   inkscape:export-filename="P:\pidgey2\data\images\mantis.png"
   inkscape:export-xdpi="92.160004"
   inkscape:export-ydpi="92.160004"
   version="1.0">
  <defs
     id="defs4">
    <inkscape:perspective
       sodipodi:type="inkscape:persp3d"
       inkscape:vp_x="0 : 125 : 1"
       inkscape:vp_y="0 : 1000 : 0"
       inkscape:vp_z="250 : 125 : 1"
       inkscape:persp3d-origin="125 : 83.333333 : 1"
       id="perspective3645" />
  </defs>
  <sodipodi:namedview
     id="base"
     pagecolor="#cb90ff"
     bordercolor="#666666"
     borderopacity="1.0"
     gridtolerance="10000"
     guidetolerance="10"
     objecttolerance="10"
     inkscape:pageopacity="0"
     inkscape:pageshadow="2"
     inkscape:zoom="1.6900001"
     inkscape:cx="76.969567"
     inkscape:cy="126.22462"
     inkscape:document-units="px"
     inkscape:current-layer="layer1"
     showgrid="false"
     inkscape:window-width="1680"
     inkscape:window-height="994"
     inkscape:window-x="0"
     inkscape:window-y="22"
     showguides="true"
     inkscape:guide-bbox="true" />
  <metadata
     id="metadata7">
    <rdf:RDF>
      <cc:Work
         rdf:about="">
        <dc:format>image/svg+xml</dc:format>
        <dc:type
           rdf:resource="http://purl.org/dc/dcmitype/StillImage" />
      </cc:Work>
    </rdf:RDF>
  </metadata>
  <g
     inkscape:label="Layer 1"
     inkscape:groupmode="layer"
     id="layer1">
    <path
       style="opacity:1;fill:#37c837;fill-opacity:1;stroke:#000000;stroke-width:2.5;stroke-miterlimit:4;stroke-dasharray:none;stroke-opacity:1"
       d="M 64.709806,131.28481 C 73.379741,140.00196 83.811772,148.52069 88.753646,160.1236 C 88.648381,162.26635 84.526087,161.02189 82.774896,161.66301 C 66.691638,159.96026 51.80516,164.23694 35.947841,167.13179 C 29.719664,170.79784 36.413606,177.72867 33.245614,182.00855 C 31.966239,178.92198 26.435545,167.76644 29.661509,164.86513 C 37.060765,161.30864 65.938312,156.2532 79.474101,152.70728 C 78.686488,145.64233 63.14047,140.71894 60.183897,134.53713 C 58.813612,132.77301 55.948217,128.86378 60.169861,128.74937 C 62.813296,127.61316 63.422386,129.42599 64.709806,131.28481 z"
       id="path3529"
       sodipodi:nodetypes="cccccccccc" />
    <path
       style="opacity:1;fill:#37c837;fill-opacity:1;stroke:#000000;stroke-width:2.5;stroke-miterlimit:4;stroke-dasharray:none;stroke-opacity:1"
       d="M 92.812185,140.85862 C 101.56649,149.49102 112.0809,157.90787 117.13539,169.46216 C 117.05098,171.60584 112.91677,170.40154 111.17191,171.05966 C 95.07284,169.51343 80.63083,173.52452 64.802427,176.57347 C 58.610209,180.29994 64.969083,187.57553 61.842866,191.88601 C 60.53353,188.81204 54.894586,177.71082 58.092178,174.77826 C 65.456493,171.14997 90.809879,168.31632 104.59345,162.88095 C 100.22342,156.14342 91.334687,150.30755 88.31812,144.1548 C 86.930741,142.40409 84.027455,138.52293 88.247781,138.36746 C 90.880046,137.2056 91.506741,139.01241 92.812185,140.85862 z"
       id="path3531"
       sodipodi:nodetypes="cccccccccc" />
    <path
       style="opacity:1;fill:#37c837;fill-opacity:1;stroke:#000000;stroke-width:2.5;stroke-miterlimit:4;stroke-dasharray:none;stroke-opacity:1"
       d="M 62.943953,125.6032 C 71.613892,116.88604 82.045923,108.36733 86.987788,96.764404 C 86.882522,94.621657 82.760229,95.866107 81.009047,95.224992 C 64.925779,95.463327 50.248507,92.232666 34.391188,89.337818 C 28.163016,85.671763 34.647752,79.159336 31.479758,74.879446 C 30.200384,77.966019 24.66969,89.121559 27.895655,92.022878 C 35.294913,95.579353 65.450176,97.44049 75.791657,103.54186 C 75.004044,110.6068 61.37462,116.16907 58.418041,122.35088 C 57.047756,124.115 54.182362,128.02423 58.404005,128.13864 C 61.047445,129.27484 61.656534,127.46201 62.943953,125.6032 z"
       id="path3527"
       sodipodi:nodetypes="cccccccccc" />
    <path
       style="opacity:1;fill:#37c837;fill-opacity:1;stroke:#000000;stroke-width:2.5;stroke-miterlimit:4;stroke-dasharray:none;stroke-opacity:1"
       d="M 92.32405,117.94598 C 101.07836,109.31357 111.59277,100.89673 116.64727,89.342426 C 116.56285,87.198756 112.42865,88.403048 110.68377,87.74493 C 94.584715,89.291163 79.724298,84.861669 63.895889,81.812714 C 57.703672,78.086251 64.480951,71.229076 61.354738,66.918571 C 60.0454,69.992555 54.406457,81.09377 57.604048,84.026331 C 64.968367,87.65461 93.835499,91.446576 104.42476,94.645915 C 103.56846,101.70287 90.846561,108.49704 87.829994,114.64979 C 86.442606,116.4005 83.539329,120.28166 87.759655,120.43714 C 90.39192,121.599 91.018615,119.79218 92.32405,117.94598 z"
       id="path3518"
       sodipodi:nodetypes="cccccccccc" />
    <path
       style="opacity:1;fill:#37c837;fill-opacity:1;stroke:#000000;stroke-width:2.5;stroke-miterlimit:4;stroke-dasharray:none;stroke-opacity:1"
       d="M 153.89511,145.60388 C 152.54245,149.76096 150.63948,156.32209 148.50766,163.38395 C 171.84022,174.78506 195.38793,168.31672 220.51342,169.83072 C 219.8541,173.8576 216.93473,174.9753 214.27994,177.67636 C 212.06675,179.23049 209.75021,180.70004 207.18923,181.61094 C 210.59275,180.27053 215.42355,171.63335 210.56316,173.66946 C 190.87772,176.65178 161.68409,178.78882 142.48227,171.0525 C 139.02936,168.76099 139.98384,163.95252 141.32392,160.70227 C 145.82079,154.11799 158.92219,126.8279 158.82676,130.88991 C 159.8167,130.93696 154.50795,145.04071 153.89511,145.60388 z"
       id="path3516"
       sodipodi:nodetypes="cccccccccc" />
    <path
       style="opacity:1;fill:#37c837;fill-opacity:1;stroke:#000000;stroke-width:2.5;stroke-miterlimit:4;stroke-dasharray:none;stroke-opacity:1"
       d="M 148.96791,89.175925 C 170.5959,80.656181 191.4304,85.896294 213.04243,84.022203 C 216.81449,84.254642 209.39082,89.285629 209.51763,91.944528 C 209.40784,93.164303 209.07113,98.604899 210.50115,95.008757 C 211.85666,91.346908 218.57203,88.169198 220.27017,84.643574 C 218.53528,79.220328 211.67866,79.683348 206.09239,79.126149 C 188.52512,77.04507 170.58928,75.979339 153.06177,78.965572 C 148.86761,79.795495 144.59176,80.708136 140.71501,82.528036 C 137.35728,85.323383 138.72896,90.299634 140.3275,93.675857 C 142.34877,97.292425 160.0641,123.20002 158.82787,127.77378 L 158.6681,120.69607 C 155.92479,108.86395 151.55151,94.403908 148.96791,89.175925 z"
       id="path3511"
       sodipodi:nodetypes="cccccccccccc" />
    <path
       style="opacity:1;fill:#37c837;fill-opacity:1;stroke:#000000;stroke-width:2.5;stroke-miterlimit:4;stroke-dasharray:none;stroke-opacity:1"
       d="M 106.28093,128.03846 C 69.258526,106.10503 32.791015,95.27897 4.0999011,130.21316 C 23.722413,171.07544 88.171058,151.22715 106.28093,128.03846 z"
       id="path3493"
       sodipodi:nodetypes="ccc" />
    <path
       style="opacity:1;fill:#37c837;fill-opacity:1;stroke:#000000;stroke-width:2.5;stroke-miterlimit:4;stroke-dasharray:none;stroke-opacity:1"
       d="M 96.698003,122.28871 C 95.736167,126.56284 94.241077,136.10425 99.627382,136.68397 C 116.12116,145.25453 138.59938,141.8815 158.75857,134.82489 C 161.22906,130.75455 162.70117,119.7506 157.37496,120.24367 C 140.19067,114.56678 114.53424,112.42841 96.698003,122.28871 z"
       id="path3499"
       sodipodi:nodetypes="ccccc" />
    <path
       style="opacity:1;fill:#37c837;fill-opacity:1;stroke:#000000;stroke-width:2.5;stroke-miterlimit:4;stroke-dasharray:none;stroke-opacity:1"
       d="M 162.41815,110.64324 C 157.1413,116.88151 157.23196,120.5338 157.10442,128.09276 C 156.31672,136.93711 157.83073,144.67053 166.95411,148.07448 C 170.82897,148.54623 174.34661,146.19394 177.08915,143.71824 C 181.79319,136.45737 182.32148,125.44508 179.65832,117.28196 C 178.53461,113.7277 176.8966,110.07123 173.67768,107.94183 C 170.27931,105.6105 165.09481,108.20935 162.41815,110.64324 z"
       id="path3504"
       sodipodi:nodetypes="ccccccc" />
    <path
       style="opacity:1;fill:#99ff55;fill-opacity:1;stroke:#000000;stroke-width:2.5;stroke-miterlimit:4;stroke-dasharray:none;stroke-opacity:1"
       d="M 163.00741,110.46974 C 163.76742,109.6924 165.20962,108.70122 166.52116,107.91429 C 167.20323,107.50506 168.14682,107.14851 168.91689,106.956 C 169.18027,106.89015 169.44928,106.84953 169.71548,106.79629 C 171.10556,106.51826 172.41979,106.47684 173.86809,106.47684 C 174.50282,106.47684 175.40044,107.02716 175.9444,107.43514 C 176.58172,107.91314 177.21752,109.0139 177.38183,109.67116 C 177.54501,110.3239 178.17937,111.10652 178.49984,111.74746 C 178.95131,112.65041 179.10489,113.41982 179.45813,114.30292 C 179.87366,115.34172 179.98889,116.2662 180.2567,117.33751 C 180.43943,118.06835 180.57614,118.9659 180.57614,119.73325 C 180.57614,120.15916 180.57614,120.58507 180.57614,121.01097 C 180.57614,121.79704 179.80967,119.63774 179.45813,118.93468 C 179.05571,118.12982 178.4539,117.61101 177.86098,117.01808 C 177.11894,116.27605 176.17787,115.8571 175.30553,115.42092 C 174.42971,114.98302 173.52782,114.697 172.59036,114.46264 C 171.86449,114.28116 171.1286,114.01734 170.35434,113.82377 C 169.73088,113.6679 168.73044,113.4111 168.27804,113.18491 C 167.49855,112.79516 166.796,112.76331 166.04202,112.38633 C 165.34086,112.03576 164.79856,111.68473 164.28515,111.42803 C 163.79541,111.18317 163.60435,110.91744 163.00741,110.46974 z"
       id="path3542" />
    <path
       style="opacity:1;fill:#99ff55;fill-opacity:1;stroke:#000000;stroke-width:2.5;stroke-miterlimit:4;stroke-dasharray:none;stroke-opacity:1"
       d="M 162.66058,145.77194 C 163.42058,146.54928 164.8628,147.54047 166.17433,148.32739 C 166.85639,148.73662 167.79998,149.09316 168.57007,149.28569 C 168.83342,149.35153 169.10245,149.39216 169.36864,149.4454 C 170.75873,149.72341 172.07294,149.76482 173.52125,149.76482 C 174.15599,149.76482 175.05359,149.2145 175.59755,148.80654 C 176.23488,148.32854 176.87068,147.22778 177.035,146.57051 C 177.19818,145.91777 177.83253,145.13516 178.153,144.49421 C 178.60448,143.59126 178.75806,142.82186 179.11129,141.93876 C 179.52682,140.89995 179.64205,139.97546 179.90987,138.90416 C 180.09258,138.17333 180.2293,137.27577 180.2293,136.50843 C 180.2293,136.08251 180.2293,135.65662 180.2293,135.2307 C 180.2293,134.44464 179.46283,136.60393 179.11129,137.30701 C 178.70887,138.11185 178.10706,138.63067 177.51414,139.22359 C 176.7721,139.96563 175.83104,140.38457 174.9587,140.82075 C 174.08288,141.25866 173.18099,141.54468 172.24352,141.77904 C 171.51765,141.96051 170.78176,142.22434 170.00751,142.41791 C 169.38405,142.57377 168.3836,142.83056 167.9312,143.05677 C 167.15172,143.44651 166.44915,143.47836 165.69518,143.85534 C 164.99402,144.20592 164.45171,144.55693 163.93831,144.81364 C 163.44857,145.05851 163.25751,145.32424 162.66058,145.77194 z"
       id="path3544" />
    <path
       style="opacity:1;fill:#ffffff;fill-opacity:0.25000000000000000;stroke:none;stroke-width:2.5;stroke-miterlimit:4;stroke-dasharray:none;stroke-opacity:1"
       d="M 78.373231,117.81613 C 51.422503,107.0365 29.708739,110.38389 8.3059879,128.96596 C 22.136228,133.4065 59.879779,124.02681 74.594636,123.56566 C 80.117209,123.42863 85.62982,124.07518 91.155504,123.7991 C 95.782317,122.59622 79.039757,117.91228 78.373231,117.81613 z"
       id="path3546"
       sodipodi:nodetypes="ccccc" />
    <path
       style="opacity:1;fill:#ffffff;fill-opacity:0.25000000000000000;stroke:none;stroke-width:2.5;stroke-miterlimit:4;stroke-dasharray:none;stroke-opacity:1"
       d="M 154.19565,121.64984 C 152.16906,121.09659 150.02248,121.17004 147.97995,120.66213 C 139.53482,118.40835 131.33817,117.69291 122.70069,118.1053 C 119.15564,117.99509 115.06658,118.98791 111.61769,120.03845 C 109.38705,120.6259 107.14519,121.18665 104.9022,121.70507 C 103.0248,122.6377 100.98373,123.15081 99.023292,123.8564 C 100.16933,124.68512 103.0343,123.9305 104.78938,124.07053 C 120.96905,120.02549 137.85675,124.30419 153.87861,123.13412 C 155.03415,122.98275 155.9004,121.95299 154.19565,121.64984 z"
       id="path3550"
       sodipodi:nodetypes="ccccccccc" />
    <path
       style="opacity:1;fill:#000000;fill-opacity:0.25000000000000000;stroke:none;stroke-width:2.5;stroke-miterlimit:4;stroke-dasharray:none;stroke-opacity:1"
       d="M 89.031653,137.78112 C 82.748081,142.8955 74.6563,144.71293 67.162692,147.28899 C 51.049294,151.67724 34.876115,151.93386 20.245351,144.40616 C 17.223747,143.16034 14.561158,142.02402 13.146721,139.19771 C 13.860289,135.89279 17.781828,138.13503 19.669964,139.14107 C 22.944021,140.69035 26.470632,141.57742 30.060035,141.9696 C 34.395871,142.90855 38.790652,143.97442 43.261109,143.4444 C 47.570947,143.25935 51.681584,141.8249 55.527498,139.95679 C 61.40192,137.72997 67.400304,135.31605 73.786688,135.32534 C 78.238709,135.33929 82.808743,135.11308 87.099895,136.51091 C 87.631964,136.64011 88.168863,136.7527 88.712212,136.82283"
       id="path3553"
       sodipodi:nodetypes="ccccccccccc" />
    <path
       style="opacity:1;fill:#000000;fill-opacity:0.25000000000000000;stroke:none;stroke-width:2.5;stroke-miterlimit:4;stroke-dasharray:none;stroke-opacity:1"
       d="M 153.07764,132.98965 C 145.00671,136.78758 137.42121,139.33725 128.22693,139.22547 C 118.02396,140.3234 110.36198,137.41406 101.12044,135.34897 C 99.037706,135.04274 98.841514,132.68144 101.19364,132.98539 C 110.84049,133.1335 120.28547,135.20733 129.97694,134.86478 C 134.71097,134.6859 139.37905,133.74793 143.95075,132.56568 C 146.6683,132.25504 149.41544,131.56358 152.14912,131.81931 C 152.62785,132.01139 153.08928,132.435 153.07764,132.98965 z"
       id="path3561"
       sodipodi:nodetypes="cccccccc" />
    <path
       style="opacity:1;fill:#000000;fill-opacity:0.25000000000000000;stroke:none;stroke-width:2.5;stroke-miterlimit:4;stroke-dasharray:none;stroke-opacity:1"
       d="M 145.8938,169.54161 C 161.39797,173.08931 177.4306,173.31084 193.29393,173.5435 C 178.31443,175.5816 159.61854,177.53582 145.8938,169.54161 z"
       id="path3573"
       sodipodi:nodetypes="ccc" />
    <path
       style="opacity:1;fill:#37c837;fill-opacity:1;stroke:#000000;stroke-width:2.5;stroke-miterlimit:4;stroke-dasharray:none;stroke-opacity:1"
       d="M 179.68521,119.98449 C 201.89589,114.96668 224.73832,116.02489 247.28225,114.26149 C 246.93174,116.27038 244.1974,115.83847 242.39853,116.42603 C 220.08608,117.78364 202.71708,119.88885 180.56164,123.76751 C 178.00504,124.61522 176.40133,119.77504 179.68521,119.98449 z"
       id="path3591"
       sodipodi:nodetypes="ccccc" />
    <path
       style="opacity:1;fill:#37c837;fill-opacity:1;stroke:#000000;stroke-width:2.5;stroke-miterlimit:4;stroke-dasharray:none;stroke-opacity:1"
       d="M 179.62465,135.22333 C 201.83532,140.24116 224.67775,139.18294 247.2217,140.94635 C 246.87118,138.93744 243.09082,139.16016 241.29193,138.5726 C 218.97949,137.21498 202.02891,134.90059 180.50108,131.44034 C 177.94447,130.59262 176.34075,135.43279 179.62465,135.22333 z"
       id="path3581"
       sodipodi:nodetypes="ccccc" />
    <path
       style="opacity:1;fill:#000000;fill-opacity:0.26162792000000001;stroke:none;stroke-width:2.5;stroke-miterlimit:4;stroke-dasharray:none;stroke-opacity:1"
       d="M 114.08028,166.94926 C 106.4276,168.30536 98.52568,168.18519 91.91217,169.22867 C 93.045503,169.71082 94.303342,169.02387 95.498337,169.24464 C 98.145212,169.51151 100.81342,169.46485 103.45804,169.76489 C 106.24548,169.97401 109.04614,169.85735 111.8347,169.89729 C 112.6272,169.97902 113.96119,170.75818 114.30207,169.60471 C 114.4306,168.71532 114.03658,167.84147 114.08028,166.94926 z"
       id="path3593"
       sodipodi:nodetypes="ccccccc" />
    <path
       style="opacity:1;fill:#000000;fill-opacity:0.26162792000000001;stroke:none;stroke-width:2.5;stroke-miterlimit:4;stroke-dasharray:none;stroke-opacity:1"
       d="M 66.732842,159.23092 C 67.866176,159.71306 69.124013,159.02611 70.31901,159.24687 C 72.965886,159.51376 75.634098,159.46709 78.278721,159.76714 C 81.066159,159.97626 80.704607,160.53722 83.493171,160.57714 C 95.08453,155.32183 67.830477,159.05466 66.732842,159.23092 z"
       id="path3599"
       sodipodi:nodetypes="ccccc" />
    <path
       style="opacity:1;fill:#ffffff;fill-opacity:0.35465118000000001;stroke:none;stroke-width:2.5;stroke-miterlimit:4;stroke-dasharray:none;stroke-opacity:1"
       d="M 144.5895,84.697301 C 160.09368,81.149592 176.1263,80.928069 191.98965,80.695404 C 177.01013,78.657312 158.31425,76.703089 144.5895,84.697301 z"
       id="path3601"
       sodipodi:nodetypes="ccc" />
    <path
       style="opacity:1;fill:#ffffff;fill-opacity:0.21511625000000001;stroke:none;stroke-width:2.5;stroke-miterlimit:4;stroke-dasharray:none;stroke-opacity:1"
       d="M 114.13943,92.178398 C 106.48678,90.82228 98.584857,90.942464 91.971334,89.898976 C 93.104668,89.41683 94.362509,90.103781 95.557514,89.883019 C 98.204389,89.616139 100.87259,89.662803 103.51722,89.362759 C 106.30466,89.153631 109.10531,89.270296 111.89388,89.230365 C 112.68636,89.148628 114.02035,88.369461 114.36125,89.522936 C 114.48978,90.412331 114.09576,91.286174 114.13943,92.178398 z"
       id="path3605"
       sodipodi:nodetypes="ccccccc" />
    <path
       style="opacity:1;fill:#ffffff;fill-opacity:0.21511625;stroke:none;stroke-width:2.5;stroke-miterlimit:4;stroke-dasharray:none;stroke-opacity:1"
       d="M 65.156835,97.342153 C 66.290169,96.860006 67.548005,97.546957 68.743013,97.326194 C 71.389887,97.059315 74.058091,97.105978 76.702723,96.805936 C 79.490162,96.596808 79.128609,96.035855 81.917164,95.995925 C 93.508528,101.25124 66.25447,97.51841 65.156835,97.342153 z"
       id="path3607"
       sodipodi:nodetypes="ccccc" />
  </g>
</svg>
