<?xml version="1.0" encoding="UTF-8" standalone="no"?>
<!-- Created with Inkscape (http://www.inkscape.org/) -->
<svg
   xmlns:dc="http://purl.org/dc/elements/1.1/"
   xmlns:cc="http://creativecommons.org/ns#"
   xmlns:rdf="http://www.w3.org/1999/02/22-rdf-syntax-ns#"
   xmlns:svg="http://www.w3.org/2000/svg"
   xmlns="http://www.w3.org/2000/svg"
   xmlns:sodipodi="http://sodipodi.sourceforge.net/DTD/sodipodi-0.dtd"
   xmlns:inkscape="http://www.inkscape.org/namespaces/inkscape"
   width="250"
   height="250"
   id="svg2"
   sodipodi:version="0.32"
   inkscape:version="0.46"
   sodipodi:docname="mantisaward1.svg"
   inkscape:output_extension="org.inkscape.output.svg.inkscape"
   inkscape:export-filename="P:\pidgey2\data\images\earwigaward1.png"
   inkscape:export-xdpi="92.160004"
   inkscape:export-ydpi="92.160004"
   version="1.0">
  <defs
     id="defs4">
    <inkscape:perspective
       sodipodi:type="inkscape:persp3d"
       inkscape:vp_x="0 : 125 : 1"
       inkscape:vp_y="0 : 1000 : 0"
       inkscape:vp_z="250 : 125 : 1"
       inkscape:persp3d-origin="125 : 83.333333 : 1"
       id="perspective3645" />
  </defs>
  <sodipodi:namedview
     id="base"
     pagecolor="#cb90ff"
     bordercolor="#666666"
     borderopacity="1.0"
     gridtolerance="10000"
     guidetolerance="10"
     objecttolerance="10"
     inkscape:pageopacity="0"
     inkscape:pageshadow="2"
     inkscape:zoom="8.926516"
     inkscape:cx="147.4412"
     inkscape:cy="147.17997"
     inkscape:document-units="px"
     inkscape:current-layer="layer1"
     showgrid="false"
     inkscape:window-width="1680"
     inkscape:window-height="994"
     inkscape:window-x="-4"
     inkscape:window-y="-4" />
  <metadata
     id="metadata7">
    <rdf:RDF>
      <cc:Work
         rdf:about="">
        <dc:format>image/svg+xml</dc:format>
        <dc:type
           rdf:resource="http://purl.org/dc/dcmitype/StillImage" />
      </cc:Work>
    </rdf:RDF>
  </metadata>
  <g
     inkscape:label="Layer 1"
     inkscape:groupmode="layer"
     id="layer1">
    <path
       style="opacity:1;fill:#ff5555;fill-opacity:1;stroke:#000000;stroke-width:2.75859736999999990;stroke-miterlimit:4;stroke-dasharray:none;stroke-opacity:1"
       d="M 110.38839,144.88708 C 111.2806,186.77071 106.84969,210.21218 97.14606,243.85283 C 106.0481,233.5837 117.00036,236.83113 126.74881,227.37672 C 139.29557,243.40721 154.58724,240.64699 157.41608,246.15629 C 153.83,235.00559 143.98267,176.51987 147.71147,143.09425 C 142.69775,144.50943 115.2209,142.9642 110.38839,144.88708 z"
       id="path3306"
       sodipodi:nodetypes="cccccc"
       inkscape:transform-center-x="4.4332338"
       inkscape:transform-center-y="7.6574057" />
    <path
       style="opacity:1;fill:#ff5555;fill-opacity:1;stroke:#000000;stroke-width:2.75859736999999990;stroke-miterlimit:4;stroke-dasharray:none;stroke-opacity:1"
       d="M 78.947599,131.80067 C 63.846975,170.87759 50.835505,190.87353 29.069241,218.29766 C 41.207358,212.18477 53.378908,217.24859 65.990077,212.21105 C 71.499003,231.80825 83.414899,237.17403 83.936405,243.34515 C 84.859611,231.66843 97.990521,173.83134 114.14899,144.33422 C 108.97375,143.73669 84.148279,131.85973 78.947599,131.80067 z"
       id="path3304"
       sodipodi:nodetypes="cccccc" />
    <path
       style="opacity:1;fill:#ff5555;fill-opacity:1;stroke:#000000;stroke-width:2.75859736999999990;stroke-miterlimit:4;stroke-dasharray:none;stroke-opacity:1"
       d="M 176.65201,130.69112 C 191.75263,169.76805 204.7641,189.76399 226.53036,217.18811 C 214.39225,211.07523 204.63882,218.9602 192.02766,213.92267 C 186.51873,233.51985 172.18471,236.06448 171.6632,242.23561 C 170.74,230.55889 157.60909,172.7218 141.45061,143.22468 C 146.62586,142.62714 171.45132,130.75019 176.65201,130.69112 z"
       id="path3274"
       sodipodi:nodetypes="cccccc" />
    <path
       style="fill:#ff8080;fill-opacity:1;stroke:#000000;stroke-width:2.75859736999999990;stroke-miterlimit:4;stroke-dasharray:none;stroke-opacity:1"
       d="M 88.052529,68.57116 C 85.663109,64.722963 83.464723,60.580742 80.203088,57.498246 C 73.836182,52.986489 65.821509,52.586815 59.24437,48.504498 C 56.153538,46.683204 52.742863,43.379847 53.312536,39.23953 C 54.359424,34.8476 58.468528,32.641075 61.241617,29.624523 C 67.874501,24.547997 74.359202,19.19468 81.500021,14.944303 C 84.058508,12.634717 87.408245,10.110411 90.870855,11.857295 C 97.312302,13.280982 103.57652,20.600289 105.76241,26.351213 C 109.20624,33.300485 113.31835,38.324452 114.19834,46.598671 C 114.90587,53.898289 110.61718,61.510999 103.933,63.621292 C 100.32325,64.439339 91.407539,69.273932 88.052529,68.57116 z"
       id="path3173"
       sodipodi:nodetypes="ccccccccccc" />
    <path
       style="fill:#ff5555;fill-opacity:0.75000000000000000;stroke:#000000;stroke-width:2.75859736999999990;stroke-miterlimit:4;stroke-dasharray:none;stroke-opacity:1"
       d="M 95.163837,51.788041 C 92.14952,48.678756 88.746927,45.910534 86.406947,42.1381 C 85.138097,40.62772 83.686489,39.0923 83.281003,37.028972 C 82.419735,35.746269 83.302027,33.327607 84.940924,33.683335 C 86.386392,33.93685 87.889199,34.125673 89.223093,34.853746 C 90.459313,35.538711 91.648404,36.329707 92.77618,37.202708 C 94.560454,38.669693 95.401417,40.983914 96.389317,43.065259 C 101.65875,57.725045 111.8091,70.747671 95.163837,51.788041 z"
       id="path3175"
       sodipodi:nodetypes="cccccccc" />
    <path
       style="fill:#ff8080;fill-opacity:1;stroke:#000000;stroke-width:2.75859736999999990;stroke-miterlimit:4;stroke-dasharray:none;stroke-opacity:1"
       d="M 115.39908,54.930827 C 115.74348,50.324832 116.40784,45.61416 115.62444,41.032744 C 113.22581,33.272832 107.15717,27.65446 104.34527,20.092945 C 102.96776,16.615867 102.1948,11.762219 105.03371,8.8849877 C 108.39303,6.1258192 112.89708,7.1109792 116.81886,6.5752703 C 124.96408,6.9749172 133.1527,7.0589326 141.22007,8.4440866 C 144.56487,8.3220207 148.65559,8.5548413 150.36829,12.219488 C 154.609,17.60154 155.30548,27.500204 153.70222,33.467029 C 152.39562,41.208272 152.72619,47.878514 148.63925,54.964372 C 144.9796,61.170049 137.21215,64.315251 130.73969,61.550225 C 127.43001,59.804212 117.63021,57.703602 115.39908,54.930827 z"
       id="path3192"
       sodipodi:nodetypes="ccccccccccc" />
    <path
       style="fill:#ff5555;fill-opacity:0.75000000000000000;stroke:#000000;stroke-width:2.75859736999999990;stroke-miterlimit:4;stroke-dasharray:none;stroke-opacity:1"
       d="M 129.10052,45.114809 C 128.527,40.676019 127.45133,36.248336 127.79083,31.734608 C 127.66582,29.707716 127.41162,27.540193 128.28455,25.650083 C 128.3484,24.071887 130.43873,22.754761 131.52144,24.119003 C 132.51115,25.274901 133.5833,26.417894 134.21123,27.872944 C 134.7873,29.229467 135.26509,30.638142 135.64732,32.070688 C 136.20252,34.404587 135.52697,36.780102 135.10142,39.06983 C 130.77665,54.079678 131.23375,71.032995 129.10052,45.114809 z"
       id="path3194"
       sodipodi:nodetypes="cccccccc" />
    <path
       style="fill:#ff8080;fill-opacity:1;stroke:#000000;stroke-width:2.75859736999999990;stroke-miterlimit:4;stroke-dasharray:none;stroke-opacity:1"
       d="M 147.85436,61.141076 C 150.31947,57.347991 150.20152,52.747398 151.68086,48.367353 C 153.26071,40.370525 153.57118,33.13409 154.70067,25.08578 C 155.14707,21.339293 156.76352,16.729704 160.56992,15.775246 C 164.7703,15.203424 168.19741,18.483414 171.83729,20.135614 C 178.68533,24.873464 185.71939,29.362055 192.03637,34.909218 C 194.98316,36.607581 198.4073,39.014775 198.16217,43.104054 C 199.29259,50.040202 195.23587,58.966601 191.04289,63.25633 C 186.27112,69.238836 183.41762,75.179089 176.55251,79.096046 C 170.47076,82.483114 162.28083,81.011161 157.99094,75.132121 C 155.95363,71.83899 148.47679,64.739509 147.85436,61.141076 z"
       id="path3196"
       sodipodi:nodetypes="ccccccccccc"
       inkscape:transform-center-x="-6.4046617"
       inkscape:transform-center-y="3.7155259" />
    <path
       style="fill:#ff5555;fill-opacity:0.75000000000000000;stroke:#000000;stroke-width:2.75859736999999990;stroke-miterlimit:4;stroke-dasharray:none;stroke-opacity:1"
       d="M 164.3096,60.050684 C 165.90312,55.907022 167.05761,51.502147 169.47508,47.78613 C 170.32095,45.967815 171.12142,43.958348 172.76498,42.796367 C 173.56284,41.467507 175.9884,41.457017 176.28165,43.219385 C 176.59264,44.751628 176.98087,46.317177 176.83857,47.912736 C 176.69779,49.395211 176.4476,50.869738 176.10361,52.313353 C 175.48485,54.62886 173.78335,56.316592 172.33819,58.06504 C 161.53856,68.698749 153.95507,83.590094 164.3096,60.050684 z"
       id="path3198"
       sodipodi:nodetypes="cccccccc"
       inkscape:transform-center-x="-2.3686475"
       inkscape:transform-center-y="10.487483" />
    <path
       style="fill:#ff8080;fill-opacity:1;stroke:#000000;stroke-width:2.75859736999999990;stroke-miterlimit:4;stroke-dasharray:none;stroke-opacity:1"
       d="M 82.757659,92.760588 C 78.456399,92.372882 74.058685,91.642224 69.775724,92.46187 C 62.516902,94.997478 57.243424,101.47058 50.168224,104.4494 C 46.914427,105.90961 42.377206,106.71697 39.701183,103.66608 C 37.1376,100.0586 38.076509,95.241203 37.592292,91.040821 C 37.9993,82.323196 38.111643,73.557829 39.438936,64.92764 C 39.338739,61.34661 39.573138,56.968542 43.003545,55.150297 C 48.048707,50.632979 57.298401,49.928335 62.865667,51.669245 C 70.091729,53.099944 76.324087,52.773651 82.926432,57.177928 C 88.708316,61.12115 91.614283,69.449021 89.004578,76.3662 C 87.359861,79.901912 85.357063,90.383686 82.757659,92.760588 z"
       id="path3200"
       sodipodi:nodetypes="ccccccccccc"
       inkscape:transform-center-x="-3.2859731"
       inkscape:transform-center-y="-5.5234569" />
    <path
       style="fill:#ff5555;fill-opacity:0.75000000000000000;stroke:#000000;stroke-width:2.75859736999999990;stroke-miterlimit:4;stroke-dasharray:none;stroke-opacity:1"
       d="M 73.644696,80.20587 C 69.495838,80.801449 65.35528,81.934624 61.140199,81.552529 C 59.246266,81.677978 57.220423,81.941127 55.458394,80.998867 C 53.984391,80.923985 52.76264,78.680892 54.04152,77.527519 C 55.125391,76.472825 56.197552,75.329856 57.559377,74.663675 C 58.82895,74.052615 60.146837,73.54697 61.486632,73.143732 C 63.669132,72.559064 65.885421,73.292042 68.022604,73.757051 C 82.02614,78.448671 97.864933,78.029453 73.644696,80.20587 z"
       id="path3202"
       sodipodi:nodetypes="cccccccc"
       inkscape:transform-center-x="-8.2123465"
       inkscape:transform-center-y="-7.8918761" />
    <path
       style="fill:#ff8080;fill-opacity:1;stroke:#000000;stroke-width:2.75859736999999990;stroke-miterlimit:4;stroke-dasharray:none;stroke-opacity:1"
       d="M 169.11667,113.36306 C 172.29695,116.4873 176.60408,118.16669 180.46006,120.32403 C 188.50655,121.24099 194.42437,122.86812 201.57377,125.46642 C 204.98197,126.44296 209.03203,128.77655 209.40451,132.94251 C 209.36989,137.47501 205.87348,140.67011 203.85535,144.30942 C 198.55012,150.93769 193.45063,157.79672 187.46752,163.75296 C 185.49971,166.65087 182.81165,169.95998 179.05912,169.15092 C 172.48658,169.41881 164.76809,163.91699 161.36005,158.89317 C 156.46272,153.02808 151.34695,149.20356 148.64275,141.39522 C 146.32388,134.48897 148.78607,125.99878 154.80425,122.23742 C 158.12622,120.51839 165.70203,113.5402 169.11667,113.36306 z"
       id="path3204"
       sodipodi:nodetypes="ccccccccccc" />
    <path
       style="fill:#ff5555;fill-opacity:0.75000000000000000;stroke:#000000;stroke-width:2.75859736999999990;stroke-miterlimit:4;stroke-dasharray:none;stroke-opacity:1"
       d="M 167.91674,130.96506 C 171.53858,133.21178 175.46115,135.02788 178.5765,138.09122 C 180.14613,139.23264 181.89881,140.35157 182.75379,142.25107 C 183.8768,143.27584 183.56085,145.85025 181.89005,145.92473 C 180.42992,146.04889 178.92856,146.25054 177.47067,145.88535 C 176.11722,145.53699 174.78587,145.0736 173.49569,144.51489 C 171.43531,143.54765 170.10142,141.51611 168.67692,139.74833 C 160.28329,126.86448 147.51657,116.82063 167.91674,130.96506 z"
       id="path3206"
       sodipodi:nodetypes="cccccccc" />
    <path
       style="fill:#ff8080;fill-opacity:1;stroke:#000000;stroke-width:2.75859736999999990;stroke-miterlimit:4;stroke-dasharray:none;stroke-opacity:1"
       d="M 147.15135,133.54237 C 147.84668,138.10277 148.25473,142.84675 150.03957,147.09435 C 154.10332,154.01427 161.25164,157.91468 165.67228,164.53612 C 167.78709,167.55924 169.62267,172.07384 167.50948,175.59475 C 164.86461,179.13436 160.2712,179.3317 156.58316,180.85654 C 148.58525,182.55518 140.6158,184.5714 132.47322,185.29324 C 129.25289,186.26864 125.22899,187.09057 122.7468,183.97117 C 117.42612,179.83191 114.53695,170.39933 114.75968,164.19515 C 114.29768,156.34413 112.48553,149.9524 114.86961,142.02543 C 117.03558,135.06253 123.87417,130.01882 130.77669,131.04536 C 134.38054,131.89275 144.36518,131.42176 147.15135,133.54237 z"
       id="path3208"
       sodipodi:nodetypes="ccccccccccc" />
    <path
       style="fill:#ff5555;fill-opacity:0.75000000000000000;stroke:#000000;stroke-width:2.75859736999999990;stroke-miterlimit:4;stroke-dasharray:none;stroke-opacity:1"
       d="M 136.04251,146.58327 C 137.59169,150.74614 139.62597,154.76959 140.30541,159.23913 C 140.87992,161.1751 141.61131,163.21452 141.1863,165.27333 C 141.47712,166.82203 139.74198,168.63639 138.38574,167.58917 C 137.16637,166.72041 135.86986,165.88529 134.93489,164.63339 C 134.07229,163.46387 133.29345,162.21853 132.60208,160.92553 C 131.54125,158.80169 131.6661,156.32213 131.5674,153.98992 C 132.4109,138.30829 128.17705,121.96472 136.04251,146.58327 z"
       id="path3210"
       sodipodi:nodetypes="cccccccc" />
    <path
       style="fill:#ff8080;fill-opacity:1;stroke:#000000;stroke-width:2.75859736999999990;stroke-miterlimit:4;stroke-dasharray:none;stroke-opacity:1"
       d="M 115.14867,138.84963 C 113.60318,143.16402 111.72311,147.48209 111.26596,152.11385 C 111.51978,160.28304 115.85919,167.50734 116.56178,175.61114 C 116.96591,179.36312 116.42695,184.25287 112.94453,186.15474 C 108.99405,187.78602 104.93324,185.47932 101.02978,184.8076 C 93.321541,181.96179 85.488418,179.40564 78.114878,175.63799 C 74.87403,174.74391 71.011239,173.28387 70.335052,169.25063 C 67.686838,162.80563 69.630115,153.09934 72.742239,147.86008 C 76.037912,140.82896 77.480502,134.3303 83.270442,128.76844 C 88.418265,123.92172 96.699278,123.25278 102.17882,127.86198 C 104.89315,130.53749 113.73986,135.51522 115.14867,138.84963 z"
       id="path3212"
       sodipodi:nodetypes="ccccccccccc"
       inkscape:transform-center-x="7.609102"
       inkscape:transform-center-y="-3.6302808" />
    <path
       style="fill:#ff5555;fill-opacity:0.75000000000000000;stroke:#000000;stroke-width:2.75859736999999990;stroke-miterlimit:4;stroke-dasharray:none;stroke-opacity:1"
       d="M 99.41536,144.12393 C 98.794506,148.55541 98.658305,153.12805 97.141833,157.3554 C 96.727043,159.33758 96.39906,161.49372 95.063036,163.043 C 94.58543,164.53765 92.232707,165.16922 91.553978,163.5332 C 90.90949,162.12513 90.182535,160.70455 89.964018,159.11888 C 89.769269,157.64343 89.682553,156.14766 89.693815,154.65786 C 89.77694,152.25111 91.051686,150.17654 92.063977,148.10866 C 100.17252,135.01725 104.20657,118.61586 99.41536,144.12393 z"
       id="path3214"
       sodipodi:nodetypes="cccccccc"
       inkscape:transform-center-x="5.4190788"
       inkscape:transform-center-y="-9.802022" />
    <path
       style="fill:#ff8080;fill-opacity:1;stroke:#000000;stroke-width:2.75859736999999990;stroke-miterlimit:4;stroke-dasharray:none;stroke-opacity:1"
       d="M 168.65921,83.690388 C 172.92215,82.964918 176.10883,78.544335 180.0841,76.651282 C 186.56513,72.329755 191.48483,68.697142 197.6885,63.992334 C 200.52131,61.740967 204.74619,59.79469 208.02651,62.071375 C 211.32209,64.917295 211.48743,69.835231 212.8966,73.789517 C 214.45033,82.358085 216.30083,90.897527 216.94145,99.616966 C 217.83931,103.06827 218.59048,107.37916 215.66625,110.02338 C 211.77757,115.70192 202.95419,118.75573 197.15949,118.49165 C 190.89058,120.09595 184.99379,122.09665 176.45015,118.2823 C 169.95473,115.93489 165.27145,108.59349 166.25892,101.20875 C 167.06541,97.354431 166.6667,86.664146 168.65921,83.690388 z"
       id="path3216"
       sodipodi:nodetypes="ccccccccccc"
       inkscape:transform-center-x="0.56387444"
       inkscape:transform-center-y="4.2024717" />
    <path
       style="fill:#ff5555;fill-opacity:0.75000000000000000;stroke:#000000;stroke-width:2.75859736999999990;stroke-miterlimit:4;stroke-dasharray:none;stroke-opacity:1"
       d="M 180.79539,95.636047 C 184.69054,93.994907 188.45744,91.833912 192.63546,91.125058 C 194.44631,90.518053 196.35447,89.74357 198.27593,90.20705 C 199.72386,89.90213 201.41156,91.767063 200.42769,93.21454 C 199.61111,94.516257 198.82562,95.900691 197.6523,96.896381 C 196.55623,97.814938 195.38968,98.643502 194.17896,99.378267 C 192.19058,100.50506 189.87483,100.36116 187.69579,100.45718 C 173.05032,99.489386 157.7655,103.95408 180.79539,95.636047 z"
       id="path3218"
       sodipodi:nodetypes="cccccccc"
       inkscape:transform-center-x="6.3054232"
       inkscape:transform-center-y="8.0785228" />
    <path
       style="fill:#ff8080;fill-opacity:1;stroke:#000000;stroke-width:2.75859736999999990;stroke-miterlimit:4;stroke-dasharray:none;stroke-opacity:1"
       d="M 93.430239,125.92692 C 89.557626,127.96782 85.437237,129.76806 82.161602,132.83351 C 77.162,139.01133 75.759519,147.46801 71.13066,153.92431 C 69.045375,156.97087 65.54594,160.16607 61.783829,159.02808 C 57.850084,157.35107 56.335243,152.7048 53.897942,149.37246 C 50.049451,141.67735 45.925468,134.10392 42.907718,125.97601 C 41.097695,122.96254 39.190658,119.08145 41.254901,115.63064 C 43.403384,108.97595 50.990608,103.26875 56.599651,101.68896 C 63.555631,98.727942 70.565324,90.122956 76.442908,95.341373 C 83.296212,95.53044 89.796086,101.06366 90.890117,108.43116 C 91.183022,112.36854 94.513381,122.45585 93.430239,125.92692 z"
       id="path3220"
       sodipodi:nodetypes="ccccccccccc"
       inkscape:transform-center-x="2.6124715"
       inkscape:transform-center-y="-3.9093969" />
    <path
       style="fill:#ff5555;fill-opacity:0.75000000000000000;stroke:#000000;stroke-width:2.75859736999999990;stroke-miterlimit:4;stroke-dasharray:none;stroke-opacity:1"
       d="M 78.53964,118.23915 C 75.271049,121.03861 72.2684,124.29416 68.472338,126.29234 C 66.90974,127.44479 65.300397,128.78802 63.336769,128.95272 C 62.03757,129.70182 59.910619,128.45369 60.451233,126.75971 C 60.872254,125.25789 61.240729,123.68687 62.086996,122.36463 C 62.880741,121.1405 63.766651,119.98008 64.720634,118.8953 C 66.309419,117.19012 68.561569,116.59545 70.616903,115.81477 C 84.876056,112.10903 98.247205,103.01096 78.53964,118.23915 z"
       id="path3222"
       sodipodi:nodetypes="cccccccc"
       inkscape:transform-center-x="-3.4006616"
       inkscape:transform-center-y="-9.7865282" />
    <path
       sodipodi:type="arc"
       style="fill:#c87137;fill-opacity:1;stroke:#000000;stroke-width:2.22193979999999990;stroke-miterlimit:4;stroke-dasharray:none;stroke-opacity:1"
       id="path3262"
       sodipodi:cx="145.24794"
       sodipodi:cy="104.75207"
       sodipodi:rx="36.983471"
       sodipodi:ry="39.049587"
       d="M 182.23141,104.75207 A 36.983471,39.049587 0 1 1 108.26447,104.75207 A 36.983471,39.049587 0 1 1 182.23141,104.75207 z"
       transform="matrix(1.2729713,0,0,1.2108588,-60.840544,-28.567049)" />
    <path
       style="opacity:1;fill:#ff8080;fill-opacity:1;stroke:#000000;stroke-width:2.75859736999999990;stroke-miterlimit:4;stroke-dasharray:none;stroke-opacity:1"
       d="M 91.664374,184.44455 C 89.387225,199.95999 82.102369,213.80095 79.563041,229.23283 C 77.316234,208.2935 83.300309,201.43615 91.539136,185.13087 C 91.60325,184.90759 91.647442,184.67743 91.664374,184.44455 z"
       id="path3308"
       sodipodi:nodetypes="cccc" />
    <path
       style="opacity:1;fill:#ff8080;fill-opacity:1;stroke:#000000;stroke-width:2.75859736999999990;stroke-miterlimit:4;stroke-dasharray:none;stroke-opacity:1"
       d="M 141.62645,187.9502 C 146.85086,203.29544 144.19641,219.11294 149.01051,234.48671 C 134.55213,215.93246 139.17406,207.13369 141.82344,188.63893 C 141.79189,188.4054 141.72889,188.17354 141.62645,187.9502 z"
       id="path3317"
       sodipodi:nodetypes="cccc" />
    <path
       style="opacity:1;fill:#ff8080;fill-opacity:1;stroke:#000000;stroke-width:2.75859736999999990;stroke-miterlimit:4;stroke-dasharray:none;stroke-opacity:1"
       d="M 187.50276,170.18584 C 198.00546,182.45331 203.33992,197.4934 213.57527,209.9088 C 195.31522,197.50134 194.49625,188.19799 187.94853,170.74761 C 187.82146,170.54661 187.67366,170.35652 187.50276,170.18584 z"
       id="path3319"
       sodipodi:nodetypes="cccc" />
    <path
       style="opacity:1;fill:#ffffff;fill-opacity:0.55813956;stroke:none;stroke-width:2;stroke-miterlimit:4;stroke-dasharray:none;stroke-opacity:1"
       d="M 134.50571,56.400507 C 110.74057,49.943793 82.551701,70.048053 80.930287,94.759265 C 85.212997,81.588734 110.58667,53.85576 134.50571,56.400507 z"
       id="path4398"
       sodipodi:nodetypes="ccc" />
    <path
       style="opacity:1;fill:#000000;fill-opacity:0.22674417;stroke:none;stroke-width:2;stroke-miterlimit:4;stroke-dasharray:none;stroke-opacity:1"
       d="M 113.26259,139.92558 C 137.02773,146.38229 165.21659,126.27804 166.83801,101.56683 C 168.52251,108.35199 135.94746,142.42235 113.26259,139.92558 z"
       id="path4403"
       sodipodi:nodetypes="ccc" />
    <path
       style="opacity:1;fill:#44aa00;fill-opacity:1;stroke:#000000;stroke-width:1.31063139;stroke-miterlimit:4;stroke-dasharray:none;stroke-opacity:1"
       d="M 119.78771,97.713972 C 120.12837,100.05752 120.31383,102.43942 120.73807,104.76257 C 121.08677,106.74315 121.29526,108.78704 121.11872,110.82009 C 120.96925,112.85656 120.64202,114.86091 120.409,116.88063 C 120.19933,118.06136 119.86739,119.19936 119.69796,120.39344 C 119.70214,118.06024 119.96606,115.73149 119.80624,113.39767 C 119.69869,111.33062 119.32423,109.31332 119.09897,107.26767 C 118.89736,105.95851 118.76724,104.62987 118.82379,103.29064 C 118.87004,101.83633 118.86703,100.3241 119.3577,98.985702 C 119.49376,98.557477 119.6442,98.137751 119.78771,97.713972 z"
       id="path3244" />
    <path
       style="opacity:1;fill:#44aa00;fill-opacity:1;stroke:#000000;stroke-width:1.5;stroke-miterlimit:4;stroke-dasharray:none;stroke-opacity:1"
       d="M 112.6948,110.08418 C 111.53879,109.6161 111.33713,111.25468 110.941,111.96924 C 109.20902,115.90583 109.029,120.28983 107.6241,124.32945 C 106.99878,126.39988 106.49022,128.51089 105.68767,130.5221 C 105.53122,131.56217 106.40858,130.34863 106.51148,129.95418 C 106.872,129.10279 107.31708,128.29683 107.82542,127.52605 C 110.12388,123.17614 110.58127,117.84972 114.05153,114.21503 C 113.89872,112.73075 113.40962,111.44064 112.6948,110.08418 z"
       id="path3246"
       sodipodi:nodetypes="cccccccc" />
    <path
       style="opacity:1;fill:#44aa00;fill-opacity:1;stroke:#000000;stroke-width:2;stroke-miterlimit:4;stroke-dasharray:none;stroke-opacity:1"
       d="M 121.1471,87.75668 C 110.71588,92.302513 104.6388,99.762228 102.29129,110.21738 C 101.69869,114.42936 100.51746,118.6049 100.77746,122.88286 C 99.987542,124.94776 102.35767,125.66235 104.08369,124.97773 C 108.38758,124.42852 112.81396,122.81293 115.46499,119.4776 C 119.69573,114.53672 119.94582,107.9062 121.04082,101.93478 C 121.61997,98.381611 122.45595,94.845686 122.77033,91.2669 C 122.66945,90.017614 122.73198,88.232225 121.1471,87.75668 z"
       id="path3195"
       sodipodi:nodetypes="cccccccc" />
    <path
       style="opacity:1;fill:#44aa00;fill-opacity:1;stroke:#000000;stroke-width:1.5;stroke-miterlimit:4;stroke-dasharray:none;stroke-opacity:1"
       d="M 127.21228,76.055925 C 124.88355,82.214809 126.75575,79.157051 128.62913,85.177541 C 129.14613,85.93868 129.24667,87.910053 130.47813,87.532554 C 131.65699,86.731885 132.33998,85.419428 133.28496,84.383035 C 134.49818,82.786499 135.46642,81.030466 136.37879,79.250822 C 137.47561,76.72105 138.21611,76.958634 139.62076,79.14176 C 140.28613,79.986441 140.22411,81.099954 140.55744,82.052796 C 141.11008,81.315328 141.41774,80.197999 141.40448,79.22814 C 141.30994,77.780178 141.04507,76.287534 140.21198,75.068199 C 139.33035,74.136999 137.7507,74.416119 136.81039,75.114353 C 135.58544,76.22818 134.48259,77.4713 133.45106,78.765746 C 132.88202,79.263258 132.28618,80.184042 131.74637,80.426677 C 131.7214,79.503788 131.94703,78.612262 132.10968,77.713688 C 132.36194,75.022841 132.69466,74.727526 131.89099,72.18725 C 131.26262,70.506021 128.70676,76.797794 127.21228,76.055925 z"
       id="path3215"
       sodipodi:nodetypes="ccccccccccccccc" />
    <path
       style="opacity:1;fill:#44aa00;fill-opacity:1;stroke:#000000;stroke-width:1.90172565;stroke-miterlimit:4;stroke-dasharray:none;stroke-opacity:1"
       d="M 122.52235,77.275548 C 123.96325,75.652873 126.09547,74.650709 128.2472,73.879022 C 129.52998,73.087312 130.81178,74.446409 130.74276,75.563481 C 131.31551,77.612179 131.49783,79.716188 131.53955,81.791491 C 131.30854,85.049319 130.15917,88.246428 127.93129,90.799603 C 126.71583,92.456646 124.8306,93.761902 122.55554,94.147171 C 121.58619,94.343867 118.42932,92.908936 117.44652,93.008063 C 118.38262,82.721779 119.43861,81.017197 122.52235,77.275548 z"
       id="path3197"
       sodipodi:nodetypes="cccccccc" />
    <path
       style="opacity:1;fill:#44aa00;fill-opacity:1;stroke:#000000;stroke-width:2;stroke-miterlimit:4;stroke-dasharray:none;stroke-opacity:1"
       d="M 132.49226,67.218645 C 131.72697,67.74782 130.37837,69.057792 130.1494,70.47052 C 130.01026,71.328948 129.58985,72.52242 129.42638,73.530989 C 129.23056,74.739152 129.6844,75.51411 130.1379,76.143041 C 130.75208,76.994833 132.63252,77.940332 133.38977,78.485907 C 134.24329,79.100841 134.87198,79.430292 135.64336,79.986046 C 136.85848,80.861498 136.98656,80.438784 137.62776,78.945825 C 138.11157,77.819324 137.84782,76.38696 137.75898,75.335486 C 137.64466,73.982565 137.37557,72.734161 137.26254,71.396441 C 137.16763,70.273323 136.84754,69.061295 136.62271,68.342058 C 136.26492,67.197443 136.17735,67.134996 134.5903,66.877767 C 133.50852,66.702434 133.76823,66.93355 132.49226,67.218645 z"
       id="path3203" />
    <path
       style="opacity:1;fill:#44aa00;fill-opacity:1;stroke:#000000;stroke-width:1.5;stroke-miterlimit:4;stroke-dasharray:none;stroke-opacity:1"
       d="M 126.85906,77.198403 C 124.53033,83.357287 126.0271,89.54744 127.90048,95.567929 C 128.41749,96.329068 128.51803,98.300442 129.74949,97.922943 C 130.92834,97.122273 131.61133,95.809816 132.55631,94.773423 C 133.76953,93.176887 134.73778,91.420855 135.65015,89.64121 C 136.74696,87.111439 137.48747,87.349022 138.89211,89.532148 C 139.55749,90.376829 139.49547,91.490342 139.82879,92.443184 C 140.38143,91.705716 140.6891,90.588387 140.67584,89.618528 C 140.58129,88.170566 140.31642,86.677922 139.48333,85.458587 C 138.6017,84.527387 137.02205,84.806507 136.08174,85.504742 C 134.8568,86.618568 133.75394,87.861689 132.72241,89.156134 C 132.15337,89.653646 131.55753,90.57443 131.01773,90.817065 C 130.99275,89.894176 131.21838,89.00265 131.38103,88.104077 C 131.6333,85.413229 131.04442,82.882098 130.24075,80.341821 C 129.61238,78.660593 128.35354,77.940272 126.85906,77.198403 z"
       id="path3211"
       sodipodi:nodetypes="ccccccccccccccc" />
    <path
       style="opacity:1;fill:#44aa00;fill-opacity:1;stroke:#000000;stroke-width:1.88209331;stroke-miterlimit:4;stroke-dasharray:none;stroke-opacity:1"
       d="M 115.4754,106.16981 C 113.87253,105.91901 114.07666,107.90416 113.77346,108.85016 C 112.67621,113.94449 113.67994,119.16204 113.02793,124.29264 C 112.81433,126.89754 112.76074,129.51987 112.30493,132.1011 C 112.39829,133.36857 113.17364,131.70864 113.19367,131.21658 C 113.41308,130.11847 113.75288,129.05192 114.18309,128.01035 C 115.88506,122.28092 114.9693,115.87956 118.36376,110.68829 C 117.75188,108.97752 116.76661,107.58338 115.4754,106.16981 z"
       id="path3229"
       sodipodi:nodetypes="cccccccc" />
    <path
       style="opacity:1;fill:#44aa00;fill-opacity:1;stroke:#000000;stroke-width:1.5;stroke-miterlimit:4;stroke-dasharray:none;stroke-opacity:1"
       d="M 121.55348,98.487873 C 122.50995,100.65319 123.27503,102.90124 124.33461,105.02222 C 125.22121,106.83426 125.94127,108.74879 126.16315,110.76613 C 126.42064,112.77883 126.44212,114.81277 126.58834,116.83387 C 126.57923,118.03701 126.40322,119.23483 126.44889,120.43905 C 125.93876,118.18226 125.76405,115.85333 125.04262,113.64421 C 124.44742,111.6776 123.51951,109.83763 122.77749,107.92634 C 122.22861,106.72008 121.7675,105.47396 121.54442,104.16264 C 121.28265,102.74312 120.94464,101.2821 121.28075,99.843837 C 121.36133,99.389825 121.46232,98.939795 121.55348,98.487873 z"
       id="path3231" />
    <path
       style="opacity:1;fill:#ccff00;fill-opacity:1;stroke:#000000;stroke-width:1.5;stroke-miterlimit:4;stroke-dasharray:none;stroke-opacity:1"
       d="M 133.59805,73.821026 C 133.93738,74.335523 134.41088,74.831046 135.04946,74.925875 C 135.35941,74.999881 135.67792,75.088979 135.99786,75.06347 C 136.39887,74.942273 136.53374,74.489 136.58033,74.117692 C 136.71382,73.599649 136.76018,73.026098 136.51089,72.533882 C 136.38182,72.217525 136.20474,71.923995 136.02448,71.634779 C 133.96566,69.459448 132.18269,72.17398 133.59805,73.821026 z"
       id="path3248"
       sodipodi:nodetypes="ccccccc" />
    <path
       style="opacity:1;fill:#ffffff;fill-opacity:0.39534885;stroke:none;stroke-width:2;stroke-miterlimit:4;stroke-dasharray:none;stroke-opacity:1"
       d="M 113.91001,95.373894 C 107.4548,99.51257 105.18928,107.10715 103.53668,114.29452 C 102.82824,116.87362 102.68378,119.56428 102.66003,122.22617 C 103.61988,122.40925 103.46413,120.57309 103.99113,119.96229 C 105.04512,117.25489 105.93044,114.45229 107.49477,111.98056 C 109.92395,108.00647 112.27854,103.97047 114.18386,99.714675 C 114.69346,98.331054 114.89181,96.605906 113.91001,95.373894 z"
       id="path3260"
       sodipodi:nodetypes="ccccccc" />
    <path
       style="opacity:1;fill:#ffffff;fill-opacity:0.39534882;stroke:none;stroke-width:2;stroke-miterlimit:4;stroke-dasharray:none;stroke-opacity:1"
       d="M 122.782,80.323198 C 122.02106,81.082014 121.56683,82.075245 121.0993,83.026494 C 120.80247,83.770998 120.66816,84.571828 120.32246,85.298545 C 119.85098,86.603233 119.97218,88.01348 119.7978,89.368948 C 119.76499,89.860683 119.75314,90.35453 119.78256,90.846755 C 120.30411,90.608829 120.55764,90.053523 120.96953,89.685112 C 121.47535,89.018226 121.91013,88.292568 122.49478,87.689661 C 123.06857,86.782415 123.08269,85.663699 123.5199,84.699529 C 123.87718,83.717791 124.12486,82.675066 124.04725,81.624036 C 124.05545,81.135654 124.08794,80.63083 123.92104,80.162479 C 123.59536,79.786182 123.1084,80.141399 122.782,80.323198 z"
       id="path3275" />
    <path
       style="opacity:1;fill:#000000;fill-opacity:0.39534882;stroke:none;stroke-width:2;stroke-miterlimit:4;stroke-dasharray:none;stroke-opacity:1"
       d="M 119.29658,97.908745 C 119.6246,98.372393 119.55518,98.968588 119.60255,99.504803 C 119.64066,100.31672 119.64343,101.15269 119.35541,101.9253 C 119.1517,102.58676 118.99345,103.27184 118.63978,103.87452 C 118.40232,104.32872 118.12215,104.77264 117.98839,105.27072 C 118.01533,105.51098 117.72883,105.95445 117.63892,105.50633 C 117.3791,104.59563 117.20782,103.65218 117.23801,102.70175 C 117.26566,101.31451 117.64284,99.935955 118.33305,98.731817 C 118.44284,98.422385 118.50865,97.996499 118.92255,97.971466 C 119.04848,97.955636 119.17506,97.950916 119.29658,97.908745 z"
       id="path3281" />
    <path
       style="opacity:1;fill:#ffffff;fill-opacity:0.39534882;stroke:none;stroke-width:2;stroke-miterlimit:4;stroke-dasharray:none;stroke-opacity:1"
       d="M 127.8789,79.790245 C 128.75385,82.328913 128.11298,84.931765 128.31974,87.539473 C 128.34062,88.030289 128.33842,88.522319 128.30588,89.012585 C 128.00569,89.317212 127.85653,88.706646 127.75941,88.497865 C 127.50135,85.659432 126.6023,82.468717 127.8789,79.790245 z"
       id="path3287"
       sodipodi:nodetypes="ccccc" />
    <path
       style="opacity:1;fill:#ffffff;fill-opacity:0.39534882;stroke:none;stroke-width:2;stroke-miterlimit:4;stroke-dasharray:none;stroke-opacity:1"
       d="M 115.4943,109.47402 C 115.52728,109.4079 115.44813,109.27746 115.44237,109.41808 C 115.26955,110.21914 115.18005,111.0362 114.98916,111.83358 C 114.97409,111.97641 114.90042,112.17493 115.03624,112.27851 C 115.18481,112.35914 115.32038,112.22507 115.43863,112.1513 C 115.83112,111.8752 116.14787,111.51026 116.48105,111.16882 C 116.63668,110.99674 116.80119,110.79746 116.80953,110.55467 C 116.78965,110.30473 116.56542,110.14807 116.37746,110.01643 C 116.09409,109.81818 115.78828,109.6554 115.4943,109.47402 z"
       id="path3293" />
    <path
       style="opacity:1;fill:#ffffff;fill-opacity:0.39534882;stroke:none;stroke-width:2;stroke-miterlimit:4;stroke-dasharray:none;stroke-opacity:1"
       d="M 134.87857,68.300209 C 130.83643,67.044997 131.20994,73.800794 131.26812,74.014082 C 131.70118,73.649959 131.77622,71.845556 132.29107,71.596723 C 132.73632,70.009077 134.18732,69.634195 135.10303,69.200927 C 135.10257,69.031387 135.10147,68.861831 134.87857,68.300209 z"
       id="path3299"
       sodipodi:nodetypes="ccccc" />
    <path
       style="opacity:1;fill:#000000;fill-opacity:0.39534885;stroke:none;stroke-width:2;stroke-miterlimit:4;stroke-dasharray:none;stroke-opacity:1"
       d="M 133.98283,90.811356 C 133.43659,91.484455 133.22551,92.396654 132.51863,92.946223 C 131.89481,93.531522 131.42746,94.266894 130.72612,94.769959 C 130.39742,94.956993 129.92229,95.965905 129.68105,95.208829 C 129.52274,94.564258 130.11659,94.207696 130.61617,93.996574 C 131.43231,93.48287 132.06325,92.730625 132.71424,92.029867 C 133.06727,91.557404 133.51794,91.169616 133.98283,90.811356 z"
       id="path3305" />
    <path
       style="opacity:1;fill:#000000;fill-opacity:0.39534882;stroke:none;stroke-width:2;stroke-miterlimit:4;stroke-dasharray:none;stroke-opacity:1"
       d="M 135.99931,76.696104 C 136.22645,76.468962 135.76041,77.480284 135.43918,77.480284 C 134.78871,77.480284 133.91921,76.80813 134.87905,76.80813 C 135.3989,76.80813 135.45713,76.80454 135.99931,76.696104 z"
       id="path3311" />
  </g>
</svg>
