<?xml version="1.0" encoding="UTF-8" standalone="no"?>
<!-- Created with Inkscape (http://www.inkscape.org/) -->
<svg
   xmlns:dc="http://purl.org/dc/elements/1.1/"
   xmlns:cc="http://creativecommons.org/ns#"
   xmlns:rdf="http://www.w3.org/1999/02/22-rdf-syntax-ns#"
   xmlns:svg="http://www.w3.org/2000/svg"
   xmlns="http://www.w3.org/2000/svg"
   xmlns:sodipodi="http://sodipodi.sourceforge.net/DTD/sodipodi-0.dtd"
   xmlns:inkscape="http://www.inkscape.org/namespaces/inkscape"
   width="1400"
   height="1024"
   id="svg2"
   sodipodi:version="0.32"
   inkscape:version="0.46"
   sodipodi:docname="menuunchanged.svg"
   inkscape:output_extension="org.inkscape.output.svg.inkscape"
   inkscape:export-filename="P:\pidgey\data\images\awards.png"
   inkscape:export-xdpi="90"
   inkscape:export-ydpi="90"
   version="1.0">
  <defs
     id="defs4">
    <inkscape:perspective
       sodipodi:type="inkscape:persp3d"
       inkscape:vp_x="0 : 125 : 1"
       inkscape:vp_y="0 : 1000 : 0"
       inkscape:vp_z="250 : 125 : 1"
       inkscape:persp3d-origin="125 : 83.333333 : 1"
       id="perspective3645" />
  </defs>
  <sodipodi:namedview
     id="base"
     pagecolor="#68d4e4"
     bordercolor="#666666"
     borderopacity="1.0"
     gridtolerance="10000"
     guidetolerance="10"
     objecttolerance="10"
     inkscape:pageopacity="0"
     inkscape:pageshadow="2"
     inkscape:zoom="0.63629032"
     inkscape:cx="552.10071"
     inkscape:cy="572.0984"
     inkscape:document-units="px"
     inkscape:current-layer="layer1"
     showgrid="false"
     inkscape:window-width="1680"
     inkscape:window-height="994"
     inkscape:window-x="0"
     inkscape:window-y="22" />
  <metadata
     id="metadata7">
    <rdf:RDF>
      <cc:Work
         rdf:about="">
        <dc:format>image/svg+xml</dc:format>
        <dc:type
           rdf:resource="http://purl.org/dc/dcmitype/StillImage" />
      </cc:Work>
    </rdf:RDF>
  </metadata>
  <g
     inkscape:label="Layer 1"
     inkscape:groupmode="layer"
     id="layer1">
    <path
       style="opacity:1;fill:#008000;fill-opacity:1;stroke:#000000;stroke-width:3.15421581;stroke-miterlimit:4;stroke-dasharray:none;stroke-opacity:1"
       d="M 980.72138,1036.6903 C 978.80908,980.77775 987.90961,925.37741 985.93969,869.44557 C 984.11905,854.4286 990.40543,829.97274 981.04337,821.04918 C 968.28208,816.00473 963.20631,836.21313 963.66759,849.94307 C 961.07852,882.22699 964.33019,914.59712 963.26493,946.92991 C 963.07869,965.14061 962.31531,983.36756 961.45346,1001.5802 C 961.10028,1015.525 962.02785,1039.8234 976.23961,1038.0924 C 977.76637,1037.8543 979.26583,1037.3523 980.72138,1036.6903 z"
       id="path3965" />
    <path
       style="opacity:1;fill:#008000;fill-opacity:1;stroke:#000000;stroke-width:3.03922153;stroke-miterlimit:4;stroke-dasharray:none;stroke-opacity:1"
       d="M 419.49415,836.3314 C 421.64525,885.00652 412.70461,932.90805 414.4061,981.54414 C 414.12817,998.98466 413.67418,1016.4622 415.37599,1033.9454 C 438.90437,1045.2982 435.75732,1010.1839 437.19465,997.94847 C 439.13335,969.37021 435.12104,940.55919 437.50563,911.98486 C 434.75912,894.63564 449.70316,823.96447 419.49415,836.3314 z"
       id="path3963"
       sodipodi:nodetypes="cccccc" />
    <path
       style="opacity:1;fill:#008000;fill-opacity:1;stroke:#000000;stroke-width:5.06698656;stroke-miterlimit:4;stroke-dasharray:none;stroke-opacity:1"
       d="M 1252.8694,1038.3243 C 1245.0677,952.39254 1254.6365,866.03069 1247.5397,780.095 C 1246.3799,749.13503 1245.4914,718.08061 1241.2399,687.36662 C 1203.5056,671.06409 1211.6218,732.79635 1210.4977,754.71809 C 1210.0846,805.69036 1218.9746,856.10892 1217.8657,907.14681 C 1223.7343,937.45385 1206.8821,1065.152 1252.8694,1038.3243 z"
       id="path3959"
       sodipodi:nodetypes="cccccc" />
    <path
       style="opacity:1;fill:#008000;fill-opacity:1;stroke:#000000;stroke-width:5.08908558;stroke-miterlimit:4;stroke-dasharray:none;stroke-opacity:1"
       d="M 166.23782,684.3319 C 174.03545,771.06004 164.47166,858.22227 171.56481,944.9544 C 172.72395,976.2013 173.61203,1007.5435 177.86125,1038.5421 C 215.57595,1054.9958 207.46395,992.6914 208.58743,970.5665 C 209.00031,919.12182 200.11497,868.236 201.22328,816.7251 C 195.35772,786.13718 212.20118,657.2556 166.23782,684.3319 z"
       id="path3953"
       sodipodi:nodetypes="cccccc" />
    <path
       style="fill:#0000ff;fill-opacity:1;stroke:#000000;stroke-width:5.96449946999999980;stroke-miterlimit:4;stroke-dasharray:none;stroke-opacity:1"
       d="M 169.67754,619.75177 C 162.23313,624.43741 153.24196,627.40542 147.73736,634.46038 C 144.09434,638.93719 139.79066,642.83275 135.77033,646.96475 C 129.72251,654.93632 126.49718,664.50619 121.25441,672.95652 C 116.17275,681.24961 114.5587,690.91609 112.47,700.25811 C 110.33555,711.172 112.69419,722.49133 116.74597,732.97897 C 118.35946,738.56539 120.01741,744.1566 122.01879,749.63521 C 127.12083,751.09403 133.23313,747.38494 138.09505,745.38986 C 146.83569,740.10718 154.19587,733.05266 161.64061,726.28021 C 168.86689,718.80692 176.63585,711.44786 180.64417,701.76477 C 185.61861,693.50968 187.22746,683.94973 188.79595,674.58177 C 189.51139,666.63184 189.19214,658.56126 188.76528,650.56633 C 186.6855,639.89997 176.79376,632.90897 172.01871,623.39774 C 171.26325,622.16863 170.48271,620.95293 169.67754,619.75177 z"
       id="path3670" />
    <path
       style="fill:#0000ff;fill-opacity:1;stroke:#000000;stroke-width:5.96449946999999980;stroke-miterlimit:4;stroke-dasharray:none;stroke-opacity:1"
       d="M 216.34007,619.23296 C 221.39766,626.61625 224.68462,635.37595 232.1883,641.04545 C 236.95283,644.78646 241.12082,649.1243 245.53112,653.20538 C 254.0065,659.44744 264.10245,663.08782 273.06393,668.58902 C 281.85753,673.92734 292.02334,676.03471 301.85818,678.57636 C 313.34199,681.2537 325.16334,679.66433 336.07943,676.40931 C 341.90495,675.19575 347.73446,673.93999 353.43916,672.3497 C 354.86914,667.56303 350.86138,661.50905 348.67506,656.74947 C 342.96622,648.09345 335.42674,640.65196 328.1814,633.1462 C 320.20558,625.80802 312.33893,617.95838 302.10886,613.56362 C 293.35741,608.32995 283.30328,606.23376 273.45142,604.18734 C 265.10262,603.03864 256.64769,602.87079 248.27412,602.81031 C 237.13198,604.17164 229.99536,613.20811 220.11699,617.2109 C 218.84309,617.86029 217.58379,618.53448 216.34007,619.23296 z"
       id="path3672" />
    <path
       style="fill:#0000ff;fill-opacity:1;stroke:#000000;stroke-width:5.96449946999999980;stroke-miterlimit:4;stroke-dasharray:none;stroke-opacity:1"
       d="M 152.72774,597.24631 C 143.91779,599.02628 135.40838,603.01949 126.05108,601.87621 C 120.0105,601.25129 113.97771,601.46729 107.95173,601.33147 C 97.496411,599.92435 87.708983,595.53061 77.42613,593.256 C 67.378076,590.98104 58.617945,585.44116 49.78964,580.44172 C 39.685083,574.39612 32.337381,565.06128 26.808298,555.16139 C 23.489803,550.25308 20.198088,545.31169 17.230789,540.21736 C 19.570675,535.79835 26.6947,534.24239 31.604972,532.35028 C 41.775708,530.11048 52.403787,530.00983 62.866398,529.65918 C 73.734363,529.93507 84.883522,529.76899 95.297084,533.71554 C 105.24148,536.03615 113.91379,541.50668 122.40632,546.87253 C 129.19169,551.83889 135.36376,557.58134 141.40226,563.34413 C 148.42387,572.04476 147.18377,583.46378 151.44429,593.17965 C 151.90006,594.52794 152.32807,595.88381 152.72774,597.24631 z"
       id="path3674" />
    <path
       style="fill:#0000ff;fill-opacity:1;stroke:#000000;stroke-width:5.96449946999999980;stroke-miterlimit:4;stroke-dasharray:none;stroke-opacity:1"
       d="M 189.38637,572.60142 C 187.19788,564.11313 182.69951,555.82005 183.5563,546.93036 C 183.99077,541.18695 183.54369,535.41604 183.46582,529.66627 C 184.55912,519.73881 188.80859,510.57323 190.81787,500.84648 C 192.83601,491.344 198.32487,483.20716 203.24456,474.98279 C 209.21461,465.58292 218.73453,458.95262 228.91341,454.08276 C 233.93894,451.11702 239.00008,448.1782 244.23355,445.55562 C 248.95282,447.97388 250.84488,454.84264 253.00841,459.61097 C 255.72883,469.41801 256.22293,479.5731 256.97315,489.58052 C 257.08116,499.94907 257.66283,510.60451 253.90522,520.38671 C 251.83527,529.78824 246.41604,537.84413 241.09988,545.7326 C 236.14014,552.00712 230.34425,557.66369 224.52213,563.19185 C 215.65534,569.53697 203.6361,567.87855 193.60384,571.54447 C 192.20668,571.92378 190.80045,572.27633 189.38637,572.60142 z"
       id="path3676" />
    <path
       style="fill:#0000ff;fill-opacity:1;stroke:#000000;stroke-width:5.96449946999999980;stroke-miterlimit:4;stroke-dasharray:none;stroke-opacity:1"
       d="M 190.98755,620.52107 C 188.54722,628.54043 183.71294,636.02728 184.0296,644.7498 C 184.07895,650.51189 183.7033,656.23908 183.1223,661.93872 C 183.5406,672.21993 187.58622,682.08302 189.1595,692.25305 C 190.40052,700.06022 194.02191,707.24526 197.66156,714.32358 C 202.84517,725.83602 212.07766,735.53035 223.26459,742.08322 C 228.98545,745.94645 234.39599,750.3898 240.43492,753.72291 C 244.69338,750.78888 247.11494,745.23412 249.31588,740.56844 C 252.42518,731.36386 253.31482,721.5577 254.56247,711.93969 C 255.05403,701.99272 256.3837,691.81902 253.44985,681.95719 C 251.80182,674.84028 249.87221,667.70754 245.84194,661.3392 C 241.32624,651.49704 233.7408,643.40206 226.74173,635.08546 C 218.65159,626.78802 206.0053,627.1611 196.00121,622.40084 C 194.34377,621.73852 192.67284,621.10938 190.98755,620.52107 z"
       id="path3678" />
    <path
       style="fill:#0000ff;fill-opacity:1;stroke:#000000;stroke-width:5.96449946999999980;stroke-miterlimit:4;stroke-dasharray:none;stroke-opacity:1"
       d="M 212.66909,596.75815 C 221.98029,599.26687 231.11211,603.97576 240.95346,602.96228 C 249.20539,602.66533 257.62423,604.53704 265.66873,602.41163 C 274.38595,600.49926 282.95047,598.05249 291.77357,596.52976 C 301.13625,593.93727 309.68906,589.3401 317.97444,584.65602 C 327.05745,578.97511 333.44316,570.40073 338.58189,561.41722 C 341.66171,556.82672 344.98247,552.36084 347.46631,547.42162 C 341.16651,541.19502 332.03081,538.52861 323.44083,537.07698 C 308.63904,534.91768 293.58519,533.42298 278.75731,534.65589 C 268.51101,536.44418 258.12177,538.90414 249.31113,544.20554 C 239.36088,549.13468 231.07665,556.5405 223.16723,563.94273 C 216.47266,572.51039 217.88767,584.16372 213.57556,593.74176 C 213.25747,594.74223 212.9547,595.74768 212.66909,596.75815 z"
       id="path3680" />
    <path
       style="fill:#0000ff;fill-opacity:1;stroke:#000000;stroke-width:5.96449946999999980;stroke-miterlimit:4;stroke-dasharray:none;stroke-opacity:1"
       d="M 175.42805,573.98305 C 177.08915,565.76041 181.15849,557.84845 180.0201,549.16394 C 179.42123,543.40962 179.24742,537.6532 179.27997,531.90641 C 177.88371,521.66774 172.92801,512.16224 170.39622,502.13496 C 167.98205,492.79286 162.24838,484.68991 157.07883,476.49921 C 150.78977,466.98219 141.23479,459.82403 130.85041,454.76825 C 125.15359,451.52771 119.62704,447.81646 113.64942,445.15906 C 109.70373,448.46149 107.83103,454.22334 106.0923,459.07759 C 103.88537,468.54705 103.93844,478.42461 103.61821,488.14532 C 104.0763,498.12913 103.74344,508.41196 107.58369,518.01316 C 109.89821,524.98264 112.49369,531.94336 117.10067,537.95756 C 122.52088,547.40129 130.82047,554.83204 138.55931,562.53527 C 147.37898,570.12459 159.89228,568.65241 170.27357,572.54017 C 171.98147,573.0581 173.69958,573.54163 175.42805,573.98305 z"
       id="path3682" />
    <path
       style="fill:#0000ff;fill-opacity:1;stroke:#000000;stroke-width:5.96449946999999980;stroke-miterlimit:4;stroke-dasharray:none;stroke-opacity:1"
       d="M 160.19707,615.20271 C 156.30892,622.63705 154.50914,631.35003 148.15275,637.37624 C 144.0682,641.46796 140.31248,645.8294 136.7231,650.31346 C 129.19858,657.38528 119.37057,661.64258 111.09707,667.83393 C 104.72202,672.56387 97.07976,675.19759 89.499347,677.7423 C 77.697372,682.39151 64.273821,682.93141 51.658471,679.86668 C 44.847297,678.66608 37.850505,678.09611 31.18409,676.29546 C 30.196632,671.24175 32.366236,665.58529 34.069008,660.71833 C 38.311087,651.97134 44.565176,644.33286 50.430698,636.58071 C 57.068903,629.11736 63.266229,620.91059 72.297284,615.88331 C 78.478714,611.9299 84.87288,608.16049 92.234015,606.39498 C 102.38399,602.47866 113.50422,601.94192 124.3603,600.83993 C 135.98417,600.50817 144.77739,609.54414 155.28597,613.07235 C 156.93828,613.74728 158.57689,614.4554 160.19707,615.20271 z"
       id="path3684" />
    <path
       sodipodi:type="arc"
       style="fill:#ffcc00;fill-opacity:1;stroke:#000000;stroke-width:10;stroke-miterlimit:4;stroke-dasharray:none;stroke-opacity:1"
       id="path3686"
       sodipodi:cx="176.02028"
       sodipodi:cy="656.9328"
       sodipodi:rx="89.581749"
       sodipodi:ry="89.581749"
       d="M 265.60203,656.9328 A 89.581749,89.581749 0 1 1 86.43853,656.9328 A 89.581749,89.581749 0 1 1 265.60203,656.9328 z"
       transform="matrix(0.5700521,0.2303364,-0.2192794,0.5354677,228.52576,209.99772)" />
    <g
       id="g2503"
       transform="translate(-6.667775,-15.558142)">
      <path
         id="path3747"
         d="M 190.08567,306.32337 C 188.73245,305.07558 184.61731,298.33459 181.84999,294.93229 C 178.78725,291.16679 178.09307,289.18984 174.43786,285.81941 C 171.7142,283.30795 171.11378,281.23549 168.67288,278.98476 C 166.85027,283.1863 164.64497,285.48771 163.73147,288.85704 C 162.90803,291.89419 161.46651,294.55284 159.61363,297.96991 C 158.18703,300.60081 156.3148,304.04516 162.9079,304.04516 C 167.92529,304.04516 186.75074,303.24826 190.08567,306.32337 z"
         style="fill:#784421;fill-opacity:1;stroke:#000000;stroke-width:5.03201866;stroke-miterlimit:4;stroke-dasharray:none;stroke-opacity:1" />
      <path
         sodipodi:nodetypes="cccccccccc"
         id="path3898"
         d="M 74.907247,230.74869 C 77.472307,221.52486 84.269507,213.52268 93.246747,208.91269 C 108.3648,199.16306 125.99551,193.35885 143.92282,189.88957 C 161.2087,184.21387 178.85054,186.14449 196.78418,185.86738 C 195.22413,193.17514 175.31203,213.71306 169.43249,218.1545 C 156.43777,226.63335 140.20088,228.13938 125.2307,231.83374 C 115.9818,234.02442 106.39326,233.91119 96.973607,234.98448 C 89.549277,235.7865 82.031807,234.28283 75.490567,230.98386 L 74.907247,230.74869 L 74.907247,230.74869 z"
         style="fill:#917c6f;fill-opacity:1;stroke:#000000;stroke-width:4.59723759;stroke-miterlimit:4;stroke-dasharray:none;stroke-opacity:1" />
      <path
         sodipodi:nodetypes="cccccccccc"
         id="path3749"
         d="M 170.03155,252.68957 C 164.56807,243.99995 154.29559,240.14807 144.9747,237.11803 C 126.27427,231.87934 106.62983,231.70181 87.360517,231.77046 C 75.626327,232.52237 63.534647,235.85849 54.881117,244.2196 C 46.297197,250.62413 39.706607,260.07561 38.614397,270.9311 C 36.804657,283.63281 39.942687,297.53996 48.595457,307.20695 C 55.302397,312.77247 64.045927,314.87914 72.215597,317.3235 C 87.194537,320.44265 102.53034,317.84591 117.66658,318.47547 C 133.07827,317.9088 149.16613,313.96245 160.94401,303.4935 C 167.75552,288.50425 174.27097,269.16546 170.03155,252.68957 z"
         style="fill:#ffcc00;fill-opacity:1;stroke:#000000;stroke-width:5.03201866;stroke-miterlimit:4;stroke-dasharray:none;stroke-opacity:1" />
      <path
         id="path4364"
         d="M 78.902004,239.42514 C 80.939813,239.73019 88.393407,245.34225 93.34885,248.31551 C 99.376907,251.93235 106.01412,256.84207 111.68523,261.09541 C 116.97955,265.06615 124.16828,267.25067 130.57726,268.31884 C 131.50883,268.4741 132.42942,268.68927 133.3555,268.87448 C 138.17815,269.83901 143.45787,270.65516 148.358,269.43013 C 153.57139,268.12678 158.93263,267.34212 163.91614,266.09624 C 168.02675,265.06859 167.61405,264.04605 166.13873,261.09541 C 164.80205,258.42205 162.49147,256.41761 160.58225,253.87199 C 158.56108,251.1771 157.21721,250.50695 155.58142,248.87116 C 155.0033,248.29304 154.81809,248.10782 154.47012,247.75986 C 155.14492,250.45906 155.17099,250.5381 152.80318,250.5381 C 150.26929,250.5381 147.18079,249.98245 145.02411,249.98245 C 142.05354,249.98245 139.25851,248.95779 136.68939,248.31551 C 131.9459,247.12964 126.62868,247.63692 121.6869,246.64857 C 120.76082,246.46335 119.83474,246.27814 118.90866,246.09292 C 111.91801,244.69479 104.58681,244.78436 97.238387,243.31468 C 87.831085,241.43322 78.126809,238.64994 78.902004,239.42514 z"
         style="opacity:1;fill:#d4aa00;fill-opacity:1;stroke:none;stroke-width:5;stroke-miterlimit:4;stroke-dasharray:none;stroke-opacity:1" />
      <path
         sodipodi:nodetypes="cccccccc"
         id="path3859"
         d="M 79.783327,312.00547 C 90.635597,314.40788 103.01061,316.29706 113.81415,313.06423 C 120.17551,311.36141 128.11128,311.40579 134.19622,308.78139 C 136.22264,308.63549 160.3023,298.85024 155.9272,298.84252 C 148.00901,299.55688 138.94883,300.79353 131.22436,302.7129 C 120.09799,305.81664 108.8406,306.63995 97.202677,307.32438 C 78.532817,307.29538 76.383617,306.86196 58.492967,298.79059 C 64.031417,308.03192 71.237257,310.06765 79.783327,312.00547 z"
         style="fill:#fff772;fill-opacity:1;stroke:none;stroke-width:5;stroke-miterlimit:4;stroke-dasharray:none;stroke-opacity:1" />
      <path
         sodipodi:nodetypes="cc"
         id="path3773"
         d="M 96.009647,237.86 C 79.215647,264.10384 82.883497,287.9558 83.229737,318.42895"
         style="fill:#ffcc00;fill-opacity:1;stroke:#000000;stroke-width:15;stroke-miterlimit:4;stroke-dasharray:none;stroke-opacity:1" />
      <path
         sodipodi:nodetypes="cc"
         id="path3771"
         d="M 127.459,238.41565 C 113.84276,258.46609 109.9072,278.2637 115.01444,317.29742"
         style="fill:#ffcc00;fill-opacity:1;stroke:#000000;stroke-width:15;stroke-miterlimit:4;stroke-dasharray:none;stroke-opacity:1" />
      <path
         sodipodi:nodetypes="ccc"
         id="path3769"
         d="M 160.24221,242.86083 C 152.63732,248.08353 148.66021,256.94188 146.09824,265.50826 C 144.73964,279.31585 136.792,301.44899 141.90584,312.87247"
         style="fill:#ffcc00;fill-opacity:1;stroke:#000000;stroke-width:15;stroke-miterlimit:4;stroke-dasharray:none;stroke-opacity:1" />
      <path
         sodipodi:nodetypes="cccccccccc"
         id="path3751"
         d="M 74.587977,231.30876 C 79.823037,221.82469 89.028397,214.79885 99.494597,212.08216 C 117.68395,205.31966 137.31638,203.56307 156.58851,204.45602 C 175.8327,202.75029 193.28069,209.51528 211.65307,213.92553 C 207.98714,221.56364 181.84485,238.94713 174.58641,242.29269 C 158.92377,248.21393 141.93334,245.60327 125.61381,245.73576 C 115.5573,245.71654 105.80839,243.07063 95.894917,241.7759 C 88.093847,240.70705 80.852297,237.07436 75.116247,231.72114 L 74.587977,231.30876 L 74.587977,231.30876 z"
         style="fill:#c8b7b7;fill-opacity:1;stroke:#000000;stroke-width:5.03201866;stroke-miterlimit:4;stroke-dasharray:none;stroke-opacity:1" />
      <path
         sodipodi:nodetypes="ccc"
         id="path3797"
         d="M 62.993847,257.00532 C 72.738547,260.16276 66.854417,271.26288 58.232187,264.79525 C 53.875817,260.4001 57.907647,256.78949 62.993847,257.00532 z"
         style="fill:#ffcc00;fill-opacity:1;stroke:#000000;stroke-width:5;stroke-miterlimit:4;stroke-dasharray:none;stroke-opacity:1" />
      <path
         id="path3821"
         d="M 66.194717,289.2969 C 61.902567,290.51507 58.562617,293.95729 54.102367,294.72814 C 50.480267,295.5174 46.716017,295.15447 43.118907,294.41524"
         style="fill:#ffcc00;fill-opacity:1;stroke:#000000;stroke-width:5;stroke-miterlimit:4;stroke-dasharray:none;stroke-opacity:1" />
      <path
         sodipodi:nodetypes="ccccc"
         id="path3879"
         d="M 140.77395,241.68206 C 119.35875,240.4172 98.132417,236.14926 81.229337,230.88963 C 94.140667,232.40143 127.99763,235.02773 136.7215,234.91979 C 159.15899,235.68223 179.47117,226.70645 199.92946,218.84741 C 184.94553,233.54389 161.96583,242.84505 140.77395,241.68206 z"
         style="fill:#e3dedb;fill-opacity:1;stroke:none;stroke-width:5;stroke-miterlimit:4;stroke-dasharray:none;stroke-opacity:1" />
      <path
         id="path3900"
         d="M 167.46564,300.51743 C 167.71762,300.58657 171.77531,300.79525 174.41124,300.79525 C 176.63383,300.79525 178.85642,300.79525 181.07901,300.79525 C 183.45421,300.79525 185.00377,300.79525 181.63466,300.79525 C 179.84177,300.79525 176.82403,299.36232 175.24471,298.57266 C 173.87269,297.88665 171.53661,297.2289 170.24388,296.90572 C 168.30055,296.41989 167.97513,295.97904 167.46564,298.01702 C 167.32493,298.57983 167.46564,300.12816 167.46564,300.51743 z"
         style="fill:#c87137;fill-opacity:1;stroke:none;stroke-width:5;stroke-miterlimit:4;stroke-dasharray:none;stroke-opacity:1" />
    </g>
    <path
       style="opacity:1;fill:#008000;fill-opacity:1;stroke:#000000;stroke-width:3.17964911;stroke-miterlimit:4;stroke-dasharray:none;stroke-opacity:1"
       d="M 693.26312,823.32944 C 695.40199,876.91124 686.51219,929.64146 688.20401,983.18033 C 687.92765,1002.379 687.47624,1021.6183 689.16837,1040.8639 C 712.56297,1053.3611 709.43382,1014.7071 710.86298,1001.2383 C 712.79065,969.77917 708.80116,938.06387 711.17219,906.60911 C 708.44129,887.51102 723.30036,809.71588 693.26312,823.32944 z"
       id="path3974"
       sodipodi:nodetypes="cccccc" />
    <path
       style="opacity:1;fill:#ffdd55;fill-opacity:1;stroke:none;stroke-width:5;stroke-miterlimit:4;stroke-dasharray:none;stroke-opacity:1"
       d="M 222.48321,593.97389 C 227.87721,602.97362 224.59535,614.10405 220.28886,622.84087 C 216.28134,631.33413 209.198,638.43289 200.19643,641.56331 C 192.41298,644.55997 183.83524,645.00265 175.61535,644.13103 C 171.83667,641.40924 180.70966,640.60796 182.7755,639.68321 C 206.82608,634.47836 214.19205,612.85618 222.48321,593.97389 z"
       id="path4005"
       sodipodi:nodetypes="cccccc" />
    <path
       style="opacity:1;fill:#d4aa00;fill-opacity:1;stroke:none;stroke-width:5;stroke-miterlimit:4;stroke-dasharray:none;stroke-opacity:1"
       d="M 141.6883,606.26978 C 137.69354,596.57661 142.59645,586.05069 148.15636,578.04258 C 153.38434,570.23144 161.44668,564.25131 170.81534,562.47767 C 178.95935,560.65738 187.50867,561.47967 195.50841,563.54925 C 198.8403,566.7962 189.94559,566.2852 187.76477,566.8963 C 163.20375,568.5108 152.69957,588.81313 141.6883,606.26978 z"
       id="path4023"
       sodipodi:nodetypes="cccccc" />
    <path
       style="opacity:1;fill:#5555ff;fill-opacity:1;stroke:none;stroke-width:5;stroke-miterlimit:4;stroke-dasharray:none;stroke-opacity:1"
       d="M 238.98847,638.11972 C 258.10451,654.94451 263.0558,658.35874 286.73833,666.23401 C 297.06866,669.01825 325.50728,678.33957 333.55554,667.15394 C 301.14414,666.04972 269.41147,652.13832 238.98847,638.11972 z"
       id="path4036"
       sodipodi:nodetypes="cccc" />
    <path
       style="opacity:1;fill:#5555ff;fill-opacity:1;stroke:none;stroke-width:5;stroke-miterlimit:4;stroke-dasharray:none;stroke-opacity:1"
       d="M 247.32503,594.34542 C 272.81054,592.68267 278.73638,591.58828 301.02979,580.40632 C 310.28838,575.07087 336.96194,561.54796 334.61876,547.99755 C 311.03079,570.10531 278.75566,582.72542 247.32503,594.34542 z"
       id="path4041"
       sodipodi:nodetypes="cccc" />
    <path
       style="opacity:1;fill:#5555ff;fill-opacity:1;stroke:none;stroke-width:5;stroke-miterlimit:4;stroke-dasharray:none;stroke-opacity:1"
       d="M 220.79955,556.07891 C 236.44965,536.02978 240.13493,540.11059 246.49578,516.12104 C 248.61645,505.69939 255.53895,467.68895 243.77546,460.4438 C 250.40692,495.43283 236.44453,526.77124 220.79955,556.07891 z"
       id="path4043"
       sodipodi:nodetypes="cccc" />
    <path
       style="opacity:1;fill:#000055;fill-opacity:1;stroke:none;stroke-width:5;stroke-miterlimit:4;stroke-dasharray:none;stroke-opacity:1"
       d="M 134.92364,568.65303 C 115.29405,552.42218 110.23906,549.16134 86.323156,542.01571 C 75.911253,539.54945 47.19662,532.8315 29.066525,543.10699 C 61.496786,543.21724 104.07965,555.57361 134.92364,568.65303 z"
       id="path4045"
       sodipodi:nodetypes="cccc" />
    <path
       style="opacity:1;fill:#000055;fill-opacity:1;stroke:none;stroke-width:5;stroke-miterlimit:4;stroke-dasharray:none;stroke-opacity:1"
       d="M 126.68698,606.56276 C 101.53021,610.94352 95.757577,612.66576 74.806883,626.16868 C 66.180956,632.46401 42.456069,649.87981 38.62552,670.26203 C 59.678072,645.75839 96.699785,621.47911 126.68698,606.56276 z"
       id="path4047"
       sodipodi:nodetypes="cccc" />
    <path
       style="opacity:1;fill:#000055;fill-opacity:1;stroke:none;stroke-width:5;stroke-miterlimit:4;stroke-dasharray:none;stroke-opacity:1"
       d="M 148.60072,649.06304 C 131.23029,667.66189 131.73815,667.31903 123.27062,690.65732 C 120.23225,700.85237 117.73313,719.18571 127.08915,737.7206 C 125.19655,706.48917 131.42545,679.54332 148.60072,649.06304 z"
       id="path4049"
       sodipodi:nodetypes="cccc" />
    <path
       style="opacity:1;fill:#5555ff;fill-opacity:1;stroke:none;stroke-width:5;stroke-miterlimit:4;stroke-dasharray:none;stroke-opacity:1"
       d="M 173.13271,546.83327 C 170.55287,524.13164 171.4346,515.55107 157.91724,494.69123 C 153.92949,484.94851 133.27874,458.8152 118.2166,456.20786 C 148.33383,477.449 167.88166,512.62725 173.13271,546.83327 z"
       id="path4051"
       sodipodi:nodetypes="cccc" />
    <path
       style="opacity:1;fill:#000055;fill-opacity:1;stroke:none;stroke-width:5;stroke-miterlimit:4;stroke-dasharray:none;stroke-opacity:1"
       d="M 188.92527,654.98812 C 191.5051,677.68976 190.62338,686.27033 204.14073,707.13017 C 208.12848,716.87288 223.56266,740.7032 238.62481,743.31053 C 213.72414,721.49364 194.17632,689.19414 188.92527,654.98812 z"
       id="path4053"
       sodipodi:nodetypes="cccc" />
    <g
       id="g4093"
       transform="matrix(1.0314677,-0.1687857,0.1713451,1.0160608,632.36178,275.18017)">
      <path
         id="path4055"
         d="M 482.70627,420.16466 C 475.56974,424.68669 466.95041,427.55107 461.67347,434.3597 C 458.18111,438.6802 454.05542,442.43974 450.20135,446.42747 C 444.40365,454.12071 441.31171,463.35644 436.28577,471.51172 C 431.41427,479.51525 429.86697,488.84421 427.86465,497.86005 C 425.81848,508.39287 428.07957,519.31698 431.96378,529.43843 C 433.51054,534.8298 435.09993,540.22578 437.01854,545.5131 C 441.90957,546.92099 447.76909,543.3414 452.42993,541.41598 C 460.80909,536.31775 467.86487,529.50955 475.00172,522.97356 C 481.92914,515.76121 489.3768,508.6591 493.21935,499.3141 C 497.98806,491.34724 499.53038,482.12109 501.034,473.08022 C 501.71985,465.40787 501.4138,457.61908 501.0046,449.9033 C 499.01083,439.60936 489.52818,432.86246 484.95061,423.68332 C 484.2264,422.49713 483.47814,421.32388 482.70627,420.16466 z"
         style="fill:#ff55dd;fill-opacity:1;stroke:#000000;stroke-width:5.73700285;stroke-miterlimit:4;stroke-dasharray:none;stroke-opacity:1" />
      <path
         id="path4057"
         d="M 527.43898,419.66396 C 532.2874,426.78946 535.43843,435.2433 542.63178,440.71485 C 547.19926,444.32524 551.19488,448.51162 555.42278,452.4502 C 563.54764,458.47432 573.22606,461.98759 581.81692,467.29671 C 590.24684,472.44864 599.99223,474.48243 609.42033,476.93533 C 620.4292,479.51919 631.76166,477.98532 642.22629,474.84395 C 647.81089,473.67276 653.39931,472.46085 658.86808,470.92608 C 660.23892,466.30654 656.39691,460.46394 654.30101,455.87055 C 648.82827,447.51676 641.6006,440.3351 634.6549,433.09141 C 627.00894,426.00945 619.46763,418.43388 609.66064,414.19257 C 601.27112,409.14164 591.6328,407.11864 582.18838,405.14367 C 574.18486,404.03508 566.0796,403.87309 558.05234,403.81472 C 547.371,405.12852 540.52953,413.84947 531.0597,417.7125 C 529.83848,418.33922 528.63126,418.98987 527.43898,419.66396 z"
         style="fill:#ff55dd;fill-opacity:1;stroke:#000000;stroke-width:5.73700285;stroke-miterlimit:4;stroke-dasharray:none;stroke-opacity:1" />
      <path
         id="path4059"
         d="M 466.45746,398.44499 C 458.01186,400.16281 449.85437,404.0166 440.88406,402.91324 C 435.0933,402.31014 429.31001,402.51859 423.53325,402.38752 C 413.51033,401.02953 404.12768,396.7892 394.27009,394.59401 C 384.63759,392.39848 376.23975,387.05203 367.77656,382.22715 C 358.0899,376.39264 351.04607,367.38373 345.74566,357.8295 C 342.5644,353.09257 339.40882,348.32371 336.56424,343.40726 C 338.80736,339.14254 345.63676,337.64091 350.34396,335.81486 C 360.09406,333.65327 370.28259,333.55613 380.3125,333.21773 C 390.731,333.48398 401.41907,333.3237 411.40196,337.13245 C 420.93509,339.37204 429.24873,344.65156 437.39004,349.83006 C 443.89479,354.62301 449.8116,360.16496 455.60037,365.72654 C 462.33158,374.12338 461.14277,385.14369 465.22709,394.52032 C 465.66401,395.82154 466.07432,397.13007 466.45746,398.44499 z"
         style="fill:#ff55dd;fill-opacity:1;stroke:#000000;stroke-width:5.73700285;stroke-miterlimit:4;stroke-dasharray:none;stroke-opacity:1" />
      <path
         id="path4061"
         d="M 501.6,374.6606 C 499.50202,366.46869 495.18969,358.46517 496.01105,349.88587 C 496.42755,344.34299 495.99896,338.77358 495.92431,333.22457 C 496.97239,323.64373 501.04612,314.79818 502.9723,305.41105 C 504.90698,296.24035 510.16883,288.38762 514.88506,280.45041 C 520.60821,271.37874 529.73441,264.97995 539.49233,260.28012 C 544.31002,257.41793 549.16184,254.58172 554.17887,252.05071 C 558.70297,254.38454 560.51678,261.01347 562.59083,265.61531 C 565.19874,275.07993 565.67241,284.88044 566.3916,294.53845 C 566.49515,304.54497 567.05276,314.82837 563.45055,324.26901 C 561.46621,333.34228 556.2711,341.11689 551.1748,348.72993 C 546.42018,354.78537 540.86399,360.24443 535.28266,365.57957 C 526.78257,371.70315 515.26041,370.10263 505.64305,373.64055 C 504.30367,374.00662 502.9556,374.34686 501.6,374.6606 z"
         style="fill:#ff55dd;fill-opacity:1;stroke:#000000;stroke-width:5.73700285;stroke-miterlimit:4;stroke-dasharray:none;stroke-opacity:1" />
      <path
         id="path4063"
         d="M 503.13496,420.90709 C 500.79556,428.64645 496.16121,435.87189 496.46477,444.28986 C 496.51208,449.85076 496.15197,455.37798 495.59499,460.87861 C 495.99599,470.80084 499.8743,480.31956 501.38251,490.13449 C 502.57221,497.66907 506.04383,504.60324 509.53296,511.43441 C 514.50219,522.54488 523.35285,531.90073 534.07712,538.2248 C 539.56139,541.95314 544.74816,546.24135 550.53734,549.45808 C 554.61969,546.62649 556.9411,541.26568 559.05101,536.76291 C 562.03172,527.87971 562.88457,518.41594 564.08062,509.13376 C 564.55185,499.53409 565.82653,489.71562 563.01402,480.19812 C 561.43414,473.3297 559.58434,466.44601 555.72074,460.30002 C 551.3918,450.80151 544.12007,442.98918 537.41046,434.96296 C 529.6549,426.95523 517.53162,427.31528 507.94127,422.72123 C 506.35238,422.08204 504.75055,421.47486 503.13496,420.90709 z"
         style="fill:#ff55dd;fill-opacity:1;stroke:#000000;stroke-width:5.73700285;stroke-miterlimit:4;stroke-dasharray:none;stroke-opacity:1" />
      <path
         id="path4065"
         d="M 523.91982,397.97388 C 532.84594,400.395 541.60009,404.93948 551.03444,403.96138 C 558.94509,403.6748 567.01576,405.48116 574.72756,403.42996 C 583.08426,401.58436 591.29458,399.22302 599.75279,397.75346 C 608.72825,395.25149 616.92735,390.81483 624.87007,386.2943 C 633.57743,380.81175 639.69905,372.53675 644.62526,363.86691 C 647.57771,359.43669 650.76113,355.12674 653.14225,350.35997 C 647.10299,344.35078 638.34511,341.77747 630.11039,340.37653 C 615.92075,338.29262 601.48948,336.85011 587.27484,338.03997 C 577.45229,339.76582 567.49272,342.13989 559.04646,347.25619 C 549.50772,352.01322 541.5661,359.16046 533.98379,366.30424 C 527.56609,374.57275 528.92258,385.81919 524.7888,395.06281 C 524.48387,396.02834 524.19362,396.99869 523.91982,397.97388 z"
         style="fill:#ff55dd;fill-opacity:1;stroke:#000000;stroke-width:5.73700285;stroke-miterlimit:4;stroke-dasharray:none;stroke-opacity:1" />
      <path
         id="path4067"
         d="M 488.21895,375.99399 C 489.81136,368.05845 493.7124,360.42274 492.62109,352.04146 C 492.04699,346.48806 491.88037,340.93263 491.91157,335.38649 C 490.57306,325.50531 485.82231,316.33171 483.39523,306.65454 C 481.0809,297.63862 475.58435,289.8186 470.6286,281.91388 C 464.59964,272.72916 455.43982,265.82093 445.48491,260.94168 C 440.02369,257.81428 434.7257,254.23261 428.9953,251.668 C 425.21279,254.85512 423.41754,260.41579 421.75072,265.10055 C 419.63506,274.23938 419.68594,283.77205 419.37895,293.15336 C 419.81809,302.78857 419.499,312.71237 423.18043,321.97834 C 425.39923,328.70447 427.88736,335.42215 432.30381,341.22636 C 437.49986,350.34035 445.45621,357.51165 452.87499,364.94592 C 461.32991,372.27025 473.3257,370.84947 483.27765,374.60149 C 484.91491,375.10133 486.56197,375.56798 488.21895,375.99399 z"
         style="fill:#ff55dd;fill-opacity:1;stroke:#000000;stroke-width:5.73700285;stroke-miterlimit:4;stroke-dasharray:none;stroke-opacity:1" />
      <path
         id="path4069"
         d="M 473.61788,415.77443 C 469.89053,422.94919 468.16519,431.35795 462.07168,437.17375 C 458.15605,441.12261 454.55566,445.33176 451.11472,449.65926 C 443.90139,456.48416 434.47984,460.59281 426.54851,466.56799 C 420.43711,471.13278 413.11091,473.67454 405.844,476.1304 C 394.53011,480.61728 381.66172,481.13832 369.5681,478.1806 C 363.03862,477.02192 356.33119,476.47185 349.94048,474.73407 C 348.99386,469.85682 351.07374,464.39786 352.70608,459.70083 C 356.77272,451.25925 362.76816,443.88748 368.39111,436.406 C 374.75477,429.20324 380.6958,421.28301 389.35336,416.43127 C 395.27914,412.61589 401.40887,408.97809 408.46557,407.27423 C 418.19577,403.49465 428.8561,402.97665 439.26321,401.91314 C 450.40635,401.59296 458.83591,410.31343 468.90989,413.71845 C 470.49386,414.36982 472.06471,415.05321 473.61788,415.77443 z"
         style="fill:#ff55dd;fill-opacity:1;stroke:#000000;stroke-width:5.73700285;stroke-miterlimit:4;stroke-dasharray:none;stroke-opacity:1" />
      <path
         transform="matrix(0.5464765,0.222294,-0.2102107,0.5167714,539.12071,24.71752)"
         d="M 265.60203,656.9328 A 89.581749,89.581749 0 1 1 86.43853,656.9328 A 89.581749,89.581749 0 1 1 265.60203,656.9328 z"
         sodipodi:ry="89.581749"
         sodipodi:rx="89.581749"
         sodipodi:cy="656.9328"
         sodipodi:cx="176.02028"
         id="path4071"
         style="fill:#ffcc00;fill-opacity:1;stroke:#000000;stroke-width:10;stroke-miterlimit:4;stroke-dasharray:none;stroke-opacity:1"
         sodipodi:type="arc" />
      <path
         sodipodi:nodetypes="cccccc"
         id="path4073"
         d="M 533.32806,395.28683 C 538.49898,403.97233 535.35285,414.71413 531.22446,423.1459 C 527.38268,431.34261 520.59228,438.19351 511.96299,441.21463 C 504.50144,444.10666 496.27845,444.53388 488.39851,443.69269 C 484.7761,441.06594 493.28213,440.29263 495.26254,439.40017 C 518.31846,434.37705 525.3798,413.50983 533.32806,395.28683 z"
         style="opacity:1;fill:#ffdd55;fill-opacity:1;stroke:none;stroke-width:5;stroke-miterlimit:4;stroke-dasharray:none;stroke-opacity:1" />
      <path
         sodipodi:nodetypes="cccccc"
         id="path4075"
         d="M 455.87458,407.1534 C 452.04503,397.79868 456.74517,387.64028 462.07514,379.91178 C 467.0869,372.37337 474.81581,366.60204 483.79701,364.89033 C 491.60421,363.1336 499.79996,363.92718 507.46885,365.92449 C 510.66295,369.05807 502.13609,368.56492 500.04547,369.15468 C 476.50021,370.71281 466.43045,390.30626 455.87458,407.1534 z"
         style="opacity:1;fill:#d4aa00;fill-opacity:1;stroke:none;stroke-width:5;stroke-miterlimit:4;stroke-dasharray:none;stroke-opacity:1" />
      <path
         sodipodi:nodetypes="cccc"
         id="path4077"
         d="M 549.15071,437.89127 C 567.47617,454.12861 572.22269,457.42363 594.92579,465.02393 C 604.82889,467.71095 632.09137,476.70681 639.80678,465.91174 C 608.73582,464.84607 578.31551,451.4204 549.15071,437.89127 z"
         style="opacity:1;fill:#ff80e5;fill-opacity:1;stroke:none;stroke-width:5;stroke-miterlimit:4;stroke-dasharray:none;stroke-opacity:1" />
      <path
         sodipodi:nodetypes="cccc"
         id="path4079"
         d="M 557.1425,395.64539 C 581.57401,394.0407 587.25477,392.98452 608.6262,382.19299 C 617.50188,377.04383 643.0723,363.99308 640.82603,350.9158 C 618.21359,372.25164 587.27326,384.43111 557.1425,395.64539 z"
         style="opacity:1;fill:#ff80e5;fill-opacity:1;stroke:none;stroke-width:5;stroke-miterlimit:4;stroke-dasharray:none;stroke-opacity:1" />
      <path
         sodipodi:nodetypes="cccc"
         id="path4081"
         d="M 531.71403,358.71499 C 546.71689,339.36589 550.24976,343.30422 556.34754,320.15228 C 558.38051,310.09451 565.01672,273.41124 553.73973,266.41906 C 560.09693,300.18642 546.71198,330.43062 531.71403,358.71499 z"
         style="opacity:1;fill:#ff80e5;fill-opacity:1;stroke:none;stroke-width:5;stroke-miterlimit:4;stroke-dasharray:none;stroke-opacity:1" />
      <path
         sodipodi:nodetypes="cccc"
         id="path4083"
         d="M 449.38968,370.85007 C 430.57191,355.18594 425.72598,352.03895 402.79916,345.14282 C 392.81786,342.76267 365.29078,336.27928 347.91049,346.19599 C 378.99953,346.30239 419.8213,358.22733 449.38968,370.85007 z"
         style="opacity:1;fill:#a02c89;fill-opacity:1;stroke:none;stroke-width:5;stroke-miterlimit:4;stroke-dasharray:none;stroke-opacity:1" />
      <path
         sodipodi:nodetypes="cccc"
         id="path4085"
         d="M 441.49366,407.43615 C 417.3773,411.66395 411.84341,413.32606 391.75917,426.35751 C 383.48998,432.43304 360.74628,449.24075 357.07415,468.91131 C 377.25604,445.26323 412.74665,421.83168 441.49366,407.43615 z"
         style="opacity:1;fill:#a02c89;fill-opacity:1;stroke:none;stroke-width:5;stroke-miterlimit:4;stroke-dasharray:none;stroke-opacity:1" />
      <path
         sodipodi:nodetypes="cccc"
         id="path4087"
         d="M 462.50112,448.4525 C 445.84908,466.40195 446.33593,466.07106 438.21859,488.59448 C 435.30588,498.43356 432.91012,516.12677 441.8792,534.0145 C 440.06487,503.87354 446.03617,477.86853 462.50112,448.4525 z"
         style="opacity:1;fill:#a02c89;fill-opacity:1;stroke:none;stroke-width:5;stroke-miterlimit:4;stroke-dasharray:none;stroke-opacity:1" />
      <path
         sodipodi:nodetypes="cccc"
         id="path4089"
         d="M 486.01854,349.79217 C 483.5454,327.88318 484.39066,319.60221 471.43234,299.47071 C 467.60951,290.06817 447.81281,264.84732 433.37359,262.33102 C 462.24527,282.83051 480.98466,316.78048 486.01854,349.79217 z"
         style="opacity:1;fill:#ff80e5;fill-opacity:1;stroke:none;stroke-width:5;stroke-miterlimit:4;stroke-dasharray:none;stroke-opacity:1" />
      <path
         sodipodi:nodetypes="cccc"
         id="path4091"
         d="M 501.15797,454.1707 C 503.63111,476.07969 502.78585,484.36066 515.74417,504.49216 C 519.567,513.8947 534.36287,536.89296 548.80209,539.40926 C 524.93124,518.35412 506.19185,487.18239 501.15797,454.1707 z"
         style="opacity:1;fill:#a02c89;fill-opacity:1;stroke:none;stroke-width:5;stroke-miterlimit:4;stroke-dasharray:none;stroke-opacity:1" />
    </g>
    <g
       id="g4152"
       transform="matrix(0.578196,-0.4390784,0.4333413,0.5492112,-25.960921,789.65572)">
      <path
         id="path4114"
         d="M 486.04016,393.49356 C 478.90363,398.01559 470.2843,400.87997 465.00736,407.6886 C 461.515,412.0091 457.38931,415.76864 453.53524,419.75637 C 447.73754,427.44961 444.6456,436.68534 439.61966,444.84062 C 434.74816,452.84415 433.20086,462.17311 431.19854,471.18895 C 429.15237,481.72177 431.41346,492.64588 435.29767,502.76733 C 436.84443,508.1587 438.43382,513.55468 440.35243,518.842 C 445.24346,520.24989 451.10298,516.6703 455.76382,514.74488 C 464.14298,509.64665 471.19876,502.83845 478.33561,496.30246 C 485.26303,489.09011 492.71069,481.988 496.55324,472.643 C 501.32195,464.67614 502.86427,455.44999 504.36789,446.40912 C 505.05374,438.73677 504.74769,430.94798 504.33849,423.2322 C 502.34472,412.93826 492.86207,406.19136 488.2845,397.01222 C 487.56029,395.82603 486.81203,394.65278 486.04016,393.49356 z"
         style="fill:#ff6600;fill-opacity:1;stroke:#000000;stroke-width:5.73700285;stroke-miterlimit:4;stroke-dasharray:none;stroke-opacity:1" />
      <path
         id="path4116"
         d="M 530.77287,392.99286 C 535.62129,400.11836 538.77232,408.5722 545.96567,414.04375 C 550.53315,417.65414 554.52877,421.84052 558.75667,425.7791 C 566.88153,431.80322 576.55995,435.31649 585.15081,440.62561 C 593.58073,445.77754 603.32612,447.81133 612.75422,450.26423 C 623.76309,452.84809 635.09555,451.31422 645.56018,448.17285 C 651.14478,447.00166 656.7332,445.78975 662.20197,444.25498 C 663.57281,439.63544 659.7308,433.79284 657.6349,429.19945 C 652.16216,420.84566 644.93449,413.664 637.98879,406.42031 C 630.34283,399.33835 622.80152,391.76278 612.99453,387.52147 C 604.60501,382.47054 594.96669,380.44754 585.52227,378.47257 C 577.51875,377.36398 569.41349,377.20199 561.38623,377.14362 C 550.70489,378.45742 543.86342,387.17837 534.39359,391.0414 C 533.17237,391.66812 531.96515,392.31877 530.77287,392.99286 z"
         style="fill:#ff6600;fill-opacity:1;stroke:#000000;stroke-width:5.73700285;stroke-miterlimit:4;stroke-dasharray:none;stroke-opacity:1" />
      <path
         id="path4118"
         d="M 469.79135,371.77389 C 461.34575,373.49171 453.18826,377.3455 444.21795,376.24214 C 438.42719,375.63904 432.6439,375.84749 426.86714,375.71642 C 416.84422,374.35843 407.46157,370.1181 397.60398,367.92291 C 387.97148,365.72738 379.57364,360.38093 371.11045,355.55605 C 361.42378,349.72154 354.37996,340.71263 349.07954,331.1584 C 345.89829,326.42147 342.74271,321.65261 339.89813,316.73616 C 342.14125,312.47144 348.97064,310.96981 353.67784,309.14376 C 363.42795,306.98217 373.61648,306.88503 383.64639,306.54663 C 394.06489,306.81288 404.75296,306.6526 414.73585,310.46135 C 424.26898,312.70094 432.58262,317.98046 440.72393,323.15896 C 447.22868,327.95191 453.14549,333.49386 458.93426,339.05544 C 465.66547,347.45228 464.47666,358.47259 468.56098,367.84922 C 468.9979,369.15044 469.40821,370.45897 469.79135,371.77389 z"
         style="fill:#ff6600;fill-opacity:1;stroke:#000000;stroke-width:5.73700285;stroke-miterlimit:4;stroke-dasharray:none;stroke-opacity:1" />
      <path
         id="path4120"
         d="M 504.93389,347.9895 C 502.83591,339.79759 498.52358,331.79407 499.34494,323.21477 C 499.76144,317.67189 499.33285,312.10248 499.2582,306.55347 C 500.30628,296.97263 504.38001,288.12708 506.30619,278.73995 C 508.24087,269.56925 513.50272,261.71652 518.21895,253.77931 C 523.9421,244.70764 533.0683,238.30885 542.82622,233.60902 C 547.64391,230.74683 552.49573,227.91062 557.51276,225.37961 C 562.03686,227.71344 563.85067,234.34237 565.92472,238.94421 C 568.53263,248.40883 569.0063,258.20934 569.72549,267.86735 C 569.82904,277.87387 570.38665,288.15727 566.78444,297.59791 C 564.8001,306.67118 559.60499,314.44579 554.50869,322.05883 C 549.75407,328.11427 544.19788,333.57333 538.61655,338.90847 C 530.11646,345.03205 518.5943,343.43153 508.97694,346.96945 C 507.63756,347.33552 506.28949,347.67576 504.93389,347.9895 z"
         style="fill:#ff6600;fill-opacity:1;stroke:#000000;stroke-width:5.73700285;stroke-miterlimit:4;stroke-dasharray:none;stroke-opacity:1" />
      <path
         id="path4122"
         d="M 506.46885,394.23599 C 504.12945,401.97535 499.4951,409.20079 499.79866,417.61876 C 499.84597,423.17966 499.48586,428.70688 498.92888,434.20751 C 499.32988,444.12974 503.20819,453.64846 504.7164,463.46339 C 505.9061,470.99797 509.37772,477.93214 512.86685,484.76331 C 517.83608,495.87378 526.68674,505.22963 537.41101,511.5537 C 542.89528,515.28204 548.08205,519.57025 553.87123,522.78698 C 557.95358,519.95539 560.27499,514.59458 562.3849,510.09181 C 565.36561,501.20861 566.21846,491.74484 567.41451,482.46266 C 567.88574,472.86299 569.16042,463.04452 566.34791,453.52702 C 564.76803,446.6586 562.91823,439.77491 559.05463,433.62892 C 554.72569,424.13041 547.45396,416.31808 540.74435,408.29186 C 532.98879,400.28413 520.86551,400.64418 511.27516,396.05013 C 509.68627,395.41094 508.08444,394.80376 506.46885,394.23599 z"
         style="fill:#ff6600;fill-opacity:1;stroke:#000000;stroke-width:5.73700285;stroke-miterlimit:4;stroke-dasharray:none;stroke-opacity:1" />
      <path
         id="path4124"
         d="M 527.25371,371.30278 C 536.17983,373.7239 544.93398,378.26838 554.36833,377.29028 C 562.27898,377.0037 570.34965,378.81006 578.06145,376.75886 C 586.41815,374.91326 594.62847,372.55192 603.08668,371.08236 C 612.06214,368.58039 620.26124,364.14373 628.20396,359.6232 C 636.91132,354.14065 643.03294,345.86565 647.95915,337.19581 C 650.9116,332.76559 654.09502,328.45564 656.47614,323.68887 C 650.43688,317.67968 641.679,315.10637 633.44428,313.70543 C 619.25464,311.62152 604.82337,310.17901 590.60873,311.36887 C 580.78618,313.09472 570.82661,315.46879 562.38035,320.58509 C 552.84161,325.34212 544.89999,332.48936 537.31768,339.63314 C 530.89998,347.90165 532.25647,359.14809 528.12269,368.39171 C 527.81776,369.35724 527.52751,370.32759 527.25371,371.30278 z"
         style="fill:#ff6600;fill-opacity:1;stroke:#000000;stroke-width:5.73700285;stroke-miterlimit:4;stroke-dasharray:none;stroke-opacity:1" />
      <path
         id="path4126"
         d="M 492.66414,348.21159 C 494.25655,340.27605 498.15759,332.64034 497.06628,324.25906 C 496.49218,318.70566 496.32556,313.15023 496.35676,307.60409 C 495.01825,297.72291 490.2675,288.54931 487.84042,278.87214 C 485.52609,269.85622 480.02954,262.0362 475.07379,254.13148 C 469.04483,244.94676 459.88501,238.03853 449.9301,233.15928 C 444.46888,230.03188 439.17089,226.45021 433.44049,223.8856 C 429.65798,227.07272 427.86273,232.63339 426.19591,237.31815 C 424.08025,246.45698 424.13113,255.98965 423.82414,265.37096 C 424.26328,275.00617 423.94419,284.92997 427.62562,294.19594 C 429.84442,300.92207 432.33255,307.63975 436.749,313.44396 C 441.94505,322.55795 449.9014,329.72925 457.32018,337.16352 C 465.7751,344.48785 477.77089,343.06707 487.72284,346.81909 C 489.3601,347.31893 491.00716,347.78558 492.66414,348.21159 z"
         style="fill:#ff6600;fill-opacity:1;stroke:#000000;stroke-width:5.73700285;stroke-miterlimit:4;stroke-dasharray:none;stroke-opacity:1" />
      <path
         id="path4128"
         d="M 476.95177,389.10333 C 473.22442,396.27809 471.49908,404.68685 465.40557,410.50265 C 461.48994,414.45151 457.88955,418.66066 454.44861,422.98816 C 447.23528,429.81306 437.81373,433.92171 429.8824,439.89689 C 423.771,444.46168 416.4448,447.00344 409.17789,449.4593 C 397.864,453.94618 384.99561,454.46722 372.90199,451.5095 C 366.37251,450.35082 359.66508,449.80075 353.27437,448.06297 C 352.32775,443.18572 354.40762,437.72676 356.03997,433.02973 C 360.10661,424.58815 366.10205,417.21638 371.72499,409.7349 C 378.08866,402.53214 384.02969,394.61191 392.68725,389.76017 C 398.61303,385.94479 404.74275,382.30699 411.79946,380.60313 C 421.52966,376.82355 432.18999,376.30555 442.5971,375.24204 C 453.74024,374.92186 462.1698,383.64233 472.24378,387.04735 C 473.82775,387.69872 475.3986,388.38211 476.95177,389.10333 z"
         style="fill:#ff6600;fill-opacity:1;stroke:#000000;stroke-width:5.73700285;stroke-miterlimit:4;stroke-dasharray:none;stroke-opacity:1" />
      <path
         transform="matrix(0.5464765,0.222294,-0.2102107,0.5167714,542.4546,-1.9535816)"
         d="M 265.60203,656.9328 A 89.581749,89.581749 0 1 1 86.43853,656.9328 A 89.581749,89.581749 0 1 1 265.60203,656.9328 z"
         sodipodi:ry="89.581749"
         sodipodi:rx="89.581749"
         sodipodi:cy="656.9328"
         sodipodi:cx="176.02028"
         id="path4130"
         style="fill:#ffcc00;fill-opacity:1;stroke:#000000;stroke-width:10;stroke-miterlimit:4;stroke-dasharray:none;stroke-opacity:1"
         sodipodi:type="arc" />
      <path
         sodipodi:nodetypes="cccccc"
         id="path4132"
         d="M 536.66195,368.61573 C 541.83287,377.30123 538.68674,388.04303 534.55835,396.4748 C 530.71657,404.67151 523.92617,411.52241 515.29688,414.54353 C 507.83533,417.43556 499.61234,417.86278 491.7324,417.02159 C 488.10999,414.39484 496.61602,413.62153 498.59643,412.72907 C 521.65235,407.70595 528.71369,386.83873 536.66195,368.61573 z"
         style="opacity:1;fill:#ffdd55;fill-opacity:1;stroke:none;stroke-width:5;stroke-miterlimit:4;stroke-dasharray:none;stroke-opacity:1" />
      <path
         sodipodi:nodetypes="cccccc"
         id="path4134"
         d="M 459.20847,380.4823 C 455.37892,371.12758 460.07906,360.96918 465.40903,353.24068 C 470.42079,345.70227 478.1497,339.93094 487.1309,338.21923 C 494.9381,336.4625 503.13385,337.25608 510.80274,339.25339 C 513.99684,342.38697 505.46998,341.89382 503.37936,342.48358 C 479.8341,344.04171 469.76434,363.63516 459.20847,380.4823 z"
         style="opacity:1;fill:#d4aa00;fill-opacity:1;stroke:none;stroke-width:5;stroke-miterlimit:4;stroke-dasharray:none;stroke-opacity:1" />
      <path
         sodipodi:nodetypes="cccc"
         id="path4136"
         d="M 552.4846,411.22017 C 570.81006,427.45751 575.55658,430.75253 598.25968,438.35283 C 608.16278,441.03985 635.42526,450.03571 643.14067,439.24064 C 612.06971,438.17497 581.6494,424.7493 552.4846,411.22017 z"
         style="opacity:1;fill:#ff7f2a;fill-opacity:1;stroke:none;stroke-width:5;stroke-miterlimit:4;stroke-dasharray:none;stroke-opacity:1" />
      <path
         sodipodi:nodetypes="cccc"
         id="path4138"
         d="M 560.47639,368.97429 C 584.9079,367.3696 590.58866,366.31342 611.96009,355.52189 C 620.83577,350.37273 646.40619,337.32198 644.15992,324.2447 C 621.54748,345.58054 590.60715,357.76001 560.47639,368.97429 z"
         style="opacity:1;fill:#ff7f2a;fill-opacity:1;stroke:none;stroke-width:5;stroke-miterlimit:4;stroke-dasharray:none;stroke-opacity:1" />
      <path
         sodipodi:nodetypes="cccc"
         id="path4140"
         d="M 535.04792,332.04389 C 550.05078,312.69479 553.58365,316.63312 559.68143,293.48118 C 561.7144,283.42341 568.35061,246.74014 557.07362,239.74796 C 563.43082,273.51532 550.04587,303.75952 535.04792,332.04389 z"
         style="opacity:1;fill:#ff7f2a;fill-opacity:1;stroke:none;stroke-width:5;stroke-miterlimit:4;stroke-dasharray:none;stroke-opacity:1" />
      <path
         sodipodi:nodetypes="cccc"
         id="path4142"
         d="M 452.72357,341.95638 C 433.9058,326.29225 429.05986,323.14526 406.13305,316.24913 C 396.15175,313.86898 368.62467,307.38559 351.24438,317.3023 C 382.33342,317.4087 423.15519,329.33364 452.72357,341.95638 z"
         style="opacity:1;fill:#d45500;fill-opacity:1;stroke:none;stroke-width:5;stroke-miterlimit:4;stroke-dasharray:none;stroke-opacity:1" />
      <path
         sodipodi:nodetypes="cccc"
         id="path4144"
         d="M 444.82755,380.76505 C 420.71119,384.99285 415.17729,386.65496 395.09306,399.68641 C 386.82387,405.76194 364.08017,422.56965 360.40804,442.24021 C 380.58993,418.59213 416.08054,395.16058 444.82755,380.76505 z"
         style="opacity:1;fill:#d45500;fill-opacity:1;stroke:none;stroke-width:5;stroke-miterlimit:4;stroke-dasharray:none;stroke-opacity:1" />
      <path
         sodipodi:nodetypes="cccc"
         id="path4146"
         d="M 465.83501,421.7814 C 449.18297,439.73085 449.66982,439.39996 441.55248,461.92338 C 438.63977,471.76246 436.24401,489.45567 445.21309,507.3434 C 443.39876,477.20244 449.37006,451.19743 465.83501,421.7814 z"
         style="opacity:1;fill:#d45500;fill-opacity:1;stroke:none;stroke-width:5;stroke-miterlimit:4;stroke-dasharray:none;stroke-opacity:1" />
      <path
         sodipodi:nodetypes="cccc"
         id="path4148"
         d="M 489.35243,323.12107 C 486.87929,301.21208 487.72455,292.93111 474.76623,272.79961 C 470.9434,263.39707 451.1467,238.17622 436.70748,235.65992 C 465.57916,256.15941 484.31855,290.10938 489.35243,323.12107 z"
         style="opacity:1;fill:#ff7f2a;fill-opacity:1;stroke:none;stroke-width:5;stroke-miterlimit:4;stroke-dasharray:none;stroke-opacity:1" />
      <path
         sodipodi:nodetypes="cccc"
         id="path4150"
         d="M 504.49186,427.4996 C 506.965,449.40859 506.11974,457.68956 519.07806,477.82106 C 522.90089,487.2236 537.69676,510.22186 552.13598,512.73816 C 528.26513,491.68302 509.52574,460.51129 504.49186,427.4996 z"
         style="opacity:1;fill:#d45500;fill-opacity:1;stroke:none;stroke-width:5;stroke-miterlimit:4;stroke-dasharray:none;stroke-opacity:1" />
    </g>
    <g
       id="g4211"
       transform="matrix(0.740273,0,0,0.6413583,603.67296,516.53977)">
      <path
         id="path4173"
         d="M 478.26109,419.05336 C 471.12456,423.57539 462.50523,426.43977 457.22829,433.2484 C 453.73593,437.5689 449.61024,441.32844 445.75617,445.31617 C 439.95847,453.00941 436.86653,462.24514 431.84059,470.40042 C 426.96909,478.40395 425.42179,487.73291 423.41947,496.74875 C 421.3733,507.28157 423.63439,518.20568 427.5186,528.32713 C 429.06536,533.7185 430.65475,539.11448 432.57336,544.4018 C 437.46439,545.80969 443.32391,542.2301 447.98475,540.30468 C 456.36391,535.20645 463.41969,528.39825 470.55654,521.86226 C 477.48396,514.64991 484.93162,507.5478 488.77417,498.2028 C 493.54288,490.23594 495.0852,481.00979 496.58882,471.96892 C 497.27467,464.29657 496.96862,456.50778 496.55942,448.792 C 494.56565,438.49806 485.083,431.75116 480.50543,422.57202 C 479.78122,421.38583 479.03296,420.21258 478.26109,419.05336 z"
         style="fill:#ff0000;fill-opacity:1;stroke:#000000;stroke-width:5.73700285;stroke-miterlimit:4;stroke-dasharray:none;stroke-opacity:1" />
      <path
         id="path4175"
         d="M 522.9938,418.55266 C 527.84222,425.67816 530.99325,434.132 538.1866,439.60355 C 542.75408,443.21394 546.7497,447.40032 550.9776,451.3389 C 559.10246,457.36302 568.78088,460.87629 577.37174,466.18541 C 585.80166,471.33734 595.54705,473.37113 604.97515,475.82403 C 615.98402,478.40789 627.31648,476.87402 637.78111,473.73265 C 643.36571,472.56146 648.95413,471.34955 654.4229,469.81478 C 655.79374,465.19524 651.95173,459.35264 649.85583,454.75925 C 644.38309,446.40546 637.15542,439.2238 630.20972,431.98011 C 622.56376,424.89815 615.02245,417.32258 605.21546,413.08127 C 596.82594,408.03034 587.18762,406.00734 577.7432,404.03237 C 569.73968,402.92378 561.63442,402.76179 553.60716,402.70342 C 542.92582,404.01722 536.08435,412.73817 526.61452,416.6012 C 525.3933,417.22792 524.18608,417.87857 522.9938,418.55266 z"
         style="fill:#ff0000;fill-opacity:1;stroke:#000000;stroke-width:5.73700285;stroke-miterlimit:4;stroke-dasharray:none;stroke-opacity:1" />
      <path
         id="path4177"
         d="M 462.01228,397.33369 C 453.56668,399.05151 445.40919,402.9053 436.43888,401.80194 C 430.64812,401.19884 424.86483,401.40729 419.08807,401.27622 C 409.06515,399.91823 399.6825,395.6779 389.82491,393.48271 C 380.19242,391.28718 371.79458,385.94073 363.33138,381.11585 C 353.64472,375.28134 346.6009,366.27243 341.30048,356.7182 C 338.11923,351.98127 334.96365,347.21241 332.11907,342.29596 C 334.36218,338.03124 341.19158,336.52961 345.89878,334.70356 C 355.64888,332.54197 365.83742,332.44483 375.86733,332.10643 C 386.28583,332.37268 396.97389,332.2124 406.95678,336.02115 C 416.48991,338.26074 424.80355,343.54026 432.94486,348.71876 C 439.44961,353.51171 445.36642,359.05366 451.15519,364.61524 C 457.8864,373.01208 456.69759,384.03239 460.78191,393.40902 C 461.21883,394.71024 461.62914,396.01877 462.01228,397.33369 z"
         style="fill:#ff0000;fill-opacity:1;stroke:#000000;stroke-width:5.73700285;stroke-miterlimit:4;stroke-dasharray:none;stroke-opacity:1" />
      <path
         id="path4179"
         d="M 497.15482,373.5493 C 495.05684,365.35739 490.74451,357.35387 491.56587,348.77457 C 491.98237,343.23169 491.55378,337.66228 491.47913,332.11327 C 492.52721,322.53243 496.60094,313.68688 498.52712,304.29975 C 500.4618,295.12905 505.72365,287.27632 510.43988,279.33911 C 516.16303,270.26744 525.28923,263.86865 535.04715,259.16882 C 539.86484,256.30663 544.71666,253.47042 549.73369,250.93941 C 554.25779,253.27324 556.0716,259.90217 558.14565,264.50401 C 560.75356,273.96863 561.22723,283.76914 561.94642,293.42715 C 562.04997,303.43367 562.60758,313.71707 559.00537,323.15771 C 557.02103,332.23098 551.82592,340.00559 546.72962,347.61863 C 541.975,353.67407 536.41881,359.13313 530.83748,364.46827 C 522.33739,370.59185 510.81523,368.99133 501.19787,372.52925 C 499.85849,372.89532 498.51042,373.23556 497.15482,373.5493 z"
         style="fill:#ff0000;fill-opacity:1;stroke:#000000;stroke-width:5.73700285;stroke-miterlimit:4;stroke-dasharray:none;stroke-opacity:1" />
      <path
         id="path4181"
         d="M 498.68978,419.79579 C 496.35038,427.53515 491.71603,434.76059 492.01959,443.17856 C 492.0669,448.73946 491.70679,454.26668 491.14981,459.76731 C 491.55081,469.68954 495.42912,479.20826 496.93733,489.02319 C 498.12703,496.55777 501.59865,503.49194 505.08778,510.32311 C 510.05701,521.43358 518.90767,530.78943 529.63194,537.1135 C 535.11621,540.84184 540.30298,545.13005 546.09216,548.34678 C 550.17451,545.51519 552.49592,540.15438 554.60583,535.65161 C 557.58654,526.76841 558.43939,517.30464 559.63544,508.02246 C 560.10667,498.42279 561.38135,488.60432 558.56884,479.08682 C 556.98896,472.2184 555.13916,465.33471 551.27556,459.18872 C 546.94662,449.69021 539.67489,441.87788 532.96528,433.85166 C 525.20972,425.84393 513.08644,426.20398 503.49609,421.60993 C 501.9072,420.97074 500.30537,420.36356 498.68978,419.79579 z"
         style="fill:#ff0000;fill-opacity:1;stroke:#000000;stroke-width:5.73700285;stroke-miterlimit:4;stroke-dasharray:none;stroke-opacity:1" />
      <path
         id="path4183"
         d="M 519.47464,396.86258 C 528.40076,399.2837 537.15491,403.82818 546.58926,402.85008 C 554.49991,402.5635 562.57058,404.36986 570.28238,402.31866 C 578.63908,400.47306 586.8494,398.11172 595.30761,396.64216 C 604.28307,394.14019 612.48217,389.70353 620.42489,385.183 C 629.13225,379.70045 635.25387,371.42545 640.18008,362.75561 C 643.13253,358.32539 646.31595,354.01544 648.69707,349.24867 C 642.65781,343.23948 633.89993,340.66617 625.66521,339.26523 C 611.47557,337.18132 597.0443,335.73881 582.82966,336.92867 C 573.00711,338.65452 563.04754,341.02859 554.60128,346.14489 C 545.06254,350.90192 537.12092,358.04916 529.53861,365.19294 C 523.12091,373.46145 524.4774,384.70789 520.34362,393.95151 C 520.03869,394.91704 519.74844,395.88739 519.47464,396.86258 z"
         style="fill:#ff0000;fill-opacity:1;stroke:#000000;stroke-width:5.73700285;stroke-miterlimit:4;stroke-dasharray:none;stroke-opacity:1" />
      <path
         id="path4185"
         d="M 483.77377,374.88269 C 485.36618,366.94715 489.26722,359.31144 488.17591,350.93016 C 487.60181,345.37676 487.43519,339.82133 487.46639,334.27519 C 486.12788,324.39401 481.37713,315.22041 478.95005,305.54324 C 476.63572,296.52732 471.13917,288.7073 466.18342,280.80258 C 460.15446,271.61786 450.99464,264.70963 441.03973,259.83038 C 435.57851,256.70298 430.28052,253.12131 424.55012,250.5567 C 420.76761,253.74382 418.97236,259.30449 417.30554,263.98925 C 415.18988,273.12808 415.24076,282.66075 414.93377,292.04206 C 415.37291,301.67727 415.05382,311.60107 418.73525,320.86704 C 420.95405,327.59317 423.44218,334.31085 427.85863,340.11506 C 433.05468,349.22905 441.01103,356.40035 448.42981,363.83462 C 456.88473,371.15895 468.88052,369.73817 478.83247,373.49019 C 480.46973,373.99003 482.11679,374.45668 483.77377,374.88269 z"
         style="fill:#ff0000;fill-opacity:1;stroke:#000000;stroke-width:5.73700285;stroke-miterlimit:4;stroke-dasharray:none;stroke-opacity:1" />
      <path
         id="path4187"
         d="M 469.1727,414.66313 C 465.44535,421.83789 463.72001,430.24665 457.6265,436.06245 C 453.71087,440.01131 450.11048,444.22046 446.66954,448.54796 C 439.45621,455.37286 430.03466,459.48151 422.10333,465.45669 C 415.99193,470.02148 408.66573,472.56324 401.39882,475.0191 C 390.08494,479.50598 377.21654,480.02702 365.12293,477.0693 C 358.59344,475.91062 351.88601,475.36055 345.4953,473.62277 C 344.54868,468.74552 346.62856,463.28656 348.26091,458.58953 C 352.32755,450.14795 358.32299,442.77618 363.94593,435.2947 C 370.3096,428.09194 376.25062,420.17171 384.90818,415.31997 C 390.83397,411.50459 396.96369,407.86679 404.02039,406.16293 C 413.75059,402.38335 424.41092,401.86535 434.81803,400.80184 C 445.96117,400.48166 454.39073,409.20213 464.46471,412.60715 C 466.04868,413.25852 467.61953,413.94191 469.1727,414.66313 z"
         style="fill:#ff0000;fill-opacity:1;stroke:#000000;stroke-width:5.73700285;stroke-miterlimit:4;stroke-dasharray:none;stroke-opacity:1" />
      <path
         transform="matrix(0.5464765,0.222294,-0.2102107,0.5167714,534.67553,23.606224)"
         d="M 265.60203,656.9328 A 89.581749,89.581749 0 1 1 86.43853,656.9328 A 89.581749,89.581749 0 1 1 265.60203,656.9328 z"
         sodipodi:ry="89.581749"
         sodipodi:rx="89.581749"
         sodipodi:cy="656.9328"
         sodipodi:cx="176.02028"
         id="path4189"
         style="fill:#ffcc00;fill-opacity:1;stroke:#000000;stroke-width:10;stroke-miterlimit:4;stroke-dasharray:none;stroke-opacity:1"
         sodipodi:type="arc" />
      <path
         sodipodi:nodetypes="cccccc"
         id="path4191"
         d="M 528.88288,394.17553 C 534.0538,402.86103 530.90767,413.60283 526.77928,422.0346 C 522.9375,430.23131 516.1471,437.08221 507.51781,440.10333 C 500.05626,442.99536 491.83327,443.42258 483.95333,442.58139 C 480.33092,439.95464 488.83695,439.18133 490.81736,438.28887 C 513.87328,433.26575 520.93462,412.39853 528.88288,394.17553 z"
         style="opacity:1;fill:#ffdd55;fill-opacity:1;stroke:none;stroke-width:5;stroke-miterlimit:4;stroke-dasharray:none;stroke-opacity:1" />
      <path
         sodipodi:nodetypes="cccccc"
         id="path4193"
         d="M 451.4294,406.0421 C 447.59985,396.68738 452.29999,386.52898 457.62996,378.80048 C 462.64172,371.26207 470.37063,365.49074 479.35183,363.77903 C 487.15903,362.0223 495.35478,362.81588 503.02367,364.81319 C 506.21777,367.94677 497.69091,367.45362 495.60029,368.04338 C 472.05503,369.60151 461.98527,389.19496 451.4294,406.0421 z"
         style="opacity:1;fill:#d4aa00;fill-opacity:1;stroke:none;stroke-width:5;stroke-miterlimit:4;stroke-dasharray:none;stroke-opacity:1" />
      <path
         sodipodi:nodetypes="cccc"
         id="path4195"
         d="M 544.70553,436.77997 C 563.03099,453.01731 567.77751,456.31233 590.48061,463.91263 C 600.38371,466.59965 627.64619,475.59551 635.3616,464.80044 C 604.29064,463.73477 573.87033,450.3091 544.70553,436.77997 z"
         style="opacity:1;fill:#ff8080;fill-opacity:1;stroke:none;stroke-width:5;stroke-miterlimit:4;stroke-dasharray:none;stroke-opacity:1" />
      <path
         sodipodi:nodetypes="cccc"
         id="path4197"
         d="M 552.69732,394.53409 C 577.12883,392.9294 582.80959,391.87322 604.18102,381.08169 C 613.0567,375.93253 638.62712,362.88178 636.38085,349.8045 C 613.76841,371.14034 582.82808,383.31981 552.69732,394.53409 z"
         style="opacity:1;fill:#ff8080;fill-opacity:1;stroke:none;stroke-width:5;stroke-miterlimit:4;stroke-dasharray:none;stroke-opacity:1" />
      <path
         sodipodi:nodetypes="cccc"
         id="path4199"
         d="M 527.26885,357.60369 C 542.27171,338.25459 545.80458,342.19292 551.90236,319.04098 C 553.93533,308.98321 560.57154,272.29994 549.29455,265.30776 C 555.65175,299.07512 542.2668,329.31932 527.26885,357.60369 z"
         style="opacity:1;fill:#ff8080;fill-opacity:1;stroke:none;stroke-width:5;stroke-miterlimit:4;stroke-dasharray:none;stroke-opacity:1" />
      <path
         sodipodi:nodetypes="cccc"
         id="path4201"
         d="M 444.9445,369.73877 C 426.12673,354.07464 421.2808,350.92765 398.35399,344.03152 C 388.37269,341.65137 360.8456,335.16798 343.46531,345.08469 C 374.55436,345.19109 415.37612,357.11603 444.9445,369.73877 z"
         style="opacity:1;fill:#aa0000;fill-opacity:1;stroke:none;stroke-width:5;stroke-miterlimit:4;stroke-dasharray:none;stroke-opacity:1" />
      <path
         sodipodi:nodetypes="cccc"
         id="path4203"
         d="M 437.04848,406.32485 C 412.93213,410.55265 407.39823,412.21476 387.31399,425.24621 C 379.04481,431.32174 356.30111,448.12945 352.62898,467.80001 C 372.81086,444.15193 408.30147,420.72038 437.04848,406.32485 z"
         style="opacity:1;fill:#aa0000;fill-opacity:1;stroke:none;stroke-width:5;stroke-miterlimit:4;stroke-dasharray:none;stroke-opacity:1" />
      <path
         sodipodi:nodetypes="cccc"
         id="path4205"
         d="M 458.05594,447.3412 C 441.4039,465.29065 441.89075,464.95976 433.77341,487.48318 C 430.8607,497.32226 428.46494,515.01547 437.43402,532.9032 C 435.61969,502.76224 441.59099,476.75723 458.05594,447.3412 z"
         style="opacity:1;fill:#aa0000;fill-opacity:1;stroke:none;stroke-width:5;stroke-miterlimit:4;stroke-dasharray:none;stroke-opacity:1" />
      <path
         sodipodi:nodetypes="cccc"
         id="path4207"
         d="M 481.57336,348.68087 C 479.10022,326.77188 479.94548,318.49091 466.98716,298.35941 C 463.16433,288.95687 443.36763,263.73602 428.92841,261.21972 C 457.80009,281.71921 476.53948,315.66918 481.57336,348.68087 z"
         style="opacity:1;fill:#ff8080;fill-opacity:1;stroke:none;stroke-width:5;stroke-miterlimit:4;stroke-dasharray:none;stroke-opacity:1" />
      <path
         sodipodi:nodetypes="cccc"
         id="path4209"
         d="M 496.71279,453.0594 C 499.18593,474.96839 498.34067,483.24936 511.29899,503.38086 C 515.12182,512.7834 529.91769,535.78166 544.35691,538.29796 C 520.48606,517.24282 501.74667,486.07109 496.71279,453.0594 z"
         style="opacity:1;fill:#aa0000;fill-opacity:1;stroke:none;stroke-width:5;stroke-miterlimit:4;stroke-dasharray:none;stroke-opacity:1" />
    </g>
    <g
       id="g4270"
       transform="matrix(0.7151089,0.1811208,-0.154518,0.6581614,416.00306,412.93009)"
       inkscape:transform-center-x="-23.74767"
       inkscape:transform-center-y="-1.2944868">
      <g
         id="g4311"
         transform="translate(-5.970415,-17.460019)">
        <path
           style="fill:#6600ff;fill-opacity:1;stroke:#000000;stroke-width:5.73700285;stroke-miterlimit:4;stroke-dasharray:none;stroke-opacity:1"
           d="M 488.91622,459.04782 C 482.92104,465.25117 475.12212,470.22921 471.43367,478.1703 C 468.95273,483.24621 465.73297,487.94112 462.82741,492.78744 C 458.82067,501.7181 457.78681,511.44969 454.63276,520.63017 C 451.59688,529.62423 452.09097,539.05089 452.07358,548.29084 C 452.33935,559.0105 456.89406,569.00696 462.86083,577.81114 C 465.52932,582.63446 468.24042,587.45133 471.24956,592.07878 C 476.32684,592.19033 481.27787,587.22602 485.41418,584.16968 C 492.49863,577.09064 497.92372,568.69486 503.48645,560.54184 C 508.69939,551.78767 514.44389,543.00711 516.18703,532.9777 C 519.13045,524.04543 518.65358,514.71958 518.17875,505.58299 C 517.19966,497.9804 515.22723,490.51886 513.16979,483.15439 C 509.01145,473.69957 498.30446,469.59441 491.86329,461.87981 C 490.90141,460.91682 489.91883,459.97251 488.91622,459.04782 z"
           id="path4232" />
        <path
           style="fill:#6600ff;fill-opacity:1;stroke:#000000;stroke-width:5.73700285;stroke-miterlimit:4;stroke-dasharray:none;stroke-opacity:1"
           d="M 532.47789,447.11846 C 538.74218,452.77577 543.63487,460.15322 551.83293,463.6095 C 557.06763,465.93592 561.86783,468.96623 566.84155,471.69723 C 576.06772,475.4501 586.27098,476.37489 595.79843,479.31639 C 605.135,482.14689 615.08573,481.62236 624.81677,481.58472 C 636.11914,481.26942 646.8526,476.88522 656.39343,471.16693 C 661.5936,468.60438 666.78875,466.00143 671.79772,463.11656 C 672.14332,458.29395 667.13718,453.62105 664.10408,449.71071 C 656.96638,443.0241 648.36734,437.92115 640.03023,432.68602 C 631.04427,427.7866 622.0544,422.38258 611.56918,420.78591 C 602.29376,418.04284 592.44987,418.55042 582.8056,419.05489 C 574.75413,420.0294 566.80675,421.94628 558.95778,423.94352 C 548.81268,427.9481 544.00782,438.14066 535.59321,444.30303 C 534.53569,445.22216 533.49698,446.16088 532.47789,447.11846 z"
           id="path4234" />
        <path
           style="fill:#6600ff;fill-opacity:1;stroke:#000000;stroke-width:5.73700285;stroke-miterlimit:4;stroke-dasharray:none;stroke-opacity:1"
           d="M 468.38657,442.17956 C 460.51087,446.00324 453.37542,451.82091 444.38127,453.04783 C 438.59858,453.94555 432.99757,455.62697 427.32998,456.97804 C 417.25353,458.22778 407.18277,456.52349 397.08783,456.92048 C 387.21255,457.25956 377.8655,454.23255 368.56674,451.72715 C 357.85664,448.55742 349.04443,441.63859 341.817,433.74583 C 337.69351,429.97421 333.58821,426.16512 329.75481,422.13359 C 331.0282,417.43129 337.37256,414.23038 341.57547,411.25838 C 350.62931,406.67136 360.55475,403.97064 370.2735,401.07695 C 380.50153,398.66916 390.90107,395.77951 401.46506,396.91244 C 411.2528,396.64144 420.50326,399.6252 429.56378,402.55527 C 436.9438,405.53081 443.91081,409.38183 450.75703,413.28462 C 459.13254,419.69092 460.34004,430.66315 466.34211,438.69512 C 467.04825,439.84296 467.72998,441.00469 468.38657,442.17956 z"
           id="path4236" />
        <path
           style="fill:#6600ff;fill-opacity:1;stroke:#000000;stroke-width:5.73700285;stroke-miterlimit:4;stroke-dasharray:none;stroke-opacity:1"
           d="M 497.58285,410.16432 C 493.77447,402.77101 487.84486,396.12659 486.80317,387.61137 C 486.01871,382.13909 484.40355,376.85735 483.1383,371.5048 C 482.10273,361.96204 484.17888,352.35698 484.04216,342.77708 C 483.96024,333.40452 487.4096,324.45657 490.30816,315.56643 C 493.94593,305.32047 501.4802,296.7913 509.99624,289.74517 C 514.08437,285.74188 518.2114,281.75501 522.56529,278.02131 C 527.48333,279.12308 530.67845,285.07607 533.69204,289.00019 C 538.27171,297.49507 540.84006,306.86114 543.61747,316.02645 C 545.86876,325.68665 548.62281,335.4987 547.13485,345.5592 C 547.14735,354.85015 543.74636,363.7054 540.40711,372.37898 C 537.06671,379.45732 532.81566,386.16342 528.51343,392.75599 C 521.53125,400.85855 509.93909,402.25708 501.3106,408.14248 C 500.08172,408.83952 498.83881,409.51379 497.58285,410.16432 z"
           id="path4238" />
        <path
           style="fill:#6600ff;fill-opacity:1;stroke:#000000;stroke-width:5.73700285;stroke-miterlimit:4;stroke-dasharray:none;stroke-opacity:1"
           d="M 509.01879,454.53993 C 508.39804,462.63045 505.42647,470.81062 507.53167,478.88186 C 508.77278,484.25292 509.60892,489.69561 510.24716,495.16292 C 512.77072,504.66542 518.60222,512.88764 522.18361,522.00299 C 524.96406,528.99237 529.84316,534.8167 534.71723,540.53685 C 541.95574,550.02085 552.60638,556.81325 564.43462,560.19143 C 570.58966,562.39748 576.57457,565.22161 582.91734,566.85439 C 586.29418,563.06886 587.40847,557.28547 588.50067,552.38681 C 589.50169,543.02494 588.30069,533.64546 587.47375,524.35396 C 585.87099,514.94056 585.00557,505.1098 580.2148,496.61607 C 577.19659,490.37139 573.9116,484.18098 568.8192,479.21992 C 562.55213,471.13255 553.77455,465.43036 545.49977,459.37731 C 536.20789,453.60975 524.45018,457.05998 514.10066,455.06642 C 512.41219,454.85417 510.71797,454.67622 509.01879,454.53993 z"
           id="path4240" />
        <path
           style="fill:#6600ff;fill-opacity:1;stroke:#000000;stroke-width:5.73700285;stroke-miterlimit:4;stroke-dasharray:none;stroke-opacity:1"
           d="M 524.38162,427.02202 C 533.61579,427.08205 543.13835,429.24156 552.13824,425.88099 C 559.79924,423.57966 568.0662,423.26344 575.1539,419.30477 C 582.91535,415.38014 590.42308,410.9937 598.36443,407.40712 C 606.58889,402.68879 613.63972,396.29623 620.42224,389.88808 C 627.74451,382.35303 631.94246,372.77633 634.88858,363.12325 C 636.81887,358.07926 639.00049,353.09261 640.30072,347.869 C 633.11377,343.597 624.01114,343.3466 615.67115,344.09725 C 601.37106,345.71031 586.9729,348.00608 573.35187,352.79466 C 564.13368,356.9784 554.92102,361.8247 547.77495,368.93841 C 539.48517,375.98384 533.26815,384.93446 527.40116,393.78981 C 522.91277,403.43597 526.65365,413.97589 524.60441,423.98167 C 524.51421,424.99435 524.43937,426.00795 524.38162,427.02202 z"
           id="path4242" />
        <path
           style="fill:#6600ff;fill-opacity:1;stroke:#000000;stroke-width:5.73700285;stroke-miterlimit:4;stroke-dasharray:none;stroke-opacity:1"
           d="M 484.80643,414.87857 C 484.6558,406.78927 486.82333,398.39955 483.95699,390.56537 C 482.20322,385.33635 480.84681,380.00111 479.68551,374.62426 C 476.25555,365.40136 469.64652,357.73644 465.1977,348.98953 C 461.00105,340.8539 453.9548,334.69009 447.4183,328.30594 C 439.55905,320.95727 429.13254,316.61334 418.36584,314.43697 C 412.36243,312.80676 406.42076,310.69503 400.27551,309.67849 C 397.26777,313.73148 396.71008,319.57372 396.08955,324.53519 C 395.98794,333.9232 398.086,343.13817 399.80216,352.29817 C 402.30128,361.51306 404.12221,371.2013 409.70719,379.22923 C 413.31856,385.1727 417.19103,391.03909 422.7497,395.52785 C 429.78064,403.02115 439.08881,407.92764 447.9287,413.22623 C 457.75648,418.1533 469.16179,413.70886 479.68338,414.79479 C 481.38913,414.85977 483.09731,414.89011 484.80643,414.87857 z"
           id="path4244" />
        <path
           style="fill:#6600ff;fill-opacity:1;stroke:#000000;stroke-width:5.73700285;stroke-miterlimit:4;stroke-dasharray:none;stroke-opacity:1"
           d="M 479.10052,457.12314 C 477.00349,465.0222 477.12605,473.60362 472.4271,480.79252 C 469.45309,485.61696 466.84276,490.61272 464.41351,495.68225 C 458.83821,504.13451 450.52351,510.5223 444.06468,518.33569 C 439.07945,524.31815 432.47359,528.65304 425.90716,532.88961 C 415.82638,540.12769 403.37587,543.92439 390.9342,544.15531 C 384.31097,544.7042 377.6448,545.88778 371.0326,545.84058 C 369.06046,541.36141 369.91786,535.54481 370.50211,530.58028 C 372.65814,521.36808 376.927,512.69803 380.80865,504.01707 C 385.47329,495.41642 389.57119,486.22935 396.98038,479.31769 C 401.94544,474.10817 407.14775,469.01838 413.67056,465.56356 C 422.35729,459.41536 432.65288,456.18652 442.58405,452.49439 C 453.39348,449.33352 463.4965,455.61859 474.06266,456.33739 C 475.74894,456.56269 477.42929,456.82235 479.10052,457.12314 z"
           id="path4246" />
        <path
           sodipodi:type="arc"
           style="fill:#ffcc00;fill-opacity:1;stroke:#000000;stroke-width:10;stroke-miterlimit:4;stroke-dasharray:none;stroke-opacity:1"
           id="path4248"
           sodipodi:cx="176.02028"
           sodipodi:cy="656.9328"
           sodipodi:rx="89.581749"
           sodipodi:ry="89.581749"
           d="M 265.60203,656.9328 A 89.581749,89.581749 0 1 1 86.43853,656.9328 A 89.581749,89.581749 0 1 1 265.60203,656.9328 z"
           transform="matrix(0.5812516,7.5375297e-2,-9.4169271e-2,0.5540354,459.01567,61.806878)" />
        <path
           style="opacity:1;fill:#ffdd55;fill-opacity:1;stroke:none;stroke-width:5;stroke-miterlimit:4;stroke-dasharray:none;stroke-opacity:1"
           d="M 532.98881,422.0138 C 539.90314,429.09873 539.14,440.30211 536.92158,449.52061 C 534.93245,458.43824 529.7756,466.80746 522.00064,471.93978 C 515.33791,476.64837 507.40221,479.16575 499.52885,480.3675 C 495.42812,478.75148 503.56576,475.82666 505.30732,474.45605 C 526.73575,463.69473 529.14527,441.68787 532.98881,422.0138 z"
           id="path4250"
           sodipodi:nodetypes="cccccc" />
        <path
           style="opacity:1;fill:#d4aa00;fill-opacity:1;stroke:none;stroke-width:5;stroke-miterlimit:4;stroke-dasharray:none;stroke-opacity:1"
           d="M 459.92654,453.31721 C 454.17789,445.24126 456.58345,434.20504 460.12601,425.35992 C 463.39876,416.78022 469.70379,409.21595 478.10366,405.26115 C 485.34777,401.56313 493.51921,400.2345 501.43496,400.20592 C 505.22647,402.42215 496.79636,404.12632 494.88217,405.23211 C 472.23147,412.76438 466.61134,434.30788 459.92654,453.31721 z"
           id="path4252"
           sodipodi:nodetypes="cccccc" />
        <path
           style="opacity:1;fill:#8d5fd3;fill-opacity:1;stroke:none;stroke-width:5;stroke-miterlimit:4;stroke-dasharray:none;stroke-opacity:1"
           d="M 557.59016,459.20833 C 578.96905,470.23819 584.31076,472.21352 608.10729,473.7624 C 618.35235,473.82988 646.89974,475.56322 652.11208,463.13924 C 621.55079,470.05699 588.96876,464.84335 557.59016,459.20833 z"
           id="path4254"
           sodipodi:nodetypes="cccc" />
        <path
           style="opacity:1;fill:#8d5fd3;fill-opacity:1;stroke:none;stroke-width:5;stroke-miterlimit:4;stroke-dasharray:none;stroke-opacity:1"
           d="M 556.31414,416.26808 C 579.82002,408.46399 585.13878,405.98817 603.68325,390.07378 C 611.24147,382.8184 633.39965,363.64271 628.39673,351.55811 C 610.90652,377.99729 583.31887,397.70342 556.31414,416.26808 z"
           id="path4256"
           sodipodi:nodetypes="cccc" />
        <path
           style="opacity:1;fill:#8d5fd3;fill-opacity:1;stroke:none;stroke-width:5;stroke-miterlimit:4;stroke-dasharray:none;stroke-opacity:1"
           d="M 523.55458,387.02384 C 534.04303,364.45477 538.33818,367.36335 539.3161,343.39132 C 539.13952,333.1349 537.73545,295.92628 525.22407,292.04276 C 538.68608,323.10436 532.11822,355.80635 523.55458,387.02384 z"
           id="path4258"
           sodipodi:nodetypes="cccc" />
        <path
           style="opacity:1;fill:#442178;fill-opacity:1;stroke:none;stroke-width:5;stroke-miterlimit:4;stroke-dasharray:none;stroke-opacity:1"
           d="M 445.79494,419.83336 C 424.05861,409.48435 418.65166,407.67775 394.78804,406.86777 C 384.53258,407.11736 356.26676,407.88388 341.43056,421.93029 C 371.80338,414.0793 414.21712,415.17902 445.79494,419.83336 z"
           id="path4260"
           sodipodi:nodetypes="cccc" />
        <path
           style="opacity:1;fill:#442178;fill-opacity:1;stroke:none;stroke-width:5;stroke-miterlimit:4;stroke-dasharray:none;stroke-opacity:1"
           d="M 445.94826,457.27021 C 423.3137,467.53295 418.26852,470.55775 401.46195,488.31114 C 394.69486,496.30812 376.1035,518.39748 376.74549,538.37881 C 391.36608,510.32314 420.97798,478.56042 445.94826,457.27021 z"
           id="path4262"
           sodipodi:nodetypes="cccc" />
        <path
           style="opacity:1;fill:#442178;fill-opacity:1;stroke:none;stroke-width:5;stroke-miterlimit:4;stroke-dasharray:none;stroke-opacity:1"
           d="M 475.26991,491.6009 C 462.87073,513.23699 463.27491,512.79212 460.19038,536.67241 C 459.46114,546.94221 460.92426,564.68284 473.52384,579.70413 C 465.27594,550.99075 465.51732,524.2892 475.26991,491.6009 z"
           id="path4264"
           sodipodi:nodetypes="cccc" />
        <path
           style="opacity:1;fill:#8d5fd3;fill-opacity:1;stroke:none;stroke-width:5;stroke-miterlimit:4;stroke-dasharray:none;stroke-opacity:1"
           d="M 477.02808,390.0772 C 469.90592,369.50123 468.95167,361.26868 451.97555,345.09597 C 446.22318,336.97201 421.47764,317.62219 406.84099,318.88053 C 439.43123,331.33811 465.02031,359.40855 477.02808,390.0772 z"
           id="path4266"
           sodipodi:nodetypes="cccc" />
        <path
           style="opacity:1;fill:#442178;fill-opacity:1;stroke:none;stroke-width:5;stroke-miterlimit:4;stroke-dasharray:none;stroke-opacity:1"
           d="M 514.23649,487.24615 C 521.35865,507.82213 522.3129,516.05467 539.28902,532.22739 C 545.04139,540.35134 564.42739,558.82905 579.06405,557.57072 C 551.23635,543.29581 526.24426,517.9148 514.23649,487.24615 z"
           id="path4268"
           sodipodi:nodetypes="cccc" />
      </g>
    </g>
    <path
       style="opacity:1;fill:#5aa02c;fill-opacity:1;stroke:none;stroke-width:5;stroke-miterlimit:4;stroke-dasharray:none;stroke-opacity:1"
       d="M 1235.2852,716.75031 C 1249.3619,796.04603 1239.2507,888.56909 1244.206,965.82463 C 1242.1218,986.37266 1249.9316,1019.3342 1244.5359,1032.6359 C 1237.3268,996.92198 1239.7354,960.15267 1237.8704,923.95621 L 1235.2852,716.75031 L 1235.2852,716.75031 z"
       id="path4332"
       sodipodi:nodetypes="cccccc" />
    <path
       style="opacity:1;fill:#5aa02c;fill-opacity:1;stroke:none;stroke-width:5;stroke-miterlimit:4;stroke-dasharray:none;stroke-opacity:1"
       d="M 197.13353,1027.2223 C 207.25621,947.32547 192.56414,855.41847 193.67795,778.01219 C 190.57621,757.59299 196.73999,724.2843 190.69058,711.26687 C 185.26339,747.29465 189.49445,783.8991 189.42874,820.14351 L 197.13353,1027.2223 L 197.13353,1027.2223 z"
       id="path4337"
       sodipodi:nodetypes="cccccc" />
    <path
       style="opacity:1;fill:#5aa02c;fill-opacity:1;stroke:none;stroke-width:5;stroke-miterlimit:4;stroke-dasharray:none;stroke-opacity:1"
       d="M 433.3516,873.49866 C 435.1535,897.34597 433.96315,938.34803 433.00862,979.733 C 433.0785,997.07556 434.36584,1002.3603 429.63782,1019.0777 C 431.80225,987.14214 431.27893,922.88573 433.3516,873.49866 z"
       id="path4339"
       sodipodi:nodetypes="cccc" />
    <path
       style="opacity:1;fill:#5aa02c;fill-opacity:1;stroke:none;stroke-width:5;stroke-miterlimit:4;stroke-dasharray:none;stroke-opacity:1"
       d="M 706.54055,855.5001 C 709.96206,861.8445 705.89174,926.73943 708.25947,970.34699 C 708.35019,987.68955 707.85734,991.86307 705.32594,1016.3595 C 705.21461,983.86135 703.24727,904.77119 706.54055,855.5001 z"
       id="path4343"
       sodipodi:nodetypes="cccc" />
    <path
       style="opacity:1;fill:#5aa02c;fill-opacity:1;stroke:none;stroke-width:5;stroke-miterlimit:4;stroke-dasharray:none;stroke-opacity:1"
       d="M 981.08125,855.50011 C 984.67742,907.93997 981.10189,963.44837 975.69928,1016.0817 C 977.35813,984.29161 979.72064,905.54427 981.08125,855.50011 z"
       id="path4345"
       sodipodi:nodetypes="ccc" />
    <path
       style="opacity:1;fill:none;fill-opacity:1;stroke:#000000;stroke-width:5;stroke-miterlimit:4;stroke-dasharray:none;stroke-opacity:1"
       d="M 222.51758,317.24953 C 256.11198,341.78019 302.89407,371.56507 343.93095,346.38942 C 383.01612,325.28881 405.58469,249.72207 348.48976,238.16711 C 291.10754,233.54458 281.26508,318.47795 328.9134,339.82962 C 386.88261,377.6148 460.73646,352.7698 516.05106,317.24131 C 551.932,294.19502 565.70734,232.67249 524.07024,216.88492 C 472.47936,217.93538 524.72361,287.68649 559.12996,293.0879 C 604.63622,300.23187 640.88588,275.93881 678.2511,258.43656 C 723.53949,239.25876 764.16641,278.0947 805.36347,291.05557 C 856.52522,309.92333 917.80562,324.30004 967.0833,302.90792 C 999.82491,288.69432 1027.2146,232.95042 1002.4274,198.20392 C 955.01322,168.38799 926.70592,266.53874 983.2984,271.06795 C 1034.1874,289.71554 1089.6547,279.77488 1142.1184,275.6113 C 1232.9669,259.79642 1344.3738,211.07431 1345.9286,116.72983 C 1347.6803,71.880042 1313.1145,35.098142 1268.897,33.330685 C 1230.541,24.636385 1176.1033,28.999903 1159.4648,70.661736 C 1157.2042,80.115271 1158.3794,90.641298 1163.9118,98.795788"
       id="path4347"
       sodipodi:nodetypes="ccccscsccsccccccc" />
  </g>
</svg>
