<?xml version="1.0" encoding="UTF-8" standalone="no"?>
<!-- Created with Inkscape (http://www.inkscape.org/) -->
<svg
   xmlns:dc="http://purl.org/dc/elements/1.1/"
   xmlns:cc="http://creativecommons.org/ns#"
   xmlns:rdf="http://www.w3.org/1999/02/22-rdf-syntax-ns#"
   xmlns:svg="http://www.w3.org/2000/svg"
   xmlns="http://www.w3.org/2000/svg"
   xmlns:sodipodi="http://sodipodi.sourceforge.net/DTD/sodipodi-0.dtd"
   xmlns:inkscape="http://www.inkscape.org/namespaces/inkscape"
   width="1400"
   height="1024"
   id="svg2"
   sodipodi:version="0.32"
   inkscape:version="0.46"
   sodipodi:docname="mowedgrass.svg"
   inkscape:output_extension="org.inkscape.output.svg.inkscape"
   inkscape:export-filename="P:\pidgey\data\images\awards.png"
   inkscape:export-xdpi="90"
   inkscape:export-ydpi="90"
   version="1.0">
  <defs
     id="defs4">
    <inkscape:perspective
       sodipodi:type="inkscape:persp3d"
       inkscape:vp_x="0 : 125 : 1"
       inkscape:vp_y="0 : 1000 : 0"
       inkscape:vp_z="250 : 125 : 1"
       inkscape:persp3d-origin="125 : 83.333333 : 1"
       id="perspective3645" />
  </defs>
  <sodipodi:namedview
     id="base"
     pagecolor="#000000"
     bordercolor="#666666"
     borderopacity="1.0"
     gridtolerance="10000"
     guidetolerance="10"
     objecttolerance="10"
     inkscape:pageopacity="0"
     inkscape:pageshadow="2"
     inkscape:zoom="0.5448313"
     inkscape:cx="468.55415"
     inkscape:cy="507.37313"
     inkscape:document-units="px"
     inkscape:current-layer="layer1"
     showgrid="false"
     inkscape:window-width="1677"
     inkscape:window-height="994"
     inkscape:window-x="3"
     inkscape:window-y="22"
     showguides="true"
     inkscape:guide-bbox="true" />
  <metadata
     id="metadata7">
    <rdf:RDF>
      <cc:Work
         rdf:about="">
        <dc:format>image/svg+xml</dc:format>
        <dc:type
           rdf:resource="http://purl.org/dc/dcmitype/StillImage" />
      </cc:Work>
    </rdf:RDF>
  </metadata>
  <g
     inkscape:label="Layer 1"
     inkscape:groupmode="layer"
     id="layer1">
    <rect
       style="opacity:1;fill:#008000;fill-opacity:1;stroke:none;stroke-width:5;stroke-miterlimit:4;stroke-dasharray:none;stroke-opacity:1"
       id="rect3367"
       width="1418.5298"
       height="1041.3345"
       x="-9.2775269"
       y="-8.0568562" />
    <path
       style="opacity:1;fill:#ffffff;fill-opacity:0.12209302;stroke:none;stroke-width:2.33999991000000000;stroke-miterlimit:4;stroke-dasharray:none;stroke-opacity:1"
       d="M -55.062916,71.41156 C 72.416339,79.309073 205.81055,68.276725 333.28278,77.319349 C 714.03006,85.084143 1083.8653,67.068105 1464.6328,69.995079 C 1486.3102,94.763895 1487.1378,196.28848 1426.6279,180.87099 C 1321.5914,192.16914 1215.8032,184.39011 1110.4049,189.86314 C 942.27299,191.95201 774.04863,188.03405 606.05978,197.37873 C 407.49482,198.0456 208.89433,198.55268 10.353107,200.70284 C -26.648933,199.68927 -81.122772,201.98256 -66.075499,147.81855 C -60.519908,135.18534 -86.284312,48.011415 -55.062916,71.41156 z"
       id="path2948"
       sodipodi:nodetypes="ccccccccc" />
    <path
       style="opacity:1;fill:#ffffff;fill-opacity:0.12209302;stroke:none;stroke-width:2.33999991000000000;stroke-miterlimit:4;stroke-dasharray:none;stroke-opacity:1"
       d="M -74.078495,269.38156 C 53.400755,277.27907 186.79497,266.24672 314.2672,275.28935 C 695.01448,283.05414 1064.8497,265.0381 1445.6173,267.96508 C 1467.2947,292.73389 1468.1223,394.25848 1407.6123,378.84099 C 1302.5758,390.13914 1196.7876,382.36011 1091.3893,387.83314 C 923.25741,389.92201 755.03305,386.00405 587.0442,395.34873 C 388.47924,396.0156 189.87875,396.52268 -8.6624746,398.67284 C -45.664515,397.65927 -100.13835,399.95256 -85.091085,345.78855 C -79.535495,333.15534 -105.29989,245.98141 -74.078495,269.38156 z"
       id="path3721"
       sodipodi:nodetypes="ccccccccc" />
    <path
       style="opacity:1;fill:#ffffff;fill-opacity:0.12209302;stroke:none;stroke-width:2.33999991000000000;stroke-miterlimit:4;stroke-dasharray:none;stroke-opacity:1"
       d="M -70.407671,478.62064 C 57.071578,486.51815 190.46579,475.4858 317.93802,484.52843 C 698.6853,492.29322 1068.5205,474.27718 1449.2882,477.20416 C 1470.9656,501.97297 1471.7932,603.49756 1411.2832,588.08007 C 1306.2467,599.37822 1200.4585,591.59919 1095.0601,597.07222 C 926.92823,599.16109 758.70387,595.24313 590.71502,604.58781 C 392.15006,605.25468 193.54957,605.76176 -4.991651,607.91192 C -41.993691,606.89835 -96.467531,609.19164 -81.420261,555.02763 C -75.864671,542.39442 -101.62907,455.22049 -70.407671,478.62064 z"
       id="path3723"
       sodipodi:nodetypes="ccccccccc" />
    <path
       style="opacity:1;fill:#ffffff;fill-opacity:0.12209302;stroke:none;stroke-width:2.33999991000000000;stroke-miterlimit:4;stroke-dasharray:none;stroke-opacity:1"
       d="M -75.914003,686.02429 C 51.565248,693.9218 184.95946,682.88945 312.43169,691.93208 C 693.17897,699.69687 1063.0142,681.68083 1443.7819,684.60781 C 1465.4593,709.37662 1466.2869,810.90121 1405.7769,795.48372 C 1300.7404,806.78187 1194.9522,799.00284 1089.5538,804.47587 C 921.4219,806.56474 753.19754,802.64678 585.20869,811.99146 C 386.64373,812.65833 188.04324,813.16541 -10.497983,815.31557 C -47.500023,814.302 -101.97386,816.59529 -86.926593,762.43128 C -81.371003,749.79807 -107.1354,662.62414 -75.914003,686.02429 z"
       id="path3725"
       sodipodi:nodetypes="ccccccccc" />
    <path
       style="opacity:1;fill:#ffffff;fill-opacity:0.12209302;stroke:none;stroke-width:2.33999991000000000;stroke-miterlimit:4;stroke-dasharray:none;stroke-opacity:1"
       d="M -70.407724,862.22562 C 57.071525,870.12313 190.46574,859.09078 317.93797,868.13341 C 698.68525,875.8982 1068.5205,857.88216 1449.2882,860.80914 C 1470.9656,885.57795 1471.7932,987.10254 1411.2832,971.68505 C 1306.2467,982.9832 1200.4585,975.20417 1095.0601,980.6772 C 926.92818,982.76607 758.70382,978.84811 590.71497,988.19279 C 392.15001,988.85966 193.54952,989.36674 -4.9917036,991.5169 C -41.993744,990.50333 -96.467584,992.79662 -81.420314,938.63261 C -75.864724,925.9994 -101.62912,838.82547 -70.407724,862.22562 z"
       id="path3727"
       sodipodi:nodetypes="ccccccccc" />
    <path
       style="opacity:1;fill:#ffffff;fill-opacity:0.12209302;stroke:none;stroke-width:2.33999991000000000;stroke-miterlimit:4;stroke-dasharray:none;stroke-opacity:1"
       d="M 201.01839,-234.96226 C 191.05698,-107.62758 199.92713,25.927832 188.82088,153.23688 C 174.88967,533.80842 186.91268,903.88697 177.81834,1284.5571 C 152.70164,1305.8304 51.176974,1305.0134 67.572594,1244.7612 C 57.977334,1139.5554 67.468924,1033.9071 63.703874,928.43403 C 64.338714,760.29034 70.981084,592.15151 64.358744,424.03334 C 66.908364,225.48363 69.618324,26.900971 70.684454,-171.64902 C 72.297254,-208.62985 70.886644,-263.13365 124.79981,-247.21097 C 137.34138,-241.45156 224.9212,-265.80052 201.01839,-234.96226 z"
       id="path3729"
       sodipodi:nodetypes="ccccccccc" />
    <path
       style="opacity:1;fill:#ffffff;fill-opacity:0.12209305;stroke:none;stroke-width:2.33999991;stroke-miterlimit:4;stroke-dasharray:none;stroke-opacity:1"
       d="M 473.90701,-205.40067 C 463.9456,-78.066145 472.81576,55.489268 461.70949,182.79832 C 447.7783,563.36985 459.80131,933.44838 450.70696,1314.1185 C 425.59027,1335.3919 324.0656,1334.5749 340.46122,1274.3225 C 330.86595,1169.1168 340.35754,1063.4685 336.59249,957.99544 C 337.22733,789.85177 343.86971,621.71294 337.24737,453.59477 C 339.79698,255.04508 342.50694,56.462407 343.57307,-142.08754 C 345.18588,-179.06837 343.77527,-233.57217 397.68843,-217.64948 C 410.22999,-211.88998 497.80982,-236.23894 473.90701,-205.40067 z"
       id="path3731"
       sodipodi:nodetypes="ccccccccc" />
    <path
       style="opacity:1;fill:#ffffff;fill-opacity:0.12209302;stroke:none;stroke-width:2.33999991000000000;stroke-miterlimit:4;stroke-dasharray:none;stroke-opacity:1"
       d="M 756.59536,-209.35275 C 746.63395,-82.018138 755.50411,51.537275 744.39784,178.84633 C 730.46665,559.41786 742.48966,929.49637 733.39531,1310.1668 C 708.27862,1331.4401 606.75394,1330.6231 623.14956,1270.3708 C 613.5543,1165.165 623.04588,1059.5167 619.28084,954.04342 C 619.91568,785.89978 626.55805,617.76095 619.93572,449.64278 C 622.48533,251.09309 625.19529,52.510414 626.26142,-146.03962 C 627.87423,-183.02035 626.46362,-237.52425 680.37678,-221.60156 C 692.91834,-215.84206 780.49817,-240.19102 756.59536,-209.35275 z"
       id="path3733"
       sodipodi:nodetypes="ccccccccc" />
    <path
       style="opacity:1;fill:#ffffff;fill-opacity:0.12209302;stroke:none;stroke-width:2.33999991000000000;stroke-miterlimit:4;stroke-dasharray:none;stroke-opacity:1"
       d="M 1020.7809,-205.9938 C 1010.8195,-78.659295 1019.6897,54.896118 1008.5834,182.20517 C 994.65221,562.7767 1006.6752,932.85524 997.58091,1313.5256 C 972.46421,1334.7989 870.93952,1333.9819 887.33514,1273.7296 C 877.73987,1168.5238 887.23146,1062.8755 883.46641,957.4023 C 884.10125,789.25862 890.74363,621.1198 884.1213,453.00162 C 886.67091,254.45193 889.38087,55.869257 890.447,-142.68067 C 892.0598,-179.6615 890.64919,-234.1653 944.56231,-218.24261 C 957.10391,-212.4831 1044.6837,-236.83206 1020.7809,-205.9938 z"
       id="path3735"
       sodipodi:nodetypes="ccccccccc" />
    <path
       style="opacity:1;fill:#ffffff;fill-opacity:0.12209302;stroke:none;stroke-width:2.33999991000000000;stroke-miterlimit:4;stroke-dasharray:none;stroke-opacity:1"
       d="M 1321.8577,-212.31609 C 1311.8963,-84.981509 1320.7664,48.573903 1309.6601,175.88295 C 1295.7289,556.45449 1307.7519,926.53306 1298.6576,1307.2033 C 1273.5409,1328.4767 1172.0162,1327.6597 1188.4118,1267.4073 C 1178.8166,1162.2016 1188.3081,1056.5533 1184.5431,951.08012 C 1185.1779,782.93644 1191.8203,614.79757 1185.198,446.67941 C 1187.7476,248.12971 1190.4576,49.547043 1191.5237,-149.00286 C 1193.1365,-185.98369 1191.7259,-240.48749 1245.6391,-224.5649 C 1258.1806,-218.8054 1345.7604,-243.15436 1321.8577,-212.31609 z"
       id="path3737"
       sodipodi:nodetypes="ccccccccc" />
  </g>
</svg>
