<?xml version="1.0" encoding="UTF-8" standalone="no"?>
<!-- Created with Inkscape (http://www.inkscape.org/) -->
<svg
   xmlns:dc="http://purl.org/dc/elements/1.1/"
   xmlns:cc="http://creativecommons.org/ns#"
   xmlns:rdf="http://www.w3.org/1999/02/22-rdf-syntax-ns#"
   xmlns:svg="http://www.w3.org/2000/svg"
   xmlns="http://www.w3.org/2000/svg"
   xmlns:sodipodi="http://sodipodi.sourceforge.net/DTD/sodipodi-0.dtd"
   xmlns:inkscape="http://www.inkscape.org/namespaces/inkscape"
   width="1400"
   height="1024"
   id="svg3629"
   sodipodi:version="0.32"
   inkscape:version="0.46"
   version="1.0"
   sodipodi:docname="pretty.svg"
   inkscape:output_extension="org.inkscape.output.svg.inkscape">
  <defs
     id="defs3631">
    <inkscape:perspective
       sodipodi:type="inkscape:persp3d"
       inkscape:vp_x="0 : 526.18109 : 1"
       inkscape:vp_y="6.1230318e-14 : 1000 : 0"
       inkscape:vp_z="744.09448 : 526.18109 : 1"
       inkscape:persp3d-origin="372.04724 : 350.78739 : 1"
       id="perspective3637" />
  </defs>
  <sodipodi:namedview
     id="base"
     pagecolor="#ffffff"
     bordercolor="#666666"
     borderopacity="1.0"
     gridtolerance="10000"
     guidetolerance="10"
     objecttolerance="10"
     inkscape:pageopacity="0.0"
     inkscape:pageshadow="2"
     inkscape:zoom="1.4"
     inkscape:cx="131.74778"
     inkscape:cy="942.15908"
     inkscape:document-units="px"
     inkscape:current-layer="layer1"
     showgrid="false"
     inkscape:window-width="1680"
     inkscape:window-height="994"
     inkscape:window-x="-4"
     inkscape:window-y="-4"
     showguides="true"
     inkscape:guide-bbox="true" />
  <metadata
     id="metadata3634">
    <rdf:RDF>
      <cc:Work
         rdf:about="">
        <dc:format>image/svg+xml</dc:format>
        <dc:type
           rdf:resource="http://purl.org/dc/dcmitype/StillImage" />
      </cc:Work>
    </rdf:RDF>
  </metadata>
  <g
     inkscape:label="Layer 1"
     inkscape:groupmode="layer"
     id="layer1">
    <path
       style="opacity:1;fill:#338000;fill-opacity:1;stroke:#000000;stroke-width:2.02726245;stroke-miterlimit:4;stroke-dasharray:none;stroke-opacity:1"
       d="M 141.70765,-25.787711 C 144.46285,-39.213747 152.95018,-50.839021 161.93349,-61.371181 C 168.76495,-69.081521 177.59935,-76.035921 188.4552,-77.927561 C 192.79893,-79.034461 198.15292,-79.301601 200.81782,-83.197521 C 202.76887,-85.403951 202.8505,-89.239761 199.80441,-90.662661 C 192.21166,-95.444001 182.70343,-96.075971 173.80252,-95.869621 C 165.4601,-96.037081 158.47395,-91.070431 151.85373,-87.004461 C 149.03661,-85.376591 146.45989,-83.359361 144.9707,-80.541701 C 142.54412,-76.216601 140.67048,-71.604331 139.20206,-66.928151 C 137.93025,-61.647291 137.80076,-56.206751 136.7441,-50.890831 C 135.69648,-45.348022 137.99466,-39.996696 139.73847,-34.803834 C 141.11577,-31.919559 142.01731,-28.984639 141.70765,-25.787711 z"
       id="path3310" />
    <path
       style="opacity:1;fill:none;fill-opacity:1;stroke:#000000;stroke-width:2.02726245;stroke-miterlimit:4;stroke-dasharray:none;stroke-opacity:1"
       d="M 141.45727,-26.226433 C 144.21247,-39.652473 152.6998,-51.277743 161.68311,-61.809903 C 168.51457,-69.520243 177.34897,-76.474643 188.20482,-78.366283 C 192.54855,-79.473183 197.90254,-79.740323 200.56744,-83.636243 C 202.51849,-85.842673 202.60012,-89.678483 199.55403,-91.101383 C 191.96128,-95.882723 182.45305,-96.514693 173.55214,-96.308343 C 165.20972,-96.475803 158.22357,-91.509153 151.60335,-87.443183 C 148.78623,-85.815313 146.20951,-83.798083 144.72032,-80.980423 C 142.29374,-76.655323 140.4201,-72.043053 138.95168,-67.366873 C 137.67987,-62.086013 137.55038,-56.645473 136.49372,-51.329553 C 135.4461,-45.786743 137.74428,-40.435423 139.48809,-35.242563 C 140.86539,-32.358283 141.76693,-29.423363 141.45727,-26.226433 z"
       id="path3448" />
    <path
       style="opacity:1;fill:#338000;fill-opacity:1;stroke:#000000;stroke-width:2.02726245;stroke-miterlimit:4;stroke-dasharray:none;stroke-opacity:1"
       d="M 137.87367,-71.143981 C 137.68544,-75.758451 137.44969,-80.399401 136.27699,-84.904371 C 135.67746,-89.816411 136.06224,-94.782411 136.16882,-99.710861 C 136.59591,-105.32409 137.61618,-110.99578 139.94936,-116.21275 C 141.91479,-120.02147 144.1363,-123.72198 146.38736,-127.38744 C 149.156,-130.95664 152.30228,-134.39917 156.18279,-136.96113 C 158.05806,-138.58264 161.81641,-139.28517 161.19267,-135.7897 C 144.65549,-117.25419 136.04165,-101.47251 144.2178,-80.587011 C 143.38134,-77.617901 143.48343,-74.522491 143.36877,-71.498251 C 142.62298,-71.140031 141.7532,-71.755251 140.96678,-71.718001"
       id="path3318"
       sodipodi:nodetypes="cccccccccc" />
    <path
       style="opacity:1;fill:none;fill-opacity:1;stroke:#000000;stroke-width:2.02726245;stroke-miterlimit:4;stroke-dasharray:none;stroke-opacity:1"
       d="M 137.62329,-71.582703 C 137.43506,-76.197173 137.19931,-80.838123 136.02661,-85.343093 C 135.42708,-90.255133 135.81186,-95.221133 135.91844,-100.14958 C 136.34553,-105.76281 137.3658,-111.4345 139.69898,-116.65147 C 141.66441,-120.46019 143.88592,-124.1607 146.13698,-127.82616 C 148.90562,-131.39536 152.0519,-134.83789 155.93241,-137.39985 C 157.80768,-139.02136 161.56603,-139.72389 160.94229,-136.22842 C 144.40511,-117.69291 135.79127,-101.91123 143.96742,-81.025733 C 143.13096,-78.056623 143.23305,-74.961213 143.11839,-71.936973 C 142.3726,-71.578753 141.50282,-72.193973 140.7164,-72.156723"
       id="path3446"
       sodipodi:nodetypes="cccccccccc" />
    <path
       style="opacity:1;fill:#338000;fill-opacity:1;stroke:#000000;stroke-width:2.02726245;stroke-miterlimit:4;stroke-dasharray:none;stroke-opacity:1"
       d="M 139.72954,-33.258731 C 136.97433,-46.684771 128.48701,-58.310041 119.5037,-68.842211 C 112.67223,-76.552561 103.83782,-83.506941 92.981983,-85.398581 C 88.638258,-86.505501 83.284276,-86.772631 80.619369,-90.668551 C 78.66832,-92.874981 78.586681,-96.710781 81.63277,-98.133691 C 89.225521,-102.91503 98.733753,-103.547 107.63466,-103.34065 C 115.97708,-103.50811 122.96323,-98.541461 129.58345,-94.475491 C 132.40058,-92.847621 134.97729,-90.830391 136.46648,-88.012721 C 138.89306,-83.687621 140.7667,-79.075371 142.23512,-74.399181 C 143.50694,-69.118311 143.63643,-63.677771 144.69308,-58.361851 C 145.7407,-52.819041 143.44252,-47.467721 141.69871,-42.274858 C 140.32142,-39.390579 139.41987,-36.455658 139.72954,-33.258731 z"
       id="path3308" />
    <path
       style="opacity:1;fill:none;fill-opacity:1;stroke:#000000;stroke-width:2.02726245;stroke-miterlimit:4;stroke-dasharray:none;stroke-opacity:1"
       d="M 139.47916,-33.697453 C 136.72395,-47.123493 128.23663,-58.748763 119.25332,-69.280933 C 112.42185,-76.991283 103.58744,-83.945663 92.7316,-85.837303 C 88.387881,-86.944223 83.033891,-87.211353 80.368991,-91.107273 C 78.417941,-93.313703 78.336301,-97.149503 81.382391,-98.57241 C 88.975141,-103.35375 98.48337,-103.98572 107.38428,-103.77937 C 115.7267,-103.94683 122.71285,-98.98018 129.33307,-94.914213 C 132.1502,-93.286343 134.72691,-91.269113 136.2161,-88.451443 C 138.64268,-84.126343 140.51632,-79.514093 141.98474,-74.837903 C 143.25656,-69.557033 143.38605,-64.116493 144.4427,-58.800573 C 145.49032,-53.257763 143.19214,-47.906443 141.44833,-42.713583 C 140.07104,-39.829303 139.16949,-36.894383 139.47916,-33.697453 z"
       id="path3450" />
    <path
       style="opacity:1;fill:#338000;fill-opacity:1;stroke:#000000;stroke-width:2.37509561;stroke-miterlimit:4;stroke-dasharray:none;stroke-opacity:1"
       d="M 465.09211,-61.01112 C 468.79646,-67.11576 458.4035,-66.57118 460.40539,-73.18266 C 461.52526,-83.94746 459.02193,-100.18529 456.69333,-110.49115 C 447.67722,-140.0835 451.45655,-160.82532 418.50411,-168.36351 C 419.22746,-170.77829 429.74813,-167.02697 432.20112,-167.79939 C 455.1518,-163.39129 459.71419,-124.79553 462.64367,-103.45735 C 463.6455,-95.61684 468.14054,-86.95922 467.8273,-79.09801 C 467.47621,-73.56792 465.69537,-68.27118 464.96744,-62.82591 L 464.98788,-61.9158 L 465.09211,-61.01112 L 465.09211,-61.01112 z"
       id="path3520"
       sodipodi:nodetypes="ccccccccccc" />
    <path
       style="opacity:1;fill:none;fill-opacity:1;stroke:#000000;stroke-width:2.37509561;stroke-miterlimit:4;stroke-dasharray:none;stroke-opacity:1"
       d="M 465.34249,-61.44984 C 469.04684,-67.55448 458.65388,-67.0099 460.65577,-73.62138 C 461.77564,-84.38618 459.27231,-100.62401 456.94371,-110.92987 C 451.7358,-128.02309 450.79706,-142.16335 444.58247,-152.5117 C 440.03816,-160.07876 432.67284,-165.61827 418.75449,-168.80223 C 419.47784,-171.21701 429.99851,-167.46569 432.4515,-168.23811 C 455.40218,-163.83001 459.96457,-125.23425 462.89405,-103.89607 C 463.89588,-96.05556 468.39092,-87.39794 468.07768,-79.53673 C 467.72659,-74.00664 465.94575,-68.7099 465.21782,-63.26463 L 465.23826,-62.35452 L 465.34249,-61.44984 L 465.34249,-61.44984 z"
       id="path3522"
       sodipodi:nodetypes="cccscccccccc" />
    <path
       style="opacity:1;fill:#2c2ca0;fill-opacity:1;stroke:#000000;stroke-width:2.33999991;stroke-miterlimit:4;stroke-dasharray:none;stroke-opacity:1"
       d="M 408.30296,-162.08088 C 405.08995,-153.58909 400.72619,-139.95333 395.5696,-138.38205 C 396.59054,-133.96368 409.69891,-145.04512 409.13024,-140.62329 C 410.95433,-139.83078 410.2679,-136.88293 411.78793,-135.60585 C 413.88241,-133.92157 414.90681,-136.92799 415.92949,-138.24466 C 420.67623,-140.97188 422.96605,-136.6634 428.11917,-130.08718 C 424.32019,-141.87391 433.08418,-155.34678 425.54458,-166.08642 C 416.97664,-171.31401 411.72627,-170.86397 408.30296,-162.08088 z"
       id="path3524"
       sodipodi:nodetypes="cccccccc" />
    <path
       style="opacity:1;fill:none;fill-opacity:1;stroke:#000000;stroke-width:2.33999991;stroke-miterlimit:4;stroke-dasharray:none;stroke-opacity:1"
       d="M 408.55334,-162.5196 C 405.34033,-154.02781 400.97657,-140.39205 395.81998,-138.82077 C 396.84092,-134.4024 409.94929,-145.48384 409.38062,-141.06201 C 411.20471,-140.2695 410.51828,-137.32165 412.03831,-136.04457 C 414.13279,-134.36029 415.15719,-137.36671 416.17987,-138.68338 C 420.92661,-141.4106 423.21643,-137.10212 428.36955,-130.5259 C 424.57057,-142.31263 433.33456,-155.7855 425.79496,-166.52514 C 417.22702,-171.75273 411.97665,-171.30269 408.55334,-162.5196 z"
       id="path3526"
       sodipodi:nodetypes="cccccccc" />
    <path
       style="opacity:1;fill:#338000;fill-opacity:1;stroke:#000000;stroke-width:2.33999991;stroke-miterlimit:4;stroke-dasharray:none;stroke-opacity:1"
       d="M 461.96988,-47.518506 C 468.05046,-53.957728 475.67001,-58.683758 481.87592,-64.987811 C 486.96769,-69.00885 492.50032,-73.359305 494.37994,-79.873283 C 498.02793,-89.306906 501.41282,-99.906103 498.13421,-109.94283 C 496.23554,-115.72015 493.73939,-121.30141 491.1588,-126.79749 C 489.5666,-128.78158 487.63523,-133.92915 485.07336,-132.92421 C 483.49674,-129.26689 485.76917,-125.10661 485.09978,-121.21658 C 484.69925,-115.39167 482.48345,-109.87306 480.32821,-104.50342 C 477.61856,-98.064049 473.56526,-92.316928 469.03256,-87.043711 C 463.33522,-79.788191 458.49755,-71.354088 457.86819,-61.955764 C 457.31896,-57.9904 457.92107,-53.764488 460.43844,-50.539474 C 461.00558,-49.563043 461.55565,-48.571281 461.96988,-47.518506 z"
       id="path3399" />
    <path
       style="opacity:1;fill:#338000;fill-opacity:1;stroke:#000000;stroke-width:2.37509561;stroke-miterlimit:4;stroke-dasharray:none;stroke-opacity:1"
       d="M 461.15479,-59.731602 C 457.45044,-65.836242 467.8434,-65.291662 465.84151,-71.903142 C 464.72164,-82.667942 467.22497,-98.905772 469.55357,-109.21163 C 478.56968,-138.80398 474.79035,-159.5458 507.74279,-167.08399 C 507.01944,-169.49877 496.49877,-165.74745 494.04578,-166.51987 C 471.0951,-162.11177 466.53271,-123.51601 463.60323,-102.17783 C 462.6014,-94.337322 458.10636,-85.679702 458.4196,-77.818492 C 458.77069,-72.288402 460.55153,-66.991662 461.27946,-61.546392 L 461.25902,-60.636282 L 461.15479,-59.731602 L 461.15479,-59.731602 z"
       id="path3410"
       sodipodi:nodetypes="ccccccccccc" />
    <path
       style="opacity:1;fill:none;fill-opacity:1;stroke:#000000;stroke-width:2.33999991;stroke-miterlimit:4;stroke-dasharray:none;stroke-opacity:1"
       d="M 461.7195,-47.957233 C 467.80008,-54.396453 475.41963,-59.122483 481.62554,-65.426533 C 486.71731,-69.447573 492.24994,-73.798033 494.12956,-80.312013 C 497.77755,-89.745633 501.16244,-100.34483 497.88383,-110.38155 C 495.98516,-116.15887 493.48901,-121.74013 490.90842,-127.23621 C 489.31622,-129.2203 487.38485,-134.36787 484.82298,-133.36293 C 483.24636,-129.70561 485.51879,-125.54533 484.8494,-121.6553 C 484.44887,-115.83039 482.23307,-110.31178 480.07783,-104.94214 C 477.36818,-98.50277 473.31488,-92.755653 468.78218,-87.482433 C 463.08484,-80.226913 458.24717,-71.792813 457.61781,-62.394493 C 457.06858,-58.429123 457.67069,-54.203213 460.18806,-50.978203 C 460.7552,-50.001773 461.30527,-49.010003 461.7195,-47.957233 z"
       id="path3422" />
    <path
       style="opacity:1;fill:none;fill-opacity:1;stroke:#000000;stroke-width:2.37509561;stroke-miterlimit:4;stroke-dasharray:none;stroke-opacity:1"
       d="M 460.90441,-60.170323 C 457.20006,-66.274963 467.59302,-65.730383 465.59113,-72.341863 C 464.47126,-83.106663 466.97459,-99.34449 469.30319,-109.65035 C 474.5111,-126.74357 475.44984,-140.88383 481.66443,-151.23218 C 486.20874,-158.79924 493.57406,-164.33875 507.49241,-167.52271 C 506.76906,-169.93749 496.24839,-166.18617 493.7954,-166.95859 C 470.84472,-162.55049 466.28233,-123.95473 463.35285,-102.61655 C 462.35102,-94.776043 457.85598,-86.118423 458.16922,-78.257213 C 458.52031,-72.727123 460.30115,-67.430383 461.02908,-61.985113 L 461.00864,-61.075003 L 460.90441,-60.170323 L 460.90441,-60.170323 z"
       id="path3416"
       sodipodi:nodetypes="cccscccccccc" />
    <path
       style="opacity:1;fill:#338000;fill-opacity:1;stroke:#000000;stroke-width:2.33999991;stroke-miterlimit:4;stroke-dasharray:none;stroke-opacity:1"
       d="M 462.85715,-48.857143 C 456.77657,-55.296365 449.15702,-60.022395 442.95111,-66.326448 C 437.85934,-70.347487 432.32671,-74.697942 430.44709,-81.21192 C 426.7991,-90.645543 423.41421,-101.24474 426.69282,-111.28147 C 428.59149,-117.05878 431.08764,-122.64004 433.66823,-128.13612 C 435.26043,-130.12021 437.1918,-135.26778 439.75367,-134.26284 C 441.33029,-130.60552 439.05786,-126.44524 439.72725,-122.55521 C 440.12778,-116.7303 442.34358,-111.2117 444.49882,-105.84206 C 447.20847,-99.402686 451.26177,-93.655565 455.79447,-88.382348 C 461.49181,-81.126828 466.32948,-72.692725 466.95884,-63.294401 C 467.50807,-59.329037 466.90596,-55.103125 464.38859,-51.878111 C 463.82145,-50.90168 463.27138,-49.909918 462.85715,-48.857143 z"
       id="path3394" />
    <path
       style="opacity:1;fill:none;fill-opacity:1;stroke:#000000;stroke-width:2.33999991;stroke-miterlimit:4;stroke-dasharray:none;stroke-opacity:1"
       d="M 462.60677,-49.295873 C 456.52619,-55.735093 448.90664,-60.461123 442.70073,-66.765173 C 437.60896,-70.786213 432.07633,-75.136663 430.19671,-81.650643 C 426.54872,-91.084273 423.16383,-101.68346 426.44244,-111.72019 C 428.34111,-117.4975 430.83726,-123.07876 433.41785,-128.57484 C 435.01005,-130.55893 436.94142,-135.7065 439.50329,-134.70156 C 441.07991,-131.04424 438.80748,-126.88396 439.47687,-122.99393 C 439.8774,-117.16902 442.0932,-111.65042 444.24844,-106.28078 C 446.95809,-99.84141 451.01139,-94.094293 455.54409,-88.821073 C 461.24143,-81.565553 466.0791,-73.131453 466.70846,-63.733123 C 467.25769,-59.767763 466.65558,-55.541853 464.13821,-52.316833 C 463.57107,-51.340403 463.021,-50.348643 462.60677,-49.295873 z"
       id="path3420" />
    <path
       style="opacity:1;fill:#338000;fill-opacity:1;stroke:#000000;stroke-width:2.33999991;stroke-miterlimit:4;stroke-dasharray:none;stroke-opacity:1"
       d="M 311.19843,-58.772012 C 310.56253,-73.659255 307.86039,-71.924379 307.85231,-88.98219 C 309.904,-102.00921 307.42029,-141.49513 311.29066,-149.45213 C 313.04115,-152.84374 315.38309,-149.42219 316.65075,-146.37517 C 313.26092,-128.74413 316.58138,-63.528399 311.19843,-58.772012 z"
       id="path3373"
       sodipodi:nodetypes="ccccc" />
    <path
       style="opacity:1;fill:#338000;fill-opacity:1;stroke:#000000;stroke-width:2.43000007;stroke-miterlimit:4;stroke-dasharray:none;stroke-opacity:1"
       d="M 272.96068,-87.816746 C 271.17839,-90.152596 268.61754,-93.123604 269.99848,-96.248442 C 271.15945,-99.161366 274.5726,-99.458435 277.28106,-99.312013 C 300.63367,-98.491391 308.12473,-91.655228 311.79574,-68.871898 C 312.27983,-63.771965 312.3252,-58.605608 311.88452,-53.500758 C 311.27232,-50.226764 310.59305,-46.961707 310.33937,-43.629791 C 310.52058,-42.025823 309.31117,-39.916895 308.36744,-42.350069 C 301.86766,-63.699767 290.89666,-74.834752 272.96068,-87.816746 z"
       id="path3363"
       sodipodi:nodetypes="cccccccc" />
    <path
       style="opacity:1;fill:#338000;fill-opacity:1;stroke:#000000;stroke-width:2.43000007;stroke-miterlimit:4;stroke-dasharray:none;stroke-opacity:1"
       d="M -47.564044,227.56801 C -49.170311,226.51648 -55.541001,226.70511 -58.992615,227.56801 C -61.889541,228.29224 -66.053571,231.05754 -68.27833,233.2823 C -71.802485,236.80645 -63.191464,236.45315 -61.135472,235.42515 C -58.555859,234.13535 -54.424292,233.39022 -51.135472,232.56801 C -45.57229,231.17721 -43.100901,235.00658 -47.564044,227.56801 z"
       id="path3355" />
    <path
       style="opacity:1;fill:#338000;fill-opacity:1;stroke:#000000;stroke-width:2.43000007;stroke-miterlimit:4;stroke-dasharray:none;stroke-opacity:1"
       d="M -65.548468,231.60832 C -53.161354,247.56481 -73.86213,266.01534 -82.31941,278.49761 C -83.316318,280.08366 -83.578317,282.21226 -84.110721,283.76367 C -84.647432,278.71653 -86.623524,273.98238 -88.477033,269.31129 C -89.231567,265.67768 -89.587644,261.9705 -90.228729,258.32039 C -91.364533,244.32839 -82.683487,222.38255 -65.548468,231.60832 z"
       id="path3357"
       sodipodi:nodetypes="cccccc" />
    <path
       style="opacity:1;fill:#338000;fill-opacity:1;stroke:#000000;stroke-width:2.43000007;stroke-miterlimit:4;stroke-dasharray:none;stroke-opacity:1"
       d="M -44.706902,67.568011 C -46.313169,66.516481 -52.683859,66.705111 -56.135473,67.568011 C -59.032399,68.292241 -63.196429,71.057541 -65.421188,73.282301 C -68.945343,76.806451 -60.334322,76.453151 -58.27833,75.425151 C -55.698717,74.135351 -51.56715,73.390221 -48.27833,72.568011 C -42.715148,71.177211 -40.243759,75.006581 -44.706902,67.568011 z"
       id="path3351" />
    <path
       style="opacity:1;fill:#338000;fill-opacity:1;stroke:#000000;stroke-width:2.43000007;stroke-miterlimit:4;stroke-dasharray:none;stroke-opacity:1"
       d="M -62.691326,71.608321 C -50.304212,87.564811 -71.004988,106.01535 -79.462268,118.49762 C -80.459176,120.08367 -80.721175,122.21227 -81.253579,123.76368 C -81.79029,118.71654 -83.766382,113.98239 -85.619891,109.3113 C -86.374425,105.67769 -86.730502,101.9705 -87.371587,98.320391 C -88.507391,84.328391 -79.826345,62.382551 -62.691326,71.608321 z"
       id="path3353"
       sodipodi:nodetypes="cccccc" />
    <path
       style="opacity:1;fill:#338000;fill-opacity:1;stroke:#000000;stroke-width:2.43000007;stroke-miterlimit:4;stroke-dasharray:none;stroke-opacity:1"
       d="M -47.309797,267.56802 C -45.703529,266.51649 -39.332839,266.70512 -35.881225,267.56802 C -32.984299,268.29225 -28.820269,271.05755 -26.59551,273.28231 C -23.071356,276.80646 -31.682376,276.45316 -33.738368,275.42516 C -36.317981,274.13536 -40.449548,273.39023 -43.738368,272.56802 C -49.301551,271.17722 -51.77294,275.00659 -47.309797,267.56802 z"
       id="path3347" />
    <path
       style="opacity:1;fill:#338000;fill-opacity:1;stroke:#000000;stroke-width:2.43000007;stroke-miterlimit:4;stroke-dasharray:none;stroke-opacity:1"
       d="M -29.325372,271.60833 C -41.712486,287.56482 -21.011711,306.01535 -12.554431,318.49762 C -11.557523,320.08367 -11.295524,322.21227 -10.76312,323.76368 C -10.226409,318.71654 -8.2503166,313.98239 -6.3968076,309.3113 C -5.6422736,305.67769 -5.2861966,301.97051 -4.6451116,298.3204 C -3.5093076,284.3284 -12.190354,262.38256 -29.325372,271.60833 z"
       id="path3349"
       sodipodi:nodetypes="cccccc" />
    <path
       style="opacity:1;fill:#338000;fill-opacity:1;stroke:#000000;stroke-width:2.43000007;stroke-miterlimit:4;stroke-dasharray:none;stroke-opacity:1"
       d="M -44.222635,167.44888 C -42.616367,166.39735 -36.245678,166.58598 -32.794063,167.44888 C -29.897137,168.17311 -25.733108,170.93841 -23.508349,173.16317 C -19.984194,176.68732 -28.595215,176.33402 -30.651206,175.30602 C -33.230819,174.01622 -37.362386,173.27109 -40.651206,172.44888 C -46.214388,171.05808 -48.685778,174.88745 -44.222635,167.44888 z"
       id="path3339" />
    <path
       style="opacity:1;fill:#ffcc00;fill-opacity:1;stroke:#000000;stroke-width:2.02726245;stroke-miterlimit:4;stroke-dasharray:none;stroke-opacity:1"
       d="M 206.54066,-160.11693 C 209.39095,-160.83172 212.93656,-161.06648 215.20137,-158.96889 C 214.76474,-156.30213 212.5381,-154.32075 211.44065,-151.88945 C 209.63372,-148.59052 205.70909,-147.18767 202.67312,-145.07152 C 200.24531,-143.61921 198.48726,-141.43652 196.22007,-139.81997 C 193.21397,-138.64691 189.89306,-138.27377 186.67705,-137.83438 C 183.95483,-137.83276 181.51727,-136.69611 178.91704,-136.12609 C 176.41146,-135.91535 173.88299,-135.85604 171.37725,-135.53913 C 168.81629,-135.28737 166.14557,-135.48928 163.83318,-136.609 C 161.85975,-136.99933 158.30685,-137.86615 160.15697,-140.36895 C 161.43194,-143.07993 163.26243,-145.60178 165.84411,-147.37933 C 170.5378,-150.87784 175.6312,-154.29321 181.569,-155.64298 C 185.66189,-156.28866 189.71195,-157.19702 193.85248,-157.55494 C 198.12128,-158.24121 202.21857,-159.69138 206.54066,-160.11693 z"
       id="path3330" />
    <rect
       style="opacity:1;fill:#784421;fill-opacity:1;stroke:#000000;stroke-width:1.88923228;stroke-miterlimit:4;stroke-dasharray:none;stroke-opacity:1"
       id="rect3252"
       width="1455.1422"
       height="50.049873"
       x="-24.50461"
       y="-41.992943" />
    <path
       style="opacity:1;fill:#338000;fill-opacity:1;stroke:#000000;stroke-width:2.43000007;stroke-miterlimit:4;stroke-dasharray:none;stroke-opacity:1"
       d="M 310.71429,-44.57143 C 309.64283,-52.040306 309.79191,-59.645495 310.44808,-67.140921 C 312.50904,-96.613231 349.29698,-116.06989 361.17083,-85.690042 C 362.26435,-81.980721 358.74842,-78.647904 355.17463,-80.042486 C 348.58676,-80.266758 341.97946,-80.496462 335.39427,-80.177543 C 331.31599,-79.511417 327.98156,-76.674428 325.16836,-73.830478 C 322.33761,-70.433339 322.01651,-65.828082 320.56909,-61.793754 C 319.5925,-58.80094 318.43223,-55.885379 317.56082,-52.858382 C 316.42422,-49.29013 314.09129,-46.269529 310.71429,-44.57143 z"
       id="path3365"
       sodipodi:nodetypes="ccccccccc" />
    <path
       style="opacity:1;fill:none;fill-opacity:1;stroke:#000000;stroke-width:2.43000007;stroke-miterlimit:4;stroke-dasharray:none;stroke-opacity:1"
       d="M 310.46391,-45.010153 C 309.39245,-52.479033 309.54153,-60.084223 310.1977,-67.579643 C 312.25866,-97.051953 349.0466,-116.50861 360.92045,-86.128763 C 362.01397,-82.419443 358.49804,-79.086633 354.92425,-80.481213 C 348.33638,-80.705483 341.72908,-80.935183 335.14389,-80.616273 C 331.06561,-79.950143 327.73118,-77.113153 324.91798,-74.269203 C 322.08723,-70.872063 321.76613,-66.266803 320.31871,-62.232483 C 319.34212,-59.239663 318.18185,-56.324103 317.31044,-53.297103 C 316.17384,-49.728853 313.84091,-46.708253 310.46391,-45.010153 z"
       id="path3428"
       sodipodi:nodetypes="ccccccccc" />
    <path
       style="opacity:1;fill:none;fill-opacity:1;stroke:#000000;stroke-width:2.43000007;stroke-miterlimit:4;stroke-dasharray:none;stroke-opacity:1"
       d="M 272.7103,-88.255473 C 270.92801,-90.591323 268.36716,-93.562333 269.7481,-96.687163 C 270.90907,-99.60009 274.32222,-99.89716 277.03068,-99.75074 C 300.38329,-98.93011 307.87435,-92.093953 311.54536,-69.310623 C 312.02945,-64.210693 312.07482,-59.044333 311.63414,-53.939483 C 311.02194,-50.665493 310.34267,-47.400433 310.08899,-44.068513 C 310.2702,-42.464553 309.06079,-40.355623 308.11706,-42.788793 C 301.61728,-64.138493 290.64628,-75.273473 272.7103,-88.255473 z"
       id="path3426"
       sodipodi:nodetypes="cccccccc" />
    <rect
       style="opacity:1;fill:#502d16;fill-opacity:1;stroke:#000000;stroke-width:1.88923228;stroke-miterlimit:4;stroke-dasharray:none;stroke-opacity:1"
       id="rect3254"
       width="1505.6681"
       height="14.648744"
       x="-50.778011"
       y="-55.457764" />
    <rect
       style="opacity:1;fill:#502d16;fill-opacity:1;stroke:#000000;stroke-width:1.88923228;stroke-miterlimit:4;stroke-dasharray:none;stroke-opacity:1"
       id="rect3258"
       width="74.312401"
       height="11.221411"
       x="60.626766"
       y="-16.846474" />
    <rect
       style="opacity:1;fill:#502d16;fill-opacity:1;stroke:#000000;stroke-width:1.88923228;stroke-miterlimit:4;stroke-dasharray:none;stroke-opacity:1"
       id="rect3282"
       width="74.312401"
       height="11.221411"
       x="8.3222713"
       y="-30.916393" />
    <rect
       style="opacity:1;fill:#502d16;fill-opacity:1;stroke:#000000;stroke-width:1.88923228;stroke-miterlimit:4;stroke-dasharray:none;stroke-opacity:1"
       id="rect3284"
       width="74.312401"
       height="11.221411"
       x="295.5683"
       y="-24.874098" />
    <rect
       style="opacity:1;fill:#502d16;fill-opacity:1;stroke:#000000;stroke-width:1.88923228;stroke-miterlimit:4;stroke-dasharray:none;stroke-opacity:1"
       id="rect3286"
       width="74.312401"
       height="11.221411"
       x="744.3009"
       y="-13.652688" />
    <rect
       style="opacity:1;fill:#502d16;fill-opacity:1;stroke:#000000;stroke-width:1.88923228;stroke-miterlimit:4;stroke-dasharray:none;stroke-opacity:1"
       id="rect3288"
       width="74.312401"
       height="11.221411"
       x="765.73718"
       y="-29.190025" />
    <rect
       style="opacity:1;fill:#502d16;fill-opacity:1;stroke:#000000;stroke-width:1.88923228;stroke-miterlimit:4;stroke-dasharray:none;stroke-opacity:1"
       id="rect3290"
       width="74.312401"
       height="11.221411"
       x="970.09625"
       y="-23.147728" />
    <rect
       style="opacity:1;fill:#502d16;fill-opacity:1;stroke:#000000;stroke-width:1.88923228;stroke-miterlimit:4;stroke-dasharray:none;stroke-opacity:1"
       id="rect3292"
       width="74.312401"
       height="11.221411"
       x="538.5127"
       y="-11.926316" />
    <rect
       style="opacity:1;fill:#502d16;fill-opacity:1;stroke:#000000;stroke-width:1.88923228;stroke-miterlimit:4;stroke-dasharray:none;stroke-opacity:1"
       id="rect3294"
       width="74.312401"
       height="11.221411"
       x="1258.7714"
       y="-29.190025" />
    <rect
       style="opacity:1;fill:#502d16;fill-opacity:1;stroke:#000000;stroke-width:1.88923228;stroke-miterlimit:4;stroke-dasharray:none;stroke-opacity:1"
       id="rect3296"
       width="74.312401"
       height="11.221411"
       x="1258.7714"
       y="-13.652688" />
    <rect
       style="opacity:1;fill:#a05a2c;fill-opacity:1;stroke:#000000;stroke-width:1.88923228;stroke-miterlimit:4;stroke-dasharray:none;stroke-opacity:1"
       id="rect3298"
       width="74.312401"
       height="11.221411"
       x="1021.5433"
       y="-8.4735737" />
    <rect
       style="opacity:1;fill:#a05a2c;fill-opacity:1;stroke:#000000;stroke-width:1.88923228;stroke-miterlimit:4;stroke-dasharray:none;stroke-opacity:1"
       id="rect3300"
       width="74.312401"
       height="11.221411"
       x="572.81067"
       y="-27.463654" />
    <rect
       style="opacity:1;fill:#a05a2c;fill-opacity:1;stroke:#000000;stroke-width:1.88923228;stroke-miterlimit:4;stroke-dasharray:none;stroke-opacity:1"
       id="rect3302"
       width="74.312401"
       height="11.221411"
       x="489.9238"
       y="-27.463654" />
    <rect
       style="opacity:1;fill:#a05a2c;fill-opacity:1;stroke:#000000;stroke-width:1.88923228;stroke-miterlimit:4;stroke-dasharray:none;stroke-opacity:1"
       id="rect3304"
       width="74.312401"
       height="11.221411"
       x="1134.4409"
       y="-27.463654" />
    <rect
       style="opacity:1;fill:#a05a2c;fill-opacity:1;stroke:#000000;stroke-width:1.88923228;stroke-miterlimit:4;stroke-dasharray:none;stroke-opacity:1"
       id="rect3306"
       width="74.312401"
       height="11.221411"
       x="142.65623"
       y="-17.968613" />
    <path
       style="opacity:1;fill:#ffcc00;fill-opacity:1;stroke:#000000;stroke-width:2.02726245;stroke-miterlimit:4;stroke-dasharray:none;stroke-opacity:1"
       d="M 157.66956,-138.3042 C 155.58575,-142.18387 157.03409,-146.61979 156.19446,-150.7268 C 155.68946,-154.60021 155.56646,-158.65755 157.20074,-162.33128 C 158.26112,-165.79407 160.59334,-168.76609 163.40941,-171.18897 C 167.15879,-174.65407 170.91026,-178.59866 176.21685,-179.92227 C 179.21734,-180.8436 182.39937,-180.81557 185.50976,-180.89918 C 188.06403,-181.20734 190.56607,-181.85807 193.14573,-181.9869 C 195.78359,-180.88512 194.5467,-177.78485 193.66484,-175.94237 C 192.38937,-173.13737 190.66048,-170.52527 189.29545,-167.76556 C 186.52308,-164.01771 184.36578,-159.93257 182.34441,-155.80541 C 180.1705,-151.80906 176.74828,-148.37177 172.60928,-146.07092 C 170.18349,-144.8869 167.52986,-144.0117 165.52537,-142.19714 C 163.53968,-140.83404 162.56579,-138.08006 159.8186,-137.85695 C 159.07402,-137.79956 158.32356,-137.97731 157.66956,-138.3042 z"
       id="path3321" />
    <path
       style="opacity:1;fill:#338000;fill-opacity:1;stroke:#000000;stroke-width:2.43000007;stroke-miterlimit:4;stroke-dasharray:none;stroke-opacity:1"
       d="M -26.238211,171.48919 C -38.625324,187.44568 -17.924549,205.89621 -9.4672686,218.37848 C -8.4703606,219.96453 -8.2083616,222.09313 -7.6759576,223.64454 C -7.1392466,218.5974 -5.1631546,213.86325 -3.3096456,209.19216 C -2.5551116,205.55855 -2.1990346,201.85137 -1.5579496,198.20126 C -0.42214563,184.20926 -9.1031916,162.26342 -26.238211,171.48919 z"
       id="path3341"
       sodipodi:nodetypes="cccccc" />
    <path
       style="opacity:1;fill:none;fill-opacity:1;stroke:#000000;stroke-width:2.33999991;stroke-miterlimit:4;stroke-dasharray:none;stroke-opacity:1"
       d="M 310.94805,-59.210733 C 310.31215,-74.097983 307.61001,-72.363103 307.60193,-89.420913 C 309.65362,-102.44793 307.16991,-141.93385 311.04028,-149.89085 C 312.79077,-153.28246 315.13271,-149.86091 316.40037,-146.81389 C 313.01054,-129.18285 316.331,-63.967123 310.94805,-59.210733 z"
       id="path3424"
       sodipodi:nodetypes="ccccc" />
    <path
       style="opacity:1;fill:#7137c8;fill-opacity:1;stroke:#000000;stroke-width:1.89200294;stroke-miterlimit:4;stroke-dasharray:none;stroke-opacity:1"
       d="M 300.92874,-127.5608 C 302.85293,-125.48025 305.08875,-123.44429 307.99202,-122.77695 C 310.74,-122.10048 313.66951,-122.02518 316.45547,-122.51255 C 319.41864,-123.25193 321.40804,-125.68136 323.29752,-127.82347 C 330.1873,-138.05793 320.82443,-150.99584 312.14285,-156.91547 C 303.12663,-152.53805 295.12894,-136.97062 300.92874,-127.5608 z"
       id="path3380"
       sodipodi:nodetypes="cccccc" />
    <path
       style="opacity:1;fill:#7137c8;fill-opacity:1;stroke:#000000;stroke-width:1.89200294;stroke-miterlimit:4;stroke-dasharray:none;stroke-opacity:1"
       d="M 322.00222,-186.31951 C 320.07802,-188.40006 317.84221,-190.43602 314.93894,-191.10336 C 312.19096,-191.77983 309.26145,-191.85513 306.47548,-191.36776 C 303.51232,-190.62838 301.52292,-188.19895 299.63344,-186.05684 C 292.74366,-175.82238 302.10653,-162.88447 310.78811,-156.96484 C 319.80432,-161.34226 327.80202,-176.90969 322.00222,-186.31951 z"
       id="path3386"
       sodipodi:nodetypes="cccccc" />
    <path
       style="opacity:1;fill:#7137c8;fill-opacity:1;stroke:#000000;stroke-width:1.89200294;stroke-miterlimit:4;stroke-dasharray:none;stroke-opacity:1"
       d="M 343.38827,-145.49549 C 345.59897,-147.29323 347.77129,-149.39187 348.53876,-152.16748 C 349.31174,-154.79348 349.46479,-157.60946 349.0296,-160.30172 C 348.33711,-163.17087 345.8639,-165.14653 343.68666,-167.01872 C 333.22971,-173.90737 319.54899,-165.23165 313.17718,-157.03203 C 317.49476,-148.24754 333.46399,-140.15699 343.38827,-145.49549 z"
       id="path3388"
       sodipodi:nodetypes="cccccc" />
    <path
       style="opacity:1;fill:#7137c8;fill-opacity:1;stroke:#000000;stroke-width:1.89200294;stroke-miterlimit:4;stroke-dasharray:none;stroke-opacity:1"
       d="M 280.19232,-145.60425 C 277.98162,-147.40199 275.8093,-149.50063 275.04184,-152.27624 C 274.26885,-154.90224 274.1158,-157.71822 274.55099,-160.41048 C 275.24349,-163.27964 277.71669,-165.25529 279.89393,-167.12748 C 290.35088,-174.01613 304.0316,-165.34041 310.40341,-157.14079 C 306.08583,-148.3563 290.1166,-140.26575 280.19232,-145.60425 z"
       id="path3390"
       sodipodi:nodetypes="cccccc" />
    <path
       style="opacity:1;fill:#2c2ca0;fill-opacity:1;stroke:#000000;stroke-width:2.33999991;stroke-miterlimit:4;stroke-dasharray:none;stroke-opacity:1"
       d="M 517.94394,-160.80136 C 521.15695,-152.30957 525.52071,-138.67381 530.6773,-137.10253 C 529.65636,-132.68416 516.54799,-143.7656 517.11666,-139.34377 C 515.29257,-138.55126 515.979,-135.60341 514.45897,-134.32633 C 512.36449,-132.64205 511.34009,-135.64847 510.31741,-136.96514 C 505.57067,-139.69236 503.28085,-135.38388 498.12773,-128.80766 C 501.92671,-140.59439 493.16272,-154.06726 500.70232,-164.8069 C 509.27026,-170.03449 514.52063,-169.58445 517.94394,-160.80136 z"
       id="path3414"
       sodipodi:nodetypes="cccccccc" />
    <path
       style="opacity:1;fill:none;fill-opacity:1;stroke:#000000;stroke-width:2.43000007;stroke-miterlimit:4;stroke-dasharray:none;stroke-opacity:1"
       d="M -47.814433,227.12929 C -49.420693,226.07776 -55.791383,226.26639 -59.243003,227.12929 C -62.139923,227.85352 -66.303953,230.61882 -68.528713,232.84358 C -72.052873,236.36773 -63.441853,236.01443 -61.385853,234.98643 C -58.806243,233.69663 -54.674673,232.9515 -51.385853,232.12929 C -45.822673,230.73849 -43.351283,234.56786 -47.814433,227.12929 z"
       id="path3430" />
    <path
       style="opacity:1;fill:none;fill-opacity:1;stroke:#000000;stroke-width:2.43000007;stroke-miterlimit:4;stroke-dasharray:none;stroke-opacity:1"
       d="M -65.798853,231.1696 C -53.411743,247.12609 -74.112513,265.57662 -82.569793,278.05889 C -83.566703,279.64494 -83.828703,281.77354 -84.361103,283.32495 C -84.897813,278.27781 -86.873913,273.54366 -88.727413,268.87257 C -89.481953,265.23896 -89.838033,261.53178 -90.479113,257.88167 C -91.614913,243.88967 -82.933873,221.94383 -65.798853,231.1696 z"
       id="path3432"
       sodipodi:nodetypes="cccccc" />
    <path
       style="opacity:1;fill:none;fill-opacity:1;stroke:#000000;stroke-width:2.43000007;stroke-miterlimit:4;stroke-dasharray:none;stroke-opacity:1"
       d="M -44.957283,67.129287 C -46.563553,66.077757 -52.934243,66.266387 -56.385853,67.129287 C -59.282783,67.853517 -63.446813,70.618817 -65.671573,72.843577 C -69.195723,76.367727 -60.584703,76.014427 -58.528713,74.986427 C -55.949103,73.696627 -51.817533,72.951497 -48.528713,72.129287 C -42.965533,70.738487 -40.494143,74.567857 -44.957283,67.129287 z"
       id="path3434" />
    <path
       style="opacity:1;fill:none;fill-opacity:1;stroke:#000000;stroke-width:2.43000007;stroke-miterlimit:4;stroke-dasharray:none;stroke-opacity:1"
       d="M -62.941713,71.169597 C -50.554593,87.126087 -71.255373,105.57663 -79.712653,118.0589 C -80.709563,119.64495 -80.971563,121.77355 -81.503963,123.32496 C -82.040673,118.27782 -84.016763,113.54367 -85.870273,108.87258 C -86.624813,105.23897 -86.980883,101.53178 -87.621973,97.88167 C -88.757773,83.889667 -80.076733,61.943827 -62.941713,71.169597 z"
       id="path3436"
       sodipodi:nodetypes="cccccc" />
    <path
       style="opacity:1;fill:none;fill-opacity:1;stroke:#000000;stroke-width:2.43000007;stroke-miterlimit:4;stroke-dasharray:none;stroke-opacity:1"
       d="M -47.560183,267.1293 C -45.953913,266.07777 -39.583223,266.2664 -36.131613,267.1293 C -33.234683,267.85353 -29.070653,270.61883 -26.845893,272.84359 C -23.321743,276.36774 -31.932763,276.01444 -33.988753,274.98644 C -36.568363,273.69664 -40.699933,272.95151 -43.988753,272.1293 C -49.551933,270.7385 -52.023323,274.56787 -47.560183,267.1293 z"
       id="path3438" />
    <path
       style="opacity:1;fill:none;fill-opacity:1;stroke:#000000;stroke-width:2.43000007;stroke-miterlimit:4;stroke-dasharray:none;stroke-opacity:1"
       d="M -29.575753,271.16961 C -41.962873,287.1261 -21.262093,305.57663 -12.804809,318.0589 C -11.807899,319.64495 -11.545909,321.77355 -11.013499,323.32496 C -10.476789,318.27782 -8.500699,313.54367 -6.6471888,308.87258 C -5.8926488,305.23897 -5.5365788,301.53179 -4.8954888,297.88168 C -3.7596888,283.88968 -12.440739,261.94384 -29.575753,271.16961 z"
       id="path3440"
       sodipodi:nodetypes="cccccc" />
    <path
       style="opacity:1;fill:none;fill-opacity:1;stroke:#000000;stroke-width:2.43000007;stroke-miterlimit:4;stroke-dasharray:none;stroke-opacity:1"
       d="M -44.473023,167.01016 C -42.866753,165.95863 -36.496063,166.14726 -33.044443,167.01016 C -30.147523,167.73439 -25.983493,170.49969 -23.758733,172.72445 C -20.234583,176.2486 -28.845603,175.8953 -30.901593,174.8673 C -33.481203,173.5775 -37.612773,172.83237 -40.901593,172.01016 C -46.464773,170.61936 -48.936163,174.44873 -44.473023,167.01016 z"
       id="path3442" />
    <path
       style="opacity:1;fill:none;fill-opacity:1;stroke:#000000;stroke-width:2.02726245;stroke-miterlimit:4;stroke-dasharray:none;stroke-opacity:1"
       d="M 206.29028,-160.55565 C 209.14057,-161.27044 212.68618,-161.5052 214.95099,-159.40761 C 214.51436,-156.74085 212.28772,-154.75947 211.19027,-152.32817 C 209.38334,-149.02924 205.45871,-147.62639 202.42274,-145.51024 C 199.99493,-144.05793 198.23688,-141.87524 195.96969,-140.25869 C 192.96359,-139.08563 189.64268,-138.71249 186.42667,-138.2731 C 183.70445,-138.27148 181.26689,-137.13483 178.66666,-136.56481 C 176.16108,-136.35407 173.63261,-136.29476 171.12687,-135.97785 C 168.56591,-135.72609 165.89519,-135.928 163.5828,-137.04772 C 161.60937,-137.43805 158.05647,-138.30487 159.90659,-140.80767 C 161.18156,-143.51865 163.01205,-146.0405 165.59373,-147.81805 C 170.28742,-151.31656 175.38082,-154.73193 181.31862,-156.0817 C 185.41151,-156.72738 189.46157,-157.63574 193.6021,-157.99366 C 197.8709,-158.67993 201.96819,-160.1301 206.29028,-160.55565 z"
       id="path3444" />
    <rect
       style="opacity:1;fill:none;fill-opacity:1;stroke:#000000;stroke-width:1.88923228;stroke-miterlimit:4;stroke-dasharray:none;stroke-opacity:1"
       id="rect3452"
       width="1455.1422"
       height="50.049873"
       x="-24.754993"
       y="-42.431698" />
    <rect
       style="opacity:1;fill:none;fill-opacity:1;stroke:#000000;stroke-width:1.88923228;stroke-miterlimit:4;stroke-dasharray:none;stroke-opacity:1"
       id="rect3454"
       width="1505.6681"
       height="14.648744"
       x="-51.028393"
       y="-55.896481" />
    <rect
       style="opacity:1;fill:none;fill-opacity:1;stroke:#000000;stroke-width:1.88923228;stroke-miterlimit:4;stroke-dasharray:none;stroke-opacity:1"
       id="rect3456"
       width="74.312401"
       height="11.221411"
       x="60.376389"
       y="-17.285213" />
    <rect
       style="opacity:1;fill:none;fill-opacity:1;stroke:#000000;stroke-width:1.88923228;stroke-miterlimit:4;stroke-dasharray:none;stroke-opacity:1"
       id="rect3458"
       width="74.312401"
       height="11.221411"
       x="8.0718956"
       y="-31.355099" />
    <rect
       style="opacity:1;fill:none;fill-opacity:1;stroke:#000000;stroke-width:1.88923228;stroke-miterlimit:4;stroke-dasharray:none;stroke-opacity:1"
       id="rect3460"
       width="74.312401"
       height="11.221411"
       x="295.31793"
       y="-25.312801" />
    <rect
       style="opacity:1;fill:none;fill-opacity:1;stroke:#000000;stroke-width:1.88923228;stroke-miterlimit:4;stroke-dasharray:none;stroke-opacity:1"
       id="rect3462"
       width="74.312401"
       height="11.221411"
       x="744.05054"
       y="-14.091427" />
    <rect
       style="opacity:1;fill:none;fill-opacity:1;stroke:#000000;stroke-width:1.88923228;stroke-miterlimit:4;stroke-dasharray:none;stroke-opacity:1"
       id="rect3464"
       width="74.312401"
       height="11.221411"
       x="765.48682"
       y="-29.62878" />
    <rect
       style="opacity:1;fill:none;fill-opacity:1;stroke:#000000;stroke-width:1.88923228;stroke-miterlimit:4;stroke-dasharray:none;stroke-opacity:1"
       id="rect3466"
       width="74.312401"
       height="11.221411"
       x="969.84589"
       y="-23.586483" />
    <rect
       style="opacity:1;fill:none;fill-opacity:1;stroke:#000000;stroke-width:1.88923228;stroke-miterlimit:4;stroke-dasharray:none;stroke-opacity:1"
       id="rect3468"
       width="74.312401"
       height="11.221411"
       x="538.26233"
       y="-12.365047" />
    <rect
       style="opacity:1;fill:none;fill-opacity:1;stroke:#000000;stroke-width:1.88923228;stroke-miterlimit:4;stroke-dasharray:none;stroke-opacity:1"
       id="rect3470"
       width="74.312401"
       height="11.221411"
       x="1258.521"
       y="-29.62878" />
    <rect
       style="opacity:1;fill:none;fill-opacity:1;stroke:#000000;stroke-width:1.88923228;stroke-miterlimit:4;stroke-dasharray:none;stroke-opacity:1"
       id="rect3472"
       width="74.312401"
       height="11.221411"
       x="1258.521"
       y="-14.091427" />
    <rect
       style="opacity:1;fill:none;fill-opacity:1;stroke:#000000;stroke-width:1.88923228;stroke-miterlimit:4;stroke-dasharray:none;stroke-opacity:1"
       id="rect3474"
       width="74.312401"
       height="11.221411"
       x="1021.2928"
       y="-8.9122887" />
    <rect
       style="opacity:1;fill:none;fill-opacity:1;stroke:#000000;stroke-width:1.88923228;stroke-miterlimit:4;stroke-dasharray:none;stroke-opacity:1"
       id="rect3476"
       width="74.312401"
       height="11.221411"
       x="572.5603"
       y="-27.902401" />
    <rect
       style="opacity:1;fill:none;fill-opacity:1;stroke:#000000;stroke-width:1.88923228;stroke-miterlimit:4;stroke-dasharray:none;stroke-opacity:1"
       id="rect3478"
       width="74.312401"
       height="11.221411"
       x="489.6734"
       y="-27.902401" />
    <rect
       style="opacity:1;fill:none;fill-opacity:1;stroke:#000000;stroke-width:1.88923228;stroke-miterlimit:4;stroke-dasharray:none;stroke-opacity:1"
       id="rect3480"
       width="74.312401"
       height="11.221411"
       x="1134.1906"
       y="-27.902401" />
    <rect
       style="opacity:1;fill:none;fill-opacity:1;stroke:#000000;stroke-width:1.88923228;stroke-miterlimit:4;stroke-dasharray:none;stroke-opacity:1"
       id="rect3482"
       width="74.312401"
       height="11.221411"
       x="142.40585"
       y="-18.407345" />
    <path
       style="opacity:1;fill:none;fill-opacity:1;stroke:#000000;stroke-width:2.02726245;stroke-miterlimit:4;stroke-dasharray:none;stroke-opacity:1"
       d="M 157.41918,-138.74292 C 155.33537,-142.62259 156.78371,-147.05851 155.94408,-151.16552 C 155.43908,-155.03893 155.31608,-159.09627 156.95036,-162.77 C 158.01074,-166.23279 160.34296,-169.20481 163.15903,-171.62769 C 166.90841,-175.09279 170.65988,-179.03738 175.96647,-180.36099 C 178.96696,-181.28232 182.14899,-181.25429 185.25938,-181.3379 C 187.81365,-181.64606 190.31569,-182.29679 192.89535,-182.42562 C 195.53321,-181.32384 194.29632,-178.22357 193.41446,-176.38109 C 192.13899,-173.57609 190.4101,-170.96399 189.04507,-168.20428 C 186.2727,-164.45643 184.1154,-160.37129 182.09403,-156.24413 C 179.92012,-152.24778 176.4979,-148.81049 172.3589,-146.50964 C 169.93311,-145.32562 167.27948,-144.45042 165.27499,-142.63586 C 163.2893,-141.27276 162.31541,-138.51878 159.56822,-138.29567 C 158.82364,-138.23828 158.07318,-138.41603 157.41918,-138.74292 z"
       id="path3484" />
    <path
       style="opacity:1;fill:#ffcc00;fill-opacity:1;stroke:#000000;stroke-width:2.02726245;stroke-miterlimit:4;stroke-dasharray:none;stroke-opacity:1"
       d="M 203.33722,-171.08267 C 205.49887,-169.27971 202.74779,-163.95525 202.64863,-161.59333 C 201.65607,-157.52534 198.00286,-154.68391 194.59431,-152.26877 C 192.16095,-150.81686 189.74724,-149.33983 187.43754,-147.72565 C 185.06568,-146.41335 182.68091,-145.11937 180.47931,-143.56824 C 177.54542,-141.93371 174.44944,-140.50459 171.24117,-139.40309 C 168.62448,-138.75907 165.93976,-138.33797 163.27168,-137.9448 C 161.09734,-137.57675 158.06296,-138.54316 158.26843,-140.99352 C 158.206,-144.69424 161.19704,-147.54594 162.58028,-150.82296 C 164.168,-153.94091 165.71793,-157.21491 168.52294,-159.57245 C 170.51721,-161.41362 171.89783,-163.76737 174.04102,-165.46353 C 182.40544,-170.1396 194.04332,-174.1566 203.33722,-171.08267 z"
       id="path3328"
       sodipodi:nodetypes="cccccccccccc" />
    <path
       style="opacity:1;fill:none;fill-opacity:1;stroke:#000000;stroke-width:2.02726245;stroke-miterlimit:4;stroke-dasharray:none;stroke-opacity:1"
       d="M 203.08684,-171.52139 C 205.24849,-169.71843 202.49741,-164.39397 202.39825,-162.03205 C 201.40569,-157.96406 197.75248,-155.12263 194.34393,-152.70749 C 191.91057,-151.25558 189.49686,-149.77855 187.18716,-148.16437 C 184.8153,-146.85207 182.43053,-145.55809 180.22893,-144.00696 C 177.29504,-142.37243 174.19906,-140.94331 170.99079,-139.84181 C 168.3741,-139.19779 165.68938,-138.77669 163.0213,-138.38352 C 160.84696,-138.01547 157.81258,-138.98188 158.01805,-141.43224 C 157.95562,-145.13296 160.94666,-147.98466 162.3299,-151.26168 C 163.91762,-154.37963 165.46755,-157.65363 168.27256,-160.01117 C 170.26683,-161.85234 171.64745,-164.20609 173.79064,-165.90225 C 182.15506,-170.57832 193.79294,-174.59532 203.08684,-171.52139 z"
       id="path3486"
       sodipodi:nodetypes="cccccccccccc" />
    <path
       style="opacity:1;fill:#338000;fill-opacity:1;stroke:#000000;stroke-width:2.43000007;stroke-miterlimit:4;stroke-dasharray:none;stroke-opacity:1"
       d="M 7.2059374,-61.836839 C 5.9279394,-63.653386 -2.6411216,-67.512889 -8.5083486,-68.979696 C -13.434303,-70.211185 -19.039065,-70.085839 -24.222635,-71.122553 C -28.636266,-72.00528 -33.691705,-67.81659 -37.079777,-66.122553 C -40.136994,-64.593945 -43.572147,-57.946421 -44.222635,-54.693982 C -45.18159,-49.899203 -46.578184,-45.986069 -47.794063,-41.122553 C -48.938747,-36.543818 -47.319929,-30.654588 -46.365492,-26.836839 C -44.408673,-19.009564 -41.658034,-13.991077 -37.794063,-7.5511246 C -34.795734,-2.5539091 -30.499832,2.0373369 -27.794063,7.4488755 C -25.098645,12.839712 -22.884161,18.517055 -21.365492,24.591733 C -20.339236,28.696757 -20.576817,34.294176 -21.365492,37.448875 C -22.527061,42.09515 -25.505427,45.587837 -28.508349,49.591733 C -31.275871,53.281763 -33.588337,54.671721 -36.365492,57.448875 C -40.131884,61.215268 -41.951663,64.182818 -44.93692,68.163161 C -46.616397,70.402463 -48.40358,74.886943 -49.222635,78.163161 C -50.354519,82.690696 -49.351942,89.982751 -47.794063,93.877447 C -46.285747,97.648236 -44.933771,101.74719 -44.222635,104.59174 C -43.040849,109.31888 -39.464733,116.2504 -37.079777,121.02031 C -35.620475,123.93891 -35.622803,128.04956 -36.365492,131.02031 C -37.081057,133.88257 -39.471653,135.49279 -42.079777,137.44888 C -46.749655,140.95129 -51.037825,143.98884 -55.651206,147.44888 C -58.558401,149.62928 -60.297916,151.75001 -61.365492,156.02031 C -62.676816,161.26561 -63.508349,164.4184 -63.508349,170.30602 C -63.508349,175.81375 -62.642354,180.91286 -61.365492,186.02031 C -60.292871,190.31079 -58.848857,194.65828 -57.794063,198.87745 C -56.435153,204.31309 -53.469824,209.03155 -52.079778,214.59174 C -51.181208,218.18602 -49.467681,220.75441 -48.508349,224.59174 C -47.516346,228.55975 -47.794063,233.28872 -47.794063,237.44888 C -47.794063,240.38374 -49.334241,244.81495 -50.651206,247.44888 C -52.6931,251.53267 -52.905009,255.52791 -54.936921,259.59174 C -56.831431,263.38076 -57.079778,269.29287 -57.079778,273.87745 C -57.079778,278.79709 -55.591263,282.03431 -54.936921,285.30602 C -54.259868,288.69129 -53.038735,292.89877 -52.079778,296.73459 C -50.863301,301.6005 -49.403784,305.11456 -48.508349,309.59174 C -47.755627,313.35535 -47.815291,316.62846 -47.079778,320.30602 C -46.549035,322.95974 -49.352223,329.52539 -49.936921,332.44888 C -50.934481,337.43668 -51.714654,340.2741 -52.794063,344.59174 C -53.586821,347.76277 -56.365492,350.02771 -56.365492,353.87745 C -56.365492,357.87031 -58.024702,360.09776 -57.079778,363.87745 C -55.886206,368.65174 -54.664933,368.43515 -54.222635,368.87745 C -51.976449,371.12364 -52.850213,362.67348 -52.079778,359.59174 C -51.29446,356.45047 -50.696459,354.05846 -49.936921,351.02031 C -49.09946,347.67047 -48.055698,345.11501 -46.365492,341.73459 C -44.768463,338.54054 -42.769805,335.25751 -41.365492,332.44888 C -39.698335,329.11457 -38.446437,326.48695 -37.794063,323.87745 C -36.806437,319.92695 -37.079777,315.16902 -37.079777,310.30602 C -37.079777,304.69195 -39.399249,298.88528 -40.651206,293.87745 C -41.734078,289.54596 -42.500139,285.05315 -43.508349,281.02031 C -44.369718,277.57483 -44.222635,273.85417 -44.222635,269.59174 C -44.222635,265.39837 -43.124139,261.68046 -41.365492,258.16317 C -38.830183,253.09255 -38.841871,247.40164 -36.365492,242.44888 C -34.292913,238.30372 -34.93692,230.63633 -34.93692,226.02031 C -34.93692,220.54743 -37.362949,217.09809 -39.222635,212.44888 C -41.202639,207.49887 -42.222917,201.73389 -44.222635,196.73459 C -45.945636,192.42709 -46.365492,186.99716 -46.365492,182.44888 C -46.365492,178.37446 -46.328061,175.23116 -44.93692,172.44888 C -42.61231,167.79966 -40.2583,161.10947 -38.508349,156.73459 C -36.845338,152.57707 -32.944468,149.74214 -30.651206,147.44888 C -28.063648,144.86132 -26.158611,144.38486 -24.222635,142.44888 C -21.713315,139.93956 -21.365492,135.498 -21.365492,131.73459 C -21.365492,126.56976 -21.635721,122.08225 -22.794063,117.44888 C -24.235934,111.6814 -24.914727,106.10909 -26.365492,100.30602 C -27.377335,96.258645 -28.403072,94.403831 -29.222634,90.306018 C -29.918062,86.828878 -29.222634,82.433496 -29.222634,78.877447 C -29.222634,75.034408 -26.815978,70.756505 -24.936921,68.877447 C -21.633481,65.574007 -16.845519,63.40893 -14.936921,59.591733 C -13.546546,56.810983 -10.455915,54.20115 -9.2226346,51.73459 C -7.1794306,47.648181 -6.1071256,46.415412 -4.9369206,41.73459 C -4.1396516,38.545515 -4.2226346,33.379252 -4.2226346,30.306018 C -4.2226346,26.057586 -4.1542746,22.07639 -4.9369206,18.163161 C -5.9447246,13.124139 -6.8312286,7.9773348 -7.7940626,3.1631612 C -8.6629376,-1.1812109 -10.263178,-5.2847276 -11.365492,-9.6939819 C -12.546313,-14.417264 -14.927839,-18.961533 -17.079778,-23.26541 C -19.377681,-27.861217 -20.851822,-31.981236 -22.794063,-36.836839 C -24.210911,-40.378958 -25.678533,-43.374716 -26.365492,-46.122553 C -27.323809,-49.955822 -24.922854,-51.893107 -24.222635,-54.693982 C -24.044335,-55.407183 -15.732041,-55.408268 -14.222635,-55.408268 C -9.8765586,-55.408268 -7.7626556,-54.864701 -4.2226346,-53.979696 C -0.16805663,-52.966052 3.3539374,-54.80241 5.7773654,-55.408268 C 8.0370774,-55.973196 7.4931504,-60.400774 7.2059374,-61.836839 z"
       id="path3337" />
    <path
       style="opacity:1;fill:none;fill-opacity:1;stroke:#000000;stroke-width:2.43000007;stroke-miterlimit:4;stroke-dasharray:none;stroke-opacity:1"
       d="M 6.955561,-62.275563 C 5.677561,-64.092113 -2.8914988,-67.951613 -8.758729,-69.418423 C -13.684679,-70.649913 -19.289453,-70.524563 -24.473023,-71.561283 C -28.886653,-72.444003 -33.942093,-68.255313 -37.330163,-66.561283 C -40.387383,-65.032673 -43.822533,-58.385143 -44.473023,-55.132703 C -45.431973,-50.337933 -46.828573,-46.424793 -48.044443,-41.561283 C -49.189133,-36.982543 -47.570313,-31.093313 -46.615873,-27.275563 C -44.659053,-19.448293 -41.908423,-14.429803 -38.044443,-7.989853 C -35.046123,-2.992633 -30.750213,1.598607 -28.044443,7.010147 C -25.349033,12.400987 -23.134543,18.078327 -21.615873,24.153007 C -20.589623,28.258027 -20.827203,33.855447 -21.615873,37.010147 C -22.777443,41.656427 -25.755813,45.149107 -28.758733,49.153007 C -31.526253,52.843037 -33.838723,54.232997 -36.615873,57.010147 C -40.382273,60.776547 -42.202043,63.744097 -45.187303,67.724437 C -46.866783,69.963737 -48.653963,74.448217 -49.473023,77.724437 C -50.604903,82.251967 -49.602323,89.544027 -48.044443,93.438717 C -46.536133,97.20951 -45.184153,101.30847 -44.473023,104.15302 C -43.291233,108.88016 -39.715113,115.81168 -37.330163,120.58159 C -35.870863,123.50019 -35.873183,127.61084 -36.615873,130.58159 C -37.331443,133.44385 -39.722033,135.05407 -42.330163,137.01016 C -47.000043,140.51257 -51.288213,143.55012 -55.901593,147.01016 C -58.808783,149.19056 -60.548303,151.31129 -61.615873,155.58159 C -62.927203,160.82689 -63.758733,163.97968 -63.758733,169.8673 C -63.758733,175.37503 -62.892743,180.47414 -61.615873,185.58159 C -60.543253,189.87207 -59.099243,194.21956 -58.044443,198.43873 C -56.685533,203.87437 -53.720213,208.59283 -52.330163,214.15302 C -51.431593,217.7473 -49.718063,220.31569 -48.758733,224.15302 C -47.766733,228.12103 -48.044443,232.85 -48.044443,237.01016 C -48.044443,239.94502 -49.584623,244.37623 -50.901593,247.01016 C -52.943483,251.09395 -53.155393,255.08919 -55.187303,259.15302 C -57.081813,262.94204 -57.330163,268.85415 -57.330163,273.43873 C -57.330163,278.35837 -55.841643,281.59559 -55.187303,284.8673 C -54.510253,288.25257 -53.289123,292.46005 -52.330163,296.29587 C -51.113683,301.16178 -49.654173,304.67584 -48.758733,309.15302 C -48.006013,312.91663 -48.065673,316.18974 -47.330163,319.8673 C -46.799423,322.52102 -49.602603,329.08667 -50.187303,332.01016 C -51.184863,336.99796 -51.965043,339.83538 -53.044443,344.15302 C -53.837203,347.32403 -56.615873,349.58903 -56.615873,353.43873 C -56.615873,357.43163 -58.275083,359.65903 -57.330163,363.43873 C -56.136593,368.21303 -54.915313,367.99643 -54.473023,368.43873 C -52.226833,370.68493 -53.100593,362.23473 -52.330163,359.15303 C -51.544843,356.01173 -50.946843,353.61973 -50.187303,350.58163 C -49.349843,347.23173 -48.306083,344.67633 -46.615873,341.29587 C -45.018843,338.10182 -43.020193,334.81879 -41.615873,332.01016 C -39.948723,328.67585 -38.696823,326.04823 -38.044443,323.43873 C -37.056823,319.48823 -37.330163,314.7303 -37.330163,309.8673 C -37.330163,304.25323 -39.649633,298.44656 -40.901593,293.43873 C -41.984463,289.10724 -42.750523,284.61443 -43.758733,280.58159 C -44.620103,277.13611 -44.473023,273.41545 -44.473023,269.15302 C -44.473023,264.95965 -43.374523,261.24174 -41.615873,257.72445 C -39.080563,252.65383 -39.092253,246.96292 -36.615873,242.01016 C -34.543293,237.865 -35.187303,230.19761 -35.187303,225.58159 C -35.187303,220.10871 -37.613333,216.65937 -39.473023,212.01016 C -41.453023,207.06015 -42.473303,201.29517 -44.473023,196.29587 C -46.196023,191.98837 -46.615873,186.55844 -46.615873,182.01016 C -46.615873,177.93574 -46.578443,174.79244 -45.187303,172.01016 C -42.862693,167.36094 -40.508683,160.67075 -38.758733,156.29587 C -37.095723,152.13835 -33.194853,149.30342 -30.901593,147.01016 C -28.314033,144.4226 -26.408993,143.94614 -24.473023,142.01016 C -21.963703,139.50084 -21.615873,135.05928 -21.615873,131.29587 C -21.615873,126.13104 -21.886103,121.64353 -23.044443,117.01016 C -24.486323,111.24268 -25.165113,105.67037 -26.615873,99.8673 C -27.627723,95.819917 -28.653453,93.965107 -29.473023,89.867297 C -30.168443,86.390157 -29.473023,81.994767 -29.473023,78.438717 C -29.473023,74.595687 -27.066363,70.317777 -25.187303,68.438717 C -21.883863,65.135277 -17.095903,62.970207 -15.187299,59.153007 C -13.796929,56.372257 -10.706299,53.762427 -9.473019,51.295867 C -7.4298088,47.209457 -6.3575088,45.976687 -5.1872988,41.295867 C -4.3900288,38.106787 -4.4730188,32.940527 -4.4730188,29.867297 C -4.4730188,25.618857 -4.4046588,21.637667 -5.1872988,17.724437 C -6.1951088,12.685417 -7.0816088,7.538607 -8.044439,2.724437 C -8.913319,-1.619933 -10.513559,-5.723453 -11.615869,-10.132703 C -12.796689,-14.855993 -15.178219,-19.400263 -17.330163,-23.704133 C -19.628063,-28.299943 -21.102203,-32.419963 -23.044443,-37.275563 C -24.461293,-40.817683 -25.928913,-43.813443 -26.615873,-46.561283 C -27.574193,-50.394543 -25.173243,-52.331833 -24.473023,-55.132703 C -24.294723,-55.845913 -15.982419,-55.846993 -14.473019,-55.846993 C -10.126939,-55.846993 -8.013039,-55.303423 -4.4730188,-54.418423 C -0.4184388,-53.404773 3.103561,-55.241133 5.526981,-55.846993 C 7.786701,-56.411923 7.242771,-60.839503 6.955561,-62.275563 z"
       id="path3488" />
    <path
       style="opacity:1;fill:none;fill-opacity:1;stroke:#000000;stroke-width:2.43000007;stroke-miterlimit:4;stroke-dasharray:none;stroke-opacity:1"
       d="M -26.488593,171.05047 C -38.875713,187.00696 -18.174933,205.45749 -9.717649,217.93976 C -8.720739,219.52581 -8.458739,221.65441 -7.9263388,223.20582 C -7.3896288,218.15868 -5.4135388,213.42453 -3.5600288,208.75344 C -2.8054888,205.11983 -2.4494188,201.41265 -1.8083288,197.76254 C -0.6725288,183.77054 -9.353569,161.8247 -26.488593,171.05047 z"
       id="path3490"
       sodipodi:nodetypes="cccccc" />
    <path
       style="opacity:1;fill:none;fill-opacity:1;stroke:#000000;stroke-width:1.89200294;stroke-miterlimit:4;stroke-dasharray:none;stroke-opacity:1"
       d="M 300.67836,-127.99952 C 302.60255,-125.91897 304.83837,-123.88301 307.74164,-123.21567 C 310.48962,-122.5392 313.41913,-122.4639 316.20509,-122.95127 C 319.16826,-123.69065 321.15766,-126.12008 323.04714,-128.26219 C 329.93692,-138.49665 320.57405,-151.43456 311.89247,-157.35419 C 302.87625,-152.97677 294.87856,-137.40934 300.67836,-127.99952 z"
       id="path3492"
       sodipodi:nodetypes="cccccc" />
    <path
       style="opacity:1;fill:none;fill-opacity:1;stroke:#000000;stroke-width:1.89200294;stroke-miterlimit:4;stroke-dasharray:none;stroke-opacity:1"
       d="M 321.75184,-186.75823 C 319.82764,-188.83878 317.59183,-190.87474 314.68856,-191.54208 C 311.94058,-192.21855 309.01107,-192.29385 306.2251,-191.80648 C 303.26194,-191.0671 301.27254,-188.63767 299.38306,-186.49556 C 292.49328,-176.2611 301.85615,-163.32319 310.53773,-157.40356 C 319.55394,-161.78098 327.55164,-177.34841 321.75184,-186.75823 z"
       id="path3494"
       sodipodi:nodetypes="cccccc" />
    <path
       style="opacity:1;fill:none;fill-opacity:1;stroke:#000000;stroke-width:1.89200294;stroke-miterlimit:4;stroke-dasharray:none;stroke-opacity:1"
       d="M 343.13789,-145.93421 C 345.34859,-147.73195 347.52091,-149.83059 348.28838,-152.6062 C 349.06136,-155.2322 349.21441,-158.04818 348.77922,-160.74044 C 348.08673,-163.60959 345.61352,-165.58525 343.43628,-167.45744 C 332.97933,-174.34609 319.29861,-165.67037 312.9268,-157.47075 C 317.24438,-148.68626 333.21361,-140.59571 343.13789,-145.93421 z"
       id="path3496"
       sodipodi:nodetypes="cccccc" />
    <path
       style="opacity:1;fill:none;fill-opacity:1;stroke:#000000;stroke-width:1.89200294;stroke-miterlimit:4;stroke-dasharray:none;stroke-opacity:1"
       d="M 279.94194,-146.04297 C 277.73124,-147.84071 275.55892,-149.93935 274.79146,-152.71496 C 274.01847,-155.34096 273.86542,-158.15694 274.30061,-160.8492 C 274.99311,-163.71836 277.46631,-165.69401 279.64355,-167.5662 C 290.1005,-174.45485 303.78122,-165.77913 310.15303,-157.57951 C 305.83545,-148.79502 289.86622,-140.70447 279.94194,-146.04297 z"
       id="path3498"
       sodipodi:nodetypes="cccccc" />
    <path
       sodipodi:type="arc"
       style="opacity:1;fill:#ffcc00;fill-opacity:1;stroke:#000000;stroke-width:2.33999991;stroke-miterlimit:4;stroke-dasharray:none;stroke-opacity:1"
       id="path3392"
       sodipodi:cx="312.14285"
       sodipodi:cy="-162.78572"
       sodipodi:rx="10.714286"
       sodipodi:ry="10.357143"
       d="M 322.85714,-162.78572 A 10.714286,10.357143 0 1 1 301.42857,-162.78572 A 10.714286,10.357143 0 1 1 322.85714,-162.78572 z"
       transform="translate(0,5.8571429)" />
    <path
       sodipodi:type="arc"
       style="opacity:1;fill:none;fill-opacity:1;stroke:#000000;stroke-width:2.33999991;stroke-miterlimit:4;stroke-dasharray:none;stroke-opacity:1"
       id="path3500"
       sodipodi:cx="312.14285"
       sodipodi:cy="-162.78572"
       sodipodi:rx="10.714286"
       sodipodi:ry="10.357143"
       d="M 322.85714,-162.78572 A 10.714286,10.357143 0 1 1 301.42857,-162.78572 A 10.714286,10.357143 0 1 1 322.85714,-162.78572 z"
       transform="translate(-0.2503788,5.418417)" />
    <path
       style="opacity:1;fill:none;fill-opacity:1;stroke:#000000;stroke-width:2.33999991;stroke-miterlimit:4;stroke-dasharray:none;stroke-opacity:1"
       d="M 517.69356,-161.24008 C 520.90657,-152.74829 525.27033,-139.11253 530.42692,-137.54125 C 529.40598,-133.12288 516.29761,-144.20432 516.86628,-139.78249 C 515.04219,-138.98998 515.72862,-136.04213 514.20859,-134.76505 C 512.11411,-133.08077 511.08971,-136.08719 510.06703,-137.40386 C 505.32029,-140.13108 503.03047,-135.8226 497.87735,-129.24638 C 501.67633,-141.03311 492.91234,-154.50598 500.45194,-165.24562 C 509.01988,-170.47321 514.27025,-170.02317 517.69356,-161.24008 z"
       id="path3504"
       sodipodi:nodetypes="cccccccc" />
  </g>
</svg>
