<?xml version="1.0" encoding="UTF-8" standalone="no"?>
<!-- Created with Inkscape (http://www.inkscape.org/) -->
<svg
   xmlns:dc="http://purl.org/dc/elements/1.1/"
   xmlns:cc="http://creativecommons.org/ns#"
   xmlns:rdf="http://www.w3.org/1999/02/22-rdf-syntax-ns#"
   xmlns:svg="http://www.w3.org/2000/svg"
   xmlns="http://www.w3.org/2000/svg"
   xmlns:sodipodi="http://sodipodi.sourceforge.net/DTD/sodipodi-0.dtd"
   xmlns:inkscape="http://www.inkscape.org/namespaces/inkscape"
   width="250"
   height="250"
   id="svg2"
   sodipodi:version="0.32"
   inkscape:version="0.46"
   sodipodi:docname="rose.svg"
   inkscape:output_extension="org.inkscape.output.svg.inkscape"
   inkscape:export-filename="P:\pidgey2\data\images\rose.png"
   inkscape:export-xdpi="92.160004"
   inkscape:export-ydpi="92.160004"
   version="1.0">
  <defs
     id="defs4">
    <inkscape:perspective
       sodipodi:type="inkscape:persp3d"
       inkscape:vp_x="0 : 125 : 1"
       inkscape:vp_y="0 : 1000 : 0"
       inkscape:vp_z="250 : 125 : 1"
       inkscape:persp3d-origin="125 : 83.333333 : 1"
       id="perspective3645" />
  </defs>
  <sodipodi:namedview
     id="base"
     pagecolor="#cb90ff"
     bordercolor="#666666"
     borderopacity="1.0"
     gridtolerance="10000"
     guidetolerance="10"
     objecttolerance="10"
     inkscape:pageopacity="0"
     inkscape:pageshadow="2"
     inkscape:zoom="1.6900001"
     inkscape:cx="6.0586185"
     inkscape:cy="176.54778"
     inkscape:document-units="px"
     inkscape:current-layer="layer1"
     showgrid="false"
     inkscape:window-width="1680"
     inkscape:window-height="994"
     inkscape:window-x="0"
     inkscape:window-y="22" />
  <metadata
     id="metadata7">
    <rdf:RDF>
      <cc:Work
         rdf:about="">
        <dc:format>image/svg+xml</dc:format>
        <dc:type
           rdf:resource="http://purl.org/dc/dcmitype/StillImage" />
      </cc:Work>
    </rdf:RDF>
  </metadata>
  <g
     inkscape:label="Layer 1"
     inkscape:groupmode="layer"
     id="layer1">
    <path
       style="opacity:1;fill:#005500;fill-opacity:1;stroke:#000000;stroke-width:1.65845072;stroke-miterlimit:4;stroke-dasharray:none;stroke-opacity:1"
       d="M 92.297124,12.751113 C 74.07125,6.0897939 61.796537,22.623103 53.476154,35.470165 C 38.04426,47.216331 14.522882,49.962169 5.0734946,68.605365 C 0.7789299,87.969966 16.698671,102.50269 27.284599,116.51741 C 41.784691,129.80014 30.488971,148.62313 25.28934,163.38906 C 18.171934,178.91434 24.981781,199.15116 43.10744,202.02702 C 58.308132,209.95838 75.959264,207.46863 91.699296,213.19007 C 105.52679,219.88281 118.03903,233.68999 134.93148,229.37383 C 164.37374,226.03546 185.57174,203.25743 208.46924,187.15068 C 225.01827,184.14215 240.11282,174.19851 243.65817,156.62998 C 252.23566,134.31749 239.1476,112.64745 226.70389,94.856956 C 215.84662,80.756497 202.68149,66.866851 204.84112,47.614962 C 202.44859,30.141373 182.06389,25.235504 167.17847,25.079377 C 152.34935,21.752166 138.43236,31.23031 123.85702,28.661721 C 111.74399,26.544715 103.8684,15.970456 92.297124,12.751113 z"
       id="path3270" />
    <path
       style="opacity:1;fill:#005500;fill-opacity:1;stroke:#000000;stroke-width:1.65845072;stroke-miterlimit:4;stroke-dasharray:none;stroke-opacity:1"
       d="M 135.96656,118.1275 C 137.62113,124.47505 137.7153,131.26479 135.67819,137.4312 C 133.99847,143.2017 130.97711,148.64127 126.61044,152.68959 C 124.68712,154.59437 122.24508,152.8088 121.28178,150.75731 C 119.60732,148.24369 118.52256,145.40105 116.94759,142.82991 C 115.76046,138.15259 116.44275,133.29456 117.31907,128.68758 C 119.21471,121.79343 124.39845,116.72534 128.0126,110.81781 C 130.14085,99.921059 134.84767,114.03918 135.96656,118.1275 z"
       id="path3348"
       sodipodi:nodetypes="cccccccc" />
    <path
       style="opacity:1;fill:#44aa00;fill-opacity:1;stroke:#000000;stroke-width:1.65845072;stroke-miterlimit:4;stroke-dasharray:none;stroke-opacity:1"
       d="M 128.11223,112.36245 C 125.3418,118.1674 121.07349,123.27162 115.5441,126.5073 C 110.54619,129.68466 104.71513,131.73148 98.726091,131.85787 C 96.010379,132.00389 95.250496,129.06735 95.812193,126.90859 C 96.115574,123.93763 97.08856,121.11125 97.506195,118.16318 C 99.572667,113.90683 103.21038,110.74923 106.83868,107.90602 C 112.72327,104.0366 120.00067,103.69177 126.59257,101.68846 C 135.21763,95.00012 129.85521,108.58855 128.11223,112.36245 z"
       id="path3350"
       sodipodi:nodetypes="cccccccc"
       inkscape:export-xdpi="90"
       inkscape:export-ydpi="90" />
    <path
       style="opacity:1;fill:#55d400;fill-opacity:1;stroke:none;stroke-width:2.5;stroke-miterlimit:4;stroke-dasharray:none;stroke-opacity:1"
       d="M 99.705779,122.58717 C 108.29296,126.64041 119.01488,111.48553 123.25579,105.77462 C 106.77712,111.79708 103.0252,114.57837 99.705779,122.58717 z"
       id="path3458"
       sodipodi:nodetypes="ccc" />
    <path
       style="opacity:1;fill:#338000;fill-opacity:1;stroke:none;stroke-width:3.75;stroke-miterlimit:4;stroke-dasharray:none;stroke-opacity:1"
       d="M 120.91003,128.34145 C 120.40782,131.00354 119.61494,133.66195 119.90731,136.40145 C 120.05261,139.25928 120.44813,142.14518 121.31782,144.87403 C 121.91166,145.93067 123.07354,149.1661 124.45915,148.02638 C 125.31062,145.29541 126.84726,142.65917 126.61178,139.69122 C 126.5367,136.01103 125.50656,132.14191 123.05619,129.32965 C 122.43235,128.82956 121.65484,128.59406 120.91003,128.34145 z"
       id="path3468" />
    <g
       id="g3197"
       transform="matrix(0.6633803,0,0,0.6633803,45.150508,43.298216)">
      <path
         sodipodi:nodetypes="cccccccc"
         id="path3389"
         d="M 72.241363,152.5784 C 62.755301,150.78295 51.315499,147.95287 41.965911,151.24617 C 36.160182,155.0695 32.43864,161.39289 28.328751,166.84476 C 26.60427,172.09244 20.716003,180.61025 26.636745,184.87124 C 32.228107,188.55981 36.628877,182.34611 39.210457,178.06629 C 43.556851,173.07049 48.194114,168.27585 52.859173,163.55974 C 56.747578,160.67524 62.417732,160.96019 65.589896,156.79322 C 67.453138,155.10635 70.408016,154.2965 72.241363,152.5784 z"
         style="fill:#ff0000;fill-opacity:1;stroke:#000000;stroke-width:3;stroke-miterlimit:4;stroke-dasharray:none;stroke-opacity:1" />
      <path
         sodipodi:nodetypes="cccccccc"
         id="path3391"
         d="M 25.019722,182.17972 C 26.891505,191.65102 29.243552,198.62815 35.786069,206.07503 C 41.498747,210.03606 48.753843,211.13089 55.345127,212.91107 C 60.857349,212.55409 70.956597,214.84096 72.702128,207.75827 C 74.039374,201.19469 66.632734,199.42872 61.698912,198.62949 C 55.442596,196.45977 49.264444,193.94516 43.148801,191.37546 C 39.022265,188.84332 37.172051,183.47596 32.122685,182.08666 C 29.862637,180.98693 27.297594,183.24006 25.019722,182.17972 z"
         style="fill:#ff0000;fill-opacity:1;stroke:#000000;stroke-width:3;stroke-miterlimit:4;stroke-dasharray:none;stroke-opacity:1" />
      <path
         sodipodi:nodetypes="cccccccc"
         id="path3393"
         d="M 72.658381,208.73801 C 79.531442,201.95789 89.302956,194.59682 91.913296,185.03404 C 92.071696,178.08426 88.988336,171.42634 86.842656,164.94482 C 83.507882,160.54125 78.077263,151.00095 71.204731,153.44627 C 64.990354,155.94635 69.372254,162.95256 71.423443,167.51041 C 73.0595,173.92699 74.364652,180.46835 75.5894,186.98789 C 75.749628,191.82674 72.289629,196.32788 73.912036,201.30724 C 74.239388,203.79924 72.288341,206.25283 72.658381,208.73801 z"
         style="fill:#ff0000;fill-opacity:1;stroke:#000000;stroke-width:3;stroke-miterlimit:4;stroke-dasharray:none;stroke-opacity:1" />
      <path
         id="path3395"
         d="M 48.10932,160.60233 C 42.737649,165.0489 37.055347,169.88423 34.755189,176.42967 C 34.378588,181.25383 36.427441,186.00052 37.784439,190.58833 C 40.104451,193.77789 42.466674,200.65286 47.676634,199.21907 C 52.398411,197.72178 50.723021,192.64865 49.364818,189.40148 C 48.384995,184.87852 47.656287,180.28162 46.986655,175.703 C 47.047379,172.33367 49.792043,169.33907 48.768901,165.81553 C 48.617812,164.07085 48.292459,162.34391 48.10932,160.60233 z"
         style="fill:#ff0000;fill-opacity:1;stroke:#000000;stroke-width:3.11754394;stroke-miterlimit:4;stroke-dasharray:none;stroke-opacity:1" />
      <path
         id="path3397"
         d="M 45.038762,198.89114 C 50.99143,202.26617 57.40906,205.78222 64.215005,205.31856 C 68.771028,203.69939 72.409669,199.76245 76.144008,196.56106 C 78.259864,193.00183 83.741168,187.88602 80.60818,183.4286 C 77.587292,179.47021 73.518929,183.17963 71.014631,185.83082 C 67.208164,188.64015 63.246256,191.23662 59.2805,193.76834 C 56.169039,195.0952 52.464737,193.66792 49.590039,196.10818 C 48.042589,196.97206 46.572192,197.99748 45.038762,198.89114 z"
         style="fill:#ff0000;fill-opacity:1;stroke:#000000;stroke-width:3.11754394;stroke-miterlimit:4;stroke-dasharray:none;stroke-opacity:1" />
      <path
         id="path3399"
         d="M 80.910746,184.43475 C 80.091463,177.20331 79.117698,169.47189 74.990046,163.49092 C 71.260746,160.17966 66.330657,158.93401 61.89035,157.2116 C 58.086032,157.1592 51.260826,154.85157 49.712784,160.07619 C 48.470804,164.93422 53.471937,166.69339 56.821946,167.58162 C 61.012958,169.57744 65.133277,171.8281 69.207943,174.11652 C 71.918003,176.26092 72.92463,180.40492 76.324953,181.74361 C 77.823364,182.70218 79.398147,183.50478 80.910746,184.43475 z"
         style="fill:#ff0000;fill-opacity:1;stroke:#000000;stroke-width:3.11754394;stroke-miterlimit:4;stroke-dasharray:none;stroke-opacity:1" />
      <path
         sodipodi:nodetypes="ccccccc"
         id="path3401"
         d="M 47.737411,172.98079 C 46.949093,177.09002 46.584368,181.35184 47.820825,185.40808 C 49.270501,188.24197 49.662851,192.46607 52.912325,193.72541 C 58.565293,194.54635 67.288822,193.01022 73.601928,182.54556 C 72.146942,175.79782 63.326136,169.98895 58.994491,167.73573 C 56.310721,167.33489 50.804012,163.78263 49.599467,167.57741 C 49.232519,168.90355 47.874004,171.46259 47.737411,172.98079 z"
         style="fill:#ff0000;fill-opacity:1;stroke:#000000;stroke-width:3.11754394;stroke-miterlimit:4;stroke-dasharray:none;stroke-opacity:1" />
    </g>
    <path
       style="opacity:1;fill:#005500;fill-opacity:1;stroke:#000000;stroke-width:1.65845072;stroke-miterlimit:4;stroke-dasharray:none;stroke-opacity:1"
       d="M 192.89948,141.24781 C 197.11614,136.22299 202.59693,132.21419 208.80379,130.30391 C 214.48093,128.33154 220.66524,127.64459 226.49441,128.86008 C 229.1611,129.32499 229.11963,132.34989 228.00501,134.32326 C 226.92548,137.14403 225.23622,139.67458 224.05218,142.44756 C 220.92648,146.12405 216.57087,148.38115 212.30755,150.33468 C 205.58931,152.78175 198.45559,151.4907 191.54649,151.96538 C 181.43045,156.54076 190.21445,144.52758 192.89948,141.24781 z"
       id="path3403"
       sodipodi:nodetypes="cccccccc" />
    <path
       style="opacity:1;fill:#44aa00;fill-opacity:1;stroke:#000000;stroke-width:1.65845072;stroke-miterlimit:4;stroke-dasharray:none;stroke-opacity:1"
       d="M 192.74806,150.98965 C 199.08493,149.88653 205.71796,150.41035 211.55797,153.04435 C 217.04267,155.27885 222.08816,158.84728 225.65952,163.65663 C 227.35126,165.78605 225.39731,168.10613 223.31209,168.89838 C 220.71433,170.37156 217.84666,171.21512 215.20139,172.5819 C 210.5347,173.36211 205.85382,172.22508 201.43471,170.91364 C 194.87236,168.35707 190.37681,162.62387 184.92617,158.40997 C 174.47863,155.25169 188.66202,151.75419 192.74806,150.98965 z"
       id="path3405"
       sodipodi:nodetypes="cccccccc"
       inkscape:export-xdpi="90"
       inkscape:export-ydpi="90" />
    <path
       style="opacity:1;fill:#55d400;fill-opacity:1;stroke:none;stroke-width:3.75;stroke-miterlimit:4;stroke-dasharray:none;stroke-opacity:1"
       d="M 217.53424,168.22671 C 215.86571,158.87875 197.30153,158.91407 190.18977,158.76394 C 204.64254,168.71047 209.08277,170.15855 217.53424,168.22671 z"
       id="path3407"
       sodipodi:nodetypes="ccc" />
    <path
       style="opacity:1;fill:#338000;fill-opacity:1;stroke:none;stroke-width:3.75;stroke-miterlimit:4;stroke-dasharray:none;stroke-opacity:1"
       d="M 209.9458,147.60762 C 212.4069,146.47539 215.03333,145.58228 217.09738,143.75744 C 219.34309,141.98398 221.46676,139.99029 223.18781,137.70096 C 223.70533,136.60493 225.67015,133.78402 223.93858,133.31444 C 221.21906,134.20182 218.17998,134.47574 215.89673,136.3865 C 212.93994,138.57894 210.38221,141.65941 209.50856,145.28569 C 209.46214,146.08387 209.72041,146.85412 209.9458,147.60762 z"
       id="path3409" />
    <path
       style="opacity:1;fill:#005500;fill-opacity:1;stroke:#000000;stroke-width:1.65845072;stroke-miterlimit:4;stroke-dasharray:none;stroke-opacity:1"
       d="M 167.757,34.035189 C 174.23274,35.081096 180.48381,37.733201 185.30493,42.084187 C 189.90791,45.94847 193.667,50.906992 195.61043,56.535465 C 196.57776,59.063633 193.95898,60.578151 191.69322,60.632269 C 188.71778,61.150786 185.67909,60.996988 182.69112,61.401266 C 177.9323,60.601224 173.76204,58.017658 169.89975,55.357783 C 164.35563,50.842752 161.80855,44.055321 157.86032,38.365638 C 148.74736,32.02353 163.56466,33.41025 167.757,34.035189 z"
       id="path3411"
       sodipodi:nodetypes="cccccccc" />
    <path
       style="opacity:1;fill:#44aa00;fill-opacity:1;stroke:#000000;stroke-width:1.65845072;stroke-miterlimit:4;stroke-dasharray:none;stroke-opacity:1"
       d="M 164.02642,44.615732 C 167.4949,50.032599 169.57764,56.351905 169.40771,62.756192 C 169.46875,68.678282 168.1298,74.711345 165.07629,79.865047 C 163.76704,82.248797 160.87174,81.344398 159.33457,79.727964 C 156.9712,77.902286 155.08403,75.58415 152.80039,73.6735 C 150.27576,69.671884 149.51362,64.91556 149.01357,60.333168 C 148.83268,53.29272 152.38061,46.929412 154.15807,40.273056 C 153.02917,29.417121 161.74084,41.143508 164.02642,44.615732 z"
       id="path3413"
       sodipodi:nodetypes="cccccccc"
       inkscape:export-xdpi="90"
       inkscape:export-ydpi="90" />
    <path
       style="opacity:1;fill:#55d400;fill-opacity:1;stroke:none;stroke-width:2.5;stroke-miterlimit:4;stroke-dasharray:none;stroke-opacity:1"
       d="M 157.71895,74.140076 C 165.69381,68.985452 158.48024,51.880065 155.86771,45.263839 C 152.2861,62.43906 152.6683,67.093785 157.71895,74.140076 z"
       id="path3415"
       sodipodi:nodetypes="ccc" />
    <path
       style="opacity:1;fill:#338000;fill-opacity:1;stroke:none;stroke-width:2.5;stroke-miterlimit:4;stroke-dasharray:none;stroke-opacity:1"
       d="M 171.03123,51.932212 C 173.26469,53.465382 175.37755,55.263052 178.00229,56.100339 C 180.676,57.119933 183.47631,57.921885 186.32414,58.226593 C 187.53053,58.109326 190.95977,58.350965 190.47566,56.623395 C 188.32002,54.742845 186.5274,52.273522 183.71655,51.292041 C 180.31865,49.876535 176.36268,49.258773 172.80104,50.366865 C 172.09183,50.736041 171.56276,51.35254 171.03123,51.932212 z"
       id="path3417" />
    <path
       style="opacity:1;fill:#44aa00;fill-opacity:1;stroke:#000000;stroke-width:1.65845072;stroke-miterlimit:4;stroke-dasharray:none;stroke-opacity:1"
       d="M 155.83032,199.24834 C 153.27091,205.14937 149.18933,210.40411 143.78017,213.83698 C 138.9,217.19241 133.14651,219.44805 127.16592,219.79021 C 124.45724,220.03402 123.59201,217.12678 124.07553,214.94917 C 124.27164,211.96921 125.14213,209.1096 125.45324,206.14839 C 127.36498,201.82034 130.8865,198.53366 134.40997,195.56154 C 140.15127,191.48255 147.41152,190.87565 153.92695,188.63607 C 162.30534,181.6412 157.43615,195.41408 155.83032,199.24834 z"
       id="path3421"
       sodipodi:nodetypes="cccccccc"
       inkscape:export-xdpi="90"
       inkscape:export-ydpi="90" />
    <path
       style="opacity:1;fill:#55d400;fill-opacity:1;stroke:none;stroke-width:3.75;stroke-miterlimit:4;stroke-dasharray:none;stroke-opacity:1"
       d="M 127.81084,210.49023 C 136.53853,214.23134 146.70727,198.69988 150.7396,192.83984 C 134.4887,199.45229 130.83945,202.367 127.81084,210.49023 z"
       id="path3423"
       sodipodi:nodetypes="ccc" />
    <path
       style="opacity:1;fill:#44aa00;fill-opacity:1;stroke:#000000;stroke-width:1.65845072;stroke-miterlimit:4;stroke-dasharray:none;stroke-opacity:1"
       d="M 33.039575,67.818637 C 38.640071,70.982059 43.438388,75.591573 46.285803,81.330555 C 49.111625,86.535323 50.752229,92.493439 50.466085,98.476962 C 50.424843,101.19628 47.442957,101.75224 45.327975,101.04329 C 42.384944,100.53614 39.632237,99.370912 36.719908,98.751352 C 32.615901,96.396803 29.716162,92.550388 27.129439,88.734988 C 23.674246,82.598031 23.831139,75.314153 22.286312,68.599989 C 16.207499,59.535025 29.394599,65.820035 33.039575,67.818637 z"
       id="path3427"
       sodipodi:nodetypes="cccccccc"
       inkscape:export-xdpi="90"
       inkscape:export-ydpi="90" />
    <path
       style="opacity:1;fill:#55d400;fill-opacity:1;stroke:none;stroke-width:3.75;stroke-miterlimit:4;stroke-dasharray:none;stroke-opacity:1"
       d="M 41.284803,96.861487 C 45.919496,88.573661 31.538562,76.834049 26.133107,72.21012 C 31.007034,89.06423 33.523484,92.998698 41.284803,96.861487 z"
       id="path3429"
       sodipodi:nodetypes="ccc" />
    <g
       id="g3206"
       transform="matrix(-0.6315208,-0.203113,0.203113,-0.6315208,91.772051,182.86798)">
      <path
         sodipodi:nodetypes="cccccccc"
         id="path3208"
         d="M 72.241363,152.5784 C 62.755301,150.78295 51.315499,147.95287 41.965911,151.24617 C 36.160182,155.0695 32.43864,161.39289 28.328751,166.84476 C 26.60427,172.09244 20.716003,180.61025 26.636745,184.87124 C 32.228107,188.55981 36.628877,182.34611 39.210457,178.06629 C 43.556851,173.07049 48.194114,168.27585 52.859173,163.55974 C 56.747578,160.67524 62.417732,160.96019 65.589896,156.79322 C 67.453138,155.10635 70.408016,154.2965 72.241363,152.5784 z"
         style="fill:#ff0000;fill-opacity:1;stroke:#000000;stroke-width:3;stroke-miterlimit:4;stroke-dasharray:none;stroke-opacity:1" />
      <path
         sodipodi:nodetypes="cccccccc"
         id="path3210"
         d="M 25.019722,182.17972 C 26.891505,191.65102 29.243552,198.62815 35.786069,206.07503 C 41.498747,210.03606 48.753843,211.13089 55.345127,212.91107 C 60.857349,212.55409 70.956597,214.84096 72.702128,207.75827 C 74.039374,201.19469 66.632734,199.42872 61.698912,198.62949 C 55.442596,196.45977 49.264444,193.94516 43.148801,191.37546 C 39.022265,188.84332 37.172051,183.47596 32.122685,182.08666 C 29.862637,180.98693 27.297594,183.24006 25.019722,182.17972 z"
         style="fill:#ff0000;fill-opacity:1;stroke:#000000;stroke-width:3;stroke-miterlimit:4;stroke-dasharray:none;stroke-opacity:1" />
      <path
         sodipodi:nodetypes="cccccccc"
         id="path3212"
         d="M 72.658381,208.73801 C 79.531442,201.95789 89.302956,194.59682 91.913296,185.03404 C 92.071696,178.08426 88.988336,171.42634 86.842656,164.94482 C 83.507882,160.54125 78.077263,151.00095 71.204731,153.44627 C 64.990354,155.94635 69.372254,162.95256 71.423443,167.51041 C 73.0595,173.92699 74.364652,180.46835 75.5894,186.98789 C 75.749628,191.82674 72.289629,196.32788 73.912036,201.30724 C 74.239388,203.79924 72.288341,206.25283 72.658381,208.73801 z"
         style="fill:#ff0000;fill-opacity:1;stroke:#000000;stroke-width:3;stroke-miterlimit:4;stroke-dasharray:none;stroke-opacity:1" />
      <path
         id="path3214"
         d="M 48.10932,160.60233 C 42.737649,165.0489 37.055347,169.88423 34.755189,176.42967 C 34.378588,181.25383 36.427441,186.00052 37.784439,190.58833 C 40.104451,193.77789 42.466674,200.65286 47.676634,199.21907 C 52.398411,197.72178 50.723021,192.64865 49.364818,189.40148 C 48.384995,184.87852 47.656287,180.28162 46.986655,175.703 C 47.047379,172.33367 49.792043,169.33907 48.768901,165.81553 C 48.617812,164.07085 48.292459,162.34391 48.10932,160.60233 z"
         style="fill:#ff0000;fill-opacity:1;stroke:#000000;stroke-width:3.11754394;stroke-miterlimit:4;stroke-dasharray:none;stroke-opacity:1" />
      <path
         id="path3216"
         d="M 45.038762,198.89114 C 50.99143,202.26617 57.40906,205.78222 64.215005,205.31856 C 68.771028,203.69939 72.409669,199.76245 76.144008,196.56106 C 78.259864,193.00183 83.741168,187.88602 80.60818,183.4286 C 77.587292,179.47021 73.518929,183.17963 71.014631,185.83082 C 67.208164,188.64015 63.246256,191.23662 59.2805,193.76834 C 56.169039,195.0952 52.464737,193.66792 49.590039,196.10818 C 48.042589,196.97206 46.572192,197.99748 45.038762,198.89114 z"
         style="fill:#ff0000;fill-opacity:1;stroke:#000000;stroke-width:3.11754394;stroke-miterlimit:4;stroke-dasharray:none;stroke-opacity:1" />
      <path
         id="path3218"
         d="M 80.910746,184.43475 C 80.091463,177.20331 79.117698,169.47189 74.990046,163.49092 C 71.260746,160.17966 66.330657,158.93401 61.89035,157.2116 C 58.086032,157.1592 51.260826,154.85157 49.712784,160.07619 C 48.470804,164.93422 53.471937,166.69339 56.821946,167.58162 C 61.012958,169.57744 65.133277,171.8281 69.207943,174.11652 C 71.918003,176.26092 72.92463,180.40492 76.324953,181.74361 C 77.823364,182.70218 79.398147,183.50478 80.910746,184.43475 z"
         style="fill:#ff0000;fill-opacity:1;stroke:#000000;stroke-width:3.11754394;stroke-miterlimit:4;stroke-dasharray:none;stroke-opacity:1" />
      <path
         sodipodi:nodetypes="ccccccc"
         id="path3220"
         d="M 47.737411,172.98079 C 46.949093,177.09002 46.584368,181.35184 47.820825,185.40808 C 49.270501,188.24197 49.662851,192.46607 52.912325,193.72541 C 58.565293,194.54635 67.288822,193.01022 73.601928,182.54556 C 72.146942,175.79782 63.326136,169.98895 58.994491,167.73573 C 56.310721,167.33489 50.804012,163.78263 49.599467,167.57741 C 49.232519,168.90355 47.874004,171.46259 47.737411,172.98079 z"
         style="fill:#ff0000;fill-opacity:1;stroke:#000000;stroke-width:3.11754394;stroke-miterlimit:4;stroke-dasharray:none;stroke-opacity:1" />
    </g>
    <g
       id="g3222"
       transform="matrix(-0.4555186,-0.4822616,0.4822616,-0.4555186,118.27904,217.99037)"
       inkscape:transform-center-x="-6.1676095"
       inkscape:transform-center-y="20.096152">
      <path
         sodipodi:nodetypes="cccccccc"
         id="path3224"
         d="M 72.241363,152.5784 C 62.755301,150.78295 51.315499,147.95287 41.965911,151.24617 C 36.160182,155.0695 32.43864,161.39289 28.328751,166.84476 C 26.60427,172.09244 20.716003,180.61025 26.636745,184.87124 C 32.228107,188.55981 36.628877,182.34611 39.210457,178.06629 C 43.556851,173.07049 48.194114,168.27585 52.859173,163.55974 C 56.747578,160.67524 62.417732,160.96019 65.589896,156.79322 C 67.453138,155.10635 70.408016,154.2965 72.241363,152.5784 z"
         style="fill:#ff0000;fill-opacity:1;stroke:#000000;stroke-width:3;stroke-miterlimit:4;stroke-dasharray:none;stroke-opacity:1" />
      <path
         sodipodi:nodetypes="cccccccc"
         id="path3226"
         d="M 25.019722,182.17972 C 26.891505,191.65102 29.243552,198.62815 35.786069,206.07503 C 41.498747,210.03606 48.753843,211.13089 55.345127,212.91107 C 60.857349,212.55409 70.956597,214.84096 72.702128,207.75827 C 74.039374,201.19469 66.632734,199.42872 61.698912,198.62949 C 55.442596,196.45977 49.264444,193.94516 43.148801,191.37546 C 39.022265,188.84332 37.172051,183.47596 32.122685,182.08666 C 29.862637,180.98693 27.297594,183.24006 25.019722,182.17972 z"
         style="fill:#ff0000;fill-opacity:1;stroke:#000000;stroke-width:3;stroke-miterlimit:4;stroke-dasharray:none;stroke-opacity:1" />
      <path
         sodipodi:nodetypes="cccccccc"
         id="path3228"
         d="M 72.658381,208.73801 C 79.531442,201.95789 89.302956,194.59682 91.913296,185.03404 C 92.071696,178.08426 88.988336,171.42634 86.842656,164.94482 C 83.507882,160.54125 78.077263,151.00095 71.204731,153.44627 C 64.990354,155.94635 69.372254,162.95256 71.423443,167.51041 C 73.0595,173.92699 74.364652,180.46835 75.5894,186.98789 C 75.749628,191.82674 72.289629,196.32788 73.912036,201.30724 C 74.239388,203.79924 72.288341,206.25283 72.658381,208.73801 z"
         style="fill:#ff0000;fill-opacity:1;stroke:#000000;stroke-width:3;stroke-miterlimit:4;stroke-dasharray:none;stroke-opacity:1" />
      <path
         id="path3230"
         d="M 48.10932,160.60233 C 42.737649,165.0489 37.055347,169.88423 34.755189,176.42967 C 34.378588,181.25383 36.427441,186.00052 37.784439,190.58833 C 40.104451,193.77789 42.466674,200.65286 47.676634,199.21907 C 52.398411,197.72178 50.723021,192.64865 49.364818,189.40148 C 48.384995,184.87852 47.656287,180.28162 46.986655,175.703 C 47.047379,172.33367 49.792043,169.33907 48.768901,165.81553 C 48.617812,164.07085 48.292459,162.34391 48.10932,160.60233 z"
         style="fill:#ff0000;fill-opacity:1;stroke:#000000;stroke-width:3.11754394;stroke-miterlimit:4;stroke-dasharray:none;stroke-opacity:1" />
      <path
         id="path3232"
         d="M 45.038762,198.89114 C 50.99143,202.26617 57.40906,205.78222 64.215005,205.31856 C 68.771028,203.69939 72.409669,199.76245 76.144008,196.56106 C 78.259864,193.00183 83.741168,187.88602 80.60818,183.4286 C 77.587292,179.47021 73.518929,183.17963 71.014631,185.83082 C 67.208164,188.64015 63.246256,191.23662 59.2805,193.76834 C 56.169039,195.0952 52.464737,193.66792 49.590039,196.10818 C 48.042589,196.97206 46.572192,197.99748 45.038762,198.89114 z"
         style="fill:#ff0000;fill-opacity:1;stroke:#000000;stroke-width:3.11754394;stroke-miterlimit:4;stroke-dasharray:none;stroke-opacity:1" />
      <path
         id="path3234"
         d="M 80.910746,184.43475 C 80.091463,177.20331 79.117698,169.47189 74.990046,163.49092 C 71.260746,160.17966 66.330657,158.93401 61.89035,157.2116 C 58.086032,157.1592 51.260826,154.85157 49.712784,160.07619 C 48.470804,164.93422 53.471937,166.69339 56.821946,167.58162 C 61.012958,169.57744 65.133277,171.8281 69.207943,174.11652 C 71.918003,176.26092 72.92463,180.40492 76.324953,181.74361 C 77.823364,182.70218 79.398147,183.50478 80.910746,184.43475 z"
         style="fill:#ff0000;fill-opacity:1;stroke:#000000;stroke-width:3.11754394;stroke-miterlimit:4;stroke-dasharray:none;stroke-opacity:1" />
      <path
         sodipodi:nodetypes="ccccccc"
         id="path3236"
         d="M 47.737411,172.98079 C 46.949093,177.09002 46.584368,181.35184 47.820825,185.40808 C 49.270501,188.24197 49.662851,192.46607 52.912325,193.72541 C 58.565293,194.54635 67.288822,193.01022 73.601928,182.54556 C 72.146942,175.79782 63.326136,169.98895 58.994491,167.73573 C 56.310721,167.33489 50.804012,163.78263 49.599467,167.57741 C 49.232519,168.90355 47.874004,171.46259 47.737411,172.98079 z"
         style="fill:#ff0000;fill-opacity:1;stroke:#000000;stroke-width:3.11754394;stroke-miterlimit:4;stroke-dasharray:none;stroke-opacity:1" />
    </g>
    <path
       style="opacity:1;fill:#000000;fill-opacity:0.43023257;stroke:none;stroke-width:2.33999991;stroke-miterlimit:4;stroke-dasharray:none;stroke-opacity:1"
       d="M 38.084919,146.7306 C 33.65126,156.7717 25.975519,166.01478 25.892368,177.38847 C 25.245669,182.96546 27.389895,188.92102 32.480062,191.7617 C 38.561098,195.01982 45.501815,200.86771 52.55916,200.77237 C 60.774777,202.8343 70.985239,207.50747 79.455686,203.8617 C 74.001675,202.03627 68.425456,200.20388 62.807414,199.19365 C 29.967056,194.47496 35.281333,174.21125 38.577076,151.57638 C 38.677821,149.94813 38.491898,148.30824 38.084919,146.7306 z"
       id="path2420"
       sodipodi:nodetypes="cccccccc" />
    <path
       style="opacity:1;fill:#000000;fill-opacity:0.43023257;stroke:none;stroke-width:2.33999991;stroke-miterlimit:4;stroke-dasharray:none;stroke-opacity:1"
       d="M 102.60945,212.91945 C 103.47427,214.24891 105.40479,216.10733 106.9273,217.62984 C 108.44314,219.14568 110.2115,219.73645 111.24516,220.77011 C 112.51904,222.04398 114.35792,222.52274 115.56303,223.1253 C 117.19559,223.94158 119.37989,224.76645 120.66595,225.08796 C 122.8871,225.64326 123.50746,226.25976 121.45101,223.51784 C 120.07202,221.67918 118.75825,221.21761 117.52569,219.98504 C 116.25198,218.71133 114.74487,218.38183 113.60036,217.23731 C 112.6525,216.28945 110.6341,215.36165 109.67503,214.88212 C 107.82142,213.95531 107.50146,213.45552 105.35717,212.91945 C 103.68659,212.50181 106.07467,212.22641 102.60945,212.91945 z"
       id="path3195" />
    <path
       style="opacity:1;fill:#ffffff;fill-opacity:0.29069764;stroke:none;stroke-width:2.33999991;stroke-miterlimit:4;stroke-dasharray:none;stroke-opacity:1"
       d="M 65.562208,27.540904 C 69.314116,23.77434 73.01352,19.429439 78.886443,18.512889 C 87.258039,15.578597 96.878978,18.602007 103.35246,23.776014 C 120.83965,35.733457 130.39675,32.780365 151.15745,33.428816 C 146.32227,35.961476 141.42296,38.766622 136.03509,40.156331 C 129.66223,41.143382 123.32691,39.678002 117.48185,37.434325 C 108.96814,34.620635 101.48627,30.271255 93.604102,26.307207 C 87.65463,24.009371 80.867871,24.3675 74.62959,25.303545 C 71.545125,25.840392 68.613617,26.902808 65.562208,27.540904 z"
       id="path3197"
       sodipodi:nodetypes="ccccccccc" />
    <path
       style="opacity:1;fill:#ffffff;fill-opacity:0.29069764;stroke:none;stroke-width:2.33999991;stroke-miterlimit:4;stroke-dasharray:none;stroke-opacity:1"
       d="M 204.12625,76.467237 C 211.44683,83.065207 216.49329,91.690902 223.25245,98.816208 C 229.22889,106.04736 233.59616,114.52265 236.85876,123.26999 C 237.75387,125.75246 239.56917,132.27682 235.97517,127.2908 C 228.33158,114.24376 216.65438,102.89166 208.23723,90.746123 C 205.82048,86.860825 199.76552,80.58754 204.12625,76.467237 L 204.12625,76.467237 z"
       id="path3201"
       sodipodi:nodetypes="ccccccc" />
  </g>
</svg>
