<?xml version="1.0" encoding="UTF-8" standalone="no"?>
<!-- Created with Inkscape (http://www.inkscape.org/) -->
<svg
   xmlns:dc="http://purl.org/dc/elements/1.1/"
   xmlns:cc="http://creativecommons.org/ns#"
   xmlns:rdf="http://www.w3.org/1999/02/22-rdf-syntax-ns#"
   xmlns:svg="http://www.w3.org/2000/svg"
   xmlns="http://www.w3.org/2000/svg"
   xmlns:sodipodi="http://sodipodi.sourceforge.net/DTD/sodipodi-0.dtd"
   xmlns:inkscape="http://www.inkscape.org/namespaces/inkscape"
   width="250"
   height="250"
   id="svg2"
   sodipodi:version="0.32"
   inkscape:version="0.46"
   sodipodi:docname="shieldbug.svg"
   inkscape:output_extension="org.inkscape.output.svg.inkscape"
   inkscape:export-filename="P:\pidgey2\data\images\shieldbug.png"
   inkscape:export-xdpi="92.160004"
   inkscape:export-ydpi="92.160004"
   version="1.0">
  <defs
     id="defs4">
    <inkscape:perspective
       sodipodi:type="inkscape:persp3d"
       inkscape:vp_x="0 : 125 : 1"
       inkscape:vp_y="0 : 1000 : 0"
       inkscape:vp_z="250 : 125 : 1"
       inkscape:persp3d-origin="125 : 83.333333 : 1"
       id="perspective3645" />
  </defs>
  <sodipodi:namedview
     id="base"
     pagecolor="#cb90ff"
     bordercolor="#666666"
     borderopacity="1.0"
     gridtolerance="10000"
     guidetolerance="10"
     objecttolerance="10"
     inkscape:pageopacity="0"
     inkscape:pageshadow="2"
     inkscape:zoom="1.69"
     inkscape:cx="145.65362"
     inkscape:cy="77.907572"
     inkscape:document-units="px"
     inkscape:current-layer="layer1"
     showgrid="false"
     inkscape:window-width="743"
     inkscape:window-height="994"
     inkscape:window-x="338"
     inkscape:window-y="-12"
     showguides="true"
     inkscape:guide-bbox="true" />
  <metadata
     id="metadata7">
    <rdf:RDF>
      <cc:Work
         rdf:about="">
        <dc:format>image/svg+xml</dc:format>
        <dc:type
           rdf:resource="http://purl.org/dc/dcmitype/StillImage" />
      </cc:Work>
    </rdf:RDF>
  </metadata>
  <g
     inkscape:label="Layer 1"
     inkscape:groupmode="layer"
     id="layer1">
    <path
       style="opacity:1;fill:none;fill-opacity:1;stroke:#000000;stroke-width:3;stroke-miterlimit:4;stroke-dasharray:none;stroke-opacity:1"
       d="M 196.25897,113.25152 C 197.69542,112.67048 204.40285,110.85689 207.75893,108.42936 C 211.50632,105.71877 215.38724,104.47879 219.25888,101.67833 C 222.89279,99.049845 226.97145,95.618375 229.75884,92.034015 C 232.55678,88.436115 235.05211,83.941425 237.75882,80.460828 C 239.97709,77.608313 242.14169,74.64379 242.7588,72.263157 C 243.20716,70.533504 243.79354,70.267261 244.25879,69.36986"
       id="path3262" />
    <path
       style="opacity:1;fill:none;fill-opacity:1;stroke:#000000;stroke-width:3;stroke-miterlimit:4;stroke-dasharray:none;stroke-opacity:1"
       d="M 195.25897,128.20021 C 196.1297,124.84119 202.04786,130.50951 205.25894,132.05795 C 208.84409,133.78677 212.22319,136.95589 216.25889,139.29118 C 220.86092,141.9542 226.59984,147.76659 229.75884,151.82881 C 231.81988,154.47912 234.06226,157.36262 235.75882,159.54427 C 237.47937,161.75674 238.65722,164.45673 239.25881,166.7775"
       id="path3264" />
    <path
       style="opacity:1;fill:none;fill-opacity:1;stroke:#000000;stroke-width:3;stroke-miterlimit:4;stroke-dasharray:none;stroke-opacity:1"
       d="M 161.50909,79.014183 C 162.17467,75.900796 168.57162,69.437481 171.00906,67.923207 C 179.01501,67.626698 186.30264,69.555412 194.00898,69.369858 C 195.14385,67.728093 198.60199,63.011321 200.00896,61.654405"
       id="path3260"
       sodipodi:nodetypes="cccc" />
    <path
       style="opacity:1;fill:none;fill-opacity:1;stroke:#000000;stroke-width:3;stroke-miterlimit:4;stroke-dasharray:none;stroke-opacity:1"
       d="M 162.75909,161.95535 C 163.42467,165.06872 169.82162,171.53204 172.25906,173.04632 C 180.26501,173.34282 187.55263,171.41411 195.25897,171.59966 C 196.39385,173.24143 199.85199,177.9582 201.25895,179.31512"
       id="path3258"
       sodipodi:nodetypes="cccc" />
    <path
       style="opacity:1;fill:none;fill-opacity:1;stroke:#000000;stroke-width:3;stroke-miterlimit:4;stroke-dasharray:none;stroke-opacity:1"
       d="M 110.67998,179.41433 C 112.74132,178.62092 115.4804,188.74117 119.81352,195.67677 C 108.2542,195.56087 90.471367,198.76545 79.97145,202.23095 C 79.761883,204.70361 75.867742,208.8347 80.251879,211.86257"
       id="path3254"
       sodipodi:nodetypes="cccc" />
    <path
       style="opacity:1;fill:none;fill-opacity:1;stroke:#000000;stroke-width:3;stroke-miterlimit:4;stroke-dasharray:none;stroke-opacity:1"
       d="M 82.5206,79.141898 C 85.457445,78.766558 81.50275,67.075253 81.62693,57.668968 C 68.367983,64.34614 45.591834,71.229933 31.037328,73.718604 C 29.056892,71.360912 21.65803,69.433452 24.588733,63.912263"
       id="path3252"
       sodipodi:nodetypes="cccc" />
    <path
       style="opacity:1;fill:none;fill-opacity:1;stroke:#000000;stroke-width:3;stroke-miterlimit:4;stroke-dasharray:none;stroke-opacity:1"
       d="M 85.757005,169.07563 C 88.693857,169.45096 84.739156,181.14227 84.86334,190.54855 C 71.604386,183.87138 48.828239,176.98758 34.273738,174.49891 C 32.293295,176.8566 24.894441,178.78407 27.825142,184.30526"
       id="path3236"
       sodipodi:nodetypes="cccc" />
    <path
       style="opacity:1;fill:#2d5016;fill-opacity:1;stroke:#000000;stroke-width:3;stroke-miterlimit:4;stroke-dasharray:none;stroke-opacity:1"
       d="M 157.18078,95.922605 C 172.69594,95.746695 194.05835,102.90265 203.17571,114.56403 C 205.2635,118.724 204.59916,124.07393 200.86156,127.22821 C 196.50844,133.87365 186.32089,139.70921 179.04587,141.79736 C 173.64439,143.91398 167.56539,143.46924 161.8671,144.31899 C 156.25233,144.12151 154.94462,138.27634 152.86001,134.55731 C 148.68185,125.39293 147.98392,115.20177 148.95594,105.42365 C 149.32344,100.60833 154.38345,99.082805 157.18078,95.922605 z"
       id="path3203"
       sodipodi:nodetypes="cccccccc" />
    <path
       style="opacity:1;fill:#2d5016;fill-opacity:1;stroke:#000000;stroke-width:3;stroke-miterlimit:4;stroke-dasharray:none;stroke-opacity:1"
       d="M 39.480129,92.039515 C 30.638849,94.735775 24.862881,101.74366 18.204901,107.19255 C 13.99604,111.58518 11.210351,116.98453 9.285978,122.46954 C 8.661574,126.81628 12.129049,130.43342 14.686885,133.78065 C 21.924405,142.11401 30.32928,150.00664 41.055572,154.67299 C 45.875852,156.85774 50.765277,159.6763 56.316178,159.80977 C 60.124171,159.94348 63.361767,157.52388 64.423923,154.34292 C 70.043537,144.84056 73.240332,134.19084 73.991152,123.46698 C 74.264487,118.27108 72.767635,113.10034 69.868581,108.61344 C 66.790289,102.81049 62.202941,97.588665 56.385792,93.837295 C 52.750086,91.780065 48.266099,91.340525 44.102886,92.011755 C 42.562454,92.055255 41.021054,92.044905 39.480129,92.039515 z"
       id="path3191" />
    <path
       style="opacity:1;fill:#2d5016;fill-opacity:1;stroke:#000000;stroke-width:3;stroke-miterlimit:4;stroke-dasharray:none;stroke-opacity:1"
       d="M 152.84187,190.07198 C 129.4677,191.42796 107.32834,183.23852 85.844831,176.11199 C 78.3737,173.54118 70.705685,171.42242 63.106404,169.23573 C 54.700494,165.67818 45.139577,163.6654 38.190489,157.83526 C 33.31219,154.42587 40.357233,151.99785 42.640361,149.3902 C 50.383342,143.01243 58.145926,136.54295 64.432774,128.93946 C 74.672402,124.85211 86.062198,128.40275 95.415756,132.73514 C 103.60565,136.83323 112.80748,139.74717 119.36159,146.02829 C 127.88642,153.82884 133.85589,163.49341 141.73605,171.77438 C 146.16258,177.49284 149.57692,183.77392 152.84187,190.07198 z"
       id="path3170" />
    <path
       style="opacity:1;fill:none;fill-opacity:1;stroke:#000000;stroke-width:3;stroke-miterlimit:4;stroke-dasharray:none;stroke-opacity:1"
       d="M 113.44385,69.176649 C 115.50519,69.970055 118.24428,59.849804 122.5774,52.914206 C 111.01808,53.030106 93.235241,49.825522 82.73533,46.360024 C 82.525763,43.887367 78.63162,39.756271 83.015759,36.728415"
       id="path3256"
       sodipodi:nodetypes="cccc" />
    <path
       style="opacity:1;fill:#2d5016;fill-opacity:1;stroke:#000000;stroke-width:3;stroke-miterlimit:4;stroke-dasharray:none;stroke-opacity:1"
       d="M 152.7395,55.886923 C 129.36533,54.530939 107.22596,62.720388 85.742458,69.846917 C 78.27132,72.417724 70.603304,74.53649 63.004021,76.723164 C 54.598111,80.280724 45.037195,82.293508 38.088108,88.123645 C 33.209808,91.533035 40.254852,93.961065 42.537979,96.568715 C 50.280961,102.94647 58.043543,109.41595 64.330389,117.01943 C 74.570023,121.10679 85.959819,117.55614 95.313385,113.22375 C 103.50328,109.12568 112.7051,106.21174 119.25922,99.930625 C 127.78404,92.130055 133.75351,82.465506 141.63367,74.184534 C 146.0602,68.466066 149.47453,62.184985 152.7395,55.886923 z"
       id="path3177" />
    <path
       style="opacity:1;fill:#2d5016;fill-opacity:1;stroke:#000000;stroke-width:3;stroke-miterlimit:4;stroke-dasharray:none;stroke-opacity:1"
       d="M 130.59332,91.563625 C 131.77164,102.43455 137.30865,149.98701 127.9808,155.29737 C 119.14395,151.48772 110.18848,148.00074 100.74687,145.39901 C 89.635851,142.11062 48.021897,132.47741 56.155611,119.43416 C 80.255011,99.874765 103.14412,101.40094 129.41605,92.434685 L 130.59332,91.563625 L 130.59332,91.563625 z"
       id="path3179"
       sodipodi:nodetypes="ccccccc" />
    <path
       style="opacity:1;fill:#2d5016;fill-opacity:1;stroke:#000000;stroke-width:3;stroke-miterlimit:4;stroke-dasharray:none;stroke-opacity:1"
       d="M 159.30097,57.014107 C 155.10648,52.571341 148.65935,54.958071 144.45614,57.97288 C 134.36897,65.428436 131.66697,77.656092 128.23641,88.419965 C 123.34802,111.24333 127.20779,140.07628 130.60886,163.59352 C 132.18148,173.87579 135.78504,185.23062 146.00948,191.1606 C 152.86738,191.85655 159.14917,187.57506 161.44991,181.88554 C 175.60427,140.91459 176.0655,97.365065 159.30097,57.014107 z"
       id="path3162"
       sodipodi:nodetypes="ccccccc" />
    <path
       style="opacity:1;fill:#ffffff;fill-opacity:0.31395347000000001;stroke:none;stroke-width:3;stroke-miterlimit:4;stroke-dasharray:none;stroke-opacity:1"
       d="M 128.40237,63.01775 C 111.42783,65.343573 38.719595,89.320976 49.205484,90.045404 C 72.283041,81.900978 101.27703,81.739644 123.83187,73.837368 C 130.57088,71.196421 137.05793,64.737191 128.40237,63.01775 L 128.40237,63.01775 z"
       id="path3266"
       sodipodi:nodetypes="ccccc" />
    <path
       style="opacity:1;fill:#000000;fill-opacity:0.31395349000000000;stroke:none;stroke-width:3;stroke-miterlimit:4;stroke-dasharray:none;stroke-opacity:1"
       d="M 126.19719,181.85702 C 109.22265,179.5312 36.514415,155.55379 47.000304,154.82937 C 67.424642,164.1765 111.41643,161.93518 128.18128,175.03931 C 131.0839,177.76224 131.69337,180.76519 126.19719,181.85702 L 126.19719,181.85702 z"
       id="path3273"
       sodipodi:nodetypes="ccccc" />
    <path
       style="opacity:1;fill:#ffffff;fill-opacity:0.31395347000000001;stroke:none;stroke-width:3;stroke-miterlimit:4;stroke-dasharray:none;stroke-opacity:1"
       d="M 156.80474,64.201183 C 153.90318,62.104721 149.65886,62.003862 146.70643,64.041544 C 144.74546,65.860953 143.78668,68.442109 142.60117,70.776909 C 141.81123,72.643972 141.0417,74.587872 140.7876,76.59919 C 141.47696,77.71626 143.00634,76.556821 143.95803,76.31713 C 145.7567,75.526581 147.63274,74.675978 149.64774,74.850575 C 151.42752,74.757208 153.4253,74.690512 154.84522,75.967522 C 156.2361,77.032795 157.23659,78.589986 158.81215,79.408769 C 160.30743,79.402734 160.25234,77.390919 160.49138,76.29292 C 160.85046,73.264466 160.05384,70.266653 159.43668,67.33965 C 158.77492,66.25051 157.69281,65.47509 156.97518,64.413152 L 156.80474,64.201183 L 156.80474,64.201183 z"
       id="path3275" />
    <path
       style="opacity:1;fill:#000000;fill-opacity:0.31395349000000000;stroke:none;stroke-width:3;stroke-miterlimit:4;stroke-dasharray:none;stroke-opacity:1"
       d="M 153.45778,181.04832 C 150.55622,183.14478 146.3119,183.24564 143.35947,181.20796 C 141.3985,179.38855 140.43972,176.80739 139.25421,174.47259 C 138.46427,172.60553 137.69474,170.66163 137.44064,168.65031 C 138.13,167.53324 139.65938,168.69268 140.61107,168.93237 C 142.40974,169.72292 144.28578,170.57353 146.30078,170.39893 C 148.08056,170.4923 150.07834,170.55899 151.49826,169.28198 C 152.88914,168.21671 153.88963,166.65952 155.46519,165.84073 C 156.96047,165.84677 156.90538,167.85858 157.14442,168.95658 C 157.5035,171.98504 156.70688,174.98285 156.08972,177.90985 C 155.42796,178.99899 154.34585,179.77441 153.62822,180.83635 L 153.45778,181.04832 L 153.45778,181.04832 z"
       id="path3279" />
    <path
       style="opacity:1;fill:#ffffff;fill-opacity:0.31395349000000000;stroke:none;stroke-width:3;stroke-miterlimit:4;stroke-dasharray:none;stroke-opacity:1"
       d="M 116.56805,102.07101 C 104.45056,103.83938 93.114545,109.00723 81.271055,111.82294 C 76.816115,112.38622 61.882887,120.08565 73.409542,118.39001 C 87.091721,117.09128 100.68399,114.52873 114.24131,112.60388 C 118.60994,111.18279 122.23954,104.63107 116.56805,102.07101 z"
       id="path3283" />
    <path
       style="opacity:1;fill:#000000;fill-opacity:0.31395349000000000;stroke:none;stroke-width:3;stroke-miterlimit:4;stroke-dasharray:none;stroke-opacity:1"
       d="M 118.12115,144.67173 C 106.00366,142.90336 94.66764,137.73551 82.82415,134.9198 C 78.36921,134.35652 63.435982,126.65709 74.962637,128.35273 C 88.644816,129.65146 102.23709,132.21401 115.79441,134.13886 C 120.16304,135.55995 123.79264,142.11167 118.12115,144.67173 z"
       id="path3294" />
    <path
       style="opacity:1;fill:#ffffff;fill-opacity:0.31395347000000001;stroke:none;stroke-width:3;stroke-miterlimit:4;stroke-dasharray:none;stroke-opacity:1"
       d="M 38.461536,100.88757 C 35.532467,101.12245 33.29092,103.29942 30.729266,104.50922 C 27.050752,106.65283 24.309676,110.03017 21.849757,113.43032 C 20.943311,114.71853 19.033563,117.96767 22.21924,116.85228 C 28.130531,115.56655 33.878849,113.6068 39.733285,112.14503 C 42.943015,112.10542 45.747436,109.32789 45.17034,106.03839 C 44.590093,102.74399 41.096779,101.93683 38.461536,100.88757 z"
       id="path3298" />
    <path
       style="opacity:1;fill:#000000;fill-opacity:0.31395347000000001;stroke:none;stroke-width:3;stroke-miterlimit:4;stroke-dasharray:none;stroke-opacity:1"
       d="M 37.566194,144.48751 C 34.637125,144.25263 32.395578,142.07566 29.833924,140.86586 C 26.15541,138.72225 23.414334,135.34491 20.954415,131.94476 C 20.047969,130.65655 18.138221,127.40741 21.323898,128.5228 C 27.235189,129.80853 32.983507,131.76828 38.837943,133.23005 C 42.047673,133.26966 44.852094,136.04719 44.274998,139.33669 C 43.694751,142.63109 40.201437,143.43825 37.566194,144.48751 z"
       id="path3304" />
    <path
       style="opacity:1;fill:#000000;fill-opacity:0.31395347000000001;stroke:none;stroke-width:3;stroke-miterlimit:4;stroke-dasharray:none;stroke-opacity:1"
       d="M 198.22485,122.18935 C 194.56768,123.90718 191.84578,127.13102 190.04188,130.67655 C 188.28994,133.06204 185.74807,134.6738 183.58734,136.64406 C 181.45924,138.02824 178.01609,136.91676 177.37511,134.40134 C 177.29673,132.12049 179.50272,130.66471 181.20339,129.57201 C 184.53219,127.69797 188.36632,127.00078 191.72858,125.18934 C 193.91237,124.23301 196.21395,123.49948 198.22485,122.18935 z"
       id="path3308" />
    <path
       style="opacity:1;fill:#ffffff;fill-opacity:0.31395347000000001;stroke:none;stroke-width:3;stroke-miterlimit:4;stroke-dasharray:none;stroke-opacity:1"
       d="M 194.67456,115.68047 C 194.13789,114.27937 192.87224,113.33056 191.97521,112.16812 C 189.70644,109.61146 186.99447,107.40241 183.80374,106.11243 C 182.36557,105.48393 180.99617,104.69185 179.58049,104.03479 C 177.33121,103.94361 177.39968,106.9397 177.41876,108.54191 C 177.18094,110.1111 178.37567,111.26759 179.68374,111.86645 C 182.60791,113.38006 185.92864,113.82833 188.97426,115.0371 C 190.59379,115.64842 192.33671,116.02127 194.0642,115.7013 L 194.36921,115.68623 L 194.67456,115.68047 L 194.67456,115.68047 z"
       id="path3313" />
  </g>
</svg>
