<?xml version="1.0" encoding="UTF-8" standalone="no"?>
<!-- Created with Inkscape (http://www.inkscape.org/) -->
<svg
   xmlns:dc="http://purl.org/dc/elements/1.1/"
   xmlns:cc="http://creativecommons.org/ns#"
   xmlns:rdf="http://www.w3.org/1999/02/22-rdf-syntax-ns#"
   xmlns:svg="http://www.w3.org/2000/svg"
   xmlns="http://www.w3.org/2000/svg"
   xmlns:sodipodi="http://sodipodi.sourceforge.net/DTD/sodipodi-0.dtd"
   xmlns:inkscape="http://www.inkscape.org/namespaces/inkscape"
   width="250"
   height="250"
   id="svg2"
   sodipodi:version="0.32"
   inkscape:version="0.46"
   sodipodi:docname="slug.svg"
   inkscape:output_extension="org.inkscape.output.svg.inkscape"
   inkscape:export-filename="P:\pidgey2\data\images\slug.png"
   inkscape:export-xdpi="92.160004"
   inkscape:export-ydpi="92.160004"
   version="1.0">
  <defs
     id="defs4">
    <inkscape:perspective
       sodipodi:type="inkscape:persp3d"
       inkscape:vp_x="0 : 125 : 1"
       inkscape:vp_y="0 : 1000 : 0"
       inkscape:vp_z="250 : 125 : 1"
       inkscape:persp3d-origin="125 : 83.333333 : 1"
       id="perspective3645" />
  </defs>
  <sodipodi:namedview
     id="base"
     pagecolor="#cb90ff"
     bordercolor="#666666"
     borderopacity="1.0"
     gridtolerance="10000"
     guidetolerance="10"
     objecttolerance="10"
     inkscape:pageopacity="0"
     inkscape:pageshadow="2"
     inkscape:zoom="3.3800002"
     inkscape:cx="86.388797"
     inkscape:cy="149.89325"
     inkscape:document-units="px"
     inkscape:current-layer="layer1"
     showgrid="false"
     inkscape:window-width="1680"
     inkscape:window-height="994"
     inkscape:window-x="0"
     inkscape:window-y="22" />
  <metadata
     id="metadata7">
    <rdf:RDF>
      <cc:Work
         rdf:about="">
        <dc:format>image/svg+xml</dc:format>
        <dc:type
           rdf:resource="http://purl.org/dc/dcmitype/StillImage" />
      </cc:Work>
    </rdf:RDF>
  </metadata>
  <g
     inkscape:label="Layer 1"
     inkscape:groupmode="layer"
     id="layer1">
    <path
       style="opacity:1;fill:none;fill-opacity:1;stroke:#000000;stroke-width:3;stroke-miterlimit:4;stroke-dasharray:none;stroke-opacity:1"
       d="M 218.10097,112.79668 C 218.71252,110.26395 222.07043,105.57988 224.65647,102.89427 C 226.75212,100.71794 231.51278,99.721666 233.59581,99.180859 C 235.14123,98.779631 237.35107,99.180859 238.95941,99.180859"
       id="path3338" />
    <path
       sodipodi:type="arc"
       style="opacity:1;fill:#000000;fill-opacity:1;stroke:none;stroke-width:2.92291975;stroke-miterlimit:4;stroke-dasharray:none;stroke-opacity:1"
       id="path3342"
       sodipodi:cx="244.67455"
       sodipodi:cy="89.053261"
       sodipodi:rx="4.4378695"
       sodipodi:ry="4.1420116"
       d="M 249.11241,89.053261 A 4.4378695,4.1420116 0 1 1 240.23668,89.053261 A 4.4378695,4.1420116 0 1 1 249.11241,89.053261 z"
       transform="matrix(1.007165,0,0,1.0459432,-3.3680651,5.8010321)" />
    <path
       style="opacity:1;fill:none;fill-opacity:1;stroke:#000000;stroke-width:3;stroke-miterlimit:4;stroke-dasharray:none;stroke-opacity:1"
       d="M 219.47086,130.31075 C 220.08241,132.84348 223.44034,137.52756 226.02636,140.21316 C 228.12201,142.3895 232.88267,143.38577 234.9657,143.92658 C 236.51112,144.3278 238.72097,143.92658 240.32932,143.92658"
       id="path3344" />
    <path
       sodipodi:type="arc"
       style="opacity:1;fill:#000000;fill-opacity:1;stroke:none;stroke-width:2.92291975;stroke-miterlimit:4;stroke-dasharray:none;stroke-opacity:1"
       id="path3346"
       sodipodi:cx="244.67455"
       sodipodi:cy="89.053261"
       sodipodi:rx="4.4378695"
       sodipodi:ry="4.1420116"
       d="M 249.11241,89.053261 A 4.4378695,4.1420116 0 1 1 240.23668,89.053261 A 4.4378695,4.1420116 0 1 1 249.11241,89.053261 z"
       transform="matrix(1.007165,0,0,-1.0459432,-1.9981713,237.30641)" />
    <path
       style="opacity:1;fill:#6c5d53;fill-opacity:1;stroke:#000000;stroke-width:3;stroke-miterlimit:4;stroke-dasharray:none;stroke-opacity:1"
       d="M 209.16162,114.88857 C 204.6375,90.124582 168.47094,100.14508 168.32498,98.770274 C 142.93221,96.528825 116.73292,104.46725 91.477928,99.792289 C 74.374221,99.753027 54.279706,95.025296 38.41549,103.40767 C 26.659599,112.06568 3.6864955,105.87157 4.9287953,126.20456 C 4.6539416,152.61035 22.735023,150.81068 38.580059,156.02113 C 48.534697,162.08795 60.335915,160.89179 72.16321,159.44544 C 87.74658,159.58336 102.90054,163.64999 118.53709,162.72245 C 148.00604,163.11709 180.53913,161.18721 209.85117,154.61749 C 225.18325,148.72442 212.75056,139.26529 211.44327,126.09004 C 211.07257,122.29652 210.82619,118.36399 209.16162,114.88857 z"
       id="path3333"
       sodipodi:nodetypes="ccccccccccc" />
    <path
       style="opacity:1;fill:#483737;fill-opacity:1;stroke:#000000;stroke-width:3;stroke-miterlimit:4;stroke-dasharray:none;stroke-opacity:1"
       d="M 31.725614,113.09136 C 55.492146,109.20646 79.026493,103.45169 104.27344,108.46438 C 141.74741,106.35705 180.55561,101.76237 216.67755,111.37281 C 227.30657,114.20072 222.03509,137.43045 214.11752,139.85829 C 203.67084,145.57142 192.2538,149.17667 180.45237,149.99889 C 169.40667,151.47215 158.36658,152.97474 147.20722,153.03345 C 138.2722,153.65788 129.4451,156.117 120.43072,154.76488 C 107.70588,153.48063 94.904809,153.63935 82.19795,152.07757 C 70.840806,151.65561 59.355407,151.76875 48.3129,148.52852 C 38.131697,146.9373 29.219531,141.15367 19.647741,137.55274 C 4.8145953,124.35788 18.545031,116.58238 31.725614,113.09136 z"
       id="path3325"
       sodipodi:nodetypes="ccscccccccc" />
    <path
       style="opacity:1;fill:#000000;fill-opacity:0.25000000000000000;stroke:none;stroke-width:3;stroke-miterlimit:4;stroke-dasharray:none;stroke-opacity:1"
       d="M 203.6872,139.00957 C 170.36587,149.28583 138.30939,147.73563 103.68873,147.97561 C 86.30475,147.57801 70.206489,144.71742 52.956686,142.77963 C 41.309835,141.8694 33.339044,137.48868 22.022185,134.21235 C 84.262112,141.6406 149.29784,136.99035 213.52283,131.57005 C 218.45335,132.83446 206.32206,135.81297 203.68721,139.00957 L 203.6872,139.00957 z"
       id="path3440"
       sodipodi:nodetypes="ccccccc" />
    <path
       style="opacity:1;fill:#ffffff;fill-opacity:0.25000000000000000;stroke:none;stroke-width:3;stroke-miterlimit:4;stroke-dasharray:none;stroke-opacity:1"
       d="M 214.61081,117.19417 C 174.53918,106.59566 133.02101,117.02047 92.29585,115.58674 C 70.42805,116.71842 46.290171,111.95111 26.470298,123.13647 C 39.732826,129.54779 63.445945,121.64365 80.573317,120.71243 C 121.0696,117.17349 161.75699,119.38357 202.22871,120.69769 C 206.40171,120.21032 211.2104,119.93736 214.61081,117.19417 z"
       id="path3443" />
  </g>
</svg>
