<?xml version="1.0" encoding="UTF-8" standalone="no"?>
<!-- Created with Inkscape (http://www.inkscape.org/) -->
<svg
   xmlns:dc="http://purl.org/dc/elements/1.1/"
   xmlns:cc="http://creativecommons.org/ns#"
   xmlns:rdf="http://www.w3.org/1999/02/22-rdf-syntax-ns#"
   xmlns:svg="http://www.w3.org/2000/svg"
   xmlns="http://www.w3.org/2000/svg"
   xmlns:sodipodi="http://sodipodi.sourceforge.net/DTD/sodipodi-0.dtd"
   xmlns:inkscape="http://www.inkscape.org/namespaces/inkscape"
   width="250"
   height="250"
   id="svg2"
   sodipodi:version="0.32"
   inkscape:version="0.46"
   sodipodi:docname="stick.svg"
   inkscape:output_extension="org.inkscape.output.svg.inkscape"
   inkscape:export-filename="P:\pidgey2\data\images\stick.png"
   inkscape:export-xdpi="92.160004"
   inkscape:export-ydpi="92.160004"
   version="1.0">
  <defs
     id="defs4">
    <inkscape:perspective
       sodipodi:type="inkscape:persp3d"
       inkscape:vp_x="0 : 125 : 1"
       inkscape:vp_y="0 : 1000 : 0"
       inkscape:vp_z="250 : 125 : 1"
       inkscape:persp3d-origin="125 : 83.333333 : 1"
       id="perspective12" />
  </defs>
  <sodipodi:namedview
     id="base"
     pagecolor="#cb90ff"
     bordercolor="#666666"
     borderopacity="1.0"
     gridtolerance="10000"
     guidetolerance="10"
     objecttolerance="10"
     inkscape:pageopacity="0"
     inkscape:pageshadow="2"
     inkscape:zoom="2.3900209"
     inkscape:cx="137.36592"
     inkscape:cy="136.83432"
     inkscape:document-units="px"
     inkscape:current-layer="layer1"
     showgrid="false"
     inkscape:window-width="1680"
     inkscape:window-height="994"
     inkscape:window-x="0"
     inkscape:window-y="22"
     showguides="true"
     inkscape:guide-bbox="true" />
  <metadata
     id="metadata7">
    <rdf:RDF>
      <cc:Work
         rdf:about="">
        <dc:format>image/svg+xml</dc:format>
        <dc:type
           rdf:resource="http://purl.org/dc/dcmitype/StillImage" />
      </cc:Work>
    </rdf:RDF>
  </metadata>
  <g
     inkscape:label="Layer 1"
     inkscape:groupmode="layer"
     id="layer1">
    <path
       style="opacity:1;fill:none;fill-opacity:1;stroke:#000000;stroke-width:3;stroke-miterlimit:4;stroke-dasharray:none;stroke-opacity:1"
       d="M 174.29384,118.10448 C 177.33234,109.31781 180.01121,100.32549 183.51281,91.720648 C 185.69403,88.772363 189.75501,89.044395 192.91716,89.650909 C 205.36375,94.461316 218.28144,97.571421 231.02045,101.31821 C 233.93801,101.40812 234.40167,98.004248 234.91898,95.757114 C 235.58906,93.047675 236.07715,90.291371 236.40903,87.516261"
       id="path3204"
       sodipodi:nodetypes="cccccc" />
    <path
       style="opacity:1;fill:none;fill-opacity:1;stroke:#000000;stroke-width:3;stroke-miterlimit:4;stroke-dasharray:none;stroke-opacity:1"
       d="M 175.50202,116.76167 C 178.35816,125.61354 180.85052,134.66305 184.17343,143.34339 C 186.29319,146.33925 190.35886,146.15712 193.53283,145.62068 C 206.07603,141.08671 219.05506,138.26307 231.86863,134.79895 C 234.78738,134.7736 235.18054,138.18694 235.65128,140.44501 C 236.26521,143.16865 236.6962,145.93512 236.97064,148.71694"
       id="path3208"
       sodipodi:nodetypes="cccccc" />
    <path
       style="opacity:1;fill:none;fill-opacity:1;stroke:#000000;stroke-width:3;stroke-miterlimit:4;stroke-dasharray:none;stroke-opacity:1"
       d="M 149.92734,126.98285 C 156.69403,118.31306 162.72769,109.17311 168.79728,99.982769 C 170.55381,96.569171 176.89566,90.696561 169.26661,90.715309 C 151.38317,84.40222 132.53749,85.210259 114.18418,81.356311 C 110.70752,79.858267 101.52807,81.21431 105.19084,75.165499 C 107.7922,71.495776 107.77107,66.782302 110.05441,62.960102"
       id="path3210"
       sodipodi:nodetypes="cccccc" />
    <path
       style="opacity:1;fill:none;fill-opacity:1;stroke:#000000;stroke-width:3;stroke-miterlimit:4;stroke-dasharray:none;stroke-opacity:1"
       d="M 151.91164,113.54477 C 158.49755,122.36226 164.34086,131.63359 170.21907,140.9561 C 171.90462,144.40777 178.1236,150.41934 170.4967,150.23182 C 152.48682,156.14787 133.66215,154.92313 115.23336,158.37019 C 111.72652,159.79099 102.57721,158.2322 106.11409,164.36065 C 108.63899,168.08709 108.52041,172.799 110.72421,176.67085"
       id="path3214"
       sodipodi:nodetypes="cccccc" />
    <path
       style="opacity:1;fill:none;fill-opacity:1;stroke:#000000;stroke-width:3;stroke-miterlimit:4;stroke-dasharray:none;stroke-opacity:1"
       d="M 136.62484,107.86483 C 136.63452,104.6431 136.63955,101.42065 137.04251,98.221394 C 137.76512,95.021974 134.17149,95.789734 132.30581,95.788084 C 115.97485,97.456534 99.45118,92.915094 83.15517,94.977384 C 81.127361,93.853704 82.775147,90.763164 82.332162,88.834164 C 82.355106,86.614787 82.37805,84.395411 82.400994,82.176033"
       id="path3216"
       sodipodi:nodetypes="cccccc" />
    <path
       style="opacity:1;fill:none;fill-opacity:1;stroke:#000000;stroke-width:3;stroke-miterlimit:4;stroke-dasharray:none;stroke-opacity:1"
       d="M 138.0318,130.6209 C 137.97489,133.84211 137.91328,137.06393 138.25001,140.27139 C 138.90631,143.48605 135.32937,142.63897 133.46409,142.59935 C 117.17135,140.57002 100.55758,144.7449 84.307933,142.3226 C 82.257355,143.40117 83.840873,146.52744 83.358107,148.4462 C 83.335163,150.66558 83.312219,152.88495 83.289275,155.10433"
       id="path3219"
       sodipodi:nodetypes="cccccc" />
    <path
       style="opacity:1;fill:#88aa00;fill-opacity:1;stroke:#000000;stroke-width:4.03781843;stroke-miterlimit:4;stroke-dasharray:none;stroke-opacity:1"
       d="M 123.06594,110.10664 C 98.338726,111.87105 73.569189,111.43754 48.832672,110.76931 C 36.065634,110.00255 23.292888,108.82202 10.516669,109.46601 C 4.3194049,122.34751 6.505401,120.74948 9.8434498,132.86822 C 43.688195,139.83692 87.168887,132.27804 120.98441,129.48925 C 125.93046,128.21468 125.4857,115.73039 123.06594,110.10664 z"
       id="path3183"
       sodipodi:nodetypes="cccccc" />
    <path
       style="opacity:1;fill:#88aa00;fill-opacity:1;stroke:#000000;stroke-width:3.84886265;stroke-miterlimit:4;stroke-dasharray:none;stroke-opacity:1"
       d="M 140.02983,106.51719 C 134.42238,107.55253 119.93644,104.44668 121.86407,120.047 C 122.23763,133.83429 130.70393,130.61963 136.10895,130.86807 C 145.86521,128.4322 167.41997,128.80643 188.27231,128.03183 C 188.51261,121.52776 191.35608,107.83121 188.9512,107.4952 C 177.71138,105.9248 149.5463,108.42398 140.02983,106.51719 z"
       id="path3188"
       sodipodi:nodetypes="ccccsc" />
    <path
       style="opacity:1;fill:#88aa00;fill-opacity:1;stroke:#000000;stroke-width:3.69073963;stroke-miterlimit:4;stroke-dasharray:none;stroke-opacity:1"
       d="M 208.90135,118.23644 C 208.71852,97.084502 195.08766,89.717636 189.38616,108.90104 C 186.2668,120.27166 190.12151,147.40696 201.25145,135.35887 C 207.12676,132.5848 207.41503,124.33161 208.90135,118.23644 z"
       id="path3194"
       sodipodi:nodetypes="cccc" />
    <path
       style="opacity:1;fill:#ffcc00;fill-opacity:1;stroke:#000000;stroke-width:3.69073963;stroke-miterlimit:4;stroke-dasharray:none;stroke-opacity:1"
       d="M 195.81364,111.23016 C 184.46389,109.56948 194.96078,91.985324 203.18853,99.075892 C 209.02565,104.59007 203.13989,112.46351 195.81364,111.23016 z"
       id="path3221" />
    <path
       style="opacity:1;fill:#ffcc00;fill-opacity:1;stroke:#000000;stroke-width:3.69073963;stroke-miterlimit:4;stroke-dasharray:none;stroke-opacity:1"
       d="M 195.14041,124.76021 C 183.75681,126.18397 193.86541,143.98287 202.24688,137.06538 C 208.20368,131.67411 202.49205,123.67981 195.14041,124.76021 z"
       id="path3233" />
    <path
       style="opacity:1;fill:#ffffff;fill-opacity:0.56976743;stroke:none;stroke-width:3;stroke-miterlimit:4;stroke-dasharray:none;stroke-opacity:1"
       d="M 185.72236,112.34193 C 167.94469,113.29895 149.97284,110.85181 132.23497,112.61151 C 116.58819,114.8036 132.70694,114.84024 138.65171,114.30219 C 154.2003,113.56504 169.8923,115.34818 185.42514,114.26604 C 186.35048,113.82347 185.81812,112.96396 185.72236,112.34193 z"
       id="path3235"
       sodipodi:nodetypes="ccccc" />
    <path
       style="opacity:1;fill:#ffffff;fill-opacity:0.58139535;stroke:none;stroke-width:3;stroke-miterlimit:4;stroke-dasharray:none;stroke-opacity:1"
       d="M 118.18592,116.43945 C 83.687119,118.84216 44.553894,111.71635 11.175769,117.62808 C 38.117952,118.07505 65.167688,118.6916 92.178455,118.83584 C 98.217906,118.95941 104.25509,119.26184 110.29761,119.10968 C 112.82782,119.13359 115.3709,119.21964 117.88763,118.92312 C 118.81632,118.35184 118.28203,117.24237 118.18592,116.43945 z"
       id="path3240"
       sodipodi:nodetypes="cccccc" />
    <path
       style="opacity:1;fill:#000000;fill-opacity:0.57558139;stroke:none;stroke-width:3;stroke-miterlimit:4;stroke-dasharray:none;stroke-opacity:1"
       d="M 13.769435,128.70073 C 30.534431,129.83581 47.424377,130.46294 64.234938,130.27915 C 68.324397,129.98839 75.719835,128.29733 67.374855,128.39521 C 60.673367,128.79425 16.554227,125.34577 13.769435,128.70073 z"
       id="path3242"
       sodipodi:nodetypes="cccc" />
    <path
       style="opacity:1;fill:#000000;fill-opacity:0.6104652;stroke:none;stroke-width:3;stroke-miterlimit:4;stroke-dasharray:none;stroke-opacity:1"
       d="M 126.4013,123.97376 C 144.17378,125.14727 161.22421,123.41517 180.43583,124.19155 C 185.19453,123.95163 189.85678,122.71969 184.29161,121.06083 C 165.32212,123.64165 145.49692,120.52381 126.4013,123.97376 z"
       id="path3251"
       sodipodi:nodetypes="cccc" />
    <path
       style="opacity:1;fill:#ffffff;fill-opacity:0.77325583;stroke:none;stroke-width:3;stroke-miterlimit:4;stroke-dasharray:none;stroke-opacity:1"
       d="M 199.26734,100.56394 C 200.52116,101.31196 202.17732,103.05089 202.64236,104.80327 C 203.06787,106.40675 199.09441,104.85087 197.39232,104.45 C 194.65174,103.80454 198.35659,101.07872 199.26734,100.56394 z"
       id="path3257" />
    <path
       style="opacity:1;fill:#ffffff;fill-opacity:0.77325583;stroke:none;stroke-width:3;stroke-miterlimit:4;stroke-dasharray:none;stroke-opacity:1"
       d="M 197.66168,127.76442 C 198.9155,128.51244 200.57167,130.25136 201.0367,132.00375 C 201.46222,133.60723 197.48875,132.05134 195.78667,131.65048 C 193.04608,131.00502 196.75094,128.2792 197.66168,127.76442 z"
       id="path3259" />
  </g>
</svg>
